<svg id="Layer_1" data-name="Layer 1" xmlns="http://www.w3.org/2000/svg" viewBox="0 0 232.48 380"><defs><style>.cls-1{fill:#e6e7e8;}.cls-2{fill:none;stroke:#231f20;stroke-miterlimit:10;stroke-width:2px;}.cls-3{fill:#bcbec0;}.cls-4{fill:#231f20;}</style></defs><title>404</title><path class="cls-1" d="M362.4,217.89h-133a39,39,0,0,0-39,39v284a39,39,0,0,0,39,39h133a39,39,0,0,0,39-39v-284A39,39,0,0,0,362.4,217.89ZM327.6,228a3.19,3.19,0,0,1-3.2,3.19h-57A3.19,3.19,0,0,1,264.2,228h0a3.19,3.19,0,0,1,3.19-3.19h57a3.19,3.19,0,0,1,3.2,3.19Z" transform="translate(-181.4 -209.89)"/><path class="cls-2" d="M412.88,344.27V287.83a3.48,3.48,0,0,0-3.48-3.48V249.89a39,39,0,0,0-39-39h-149a39,39,0,0,0-39,39v300a39,39,0,0,0,39,39h149a39,39,0,0,0,39-39v-151a3.48,3.48,0,0,0,3.48-3.48V370.67a3.48,3.48,0,0,0-3.48-3.48V347.75A3.48,3.48,0,0,0,412.88,344.27Z" transform="translate(-181.4 -209.89)"/><path class="cls-3" d="M321.84,352.41a142.28,142.28,0,0,0-131.44,87.8V540.89a38.85,38.85,0,0,0,2.81,14.54c.93,2,1.91,3.91,2.92,5.82a39,39,0,0,0,33.27,18.64h133a39,39,0,0,0,39-39V376.72A141.59,141.59,0,0,0,321.84,352.41Z" transform="translate(-181.4 -209.89)"/><path class="cls-4" d="M267.81,435l10.39-10.4a2.13,2.13,0,0,0,0-3h0a2.13,2.13,0,0,0-3,0L264.8,431.94l-10.4-10.39a2.13,2.13,0,1,0-3,3L261.78,435l-10.39,10.39a2.13,2.13,0,1,0,3,3L264.8,438l10.39,10.39a2.13,2.13,0,0,0,3,0h0a2.13,2.13,0,0,0,0-3Z" transform="translate(-181.4 -209.89)"/><path class="cls-4" d="M371.85,435l10.39-10.4a2.13,2.13,0,0,0-3-3l-10.39,10.39-10.4-10.39a2.13,2.13,0,0,0-3,3L365.82,435l-10.39,10.39a2.13,2.13,0,0,0,3,3L368.84,438l10.39,10.39a2.13,2.13,0,0,0,3-3Z" transform="translate(-181.4 -209.89)"/><rect class="cls-4" x="297.86" y="510.13" width="37.91" height="4.26" rx="2.13" transform="translate(452.23 814.63) rotate(180)"/></svg>