<svg id="Layer_1" data-name="Layer 1" xmlns="http://www.w3.org/2000/svg" viewBox="0 0 416.44 416.44"><defs><style>.cls-1{fill:#e4f5fa;}.cls-2{fill:#3e63ae;stroke:#231f20;stroke-miterlimit:10;stroke-width:9px;}</style></defs><title>about boru</title><rect class="cls-1" width="416.44" height="416.44" rx="23.29"/><path class="cls-2" d="M665.47,424.29A67.3,67.3,0,0,0,634,414.21c-4-.24-8.05-.06-11.73-2.14a15,15,0,0,1-7.31-16.69,14.68,14.68,0,0,1,14-11.29c20.47-.3,39.15,5.59,56,17,18.63,12.64,31.29,29.91,38.36,51.21a94.31,94.31,0,0,1,4.53,24.71c1.26,23.2-4.84,44.28-18.4,63-15.82,21.85-37.23,35.07-63.88,39.65a114.74,114.74,0,0,1-19.77,1.42c-15.76,0-31.51-.07-47.26.18-23.22.38-44.19-17.32-47.37-40.29-.62-4.45-.16-8.93-.16-13.39,0-41.73.18-83.45,0-125.17-.12-24.17,5.58-46.64,18.93-66.81,18.49-27.93,44.18-45.55,77.22-52.05,13.29-2.61,26.71-3.45,39.92,0,32.13,8.4,51.88,29.12,59.5,61.34a53.58,53.58,0,0,1,1.27,17.32c-.68,7.32-7.49,13.25-14.9,13.11-7.69-.15-14.38-6.19-14.68-13.65-.46-11.16-3-21.59-10-30.58-9.73-12.62-22.6-19.42-38.54-19.52a88.05,88.05,0,0,0-87.32,72.2c-1.27,6.82-1.32,13.71-1.32,20.59q0,61.11,0,122.22v2.09Zm22.28,22.39L583.36,551.09H585c14.86-.06,29.71-.22,44.57-.14a65.46,65.46,0,0,0,33-8.51c28.7-16.22,41.68-48.58,32.25-80.16A56.11,56.11,0,0,0,687.75,446.68Z" transform="translate(-421.18 -223.12)"/></svg>