<svg id="Layer_1" data-name="Layer 1" xmlns="http://www.w3.org/2000/svg" viewBox="0 0 100 99.86"><defs><style>.cls-1{fill:#231f20;}</style></defs><title>Add product</title><path class="cls-1" d="M539,420.71v.94c0,3.55,0,7.1,0,10.64,0,.74.2.9.89.7a25.49,25.49,0,0,1,5.93-1.08c.81,0,1-.29,1-1.08q0-9,0-18.06a1.31,1.31,0,0,0-.86-1.41c-6-3-12-6-17.93-9-5.2-2.61-10.41-5.2-15.6-7.83a1.5,1.5,0,0,0-1.53,0c-4.63,2.35-9.3,4.66-14,7L476.5,411.78v44c11,5.52,22.1,11,33.11,16.59,1.54.79,2.78.95,4.15-.08l.08,0c.45-.16.54-.45.47-.92A28.65,28.65,0,0,1,514,466c0-.86.1-1.72.16-2.62a3,3,0,0,0-1.41.58,1.92,1.92,0,0,1-2.23,0c-4.33-2.22-8.7-4.37-13-6.55-4.15-2.07-8.29-4.15-12.44-6.2a1.13,1.13,0,0,1-.75-1.19c0-1.11,0-2.21,0-3.32V420.59c.31.13.49.19.66.27q11.07,5.55,22.17,11.07c.59.29.65.68.65,1.24,0,4.72,0,9.44,0,14.16,0,1.16,0,2.33,0,3.49,0,.46.15.63.61.62H515c.46,0,.62-.16.61-.62,0-1.16,0-2.33,0-3.49,0-4.69,0-9.37,0-14.06a1.38,1.38,0,0,1,.92-1.47c7.2-3.56,14.37-7.17,21.56-10.75A1.79,1.79,0,0,1,539,420.71Zm-9.24-4.31c-5.45,2.73-10.92,5.45-16.35,8.24a3.34,3.34,0,0,1-3.44.05c-5.41-2.81-10.91-5.46-16.36-8.18-1.45-.73-2.87-1.5-4.4-2.3l4.41-2.21,17.27-8.64a1.33,1.33,0,0,1,1.35-.11q10.66,5.37,21.37,10.7c.14.07.27.17.5.31C532.61,415,531.18,415.69,529.76,416.4Z" transform="translate(-476.5 -394.35)"/><path class="cls-1" d="M575.37,459.13a26.66,26.66,0,0,0-4.52-8.88,21.45,21.45,0,0,0-4.21-4.3,36,36,0,0,0-2.9-2.18,26.73,26.73,0,0,0-20.35-3.62,25,25,0,0,0-11.72,5.8,1.05,1.05,0,0,0-.26.13c-7.37,6.59-10.66,14.84-9.3,24.62,1.6,11.49,9.7,20.05,21,22.84a16.21,16.21,0,0,1,3.09.67h5.67c.09-.18.25-.18.41-.19a26,26,0,0,0,12.21-4.57A27.2,27.2,0,0,0,575.37,459.13Zm-26.19,27.26a19.53,19.53,0,1,1,19.5-19.49A19.58,19.58,0,0,1,549.18,486.39Z" transform="translate(-476.5 -394.35)"/><path class="cls-1" d="M560.89,463.88c0-.72-.16-1-.91-.94-2,.05-4,0-6.05,0-.67,0-.9-.15-.89-.86.05-2.05,0-4.1,0-6.14,0-.63-.15-.85-.81-.84q-3.06.06-6.14,0c-.67,0-.9.16-.89.86,0,2.05,0,4.1,0,6.15,0,.62-.15.84-.81.83-2.08,0-4.16,0-6.25,0-.58,0-.79.14-.78.76,0,2.11,0,4.23,0,6.34,0,.54.14.75.7.73,1,0,2.09,0,3.13,0s2.08,0,3.12,0c.67,0,.9.15.88.86,0,2,0,4.09,0,6.14,0,.63.15.85.8.84q3.08-.06,6.15,0c.67,0,.9-.16.89-.86-.05-2,0-4,0-6.05,0-.72.15-1,.91-.94,2,.06,4,0,6,0,.66,0,.9-.15.88-.85Q560.82,466.9,560.89,463.88Z" transform="translate(-476.5 -394.35)"/></svg>