<svg id="Layer_1" data-name="Layer 1" xmlns="http://www.w3.org/2000/svg" viewBox="0 0 87.7 80"><title>Add image</title><path d="M539,526V510.08H523.28v-7.86H538.9V486.29h7.86v15.59H562.7v7.86H547V526Z" transform="translate(-475 -446)"/><path d="M554.91,477.77h-7.8V454.25H483.23v47.54h31.42v8.12c-11,0-22,.28-32.9-.13-4.29-.17-6.7-3.47-6.71-7.92,0-16-.08-32,0-47.94,0-4.74,3.13-7.83,7.88-7.85,21.3-.1,42.61-.07,63.92,0,4.44,0,7.67,2.42,7.91,6.72C555.24,461,554.91,469.3,554.91,477.77Z" transform="translate(-475 -446)"/><path d="M490.3,493.65l10.81-13.83,9.25,10.62,14.25-16c7,4.83,7.07,11.68,6,19.23Z" transform="translate(-475 -446)"/></svg>