<svg id="Layer_1" data-name="Layer 1" xmlns="http://www.w3.org/2000/svg" viewBox="0 0 416.44 416.44"><defs><style>.cls-1{fill:#e4f5fa;}.cls-2{fill:#0f0c07;}.cls-3{fill:#fedb64;}.cls-4{fill:#f7e9c7;}.cls-5{fill:#ed527d;}.cls-6{fill:#ea1f47;}.cls-7{fill:#fff;}</style></defs><title>Address Book</title><rect class="cls-1" width="416.44" height="416.44" rx="23.29"/><path class="cls-2" d="M145.56,368.82c-3-1-4-3.13-4-6.18q.08-88.92.05-177.83c0-13.67,7.77-23.89,20.94-27.8.5-.15,1.2.05,1.4-.71H283.18c1.77.57,3.56,1.09,5.3,1.73A27.16,27.16,0,0,1,306.2,183.2q.07,30.23,0,60.45c0,2.38.55,3.08,3,3,5.08-.2,10.17-.12,15.25,0,7.08.1,11,5.43,8.45,12a15.15,15.15,0,0,0,0,11.73c2.56,6.66-1.56,12-8.79,12-5.28,0-10.56.12-15.83-.05-2.06-.07-2.1.88-2,2.38s-.23,2.54,2,2.47c5.27-.18,10.55-.09,15.83-.05,7.36.05,11.42,5.49,8.79,12.31a14.75,14.75,0,0,0,0,11.46c2.59,6.64-1.46,12.15-8.63,12.24-5.37.06-10.75.13-16.12,0-2.31-.07-1.79,1.29-1.85,2.56S306,328,308,327.94c5.47-.14,10.94-.07,16.41,0,6.78,0,10.93,5.52,8.5,11.85a15.35,15.35,0,0,0-.07,12c2.54,6.41-1.39,11.81-8.27,11.95-5,.11-10,.19-15,0-2.68-.12-3.5.47-3.48,3.35.14,22.65.08,45.3.07,67.95,0,9.86-6.28,16.16-16.11,16.16H158c-9.92,0-16.3-6.38-16.32-16.37,0-14.49.05-29,0-43.47,0-3,.94-5.18,3.79-6.36,4.14.78,5.2,2,5.21,6.15,0,14.49,0,29,0,43.46,0,5.56,2.33,7.9,7.82,7.91l131.25,0c5.37,0,7.89-2.54,7.89-8q0-110.08.06-220.18c0-2.39-.77-2.75-2.9-2.76q-59-.17-118-.48c-4.21,0-8.44.29-12.63-.42-5-.83-9.26-3.26-13.5-6.58v83q0,37.56,0,75.12C150.59,366.86,149.58,368.15,145.56,368.82ZM310.8,314.13l12.06.15c1.25,0,2.15-.07,1.33-1.71a15.81,15.81,0,0,1,0-14.85c.82-1.64-.08-1.73-1.33-1.71q-6,.09-12.06.14c-4.59-.29-4.59-.29-4.59,4.28v10c0,3.94,0,3.94,4,3.8A2.63,2.63,0,0,0,310.8,314.13Zm0,40.75H325a17.21,17.21,0,0,1-.58-17.18c.71-1.45-.83-1.11-1.53-1.11-4,0-8,0-12.07.08a13.55,13.55,0,0,1-1.42-.1c-2.57-.44-3.44.54-3.27,3.19.24,3.79.06,7.61.06,11.41s0,3.9,4,3.79A3.43,3.43,0,0,0,310.76,354.88Zm0-99.46a13.18,13.18,0,0,1-1.42-.1c-2.7-.51-3.34.72-3.19,3.24.21,3.6,0,7.22,0,10.83,0,4.46,0,4.46,4.63,4.23,3.93,0,7.86,0,11.78.14,2.13.1,2.28-.69,1.46-2.26-2.52-4.79-2.14-9.55.05-14.32.23-.49.64-1,.27-1.76Zm-79.16-53V203q31.8,0,63.6,0c1.83,0,2.45-.39,2.4-2.33-.14-5.56,0-11.13-.06-16.69-.11-10.73-8.23-19-18.94-19q-54.68-.09-109.36,0a18.6,18.6,0,0,0-18.74,18.83c.07,10.47,8.25,18.54,19,18.57Q200.54,202.43,231.61,202.38Z" transform="translate(-29.4 -95.49)"/><path class="cls-3" d="M145.56,368.82c4-.67,5-2,5-6.56q0-37.56,0-75.12v-83c4.24,3.32,8.51,5.75,13.5,6.58,4.19.71,8.42.4,12.63.42q59,.3,118,.48c2.13,0,2.9.37,2.9,2.76q-.11,110.09-.06,220.18c0,5.41-2.52,8-7.89,8l-131.25,0c-5.49,0-7.81-2.35-7.82-7.91,0-14.49,0-29,0-43.46,0-4.17-1.07-5.37-5.21-6.15Zm78-30.08v0c-9.3,0-18.62-.29-27.91.07-11.24.44-21.13,10.21-21.85,21.44-.78,12-.4,24-.21,36a24,24,0,0,0,23.71,23.7c17.46.23,34.93.16,52.4,0a24.2,24.2,0,0,0,23.64-23.23q.38-17.4,0-34.83c-.25-12.23-10.29-22.61-22.44-23.09C241.76,338.45,232.64,338.74,223.52,338.74Zm-36.69-80.93c-.42,6.76,2.22,12.54,5.92,17.9,7.45,10.81,17.36,19.1,27.88,26.73a4.52,4.52,0,0,0,5.83-.16c2.53-1.9,5.09-3.76,7.54-5.76,8.11-6.64,15.76-13.75,21.34-22.75,3-4.88,5-10.1,4.77-16-.64-18.91-16.75-34.83-35.7-35.22A36.77,36.77,0,0,0,186.83,257.81Zm37,56.66c4,0,8,0,12,0,3.46,0,5.25-1.55,5.31-4.3.06-2.9-1.73-4.46-5.37-4.48q-11.91-.06-23.82,0c-3.31,0-5.34,1.68-5.41,4.26s2.05,4.48,5.48,4.52C216,314.51,220,314.47,223.87,314.47Z" transform="translate(-29.4 -95.49)"/><path class="cls-4" d="M231.61,202.38q-31.08,0-62.15,0c-10.7,0-18.88-8.1-19-18.57A18.6,18.6,0,0,1,169.25,165q54.67-.1,109.36,0c10.71,0,18.83,8.28,18.94,19,.06,5.56-.08,11.13.06,16.69.05,1.94-.57,2.34-2.4,2.33q-31.8-.09-63.6,0ZM226.15,188h53.5c.86,0,1.73,0,2.58,0a4,4,0,0,0,4-4.07,4.26,4.26,0,0,0-3.86-4.53,17,17,0,0,0-2,0H172.2a15,15,0,0,0-2,0,4.26,4.26,0,0,0-3.87,4.53,4.08,4.08,0,0,0,4,4.06,24.64,24.64,0,0,0,2.58,0Z" transform="translate(-29.4 -95.49)"/><path class="cls-5" d="M310.77,255.42H324.4c.37.77,0,1.27-.27,1.76-2.19,4.77-2.57,9.53-.05,14.32.82,1.57.67,2.36-1.46,2.26-3.92-.17-7.85-.1-11.78-.14Q310.81,264.52,310.77,255.42Z" transform="translate(-29.4 -95.49)"/><path class="cls-5" d="M310.84,336.67c4,0,8.05-.09,12.07-.08.7,0,2.24-.34,1.53,1.11a17.21,17.21,0,0,0,.58,17.18H310.76Q310.81,345.78,310.84,336.67Z" transform="translate(-29.4 -95.49)"/><path class="cls-5" d="M310.8,296.15q6-.06,12.06-.14c1.25,0,2.15.07,1.33,1.71a15.81,15.81,0,0,0,0,14.85c.82,1.64-.08,1.73-1.33,1.71l-12.06-.15Z" transform="translate(-29.4 -95.49)"/><path class="cls-6" d="M310.77,255.42q0,9.11.07,18.2c-4.63.23-4.63.23-4.63-4.23,0-3.61.16-7.23,0-10.83-.15-2.52.49-3.75,3.19-3.24A13.18,13.18,0,0,0,310.77,255.42Z" transform="translate(-29.4 -95.49)"/><path class="cls-6" d="M310.84,336.67q0,9.1-.08,18.21a3.43,3.43,0,0,1-.56.08c-4,.11-4,.11-4-3.79s.18-7.62-.06-11.41c-.17-2.65.7-3.63,3.27-3.19A13.55,13.55,0,0,0,310.84,336.67Z" transform="translate(-29.4 -95.49)"/><path class="cls-6" d="M310.8,296.15v18a2.63,2.63,0,0,1-.56.1c-4,.14-4,.14-4-3.8v-10C306.21,295.86,306.21,295.86,310.8,296.15Z" transform="translate(-29.4 -95.49)"/><path class="cls-2" d="M223.52,338.74c9.12,0,18.24-.29,27.34.07,12.15.48,22.19,10.86,22.44,23.09q.36,17.42,0,34.83A24.2,24.2,0,0,1,249.66,420c-17.47.14-34.94.21-52.4,0a24,24,0,0,1-23.71-23.7c-.19-12-.57-24,.21-36,.72-11.23,10.61-21,21.85-21.44,9.29-.36,18.61-.07,27.91-.07Zm.16,8.63c-8.35,0-16.7.26-25-.07a15.92,15.92,0,0,0-16.45,16.11c.17,10.55,0,21.11.07,31.66.09,9.78,6.74,16.25,16.57,16.27q24.61,0,49.22,0c9.86,0,16.61-6.76,16.65-16.6q.06-15.54,0-31.09c-.05-9.59-6.67-16.21-16.26-16.26C240.19,347.33,231.94,347.37,223.68,347.37Z" transform="translate(-29.4 -95.49)"/><path class="cls-2" d="M186.83,257.81a36.77,36.77,0,0,1,37.58-35.24c19,.39,35.06,16.31,35.7,35.22.2,5.88-1.75,11.1-4.77,16-5.58,9-13.23,16.11-21.34,22.75-2.45,2-5,3.86-7.54,5.76a4.52,4.52,0,0,1-5.83.16c-10.52-7.63-20.43-15.92-27.88-26.73C189.05,270.35,186.41,264.57,186.83,257.81Zm35.84,35.13c.53.72,1.11.56,1.71.09,9.09-7.09,17.86-14.51,24-24.5a18.73,18.73,0,0,0,3-9.15c.46-13.93-11.39-26.88-25.32-27.77-7.53-.94-14.14,1.33-20,5.87-11.28,8.66-13.52,23-5.25,34.51C206.78,280.29,214.34,287,222.67,292.94Z" transform="translate(-29.4 -95.49)"/><path class="cls-2" d="M223.87,314.47c-3.92,0-7.84,0-11.76,0-3.43,0-5.55-1.83-5.48-4.52s2.1-4.24,5.41-4.26q11.91-.06,23.82,0c3.64,0,5.43,1.58,5.37,4.48-.06,2.75-1.85,4.25-5.31,4.3C231.9,314.52,227.89,314.47,223.87,314.47Z" transform="translate(-29.4 -95.49)"/><path class="cls-2" d="M226.15,188H172.94a24.64,24.64,0,0,1-2.58,0,4.08,4.08,0,0,1-4-4.06,4.26,4.26,0,0,1,3.87-4.53,15,15,0,0,1,2,0H280.34a17,17,0,0,1,2,0,4.26,4.26,0,0,1,3.86,4.53,4,4,0,0,1-4,4.07c-.85.08-1.72,0-2.58,0Z" transform="translate(-29.4 -95.49)"/><path class="cls-7" d="M223.68,347.37c8.26,0,16.51,0,24.76,0,9.59.05,16.21,6.67,16.26,16.26q.07,15.56,0,31.09c0,9.84-6.79,16.59-16.65,16.6q-24.6.06-49.22,0c-9.83,0-16.48-6.49-16.57-16.27-.11-10.55.1-21.11-.07-31.66a15.92,15.92,0,0,1,16.45-16.11C207,347.63,215.33,347.37,223.68,347.37ZM213.24,375c-6.61,0-13.21,0-19.82,0-3.13,0-5.1,1.58-5.23,4.06-.13,2.64,1.89,4.59,5.09,4.61q19.82.06,39.62,0c3.09,0,4.89-1.8,4.86-4.46s-1.72-4.18-5-4.2C226.25,375,219.74,375,213.24,375Zm21.06,15.58c-6.33,0-12.66,0-19,0-3,0-4.71,1.52-4.77,4.13s1.72,4.49,4.79,4.5q18.84.07,37.69,0c3.12,0,4.94-1.72,4.93-4.38s-1.7-4.25-4.94-4.26C246.77,390.57,240.53,390.59,234.3,390.59Zm-10.43-31.15c-3,0-5.94,0-8.91,0-2.55,0-4.17,1.23-4.41,3.88a4,4,0,0,0,3.94,4.69q9.63.27,19.25,0a4,4,0,0,0,4-4.66c-.22-2.63-1.82-3.88-4.38-3.92C230.19,359.4,227,359.44,223.87,359.44Zm26.24,0c-1,0-1.91,0-2.87,0a4,4,0,0,0-4.19,3.89,4.05,4.05,0,0,0,3.48,4.57,18,18,0,0,0,7.12,0,4.26,4.26,0,0,0-.67-8.46C252,359.44,251.07,359.46,250.11,359.46Zm0,15.56h-2.59c-2.66,0-4.07,1.47-4.5,3.91a4.27,4.27,0,0,0,3.78,4.63,29,29,0,0,0,6.58,0,4.25,4.25,0,0,0,3.8-4.61c-.41-2.45-1.84-3.94-4.49-3.93Zm-53.66,24.21a33.29,33.29,0,0,0,3.66,0,4.55,4.55,0,0,0,4-4.5,4.22,4.22,0,0,0-4.31-4.09,57.74,57.74,0,0,0-6,0,3.93,3.93,0,0,0-3.79,3.66,4.07,4.07,0,0,0,2.45,4.43C193.9,399.5,195.44,399.16,196.45,399.23Zm.59-39.77v0h-2.59a4.28,4.28,0,0,0-.74,8.53,25.75,25.75,0,0,0,6.85-.07,4.25,4.25,0,0,0-.65-8.44C199,359.44,198,359.46,197,359.46Z" transform="translate(-29.4 -95.49)"/><path class="cls-6" d="M222.67,292.94c-8.33-5.9-15.89-12.65-21.89-20.95-8.27-11.46-6-25.85,5.25-34.51,5.9-4.54,12.51-6.81,20.05-5.87-3.15-.61-3.65,1.46-3.66,3.79,0,2,1.13,3,3.2,3.26,11,1.42,18.44,9.71,18.45,20.56s-7.42,19.42-18.58,20.76c-2.84.35-3.58,1.6-3.38,4.11C222.35,287,222.49,290,222.67,292.94Zm-15.09-33.53a15.69,15.69,0,0,0,16,15.71,16,16,0,0,0,15.82-16,16.21,16.21,0,0,0-16.09-15.82A16,16,0,0,0,207.58,259.41Z" transform="translate(-29.4 -95.49)"/><path class="cls-5" d="M222.67,292.94c-.18-2.95-.32-5.9-.56-8.85-.2-2.51.54-3.76,3.38-4.11,11.16-1.34,18.59-9.79,18.58-20.76s-7.41-19.14-18.45-20.56c-2.07-.27-3.22-1.22-3.2-3.26,0-2.33.51-4.4,3.66-3.79,13.92.89,25.77,13.84,25.31,27.77a18.73,18.73,0,0,1-3,9.15c-6.11,10-14.88,17.41-24,24.5C223.78,293.5,223.2,293.66,222.67,292.94Z" transform="translate(-29.4 -95.49)"/><path class="cls-2" d="M213.24,375c6.5,0,13,0,19.52,0,3.28,0,5,1.49,5,4.2s-1.77,4.45-4.86,4.46q-19.8.07-39.62,0c-3.2,0-5.22-2-5.09-4.61.13-2.48,2.1-4.05,5.23-4.06C200,375,206.63,375,213.24,375Z" transform="translate(-29.4 -95.49)"/><path class="cls-2" d="M234.3,390.59c6.23,0,12.47,0,18.7,0,3.24,0,4.94,1.53,4.94,4.26s-1.81,4.37-4.93,4.38q-18.84,0-37.69,0c-3.07,0-4.86-1.8-4.79-4.5s1.73-4.11,4.77-4.13C221.64,390.56,228,390.59,234.3,390.59Z" transform="translate(-29.4 -95.49)"/><path class="cls-2" d="M223.87,359.44c3.16,0,6.32,0,9.48,0,2.56,0,4.16,1.29,4.38,3.92a4,4,0,0,1-4,4.66q-9.62.25-19.25,0a4,4,0,0,1-3.94-4.69c.24-2.65,1.86-3.85,4.41-3.88C217.93,359.41,220.9,359.44,223.87,359.44Z" transform="translate(-29.4 -95.49)"/><path class="cls-2" d="M250.11,359.46c1,0,1.92,0,2.87,0a4.26,4.26,0,0,1,.67,8.46,18,18,0,0,1-7.12,0,4.05,4.05,0,0,1-3.48-4.57,4,4,0,0,1,4.19-3.89C248.2,359.44,249.15,359.46,250.11,359.46Z" transform="translate(-29.4 -95.49)"/><path class="cls-2" d="M250.11,375h2.58c2.65,0,4.08,1.48,4.49,3.93a4.25,4.25,0,0,1-3.8,4.61,29,29,0,0,1-6.58,0,4.27,4.27,0,0,1-3.78-4.63c.43-2.44,1.84-3.94,4.5-3.91Z" transform="translate(-29.4 -95.49)"/><path class="cls-2" d="M196.45,399.23c-1-.07-2.55.27-4-.49a4.07,4.07,0,0,1-2.45-4.43,3.93,3.93,0,0,1,3.79-3.66,57.74,57.74,0,0,1,6,0,4.22,4.22,0,0,1,4.31,4.09,4.55,4.55,0,0,1-4,4.5A33.29,33.29,0,0,1,196.45,399.23Z" transform="translate(-29.4 -95.49)"/><path class="cls-2" d="M197,359.46c1,0,1.91,0,2.87,0a4.25,4.25,0,0,1,.65,8.44,25.75,25.75,0,0,1-6.85.07,4.28,4.28,0,0,1,.74-8.53H197Z" transform="translate(-29.4 -95.49)"/><path class="cls-2" d="M207.58,259.41a16,16,0,0,1,15.71-16.1,16.21,16.21,0,0,1,16.09,15.82,16,16,0,0,1-15.82,16A15.69,15.69,0,0,1,207.58,259.41Zm15.88,7a7.21,7.21,0,0,0,7.19-7.07,7.48,7.48,0,0,0-7.13-7.25,7.17,7.17,0,0,0-7.19,7.34A6.89,6.89,0,0,0,223.46,266.37Z" transform="translate(-29.4 -95.49)"/><path class="cls-7" d="M223.46,266.37a6.89,6.89,0,0,1-7.13-7,7.17,7.17,0,0,1,7.19-7.34,7.48,7.48,0,0,1,7.13,7.25A7.21,7.21,0,0,1,223.46,266.37Z" transform="translate(-29.4 -95.49)"/></svg>