<svg id="Layer_1" data-name="Layer 1" xmlns="http://www.w3.org/2000/svg" viewBox="0 0 349.87 349.87"><defs><style>.cls-1{fill:#f8f8f8;}.cls-2{fill:#e9e9e9;}.cls-3{fill:#b2b2b2;}.cls-4{fill:#f7f7f7;}.cls-5{fill:#c2c2c2;}.cls-6{fill:#848484;}.cls-7{fill:#fbfbfb;}.cls-8{fill:#818181;}.cls-9{fill:gray;}.cls-10{fill:#5f5f5f;}.cls-11{fill:#dedede;}.cls-12{fill:#f3f3f3;}.cls-13{fill:#f2f2f2;}.cls-14{fill:#ddd;}.cls-15{fill:#3d3d3d;}.cls-16{fill:#dcdcdc;}.cls-17{fill:#616161;}.cls-18{fill:#575757;}.cls-19{fill:#949494;}.cls-20{fill:#707070;}.cls-21{fill:#6f6f6f;}</style></defs><title>Bakery BW</title><rect class="cls-1" width="349.87" height="349.87" rx="23.29"/><path d="M449.65,623.1v7.79c-.67.22-.46.82-.56,1.29-3.25,14.7-11.93,24.64-26.16,29.64-2.27.79-4.69,1.2-7,1.79H216.43c-.22-.67-.82-.46-1.29-.56-15.31-3.45-25.39-12.59-30.11-27.61-.47-1.51-.29-3.21-1.32-4.55V623.1a7.44,7.44,0,0,1,7.52-3.14c1.2.15,2.44-.12,3.63,0,2.36.34,2.93-.53,2.93-2.89-.08-42,0-84-.08-125.92a65.51,65.51,0,0,1,3.3-21.93c9.84-28.11,29.52-44.9,58.86-50.15,6.15-1.1,12.34-1.47,18.06,2.14,1.88,1.18,4.12,1.77,6.07,2.86,4,2.24,8.07,3.37,12.74,1.86,1.57-.51,2.21-.78,2.32-2.51.9-13.29,13.44-25.3,26.77-25.78,5.57-.19,7.46,1.52,7.36,7.07a55.15,55.15,0,0,0,3.32,19.54c.65,1.85,1.63,2.18,3.43,1.9,19.67-3.17,36.15,15.2,30.77,34.36-.59,2.11.08,2.73,1.78,3.48,16.58,7.42,33.16,14.84,49.68,22.39,9,4.1,13.47,11.19,13.46,21.13q0,53.87,0,107.74c0,4.68,0,4.74,4.68,4.66C443.82,619.91,447.37,619.55,449.65,623.1ZM208.19,524.41c0,.78-.06,1.56-.06,2.34q0,45-.06,90.09c0,2.14.47,2.68,2.65,2.68q105.93-.1,211.87,0c2.08,0,2.71-.38,2.7-2.61-.08-27.35-.05-54.7-.05-82,0-5.47,0-5.47-5.54-5.42-7.55.07-11.7,4.18-11.74,11.69,0,6.5.06,13,0,19.48-.1,8.52-6.09,14.73-14.1,14.74s-13.95-6.16-14.13-14.7c0-2.51,0-5-.06-7.53a4.41,4.41,0,0,0-3.14-4.31c-3.32-1.2-6.35,1.07-6.37,4.87,0,10.21.06,20.43,0,30.64-.11,12.4-11.08,21-22.88,18a18.45,18.45,0,0,1-13.63-18.53c.17-13.24,0-26.48.05-39.72,0-5.84-2.27-10.37-7.51-13.21-2.45-1.33-5.11-1.43-7.81-1.43q-36.09,0-72.18,0c-4.42,0-5.95-1.13-6.92-5,.53-4.07,2.32-5.53,6.94-5.53q36.22,0,72.45,0a30.18,30.18,0,0,1,6.44.62c11.54,2.62,19,12.11,19.05,24.24.06,13.67,0,27.35,0,41a7.69,7.69,0,0,0,6.22,7.57,7.85,7.85,0,0,0,8.52-4.5,11.13,11.13,0,0,0,.79-4.81c0-10.13-.11-20.26.07-30.38A15.14,15.14,0,0,1,374.35,538,15.39,15.39,0,0,1,390,551.31c.44,3.28.09,6.58.28,9.86.15,2.78,2.38,4.44,4.72,3.55,1.92-.72,2.4-2.29,2.4-4.17,0-6.49-.08-13,0-19.47.15-11,6.48-19.25,16.57-21.61a41.31,41.31,0,0,1,9.56-.61c.72,0,1.72.27,1.67-1-.17-4.57.41-9.16-.36-13.72-.4-2.34-1.44-3.16-4-3.16q-101.79.12-203.59.07c-2.43,0-4.86.07-7.27,0-1.42-.06-2,.29-1.94,1.84C208.19,510.05,208.17,517.23,208.19,524.41ZM438.64,630.49H194.73a27.75,27.75,0,0,0,27.15,22.71q94.78.07,189.55,0C424.81,653.19,435.88,643.85,438.64,630.49ZM279.94,433.87c-6-3-11.51-5.73-18.56-4.52-29.66,5.07-51.12,28.31-53.22,58.16-.17,2.32.13,3.21,2.85,3.21q95.81-.14,191.62-.07h2.73a4.66,4.66,0,0,0-.65-.58c-12.95-5.87-25.92-11.7-38.84-17.63-1.35-.62-1.85.11-2.59.8-11.85,11.06-29.65,10.19-40.11-2.07-1.26-1.47-1.71-1.2-2.78.05a26.57,26.57,0,0,1-20.14,9.68c-14.95.44-27.71-11.3-28.3-25.87A28,28,0,0,1,279.94,433.87Zm29.56,6c-.15.5-.28,1-.44,1.49-.86,2.73-3.06,4.34-5.55,4.06-2.7-.3-4.46-2.3-4.65-5.32a20.3,20.3,0,0,1,0-2.34c.07-1.18-.45-1.55-1.57-1.29-.75.18-1.54.2-2.29.41-7.05,2-12.29,8.25-12.59,15.09-.36,8,3.81,14.68,10.87,17.4a17.15,17.15,0,0,0,19.43-5.13C318.89,456.79,317.31,444.59,309.5,439.86Zm23.67.53a16.85,16.85,0,0,0-3.65,21.83,17.12,17.12,0,0,0,31.28-13c-1.79-7.69-9.52-13.46-17.16-12.81,1.69,4.22,1.35,6.68-1.37,8.18C337.46,447.24,335.51,443.25,333.17,440.39Zm-23.8-15c-.07,2.08-.06,2.07,1.85,3a25.49,25.49,0,0,1,6,3.94c1.56,1.44,3.26,4.4,4.44,4.19,1.81-.33,3.14-2.93,4.86-4.34,1.16-1,1.25-1.68.7-3a55.28,55.28,0,0,1-4.37-18.51c-.06-1.3-.23-1.86-1.81-1.29C314.76,411.69,309.58,418.65,309.37,425.41Z" transform="translate(-172.93 -318.75)"/><path class="cls-2" d="M239.22,524.41c1,3.89,2.5,5,6.92,5q36.09,0,72.18,0c2.7,0,5.36.1,7.81,1.43,5.24,2.84,7.51,7.37,7.51,13.21,0,13.24.12,26.48-.05,39.72a18.45,18.45,0,0,0,13.63,18.53c11.8,3,22.77-5.61,22.88-18,.1-10.21,0-20.43,0-30.64,0-3.8,3.05-6.07,6.37-4.87a4.41,4.41,0,0,1,3.14,4.31c.06,2.51,0,5,.06,7.53.18,8.54,6.12,14.71,14.13,14.7s14-6.22,14.1-14.74c.08-6.49,0-13,0-19.48,0-7.51,4.19-11.62,11.74-11.69,5.54,0,5.54,0,5.54,5.42,0,27.35,0,54.7.05,82,0,2.23-.62,2.61-2.7,2.61q-105.94-.07-211.87,0c-2.18,0-2.66-.54-2.65-2.68q.12-45,.06-90.09c0-.78,0-1.56.06-2.34h10.25c.83,3.3,2.6,5,5.26,5s4.43-1.67,5.26-5Z" transform="translate(-172.93 -318.75)"/><path class="cls-3" d="M218.44,524.41H208.19c0-7.18,0-14.36-.1-21.54,0-1.55.52-1.9,1.94-1.84,2.41.1,4.84,0,7.27,0q101.79,0,203.59-.07c2.53,0,3.57.82,4,3.16.77,4.56.19,9.15.36,13.72,0,1.26-1,1-1.67,1a41.31,41.31,0,0,0-9.56.61c-10.09,2.36-16.42,10.6-16.57,21.61-.09,6.49,0,13,0,19.47,0,1.88-.48,3.45-2.4,4.17-2.34.89-4.57-.77-4.72-3.55-.19-3.28.16-6.58-.28-9.86A15.39,15.39,0,0,0,374.35,538a15.14,15.14,0,0,0-14.61,14.69c-.18,10.12-.07,20.25-.07,30.38a11.13,11.13,0,0,1-.79,4.81,7.85,7.85,0,0,1-8.52,4.5,7.69,7.69,0,0,1-6.22-7.57c-.05-13.68,0-27.36,0-41-.05-12.13-7.51-21.62-19.05-24.24a30.18,30.18,0,0,0-6.44-.62q-36.23-.06-72.45,0c-4.62,0-6.41,1.46-6.94,5.53H229c-.44-3.46-2.37-5.46-5.26-5.46S218.88,521,218.44,524.41Z" transform="translate(-172.93 -318.75)"/><path class="cls-4" d="M438.64,630.49c-2.76,13.36-13.83,22.7-27.21,22.71q-94.77.07-189.55,0a27.75,27.75,0,0,1-27.15-22.71Z" transform="translate(-172.93 -318.75)"/><path class="cls-5" d="M279.94,433.87A28,28,0,0,0,272,455c.59,14.57,13.35,26.31,28.3,25.87a26.57,26.57,0,0,0,20.14-9.68c1.07-1.25,1.52-1.52,2.78-.05,10.46,12.26,28.26,13.13,40.11,2.07.74-.69,1.24-1.42,2.59-.8,12.92,5.93,25.89,11.76,38.84,17.63a4.66,4.66,0,0,1,.65.58h-2.73q-95.82,0-191.62.07c-2.72,0-3-.89-2.85-3.21,2.1-29.85,23.56-53.09,53.22-58.16C268.43,428.14,274,430.89,279.94,433.87Z" transform="translate(-172.93 -318.75)"/><path class="cls-6" d="M309.5,439.86c7.81,4.73,9.39,16.93,3.19,24.37a17.15,17.15,0,0,1-19.43,5.13C286.2,466.64,282,460,282.39,452c.3-6.84,5.54-13.13,12.59-15.09.75-.21,1.54-.23,2.29-.41,1.12-.26,1.64.11,1.57,1.29a20.3,20.3,0,0,0,0,2.34c.19,3,1.95,5,4.65,5.32,2.49.28,4.69-1.33,5.55-4.06C309.22,440.86,309.35,440.36,309.5,439.86Z" transform="translate(-172.93 -318.75)"/><path class="cls-6" d="M333.17,440.39c2.34,2.86,4.29,6.85,9.1,4.21,2.72-1.5,3.06-4,1.37-8.18,7.64-.65,15.37,5.12,17.16,12.81a17.12,17.12,0,0,1-31.28,13A16.85,16.85,0,0,1,333.17,440.39Z" transform="translate(-172.93 -318.75)"/><path d="M218.44,524.41c.44-3.45,2.38-5.46,5.26-5.46s4.82,2,5.26,5.46c-.83,3.31-2.6,5-5.26,5S219.27,527.71,218.44,524.41Z" transform="translate(-172.93 -318.75)"/><path class="cls-7" d="M398.9,663.9a5.57,5.57,0,0,0,2.15,3.12H388.79c.69-1,1.9-1.62,1.87-3Z" transform="translate(-172.93 -318.75)"/><path class="cls-8" d="M473.72,660.37c-8.29,0-16.59,0-24.88.11-1.38,0-1.51-.62-1.5-1.72,0-6,0-11.93.05-17.9a12.49,12.49,0,0,1,11.76-12.33c2.23-.15,4.51-.41,6.7.43.35.47.85.43,1.35.37h0c-.1.86.68,1.06,1.15,1.44C476.25,637,480.88,652.9,473.72,660.37Z" transform="translate(-172.93 -318.75)"/><path class="cls-9" d="M350.68,660.38c-4.08,0-8.16.17-12.23,0-8.85-.31-14.48-8.28-12.17-17.26a19.23,19.23,0,0,1,9.1-12.31,58.45,58.45,0,0,1,16.18-6.22C349.92,636.51,351,648.46,350.68,660.38Z" transform="translate(-172.93 -318.75)"/><path class="cls-10" d="M473.72,660.37c7.16-7.47,2.53-23.33-5.38-29.61-.47-.38-1.25-.58-1.15-1.44,8.13,1.32,15.8,10,16.18,18.34.06,1.24.07,2.48.06,3.72C483.36,657.08,479.49,660.65,473.72,660.37Z" transform="translate(-172.93 -318.75)"/><path class="cls-10" d="M350.68,660.38c.35-11.92-.76-23.87.88-35.76l2.42-.54c-1.86,11.47-.77,22.83-1,34.15C352.94,660,352.59,660.88,350.68,660.38Z" transform="translate(-172.93 -318.75)"/><path class="cls-10" d="M467.2,629.33c-.5.06-1,.1-1.35-.37C466.34,628.93,466.85,628.82,467.2,629.33Z" transform="translate(-172.93 -318.75)"/><path d="M440,605.78c7.27,3.64,13.51,8.5,18,15.41.7,1.08,1.66.73,2.53.69,9-.39,16.6,2.57,22.59,9.28,5.62,6.3,8.07,13.76,6.77,22.16-1.09,7-5.14,11.77-12.17,13.7H401.05a5.57,5.57,0,0,1-2.15-3.12c0-12.33,0-24.66.05-37,0-6.49,1.88-12.36,6.51-17.11a1.7,1.7,0,0,0,.19-2.46c-3.78-6.15-9.28-8.79-16.43-8.09-1.36.19-2.74.29-4.08.59-14.41,3.22-24.36,16.86-25.18,30.79-.54,9.22-.12,18.5-.26,27.75,0,1.85.64,2.12,2.25,2.1,8.23-.07,16.47,0,24.7-.05,2,0,3.37.67,4,2.64l0,.92c0,1.41-1.18,2.06-1.87,3H288.09c-.09-.11-.15-.28-.26-.32-4.92-1.73-6.94-5.3-6.92-10.4,0-17.64,0-35.29,0-52.94a5.6,5.6,0,0,0-1.29-3.77c-21.59-27.67-5.48-68.83,29.13-74.44a65.7,65.7,0,0,1,6.72-.72c2.64-.14,3.59.65,4.38,3.24-.7,2.72-1.58,3.43-4.42,3.54a38.16,38.16,0,0,0-5.22.44c-15,2.74-25.6,11.08-31,25.27-5.44,14.35-3,27.78,6.64,39.78a7.1,7.1,0,0,1,1.74,4.75q-.07,27.36,0,54.72c0,3.41.86,4.28,4.24,4.28q15.11,0,30.21,0c.51,0,1.15.31,1.63-.38a17.64,17.64,0,0,1-3.25-4.36,2.44,2.44,0,0,0-2.57-1.49c-4.38.07-8.76,0-13.14,0-7.53,0-11.27-3.74-11.27-11.29V598.51a3.79,3.79,0,0,0-1-3c-8.23-8.57-10.94-18.76-8.82-30.37,2.82-15.41,16.46-27.09,32-27.21q15.87-.12,31.74,0a32.36,32.36,0,0,1,12.92,2.8,35,35,0,0,1,16.51,15.34c1.87,4.5,3.4,9.09,3.55,14a37,37,0,0,1-6.12,21.4,42.49,42.49,0,0,1-3.12,3.56,3.58,3.58,0,0,0-1.25,3.64c.31.65.6.38.88,0h0a54.39,54.39,0,0,1,7.59-3.81,2.55,2.55,0,0,0,1.27-1.13,37,37,0,0,0,6.87-19.5c.55-11.28-2.42-21.49-10.14-30a36.2,36.2,0,0,0-17.85-11.19,24.43,24.43,0,0,0-8.66-1.8c-5.74-.11-11.47-.07-17.21-.11-2.94,0-3.75-.63-4.76-3.44.4-1.89,1.48-3.31,3.45-3.3,7.58,0,15.17-.57,22.72.6a45.81,45.81,0,0,1,25,12.42,8.21,8.21,0,0,0,.76.58c1.12-4.14,2.19-8.14,3.27-12.14,4.94-18.36,9.68-36.77,14.88-55.06,5.1-17.94,22.61-29.59,41.2-27.93,18.05,1.62,33,16.08,35.48,34.05,1,7.13-.43,13.86-2.26,20.65q-13,48.14-25.84,96.3c-.71,2.63-1.67,3.34-4.33,3.25-2.4-1.39-2.77-2.35-2-5.24q13.5-50.48,27-100.95c2.91-10.92.56-20.8-6.42-29.51a29.49,29.49,0,0,0-18.64-11.19,3.46,3.46,0,0,0-.8-.33,32.51,32.51,0,0,0-26.91,7.29c-6.75,5.54-10,13-11.82,21.33-.33,1.54-.3,2.08,1.39,2.52,8.5,2.18,17,4.41,25.42,6.88a12.93,12.93,0,0,1-6.7,25c-8.6-2.08-17.14-4.42-25.68-6.78-1.52-.42-1.88.05-2.18,1.32a59.57,59.57,0,0,1-1.91,7.14c-.67,1.8,0,2.22,1.55,2.62,8.28,2.16,16.57,4.32,24.81,6.64a13,13,0,0,1-6.88,25c-8.36-2.14-16.71-4.35-25-6.69-1.92-.54-2,.38-2.2,1.69a3,3,0,0,0,.59,1.83,72.68,72.68,0,0,1,3.66,6.92,4.33,4.33,0,0,0,3.42,2.79c5.76,1.47,11.53,2.94,17.21,4.69a12.92,12.92,0,0,1-6.08,25c-3.56-.62-7-1.76-10.56-2.62-.58-.15-1.36-.77-1.67.51a48.72,48.72,0,0,1-3.47,9.25c.16.15.2.23.25.23h3.5a22.15,22.15,0,0,1,15.8,6.83c1.56,1.54,2.36,4.33,4,5s4.05-1.3,6.26-1.73c4.09-.8,8.13-.21,12.19.11Zm27.22,23.55c-.35-.51-.86-.4-1.35-.37-2.19-.84-4.47-.58-6.7-.43a12.49,12.49,0,0,0-11.76,12.33c-.1,6,0,11.94-.05,17.9,0,1.1.12,1.73,1.5,1.72,8.29-.09,16.59-.09,24.88-.11,5.77.28,9.64-3.29,9.71-9,0-1.24,0-2.48-.06-3.72-.38-8.33-8.05-17-16.18-18.34Zm-115.64-4.71a58.45,58.45,0,0,0-16.18,6.22,19.23,19.23,0,0,0-9.1,12.31c-2.31,9,3.32,17,12.17,17.26,4.07.14,8.15,0,12.23,0,1.91.5,2.26-.37,2.3-2.15.23-11.32-.86-22.68,1-34.15Zm73.56-15.71c-10.11-.86-19,6-19.23,15.29-.27,11.58-.09,23.16-.14,34.75,0,1.1.29,1.53,1.46,1.52,10.64-.06,21.27-.07,31.91-.1,1.55.37,1.42-.69,1.42-1.66,0-5.61-.06-11.22,0-16.83.08-7.47,3.18-13.36,9.61-17.27,1.48-.89,1.15-1.47.34-2.43C443.82,614.35,435.48,609.71,425.12,608.91Zm-70.95-63.18a9.21,9.21,0,0,0-4-.88c-11.82-.37-23.63-.18-35.44-.1a16.23,16.23,0,0,0-3.27.27c-10.82,2.25-17.64,9-20.58,19.4s-.72,19.76,7.28,27.37a6.33,6.33,0,0,1,2.11,5q-.07,23.52,0,47c0,2.85.78,3.62,3.62,3.64,4.52,0,9.05,0,13.57,0,1.22,0,1.67-.17,1.79-1.61.79-9.26,5.13-16.44,13.27-21a68.69,68.69,0,0,1,22.32-7.71c1.44-.24,2.26-.79,2.45-2.23a11,11,0,0,1,.79-1.28,22.32,22.32,0,0,0,5.05-18c-.21-1.47.68-2.56,1.74-3.57a27.39,27.39,0,0,0,4.26-35.2C365.55,551.32,360.81,547.23,354.17,545.73Zm77.65-45.62c0-3-1.78-5.18-5-6.06-8.32-2.27-16.66-4.46-25-6.75-1.1-.3-1.5-.18-1.78,1-.77,3.24-1.62,6.47-2.61,9.65-.36,1.18,0,1.51,1,1.78,8.48,2.23,16.95,4.52,25.44,6.7A6.3,6.3,0,0,0,431.82,500.11Zm-16.46,42.62a6.37,6.37,0,0,0,6.66-5.65,5.94,5.94,0,0,0-4.41-6.84c-8.52-2.36-17.08-4.57-25.61-6.91-1.06-.29-1.32-.06-1.56,1q-1.2,5-2.65,9.86c-.32,1.08-.08,1.32.95,1.59,6,1.55,12,3.19,18.06,4.8A79.89,79.89,0,0,0,415.36,542.73Zm-21.93,27.69c-.06,1.09-.08,2.47-.22,3.85A1.32,1.32,0,0,0,394.4,576c3.52.87,7,1.9,10.55,2.69s6.29-1.19,7.24-4.91a5.88,5.88,0,0,0-4.08-7.39c-4.67-1.36-9.39-2.54-14.07-3.86-1.44-.4-1.5.35-1.25,1.34C393.3,565.89,393.15,568,393.43,570.42Z" transform="translate(-172.93 -318.75)"/><path class="cls-10" d="M376.87,556.11a35,35,0,0,0-16.51-15.34,32.36,32.36,0,0,0-12.92-2.8q-15.87-.15-31.74,0c-15.54.12-29.18,11.8-32,27.21-2.12,11.61.59,21.8,8.82,30.37a3.79,3.79,0,0,1,1,3v44.43c0,7.55,3.74,11.29,11.27,11.29,4.38,0,8.76,0,13.14,0a2.44,2.44,0,0,1,2.57,1.49,17.64,17.64,0,0,0,3.25,4.36c-.48.69-1.12.38-1.63.38q-15.1,0-30.21,0c-3.38,0-4.24-.87-4.24-4.28q0-27.36,0-54.72a7.1,7.1,0,0,0-1.74-4.75c-9.6-12-12.08-25.43-6.64-39.78,5.38-14.19,16-22.53,31-25.27a38.16,38.16,0,0,1,5.22-.44c2.84-.11,3.72-.82,4.42-3.54l8,.08c1,2.81,1.82,3.42,4.76,3.44,5.74,0,11.47,0,17.21.11a24.43,24.43,0,0,1,8.66,1.8c.14.95,1,1.21,1.65,1.61a40.58,40.58,0,0,1,13.27,13.53C375,550.69,376.76,553.06,376.87,556.11Z" transform="translate(-172.93 -318.75)"/><path class="cls-11" d="M440,605.78l-9.63-3.07c1.6-7.16,3.67-14.2,5.57-21.28q10.75-40.06,21.45-80.16c1.81-6.85,4.21-13.6,3.71-20.92a37.22,37.22,0,0,0-6.41-18.72,39.73,39.73,0,0,0-12.48-11.35,29.49,29.49,0,0,1,18.64,11.19c7,8.71,9.33,18.59,6.42,29.51q-13.49,50.47-27,100.95c-.77,2.89-.4,3.85,2,5.24C441.49,600,440.74,602.91,440,605.78Z" transform="translate(-172.93 -318.75)"/><path class="cls-12" d="M357.27,614.91c-.19,1.44-1,2-2.45,2.23a68.69,68.69,0,0,0-22.32,7.71c-8.14,4.59-12.48,11.77-13.27,21-.12,1.44-.57,1.62-1.79,1.61-4.52-.06-9.05,0-13.57,0-2.84,0-3.61-.79-3.62-3.64q0-23.52,0-47a6.33,6.33,0,0,0-2.11-5c-8-7.61-10.21-17-7.28-27.37s9.76-17.15,20.58-19.4a16.23,16.23,0,0,1,3.27-.27c11.81-.08,23.62-.27,35.44.1a9.21,9.21,0,0,1,4,.88,7,7,0,0,0,.92.89c15,10.16,17,33.16,4.94,45.57a9.36,9.36,0,0,0-2.84,7.66C357.47,604.85,357.27,609.89,357.27,614.91Z" transform="translate(-172.93 -318.75)"/><path class="cls-13" d="M442.19,450.28a39.73,39.73,0,0,1,12.48,11.35,37.22,37.22,0,0,1,6.41,18.72c.5,7.32-1.9,14.07-3.71,20.92q-10.62,40.11-21.45,80.16c-1.9,7.08-4,14.12-5.57,21.28-4.06-.32-8.1-.91-12.19-.11-2.21.43-4.54,2.41-6.26,1.73s-2.43-3.43-4-5a22.15,22.15,0,0,0-15.8-6.83h-3.5c-.05,0-.09-.08-.25-.23a48.72,48.72,0,0,0,3.47-9.25c.31-1.28,1.09-.66,1.67-.51,3.53.86,7,2,10.56,2.62a12.92,12.92,0,0,0,6.08-25c-5.68-1.75-11.45-3.22-17.21-4.69a4.33,4.33,0,0,1-3.42-2.79,72.68,72.68,0,0,0-3.66-6.92,3,3,0,0,1-.59-1.83c.18-1.31.28-2.23,2.2-1.69,8.31,2.34,16.66,4.55,25,6.69a13,13,0,0,0,6.88-25c-8.24-2.32-16.53-4.48-24.81-6.64-1.52-.4-2.22-.82-1.55-2.62a59.57,59.57,0,0,0,1.91-7.14c.3-1.27.66-1.74,2.18-1.32,8.54,2.36,17.08,4.7,25.68,6.78a12.93,12.93,0,0,0,6.7-25c-8.42-2.47-16.92-4.7-25.42-6.88-1.69-.44-1.72-1-1.39-2.52,1.82-8.31,5.07-15.79,11.82-21.33A32.51,32.51,0,0,1,441.39,450,3.46,3.46,0,0,1,442.19,450.28Z" transform="translate(-172.93 -318.75)"/><path class="cls-8" d="M390.62,663.07c-.6-2-2-2.66-4-2.64-8.23.05-16.47,0-24.7.05-1.61,0-2.28-.25-2.25-2.1.14-9.25-.28-18.53.26-27.75.82-13.93,10.77-27.57,25.18-30.79,1.34-.3,2.72-.4,4.08-.59,1,1,2,2.1,3,3.14A15.75,15.75,0,0,1,397,613.11c.23,16,.09,32,.09,48,0,.14,0,.29,0,.43,0,.73-.36,1.06-1.07,1.07C394.22,662.67,392.46,663.36,390.62,663.07Z" transform="translate(-172.93 -318.75)"/><path class="cls-8" d="M439.12,660.37c-10.64,0-21.27,0-31.91.1-1.17,0-1.47-.42-1.46-1.52.05-11.59-.13-23.17.14-34.75.21-9.28,9.12-16.15,19.23-15.29.27.24.52.51.81.72,8.66,6.15,13.12,14.53,13.19,25.16C439.17,643.32,439.12,651.84,439.12,660.37Z" transform="translate(-172.93 -318.75)"/><path class="cls-14" d="M431.82,500.11a6.3,6.3,0,0,1-7.9,6.33c-8.49-2.18-17-4.47-25.44-6.7-1-.27-1.37-.6-1-1.78,1-3.18,1.84-6.41,2.61-9.65.28-1.19.68-1.31,1.78-1,8.32,2.29,16.66,4.48,25,6.75C430,494.93,431.79,497.13,431.82,500.11Z" transform="translate(-172.93 -318.75)"/><path class="cls-14" d="M415.36,542.73a79.89,79.89,0,0,1-8.56-2.18c-6-1.61-12-3.25-18.06-4.8-1-.27-1.27-.51-.95-1.59q1.45-4.89,2.65-9.86c.24-1,.5-1.26,1.56-1,8.53,2.34,17.09,4.55,25.61,6.91a5.94,5.94,0,0,1,4.41,6.84A6.37,6.37,0,0,1,415.36,542.73Z" transform="translate(-172.93 -318.75)"/><path class="cls-15" d="M376.87,556.11c-.11-3.05-1.92-5.42-3.39-7.87a40.58,40.58,0,0,0-13.27-13.53c-.64-.4-1.51-.66-1.65-1.61a36.2,36.2,0,0,1,17.85,11.19c7.72,8.48,10.69,18.69,10.14,30a37,37,0,0,1-6.87,19.5,2.55,2.55,0,0,1-1.27,1.13,54.39,54.39,0,0,0-7.59,3.81c-.08-.79.42-1.3.8-1.92,1-1.68,2.79-3,2.68-5.25a37,37,0,0,0,6.12-21.4C380.27,565.2,378.74,560.61,376.87,556.11Z" transform="translate(-172.93 -318.75)"/><path class="cls-14" d="M357.27,614.91c0-5,.2-10.06-.08-15.06a9.36,9.36,0,0,1,2.84-7.66c12.07-12.41,10.08-35.41-4.94-45.57a7,7,0,0,1-.92-.89c6.64,1.5,11.38,5.59,14.94,11.17a27.39,27.39,0,0,1-4.26,35.2c-1.06,1-2,2.1-1.74,3.57a22.32,22.32,0,0,1-5.05,18A11,11,0,0,0,357.27,614.91Z" transform="translate(-172.93 -318.75)"/><path class="cls-10" d="M439.12,660.37c0-8.53.05-17,0-25.58-.07-10.63-4.53-19-13.19-25.16-.29-.21-.54-.48-.81-.72,10.36.8,18.7,5.44,25.38,13.27.81,1,1.14,1.54-.34,2.43-6.43,3.91-9.53,9.8-9.61,17.27-.07,5.61,0,11.22,0,16.83C440.54,659.68,440.67,660.74,439.12,660.37Z" transform="translate(-172.93 -318.75)"/><path class="cls-16" d="M393.43,570.42c-.28-2.4-.13-4.53-.64-6.6-.25-1-.19-1.74,1.25-1.34,4.68,1.32,9.4,2.5,14.07,3.86a5.88,5.88,0,0,1,4.08,7.39c-.95,3.72-3.73,5.69-7.24,4.91s-7-1.82-10.55-2.69a1.32,1.32,0,0,1-1.19-1.68C393.35,572.89,393.37,571.51,393.43,570.42Z" transform="translate(-172.93 -318.75)"/><path class="cls-17" d="M390.62,663.07c1.84.29,3.6-.4,5.4-.44.71,0,1.08-.34,1.07-1.07,0-.14,0-.29,0-.43,0-16,.14-32-.09-48a15.75,15.75,0,0,0-4.76-10.72c-1-1-2-2.1-3-3.14,7.15-.7,12.65,1.94,16.43,8.09a1.7,1.7,0,0,1-.19,2.46c-4.63,4.75-6.48,10.62-6.51,17.11-.05,12.33,0,24.66-.05,37l-8.24.09C390.65,663.68,390.64,663.38,390.62,663.07Z" transform="translate(-172.93 -318.75)"/><path class="cls-18" d="M374.3,591.53c.11,2.26-1.65,3.57-2.68,5.25-.38.62-.88,1.13-.8,1.92h0l-.88,0a3.58,3.58,0,0,1,1.25-3.64A42.49,42.49,0,0,0,374.3,591.53Z" transform="translate(-172.93 -318.75)"/><path class="cls-15" d="M369.93,598.73l.88,0C370.53,599.11,370.24,599.38,369.93,598.73Z" transform="translate(-172.93 -318.75)"/><path class="cls-19" d="M401.08,663.41l-5.76-1.17a2.67,2.67,0,0,0-2-3,53.14,53.14,0,0,1-11.18-4.46,2.75,2.75,0,0,0-3.71.66L374,651.7c1.07-1.34.78-2.51-.13-3.92-5-7.68-6.1-16-3-24.57,2.55-7.13,8-11.92,14.08-16.11,1.18-.82,1.66-.57,2.3.6A121.72,121.72,0,0,1,396,627.52a3.27,3.27,0,0,0,1.29,2c1.75,1.06,3.55,0,4-2.52a70.77,70.77,0,0,0-.78-26.27c-.2-.93-.12-1.3.82-1.63A107.28,107.28,0,0,1,423.24,594a1.73,1.73,0,0,1,2,1.11,93.86,93.86,0,0,1,4.22,8.75,97.26,97.26,0,0,1,6.26,24.48,2.55,2.55,0,0,0,5,.87,14,14,0,0,0,.61-1.43c3.61-10.91,5-22,2.65-33.38-.16-.8-.38-1.28.84-1.21a160.45,160.45,0,0,1,21.47,3.09c3.88.77,6,2.67,7.68,6.14a156.39,156.39,0,0,1,9.87,25.54,2.32,2.32,0,0,0,2.43,2,2.38,2.38,0,0,0,2.41-2.09,85.49,85.49,0,0,0,1.84-11.48c.28-3.21.25-6.43.26-9.87a48.43,48.43,0,0,1,9.48,7.93c10.09,10.57,7.86,26.49,1.86,34.16-3.84,4.9-9.12,7.6-14.86,9.55-10.7,3.63-21.85,4.6-33,5.16-16.6.83-33.19.61-49.68-1.76A2.85,2.85,0,0,0,401.08,663.41Z" transform="translate(-172.93 -318.75)"/><path d="M401.08,663.41a2.85,2.85,0,0,1,3.46-1.85c16.49,2.37,33.08,2.59,49.68,1.76,11.17-.56,22.32-1.53,33-5.16,5.74-1.95,11-4.65,14.86-9.55,6-7.67,8.23-23.59-1.86-34.16a48.43,48.43,0,0,0-9.48-7.93c0,3.44,0,6.66-.26,9.87a85.49,85.49,0,0,1-1.84,11.48,2.38,2.38,0,0,1-2.41,2.09,2.32,2.32,0,0,1-2.43-2A156.39,156.39,0,0,0,474,602.39c-1.67-3.47-3.8-5.37-7.68-6.14a160.45,160.45,0,0,0-21.47-3.09c-1.22-.07-1,.41-.84,1.21,2.33,11.38,1,22.47-2.65,33.38a14,14,0,0,1-.61,1.43,2.55,2.55,0,0,1-5-.87,97.26,97.26,0,0,0-6.26-24.48,93.86,93.86,0,0,0-4.22-8.75,1.73,1.73,0,0,0-2-1.11,107.28,107.28,0,0,0-21.94,5.12c-.94.33-1,.7-.82,1.63a70.77,70.77,0,0,1,.78,26.27c-.41,2.48-2.21,3.58-4,2.52a3.27,3.27,0,0,1-1.29-2,121.72,121.72,0,0,0-8.78-19.82c-.64-1.17-1.12-1.42-2.3-.6-6.06,4.19-11.53,9-14.08,16.11-3.08,8.6-1.94,16.89,3,24.57.91,1.41,1.2,2.58.13,3.92-2.05,1-2.82.78-4.14-1-3.79-5.07-5.1-10.92-5.51-17.09-.75-11.68,4.76-20.3,13.3-27.46a34,34,0,0,1,6.21-4.44c3.49-1.78,6.08-4.48,8.7-7.29,11.62-12.45,25.07-22.28,41.23-28.1a58.15,58.15,0,0,1,11.56-2.93,3.53,3.53,0,0,0,2-1.18c7.74-7.51,16.46-13.48,26.73-17,6.17-2.13,12.45-3.18,18.9-1.31,8.53,2.46,15.39,11.54,15.12,20.14-.17,5.74-2.6,10.74-5.61,15.47-.89,1.4-2.33.94-3.63.76-1.19-1.56-1-3,.06-4.62a40,40,0,0,0,2.49-4.77c4.63-10.28-1-18.4-8.37-21.67-4.58-2-9.45-1.5-14.16-.27-10.72,2.8-19.62,8.7-27.55,16.26-.85.82-.58,1.46-.16,2.29a72,72,0,0,1,5.67,16c.31,1.31.29,2.59-1.14,3.3a2.66,2.66,0,0,1-3.42-.85l-.23-.25a161.51,161.51,0,0,0-14.45-14.09,2.26,2.26,0,0,0-2.62-.42,93.71,93.71,0,0,0-29.87,17.75,30.9,30.9,0,0,0-4.94,4.8,7.62,7.62,0,0,0,.92-.16,108,108,0,0,1,26.12-5.35,121.44,121.44,0,0,1,23.27.2,107.81,107.81,0,0,1,30.25,7.3,1.78,1.78,0,0,0,2.38-.54c2.74-3.15,5.78-6,8.38-9.31,1.09-1.38,2.4-2,4.1-1.15,1.2,2.3,1.18,2.79-.56,4.76-2.65,3-5.34,6-8.09,9a74.32,74.32,0,0,1,8.7,5.31c6.41,4.7,11.95,10.2,14.59,17.89,4.28,12.53,1.53,31.93-17.54,39.61a91,91,0,0,1-21.94,5.52c-13.6,1.85-27.29,1.89-41,1.74a209,209,0,0,1-26.32-2.1C401.77,666.23,401.07,665.08,401.08,663.41Zm28.69-70.59a90.19,90.19,0,0,1,9,24.21,39.92,39.92,0,0,0,1.06-7.2,48.83,48.83,0,0,0-1-15.85c-.13-.51-.16-1.18-1-1.17C435.23,592.84,432.7,592.82,429.77,592.82Zm48.33,7.08a169.57,169.57,0,0,1,7.06,16.51c.64-3.56.34-6.73.4-9.9,0-2.36-.67-4.06-3.19-4.75A37.07,37.07,0,0,1,478.1,599.9Zm-81.16,15.82a44,44,0,0,0-.81-10.58c-.78-4.39-.79-4.39-4.62-2.07l-.32.14c-.44.24-.51.52-.23,1A129.73,129.73,0,0,1,396.94,615.72Zm51.52-41,.27-.15c-.61-1.4-1.18-2.82-1.83-4.2-.91-1.93-1.49-2.11-3.49-1.42-.68.23-.74.49-.28.92C444.9,571.48,446.68,573.08,448.46,574.7Z" transform="translate(-172.93 -318.75)"/><path class="cls-18" d="M495.64,584.72c-1.7-.82-3-.23-4.1,1.15-2.6,3.27-5.64,6.16-8.38,9.31a1.78,1.78,0,0,1-2.38.54,107.81,107.81,0,0,0-30.25-7.3,121.44,121.44,0,0,0-23.27-.2,108,108,0,0,0-26.12,5.35,7.62,7.62,0,0,1-.92.16,30.9,30.9,0,0,1,4.94-4.8A93.71,93.71,0,0,1,435,571.18a2.26,2.26,0,0,1,2.62.42,161.51,161.51,0,0,1,14.45,14.09l.23.25a2.66,2.66,0,0,0,3.42.85c1.43-.71,1.45-2,1.14-3.3a72,72,0,0,0-5.67-16c-.42-.83-.69-1.47.16-2.29,7.93-7.56,16.83-13.46,27.55-16.26,4.71-1.23,9.58-1.77,14.16.27,7.33,3.27,13,11.39,8.37,21.67a40,40,0,0,1-2.49,4.77c-1,1.6-1.25,3.06-.06,4.62A17,17,0,0,1,495.64,584.72Z" transform="translate(-172.93 -318.75)"/><path d="M378.44,655.4a2.75,2.75,0,0,1,3.71-.66,53.14,53.14,0,0,0,11.18,4.46,2.67,2.67,0,0,1,2,3c-1.16,2-1.67,2.14-3.95,1.56A47.66,47.66,0,0,1,380,659.35C378.13,658.32,377.81,657.48,378.44,655.4Z" transform="translate(-172.93 -318.75)"/><path class="cls-20" d="M429.77,592.82c2.93,0,5.46,0,8,0,.85,0,.88.66,1,1.17a48.83,48.83,0,0,1,1,15.85,39.92,39.92,0,0,1-1.06,7.2A90.19,90.19,0,0,0,429.77,592.82Z" transform="translate(-172.93 -318.75)"/><path class="cls-21" d="M478.1,599.9a37.07,37.07,0,0,0,4.27,1.86c2.52.69,3.22,2.39,3.19,4.75-.06,3.17.24,6.34-.4,9.9A169.57,169.57,0,0,0,478.1,599.9Z" transform="translate(-172.93 -318.75)"/><path class="cls-21" d="M396.94,615.72a129.73,129.73,0,0,0-6-11.54c-.28-.45-.21-.73.23-1l.32-.14c3.83-2.32,3.84-2.32,4.62,2.07A44,44,0,0,1,396.94,615.72Z" transform="translate(-172.93 -318.75)"/><path d="M448.46,574.7c-1.78-1.62-3.56-3.22-5.33-4.85-.46-.43-.4-.69.28-.92,2-.69,2.58-.51,3.49,1.42.65,1.38,1.22,2.8,1.83,4.2Z" transform="translate(-172.93 -318.75)"/></svg>