<svg id="Layer_1" data-name="Layer 1" xmlns="http://www.w3.org/2000/svg" viewBox="0 0 344.42 330.26"><defs><style>.cls-1{fill:#bddaf3;}.cls-2{fill:#d2e5f6;}.cls-3{fill:#a7ceed;}.cls-4{fill:#e8f0fa;}</style></defs><title>basket</title><path class="cls-1" d="M452.21,459.73c-5.36,1.27-6.4,2.1-7,7.66-1.29,11.14-2.29,22.32-3.41,33.49l-5,49.13c-1.07,10.67-2.23,21.33-3.19,32-1.12,12.39-10.61,21.46-23.1,21.53-20.86.1-41.72,0-62.59,0H211.48c-1.5,0-3-.08-4.49-.12a13.06,13.06,0,0,0-1.89-8.21,30.68,30.68,0,0,1-4.2-14.54c-.15-5.43-1-10.85-1.58-16.27-.92-8.49-1.94-17-2.8-25.47S195,521.67,194.13,513c-1.15-11.46-2.42-22.9-3.63-34.36q-1.51-14.4-3-28.81,126.43,0,252.87,0a15.51,15.51,0,0,0,10.6-3.82c.89-.78,1.19-2.25,2.74-2.25C453.66,449.17,452.79,454.44,452.21,459.73ZM298,520.34q0,15.55,0,31.09a12.37,12.37,0,0,0,.59,4.8,6.4,6.4,0,0,0,11.89,0,11.93,11.93,0,0,0,.62-4.79q0-30.71,0-61.42a15.55,15.55,0,0,0-.5-4.42c-.89-3-3-4.44-6.18-4.38a5.7,5.7,0,0,0-5.85,4.32A15.92,15.92,0,0,0,298,490C297.94,500.12,298,510.23,298,520.34Zm68.09.38c0-6.37,0-12.73,0-19.1,0-4.95-2.19-7.53-6.27-7.57s-6.49,2.71-6.51,7.43q0,19.29,0,38.58c0,4.79,2.44,7.43,6.54,7.36s6.19-2.59,6.23-7.23C366.08,533.7,366.05,527.21,366.05,520.72ZM243,520.57c0,6.49,0,13,0,19.47,0,4.85,2.32,7.43,6.45,7.39,3.86,0,6.3-2.72,6.32-7.23q.08-19.47,0-38.94c0-4.47-2.5-7.18-6.35-7.21-4.11,0-6.39,2.56-6.42,7.42C242.93,507.83,243,514.2,243,520.57Z" transform="translate(-129.33 -273.38)"/><path class="cls-1" d="M460.85,384.62c7.34-1.64,13.33,2.09,12.88,10.76-.5,9.6-.1,19.25-.12,28.87,0,6.26-3,9.46-9.26,9.8-1.12.06-2.25,0-3.38,0L183.11,434c-9.25,0-18.5.13-27.75.22-6.13.06-6.53.39-7.93,6-7.34.49-13.26-1.56-16.53-8.82-1.25-2.79-.6-5.65-.83-8.48a5.88,5.88,0,0,1,1.16.92c4,5.24,8.7,6.87,14.65,5,4.21-1.31,7.09-6,7.52-11.78.64-8.56,6.56-15.21,16-15.2q138.48.22,277,.09a22.28,22.28,0,0,0,3.37,0c3.91-.59,7.33-1.84,9.67-5.51C461.84,392.63,461.11,388.65,460.85,384.62Z" transform="translate(-129.33 -273.38)"/><path class="cls-2" d="M295.49,273.5c10.87-.61,17.26,3.09,19.7,11.43a13.16,13.16,0,0,1,.54,2.55c.52,5.7,1.29,6.67,6.77,8.3l-.06,18.09c-6.39-5.66-11.54-1.69-16.72,2.16a93.34,93.34,0,0,0-20.46,20.44c-10.44,14.55-16.69,30.62-17.51,48.64H217.5q0-36.51,0-73a21.15,21.15,0,0,1,20.72-20.75c14.48,0,29,0,43.44,0C293.11,291.27,298.55,284.17,295.49,273.5Z" transform="translate(-129.33 -273.38)"/><path class="cls-2" d="M460.85,384.65c.26,4,1,8-1.45,11.84-2.34,3.67-5.76,4.92-9.67,5.51a22.28,22.28,0,0,1-3.37,0q-138.48,0-277-.09c-9.43,0-15.35,6.64-16,15.21-.43,5.76-3.31,10.46-7.52,11.77-5.95,1.86-10.68.23-14.65-5a6.27,6.27,0,0,0-1.16-.92c-1.2-2.14-.53-4.47-.7-6.72,5.42-1.41,6.73-3.07,6.74-8.62,0-4.75,0-9.5,0-14.25.05-5.12,2.7-8.16,7.72-8.88a32,32,0,0,1,4.48-.23q154,0,308.08,0C457.89,384.29,459.41,384,460.85,384.65Z" transform="translate(-129.33 -273.38)"/><path class="cls-3" d="M453.7,443.83c-1.55,0-1.85,1.47-2.74,2.25a15.51,15.51,0,0,1-10.6,3.82q-126.44-.09-252.87,0c-8.45-.37-16.94.74-25.36-.74-.47-4.34-.81-8.69-1.47-13-.42-2.72.14-3.73,3.16-3.69,11.11.18,22.23.07,33.34.07h254c1.37,0,2.74.05,4.11.08Q454.48,438.23,453.7,443.83Z" transform="translate(-129.33 -273.38)"/><path class="cls-1" d="M267.75,385.11c.82-18,7.07-34.09,17.51-48.64A93.34,93.34,0,0,1,305.72,316c5.18-3.85,10.33-7.82,16.72-2.16,0,1.47.05,18,.08,19.45-10.09,7.92-9.19,6.33-16.28,15-2.59,3.19-2.62,2.74-4.72,6.27-2.77,4.64-4.4,6-9.72,4.92A54.27,54.27,0,0,0,285,385.14Z" transform="translate(-129.33 -273.38)"/><path class="cls-2" d="M378.74,325.12c9.22,2,17.23,6.5,24.44,12.4,14.12,11.55,22.65,26.33,25.19,44.49.34,2.43-.14,3.31-2.76,3.31q-54.93-.12-109.87-.08a4.75,4.75,0,0,1-.74-.12,7.3,7.3,0,0,1,.36-1.43c8.42-18.05,22-30.71,40.33-38.29a67.56,67.56,0,0,1,13.14-4C375.13,340.22,378.77,333.88,378.74,325.12Z" transform="translate(-129.33 -273.38)"/><path class="cls-2" d="M162.13,449.13c8.42,1.48,16.91.37,25.36.74q1.5,14.4,3,28.81c1.21,11.46,2.48,22.9,3.63,34.36.87,8.63,1.52,17.29,2.39,25.92s1.88,17,2.8,25.47c.59,5.42,1.43,10.84,1.58,16.27a30.68,30.68,0,0,0,4.2,14.54,13.06,13.06,0,0,1,1.89,8.21c-5.35.14-10.74.69-15.94-1.15-11.91-4.19-15.38-13.67-16.34-25.17-1.4-16.89-3.34-33.73-5-50.6-1.61-16.25-3.15-32.51-4.74-48.76Q163.57,463.45,162.13,449.13Z" transform="translate(-129.33 -273.38)"/><path class="cls-4" d="M295.49,273.5c3.06,10.67-2.38,17.77-13.82,17.82-14.48.07-29,0-43.44,0a21.15,21.15,0,0,0-20.72,20.75q-.06,36.51,0,73c-4.74.06-9.48,0-14.21.24-3,.17-3.76-.81-3.75-3.76.13-21.84.07-43.67.07-65.51,0-8.61,0-17.23,0-25.84.06-10.21,6.7-16.88,16.88-16.87Q256,273.4,295.49,273.5Z" transform="translate(-129.33 -273.38)"/><path class="cls-4" d="M378.74,325.12c0,8.76-3.61,15.1-9.91,16.31a67.56,67.56,0,0,0-13.14,4c-18.36,7.58-31.91,20.24-40.33,38.29a7.3,7.3,0,0,0-.36,1.43l-30,0a54.27,54.27,0,0,1,6.81-25.59c4.66,1.16,7.34-1.11,9.72-4.92a69,69,0,0,1,75.54-30.25A12.44,12.44,0,0,1,378.74,325.12Z" transform="translate(-129.33 -273.38)"/><path class="cls-4" d="M298,520.34c0-10.11,0-20.22,0-30.33a15.92,15.92,0,0,1,.51-4.42,5.7,5.7,0,0,1,5.85-4.32c3.16-.06,5.29,1.4,6.18,4.38a15.55,15.55,0,0,1,.5,4.42q0,30.72,0,61.42a11.93,11.93,0,0,1-.62,4.79,6.4,6.4,0,0,1-11.89,0,12.37,12.37,0,0,1-.59-4.8Q298,535.89,298,520.34Z" transform="translate(-129.33 -273.38)"/><path class="cls-4" d="M366.05,520.72c0,6.49,0,13,0,19.47,0,4.64-2.26,7.17-6.23,7.23s-6.53-2.57-6.54-7.36q-.07-19.29,0-38.58c0-4.72,2.5-7.47,6.51-7.43s6.25,2.62,6.27,7.57C366.07,508,366.05,514.35,366.05,520.72Z" transform="translate(-129.33 -273.38)"/><path class="cls-4" d="M243,520.57c0-6.37,0-12.74,0-19.1,0-4.86,2.31-7.46,6.42-7.42,3.85,0,6.33,2.74,6.35,7.21q.08,19.47,0,38.94c0,4.51-2.46,7.19-6.32,7.23-4.13,0-6.42-2.54-6.45-7.39C242.92,533.55,243,527.06,243,520.57Z" transform="translate(-129.33 -273.38)"/></svg>