<svg id="Layer_1" data-name="Layer 1" xmlns="http://www.w3.org/2000/svg" viewBox="0 0 331.26 384.26"><defs><style>.cls-1{fill:#070706;}.cls-2{fill:#ffe2b8;}</style></defs><title>Bell</title><path class="cls-1" d="M586.5,621.75c-5.15-2-10.76-2.34-15.9-4.48-28.7-12-44.5-33.36-47-64.41-.19-2.3-1-2.53-2.89-2.52q-16.86.12-33.73,0c-27.9-.11-50.24-18.41-55.92-45.75-5.81-27.94,12.31-57.1,40.09-64.3,2.84-.74,3.89-1.68,3.87-4.85-.18-25.24-.59-50.5,0-75.72,1.21-51.83,25.08-89.78,72.17-111.69,60.66-28.22,135.28,2.31,160,64.53a123.14,123.14,0,0,1,9,46.66c-.06,10.37,0,20.74,0,31.11,0,10.89-8.15,19.13-18.75,19.14s-18.58-8.07-18.79-19.06c-.26-13.49.77-27-.63-40.46q-3.49-33.53-29.45-55.22a3,3,0,0,0-.43-.6c-36-29.8-90.54-23.3-118.64,14.14-11.47,15.28-16.92,32.49-16.84,51.6.12,29.12.07,58.24,0,87.36,0,14.45-8,24.94-21.17,27.89-2.78.62-5.72.53-8.54,1a18.25,18.25,0,0,0-12.36,28c4.15,6.38,10.31,8.51,17.67,8.49q62.23-.11,124.48,0c1,0,2-.17,3-.26,15.49.05,31,.13,46.46.15,14.37,0,28.74.11,43.1-.07,9.62-.13,16.36-6.21,18-15.7,1.65-9.3-5.42-19.27-14.82-20.44-4.44-.55-9-.24-13.46-.58-9.85-.76-17.36-8.21-17.79-17.43-.46-10.13,6.17-18.86,16.37-19.87,16.29-1.62,31.78.86,45.36,11.12a56.75,56.75,0,0,1,20.55,58.64c-5.45,21.37-23.86,38.36-45.4,41.45-12,1.73-24.2.53-36.3.8-3.12.07-6.8-.93-9.2.4-2.57,1.43-.9,5.47-1.38,8.33-5.49,32.45-27.13,55-59,61.63-1.74.35-3.74-.54-5.24,1Zm9.16-71.34H563.83c-1.5,0-2.81-.33-2.59,2.21a34.91,34.91,0,0,0,34.33,31.62c17.33,0,32.77-13.78,34.44-30.75.23-2.35-.31-3.18-2.89-3.14C616.63,550.51,606.15,550.41,595.66,550.41Z" transform="translate(-429.99 -237.49)"/><path class="cls-2" d="M615.75,512.31c-1,.09-2,.26-3,.26q-62.24,0-124.48,0c-7.36,0-13.52-2.11-17.67-8.49a18.25,18.25,0,0,1,12.36-28c2.82-.47,5.76-.38,8.54-1,13.17-2.95,21.14-13.44,21.17-27.89,0-29.12.1-58.24,0-87.36-.08-19.11,5.37-36.32,16.84-51.6,28.1-37.44,82.66-43.94,118.64-14.14a3,3,0,0,1,.43.6c-9.44,8.68-16.86,19-23.64,29.77A186.77,186.77,0,0,0,598,396.1a189.89,189.89,0,0,0-2,41.65,198.58,198.58,0,0,0,11.26,54.61A200.9,200.9,0,0,0,615.75,512.31Z" transform="translate(-429.99 -237.49)"/></svg>