<svg id="Layer_1" data-name="Layer 1" xmlns="http://www.w3.org/2000/svg" viewBox="0 0 339.61 384.27"><defs><style>.cls-1{fill:#f7f5f7;}.cls-2{fill:#0a0a0a;}.cls-3{fill:#e3dee2;}.cls-4{fill:#a69aa6;}.cls-5{fill:#918291;}.cls-6{fill:#fbe8aa;}</style></defs><title>bill vector</title><path class="cls-1" d="M365.25,714.75h-19.5c2.33-2.06,4.16-4.43,2.83-7.7s-4.29-3.61-7.48-3.59c-13.12.09-26.25,0-39.37,0a16.86,16.86,0,0,1-4.44-.41c-5.27-1.45-7.65-5.3-7.65-12.16l-.24-343.43a6.26,6.26,0,0,0,0-.75c-.36-3.22.78-4.41,4.05-3.25a50.64,50.64,0,0,1,7.47,3.37c3.91,2.17,7.78,4.48,12.15,5.6,13.45,3.45,26,1.58,38.05-5.62,11.15-6.67,22.72-6.46,34.13-.21,4.15,2.27,8.24,4.67,12.85,5.86,13.52,3.46,26,1.15,38-5.94,10.94-6.46,22.42-6.46,33.39-.07,9.83,5.71,20.14,8.39,31.44,7.38q0,75.64,0,151.31c0,1.12-.18,2.23-.27,3.35a6.68,6.68,0,0,0-5.92-3.18c-12.11.09-24.21.05-36.32,0a5.47,5.47,0,0,0-4.42,1.56c-1.53,1.68-2.29,3.51-1.41,5.79,1.17,3,3.55,3.95,6.53,3.95,11.61,0,23.21,0,34.82,0a8.67,8.67,0,0,0,6.11-2.25,2,2,0,0,1,.88,1.92c-.15,14.39.37,28.79-.27,43.17-1.38-1.88-3-3.19-5.55-3.18-12.36.07-24.71,0-37.07,0a5.17,5.17,0,0,0-4.05,1.57c-1.54,1.68-2.27,3.52-1.4,5.8,1.1,2.85,3.31,3.91,6.17,3.91,11.86,0,23.71,0,35.57,0a8.31,8.31,0,0,0,5.73-2.25c1.15.78.88,2,.88,3.06q0,19.25,0,38.48c0,1,.2,2-.73,2.76a7.18,7.18,0,0,0-5.24-2.37c-12.22.09-24.44.07-36.65,0a5.65,5.65,0,0,0-5.31,2.82c-2.37,4,.58,8.42,5.82,8.46,11.84.1,23.69,0,35.53.05a8.26,8.26,0,0,0,5.71-2.27c1.14.77.87,2,.87,3.06q0,19.25,0,38.48c0,1,.2,2-.74,2.76a7.16,7.16,0,0,0-5.25-2.37c-12.21.08-24.43,0-36.65,0a5.43,5.43,0,0,0-4.12,1.39c-1.7,1.72-2.51,3.65-1.55,6.08,1.13,2.83,3.36,3.82,6.21,3.82,11.85,0,23.69,0,35.54,0a8.23,8.23,0,0,0,5.7-2.28c1.45,2.54,1.29,5.43,1.55,8.17.76,7.88,3.26,14.92,8.93,20.64,2.32,2.35,4.58,4.75,6.87,7.13-1.37,0-2.74.1-4.12.1H370.58c-1,0-2-.06-3,0a5.69,5.69,0,0,0-3.9,9.4C364.2,713.54,365.35,713.63,365.25,714.75ZM414,476.51A53.06,53.06,0,0,0,467.14,424c.22-29-23.77-53.19-52.86-53.3A52.91,52.91,0,0,0,414,476.51Zm-45.32,28.86c-13.86,0-27.73,0-41.6,0-2.56,0-4.7.55-6,2.9-2.34,4.11.83,8.4,6.36,8.41q40.84.06,81.69,0c4.74,0,7.2-2,7.22-5.7s-2.25-5.58-7.16-5.58Q388.94,505.35,368.69,505.37Zm-.06,51q-20.62,0-41.23,0c-4.36,0-7,2.07-7.09,5.42-.1,3.53,2.67,5.85,7.17,5.86q40.84,0,81.7,0c4.72,0,7.16-2,7.15-5.75s-2.29-5.53-7.23-5.53Q388.87,556.35,368.63,556.37Zm.09,51c-13.87,0-27.73,0-41.6,0-2.88,0-5.14.69-6.32,3.56-1.75,4.26,1.32,7.75,7,7.76h81.32c4.72,0,7.22-2,7.25-5.67s-2.27-5.61-7.13-5.61Q389,607.39,368.72,607.41Zm-.12,51c-13.87,0-27.74.05-41.61,0-3.5,0-5.83,1.34-6.58,4.75-.82,3.68,2.34,6.56,7.1,6.56q40.67,0,81.33,0c5,0,7.52-2,7.49-5.77s-2.3-5.51-7.63-5.52ZM346,593.17c6.25,0,12.49,0,18.73,0,4.29,0,6.7-2.27,6.6-5.89s-2.32-5.36-6.63-5.38q-18.72,0-37.46,0c-4.28,0-7,2.22-6.93,5.59s2.68,5.65,7,5.69C333.51,593.2,339.75,593.17,346,593.17Zm.25,39.74c-6.5,0-13,0-19.48,0-3.78,0-6.29,2.14-6.45,5.29s2.44,5.93,6.3,5.95q19.29.12,38.59,0c3.95,0,6.27-2.48,6.12-6-.14-3.34-2.35-5.23-6.35-5.26C358.73,632.88,352.48,632.91,346.24,632.91Zm-.07-102c-6.37,0-12.74,0-19.11,0-4.06,0-6.64,2.12-6.75,5.37s2.59,5.88,6.75,5.9q18.92.08,37.83,0c4.09,0,6.43-2.23,6.44-5.7s-2.22-5.52-6.43-5.56C358.65,530.83,352.41,530.87,346.17,530.87Z" transform="translate(-277.97 -330.48)"/><path class="cls-2" d="M294.75,714.75c-.55-1.23-1.87-1-2.83-1.44-8.63-3.8-13-10.46-13.59-19.77,0-.5,0-1,0-1.5q-.18-172.47-.35-344.93c0-8.47,3.45-13.48,10.36-15.24,2.93-.75,5.68,0,8.44.79a52.25,52.25,0,0,1,11.18,5.1c11.93,6.9,23.9,7,35.79,0a47.92,47.92,0,0,1,24.07-7.06,46,46,0,0,1,24.85,7c8.83,5.37,18.2,6.33,28,3.55,3.26-.92,6.13-2.71,9.06-4.34,15.44-8.55,31-8.68,46.26.09,8,4.59,16.27,6.65,25.42,5.07a33.5,33.5,0,0,0,10.77-4c4.12-2.31,8.25-4.59,12.86-5.87,10.29-2.85,18,2.86,18,13.57q.09,68.06.06,136.1c0,3.16.43,4.5,4.12,4.43,6.83-.13,12.72,2.77,18.16,6.86,10.44,7.85,16.91,7.79,27.28-.06,4.76-3.6,9.65-6.4,15.82-4.05,5.22,2,8.34,5.72,8.87,11.4.13,1.36.16,2.74.16,4.11q0,82.49.05,165c0,14.65-4.92,26.84-16.41,36.06-5.82,4.66-12.38,7.87-20,8.52-.25,0-.47.44-.7.67H365.25c.1-1.12-1.05-1.21-1.56-1.83a5.69,5.69,0,0,1,3.9-9.4c1-.08,2,0,3,0H513.37c1.38,0,2.75-.07,4.12-.1h28.14c-9.2-9.17-13.68-19.78-13.71-32.15q-.09-50.18-.07-100.36c0-4.82,1.11-6.22,5.86-7.71,4.82,1.66,5.49,2.58,5.49,7.94q.07,45.89.13,91.78c0,4.49,0,9,.43,13.47,1,12,11.84,23.88,23.21,25.77a21,21,0,0,0,11,1.12c17.44-2.65,28.1-15,28.11-32.65q0-83.15,0-166.28c0-1.53.72-3.47-1.11-4.42-2-1-3.24.77-4.53,1.77-5.49,4.28-11.28,7.82-18.42,8.46-9.36.71-17.33-2.53-24.37-8.5a17,17,0,0,0-10.62-4c-2.72-.12-4,.48-3.91,3.67.2,13.72,0,27.45.18,41.17,0,4.23-1.3,7-5.52,8-4.14-.67-5.9-3.12-5.9-8.3q0-95.73-.07-191.47c0-9.35-.74-9.92-9.11-5.41-6.92,3.73-13.77,7.43-21.69,8.52-11.3,1-21.61-1.67-31.44-7.38-11-6.39-22.45-6.39-33.39.07-12,7.09-24.52,9.4-38,5.94-4.61-1.19-8.7-3.59-12.85-5.86-11.41-6.25-23-6.46-34.13.21-12,7.2-24.6,9.07-38.05,5.62-4.37-1.12-8.24-3.43-12.15-5.6a50.64,50.64,0,0,0-7.47-3.37c-3.27-1.16-4.41,0-4.05,3.25a6.26,6.26,0,0,1,0,.75l.24,343.43c0,6.86,2.38,10.71,7.65,12.16a16.86,16.86,0,0,0,4.44.41c13.12,0,26.25.07,39.37,0,3.19,0,6.14.26,7.48,3.59s-.5,5.64-2.83,7.7Z" transform="translate(-277.97 -330.48)"/><path class="cls-3" d="M501,353.85c7.92-1.09,14.77-4.79,21.69-8.52,8.37-4.51,9.11-3.94,9.11,5.41q0,95.75.07,191.47c0,5.18,1.76,7.63,5.9,8.3q0,6.33,0,12.66c-4.75,1.49-5.86,2.89-5.86,7.71q0,50.18.07,100.36c0,12.37,4.51,23,13.71,32.15H517.49c-2.29-2.38-4.55-4.78-6.87-7.13-5.67-5.72-8.17-12.76-8.93-20.64-.26-2.74-.1-5.63-1.55-8.17a7.24,7.24,0,0,0,.12-6.7c.94-.74.74-1.79.74-2.76q0-19.25,0-38.48c0-1.09.27-2.29-.87-3.06a7.27,7.27,0,0,0,.14-6.71c.93-.73.73-1.78.73-2.76q0-19.23,0-38.48c0-1.08.27-2.28-.88-3.06a8,8,0,0,0,.6-5.91c.64-14.38.12-28.78.27-43.17a2,2,0,0,0-.88-1.92,7.94,7.94,0,0,0,.61-5.93c.09-1.12.27-2.23.27-3.35Q501,429.5,501,353.85Z" transform="translate(-277.97 -330.48)"/><path class="cls-2" d="M414,476.51a52.91,52.91,0,0,1,.27-105.82c29.09.11,53.08,24.3,52.86,53.3A53.06,53.06,0,0,1,414,476.51Zm-.13-11.35a41.62,41.62,0,0,0,41.92-41.31c.23-22.67-18.62-41.62-41.58-41.78a41.55,41.55,0,0,0-.34,83.09Z" transform="translate(-277.97 -330.48)"/><path class="cls-2" d="M368.69,505.37q20.24,0,40.48,0c4.91,0,7.18,1.81,7.16,5.58s-2.48,5.7-7.22,5.7q-40.85,0-81.69,0c-5.53,0-8.7-4.3-6.36-8.41,1.33-2.35,3.47-2.91,6-2.9C341,505.4,354.83,505.37,368.69,505.37Z" transform="translate(-277.97 -330.48)"/><path class="cls-2" d="M368.63,556.37q20.24,0,40.47,0c4.94,0,7.21,1.78,7.23,5.53s-2.43,5.75-7.15,5.75q-40.85,0-81.7,0c-4.5,0-7.27-2.33-7.17-5.86.09-3.35,2.73-5.41,7.09-5.42Q348,556.35,368.63,556.37Z" transform="translate(-277.97 -330.48)"/><path class="cls-2" d="M368.72,607.41q20.23,0,40.48,0c4.86,0,7.17,1.84,7.13,5.61s-2.53,5.66-7.25,5.67H327.76c-5.64,0-8.71-3.5-7-7.76,1.18-2.87,3.44-3.57,6.32-3.56C341,607.45,354.85,607.41,368.72,607.41Z" transform="translate(-277.97 -330.48)"/><path class="cls-2" d="M368.6,658.41h40.1c5.33,0,7.6,1.66,7.63,5.52s-2.46,5.77-7.49,5.77q-40.66,0-81.33,0c-4.76,0-7.92-2.88-7.1-6.56.75-3.41,3.08-4.77,6.58-4.75C340.86,658.46,354.73,658.41,368.6,658.41Z" transform="translate(-277.97 -330.48)"/><path class="cls-2" d="M346,593.17c-6.24,0-12.48,0-18.73,0-4.28,0-6.93-2.26-7-5.69s2.65-5.58,6.93-5.59q18.74,0,37.46,0c4.31,0,6.54,1.89,6.63,5.38s-2.31,5.85-6.6,5.89C358.48,593.21,352.24,593.17,346,593.17Z" transform="translate(-277.97 -330.48)"/><path class="cls-2" d="M346.24,632.91c6.24,0,12.49,0,18.73,0,4,0,6.21,1.92,6.35,5.26.15,3.51-2.17,6-6.12,6q-19.29.12-38.59,0c-3.86,0-6.47-2.67-6.3-5.95s2.67-5.27,6.45-5.29C333.25,632.88,339.74,632.91,346.24,632.91Z" transform="translate(-277.97 -330.48)"/><path class="cls-2" d="M346.17,530.87c6.24,0,12.48,0,18.73,0,4.21,0,6.44,2,6.43,5.56s-2.35,5.68-6.44,5.7q-18.92.11-37.83,0c-4.16,0-6.87-2.5-6.75-5.9s2.69-5.34,6.75-5.37C333.43,530.84,339.8,530.87,346.17,530.87Z" transform="translate(-277.97 -330.48)"/><path class="cls-2" d="M500.72,559.53a8,8,0,0,1-.6,5.91,8.31,8.31,0,0,1-5.73,2.25c-11.86-.05-23.71,0-35.57,0-2.86,0-5.07-1.06-6.17-3.91-.87-2.28-.14-4.12,1.4-5.8a5.17,5.17,0,0,1,4.05-1.57c12.36,0,24.71,0,37.07,0C497.74,556.34,499.34,557.65,500.72,559.53Z" transform="translate(-277.97 -330.48)"/><path class="cls-2" d="M500.72,508.51a7.94,7.94,0,0,1-.61,5.93,8.67,8.67,0,0,1-6.11,2.25c-11.61-.05-23.21,0-34.82,0-3,0-5.36-.93-6.53-3.95-.88-2.28-.12-4.11,1.41-5.79a5.47,5.47,0,0,1,4.42-1.56c12.11,0,24.21.05,36.32,0A6.68,6.68,0,0,1,500.72,508.51Z" transform="translate(-277.97 -330.48)"/><path class="cls-2" d="M500.27,609.74a7.27,7.27,0,0,1-.14,6.71,8.26,8.26,0,0,1-5.71,2.27c-11.84,0-23.69,0-35.53-.05-5.24,0-8.19-4.48-5.82-8.46a5.65,5.65,0,0,1,5.31-2.82c12.21.05,24.43.07,36.65,0A7.18,7.18,0,0,1,500.27,609.74Z" transform="translate(-277.97 -330.48)"/><path class="cls-2" d="M500.26,660.75a7.24,7.24,0,0,1-.12,6.7,8.23,8.23,0,0,1-5.7,2.28c-11.85-.06-23.69,0-35.54,0-2.85,0-5.08-1-6.21-3.82-1-2.43-.15-4.36,1.55-6.08a5.43,5.43,0,0,1,4.12-1.39c12.22,0,24.44.05,36.65,0A7.16,7.16,0,0,1,500.26,660.75Z" transform="translate(-277.97 -330.48)"/><path class="cls-4" d="M537.71,563.17q0-6.33,0-12.66c4.22-1,5.57-3.8,5.52-8-.18-13.72,0-27.45-.18-41.17-.05-3.19,1.19-3.79,3.91-3.67a17,17,0,0,1,10.62,4c7,6,15,9.21,24.37,8.5q0,81.36,0,162.72a36.47,36.47,0,0,1-3.25,14.09c-2.57,6.12-6.78,10.93-11.73,15.19-11.37-1.89-22.2-13.81-23.21-25.77-.38-4.47-.42-9-.43-13.47q-.11-45.9-.13-91.78C543.2,565.75,542.53,564.83,537.71,563.17Z" transform="translate(-277.97 -330.48)"/><path class="cls-5" d="M567,702.13c4.95-4.26,9.16-9.07,11.73-15.19A36.47,36.47,0,0,0,582,672.85q.09-81.36,0-162.72c7.14-.64,12.93-4.18,18.42-8.46,1.29-1,2.54-2.79,4.53-1.77,1.83,1,1.11,2.89,1.11,4.42q0,83.15,0,166.28c0,17.63-10.67,30-28.11,32.65A21,21,0,0,1,567,702.13Z" transform="translate(-277.97 -330.48)"/><path class="cls-6" d="M414.22,382.07a41.55,41.55,0,1,0,41.58,41.78C456,401.18,437.18,382.23,414.22,382.07Z" transform="translate(-277.97 -330.48)"/><path class="cls-2" d="M433.52,402.82h-7.86a2.3,2.3,0,0,0-2,3.53,14.47,14.47,0,0,1,1.7,4.15,2.31,2.31,0,0,0,2.24,1.77h5.87a2.31,2.31,0,0,1,2.31,2.31h0a2.31,2.31,0,0,1-2.31,2.32h-5.71a2.31,2.31,0,0,0-2.26,1.84c-1.43,7.18-7,12.08-15.48,13.56a2.3,2.3,0,0,0-1.35,3.83c5.35,5.8,11,12.47,16.6,19.32a2.32,2.32,0,0,1-1.79,3.79h-2.92a2.33,2.33,0,0,1-1.78-.84c-6.79-8.18-13.24-15.83-21.37-24.52a2.34,2.34,0,0,1-.63-1.59v-2.51a2.31,2.31,0,0,1,2.31-2.32h2.78c8.26,0,13.36-2.84,15.26-7.42A2.31,2.31,0,0,0,415,416.9H399.14a2.31,2.31,0,0,1-2.31-2.32h0a2.31,2.31,0,0,1,2.31-2.31H414a2.33,2.33,0,0,0,1.77-3.83c-2.36-2.82-6.54-4.23-12.38-4.23h-4.27a2.31,2.31,0,0,1-2.31-2.32V400.5a2.3,2.3,0,0,1,2.31-2.31h34.38a2.3,2.3,0,0,1,2.31,2.31h0A2.31,2.31,0,0,1,433.52,402.82Z" transform="translate(-277.97 -330.48)"/></svg>