<svg id="Layer_1" data-name="Layer 1" xmlns="http://www.w3.org/2000/svg" viewBox="0 0 201.01 260.99"><title>bill</title><path d="M996,220.21v7.12q0,114.71,0,229.39c0,16.29-7.93,24.35-24.09,24.36-50.81,0-101.61-.14-152.42.1-15.91.08-24.56-9.45-24.49-24.62.36-76.29.16-152.59.16-228.88v-7.49c5.6,2.75,10.26,4.75,14.61,7.28,3.69,2.15,7.09,2.72,10.58.09,10.13-7.66,20.16-7.66,30.22.12,3.32,2.57,6.87,2.28,10.06-.15,10-7.65,19.88-7.33,29.82.1a7.75,7.75,0,0,0,10.06,0c10.13-7.81,20.14-7.64,30.23.05,3.32,2.53,6.84,2.34,10.09-.1,9.92-7.49,19.8-7.85,29.78-.14,3.65,2.83,7.17,2.23,11,0C985.81,224.87,990.39,223,996,220.21ZM895.51,290.06c16.83,0,33.66.05,50.48,0a10.12,10.12,0,0,0,9.73-8.94,9.91,9.91,0,0,0-7.62-10.28,26.16,26.16,0,0,0-5.92-.68q-46.48-.06-93,0a31.25,31.25,0,0,0-4,.16c-6.15.81-10.4,5.17-10,10.38a10.79,10.79,0,0,0,11.33,9.54C862.85,289.78,879.18,290.07,895.51,290.06Zm-19.74,40.26c-9.64,0-19.28-.06-28.93,0-6.68.06-11.36,4.13-11.64,9.91-.25,5.33,4.07,10.09,10.7,10.2q29.42.48,58.84,0c6.7-.1,11-4.64,10.89-10-.11-5.94-4.91-10.07-11.93-10.12C894.39,330.27,885.08,330.32,875.77,330.32Zm-.31,80.46c-9.64,0-19.28-.1-28.92,0-6.84.1-11.37,4.23-11.34,10s4.62,9.8,11.47,9.82q28.68.09,57.35,0c7,0,11.38-3.8,11.5-9.71.12-5.76-4.36-10-11.14-10.07C894.74,410.69,885.1,410.78,875.46,410.78Zm-10.18-39.94c-6.67,0-13.33-.07-20,0a9.86,9.86,0,0,0-10,9.13c-.43,4.73,3.12,9.87,8.33,10,14.44.46,28.91.52,43.35.1,5.59-.16,8.89-5.1,8.43-10.37-.48-5.5-4.12-8.81-10.06-8.89C878.61,370.77,871.94,370.84,865.28,370.84ZM936,340.43c0,5.7,3.94,9.89,9.42,10a10.24,10.24,0,0,0,10.34-9.94,10.56,10.56,0,0,0-10.28-10.1A9.69,9.69,0,0,0,936,340.43Zm9.55,49.85c5.71.05,10-3.89,10.2-9.4.21-5.35-4.54-10.06-10.13-10-5.88,0-9.57,3.74-9.62,9.71S939.69,390.23,945.54,390.28Zm.09,20.62c-5.67,0-9.54,3.87-9.64,9.74a9.49,9.49,0,0,0,9.5,9.95,10.22,10.22,0,0,0,10.25-10A10.06,10.06,0,0,0,945.63,410.9Z" transform="translate(-794.96 -220.19)"/></svg>