<svg id="Layer_1" data-name="Layer 1" xmlns="http://www.w3.org/2000/svg" viewBox="0 0 220.19 334.9"><defs><style>.cls-1{fill:#3e63ae;}</style></defs><title>BORU ICON</title><path class="cls-1" d="M441.37,276.29a77,77,0,0,0-29-10.54c-4.37-.68-8.77-.45-13.13-1-8.25-1.12-14.79-8.59-14.52-16.8.29-8.87,7.24-16.18,16-16.33,22.87-.42,43.75,6.16,62.61,18.91,20.91,14.14,35.12,33.5,43,57.41a105.59,105.59,0,0,1,5,27.59c1.39,26.14-5.57,49.84-21,70.86-17.61,24-41.34,38.57-70.74,43.67a129.88,129.88,0,0,1-22.38,1.61c-17.59,0-35.19-.05-52.78.19-25,.36-47.56-17.89-52.26-42.48-.91-4.75-.82-9.5-.81-14.29.09-47.59.3-95.18.07-142.77-.12-26.78,6.06-51.71,20.73-74.13,20.66-31.6,49.52-51.52,86.77-58.79,17.08-3.34,34.13-3.66,50.93,1.75,23.4,7.53,40.73,22.32,52.09,44.06,6.39,12.24,9.3,25.4,9.59,39.18a17,17,0,0,1-16.46,17.48c-8.68.4-16.51-6.75-16.9-16-.58-13.82-4.45-26.32-13.79-36.78-12.82-14.33-29.09-19.81-47.94-18.34-17.24,1.35-33.25,6.56-47.57,16.38-23.1,15.84-37.38,37.51-42.47,65.16-1.31,7.13-1.31,14.32-1.32,21.51q0,68.83,0,137.68v1.15Zm25.12,25.06L349.9,418c-.21-.12-.06,0,.1,0,19.18-.13,38.38.8,57.53-.45,21.5-1.39,39.25-10.86,52.9-27.43,15.54-18.87,20.5-40.66,15.86-64.55A67,67,0,0,0,466.49,301.35Z" transform="translate(-291.34 -116.93)"/></svg>