<svg id="Layer_1" data-name="Layer 1" xmlns="http://www.w3.org/2000/svg" viewBox="0 0 415.36 178.38"><defs><style>.cls-1{fill:#c3d0eb;}.cls-2{fill:#7299d0;}.cls-3{fill:#1476bd;}.cls-4{fill:#1376bc;}</style></defs><title>boru</title><path class="cls-1" d="M72,425.52a.44.44,0,0,1,.2,0c0,.24,0,.47,0,.71q0,39.73,0,79.45a.36.36,0,0,1-.23,0Z" transform="translate(-72 -357.26)"/><path class="cls-2" d="M72,505.68a.36.36,0,0,0,.23,0V511l-.11,0L72,511Z" transform="translate(-72 -357.26)"/><path class="cls-3" d="M72.23,511v-5.31q0-39.72,0-79.45c0-.24,0-.47,0-.71a63.29,63.29,0,0,1,2.23-15.85,69.69,69.69,0,0,1,7.78-18.42,68.83,68.83,0,0,1,11.53-14.41,72.32,72.32,0,0,1,13.38-10.06,68.29,68.29,0,0,1,22.49-8.31c12-2.17,23.81-1.75,34.8,4.31,13.68,7.55,21.79,19.11,24.27,34.57a37.52,37.52,0,0,1,.47,6.69,8.49,8.49,0,0,1-17,0c-.28-14.75-10-26.48-24.38-29.24a38.71,38.71,0,0,0-17.58,1c-22.34,6.1-35.79,20.6-40.37,43.3a38.64,38.64,0,0,0-.66,7.75q0,39.06,0,78.11v1.17c.56.16.72-.26.95-.48q31.23-31.21,62.46-62.43c.69-.69.63-1-.18-1.44a41.65,41.65,0,0,0-21.62-6.13,8.51,8.51,0,0,1-6.47-14.14,7.9,7.9,0,0,1,6-2.84,58.1,58.1,0,0,1,10,.78c12.2,1.74,22.42,7.47,31.17,15.86a55.51,55.51,0,0,1,16.59,30.84c3.16,17.46-.62,33.39-11.64,47.34-9.57,12.14-22.2,19.25-37.5,21.56a63.16,63.16,0,0,1-9.32.6c-8.76,0-17.52,0-26.28,0a47.59,47.59,0,0,1-9.08-.39,27.71,27.71,0,0,1-21.78-22.1C72.38,512.4,72.32,511.69,72.23,511Zm29,7.62h29.29a42.9,42.9,0,0,0,8.68-.89c27.88-5.77,41.82-37.8,27-62.08-.88-1.43-.66-1.38-1.85-.19l-62.09,62.09C102,517.81,101.7,518.1,101.22,518.6Z" transform="translate(-72 -357.26)"/><path class="cls-4" d="M312,473.91c.68,17.42-4.83,32.55-17.31,44.78A56.9,56.9,0,0,1,253,535.57c-32.63-.32-55.24-26.08-57.65-52.58-1.52-16.76,3.11-31.74,14.24-44.42,12-13.64,27.3-20.33,45.42-19.92A58.26,58.26,0,0,1,312,473.91Zm-99.87,3.22a41.42,41.42,0,0,0,43.69,41.44,40,40,0,0,0,29-14.15A40.49,40.49,0,0,0,295,473.56a41.49,41.49,0,0,0-82.83,3.57Z" transform="translate(-72 -357.26)"/><path class="cls-4" d="M408.52,462.5c0-11.8,0-23.6,0-35.4a8.51,8.51,0,0,1,16.4-3.16,9.58,9.58,0,0,1,.61,3.64q0,34.25,0,68.51a22.4,22.4,0,0,0,44.7,2.29c.1-1.08.14-2.15.14-3.23q0-33.9,0-67.79a8.49,8.49,0,1,1,17,0q0,18.6,0,37.2c0,10.16-.06,20.32,0,30.48.08,11.12-3.53,20.8-11.3,28.77a39.43,39.43,0,0,1-52.86,3.05,38.29,38.29,0,0,1-14.5-27.25c-.4-4.31-.15-8.64-.17-12.95C408.49,478.58,408.52,470.54,408.52,462.5Z" transform="translate(-72 -357.26)"/><path class="cls-3" d="M337.64,458.63c2-1.67,3.7-3.12,5.42-4.59,12.86-11,25.78-21.88,38.55-33,4.81-4.19,11.42-2.62,13.78,2.32a8.45,8.45,0,0,1-2.12,10.14Q378.6,446.1,363.9,458.6q-12.67,10.81-25.37,21.62a2.35,2.35,0,0,0-.9,2q0,22.31,0,44.63a8.18,8.18,0,0,1-4.48,7.66,8.48,8.48,0,0,1-12.5-7.41q0-50,0-99.94a8.5,8.5,0,1,1,17,0c0,10,0,19.92,0,29.88Z" transform="translate(-72 -357.26)"/></svg>