<svg id="Layer_1" data-name="Layer 1" xmlns="http://www.w3.org/2000/svg" viewBox="0 0 384.01 360.95"><defs><style>.cls-1{fill:#0b0c0a;}.cls-2{fill:#171513;}.cls-3{fill:#fdeed6;}.cls-4{fill:#fbc151;}.cls-5{fill:#fee5c1;}.cls-6{fill:#ee7c84;}.cls-7{fill:#d7a646;}.cls-8{fill:#115d7d;}.cls-9{fill:#17140c;}.cls-10{fill:#10100f;}.cls-11{fill:#060607;}.cls-12{fill:#cdc0ac;}.cls-13{fill:#bbd0e7;}.cls-14{fill:#bed4ed;}.cls-15{fill:#97cfa2;}.cls-16{fill:#231f20;}</style></defs><title>calendar record </title><path class="cls-1" d="M99,297.28c-4.66-.8-6-2.27-6-6.93q0-32.06,0-64.11c0-5,2-6.93,7.06-7,4-.06,8-.12,12,0,2,.08,2.9-.39,2.76-2.62-.19-3.12-.1-6.25,0-9.37.08-3.68,2.35-6.16,5.58-6.22s5.61,2.4,5.72,6c.09,3.12.13,6.25,0,9.37-.1,2,.44,2.91,2.66,2.8a96.14,96.14,0,0,1,10.87,0c2.58.17,3-.83,3-3.15q-.13-29.62,0-59.23c0-7.19,3.21-12.8,9.54-16.25a17.18,17.18,0,0,1,18.14.5c6.31,3.89,8.73,9.92,8.72,17.16,0,19.12.06,38.24-.09,57.36,0,3.05.9,3.78,3.74,3.6,3.86-.23,7.75-.14,11.62,0,1.78.06,2.42-.46,2.33-2.29-.14-2.75-.13-5.5,0-8.25.15-3.54,2.77-6.11,5.89-6s5.29,2.47,5.46,6a53.49,53.49,0,0,1,0,7.49c-.23,2.6.83,3.17,3.2,3.07q6.56-.24,13.12,0c2.32.09,3.41-.39,3.15-3a52,52,0,0,1,0-7.49c.18-3.56,2.76-6.13,5.88-6.06s5.25,2.44,5.59,5.93c.06.62,0,1.25,0,1.87.11,8.71.11,8.71,8.67,8.71a45.77,45.77,0,0,1,6.73.06c3.53.52,4.29-1,3.94-4.13a36.62,36.62,0,0,1,0-6.37c.24-3.59,2.79-6.14,5.88-6.07a6,6,0,0,1,5.65,5.91,62.62,62.62,0,0,1,0,7.87c-.12,2,.43,2.85,2.64,2.78,4.62-.17,9.25-.21,13.87,0,2.49.11,2.92-.89,2.79-3a58.5,58.5,0,0,1,0-7.49c.24-3.62,2.8-6.14,5.88-6s5.43,2.66,5.66,6.31c0,.5,0,1,0,1.5.06,8.7.06,8.7,8.61,8.7,2.88,0,5.75-.07,8.62,0,1.63,0,2.2-.56,2.15-2.17-.08-2.87-.11-5.76.05-8.62.2-3.42,2.68-5.81,5.7-5.75a6,6,0,0,1,5.65,5.9,33.63,33.63,0,0,1,0,6.73c-.52,3.52,1,4.15,4.11,3.95a104,104,0,0,1,12.36,0c2.62.14,3.25-.87,3-3.21-.17-1.86-.05-3.75,0-5.62,0-5,2-7.7,5.6-7.74s5.75,2.79,5.77,7.63c0,2.12.11,4.25,0,6.37-.13,1.89.4,2.61,2.44,2.55,4.87-.14,9.75-.13,14.62,0,2,.05,2.62-.55,2.5-2.52-.15-2.74-.1-5.5,0-8.25a5.67,5.67,0,0,1,5.61-5.8,5.76,5.76,0,0,1,5.61,5.84c.11,2.87.11,5.75,0,8.62-.07,1.65.52,2.13,2.13,2.1,5.12-.09,10.25-.1,15.37,0,1.7,0,2.11-.59,2.06-2.16-.1-2.87-.11-5.75,0-8.62a5.74,5.74,0,0,1,5.67-5.77c3.08,0,5.43,2.44,5.56,5.86a66.48,66.48,0,0,1,0,7.86c-.21,2.44.75,2.92,3,2.84,4.62-.15,9.25-.14,13.87,0,2,.07,2.92-.39,2.76-2.63a71,71,0,0,1,0-7.86c.13-3.58,2.66-6.14,5.82-6.06s5.29,2.46,5.51,5.93c0,.38,0,.75,0,1.13.27,3.07-1.42,7.27.71,8.91s6,.47,9.1.53a39.73,39.73,0,0,0,4.5,0,8.38,8.38,0,0,1,8,3.56V448.5c-1.61,1.32-2.84,3.23-5.24,3.28-4.73-.88-6-2.42-6-7.35q0-78.53,0-157.07c0-3.95,1.77-9.51-.75-11.41s-7.87-.48-12-.5c-.62-.05-1.24-.14-1.86-.14q-134.52,0-269-.08c-3.08,0-3.65,1.16-3.3,3.69,2.33,16.87-2.14,31.94-12,45.59a5.26,5.26,0,0,0-.34.67c-1.2,2.31-2.67,4.19-5.65,4.17s-4.41-1.78-5.68-4.11q-5.43-10-11-19.92a12.49,12.49,0,0,1-1.54-6.43c.09-7,0-14,.06-21,0-1.79-.25-2.66-2.39-2.64q-16.86.15-33.72,0c-1.86,0-2.33.61-2.28,2.35.1,4.25-.06,8.5.06,12.74C104.39,294.2,102.73,296.51,99,297.28Zm353.93-51.66c-5.86,2.81-9.5.54-9.63-5.91-.06-2.85,1.23-6.57-.54-8.3-1.93-1.88-5.69-.58-8.64-.57-3.33,0-7.6-1.44-9.73.63-2,1.91-.43,6.16-.58,9.38-.17,3.75-2.3,6-5.68,6s-5.41-2.35-5.6-6.15c-.16-3.21,1.41-7.58-.66-9.3s-6.17-.58-9.39-.6c-3,0-6.94-1-8.72.47-2.11,1.77-.45,5.86-.71,8.94-.05.49,0,1,0,1.49a5.58,5.58,0,0,1-5.82,5.14,5.38,5.38,0,0,1-5.39-5.5c-.1-2.75-.12-5.5,0-8.25.08-1.81-.57-2.38-2.36-2.34-4.49.1-9,.19-13.49,0-2.79-.14-4.12.49-3.76,3.6a36,36,0,0,1,0,7.12,5.51,5.51,0,0,1-6,5.38c-3.13-.14-5.12-2.19-5.25-5.6-.1-2.62-.14-5.26,0-7.87.1-1.93-.53-2.66-2.52-2.61-4.87.11-9.75.13-14.62,0-2.14-.06-2.48.88-2.4,2.68a71.06,71.06,0,0,1,0,7.86c-.25,3.5-2.6,5.61-5.83,5.56s-5.27-2.11-5.41-5.83c-.1-2.62-.12-5.25,0-7.87.08-1.81-.61-2.41-2.39-2.38q-7.49.1-15,0c-1.61,0-2.22.52-2.17,2.16a78.1,78.1,0,0,1-.05,8.24c-.27,3.63-2.47,5.68-5.7,5.68s-5.35-2-5.61-5.71c-.19-2.61-.13-5.24-.07-7.86,0-1.64-.3-2.56-2.24-2.52-5,.1-10,.08-15,0-1.6,0-2.25.52-2.19,2.16.08,2.62.13,5.25,0,7.87-.23,3.93-2.33,6-5.71,6s-5.48-2.16-5.71-6.07a64.54,64.54,0,0,1,0-7.49c.12-2-.65-2.62-2.59-2.53-2.74.13-5.49,0-8.24,0-8.61,0-8.61,0-8.68,8.42,0,.75,0,1.5-.05,2.25a5.29,5.29,0,0,1-3.3,5c-4.22,1.85-7.88-1.29-8-6.74-.08-2.85,1.22-6.55-.54-8.31-1.93-1.92-5.69-.61-8.64-.58-3.32,0-7.49-1.47-9.72.7-1.91,1.86-.37,5.94-.57,9,0,.13,0,.25,0,.38-.19,3.7-2.09,5.78-5.38,5.88s-5.71-2.15-5.9-5.85c-.13-2.62-.12-5.25,0-7.87.08-1.79-.54-2.41-2.34-2.36-4.12.11-8.25.19-12.37,0-2.6-.14-3.08.94-3,3.25.11,8.62.22,17.25,0,25.86-.11,3.49,1,4.25,4.32,4.24Q316.17,264,449.26,264c1.24,0,2.49-.08,3.74-.12,3.36,0,6.74,0,10.1.17,2.18.13,2.72-.65,2.69-2.74-.11-7.74,0-15.49,0-23.23,0-7.33,0-7.19-7.47-7.35-2.92-.06-3.81.72-3.77,3.72C454.55,238.21,455.72,242.25,452.89,245.62Zm-292.3,65.81c5.81-6.77,7.07-14.46,7-23-.38-30.21-.13-60.42-.18-90.63,0-3.07,1.38-7.08-.62-9s-6-.24-9-.6-3.91.74-3.9,3.86c.12,32.83.37,65.66-.12,98.48C153.58,298.8,156.6,305.15,160.59,311.43ZM123.16,264c5.37,0,10.75-.14,16.12.06,2.55.09,3.44-.52,3.36-3.24-.21-7-.07-14-.07-21,0-9.05,0-9.05-9.09-9.05-7.35,0-7.35,0-7.42,7.37,0,4.46-2,7-5.4,7.09-3.64.11-5.84-2.51-5.9-7-.09-7.81-.09-7.73-8.07-7.47-2,.06-2.49.71-2.47,2.6.08,9.38.11,18.75,0,28.13,0,2.29.86,2.63,2.83,2.59C112.41,263.94,117.78,264,123.16,264Zm44.17-98.42c0-2.62,0-5.24,0-7.85,0-5-2.06-7.58-6.08-7.79-4.21-.22-7.06,2.34-7.28,7.18-.26,5.85-.05,11.71-.1,17.57,0,1.53.5,2.13,2.13,2.3,11.34,1.19,11.33,1.23,11.33-9.91Z" transform="translate(-92.99 -138.3)"/><path class="cls-2" d="M477,495.75c-2.13,2.84-5.05,3.5-8.45,3.5q-183.51-.06-367,0c-7,0-8.55-1.54-8.55-8.56V318.58c0-4.92,1.13-6.29,6-7.41,4,1.06,5.34,3.67,5.34,7.77q-.13,76-.06,152.06c0,1.49.08,3,.13,4.49a66.17,66.17,0,0,1-.19,7.85c-.54,3.78,1,4.35,4.48,4.35q176.37-.15,352.73-.08a18.76,18.76,0,0,1,2.25,0c1.65.2,2.15-.49,2.11-2.12-.1-4.12,0-8.24,0-12.36,0-4.88,1.09-6.2,6-7.46,2.39.4,3.94,2,5.27,3.82Z" transform="translate(-92.99 -138.3)"/><path class="cls-3" d="M104.39,475.49c0-1.5-.13-3-.13-4.49q0-76,.06-152.06c0-4.1-1.34-6.71-5.34-7.77q0-6.94,0-13.89c3.77-.77,5.43-3.08,5.32-6.92-.12-4.24,0-8.49-.06-12.74,0-1.74.42-2.37,2.28-2.35q16.86.12,33.72,0c2.14,0,2.41.85,2.39,2.64-.07,7,0,14-.06,21a12.49,12.49,0,0,0,1.54,6.43q5.57,9.93,11,19.92c1.27,2.33,2.75,4.1,5.68,4.11s4.45-1.86,5.65-4.17a5.26,5.26,0,0,1,.34-.67c9.87-13.65,14.34-28.72,12-45.59-.35-2.53.22-3.69,3.3-3.69q134.52.13,269,.08c.62,0,1.24.09,1.86.14q0,89.57,0,179.13a17.06,17.06,0,0,1-.49,4.05c-2.44,9.86-11.26,16.86-23.59,16.86Zm193.34-1.32c.29.39.55.29.79-.06,3.14-1,4.57-3.08,4.53-6.42-.08-7.73,0-15.47,0-23.21,0-4.33-2.07-6.42-6.41-6.45q-11.61-.11-23.21,0c-4.34,0-6.38,2.13-6.4,6.46-.05,7.62,0,15.23,0,22.84,0,4.84,1.93,6.73,6.79,6.76C281.76,474.13,289.74,474.14,297.73,474.17Zm-75,0c8,0,16,0,24-.1,4.58,0,6.65-2,6.7-6.55q.1-11.43,0-22.84c0-4.49-2.22-6.64-6.69-6.67q-11.42-.07-22.84,0c-4.52,0-6.55,2.07-6.58,6.66-.06,7.61,0,15.23,0,22.84,0,3.41,1.21,5.77,4.7,6.6C222.22,474.48,222.48,474.59,222.77,474.18Zm124.46,0c.29.41.55.3.79-.06,3.49-.83,4.73-3.2,4.7-6.61-.06-7.61,0-15.22,0-22.83,0-4.59-2.06-6.63-6.59-6.66q-11.41-.07-22.83,0c-4.48,0-6.65,2.18-6.69,6.67q-.09,11.42,0,22.84c0,4.55,2.11,6.52,6.7,6.55C331.26,474.14,339.24,474.15,347.23,474.18Zm-198-.06c3.23-.85,4.66-3,4.63-6.29-.05-7.86,0-15.72,0-23.59,0-4.09-2.13-6.17-6.25-6.21-7.74-.07-15.48-.06-23.21,0-4.48,0-6.58,2.19-6.61,6.72-.05,7.49,0,15,0,22.46,0,5,2,6.86,7.11,6.89q11.79.06,23.59.08C148.77,474.58,149,474.48,149.27,474.12Zm-31.5-92.75q0,17.81,0,35.62c0,5.54,1.92,7.5,7.33,7.5h71.23c5.42,0,7.42-1.95,7.43-7.46q0-35.43,0-70.86c0-5.6-1.87-7.55-7.38-7.56q-35.61-.06-71.23,0c-5.48,0-7.37,2-7.38,7.52Q117.76,363.76,117.77,381.37Zm267-42.77c-4,0-8-.11-12,0-4.41.15-6.38,2.1-6.45,6.54-.11,7.74-.12,15.48,0,23.22.08,4.31,2.26,6.42,6.55,6.47,7.61.09,15.23.08,22.85,0,4.62-.05,6.82-2.28,6.87-7q.1-11,0-22.1c0-5.06-2-7.06-7-7.19C392,338.52,388.35,338.59,384.73,338.6ZM384.14,325v0c4.12,0,8.24.11,12.36,0,3.79-.12,5.93-2,6-5.75.19-8.11.18-16.23,0-24.34-.07-3.75-2.46-6-6.24-6-7.86-.12-15.73-.11-23.59,0-4,.05-6.29,2.2-6.37,6.25q-.22,11.79,0,23.59c.07,4.42,2.07,6.22,6.59,6.32C376.65,325.11,380.4,325,384.14,325ZM303,356.77c0-3.87,0-7.74,0-11.61,0-4.23-1.87-6.41-6-6.49q-12-.24-24,0c-4.14.08-6.05,2.25-6.08,6.41q-.06,11.61,0,23.22c0,4.18,2,6.46,6,6.54q12,.24,24,0c4.08-.07,6-2.31,6.08-6.46C303.07,364.51,303,360.64,303,356.77Zm-85.74-.25c0,4-.06,8,0,12,.09,4.17,2,6.27,6.19,6.34q11.81.18,23.59,0c4-.06,6.28-2.33,6.33-6.32q.15-11.8,0-23.59c0-3.91-2.09-6.17-5.94-6.25q-12.16-.26-24.33,0c-4,.08-5.75,2.13-5.84,6.23C217.22,348.78,217.29,352.65,217.29,356.52Zm135.41.12c0-4,.08-8,0-12s-1.85-5.88-5.7-6c-8.11-.19-16.23-.18-24.34,0-4,.08-6,2.37-6.06,6.51q-.1,11.61,0,23.22c.05,4,2.23,6.36,6.21,6.43q12,.2,24,0c3.92-.07,5.83-2.22,5.93-6.2S352.7,360.64,352.7,356.64Zm63.41-.12c0,4-.05,8,0,12s1.94,6.24,5.81,6.32c8.11.17,16.22.15,24.34,0a5.62,5.62,0,0,0,5.92-5.92q.17-12.17,0-24.34c-.05-3.47-2-5.77-5.53-5.84q-12.54-.25-25.08,0c-3.5.07-5.44,2.19-5.46,5.81C416.11,348.53,416.12,352.52,416.11,356.52ZM185.58,474.1c3.87,0,7.74,0,11.61,0,4.25,0,6.42-1.83,6.51-6,.18-8,.16-16,0-24-.07-3.9-2.32-6.07-6.1-6.11q-12-.15-24,0c-3.69,0-6,2.05-6.11,5.7q-.28,12.34,0,24.72c.09,3.75,2.3,5.57,6.06,5.63C177.59,474.15,181.58,474.1,185.58,474.1Zm198.75-49.6c3.87,0,7.74,0,11.61,0,4.26-.06,6.54-2.11,6.61-6.38.13-7.86.15-15.73,0-23.59-.08-4.14-2.24-6.07-6.43-6.1q-11.79-.09-23.6,0c-4,0-6.08,1.9-6.17,5.91q-.25,12,0,24c.08,4.24,2.35,6.14,6.76,6.18C376.83,424.52,380.58,424.5,384.33,424.5Zm-31.64-18.23c0-4,.09-8,0-12-.1-3.8-2-5.8-5.77-5.84q-12.17-.13-24.33,0c-3.69,0-5.89,2.09-6,5.76q-.19,12.17,0,24.34c0,3.66,2.29,5.87,5.87,5.91q12.16.15,24.34,0c3.65,0,5.75-2.16,5.85-5.84C352.78,414.51,352.69,410.39,352.69,406.27Zm63.43-99.21c0,4-.07,8,0,12s1.87,5.85,5.68,5.92c8.11.14,16.23.13,24.34,0,3.91-.06,6-2.2,6-6.09q.14-11.79,0-23.58c0-4.06-2.19-6.38-6.18-6.44q-12-.18-24,0c-3.89.07-5.85,2.26-5.93,6.2S416.12,303.07,416.12,307.06Zm-113.1.13c0-4,.05-8,0-12s-2-6.24-5.82-6.32q-12.17-.24-24.34,0c-3.7.06-5.81,2.3-5.84,5.9q-.12,12.18,0,24.34c0,3.55,1.95,5.73,5.44,5.8q12.54.22,25.08,0c3.51-.06,5.4-2.22,5.48-5.76C303.08,315.18,303,311.18,303,307.19Zm-67.6,81.22c-4,0-8-.06-12,0s-6.05,2-6.1,5.9q-.15,12,0,24c0,4.12,2.15,6.15,6.27,6.19q11.61.07,23.22,0c4.29,0,6.54-2.12,6.6-6.35q.15-11.79,0-23.59c0-4.07-2.23-6-6.39-6.11C243.16,388.36,239.29,388.41,235.42,388.41Zm180.7,17.93c0,4-.07,8,0,12s2.14,6.13,6.3,6.16c7.86,0,15.73.06,23.59,0,3.85,0,6.12-2.17,6.17-6q.17-12,0-24c-.05-3.94-2.15-6-6-6.08q-12-.12-24,0c-4.1,0-6,2.07-6.08,6.3C416.07,398.6,416.12,402.47,416.12,406.34ZM253.45,307.23c0-4,.08-8,0-12s-2.29-6.32-6.27-6.38q-11.79-.18-23.58,0c-4.14.06-6.2,2.16-6.24,6.28q-.14,12,0,24c0,3.86,1.9,5.8,5.75,5.86q12.16.21,24.34,0c3.87-.05,5.88-2.21,6-6.14S253.45,311.09,253.45,307.23Zm99.25-.12c0-4,.07-8,0-12s-2.12-6.21-6.27-6.27c-7.86-.1-15.72-.11-23.58,0-4,.06-6.2,2.38-6.25,6.39q-.13,11.79,0,23.59c.05,3.92,2.12,6.07,6,6.12q12.17.18,24.33,0c3.84-.06,5.64-2,5.75-5.87S352.69,311.1,352.7,307.11ZM303,406.61c0-4.12.07-8.24,0-12.35-.08-3.69-2.12-5.78-5.83-5.82q-12.17-.12-24.34,0c-3.7,0-5.79,2.14-5.83,5.82q-.11,12.17,0,24.33c0,3.66,2.17,5.83,5.83,5.87q12.18.14,24.34,0c3.66,0,5.74-2.21,5.83-5.87C303.09,414.6,303,410.61,303,406.61Z" transform="translate(-92.99 -138.3)"/><path class="cls-4" d="M453,263.89c-1.25,0-2.5.12-3.74.12q-133.08,0-266.15.08c-3.36,0-4.43-.75-4.32-4.24.26-8.61.15-17.24,0-25.86,0-2.31.45-3.39,3-3.25,4.12.21,8.25.13,12.37,0,1.8,0,2.42.57,2.34,2.36-.12,2.62-.13,5.25,0,7.87.19,3.7,2.55,6,5.9,5.85s5.19-2.18,5.38-5.88c0-.13,0-.25,0-.38.2-3.09-1.34-7.17.57-9,2.23-2.17,6.4-.67,9.72-.7,3,0,6.71-1.34,8.64.58,1.76,1.76.46,5.46.54,8.31.16,5.45,3.82,8.59,8,6.74a5.29,5.29,0,0,0,3.3-5c0-.75,0-1.5.05-2.25.07-8.42.07-8.42,8.68-8.42,2.75,0,5.5.1,8.24,0,1.94-.09,2.71.52,2.59,2.53a64.54,64.54,0,0,0,0,7.49c.23,3.91,2.35,6.06,5.71,6.07s5.48-2.12,5.71-6c.16-2.62.11-5.25,0-7.87-.06-1.64.59-2.18,2.19-2.16,5,.07,10,.09,15,0,1.94,0,2.28.88,2.24,2.52-.06,2.62-.12,5.25.07,7.86.26,3.72,2.33,5.7,5.61,5.71s5.43-2,5.7-5.68a78.1,78.1,0,0,0,.05-8.24c-.05-1.64.56-2.18,2.17-2.16q7.5.1,15,0c1.78,0,2.47.57,2.39,2.38-.11,2.62-.09,5.25,0,7.87.14,3.72,2.1,5.77,5.41,5.83s5.58-2.06,5.83-5.56a71.06,71.06,0,0,0,0-7.86c-.08-1.8.26-2.74,2.4-2.68,4.87.14,9.75.12,14.62,0,2,0,2.62.68,2.52,2.61-.13,2.61-.09,5.25,0,7.87.13,3.41,2.12,5.46,5.25,5.6a5.51,5.51,0,0,0,6-5.38,36,36,0,0,0,0-7.12c-.36-3.11,1-3.74,3.76-3.6,4.49.21,9,.12,13.49,0,1.79,0,2.44.53,2.36,2.34-.13,2.75-.11,5.5,0,8.25a5.38,5.38,0,0,0,5.39,5.5,5.58,5.58,0,0,0,5.82-5.14c.06-.49,0-1,0-1.49.26-3.08-1.4-7.17.71-8.94,1.78-1.5,5.73-.49,8.72-.47,3.22,0,7.44-1,9.39.6s.5,6.09.66,9.3c.19,3.8,2.25,6.11,5.6,6.15s5.51-2.26,5.68-6c.15-3.22-1.38-7.47.58-9.38,2.13-2.07,6.4-.62,9.73-.63,2.95,0,6.71-1.31,8.64.57,1.77,1.73.48,5.45.54,8.3.13,6.45,3.77,8.72,9.63,5.91Q452.94,254.76,453,263.89Z" transform="translate(-92.99 -138.3)"/><path class="cls-5" d="M104.39,475.49H428.92c12.33,0,21.15-7,23.59-16.86a17.06,17.06,0,0,0,.49-4.05q0-89.56,0-179.13c4.1,0,9.34-1.47,12,.5s.75,7.46.75,11.41q.07,78.54,0,157.07c0,4.93,1.28,6.47,6,7.35l0,13.9c-4.9,1.26-6,2.58-6,7.46,0,4.12-.07,8.24,0,12.36,0,1.63-.46,2.32-2.11,2.12a18.76,18.76,0,0,0-2.25,0q-176.36,0-352.73.08c-3.47,0-5-.57-4.48-4.35A66.17,66.17,0,0,0,104.39,475.49Z" transform="translate(-92.99 -138.3)"/><path class="cls-6" d="M160.59,311.43c-4-6.28-7-12.63-6.88-20.88.49-32.82.24-65.65.12-98.48,0-3.12.78-4.24,3.9-3.86s7.06-1.27,9,.6.61,5.89.62,9c.05,30.21-.2,60.42.18,90.63C167.66,297,166.4,304.66,160.59,311.43Z" transform="translate(-92.99 -138.3)"/><path class="cls-4" d="M123.16,264c-5.38,0-10.75-.08-16.13,0-2,0-2.86-.3-2.83-2.59.13-9.38.1-18.75,0-28.13,0-1.89.44-2.54,2.47-2.6,8-.26,8-.34,8.07,7.47.06,4.53,2.26,7.15,5.9,7,3.44-.11,5.35-2.63,5.4-7.09.07-7.37.07-7.37,7.42-7.37,9.09,0,9.09,0,9.09,9.05,0,7-.14,14,.07,21,.08,2.72-.81,3.33-3.36,3.24C133.91,263.88,128.53,264,123.16,264Z" transform="translate(-92.99 -138.3)"/><path class="cls-7" d="M453,263.89q-.06-9.13-.11-18.27c2.83-3.37,1.66-7.41,1.62-11.16,0-3,.85-3.78,3.77-3.72,7.46.16,7.47,0,7.47,7.35,0,7.74-.07,15.49,0,23.23,0,2.09-.51,2.87-2.69,2.74C459.74,263.85,456.36,263.93,453,263.89Z" transform="translate(-92.99 -138.3)"/><path class="cls-8" d="M167.33,165.6v1.5c0,11.14,0,11.1-11.33,9.91-1.63-.17-2.14-.77-2.13-2.3,0-5.86-.16-11.72.1-17.57.22-4.84,3.07-7.4,7.28-7.18,4,.21,6,2.78,6.08,7.79C167.35,160.36,167.33,163,167.33,165.6Z" transform="translate(-92.99 -138.3)"/><path class="cls-9" d="M117.77,381.37q0-17.62,0-35.24c0-5.5,1.9-7.51,7.38-7.52q35.63-.06,71.23,0c5.51,0,7.37,2,7.38,7.56q0,35.43,0,70.86c0,5.51-2,7.46-7.43,7.46H125.1c-5.41,0-7.32-2-7.33-7.5Q117.76,399.17,117.77,381.37Zm74.53.77c0-9.62-.1-19.23.06-28.85,0-2.68-.81-3.31-3.38-3.3q-28.29.15-56.57,0c-2.51,0-3.42.53-3.4,3.26q.18,28.47,0,56.94c0,2.52.78,3.09,3.17,3.07q28.47-.13,56.94,0c2.75,0,3.27-.93,3.23-3.42C192.22,400.62,192.3,391.38,192.3,382.14Z" transform="translate(-92.99 -138.3)"/><path class="cls-2" d="M384.73,338.6c3.62,0,7.24-.08,10.86,0,5,.13,7,2.13,7,7.19q.09,11.06,0,22.1c-.05,4.69-2.25,6.92-6.87,7-7.62.07-15.24.08-22.85,0-4.29-.05-6.47-2.16-6.55-6.47-.13-7.74-.12-15.48,0-23.22.07-4.44,2-6.39,6.45-6.54C376.74,338.49,380.73,338.6,384.73,338.6Zm6.54,18.18c0-6.8,0-6.8-6.54-6.8-7.1,0-7.1,0-7.1,7,0,6.62,0,6.62,6.7,6.62C391.27,363.57,391.27,363.57,391.27,356.78Z" transform="translate(-92.99 -138.3)"/><path class="cls-10" d="M384.14,325c-3.74,0-7.49.07-11.23,0-4.52-.1-6.52-1.9-6.59-6.32q-.21-11.79,0-23.59c.08-4.05,2.34-6.2,6.37-6.25,7.86-.1,15.73-.11,23.59,0,3.78.05,6.17,2.28,6.24,6,.16,8.11.17,16.23,0,24.34-.08,3.74-2.22,5.63-6,5.75-4.12.14-8.24,0-12.36,0Zm.17-11.35c7,0,7,0,7-7,0-6.56,0-6.56-6.7-6.56-7,0-7,0-7,7C377.62,313.69,377.62,313.69,384.31,313.69Z" transform="translate(-92.99 -138.3)"/><path class="cls-10" d="M303,356.77c0,3.87,0,7.74,0,11.61-.06,4.15-2,6.39-6.08,6.46q-12,.21-24,0c-4-.08-6-2.36-6-6.54q-.06-11.61,0-23.22c0-4.16,1.94-6.33,6.08-6.41q12-.23,24,0c4.12.08,5.94,2.26,6,6.49C303.06,349,303,352.9,303,356.77ZM285.27,350c-7,0-7,0-7,6.87v.37c0,6.34,0,6.34,6.49,6.34,7,0,7,0,7-6.92C291.76,350,291.76,350,285.27,350Z" transform="translate(-92.99 -138.3)"/><path class="cls-10" d="M217.29,356.52c0-3.87-.07-7.74,0-11.6.09-4.1,1.83-6.15,5.84-6.23q12.16-.27,24.33,0c3.85.08,5.9,2.34,5.94,6.25q.15,11.79,0,23.59c0,4-2.3,6.26-6.33,6.32q-11.79.16-23.59,0c-4.15-.07-6.1-2.17-6.19-6.34C217.23,364.51,217.29,360.52,217.29,356.52ZM235.82,350c-7.19,0-7.19,0-7.19,7.07v.37c0,6.16,0,6.16,6.31,6.16,7.24,0,7.24,0,7.24-7.12C242.18,350,242.18,350,235.82,350Z" transform="translate(-92.99 -138.3)"/><path class="cls-10" d="M352.7,356.64c0,4,.08,8,0,12s-2,6.13-5.93,6.2q-12,.23-24,0c-4-.07-6.16-2.4-6.21-6.43q-.12-11.61,0-23.22c0-4.14,2-6.43,6.06-6.51,8.11-.16,16.23-.17,24.34,0,3.85.08,5.59,2.09,5.7,6S352.7,352.65,352.7,356.64ZM334.75,350c-6.93,0-6.93,0-6.93,7v.37c0,6.19,0,6.19,6.32,6.19,7.25,0,7.25,0,7.25-7.09C341.39,350,341.39,350,334.75,350Z" transform="translate(-92.99 -138.3)"/><path class="cls-10" d="M416.11,356.52c0-4,0-8,0-12,0-3.62,2-5.74,5.46-5.81q12.54-.25,25.08,0c3.52.07,5.48,2.37,5.53,5.84q.17,12.17,0,24.34a5.62,5.62,0,0,1-5.92,5.92c-8.12.14-16.23.16-24.34,0-3.87-.08-5.74-2.31-5.81-6.32S416.11,360.51,416.11,356.52ZM434,350c-6.59,0-6.59,0-6.59,6.55,0,7.05,0,7.05,6.9,7.05,6.63,0,6.63,0,6.63-6.6C441,350,441,350,434,350Z" transform="translate(-92.99 -138.3)"/><path class="cls-10" d="M185.58,474.1c-4,0-8,0-12,0-3.76-.06-6-1.88-6.06-5.63q-.3-12.36,0-24.72c.09-3.65,2.42-5.66,6.11-5.7q12-.12,24,0c3.78,0,6,2.21,6.1,6.11.15,8,.17,16,0,24-.09,4.14-2.26,5.92-6.51,6C193.32,474.13,189.45,474.1,185.58,474.1ZM192.43,456c0-6.75,0-6.75-6.87-6.75s-6.8,0-6.8,6.82,0,6.76,6.87,6.76S192.43,462.84,192.43,456Z" transform="translate(-92.99 -138.3)"/><path class="cls-10" d="M384.33,424.5c-3.75,0-7.5,0-11.24,0-4.41,0-6.68-1.94-6.76-6.18q-.22-12,0-24c.09-4,2.17-5.87,6.17-5.91q11.81-.1,23.6,0c4.19,0,6.35,2,6.43,6.1.16,7.86.14,15.73,0,23.59-.07,4.27-2.35,6.32-6.61,6.38C392.07,424.54,388.2,424.5,384.33,424.5Zm6.95-18c0-6.81,0-6.81-6.79-6.81s-6.87,0-6.87,6.72,0,6.82,6.78,6.82S391.28,413.24,391.28,406.51Z" transform="translate(-92.99 -138.3)"/><path class="cls-11" d="M148.48,474.17q-11.79,0-23.59-.08c-5.1,0-7.08-1.92-7.11-6.89,0-7.48,0-15,0-22.46,0-4.53,2.13-6.68,6.61-6.72,7.73,0,15.47-.06,23.21,0,4.12,0,6.22,2.12,6.25,6.21.07,7.87,0,15.73,0,23.59,0,3.33-1.4,5.44-4.63,6.29Zm-5.89-17.84c0-7.07,0-7.07-7.23-7.07-6.32,0-6.32,0-6.32,6.51,0,7.07,0,7.07,6.88,7.07C142.59,462.84,142.59,462.84,142.59,456.33Z" transform="translate(-92.99 -138.3)"/><path class="cls-11" d="M347.23,474.18c-8,0-16,0-24-.1-4.59,0-6.66-2-6.7-6.55q-.1-11.41,0-22.84c0-4.49,2.21-6.63,6.69-6.67q11.42-.07,22.83,0c4.53,0,6.56,2.07,6.59,6.66.06,7.61,0,15.22,0,22.83,0,3.41-1.21,5.78-4.7,6.61Zm-5.84-18c0-6.88,0-6.88-7.05-6.88-6.52,0-6.52,0-6.52,6.7,0,6.88,0,6.88,6.72,6.88S341.39,462.84,341.39,456.14Z" transform="translate(-92.99 -138.3)"/><path class="cls-11" d="M352.69,406.27c0,4.12.09,8.24,0,12.35-.1,3.68-2.2,5.8-5.85,5.84q-12.17.14-24.34,0c-3.58,0-5.82-2.25-5.87-5.91q-.19-12.17,0-24.34c.07-3.67,2.27-5.73,6-5.76q12.17-.13,24.33,0c3.73,0,5.67,2,5.77,5.84C352.78,398.28,352.69,402.28,352.69,406.27Zm-18,7c6.7,0,6.7,0,6.7-6.84s0-6.7-6.83-6.7-6.74,0-6.74,6.82S327.82,413.24,334.69,413.24Z" transform="translate(-92.99 -138.3)"/><path class="cls-1" d="M416.12,307.06c0-4-.07-8,0-12s2-6.13,5.93-6.2q12-.21,24,0c4,.06,6.15,2.38,6.18,6.44q.12,11.79,0,23.58c-.05,3.89-2.13,6-6,6.09-8.11.11-16.23.12-24.34,0-3.81-.07-5.6-2.06-5.68-5.92S416.12,311.05,416.12,307.06Zm24.84.09c0-7,0-7-6.93-7-6.6,0-6.6,0-6.6,6.59,0,7,0,7,6.9,7C441,313.68,441,313.68,441,307.15Z" transform="translate(-92.99 -138.3)"/><path class="cls-11" d="M222,474.12c-3.49-.83-4.73-3.19-4.7-6.6.06-7.61,0-15.23,0-22.84,0-4.59,2.06-6.63,6.58-6.66q11.41-.07,22.84,0c4.47,0,6.65,2.18,6.69,6.67q.1,11.42,0,22.84c-.05,4.54-2.12,6.52-6.7,6.55-8,.06-16,.07-24,.1Zm13.19-11.28c7,0,7,0,7-6.95,0-6.63,0-6.63-6.58-6.63-7,0-7,0-7,6.95C228.63,462.84,228.63,462.84,235.17,462.84Z" transform="translate(-92.99 -138.3)"/><path class="cls-11" d="M303,307.19c0,4,.06,8,0,12-.08,3.54-2,5.7-5.48,5.76q-12.52.22-25.08,0c-3.49-.07-5.4-2.25-5.44-5.8q-.11-12.17,0-24.34c0-3.6,2.14-5.84,5.84-5.9q12.16-.22,24.34,0c3.83.08,5.76,2.37,5.82,6.32S303,303.19,303,307.19Zm-18.37,6.5c7.11,0,7.11,0,7.11-7.16,0-6.41,0-6.41-6.41-6.41-7.11,0-7.11,0-7.11,7.2C278.24,313.69,278.24,313.69,284.65,313.69Z" transform="translate(-92.99 -138.3)"/><path class="cls-11" d="M235.42,388.41c3.87,0,7.74-.05,11.6,0,4.16.07,6.34,2,6.39,6.11q.17,11.81,0,23.59c-.06,4.23-2.31,6.32-6.6,6.35q-11.61.06-23.22,0c-4.12,0-6.23-2.07-6.27-6.19q-.14-12,0-24c0-3.93,2.09-5.83,6.1-5.9S231.42,388.41,235.42,388.41Zm-6.79,18c0,6.85,0,6.85,6.68,6.85,6.87,0,6.87,0,6.87-6.7s0-6.84-6.72-6.84S228.63,399.7,228.63,406.39Z" transform="translate(-92.99 -138.3)"/><path class="cls-11" d="M297.73,474.17c-8,0-16,0-24-.08-4.86,0-6.77-1.92-6.79-6.76,0-7.61,0-15.22,0-22.84,0-4.33,2.06-6.42,6.4-6.46q11.61-.11,23.21,0c4.34,0,6.38,2.12,6.41,6.45.05,7.74,0,15.48,0,23.21,0,3.34-1.39,5.44-4.53,6.42Zm-6-17.87c0-7,0-7-6.88-7-6.64,0-6.64,0-6.64,6.54,0,7,0,7,6.88,7C291.76,462.84,291.76,462.84,291.76,456.3Z" transform="translate(-92.99 -138.3)"/><path class="cls-11" d="M416.12,406.34c0-3.87-.05-7.74,0-11.61.07-4.23,2-6.26,6.08-6.3q12-.1,24,0c3.87,0,6,2.14,6,6.08q.14,12,0,24c-.05,3.82-2.32,5.95-6.17,6-7.86.07-15.73.06-23.59,0-4.16,0-6.21-2.06-6.3-6.16S416.12,410.33,416.12,406.34Zm18.05,6.9c6.79,0,6.79,0,6.79-6.76s0-6.78-6.76-6.78-6.77,0-6.77,6.75S427.43,413.24,434.17,413.24Z" transform="translate(-92.99 -138.3)"/><path class="cls-1" d="M253.45,307.23c0,3.86.08,7.74,0,11.6s-2.12,6.09-6,6.14q-12.17.18-24.34,0c-3.85-.06-5.7-2-5.75-5.86q-.15-12,0-24c0-4.12,2.1-6.22,6.24-6.28q11.79-.17,23.58,0c4,.06,6.17,2.37,6.27,6.38S253.45,303.23,253.45,307.23Zm-11.27-.13c0-7,0-7-7-7-6.56,0-6.56,0-6.56,6.64,0,6.94,0,6.94,6.94,6.94C242.18,313.69,242.18,313.69,242.18,307.1Z" transform="translate(-92.99 -138.3)"/><path class="cls-1" d="M352.69,307.11c0,4,.09,8,0,12s-1.91,5.81-5.75,5.87q-12.15.21-24.33,0c-3.89-.05-6-2.2-6-6.12q-.15-11.79,0-23.59c.05-4,2.27-6.33,6.25-6.39,7.86-.12,15.72-.11,23.58,0,4.15.06,6.17,2.14,6.27,6.27S352.7,303.11,352.69,307.11Zm-11.29.06c0-7.06,0-7.06-6.9-7.06-6.68,0-6.68,0-6.68,6.57,0,7,0,7,6.94,7C341.4,313.69,341.4,313.69,341.4,307.17Z" transform="translate(-92.99 -138.3)"/><path class="cls-11" d="M303,406.61c0,4,.07,8,0,12-.09,3.66-2.17,5.83-5.83,5.87q-12.17.14-24.34,0c-3.66,0-5.79-2.21-5.83-5.87q-.11-12.16,0-24.33c0-3.68,2.13-5.78,5.83-5.82q12.18-.12,24.34,0c3.71,0,5.75,2.13,5.83,5.82C303.09,398.37,303,402.49,303,406.61Zm-17.7-6.91c-7.08,0-7.08,0-7.08,7.2,0,6.34,0,6.34,6.44,6.34,7.08,0,7.08,0,7.08-7.21C291.76,399.7,291.76,399.7,285.32,399.7Z" transform="translate(-92.99 -138.3)"/><path class="cls-12" d="M148.48,474.17l.79-.05C149,474.48,148.77,474.58,148.48,474.17Z" transform="translate(-92.99 -138.3)"/><path class="cls-12" d="M222,474.12l.79.06C222.48,474.59,222.22,474.48,222,474.12Z" transform="translate(-92.99 -138.3)"/><path class="cls-12" d="M297.73,474.17l.79-.06C298.28,474.46,298,474.56,297.73,474.17Z" transform="translate(-92.99 -138.3)"/><path class="cls-12" d="M347.23,474.18l.79-.06C347.78,474.48,347.52,474.59,347.23,474.18Z" transform="translate(-92.99 -138.3)"/><path class="cls-13" d="M391.27,356.78c0,6.79,0,6.79-6.94,6.79-6.7,0-6.7,0-6.7-6.62,0-7,0-7,7.1-7C391.27,350,391.27,350,391.27,356.78Z" transform="translate(-92.99 -138.3)"/><path class="cls-13" d="M384.31,313.69c-6.69,0-6.69,0-6.69-6.54,0-7,0-7,7-7,6.7,0,6.7,0,6.7,6.56C391.28,313.69,391.28,313.69,384.31,313.69Z" transform="translate(-92.99 -138.3)"/><path class="cls-14" d="M285.27,350c6.49,0,6.49,0,6.49,6.66,0,6.92,0,6.92-7,6.92-6.49,0-6.49,0-6.49-6.34v-.37C278.24,350,278.24,350,285.27,350Z" transform="translate(-92.99 -138.3)"/><path class="cls-13" d="M235.82,350c6.36,0,6.36,0,6.36,6.48,0,7.12,0,7.12-7.24,7.12-6.31,0-6.31,0-6.31-6.16v-.37C228.63,350,228.63,350,235.82,350Z" transform="translate(-92.99 -138.3)"/><path class="cls-13" d="M334.75,350c6.64,0,6.64,0,6.64,6.51,0,7.09,0,7.09-7.25,7.09-6.32,0-6.32,0-6.32-6.19V357C327.82,350,327.82,350,334.75,350Z" transform="translate(-92.99 -138.3)"/><path class="cls-13" d="M434,350c6.94,0,6.94,0,6.94,7,0,6.6,0,6.6-6.63,6.6-6.9,0-6.9,0-6.9-7.05C427.43,350,427.43,350,434,350Z" transform="translate(-92.99 -138.3)"/><path class="cls-13" d="M192.43,456c0,6.83,0,6.83-6.8,6.83s-6.87,0-6.87-6.76,0-6.82,6.8-6.82S192.43,449.26,192.43,456Z" transform="translate(-92.99 -138.3)"/><path class="cls-13" d="M391.28,406.51c0,6.73,0,6.73-6.88,6.73s-6.78,0-6.78-6.82,0-6.72,6.87-6.72S391.28,399.7,391.28,406.51Z" transform="translate(-92.99 -138.3)"/><path class="cls-14" d="M142.59,456.33c0,6.51,0,6.51-6.67,6.51-6.88,0-6.88,0-6.88-7.07,0-6.51,0-6.51,6.32-6.51C142.59,449.26,142.59,449.26,142.59,456.33Z" transform="translate(-92.99 -138.3)"/><path class="cls-14" d="M341.39,456.14c0,6.7,0,6.7-6.85,6.7s-6.72,0-6.72-6.88c0-6.7,0-6.7,6.52-6.7C341.39,449.26,341.39,449.26,341.39,456.14Z" transform="translate(-92.99 -138.3)"/><path class="cls-14" d="M334.69,413.24c-6.87,0-6.87,0-6.87-6.72s0-6.82,6.74-6.82,6.83,0,6.83,6.7S341.39,413.24,334.69,413.24Z" transform="translate(-92.99 -138.3)"/><path class="cls-14" d="M441,307.15c0,6.53,0,6.53-6.63,6.53-6.9,0-6.9,0-6.9-7,0-6.59,0-6.59,6.6-6.59C441,300.12,441,300.12,441,307.15Z" transform="translate(-92.99 -138.3)"/><path class="cls-14" d="M235.17,462.84c-6.54,0-6.54,0-6.54-6.63,0-6.95,0-6.95,7-6.95,6.58,0,6.58,0,6.58,6.63C242.18,462.84,242.18,462.84,235.17,462.84Z" transform="translate(-92.99 -138.3)"/><path class="cls-14" d="M284.65,313.69c-6.41,0-6.41,0-6.41-6.37,0-7.2,0-7.2,7.11-7.2,6.41,0,6.41,0,6.41,6.41C291.76,313.69,291.76,313.69,284.65,313.69Z" transform="translate(-92.99 -138.3)"/><path class="cls-14" d="M228.63,406.39c0-6.69,0-6.69,6.83-6.69s6.72,0,6.72,6.84,0,6.7-6.87,6.7C228.63,413.24,228.63,413.24,228.63,406.39Z" transform="translate(-92.99 -138.3)"/><path class="cls-14" d="M291.76,456.3c0,6.54,0,6.54-6.64,6.54-6.88,0-6.88,0-6.88-7,0-6.54,0-6.54,6.64-6.54C291.76,449.26,291.76,449.26,291.76,456.3Z" transform="translate(-92.99 -138.3)"/><path class="cls-14" d="M434.17,413.24c-6.74,0-6.74,0-6.74-6.79s0-6.75,6.77-6.75,6.76,0,6.76,6.78S441,413.24,434.17,413.24Z" transform="translate(-92.99 -138.3)"/><path class="cls-13" d="M242.18,307.1c0,6.59,0,6.59-6.61,6.59-6.94,0-6.94,0-6.94-6.94,0-6.64,0-6.64,6.56-6.64C242.18,300.11,242.18,300.11,242.18,307.1Z" transform="translate(-92.99 -138.3)"/><path class="cls-13" d="M341.4,307.17c0,6.52,0,6.52-6.64,6.52-6.94,0-6.94,0-6.94-7,0-6.57,0-6.57,6.68-6.57C341.4,300.11,341.4,300.11,341.4,307.17Z" transform="translate(-92.99 -138.3)"/><path class="cls-14" d="M285.32,399.7c6.44,0,6.44,0,6.44,6.33,0,7.21,0,7.21-7.08,7.21-6.44,0-6.44,0-6.44-6.34C278.24,399.7,278.24,399.7,285.32,399.7Z" transform="translate(-92.99 -138.3)"/><path class="cls-15" d="M192.3,382.14c0-9.62-.1-19.23.06-28.85,0-2.68-.81-3.31-3.38-3.3q-28.29.15-56.57,0c-2.51,0-3.42.53-3.4,3.26q.18,28.47,0,56.94c0,2.52.78,3.09,3.17,3.07q28.47-.13,56.94,0c2.75,0,3.27-.93,3.23-3.42C192.22,400.62,192.3,391.38,192.3,382.14Z" transform="translate(-92.99 -138.3)"/><path class="cls-16" d="M186.65,362.09a4.49,4.49,0,0,0-6.36,0l-27.57,27.56L140,377a4.5,4.5,0,0,0-6.36,6.37l15.83,15.83a4.48,4.48,0,0,0,3.18,1.32h.09a4.48,4.48,0,0,0,3.18-1.32l30.7-30.7A4.49,4.49,0,0,0,186.65,362.09Z" transform="translate(-92.99 -138.3)"/></svg>