<svg id="Layer_1" data-name="Layer 1" xmlns="http://www.w3.org/2000/svg" viewBox="0 0 382 390.55"><title>Calendar </title><path d="M182.31,182.31c7.6,3.32,10.1,9.17,10,17.31-.32,23.74-.11,47.49-.12,71.23,0,10.34-5,15.37-15.42,15.44q-9.9.07-19.81,0c-10.57-.05-15.64-5.12-15.65-15.68,0-23.36.18-46.73-.11-70.09-.11-8.21,2-14.62,9.85-18.21Z" transform="translate(-82.09 -182.31)"/><path d="M394.38,182.31c7.76,3.44,10,9.6,9.93,17.77-.31,23.48-.1,47-.12,70.47,0,10.6-5,15.68-15.56,15.74-6.86,0-13.72.09-20.58,0-9.55-.14-14.76-5.43-14.77-15,0-23.74.19-47.49-.12-71.23-.11-8.18,2.18-14.32,9.94-17.75Z" transform="translate(-82.09 -182.31)"/><path d="M218.14,225.83H328v4.3c0,13.73,0,27.45,0,41.18.07,20.09,12.25,35.24,31.83,39.47a42.06,42.06,0,0,0,8.33.64c7.24.08,14.49.06,21.74,0,23.52-.14,39.91-16.51,40.06-40.1.09-13.72,0-27.45,0-41.18V226.1c16.36-.36,32.56,14.42,33.67,30.33.24,3.55.37,7.11.37,10.67q0,133.47,0,266.94c0,7.19-.77,14.15-4.48,20.55-6.56,11.32-16.35,17.36-29.36,18.23-.89.06-1.78,0-2.67,0H118.69c-17.77,0-31-10-35.46-27a44,44,0,0,1-1.09-11q-.08-135.75,0-271.51c0-18.32,9-31,25.67-36.18a84.47,84.47,0,0,1,8.37-1.68c0,1.95,0,3.43,0,4.91.14,15.75-.28,31.54.59,47.26,1,17.51,17.7,33,35.2,33.59,9,.29,18.05.26,27.07.12,22.44-.35,39-17.09,39.11-39.61.1-13.85,0-27.71,0-41.57Zm54.95,136.48H144.57c-11.9,0-17.76,5.85-17.77,17.81q0,68.83,0,137.67c0,11.9,5.92,17.73,17.87,17.73H400.94c11.87,0,17.79-5.92,17.79-17.82q0-68.84,0-137.67c0-11.87-5.92-17.72-17.88-17.72Z" transform="translate(-82.09 -182.31)"/><path d="M248.71,413.07c0-4.83-.08-9.66,0-14.49.13-6,3.51-9.51,9.49-9.59q14.86-.19,29.73,0c6,.08,9.41,3.59,9.48,9.6.11,9.65.08,19.31,0,29-.05,6.33-3.48,10-9.88,10.12q-14.47.29-29,0c-6.51-.13-9.82-3.85-9.88-10.5C248.68,422.47,248.71,417.77,248.71,413.07Z" transform="translate(-82.09 -182.31)"/><path d="M195.76,514.89c-4.71,0-9.41,0-14.11,0-6.56-.06-10.06-3.24-10.16-9.67q-.24-14.67,0-29.35c.1-6.19,3.61-9.6,9.83-9.68,9.53-.12,19.06-.1,28.59,0,6.39.06,10.1,3.38,10.27,9.74q.39,14.67,0,29.35c-.18,6.42-3.84,9.56-10.32,9.62C205.16,514.92,200.46,514.89,195.76,514.89Z" transform="translate(-82.09 -182.31)"/><path d="M272.92,514.89c-4.7,0-9.4,0-14.1,0-6.47-.08-10-3.46-10.08-9.81q-.15-14.47,0-29c0-6.13,3.56-9.82,9.66-9.92q14.67-.22,29.35,0c6.11.09,9.64,3.76,9.69,9.88q.15,14.48,0,29c-.06,6.38-3.59,9.77-10,9.85C282.58,514.93,277.75,514.89,272.92,514.89Z" transform="translate(-82.09 -182.31)"/><path d="M374.73,490.87c0,4.83.13,9.66,0,14.48-.21,6.24-3.62,9.48-9.92,9.52q-14.29.11-28.59,0c-6.41,0-10-3.29-10.19-9.75-.24-9.66-.22-19.32,0-29,.15-6.57,3.83-9.93,10.43-10q14.1-.12,28.21,0c6.45.07,9.81,3.44,10.11,9.83,0,.25,0,.51,0,.76q0,7,0,14.11Z" transform="translate(-82.09 -182.31)"/><path d="M171.44,413.13c0-4.7-.09-9.4,0-14.1.16-6.74,3.44-10,10.17-10.07q14.1-.12,28.21,0c6.68.05,10.23,3.33,10.37,10q.3,14.29,0,28.6c-.13,6.58-3.7,10.06-10.27,10.16q-14.1.21-28.21,0c-6.83-.09-10.15-3.55-10.28-10.46C171.36,422.54,171.44,417.84,171.44,413.13Z" transform="translate(-82.09 -182.31)"/><path d="M350.9,389c4.83,0,9.66-.12,14.49,0,5.68.17,9.13,3.35,9.25,9q.3,15.24,0,30.5c-.11,5.7-3.56,9.07-9.5,9.2q-14.67.33-29.36,0c-6-.13-9.57-3.42-9.75-9.46-.29-10-.32-20.08,0-30.11.21-6.07,3.82-9,10-9.14,5-.09,9.91,0,14.87,0Z" transform="translate(-82.09 -182.31)"/></svg>