<svg id="Layer_1" data-name="Layer 1" xmlns="http://www.w3.org/2000/svg" viewBox="0 0 384.11 383.97"><defs><style>.cls-1{fill:#050504;}.cls-2{fill:#bfdea7;}</style></defs><title>call</title><path class="cls-1" d="M802.66,696c4.65-1.84,8.79-4.61,13.05-7.15,9.91-5.9,21.11-3.45,26.72,5.86s2.64,20.23-7.24,26.38a195.39,195.39,0,0,1-81.06,28.08c-1.88.22-3.92-.49-5.63.86H717c-3.46-1.45-7.21-1.15-10.81-1.7-26.28-4-51-12.63-73.46-26.84C583,690,553.45,645.14,543.66,587.15c-.75-4.46-.5-9.09-2.16-13.4v-33c1.77-3.88,1.49-8.15,2.11-12.22A191.74,191.74,0,0,1,692.53,370.46c98-21,193.87,34.55,224.29,130.12,8.1,25.43,10.35,51.49,7.79,78-1.07,11-10.19,18.6-20.76,17.6-10.35-1-17.69-10.14-16.74-21,4.43-50.27-10.92-93.37-47-128.83a138.7,138.7,0,0,0-37.52-26.26c-1.09-.59-2.15-1.25-3.26-1.77-30.78-14.45-62.9-18.47-96.19-11.72-35,7.1-64.61,24-87.42,51.58-31.22,37.7-42.9,81-33.66,129.26,8,41.72,29.88,74.94,65.13,98.68,35.45,23.88,74.54,31.51,116.57,23.39C777.39,706.88,790.48,702.69,802.66,696Z" transform="translate(-541.5 -366.03)"/><path class="cls-2" d="M802.66,696c-12.18,6.72-25.27,10.91-38.86,13.54-42,8.12-81.12.49-116.57-23.39-35.25-23.74-57.14-57-65.13-98.68-9.24-48.23,2.44-91.56,33.66-129.26,22.81-27.55,52.4-44.48,87.42-51.58,33.29-6.75,65.41-2.73,96.19,11.72,1.11.52,2.17,1.18,3.26,1.77-4.76,4.4-9.8,8.46-14.52,12.91a168.52,168.52,0,0,0-29.24,36.77,171,171,0,0,0-22.94,67.09,190.37,190.37,0,0,0-.22,40.71c-13.19-11.57-24.34-25-35.48-38.48-9-10.92-8.08-24.94.95-34.09,7-7.13,6.24-18.61-.86-25.65-8.19-8.12-20.28-7.15-28.63,2.3-19.71,22.3-20.89,53.84-3,77.75a320.19,320.19,0,0,0,47.85,51.54c11.42,9.8,22.62,20.06,37.2,25.28C758.06,646.37,764.3,655.35,771,664a170.65,170.65,0,0,0,30.43,30.57A10.94,10.94,0,0,1,802.66,696Z" transform="translate(-541.5 -366.03)"/><path class="cls-1" d="M753.73,636.22c-14.58-5.22-25.78-15.48-37.2-25.28a320.19,320.19,0,0,1-47.85-51.54c-17.88-23.91-16.7-55.45,3-77.75,8.35-9.45,20.44-10.42,28.63-2.3,7.1,7,7.89,18.52.86,25.65-9,9.15-9.95,23.17-.95,34.09,11.14,13.5,22.29,26.91,35.48,38.48a200.48,200.48,0,0,0,24.52,20.17c9,6.29,20.37,4.93,29.13-3,11-9.92,27.47-5.51,31.32,8.51a17.67,17.67,0,0,1-5.08,18.49c-16.7,15.83-36.32,20.81-58.63,15.38C755.88,636.85,754.81,636.52,753.73,636.22Z" transform="translate(-541.5 -366.03)"/></svg>