<svg id="Layer_1" data-name="Layer 1" xmlns="http://www.w3.org/2000/svg" viewBox="0 0 384 384"><defs><style>.cls-1{fill:#050404;}.cls-2{fill:#f8b4b6;}.cls-3{fill:#fefefe;}</style></defs><title>Cancel</title><path class="cls-1" d="M750.75,602.25c-1.57,2.12-.84,4.71-1.34,7-2.11,9.81-11.32,16.7-20.83,15.27a18.93,18.93,0,0,1-16.34-21c7.43-63.34-26.61-126.3-83.7-154.8-.45-.22-.93-.36-1.39-.54a18.46,18.46,0,0,0-1.9-1.15c-28.92-13.46-59.09-18.05-90.68-13-31.94,5.15-60,18.46-82.9,41.24-39.24,39.11-54.7,86.42-44.3,141.09,8.41,44.19,32.58,78.29,70.8,101.9,33.26,20.54,69.57,27,108.06,20.25a134.48,134.48,0,0,0,41.47-14c4.85-2,9.2-4.92,13.71-7.54,12.15-7.07,26-.8,28.74,13,1.35,6.86-2,14.52-8.43,18.66-17.62,11.32-36.59,19.83-57,24.32-72.29,15.9-134.82-2.53-186.42-55.53-27.42-28.17-43.16-62.66-49.41-101.48-.66-4.08-.35-8.34-2.13-12.22V568.5c1-.3.71-1.17.77-1.85A169,169,0,0,1,370.78,546C388.53,467,450.51,408.94,530,396.59c4.08-.63,8.33-.36,12.22-2.09H574.5c.2.83.88.71,1.47.73a110.94,110.94,0,0,1,18.89,2.5c42.81,8.66,79,29.08,107.94,61.85,24.94,28.26,40.11,61.22,45.84,98.53.72,4.71.49,9.57,2.11,14.14Z" transform="translate(-366.75 -394.5)"/><path class="cls-2" d="M627.7,724.58a134.48,134.48,0,0,1-41.47,14c-38.49,6.72-74.8.29-108.06-20.25-38.22-23.61-62.39-57.71-70.8-101.9-10.4-54.67,5.06-102,44.3-141.09,22.86-22.78,51-36.09,82.9-41.24,31.59-5.09,61.76-.5,90.68,13a18.46,18.46,0,0,1,1.9,1.15,249.86,249.86,0,0,0-20.7,18.88c-23.09,24.31-37.77,53-44.55,85.75a22,22,0,0,0-.12,3.73l0-.09-.76.76c-1.34,2.73-2.65,2.39-4.64.37-11.84-12-23.82-23.88-35.74-35.82-5.08-5.09-11.2-7.07-18.12-5.38a18.7,18.7,0,0,0-8.84,31.6c11.88,12.14,23.95,24.1,36.07,36,2,2,2,2.93,0,4.91-11.95,11.73-23.71,23.65-35.58,35.46-5.19,5.17-7.3,11.32-5.49,18.41,3.68,14.44,20.95,19.14,31.67,8.61q18.18-17.85,36-36.06c2-2,3.3-2.34,4.65.37l.75.78,0-.1c0,6.58,2.08,12.76,3.89,18.93,9.33,31.81,26.66,58.6,51.2,80.76C620.26,719.16,623.54,722.45,627.7,724.58Z" transform="translate(-366.75 -394.5)"/><path class="cls-1" d="M561.07,615.73c-1.35-2.71-2.66-2.39-4.65-.37q-17.89,18.15-36,36.06c-10.72,10.53-28,5.83-31.67-8.61-1.81-7.09.3-13.24,5.49-18.41,11.87-11.81,23.63-23.73,35.58-35.46,2-2,2-2.94,0-4.91-12.12-11.91-24.19-23.87-36.07-36a18.7,18.7,0,0,1,8.84-31.6c6.92-1.69,13,.29,18.12,5.38,11.92,11.94,23.9,23.82,35.74,35.82,2,2,3.3,2.36,4.64-.37l.76-.76,0,.09c11.78-11.7,23.51-23.46,35.36-35.08,8.13-8,20.18-7.54,27.6.78,6.64,7.44,6.25,18.52-1.17,26Q606.06,566,588.28,583.5c-2.42,2.37-2.44,3.59,0,6Q606.23,607,623.8,625c10.46,10.71,5.59,28.14-8.8,31.62-6.91,1.67-13.07-.21-18.16-5.32q-16.14-16.2-32.32-32.35c-.87-.87-1.82-1.67-2.74-2.5l0,.1Z" transform="translate(-366.75 -394.5)"/><path class="cls-3" d="M561.82,556.49l-.76.76C561.32,557,561.57,556.74,561.82,556.49Z" transform="translate(-366.75 -394.5)"/><path class="cls-3" d="M561.07,615.73l.75.78Z" transform="translate(-366.75 -394.5)"/></svg>