<svg id="Layer_1" data-name="Layer 1" xmlns="http://www.w3.org/2000/svg" viewBox="0 0 95.99 86.21"><title>Caution_risk</title><path d="M536.4,390.29q-20-35.39-40.2-70.66c-3.7-6.48-8.7-6.47-12.41,0q-20.19,35.28-40.2,70.64c-3.59,6.35-.93,10.65,6.46,10.67,13.32,0,26.64,0,40,0s26.63,0,40,0C537.36,401,540,396.66,536.4,390.29ZM486,346.7c0-2.85,1.32-3.77,4-3.75s4.15.72,4.09,3.65c-.08,4.15,0,8.31,0,12.47,0,4-.09,8,0,12,.1,3.1-1.35,4-4.25,4s-3.86-1.18-3.84-3.91Q486.06,358.93,486,346.7Zm4,43.12a5.79,5.79,0,1,1,5.79-5.79A5.79,5.79,0,0,1,490,389.82Z" transform="translate(-442 -314.78)"/></svg>