<svg id="Layer_1" data-name="Layer 1" xmlns="http://www.w3.org/2000/svg" viewBox="0 0 416.44 416.44"><defs><style>.cls-1{fill:#e4f5fa;}.cls-2{fill:#0f1213;}.cls-3{fill:#a2dbf2;}.cls-4{fill:#bbe4f1;}.cls-5{fill:#41424d;}.cls-6{fill:#60616f;}.cls-7{fill:#616270;}.cls-8{fill:#030a08;}.cls-9{fill:#050b0b;}.cls-10{fill:#060b0c;}.cls-11{fill:#37b787;}.cls-12{fill:#6dc082;}</style></defs><title>change phone number</title><rect class="cls-1" width="416.44" height="416.44" rx="23.29"/><path class="cls-2" d="M452.39,591.23c-.84-.88-2.08-.86-3.09-1.34-6.75-3.26-10.32-8.65-10.81-16.11,0-.68,0-1.37,0-2v-261c0-10.07,5.18-17.08,14.19-19.15a18.36,18.36,0,0,1,4.06-.33q71.19,0,142.37,0c10.49,0,18,7.33,18.37,17.88.12,3.71,0,7.42,0,11.13s-.8,4.85-4.52,6.13c-3.85-1.36-4.46-2.23-4.49-6.41,0-3.91.09-7.82-.11-11.71a8.59,8.59,0,0,0-7.75-8.15,38.32,38.32,0,0,0-4.67,0c-5.86,0-11.71,0-17.56-.14-1.74,0-2.1.58-2.07,2.17a58.75,58.75,0,0,1-.25,8.18,10.83,10.83,0,0,1-10.7,9.65q-37.33.11-74.67,0a10.89,10.89,0,0,1-10.83-9.86,51.81,51.81,0,0,1-.21-7.88c.07-1.8-.45-2.31-2.27-2.28-6.54.12-13.08,0-19.62,0-6.85,0-10.3,3.34-10.3,10.15q0,124.59,0,249.18c0,2,.39,2.65,2.51,2.62,7.71-.14,15.42,0,23.13-.08,3,0,4.86,1.1,5.37,4.13-.52,3.8-1.55,4.69-5.53,4.69-7.66,0-15.32,0-23,0-1.78,0-2.52.55-2.29,2.32.13,1-.26,2.16.61,3,1.07,4.28,4.17,6.38,9.48,6.39H581.79c5.75,0,11.51.05,17.26,0a8.93,8.93,0,0,0,9.26-9.16c0-1.86-.47-2.64-2.45-2.56-3.51.14-7,.06-10.53.07q-50,0-100,0c-3.12,0-5-1.14-5.58-4.26,1-3.75,2-4.57,5.89-4.57h77.77c8.48,0,17-.06,25.43-.09,2.54,0,5.07,0,7.61.12,1.45.07,2.22-.27,2-1.9a18.25,18.25,0,0,1,0-2.34V344.61c0-4.79.59-5.7,4.49-7,3.68,1.18,4.52,2.25,4.52,6.09q0,114.43,0,228.87c0,9.32-4.17,14.54-14.49,18.62Zm36.35-285.37c-.11,5.21,0,5.3,5.12,5.3h56.8c4.29,0,8.59-.1,12.88,0,2.83.09,4-1.12,3.72-3.85-.06-.68,0-1.36,0-2,.22-5.26.22-5.26-5.12-5.26h-68C488.44,300,488.44,300,488.74,305.86Z" transform="translate(-319.78 -233.01)"/><path class="cls-3" d="M613,337.65c-3.9,1.26-4.49,2.17-4.49,7v213.1a18.25,18.25,0,0,0,0,2.34c.22,1.63-.55,2-2,1.9-2.54-.12-5.07-.09-7.61-.12q0-124,0-248c0-4.85-.19-9.51-3-13.68a38.32,38.32,0,0,1,4.67,0,8.59,8.59,0,0,1,7.75,8.15c.2,3.89.08,7.8.11,11.71,0,4.18.64,5.05,4.49,6.41Z" transform="translate(-319.78 -233.01)"/><path class="cls-4" d="M595.94,300.13c2.79,4.17,3,8.83,3,13.68q-.09,124,0,248c-8.47,0-17,.09-25.43.09H495.67c-3.88,0-4.93.82-5.89,4.57-3.78-.28-7.61.53-11.36-.47-.51-3-2.4-4.16-5.37-4.13-7.71.07-15.42-.06-23.13.08-2.12,0-2.51-.64-2.51-2.62q.07-124.59,0-249.18c0-6.81,3.45-10.14,10.3-10.15,6.54,0,13.08.07,19.62,0,1.82,0,2.34.48,2.27,2.28a51.81,51.81,0,0,0,.21,7.88A10.89,10.89,0,0,0,490.69,320q37.34.09,74.67,0a10.83,10.83,0,0,0,10.7-9.65,58.75,58.75,0,0,0,.25-8.18c0-1.59.33-2.21,2.07-2.17C584.23,300.13,590.08,300.09,595.94,300.13Zm-38,201.4c6.33-.43,13-1,17.34-7.13a111.38,111.38,0,0,0,7-11.46,8.75,8.75,0,0,0-2.72-11.22q-11.31-7.77-22.82-15.24c-4.48-2.88-9.4-1.76-12.63,2.53a50.79,50.79,0,0,0-3.22,4.52c-1,1.61-1.82,1.69-3.41.73a99.76,99.76,0,0,1-32.71-32.39c-1.22-1.92-1.61-3.31.88-4.5a25.28,25.28,0,0,0,3.81-2.69c4.54-3.4,5.59-8.4,2.52-13.1q-7.26-11.13-14.76-22.09c-2.88-4.22-7.88-5.25-12.37-2.71-2.12,1.2-4.08,2.71-6.27,3.73-10.05,4.72-11.94,13.42-11.29,23.21a55.24,55.24,0,0,0,8.31,24.93,160.37,160.37,0,0,0,51.93,53C536.65,497.44,546.59,501.19,558,501.53Zm-31-121.73c-3.91-.09-6,1.38-6,4.32s1.61,4.25,5.79,4.5a60.56,60.56,0,0,1,13,2c23.71,6.71,39.31,26.79,40.39,52,.14,3.41,1.54,5.06,4.3,5.08s4.57-1.93,4.48-5.27a67.18,67.18,0,0,0-1-9.59C582.73,402.91,557,380.5,526.92,379.8Zm35.22,61.56c-.87-11-5.24-19.7-13.38-26.49A35.68,35.68,0,0,0,526,406.4c-3.13-.07-4.92,1.38-5.1,4s1.21,4.3,4.33,4.78c.67.11,1.35.15,2,.2A28.12,28.12,0,0,1,552,434.53c1.09,3.19,1,6.52,1.63,9.75a4.29,4.29,0,0,0,8.45-.27A17.1,17.1,0,0,0,562.14,441.36Z" transform="translate(-319.78 -233.01)"/><path class="cls-5" d="M595.33,570.76c3.51,0,7,.07,10.53-.07,2-.08,2.46.7,2.45,2.56a8.93,8.93,0,0,1-9.26,9.16c-5.75.07-11.51,0-17.26,0H457.72c-5.31,0-8.41-2.11-9.48-6.39,1.27,0,2.54-.07,3.81-.07q65.43,0,130.87,0a20.66,20.66,0,0,0,7.71-1.29C592.53,573.93,594.74,573.22,595.33,570.76Z" transform="translate(-319.78 -233.01)"/><path class="cls-6" d="M595.33,570.76c-.59,2.46-2.8,3.17-4.7,3.93a20.66,20.66,0,0,1-7.71,1.29q-65.45,0-130.87,0c-1.27,0-2.54,0-3.81.07-.87-.87-.48-2-.61-3-.23-1.77.51-2.34,2.29-2.32,7.65.08,15.31,0,23,0,4,0,5-.89,5.53-4.69,3.75,1,7.58.19,11.36.47.56,3.12,2.46,4.26,5.58,4.26Q545.34,570.7,595.33,570.76Z" transform="translate(-319.78 -233.01)"/><path class="cls-7" d="M488.74,305.86c-.3-5.83-.3-5.83,5.41-5.83h68c5.34,0,5.34,0,5.12,5.26a15.81,15.81,0,0,1-4,.6Q526,305.85,488.74,305.86Z" transform="translate(-319.78 -233.01)"/><path class="cls-5" d="M488.74,305.86q37.25,0,74.48,0a15.81,15.81,0,0,0,4-.6c0,.69,0,1.37,0,2,.24,2.73-.89,3.94-3.72,3.85-4.29-.13-8.59,0-12.88,0h-56.8C488.71,311.16,488.63,311.07,488.74,305.86Z" transform="translate(-319.78 -233.01)"/><path class="cls-8" d="M558,501.53c-11.37-.34-21.31-4.09-30.45-9.93a160.37,160.37,0,0,1-51.93-53,55.24,55.24,0,0,1-8.31-24.93c-.65-9.79,1.24-18.49,11.29-23.21,2.19-1,4.15-2.53,6.27-3.73,4.49-2.54,9.49-1.51,12.37,2.71q7.49,11,14.76,22.09c3.07,4.7,2,9.7-2.52,13.1a25.28,25.28,0,0,1-3.81,2.69c-2.49,1.19-2.1,2.58-.88,4.5a99.76,99.76,0,0,0,32.71,32.39c1.59,1,2.46.88,3.41-.73a50.79,50.79,0,0,1,3.22-4.52c3.23-4.29,8.15-5.41,12.63-2.53q11.53,7.44,22.82,15.24a8.75,8.75,0,0,1,2.72,11.22,111.38,111.38,0,0,1-7,11.46C571,500.55,564.29,501.1,558,501.53ZM479.29,400.67c-3.88,3.76-3.58,8.58-3.17,13.31.63,7.29,3.39,13.93,7,20.17,10.28,17.58,24.26,31.83,40.36,44.08,9.35,7.11,19.37,13.08,31.39,14.27,4.57.45,9.39.79,13-3.16,2.21-2.62,3.5-5.82,5.48-8.57,1.12-1.57.6-2.27-.79-3.17-5.15-3.34-10.24-6.78-15.34-10.19-5.57-3.72-5.57-3.72-9.62,1.77l-.18.23c-3.8,5.07-7.89,5.91-13.48,3-8.26-4.28-15-10.4-21.53-16.91-6.21-6.23-12-12.79-16.16-20.65-3.1-5.84-2.23-9.94,3.16-13.9,1.33-1,2.63-2,4-2.9,1.2-.75,1.26-1.43.48-2.57q-6.69-9.93-13.28-19.94c-.63-.95-1.18-1.41-2.32-.63C485.42,396.94,482.09,398.39,479.29,400.67Z" transform="translate(-319.78 -233.01)"/><path class="cls-9" d="M526.92,379.8c30.1.7,55.81,23.11,60.92,53.06a67.18,67.18,0,0,1,1,9.59c.09,3.34-1.66,5.29-4.48,5.27s-4.16-1.67-4.3-5.08c-1.08-25.25-16.68-45.33-40.39-52a60.56,60.56,0,0,0-13-2c-4.18-.25-5.86-1.48-5.79-4.5S523,379.71,526.92,379.8Z" transform="translate(-319.78 -233.01)"/><path class="cls-10" d="M562.14,441.36a17.1,17.1,0,0,1,0,2.65,4.29,4.29,0,0,1-8.45.27c-.61-3.23-.54-6.56-1.63-9.75a28.12,28.12,0,0,0-24.75-19.18c-.69-.05-1.37-.09-2-.2-3.12-.48-4.52-2-4.33-4.78s2-4,5.1-4a35.68,35.68,0,0,1,22.75,8.47C556.9,421.66,561.27,430.32,562.14,441.36Z" transform="translate(-319.78 -233.01)"/><path class="cls-11" d="M479.29,400.67c2.8-2.28,6.13-3.73,9.09-5.75,1.14-.78,1.69-.32,2.32.63q6.6,10,13.28,19.94c.78,1.14.72,1.82-.48,2.57-1.4.88-2.7,1.92-4,2.9-5.39,4-6.26,8.06-3.16,13.9,4.16,7.86,9.95,14.42,16.16,20.65C519,462,525.74,468.14,534,472.42c5.59,2.9,9.68,2.06,13.48-3l.18-.23c4.05-5.49,4.05-5.49,9.62-1.77,5.1,3.41,10.19,6.85,15.34,10.19,1.39.9,1.91,1.6.79,3.17-2,2.75-3.27,6-5.48,8.57-8.5.29-16.27-2.3-23.75-6-11.35-5.65-20.91-13.75-30-22.34a159.09,159.09,0,0,1-20.74-23.62C485.55,426.35,479.72,414.54,479.29,400.67Z" transform="translate(-319.78 -233.01)"/><path class="cls-12" d="M479.29,400.67c.43,13.87,6.26,25.68,14.1,36.69A159.09,159.09,0,0,0,514.13,461c9.14,8.59,18.7,16.69,30,22.34,7.48,3.72,15.25,6.31,23.75,6-3.63,4-8.45,3.61-13,3.16-12-1.19-22-7.16-31.39-14.27-16.1-12.25-30.08-26.5-40.36-44.08-3.65-6.24-6.41-12.88-7-20.17C475.71,409.25,475.41,404.43,479.29,400.67Z" transform="translate(-319.78 -233.01)"/></svg>