<svg id="Layer_1" data-name="Layer 1" xmlns="http://www.w3.org/2000/svg" viewBox="0 0 384 306.18"><defs><style>.cls-1{fill:#050505;}.cls-2{fill:#f9aa73;}.cls-3{fill:#ea9458;}.cls-4{fill:#dae6f2;}.cls-5{fill:#fff2c0;}.cls-6{fill:#020201;}.cls-7{fill:#0d0d09;}.cls-8{fill:#161610;}.cls-9{fill:#0f0f0a;}.cls-10{fill:#0c0b08;}.cls-11{fill:#fdf0bf;}.cls-12{fill:#fcefbf;}</style></defs><title>closed</title><path class="cls-1" d="M201.75,357.75c1.81-3.47,2.62-7.4,5.06-10.6,5.8-7.63,13.3-11.87,23-11.89q19.68,0,39.35,0a9.1,9.1,0,0,0,5.24-1.47q46-29.64,92.2-59.13c1.7-1.09,2.26-1.95,1.76-4.07-3.55-15.34,5.16-29.09,20.38-32.46,13.89-3.06,27.78,6.34,30.87,21a22.43,22.43,0,0,1-.43,11.47c-.58,1.84-.26,2.8,1.43,3.88q46.61,29.76,93.12,59.69a8,8,0,0,0,4.61,1.07q19.49,0,39,0c14,0,24.77,8.79,27.82,22.46.06.29.41.53.63.79v29.25c-1.32,1.94-2.77,3.68-5.36,3.85-4.57-.87-5.87-2.41-5.89-7.06,0-7,.08-14,0-21a16.81,16.81,0,0,0-13.53-16.6c-3.45-.79-7-.42-10.44-.31-1.25,0-2.5-.12-3.74-.12H232.25c-12.49,0-19.25,6.72-19.25,19.15V512.59c0,13.48,6.46,19.91,20,19.91H546c1.5,0,3-.08,4.49-.12,1.13,0,2.25.12,3.37.12,14.32,0,20.64-6.22,20.64-20.42q0-49.31,0-98.61c0-4.65,1.33-6.2,5.89-7.06,2.59.17,4.05,1.9,5.36,3.85v111c-1.28.74-1,2.19-1.37,3.29a28,28,0,0,1-26.68,19.2q-164,0-327.9,0a28,28,0,0,1-26.69-19.2c-.38-1.09-.08-2.55-1.36-3.29ZM293.58,335H493.4a4,4,0,0,0-.59-.7Q453.5,309.08,414.2,283.8c-1.68-1.08-2.48-.54-3.76.49-10,8-23.11,8.16-33.06.16-1.83-1.48-2.93-1.34-4.71-.19q-24.78,16-49.67,31.92Zm115.17-71.16A15,15,0,1,0,393.87,279,15.12,15.12,0,0,0,408.75,263.88Z" transform="translate(-201.75 -237.58)"/><path class="cls-2" d="M550.49,532.37c-1.49,0-3,.12-4.49.12H233c-13.53,0-20-6.43-20-19.91V365.65c0-12.43,6.76-19.15,19.25-19.15H546.76c1.24,0,2.49.08,3.74.12,2.5,3.47,5.8,6.52,6,11.24-1.25,0-2.49-.11-3.74-.11h-318c-6.76,0-10.5,3.67-10.5,10.32q0,71.43,0,142.86c0,6.5,3.73,10.27,10.16,10.3,7.62,0,15.25,0,22.87,0,5,0,6.66-1.57,7-6.57,4,2.55,8.41.6,12.59,1.23a2.64,2.64,0,0,0,2.51-1.24c.39,5.11,2,6.58,7.39,6.58H552.36c1.37,0,2.74-.07,4.11-.11C556.31,525.85,553,528.9,550.49,532.37Z" transform="translate(-201.75 -237.58)"/><path class="cls-3" d="M556.47,357.87c-.17-4.72-3.47-7.77-6-11.24,3.49-.11,7-.48,10.44.31a16.81,16.81,0,0,1,13.53,16.6c.11,7,0,14,0,21,0,4.65,1.32,6.19,5.89,7.06v14.8c-4.56.86-5.88,2.41-5.89,7.06q0,49.31,0,98.61c0,14.2-6.32,20.46-20.64,20.42-1.12,0-2.24-.08-3.37-.12,2.51-3.47,5.82-6.52,6-11.24,4.86-2.17,6.86-5.8,6.85-11.22q-.18-70.41,0-140.83C563.33,363.67,561.35,360,556.47,357.87Z" transform="translate(-201.75 -237.58)"/><path class="cls-4" d="M408.75,263.88A15,15,0,1,1,393.63,249,15.14,15.14,0,0,1,408.75,263.88Z" transform="translate(-201.75 -237.58)"/><path class="cls-5" d="M279.42,514.67a2.64,2.64,0,0,1-2.51,1.24c-4.18-.63-8.6,1.32-12.59-1.23-.94-3.4-3.19-4.77-6.67-4.71-6.12.11-12.25-.16-18.37.11-3.11.14-3.87-.69-3.86-3.83q.18-66.75,0-133.49c0-3.13.74-3.84,3.85-3.84q154.48.13,309,0c3.14,0,3.84.77,3.83,3.86q-.17,66.38,0,132.74c0,3.84-1,4.57-4.65,4.57q-130.11-.16-260.23-.13C283.5,510,280.5,510.58,279.42,514.67Zm64-75a28.06,28.06,0,0,0,28.12,28,28.15,28.15,0,1,0-.3-56.3A28,28,0,0,0,343.38,439.65ZM493,439q0,9.38,0,18.74c0,7.53,2,9.49,9.64,9.32,3.49-.08,7-.14,10.47-.37,7.42-.5,12.92-4.3,16.74-10.47,5.31-8.6,5.7-18,3-27.39-3.18-11-11.18-16.78-22.7-16.92-3.12,0-6.25,0-9.37,0-5.72,0-7.7,2-7.74,7.61C492.92,426,493,432.52,493,439Zm-62.75,28.62a18.18,18.18,0,0,0,17.36-14.5c1.41-7.44-3.31-14.42-12.36-18.22-3.55-1.49-7.12-2.93-10.7-4.35-1.77-.71-3.73-1.35-3.37-3.76s2.16-3.5,4.46-3.84c4.18-.62,7.82.6,11.28,2.93,3.19,2.15,6.36,1.67,8.26-1,2-2.82,1.39-6-2-8.38-6-4.31-12.77-6.11-20.15-4.71a16.14,16.14,0,0,0-13.32,14.27C409,432.34,412.87,438,419.92,441c4,1.67,8.12,3.12,12.08,4.9,2.26,1,4.86,2.42,4.27,5.41s-3,4.43-6,4.8a15.52,15.52,0,0,1-13-4.3c-3-2.73-6.33-2.67-8.58-.15s-2,5.73,1,8.57C415,465.21,421.44,467.56,430.21,467.63Zm-177-30.3c.14,10,2.78,16.31,7.8,21.6,10.44,11,28.51,11.65,37.87,1.44,2.69-2.93,2.91-6.33.58-8.68s-5.61-2.36-8.55.6c-4.21,4.24-9.22,4.78-14.52,3.2a15.61,15.61,0,0,1-11.55-12.93c-1.21-6.83,1-12.68,6.74-16.73s11.84-4.12,18-.93c4.21,2.17,7.38,1.79,9.13-1.19,1.88-3.21.58-6.58-3.68-8.79-9.44-4.92-19-5-28.14.5S253.25,429.33,253.19,437.33Zm202.06,2.18c0,7.11,0,14.23,0,21.34,0,4.41,2,6.44,6.32,6.48,5.74.06,11.48.05,17.22,0,4.07,0,6.48-2.16,6.45-5.58s-2.45-5.59-6.49-5.69c-3.36-.08-6.74-.15-10.1,0s-2.46-2.32-2-3.5c.86-2.41-2.72-6.08,2-7.31a4.65,4.65,0,0,1,1.12,0c2.62,0,5.25.11,7.87,0,4.13-.24,6.3-2.42,6.18-5.95-.11-3.36-2.26-5.26-6.3-5.39-2.86-.1-5.8.35-8.59-.11-5-.82-1.49-4.89-2.31-7.36-.52-1.55-.78-3.78,2.45-3.51a81,81,0,0,0,10.1,0c3.77-.14,6.07-2.4,6.09-5.7s-2.34-5.51-6.1-5.55q-8.79-.09-17.59,0c-4.33,0-6.28,2.07-6.3,6.5C455.22,425.28,455.25,432.4,455.25,439.51Zm-146.6-.38c0,7.25,0,14.49,0,21.74,0,4.35,1.62,6.45,5.45,6.63,5.36.26,10.74.18,16.1,0,3.39-.1,5.23-2.24,5.47-5.53.21-2.88-2.13-5.33-5.36-5.66a31,31,0,0,0-6.74,0c-3.12.38-3.64-1-3.6-3.75.14-11.12.07-22.24.05-33.37,0-5-1.95-7.68-5.6-7.78-3.81-.1-5.78,2.53-5.79,7.87C308.64,425.88,308.65,432.51,308.65,439.13Z" transform="translate(-201.75 -237.58)"/><path class="cls-6" d="M279.42,514.67c1.08-4.09,4.08-4.71,7.8-4.71q130.11.07,260.23.13c3.67,0,4.67-.73,4.65-4.57q-.24-66.37,0-132.74c0-3.09-.69-3.86-3.83-3.86q-154.49.15-309,0c-3.11,0-3.86.71-3.85,3.84q.18,66.75,0,133.49c0,3.14.75,4,3.86,3.83,6.12-.27,12.25,0,18.37-.11,3.48-.06,5.73,1.31,6.67,4.71-.37,5-2,6.55-7,6.57-7.62,0-15.25,0-22.87,0-6.43,0-10.16-3.8-10.16-10.3q0-71.43,0-142.86c0-6.65,3.74-10.32,10.5-10.32h318c1.25,0,2.49.07,3.74.11,4.88,2.15,6.86,5.8,6.85,11.21q-.18,70.41,0,140.83c0,5.42-2,9.05-6.85,11.22-1.37,0-2.74.11-4.11.11H286.81C281.43,521.25,279.81,519.78,279.42,514.67Z" transform="translate(-201.75 -237.58)"/><path class="cls-7" d="M343.38,439.65a28,28,0,0,1,27.82-28.3,28.15,28.15,0,1,1,.3,56.3A28.06,28.06,0,0,1,343.38,439.65Zm11.31-.13a16.51,16.51,0,0,0,16.85,16.72,16.74,16.74,0,1,0-.05-33.48A16.5,16.5,0,0,0,354.69,439.52Z" transform="translate(-201.75 -237.58)"/><path class="cls-8" d="M493,439c0-6.49,0-13,0-19.48,0-5.65,2-7.57,7.74-7.61,3.12,0,6.25,0,9.37,0,11.52.14,19.52,5.9,22.7,16.92,2.73,9.44,2.34,18.79-3,27.39-3.82,6.17-9.32,10-16.74,10.47-3.48.23-7,.29-10.47.37-7.62.17-9.63-1.79-9.64-9.32Q492.95,448.38,493,439Zm11.45.27h.09c0,4.61,0,9.23,0,13.85,0,1-.33,2.12,1.4,2.49,7.78,1.65,13.84-1.92,16.18-9.61a24.5,24.5,0,0,0,.74-8.51c-.56-10.35-5.1-14.43-15.47-14.25-2.22,0-3.1.58-3,2.93C504.52,430.54,504.41,434.91,504.41,439.28Z" transform="translate(-201.75 -237.58)"/><path class="cls-9" d="M430.21,467.63c-8.77-.07-15.18-2.42-20.5-7.44-3-2.84-3.33-6-1-8.57s5.61-2.58,8.58.15a15.52,15.52,0,0,0,13,4.3c3-.37,5.43-1.84,6-4.8s-2-4.39-4.27-5.41c-4-1.78-8.07-3.23-12.08-4.9-7.05-2.94-10.92-8.62-10.21-14.85A16.14,16.14,0,0,1,423,411.84c7.38-1.4,14.11.4,20.15,4.71,3.35,2.39,4,5.56,2,8.38-1.9,2.63-5.07,3.11-8.26,1-3.46-2.33-7.1-3.55-11.28-2.93-2.3.34-4.09,1.43-4.46,3.84s1.6,3.05,3.37,3.76c3.58,1.42,7.15,2.86,10.7,4.35,9.05,3.8,13.77,10.78,12.36,18.22A18.18,18.18,0,0,1,430.21,467.63Z" transform="translate(-201.75 -237.58)"/><path class="cls-9" d="M253.19,437.33c.06-8,4.53-16.4,13.69-21.91s18.7-5.42,28.14-.5c4.26,2.21,5.56,5.58,3.68,8.79-1.75,3-4.92,3.36-9.13,1.19-6.17-3.19-12.31-3.08-18,.93s-7.95,9.9-6.74,16.73a15.61,15.61,0,0,0,11.55,12.93c5.3,1.58,10.31,1,14.52-3.2,2.94-3,6.12-3,8.55-.6s2.11,5.75-.58,8.68c-9.36,10.21-27.43,9.53-37.87-1.44C256,453.64,253.33,447.35,253.19,437.33Z" transform="translate(-201.75 -237.58)"/><path class="cls-10" d="M455.25,439.51c0-7.11,0-14.23,0-21.34,0-4.43,2-6.46,6.3-6.5q8.79-.09,17.59,0c3.76,0,6.12,2.27,6.1,5.55s-2.32,5.56-6.09,5.7a81,81,0,0,1-10.1,0c-3.23-.27-3,2-2.45,3.51.82,2.47-2.72,6.54,2.31,7.36,2.79.46,5.73,0,8.59.11,4,.13,6.19,2,6.3,5.39.12,3.53-2.05,5.71-6.18,5.95-2.62.15-5.25,0-7.87,0a4.65,4.65,0,0,0-1.12,0c-4.73,1.23-1.15,4.9-2,7.31-.43,1.18-1.18,3.67,2,3.5s6.74-.1,10.1,0c4,.1,6.46,2.28,6.49,5.69s-2.38,5.55-6.45,5.58c-5.74.05-11.48.06-17.22,0-4.34,0-6.3-2.07-6.32-6.48C455.22,453.74,455.25,446.62,455.25,439.51Z" transform="translate(-201.75 -237.58)"/><path class="cls-8" d="M308.65,439.13c0-6.62,0-13.25,0-19.87,0-5.34,2-8,5.79-7.87,3.65.1,5.59,2.75,5.6,7.78,0,11.13.09,22.25-.05,33.37,0,2.78.48,4.13,3.6,3.75a31,31,0,0,1,6.74,0c3.23.33,5.57,2.78,5.36,5.66-.24,3.29-2.08,5.43-5.47,5.53-5.36.15-10.74.23-16.1,0-3.83-.18-5.41-2.28-5.45-6.63C308.6,453.62,308.65,446.38,308.65,439.13Z" transform="translate(-201.75 -237.58)"/><path class="cls-11" d="M354.69,439.52a16.5,16.5,0,0,1,16.8-16.76,16.74,16.74,0,1,1,.05,33.48A16.51,16.51,0,0,1,354.69,439.52Z" transform="translate(-201.75 -237.58)"/><path class="cls-12" d="M504.41,439.28c0-4.37.11-8.74-.05-13.1-.09-2.35.79-2.89,3-2.93,10.37-.18,14.91,3.9,15.47,14.25a24.5,24.5,0,0,1-.74,8.51c-2.34,7.69-8.4,11.26-16.18,9.61-1.73-.37-1.4-1.46-1.4-2.49,0-4.62,0-9.24,0-13.85Z" transform="translate(-201.75 -237.58)"/></svg>