<svg id="Layer_1" data-name="Layer 1" xmlns="http://www.w3.org/2000/svg" viewBox="0 0 349.87 349.87"><defs><style>.cls-1{fill:#e4f5fa;}.cls-2{fill:#a3d39a;}.cls-3{fill:#231533;}.cls-4{fill:#663427;}.cls-5{fill:#221531;}.cls-6{fill:#e8e8ee;}.cls-7{fill:#0a0d0a;}.cls-8{fill:#fef2de;}.cls-9{fill:#79c79d;}.cls-10{fill:#fbe2c1;}</style></defs><title>Coconut</title><rect class="cls-1" width="349.87" height="349.87" rx="23.29"/><path class="cls-2" d="M269,597.25l-4.24-3.44c1.3-2.51.68-4.53-1.48-6.26a24.57,24.57,0,0,1-2.85-2.74c-1.81-2-3.81-2.36-6.1-.89l-3.55-4.09c2-2.15,1.66-4.22,0-6.41a62.26,62.26,0,0,1-5.9-9.48c-13.25-25.46-14.06-51.57-3.25-77.93,9.28-22.63,25.75-38.37,48.24-47.9,1.49-.63,2.21-.79,3,1.13,2.71,6.39,7.64,10.05,14.66,10.57a2.39,2.39,0,0,1,2.4,1.87c3.32,8.37,11.2,12.56,20.11,10.71a2,2,0,0,1,2.51,1c5.88,9.13,16.69,11.27,25.64,5.12a2,2,0,0,1,2.71-.09c7.73,5.22,16.29,4.34,22.86-2.35a2.25,2.25,0,0,1,2.74-.68,16.16,16.16,0,0,0,17.36-4c1.55-1.5,2.28-1.32,3.64,0,27.13,27.06,33.65,66.26,18.34,100.62-13.66,30.66-38.13,47.45-70.83,52.67-9.47,1.51-19.2,1.51-28.36,4.88-8.57,3.15-16.07,1.23-22.84-4.7a60.7,60.7,0,0,0-13.65-9.55,105.36,105.36,0,0,1-15-8.45C273,595.38,271,595.35,269,597.25Zm122.83-3.78a3.56,3.56,0,0,0-1.51-3.24,3.33,3.33,0,0,0-4.18-.18,96.2,96.2,0,0,1-14.92,7.46c-2.75,1-3.69,3-2.79,5.11s2.81,2.84,5.56,1.79a86.7,86.7,0,0,0,15.62-7.82A4.41,4.41,0,0,0,391.86,593.47Z" transform="translate(-126.94 -311.91)"/><path class="cls-3" d="M269,597.25c2-1.9,4-1.87,6.19-.33a105.36,105.36,0,0,0,15,8.45,60.7,60.7,0,0,1,13.65,9.55c6.77,5.93,14.27,7.85,22.84,4.7,9.16-3.37,18.89-3.37,28.36-4.88,32.7-5.22,57.17-22,70.83-52.67,15.31-34.36,8.79-73.56-18.34-100.62-1.36-1.36-2.09-1.54-3.64,0a16.16,16.16,0,0,1-17.36,4,2.25,2.25,0,0,0-2.74.68c-6.57,6.69-15.13,7.57-22.86,2.35a2,2,0,0,0-2.71.09c-9,6.15-19.76,4-25.64-5.12a2,2,0,0,0-2.51-1c-8.91,1.85-16.79-2.34-20.11-10.71a2.39,2.39,0,0,0-2.4-1.87c-7-.52-11.95-4.18-14.66-10.57-.81-1.92-1.53-1.76-3-1.13-22.49,9.53-39,25.27-48.24,47.9-10.81,26.36-10,52.47,3.25,77.93a62.26,62.26,0,0,0,5.9,9.48c1.68,2.19,2,4.26,0,6.41-2.64,1.32-4.46.4-6.07-1.9-13.14-18.81-19.19-39.6-17.66-62.54,3-44.26,33-79.44,76.62-89.73a104.41,104.41,0,0,1,37.53-2,7.44,7.44,0,0,0-1.59-3.29c-4.86-7.59-11.34-13.8-17.41-20.37-1.56-1.69-3.17-3.34-4.68-5.08-1.76-2.05-1.71-4.1,0-5.63s3.8-1.37,5.62.64c6.47,7.15,13.52,13.78,19.34,21.52.42.56.9,1.07,1.59,1.88,1.27-3.91,2.38-7.58,3.66-11.19,2.38-6.67,5-13.24,9.57-18.79,2.81-3.41,4.12-3.55,7.79-1,2.61,1.82,5.23,3.61,7.81,5.46s2.87,3.36,1.45,6.11a45.53,45.53,0,0,0-3.45,8c-.7,2.39-2.21,3.8-4.91,3.42-2.33-1-3.22-2.76-2.52-5.12a25.76,25.76,0,0,1,2.25-5.63c1.62-2.79-1-3.11-2.23-4.11-1.61-1.3-2.26.11-3,1.29a73.48,73.48,0,0,0-6.7,15.81,117.22,117.22,0,0,0-4.27,15.3c-.18,1-.36,2.1,1.07,2.16,2.18.1,4.28,1.88,6.49.38.32-.22.29-1,.39-1.51.41-2,.79-4,1.2-6,.68-3.3,1.77-4.13,5.12-3.89,2.26.78,2.87,2.43,2.41,4.63-.51,2.52-.93,5.06-1.57,7.55-.4,1.58.08,2.1,1.61,2.56,32.4,9.53,55.54,29.72,68.49,60.91,8.14,19.59,8.48,39.89,3.2,60.4-11.12,43.17-47.84,70.93-92.47,73.15-5.17.26-10.09,1.65-15,3.1-4.77,1.4-9.6,2.54-14.59,2.28a22.62,22.62,0,0,1-13.31-5.46c-8.21-6.85-17.42-12-26.78-17-1.63-.86-3.09-2-4.71-2.94C268.57,601.85,267.91,599.88,269,597.25Zm81.81-164.49A96.1,96.1,0,0,0,339,431a92,92,0,0,0-38,3.22c-1.55.48-1.73,1-1.13,2.39a9.87,9.87,0,0,0,10.62,5.73c4.21-.63,5.27.13,5.85,4.23a9.93,9.93,0,0,0,14.76,7.59c3.69-1.9,5.5-1.17,6.73,2.79a10.36,10.36,0,0,0,18.09,3.63c2.76-3.3,4.57-3.27,7.47.09a9.92,9.92,0,0,0,16.38-1.49c2.16-3.62,3.43-3.94,7-1.8a9.42,9.42,0,0,0,10.95-.35c2.66-1.82,2.62-2.13.2-4.11C384.41,441.92,368.65,436.25,350.84,432.76Z" transform="translate(-126.94 -311.91)"/><path class="cls-4" d="M363.85,414.06c-3.35-.24-4.44.59-5.12,3.89-.41,2-.79,4-1.2,6-.1.52-.07,1.29-.39,1.51-2.21,1.5-4.31-.28-6.49-.38-1.43-.06-1.25-1.13-1.07-2.16a117.22,117.22,0,0,1,4.27-15.3,73.48,73.48,0,0,1,6.7-15.81c.72-1.18,1.37-2.59,3-1.29,1.24,1,3.85,1.32,2.23,4.11a25.76,25.76,0,0,0-2.25,5.63c-.7,2.36.19,4.14,2.52,5.12A34.12,34.12,0,0,0,363.85,414.06Z" transform="translate(-126.94 -311.91)"/><path class="cls-3" d="M254.36,583.92c2.29-1.47,4.29-1.14,6.1.89a24.57,24.57,0,0,0,2.85,2.74c2.16,1.73,2.78,3.75,1.48,6.26-2.21,1.74-4.28,1.65-6.26-.41-1.16-1.19-2.39-2.3-3.59-3.45C253,588.11,252.66,586.11,254.36,583.92Z" transform="translate(-126.94 -311.91)"/><path class="cls-5" d="M391.86,593.47a4.41,4.41,0,0,1-2.22,3.12A86.7,86.7,0,0,1,374,604.41c-2.75,1.05-4.63.4-5.56-1.79s0-4.07,2.79-5.11a96.2,96.2,0,0,0,14.92-7.46,3.33,3.33,0,0,1,4.18.18A3.56,3.56,0,0,1,391.86,593.47Z" transform="translate(-126.94 -311.91)"/><path class="cls-6" d="M350.84,432.76c17.81,3.49,33.57,9.16,47,20.15,2.42,2,2.46,2.29-.2,4.11a9.42,9.42,0,0,1-10.95.35c-3.57-2.14-4.84-1.82-7,1.8a9.92,9.92,0,0,1-16.38,1.49c-2.9-3.36-4.71-3.39-7.47-.09a10.36,10.36,0,0,1-18.09-3.63c-1.23-4-3-4.69-6.73-2.79a9.93,9.93,0,0,1-14.76-7.59c-.58-4.1-1.64-4.86-5.85-4.23a9.87,9.87,0,0,1-10.62-5.73c-.6-1.36-.42-1.91,1.13-2.39A92,92,0,0,1,339,431,96.1,96.1,0,0,1,350.84,432.76Z" transform="translate(-126.94 -311.91)"/><path class="cls-7" d="M170.09,591.2c-3.3,0-4.53-1-5.2-4.06a112.51,112.51,0,0,1-2.56-22.39c-.12-10.29-.08-20.58,0-30.87a22.81,22.81,0,0,1,6.79-16.49q24.76-25.09,49.52-50.21a19.6,19.6,0,0,1,14.78-6.07c5,.06,10.08,0,15.47,0-2.69-6.11-5.29-12-7.87-17.86-3.82-8.73-7.69-17.43-11.4-26.21a5.57,5.57,0,0,0-5.87-3.87c-11.62.11-23.24.05-34.86,0-7.22,0-12.49-5.08-12.49-12s5.26-12,12.48-12c12.15,0,24.31-.12,36.46,0,11.6.14,20.07,5.61,25.23,15.95,2.41,4.82,4.34,9.86,6.59,14.75,1.15,2.5.67,4.43-1.51,6-3.13.76-4.58.11-5.9-2.82-2.1-4.67-4-9.42-6.21-14-3.69-7.78-10-11.79-18.56-11.88-11.71-.11-23.42,0-35.12,0-.36,0-.71,0-1.07,0-2.68.12-4.31,1.65-4.28,4s1.67,3.92,4.39,3.93c11.79,0,23.59.06,35.39,0,6,0,10.05,2.65,12.43,8.11q9,20.63,18.09,41.22c3,6.8,3,6.8,10.42,6.58a8.66,8.66,0,0,0,1-.17c-.4-.95-.75-1.83-1.13-2.7-2.31-5.26-4.63-10.5-6.93-15.76-1.41-3.23-1.14-4.36,1.5-6.7,3.42-.42,4.4.1,5.77,3.2,2.93,6.61,5.89,13.21,8.7,19.87.71,1.68,1.51,2.37,3.43,2.32,5.49-.15,11,0,16.49-.06a20.69,20.69,0,0,1,15.31,6.13q16.48,15.86,33,31.64c6.15,5.88,12.28,11.78,18.47,17.62,4.88,4.6,7.65,10.22,7.64,16.91,0,12.23.42,24.46-.31,36.69a109.14,109.14,0,0,1-22.46,60.43c-13,17.19-30.33,27.19-51.55,30.61-1.25.2-2.64-.43-3.74.63H239.33c-3.45-1.32-7.17-1.33-10.71-2.25-19.78-5.15-35.18-16.42-46.64-33.22a107.89,107.89,0,0,1-10.38-18.72c-1.36-3.19-1.12-4.15,1.59-6.37,3.65-.3,4.51.17,5.94,3.45a101.2,101.2,0,0,0,9.55,17.1c14.67,21.21,34.88,32,60.7,32,11.71,0,23.42,0,35.12,0a46.08,46.08,0,0,0,11.8-1.41,20.71,20.71,0,0,0,2.37-.28c15.94-3.79,29.19-11.91,39.35-24.82,14.1-17.91,21.65-38.26,22.2-61.1.18-7.44.08-14.89.1-22.33,0-3,0-6,0-9.37-4,1.7-8,1.58-11.91,2.2a24.14,24.14,0,0,1-4.25,0,43.31,43.31,0,0,1-19.57-8.13,30.18,30.18,0,0,0-35.87,0,44.27,44.27,0,0,1-4,2.61c-9.11,5.57-18.89,6.46-29.12,4.1-5.64-1.3-10.34-4.47-15-7.68-7.09-4.87-14.87-5.68-23.1-4.25-5,.87-9.11,3.7-13.19,6.51-8.94,6.16-18.77,7.81-29.32,5.84-4.53-.84-4.59-.85-4.51,4,.26,15.73-1.15,31.55,2.53,47.11C173.54,588.91,172.06,590.35,170.09,591.2Zm177.3-63a22.75,22.75,0,0,0,11.12-1.72,12.92,12.92,0,0,0-3.39-4.2c-16.44-15.76-33-31.37-49.26-47.34-4.66-4.58-9.66-6.56-16-5.74-18.53,0-37.06,0-55.59-.14a14.27,14.27,0,0,0-10.86,4.58q-22.33,22.82-44.75,45.53c-1.87,1.89-3.69,3.83-5.51,5.77-1.1,1.16-.87,1.78.74,2.24a35.19,35.19,0,0,0,15,.68c6-.89,10.61-4.64,15.52-7.74,9.24-5.82,19.17-6.7,29.59-4.31,5.73,1.31,10.45,4.62,15.2,7.84,7,4.71,14.58,5.45,22.62,4.11,5.24-.87,9.43-3.87,13.66-6.74,9.79-6.64,20.45-7.85,31.7-5.07,5.6,1.39,10.19,4.8,14.92,7.89A24.45,24.45,0,0,0,347.39,528.22Z" transform="translate(-126.94 -311.91)"/><path class="cls-2" d="M170.09,591.2c2-.85,3.45-2.29,2.93-4.47-3.68-15.56-2.27-31.38-2.53-47.11-.08-4.8,0-4.79,4.51-4,10.55,2,20.38.32,29.32-5.84,4.08-2.81,8.15-5.64,13.19-6.51,8.23-1.43,16-.62,23.1,4.25,4.65,3.21,9.35,6.38,15,7.68,10.23,2.36,20,1.47,29.12-4.1a44.27,44.27,0,0,0,4-2.61,30.18,30.18,0,0,1,35.87,0,43.31,43.31,0,0,0,19.57,8.13,24.14,24.14,0,0,0,4.25,0c-.24,11.77.48,23.54-.44,35.32a106.89,106.89,0,0,1-4.51,23.56,105.75,105.75,0,0,1-18.2,34.23,75.29,75.29,0,0,1-18,16.28c-3.55,2.33-7.68,3.59-11,6.31a46.08,46.08,0,0,1-11.8,1.41c-11.7.08-23.41.07-35.12,0-25.82-.07-46-10.81-60.7-32a101.2,101.2,0,0,1-9.55-17.1c-1.43-3.28-2.29-3.75-5.94-3.45Q171.63,596.21,170.09,591.2Z" transform="translate(-126.94 -311.91)"/><path class="cls-2" d="M259.65,435.79c-2.64,2.34-2.91,3.47-1.5,6.7,2.3,5.26,4.62,10.5,6.93,15.76.38.87.73,1.75,1.13,2.7a8.66,8.66,0,0,1-1,.17c-7.43.22-7.43.22-10.42-6.58q-9-20.61-18.09-41.22c-2.38-5.46-6.43-8.14-12.43-8.11-11.8.07-23.6,0-35.39,0-2.72,0-4.37-1.57-4.39-3.93s1.6-3.91,4.28-4c.36,0,.71,0,1.07,0,11.7,0,23.41-.09,35.12,0,8.59.09,14.87,4.1,18.56,11.88,2.19,4.62,4.11,9.37,6.21,14,1.32,2.93,2.77,3.58,5.9,2.82C256.5,429.47,258.33,432.53,259.65,435.79Z" transform="translate(-126.94 -311.91)"/><path class="cls-8" d="M347.39,528.22a24.45,24.45,0,0,1-15.26-4.36c-4.73-3.09-9.32-6.5-14.92-7.89-11.25-2.78-21.91-1.57-31.7,5.07-4.23,2.87-8.42,5.87-13.66,6.74-8,1.34-15.67.6-22.62-4.11-4.75-3.22-9.47-6.53-15.2-7.84-10.42-2.39-20.35-1.51-29.59,4.31-4.91,3.1-9.52,6.85-15.52,7.74a35.19,35.19,0,0,1-15-.68c-1.61-.46-1.84-1.08-.74-2.24,1.82-1.94,3.64-3.88,5.51-5.77q22.37-22.77,44.75-45.53a14.27,14.27,0,0,1,10.86-4.58c18.53.11,37.06.1,55.59.14,5.13,5.87,11.29,10.68,16.69,16.27,2.08,2.16,4.36,4.13,6.54,6.18,10.29,9.68,20.44,19.52,30.53,29.41A11.92,11.92,0,0,1,347.39,528.22Z" transform="translate(-126.94 -311.91)"/><path class="cls-9" d="M296.3,652.34c3.29-2.72,7.42-4,11-6.31a75.29,75.29,0,0,0,18-16.28,105.75,105.75,0,0,0,18.2-34.23A106.89,106.89,0,0,0,348,572c.92-11.78.2-23.55.44-35.32,3.89-.62,7.9-.5,11.91-2.2,0,3.38,0,6.38,0,9.37,0,7.44.08,14.89-.1,22.33-.55,22.84-8.1,43.19-22.2,61.1-10.16,12.91-23.41,21-39.35,24.82A20.71,20.71,0,0,1,296.3,652.34Z" transform="translate(-126.94 -311.91)"/><path class="cls-10" d="M347.39,528.22a11.92,11.92,0,0,0-3.74-7.14c-10.09-9.89-20.24-19.73-30.53-29.41-2.18-2.05-4.46-4-6.54-6.18-5.4-5.59-11.56-10.4-16.69-16.27,6.31-.82,11.31,1.16,16,5.74,16.24,16,32.82,31.58,49.26,47.34a12.92,12.92,0,0,1,3.39,4.2A22.75,22.75,0,0,1,347.39,528.22Z" transform="translate(-126.94 -311.91)"/></svg>