<svg id="Layer_1" data-name="Layer 1" xmlns="http://www.w3.org/2000/svg" viewBox="0 0 288.58 352.08"><defs><style>.cls-1{fill:#556271;}.cls-2{fill:#e4f5fa;}.cls-3{fill:#5a6775;}.cls-4{fill:#b2e2f5;}.cls-5{fill:#dddfe3;}.cls-6{fill:#757f8a;}.cls-7{fill:#fafbfb;}.cls-8{fill:#e67c7c;}.cls-9{fill:#717884;}.cls-10{fill:#b4def1;}.cls-11,.cls-12{fill:none;}.cls-11,.cls-12,.cls-16,.cls-17{stroke:#231f20;stroke-miterlimit:10;stroke-width:2px;}.cls-12{stroke-linecap:round;}.cls-13{fill:#d1d3d4;}.cls-14{fill:#231f20;}.cls-15{fill:#99cc68;}.cls-16{fill:#e87c7c;}.cls-17{fill:#f1f3f4;}</style></defs><title>connect to customer</title><ellipse class="cls-1" cx="80.57" cy="212.97" rx="37.56" ry="2.22"/><path class="cls-2" d="M723.1,366.91c0,70.78-40.35,203.29-77.2,203.29-1.31,0,.52-131.92-2-135.83-2.38-3.69-73.5-1-83.88.38-4.85.63-.35,60.32-2.12,60.39s.52,28.51-.93,28.6c0,0,.42,13,.37,12.88C531.47,491,503,433.93,503,429.1c0-51.1,90.94-184.46,126-184.46C665.87,244.64,723.1,296.14,723.1,366.91Z" transform="translate(-450.77 -244.64)"/><path class="cls-3" d="M514,303.29l1.83-.16c1.65.11,3.32.11,4.95.34,3.85.55,5.51-.84,5.07-4.89a79.54,79.54,0,0,1,0-8.46c0-9.79,0-9.79-9.93-9.12-5.21-.81-10.64.7-15.79-1.42,3.07-1.51,6.33-1.13,9.44-1,6.54.37,13-.46,19.69.79,3.53.66,7-3.82,9.24-7.35,1.12-1.78,1.53-4,2.13-6.08.49-1.66.14-4,3-3.61,2.41.29,4.18,1.6,4.35,4.05a28.33,28.33,0,0,1-.45,7.41c-.52,2.65.15,3.46,2.88,3.62,13.09.78,13.08.86,11.56,14-1.44,12.39-1.44,12.5-13.86,12.38-6.11,0-12.73-1.21-18.21,0a94,94,0,0,1-13.74,1.79c-1.31.1-3.78.93-3.1-2.18Zm29.74-1.77c3.32,0,6.66-.13,10,0s4.8-1.41,5.09-4.64c.38-4.13.91-8.26,1.56-12.36.52-3.24-.67-4.74-3.94-4.71s-6.32-.07-9.48,0c-2.31.06-3.3-.33-2.51-3.1a52.82,52.82,0,0,0,1.33-9.34,1.79,1.79,0,0,0-1.61-2.11c-1.08-.05-1.11,1.08-1.31,1.82-1.2,4.41-2.61,9-7,11-7.81,3.49-8.52,9.73-7.65,16.91a5.79,5.79,0,0,1,0,1.5c-.46,3.51,1.48,4.88,4.6,5C536.44,301.6,540.1,301.53,543.76,301.52Z" transform="translate(-450.77 -244.64)"/><path class="cls-4" d="M515.89,281c9.93-.67,9.93-.67,9.93,9.12a79.54,79.54,0,0,0,0,8.46c.44,4.05-1.22,5.44-5.07,4.89-1.63-.23-3.3-.23-4.95-.34Q515.87,292.06,515.89,281Z" transform="translate(-450.77 -244.64)"/><path class="cls-3" d="M591.05,596.72H524.62v-1.83h66.56Z" transform="translate(-450.77 -244.64)"/><path class="cls-4" d="M548.67,293.54l-1,.18C547.92,293.26,548.25,293.15,548.67,293.54Z" transform="translate(-450.77 -244.64)"/><path class="cls-3" d="M670.55,323.4c-3.32,4.11-.87,8.89-1.52,13.31-.22,1.53-.21,2.93-1.91,3.64a3,3,0,0,1-3.87-1.19c-.09-.12.18-.5.27-.76,1.21-.52,3.1.12,3.35-2a3.2,3.2,0,0,0,0-4v-26a12.85,12.85,0,0,0-.08-9c-1.17-2.08-2.26-.48-3.19.17a49.82,49.82,0,0,1-13.2,6.92c-4.36,1.38-10.76,0-12.8,3.57s-.35,9.43-.8,14.22c-.38,4.1,1.18,5.59,5.11,5.85A37.14,37.14,0,0,1,661,334.86c1.2.84,3.38,1.23,2.63,3.6-.62.64-1.19.25-1.69-.15-7-5.58-15.34-7.56-24.06-8.4-4-.38-8.35,3.45-7.92,7.35.46,4.12.54,8.44,1.93,12.26,1.57,4.3-.33,4.19-3.35,4-2.76-.21-5.53-.29-8.92-.46,2.18-1.87,1.88-3.68,1.14-6a49.44,49.44,0,0,0-8.45-16.43c-1.12-1.37-3.73-.82-4.06-3.19l-.3-1.55c-4.8.29-6.24-2.09-5.58-6.58a36.76,36.76,0,0,0,0-6.88c-.15-3,1.13-4.3,4.1-3.92l.11,1.95c-2.05,1.79-3,11.21-1.17,12.89a6.68,6.68,0,0,0,2.13.88,6,6,0,0,0,.64-1.77c0-4,0-8,0-11.95,0-1.35.09-2.69.13-4,1.18-2.63,3.56-1.91,5.64-2,9.6-.4,19.23.67,28.84-.78a41.59,41.59,0,0,0,19.93-8.4c1.43-1.11,2.75-2.37,4.87-1.14,2,1.13,1.34,2.86,1.39,4.41.09,2.82,0,5.65,0,8.48,0,1.13,0,3,.64,3.28,5.37,2.71,2.25,7.5,3,11.31-1.66,0-2.43-.46-1.86-2.38s1-4-1.77-6.27C669.06,317.13,667.91,320.48,670.55,323.4Zm-36.29-14.06c.56-2-.31-2.73-2.26-2.72q-9.46.06-18.93,0c-1.9,0-2.84.68-2.42,2.68,0,4.8,0,9.61-.15,14.41-.07,2.39.48,3.7,3.27,3.62q8.7-.23,17.4,0c2.76.07,3.36-1.17,3.28-3.6C634.29,319,634.31,314.15,634.26,309.34Zm-11.39,25.21c-.71.9-4.5-2-3.57,1.87,1.1,4.63,3.17,9,4.88,13.52.72,1.87,2.43,1.48,3.85,1.35,2.15-.21,1.38-1.88,1.23-3.06-.42-3.28-1.2-6.54-1.37-9.83S626.64,333.72,622.87,334.55Zm-.2-5.12c-2.49,1-7.16-1.37-7.21,1.48,0,2.49,4.83,1.1,7.46,1.13,2.38,0,6.7,1.52,6.76-1.37C629.72,328.38,625.12,330.3,622.67,329.43Z" transform="translate(-450.77 -244.64)"/><path class="cls-5" d="M670.55,323.4c-2.64-2.92-1.49-6.27-1.55-10.45,2.76,2.24,2.33,4.35,1.77,6.27s.2,2.4,1.86,2.38C672.56,322.92,671.8,323.44,670.55,323.4Z" transform="translate(-450.77 -244.64)"/><path class="cls-6" d="M677.66,312.49c-1,.16-1.73-.27-1.57-.93.58-2.37,2.51-3.7,4.43-4.9a1,1,0,0,1,1.37.92C681.38,310,679.08,311,677.66,312.49Z" transform="translate(-450.77 -244.64)"/><path class="cls-3" d="M676.31,321.37c1.23.68,2,.86,2.33,1.33,1,1.4,3.22,2,3,4.19,0,.21-1,.6-1.19.45C678.64,325.94,676.4,324.77,676.31,321.37Z" transform="translate(-450.77 -244.64)"/><path class="cls-7" d="M663.59,338.46c.75-2.37-1.43-2.76-2.63-3.6a37.14,37.14,0,0,0-19.06-6.71c-3.93-.26-5.49-1.75-5.11-5.85.45-4.79-1.28-10.52.8-14.22s8.44-2.19,12.8-3.57a49.82,49.82,0,0,0,13.2-6.92c.93-.65,2-2.25,3.19-.17,0,3,.05,6,.08,9v26a6.59,6.59,0,0,0,0,4c-.25,2.12-2.14,1.48-3.35,2Z" transform="translate(-450.77 -244.64)"/><path class="cls-8" d="M634.26,309.34c0,4.81,0,9.61.19,14.41.08,2.43-.52,3.67-3.28,3.6q-8.7-.23-17.4,0c-2.79.08-3.34-1.23-3.27-3.62.14-4.8.11-9.61.15-14.41Z" transform="translate(-450.77 -244.64)"/><path class="cls-5" d="M622.87,334.55c3.77-.83,4.86.69,5,3.85s1,6.55,1.37,9.83c.15,1.18.92,2.85-1.23,3.06-1.42.13-3.13.52-3.85-1.35-1.71-4.48-3.78-8.89-4.88-13.52C618.37,332.51,622.16,335.45,622.87,334.55Z" transform="translate(-450.77 -244.64)"/><path class="cls-5" d="M634.26,309.34l-23.61,0c-.42-2,.52-2.69,2.42-2.68q9.46,0,18.93,0C634,306.61,634.82,307.35,634.26,309.34Z" transform="translate(-450.77 -244.64)"/><path class="cls-5" d="M622.67,329.43c2.45.87,7.05-1.05,7,1.24-.06,2.89-4.38,1.4-6.76,1.37-2.63,0-7.5,1.36-7.46-1.13C615.51,328.06,620.18,330.4,622.67,329.43Z" transform="translate(-450.77 -244.64)"/><path class="cls-6" d="M666.86,306.4c0-3-.06-6-.08-9A12.85,12.85,0,0,1,666.86,306.4Z" transform="translate(-450.77 -244.64)"/><path class="cls-6" d="M666.87,336.4a6.59,6.59,0,0,1,0-4A3.2,3.2,0,0,1,666.87,336.4Z" transform="translate(-450.77 -244.64)"/><path class="cls-7" d="M543.76,301.52c-3.66,0-7.32.08-11,0-3.12-.09-5.06-1.46-4.6-5a5.79,5.79,0,0,0,0-1.5c-.87-7.18-.16-13.42,7.65-16.91,4.41-2,5.82-6.59,7-11,.2-.74.23-1.87,1.31-1.82a1.79,1.79,0,0,1,1.61,2.11,52.82,52.82,0,0,1-1.33,9.34c-.79,2.77.2,3.16,2.51,3.1,3.16-.08,6.32,0,9.48,0s4.46,1.47,3.94,4.71c-.65,4.1-1.18,8.23-1.56,12.36-.29,3.23-1.7,4.81-5.09,4.64S547.08,301.52,543.76,301.52Z" transform="translate(-450.77 -244.64)"/><path class="cls-1" d="M682,552.6c-.7.43-1.19.69-1.63,1a10.78,10.78,0,0,0-1.74,1.4c-4.1,4.65-6.55-4.5-9.81-1.56-3.67,3.32-6.51,3.26-9.62-.32-.7-.81-2-1.55-1-2.81s2.12-.22,2.76.53c2.34,2.74,4.4,1.9,6.48-.26,4-4.24,5.77,2.53,8.82,2.12s4.86-6.28,8.73-1.86c2.29,2.61,4.33,2.11,6.41-.25,1.9-2.15,3.84-1.92,5.57.2,2.24,2.74,4.29,2.19,6.37-.17,1.9-2.16,3.82-1.9,5.59.13,2.2,2.54,4,2.2,6.41,0s7.72-.11,8.75,3.07a1.9,1.9,0,0,1-.19,1.53c-.85.93-1.86.27-2.38-.35-2.66-3.2-5-2.12-7.33.38a2.44,2.44,0,0,1-.43.35c-3.9,2.91-5.05-4.07-8.41-2.68-2.68,1.1-4.62,5.77-8.28,1.66a4.79,4.79,0,0,0-2.72-1.78c-2.71-.12-3.95,4-6.48,3.43C685.68,555.89,683.84,553.87,682,552.6Z" transform="translate(-450.77 -244.64)"/><path class="cls-9" d="M714.63,526.19c7.33,0,14.65,0,22,0,1.08,0,2.71-.35,2.75,1.09s-1.61,1.14-2.67,1.14q-21.75,0-43.5,0c-1,0-2.65.35-2.52-1.25.09-1.21,1.49-1,2.44-1C700.28,526.18,707.46,526.19,714.63,526.19Z" transform="translate(-450.77 -244.64)"/><path class="cls-1" d="M625.45,352.11c5.77,0,11.55,0,17.32,0,1.41,0,3.3-.15,3.11,2.08-.14,1.65-1.73,1.58-2.93,1.58q-18.45,0-36.9,0c-1.31,0-2.84-.21-2.8-1.75,0-2,1.9-1.95,3.37-2C612.89,352.08,619.17,352.1,625.45,352.11Z" transform="translate(-450.77 -244.64)"/><path class="cls-1" d="M664.85,522.79c.59.26,1.24.4,1.25.58,0,.46,0,1.14-.37,1.36-2.62,1.7-2.72,3.32-.11,5.11a1.85,1.85,0,0,1,.47,1.36c0,.14-.84.52-1,.41-1.91-1.12-4.49-2.46-4.53-4.29S663.4,524.37,664.85,522.79Z" transform="translate(-450.77 -244.64)"/><path class="cls-9" d="M681.84,522.54c.7.38,1.18.49,1.36.77.42.65,0,1.23-.56,1.64-2.41,1.61-2.36,3.15,0,4.76.54.36,1.05,1,.45,1.64-.78.85-1.62.36-2.12-.24-1.19-1.43-4.2-2.15-3.29-4.32C678.4,525.13,680.42,523.93,681.84,522.54Z" transform="translate(-450.77 -244.64)"/><path class="cls-9" d="M673.33,522.66c.57.27,1,.36,1.25.62.51.65.13,1.26-.45,1.66-2.26,1.55-2.63,3-.09,4.68.66.42,1.33,1.16.39,1.91s-1.68,0-2.12-.58c-1.1-1.38-4-2.13-3.2-4.06C669.78,525.24,671.86,524.06,673.33,522.66Z" transform="translate(-450.77 -244.64)"/><rect class="cls-10" x="114.73" y="214.48" width="73.31" height="94.02" rx="4.76"/><rect class="cls-11" x="107.13" y="188.52" width="87.61" height="151.22" rx="4.17"/><line class="cls-12" x1="114.73" y1="318.66" x2="188.04" y2="318.66"/><line class="cls-12" x1="117.27" y1="207.6" x2="184.78" y2="207.6"/><line class="cls-12" x1="143.04" y1="197.44" x2="159.01" y2="197.44"/><path class="cls-13" d="M144.13,325.56h19.22a1.09,1.09,0,0,1,1.09,1.09v6.88a1.1,1.1,0,0,1-1.1,1.1H144.13a1.09,1.09,0,0,1-1.09-1.09v-6.88A1.09,1.09,0,0,1,144.13,325.56Z"/><path class="cls-14" d="M547.74,389c.14,25.79-20,46.52-45.39,46.75-26.57.24-47.48-20-47.57-46.06a46.48,46.48,0,1,1,93-.69Zm-63.53-12.35c-.64,2.11-2.38,4.15-1,6.44,3.13,5.12,6.07,10.41,9.73,15.13s13.35,4.76,16.81-.08c6.42-9,13.25-18.2,7.64-30.57-9.29,5.81-21.72-.94-30.46,7.59,1.05-6,5.24-8.13,10.71-8.43,3.25-.18,6.5-.07,9.75-.07,3.09,0,6.21.06,7-3.95.9-4.61-2.77-5.41-5.74-6.42C493.24,351,483.24,359.41,484.21,376.67Zm47.37,42.72c17.44-17.82,16.74-45.44-.82-61.58a43.48,43.48,0,0,0-61.21,2.39c-15,16.21-15.64,44.59,1.76,58.87,2.46-5.84,7.92-7.3,13.18-9.09,9.34-3.19,9.31-3.23,4-11.66-5.69-9-11.92-17.8-7.68-29.57,1.44-4,1.58-8.4,4.9-11.6,7-6.73,22.32-7.26,30.29-1,5.85,4.59,10.12,24.43,5.73,30.13-3.55,4.64-5.55,10.14-9.24,14.59-3.57,4.29-1.91,6.55,2.73,8.2C521.29,411.22,528.23,412.07,531.58,419.39Zm-30.35,13.12A46.31,46.31,0,0,0,523.84,426c3.14-1.89,5.74-4.17,2.63-7.63-2.76-3.07-7.13-6.71-10.81-3.43-9.88,8.83-18.62,8.49-28.62.14-4-3.36-8.7.25-11.32,4-2.83,4,1.13,5.58,3.85,7.27C486.13,430.43,493.37,432.09,501.23,432.51Zm-11.57-20.37c4.58,5.15,9.29,6.68,14.87,5.44,3-.65,5.82-1.69,7.37-4.67-4.2-1.2-3.87-6.82-8.82-8.07C495.46,402.91,495.7,411.57,489.66,412.14Z" transform="translate(-450.77 -244.64)"/><path class="cls-14" d="M478.15,333.57c12.15-5.68,23.89-6.32,35.86-3.74a59.49,59.49,0,0,1,37.3,24.89c.87,1.25,3,2.89.69,4.4-1.64,1.07-2.52-.85-3.39-2-16.88-22.59-39-29.43-65.91-21.95a6.89,6.89,0,0,1-2.19.33C480.13,335.47,479.79,334.94,478.15,333.57Z" transform="translate(-450.77 -244.64)"/><path class="cls-14" d="M523.29,443.54c-9.28,8.36-30.78,8.65-47.18,1.06-11.36-5.26-21-12.6-25.34-25.19,9,10.6,18.9,19.7,32.4,24.21C496.5,448.08,509.85,446.76,523.29,443.54Z" transform="translate(-450.77 -244.64)"/><path class="cls-7" d="M531.58,419.39c-3.35-7.32-10.29-8.17-16.37-10.32-4.64-1.65-6.3-3.91-2.73-8.2,3.69-4.45,5.69-9.95,9.24-14.59,4.39-5.7.12-25.54-5.73-30.13-8-6.26-23.28-5.73-30.29,1-3.32,3.2-3.46,7.62-4.9,11.6-4.24,11.77,2,20.55,7.68,29.57,5.32,8.43,5.35,8.47-4,11.66-5.26,1.79-10.72,3.25-13.18,9.09-17.4-14.28-16.74-42.66-1.76-58.87a43.48,43.48,0,0,1,61.21-2.39C548.32,374,549,401.57,531.58,419.39Z" transform="translate(-450.77 -244.64)"/><path class="cls-7" d="M487,375.18c8.74-8.53,21.17-1.78,30.46-7.59,5.61,12.37-1.22,21.58-7.64,30.57-3.46,4.84-13.17,4.77-16.81.08s-6.6-10-9.73-15.13c-1.4-2.29.34-4.33,1-6.44C485.35,376.58,486.41,376.35,487,375.18Z" transform="translate(-450.77 -244.64)"/><path class="cls-7" d="M501.23,432.51c-7.86-.42-15.1-2.08-21.66-6.15-2.72-1.69-6.68-3.23-3.85-7.27,2.62-3.74,7.29-7.35,11.32-4,10,8.35,18.74,8.69,28.62-.14,3.68-3.28,8.05.36,10.81,3.43,3.11,3.46.51,5.74-2.63,7.63A46.31,46.31,0,0,1,501.23,432.51Z" transform="translate(-450.77 -244.64)"/><path class="cls-5" d="M487,375.18c-.54,1.17-1.6,1.4-2.74,1.49-1-17.26,9-25.63,24.45-20.36,3,1,6.64,1.81,5.74,6.42-.78,4-3.9,4-7,3.95-3.25,0-6.5-.11-9.75.07C492.19,367.05,488,369.16,487,375.18Z" transform="translate(-450.77 -244.64)"/><path class="cls-5" d="M489.66,412.14c6-.57,5.8-9.23,13.42-7.3,4.95,1.25,4.62,6.87,8.82,8.07-1.55,3-4.41,4-7.37,4.67C499,418.82,494.24,417.29,489.66,412.14Z" transform="translate(-450.77 -244.64)"/><path class="cls-14" d="M717.36,422.81c-3.51,7.37-5.44,15.44-10.8,22-2.33,2.85-1.14,5.52,2.9,6.62,3.62,1,7.08,2.59,10.61,3.89a9.78,9.78,0,0,1,6.2,7.09c.37,1.37,1,3.3-.79,3.94-2.11.74-2-1.42-2.63-2.68-3.72-7.3-8.5-8.27-15.21-3.2-7,5.3-15.31,5.27-22.34-.08-6.59-5-11.5-3.92-15,3.48-.64,1.36-.69,3.29-2.77,2.46-1.86-.75-1.08-2.53-.74-3.94,1.31-5.48,5.84-7.12,10.41-8.79,11.72-4.28,11.65-4.27,5.49-14.62a43.32,43.32,0,0,1-6.25-19.18c-.16-2.33-.3-4.7,3.12-4.74,10.75-.12,20.16-3.64,29.25-13.63-1.92,8.1.92,11.46,5.85,13.53,3.9,1.64.69,5.65,2.59,8ZM696.47,444.9c3.8-.36,6.9-1.71,9-4.89A60.23,60.23,0,0,0,712,426.58c2-5.81-.59-8.71-4.51-12.57-4.37-4.3-6.53-.38-9.65.71a86.64,86.64,0,0,1-8.55,2.73c-10.55,2.53-10.93,3.09-6.5,13.47a69.35,69.35,0,0,0,5.41,9.8C690.08,443.72,693.27,444.54,696.47,444.9Zm.21,15.87c3.9-.22,9.54-1.08,9.46-4.9-.06-2.36-3.15-8.11-9.73-7.94-6.32.16-9.61,5.51-9.69,8C686.61,459.59,692.27,460.66,696.68,460.77Z" transform="translate(-450.77 -244.64)"/><path class="cls-14" d="M717.26,422.94c4-7.09,2.28-17-4.2-23.63a22.94,22.94,0,0,0-27.72-4c-9.07,5.23-12.64,13.36-11.59,23.5.64,6.27,1.65,12.5.11,18.74-1,4.11,1.37,5.38,4.62,6.15,1.21.28,2.76.53,2.46,2.17-.4,2.26-2.23,1.43-3.6,1.15-5.32-1.09-9.38-2.59-7.2-9.84,2-6.81.08-14,0-21-.24-12.77,7.4-23.12,19.34-26.47a26.69,26.69,0,0,1,30,12.08c3.45,5.6,4.26,11.77,3.38,18.14a58.14,58.14,0,0,0-.14,17.27c1.26,8-1.21,10.25-10.37,9.17-.47-2.25,1.27-2.44,2.68-2.73,4.07-.81,5.41-3,4.1-7-1.47-4.47.89-9.44-1.68-13.79Z" transform="translate(-450.77 -244.64)"/><path class="cls-7" d="M696.47,444.9c-3.2-.36-6.39-1.18-8.29-4.18a69.35,69.35,0,0,1-5.41-9.8c-4.43-10.38-4-10.94,6.5-13.47a86.64,86.64,0,0,0,8.55-2.73c3.12-1.09,5.28-5,9.65-.71,3.92,3.86,6.52,6.76,4.51,12.57A60.23,60.23,0,0,1,705.46,440C703.37,443.19,700.27,444.54,696.47,444.9Z" transform="translate(-450.77 -244.64)"/><path class="cls-5" d="M696.68,460.77c-4.41-.11-10.07-1.18-10-4.85.08-2.48,3.37-7.83,9.69-8,6.58-.17,9.67,5.58,9.73,7.94C706.22,459.69,700.58,460.55,696.68,460.77Z" transform="translate(-450.77 -244.64)"/><path class="cls-3" d="M616.24,415.41c-9.42-1.74-18.73-5.63-28.16,1.78,1.79-5.69,4-7.73,9.52-8.58C604.75,407.51,611.47,408.26,616.24,415.41Z" transform="translate(-450.77 -244.64)"/><path class="cls-3" d="M609.46,420.37c-4.43-.26-8.72-2.12-13,.69a1.87,1.87,0,0,1-3-.94c-.51-1.61.86-2.1,2-2.62C600.71,414.94,605.6,414.73,609.46,420.37Z" transform="translate(-450.77 -244.64)"/><path class="cls-15" d="M465,492.59c0-2.56.05-5.11.07-7.67,9.18-2.79,18.59-1,27.87-1.16,17.33-.34,17.21-.1,16.93,17.53-.07,4.11-1.22,5.65-5.46,5.55-10.22-.25-20.47-.49-30.67.07-6.33.34-8.47-2-7.67-7.87,0-1.71,0-3.43,0-5.14Zm5.75-5.92,0,1.37h34.77l-.05-1.37Zm34.7,9.41,0-1.48H482.2l.05,1.48ZM470.74,503c5.36,1.24,10.73,2.09,16-.25A23.58,23.58,0,0,0,470.74,503Z" transform="translate(-450.77 -244.64)"/><path class="cls-5" d="M466.07,499c-.8,5.9,1.34,8.21,7.67,7.87,10.2-.56,20.45-.32,30.67-.07,4.24.1,5.39-1.44,5.46-5.55.28-17.63.4-17.87-16.93-17.53-9.28.18-18.69-1.63-27.87,1.16l-1.73,0c-.47-3.25.82-4.64,4.22-4.59q20.79.25,41.58.23c3,0,4.25,1.07,4.2,4.12-.12,7,0,14.07-.07,21.11,0,1.47.11,3.82-1.59,3.66-5.41-.5-6.38,2.89-6.87,7.73-3.93-8.28-10.79-7.29-17.42-7.15-5.54.12-11.13-.4-16.62.14-6.38.62-8.54-1.91-7.56-7.91.17-1,.23-2.1.34-3.16Z" transform="translate(-450.77 -244.64)"/><path class="cls-3" d="M463.55,499.06c-.11,1.06-.17,2.12-.34,3.16-1,6,1.18,8.53,7.56,7.91,5.49-.54,11.08,0,16.62-.14,6.63-.14,13.49-1.13,17.42,7.15.49-4.84,1.46-8.23,6.87-7.73,1.7.16,1.58-2.19,1.59-3.66,0-7,0-14.08.07-21.11,0-3.05-1.25-4.12-4.2-4.12q-20.79,0-41.58-.23c-3.4-.05-4.69,1.34-4.22,4.59-4.43,1.26-2.95-2.16-3.16-4.1-.35-3.06,1.62-3.36,4-3.35,11.71.05,23.43-.07,35.14.06,5.28.06,12.07-2.26,15.45.95,3.69,3.52,1,10.47,1.28,15.91.21,3.39.1,6.81,0,10.22-.09,3.94,1.7,8.94-5.63,8.46-2.7-.18-1.58,2.89-1.87,4.61-.27,1.53.74,3.65-1.64,4.25-2,.5-3-1.19-4.16-2.42-2-2.19-3.94-4.45-5.91-6.68-7.44-1.75-14.94-.86-22.43-.49h-6.35a13.28,13.28,0,0,0-6.45,0h-.41L461,512q0-10.31.08-20.62C465.75,492.7,462,496.74,463.55,499.06Z" transform="translate(-450.77 -244.64)"/><path class="cls-5" d="M485.31,499.36l1.09,1.31Z" transform="translate(-450.77 -244.64)"/><path class="cls-3" d="M470.75,486.67H505.5l.05,1.37H470.78Z" transform="translate(-450.77 -244.64)"/><path class="cls-3" d="M505.45,496.08h-23.2l-.05-1.48h23.23Z" transform="translate(-450.77 -244.64)"/><path class="cls-3" d="M470.74,503a23.58,23.58,0,0,1,16-.25C481.47,505.07,476.1,504.22,470.74,503Z" transform="translate(-450.77 -244.64)"/><path class="cls-12" d="M552.68,575.88a166,166,0,0,1-67.23-54.38" transform="translate(-450.77 -244.64)"/><path class="cls-12" d="M686.52,335.23a165.27,165.27,0,0,1,39.62,63.36" transform="translate(-450.77 -244.64)"/><path class="cls-16" d="M114.37,207h12.12a0,0,0,0,1,0,0v12.2a5.67,5.67,0,0,1-5.67,5.67H120a5.67,5.67,0,0,1-5.67-5.67V207a0,0,0,0,1,0,0Z"/><path class="cls-17" d="M175,207h12.12a0,0,0,0,1,0,0v12.2a5.67,5.67,0,0,1-5.67,5.67h-.77a5.67,5.67,0,0,1-5.67-5.67V207a0,0,0,0,1,0,0Z"/><path class="cls-17" d="M105.06,207h9.31a0,0,0,0,1,0,0v12.2a5.67,5.67,0,0,1-5.67,5.67h-.77a5.67,5.67,0,0,1-5.67-5.67v-9.4A2.8,2.8,0,0,1,105.06,207Z"/><path class="cls-17" d="M126.49,207h12.12a0,0,0,0,1,0,0v12.2a5.67,5.67,0,0,1-5.67,5.67h-.77a5.67,5.67,0,0,1-5.67-5.67V207a0,0,0,0,1,0,0Z"/><path class="cls-16" d="M138.61,207h12.12a0,0,0,0,1,0,0v12.2a5.67,5.67,0,0,1-5.67,5.67h-.77a5.67,5.67,0,0,1-5.67-5.67V207A0,0,0,0,1,138.61,207Z"/><path class="cls-17" d="M150.73,207h12.12a0,0,0,0,1,0,0v12.2a5.67,5.67,0,0,1-5.67,5.67h-.77a5.67,5.67,0,0,1-5.67-5.67V207A0,0,0,0,1,150.73,207Z"/><path class="cls-16" d="M162.85,207H175a0,0,0,0,1,0,0v12.2a5.67,5.67,0,0,1-5.67,5.67h-.77a5.67,5.67,0,0,1-5.67-5.67V207a0,0,0,0,1,0,0Z"/><path class="cls-16" d="M187.09,207H196a3.22,3.22,0,0,1,3.22,3.22v9.21a5.45,5.45,0,0,1-5.45,5.45h-1.22a5.45,5.45,0,0,1-5.45-5.45V207A0,0,0,0,1,187.09,207Z"/></svg>