<svg id="Layer_1" data-name="Layer 1" xmlns="http://www.w3.org/2000/svg" viewBox="0 0 505.74 764.57"><defs><style>.cls-1{fill:none;stroke:#000;stroke-miterlimit:10;stroke-width:3px;}</style></defs><title>curved arrow</title><path class="cls-1" d="M399.24,1207.08c-59-88.81-65.42-198.91-17.28-278.64,50.18-83.12,148-113.87,168.48-118.8,4.5-1.08,9.57-2,9.57-2,18.6-3.26,70.11-12.27,94.11,14.93,11.86,13.45,18.37,37.29,8.64,56.16-12.91,25-50,32.8-73.44,19.44-27.71-15.8-26.12-55.39-25.92-60.48,1.73-43.14,38.62-83.42,79.92-97.2,47.63-15.89,64.82,15.58,116.64,0,37.23-11.19,71.68-40.46,86.4-77.76,2.79-7.06,9.72-26.7,4.32-79.92-3.32-32.74-11.62-81.15-34.56-138.24" transform="translate(-348.44 -443.34)"/><line class="cls-1" x1="450.02" y1="48.37" x2="467.68" y2="1.26"/><line class="cls-1" x1="504.24" y1="24.81" x2="467.68" y2="1.26"/></svg>