<svg id="Layer_1" data-name="Layer 1" xmlns="http://www.w3.org/2000/svg" viewBox="0 0 416.44 416.44"><defs><style>.cls-1{fill:#e4f5fa;}.cls-2{fill:#0c0909;}.cls-3{fill:#e3a86f;}.cls-4{fill:#8e868e;}.cls-5{fill:#724e45;}.cls-6{fill:#855c52;}.cls-7{fill:#c38958;}.cls-8{fill:#f5f4f4;}.cls-9{fill:#f0cfa3;}.cls-10{fill:#cbe09b;}.cls-11{fill:#fcd065;}.cls-12{fill:#bbe2ec;}.cls-13{fill:#eab685;}.cls-14{fill:#e0e0df;}</style></defs><title>Customer</title><rect class="cls-1" width="416.44" height="416.44" rx="23.29"/><path class="cls-2" d="M260.51,509.82c-1.25-5.71-.62-7.17,4.7-9.69,9.34-4.44,19-6.74,29.34-3.93,5.51,1.49,10.08,4.32,13.08,9.26.88,1.46,1.84,1.56,3.34,1.5,19-.8,31.7,10.89,32.65,30,.56,11.3-2.54,21.66-8,31.44-.36.65-.69,1.57-1.26,1.81-4.35,1.85-4.82,6.23-6.5,9.78a63,63,0,0,1-13.24,18.88,5.74,5.74,0,0,0-1.93,4.91c.3,4.71-1.79,10.46.78,13.85,2.41,3.17,8.2,3.61,12.25,5.73,5.57,2.93,10.07,4.23,15.51-1.3,4.75-4.82,12.2-5.91,18.46-8.63,7.06-3.08,14.19-6,21.38-8.8,2.16-.83,2.93-1.94,2.65-4.11a13.58,13.58,0,0,1,0-3c1-9.09-.05-17.2-7.89-23.65-4-3.31-3.4-6.11-.05-10,3.69-1.54,6.48-.4,8.67,2.82a27.81,27.81,0,0,0,2.93,3.4c12.14,12.66,28.94,13.45,41.51,1.21,13-12.6,17.42-28.86,17.92-46.47l-.41-1a.51.51,0,0,0-.16-.48c.05-1.49-1.08-2.19-2.08-2.88-4.34-3-8.52-6.14-10.95-11a2.24,2.24,0,0,0-2.49-1.16,21.77,21.77,0,0,1-11.44-2.9c-1.76-1-2.65-.75-4,.86-6.58,8.06-15.1,12.37-25.6,12.55-1.09,0-2.31-.38-3.14.71-3.15,4.14-7.9,5.93-12.23,8.36-2,1.11-4,2.38-2.56,5.24a44.9,44.9,0,0,0,1.56,9.41c.85,3.59.07,6.57-3.65,8.19-4.43.17-6.66-1.26-7.39-5.55-1-5.73-2.79-10.44-7.77-14.34-6-4.7-7.71-12-8-19.47a31,31,0,0,0-3.21-13.81c-7.8-15.14.12-33.43,16.33-38.74a7.63,7.63,0,0,0,5-4.26A21.15,21.15,0,0,1,394.47,446a4.87,4.87,0,0,0,5,.36c10.94-4.5,22.68-.91,29.75,9,1.15,1.6,1.88,2.2,4.12,1.52,14.6-4.43,28.07,5.8,27.89,21.06,0,2,.26,3.24,2.2,4.48,8,5.13,11.3,14.23,8.64,23.47-2.54,8.81-5.83,17.23-13,23.51-1.59,1.4-1.16,3.5-1.41,5.27-2.52,17.86-8.61,34-22.29,46.45a3.5,3.5,0,0,0-1.16,2.95c0,5.74.1,11.49,0,17.24-.05,1.87.76,2.53,2.34,3.16,8.41,3.38,16.81,6.8,25.13,10.41,2.71,1.17,3.27.66,3.26-2.21-.05-19.62-.13-39.23.18-58.84.17-11.24,4.26-21.38,10.49-30.67,2.35-3.5,5.54-3.22,8.93-1.86,2.28,3.58,1.72,6.78-.64,10.28a42.31,42.31,0,0,0-7.48,23.16c-.32,21.35-.1,42.7-.15,64a4.42,4.42,0,0,0,1.93,4.14c1.43,1,2.69,2.2,4,3.32s2.59-.13,3.74-.56c3.72-1.42,7.36-3.06,11.06-4.57,8-3.26,7.92-3.24,7.82-11.57a5.64,5.64,0,0,0-1.73-4.31,37.28,37.28,0,0,1-4.09-4.87c-7.64-10.79-13-22.45-13.09-36,0-4.56,1.41-6.33,5.79-7.33,3.39-.78,6.81-1.46,10.2-2.24,16.06-3.68,26.85-13.12,31.52-29.12,1.87-6.38,5.32-7.86,11.23-4.73,17.44,9.26,23.63,30.29,21.22,48.73-1.76,13.5-7.86,25.11-16.66,35.37a5.87,5.87,0,0,0-1.82,3.54c-.67,9.13-.72,9.12,7.62,12.55l4.15,1.72,16.81,6.8v-4c0-21.87,0-43.74,0-65.61,0-16.35-5.8-30-18.47-40.81-14.66-12.47-38.34-14.82-55-5.06-2.89.84-4.87-1.39-7.28-2.16.08-7.59.25-7.85,7.73-10.92,36.77-15.08,78.45,8.95,83.71,48.2a73.37,73.37,0,0,1,.63,9.7q0,38.78,0,77.56a11.19,11.19,0,0,0,1.09,5.38c1.89,3.62,2.37,7.59,2.41,11.61s-.22,7.76,0,11.61c.57,8-1.81,14.33-9.51,17.89h-345c-7.68-3.58-10.1-9.87-9.52-17.91.38-5.23-.3-10.49.36-15.73,1.18-9.32,6.09-15.94,14.68-19.65,8.44-3.65,17-7.12,25.51-10.52,2.15-.86,2.87-2,3-4.36.43-8.47.32-16.46-7.36-22.44-2.87-2.22-4.31-6-6.21-9.27-2.62-4.45-4.09-9.28-8.17-13.27-5-4.86-5.77-12.51-6.87-19.41a57.93,57.93,0,0,1,.58-21.95c1.4-6.29,2.58-7.36,9-7.52,3,2.67,3.52,5.74,2.46,9.68-2,7.67-1.2,19.3,1.27,24.4a77.36,77.36,0,0,1,25.75-16.22c8.87-3.47,15.4-9.62,17.89-19.18,1.87-7.16-1.46-11.84-8.84-13a30.71,30.71,0,0,0-19.8,3.79C266.45,512.53,263.47,512.61,260.51,509.82Zm40.82,103.5v-5c-2.24.55-4.35,1.11-6.48,1.58a16.37,16.37,0,0,1-7-.08c-6.06-1.28-6-1.24-6.1,5.18-.07,3.17,0,6,4,6.7,4.86,2.46,9.51,1.66,14-1C302.74,618.86,301.1,615.86,301.33,613.32Zm97-6c4.4,3.27,9.45,3.75,14.56,2.85,7.92-1.39,10-4.15,10-12.14,0-1.36-.07-2.73-.11-4.09.34-4.93.33-5-4.12-3.84a37.18,37.18,0,0,1-20.26-.29c-3.13-.95-3.33.17-3.24,2.65a95.3,95.3,0,0,1,0,9.71C395,604.75,395.84,606.43,398.31,607.28Zm90.63,35.25v22.84c0,6.46,0,6.46,6.36,6.46h18.92A64.22,64.22,0,0,1,508,657.17c-2.05-7.25-2.32-14.75-3.2-22.16a8.16,8.16,0,0,0-.39-4.56c-4,1.64-8,3.24-12,4.89C487.56,637.33,487.57,637.34,488.94,642.53ZM391.76,617c-5.06-6-8.92.64-13.93.9l3.08,3.93c9.27,14.68,15.65,30.45,17.79,47.78.25,2,1.12,2.32,2.87,2.28,4.62-.1,9.25-.23,13.86,0,2.62.15,3.4-.89,3.65-3.22a94.68,94.68,0,0,1,4.38-19.23A113.11,113.11,0,0,1,439.64,618c-2.91-1.19-5.57-2.22-8.17-3.38a2.26,2.26,0,0,0-2.7.13C416.94,623.77,404.55,623.89,391.76,617ZM278.47,631.25c-2.32-2.86-4.89-2.68-8-1.18a141,141,0,0,1-14,5.77c-3.44,1.21-3.39,2.52-.79,4.53,4.93,6.72,9.83,13.47,14.8,20.15,2.81,3.78,5,8.92,8.83,10.79s9.33,0,14,.63c7.92,1,13.55-1.43,18.26-8.08,4.88-6.88,10.94-12.93,16.38-19.43,3.23-3.85,2.41-6.92-2.07-8.77-5-2.09-10.07-4.21-15.13-6.26-1.06-.43-2.07-1.28-3.41-.29C298.15,635.86,288.47,635.85,278.47,631.25Zm76.21-154.56c-3.77,5.31-4.24,11.28-.62,16.32s3.81,10.45,3.78,16.16a22.48,22.48,0,0,0,2.62,11.1c1.27,2.33,2.61,2.89,4.11.19l9.48-5.27a8,8,0,0,0,4-3.77c1.83-4.26,3.79-5.52,8.2-4.36,8,2.13,19.3-3.26,23.08-12.58,2.8-6.87,6.49-7.5,11.59-2.08,3.52,3.75,7.57,5.37,12.78,4.13,4.49-1.08,6.58.28,8.34,4.7,1,2.57,2.15,5.11,4.44,6.82,3.18,2.37,6.49,4.55,9.17,7.86a46.18,46.18,0,0,0,4.92-11.36c2.25-7.85.09-11.79-7.6-14.16-4.5-1.38-5.81-4-4.18-8.58.71-2,1.57-3.91,1.07-6.15-1.85-8.26-10.61-11-17-5.36-5.09,4.5-9.14,3.27-10.87-3.31-2.78-10.6-12.23-14.17-21.49-8.11-3.57,2.34-6.06,2.16-9-.65-7.08-6.7-15.33-4.31-17.75,5.24-.81,3.2-2.5,4.79-5.86,5.21C362.29,469.35,357.4,471.32,354.68,476.69Zm188.43,57.08a61.57,61.57,0,0,1-8.64,14.43c-8.91,10.62-20.45,16.44-34,18.63-2.25.37-3.13,1-2.6,3.58,2.53,12.24,8.15,22.73,17.6,30.91,8,6.91,14.12,6.83,21.68-.56,13-12.71,19.93-27.88,17-46.44C553,546.4,550,539.22,543.11,533.77ZM291.58,599a19.9,19.9,0,0,0,9.71-3.72,49.37,49.37,0,0,0,18-24.26c2.52-7,2.85-4.91-2.55-9.9-6.4-5.91-14.73-9.53-19.92-16.88-.72-1-1.47-.51-2.21.06-4.31,3.3-9.36,5.12-14.28,7.23a54.44,54.44,0,0,0-16.62,11.27,3.94,3.94,0,0,0-1.21,4.57c3.44,11,9.26,20.37,18.56,27.38A20,20,0,0,0,291.58,599Zm138.47,72.5a2.67,2.67,0,0,0,.74.3c14.86,0,29.71,0,44.56.11,2.27,0,2.3-1.12,2.29-2.78-.05-7.74.08-15.48-.05-23.22-.14-8.14-3.88-13.94-11.62-17-4.05-1.59-8.1-3.19-12-5.06-2.63-1.26-4.1-.74-5.79,1.65A100.26,100.26,0,0,0,430.05,671.47Zm-66,.35h15.35c8.36,0,8.49,0,6.82-8.17a96.75,96.75,0,0,0-17.1-38.53c-.92-1.24-1.58-2.83-3.79-1.84-5.09,2.28-10.36,4.19-15.4,6.58-6.18,2.93-9.34,8.06-9.42,14.91-.09,8,.06,16-.09,24,0,2.36.49,3.21,3,3.14C350.34,671.7,357.21,671.82,364.07,671.82Zm173.77,0c13.14,0,25.6,0,38.07,0,2.41,0,3.37-.84,3.32-3.27-.1-5.24-.07-10.48,0-15.71.08-6.54-3.14-10.79-9-13.22-6.66-2.76-13.35-5.42-20-8.26-2.27-1-3.25-1-3.28,2C546.82,646.67,545,659.61,537.84,671.83ZM526,669c11.38-16.69,9.47-35,9.59-53.47-6.62,3.23-12.92,2.93-19.49-.06C516.57,634,514.69,652.34,526,669ZM332.35,539.21a23.17,23.17,0,0,0-4.63-14.57c-3.46-4.68-8.21-6.62-14-6.44-2.29.07-3.42,1.06-3.7,3.27a18.57,18.57,0,0,1-3.51,9.35c-3,3.68-1.15,6.1,1.21,8.7a18.8,18.8,0,0,0,2.74,2.54c5.7,4.24,11.73,8.06,16.73,13.18,1.12,1.14,1.69,1.06,2.25-.57A46.28,46.28,0,0,0,332.35,539.21ZM242.81,642.48a11.89,11.89,0,0,0-4.39,9.32c0,4-.07,8,0,12,.12,9.28-1.33,8,8.16,8.06,5.88.06,11.76,0,18.22,0Zm76.58,29.35h7.93c.86,0,1.87.09,1.83-1.21-.12-3.08.4-6.2-.39-9.73Z" transform="translate(-200.57 -354.83)"/><path class="cls-3" d="M369.73,550.72c3.72-1.62,4.5-4.6,3.65-8.19a44.9,44.9,0,0,1-1.56-9.41c4.21-2.1,8.44-4.16,12.61-6.34a4.82,4.82,0,0,0,2.66-3c.74-3.4,3-3.59,5.88-3.48,9.8.37,17.67-3.35,23.07-11.66,1.12-1.71,2.18-2,3.58-.84a13,13,0,0,0,9.76,2.8c2.11-.2,3.4.68,4.26,2.75,2.34,5.61,7.29,8.1,12.63,10a.51.51,0,0,1,.16.48c.13.34.27.68.41,1-.5,17.61-5,33.87-17.92,46.47-12.57,12.24-29.37,11.45-41.51-1.21a27.81,27.81,0,0,1-2.93-3.4c-2.19-3.22-5-4.36-8.67-2.82A71.76,71.76,0,0,1,369.73,550.72Z" transform="translate(-200.57 -354.83)"/><path class="cls-4" d="M260.51,509.82c3,2.79,5.94,2.71,9.48.75a30.71,30.71,0,0,1,19.8-3.79c7.38,1.12,10.71,5.8,8.84,13-2.49,9.56-9,15.71-17.89,19.18A77.36,77.36,0,0,0,255,555.14c-2.47-5.1-3.31-16.73-1.27-24.4,1.06-3.94.58-7-2.46-9.68C252.84,516.08,256.23,512.58,260.51,509.82Z" transform="translate(-200.57 -354.83)"/><path class="cls-5" d="M495.2,512.06c2.41.77,4.39,3,7.28,2.17-1.51,3.47-4.82,5.42-7.16,8.22a55.1,55.1,0,0,0-13,35.67c-.29,22.7-.12,45.4-.15,68.11-1.34-1.12-2.6-2.34-4-3.32a4.42,4.42,0,0,1-1.93-4.14c.05-21.34-.17-42.69.15-64a42.31,42.31,0,0,1,7.48-23.16c2.36-3.5,2.92-6.7.64-10.28A31.62,31.62,0,0,1,495.2,512.06Z" transform="translate(-200.57 -354.83)"/><path class="cls-6" d="M482.21,626.23c0-22.71-.14-45.41.15-68.11a55.1,55.1,0,0,1,13-35.67c2.34-2.8,5.65-4.75,7.16-8.22,16.68-9.77,40.36-7.42,55,5,12.67,10.77,18.43,24.46,18.47,40.81,0,21.87,0,43.74,0,65.61v4l-16.81-6.8L555,621.15c-8.34-3.43-8.29-3.42-7.62-12.55a5.87,5.87,0,0,1,1.82-3.54c8.8-10.26,14.9-21.87,16.66-35.37,2.41-18.44-3.78-39.47-21.22-48.73-5.91-3.13-9.36-1.65-11.23,4.73-4.67,16-15.46,25.44-31.52,29.12-3.39.78-6.81,1.46-10.2,2.24-4.38,1-5.83,2.77-5.79,7.33.13,13.52,5.45,25.18,13.09,36a37.28,37.28,0,0,0,4.09,4.87,5.64,5.64,0,0,1,1.73,4.31c.1,8.33.14,8.31-7.82,11.57-3.7,1.51-7.34,3.15-11.06,4.57C484.8,626.1,483.65,627.46,482.21,626.23Z" transform="translate(-200.57 -354.83)"/><path class="cls-6" d="M354.68,476.69c2.72-5.37,7.61-7.34,13.11-8,3.36-.42,5-2,5.86-5.21,2.42-9.55,10.67-11.94,17.75-5.24,3,2.81,5.47,3,9,.65,9.26-6.06,18.71-2.49,21.49,8.11,1.73,6.58,5.78,7.81,10.87,3.31,6.42-5.67,15.18-2.9,17,5.36.5,2.24-.36,4.16-1.07,6.15-1.63,4.54-.32,7.2,4.18,8.58,7.69,2.37,9.85,6.31,7.6,14.16a46.18,46.18,0,0,1-4.92,11.36c-2.68-3.31-6-5.49-9.17-7.86-2.29-1.71-3.41-4.25-4.44-6.82-1.76-4.42-3.85-5.78-8.34-4.7-5.21,1.24-9.26-.38-12.78-4.13-5.1-5.42-8.79-4.79-11.59,2.08-3.78,9.32-15,14.71-23.08,12.58-4.41-1.16-6.37.1-8.2,4.36a8,8,0,0,1-4,3.77l-9.48,5.27c-3.79-6.31-4.23-13.35-4.53-20.42-.07-1.72.46-3.65-.74-5.07C354.76,489.6,354.52,483.21,354.68,476.69Z" transform="translate(-200.57 -354.83)"/><path class="cls-7" d="M543.11,533.77c6.9,5.45,9.88,12.63,11.11,20.55,2.9,18.56-4,33.73-17,46.44-7.56,7.39-13.69,7.47-21.68.56-9.45-8.18-15.07-18.67-17.6-30.91-.53-2.58.35-3.21,2.6-3.58,13.51-2.19,25-8,34-18.63A61.57,61.57,0,0,0,543.11,533.77Z" transform="translate(-200.57 -354.83)"/><path class="cls-8" d="M278.47,631.25c10,4.6,19.68,4.61,28.83-2.14,1.34-1,2.35-.14,3.41.29,5.06,2.05,10.08,4.17,15.13,6.26,4.48,1.85,5.3,4.92,2.07,8.77-5.44,6.5-11.5,12.55-16.38,19.43-4.71,6.65-10.34,9.11-18.26,8.08-4.66-.61-10.16,1.25-14-.63s-6-7-8.83-10.79c-5-6.68-9.87-13.43-14.8-20.15Z" transform="translate(-200.57 -354.83)"/><path class="cls-9" d="M291.58,599a20,20,0,0,1-10.53-4.25c-9.3-7-15.12-16.37-18.56-27.38a3.94,3.94,0,0,1,1.21-4.57,54.44,54.44,0,0,1,16.62-11.27c4.92-2.11,10-3.93,14.28-7.23.74-.57,1.49-1.08,2.21-.06,5.19,7.35,13.52,11,19.92,16.88,5.4,5,5.07,2.88,2.55,9.9a49.37,49.37,0,0,1-18,24.26A19.9,19.9,0,0,1,291.58,599Z" transform="translate(-200.57 -354.83)"/><path class="cls-8" d="M391.76,617c12.79,6.91,25.18,6.79,37-2.2a2.26,2.26,0,0,1,2.7-.13c2.6,1.16,5.26,2.19,8.17,3.38a113.11,113.11,0,0,0-16.18,31.43,94.68,94.68,0,0,0-4.38,19.23c-.25,2.33-1,3.37-3.65,3.22-4.61-.27-9.24-.14-13.86,0-1.75,0-2.62-.28-2.87-2.28-2.14-17.33-8.52-33.1-17.79-47.78C384.26,619.59,388.08,618.45,391.76,617Z" transform="translate(-200.57 -354.83)"/><path class="cls-10" d="M430.05,671.47a100.26,100.26,0,0,1,18.12-46c1.69-2.39,3.16-2.91,5.79-1.65,3.91,1.87,8,3.47,12,5.06,7.74,3.05,11.48,8.85,11.62,17,.13,7.74,0,15.48.05,23.22,0,1.66,0,2.79-2.29,2.78-14.85-.11-29.7-.08-44.56-.11A2.67,2.67,0,0,1,430.05,671.47Z" transform="translate(-200.57 -354.83)"/><path class="cls-10" d="M364.07,671.82c-6.86,0-13.73-.12-20.59.06-2.55.07-3.08-.78-3-3.14.15-8,0-16,.09-24,.08-6.85,3.24-12,9.42-14.91,5-2.39,10.31-4.3,15.4-6.58,2.21-1,2.87.6,3.79,1.84a96.75,96.75,0,0,1,17.1,38.53c1.67,8.15,1.54,8.17-6.82,8.17H364.07Z" transform="translate(-200.57 -354.83)"/><path class="cls-11" d="M537.84,671.83c7.11-12.22,9-25.16,9.11-38.47,0-2.92,1-2.93,3.28-2,6.61,2.84,13.3,5.5,20,8.26,5.88,2.43,9.1,6.68,9,13.22-.05,5.23-.08,10.47,0,15.71,0,2.43-.91,3.28-3.32,3.27C563.44,671.79,551,671.83,537.84,671.83Z" transform="translate(-200.57 -354.83)"/><path class="cls-7" d="M526,669c-11.35-16.61-9.47-35-9.9-53.53,6.57,3,12.87,3.29,19.49.06C535.51,634,537.42,652.26,526,669Z" transform="translate(-200.57 -354.83)"/><path class="cls-4" d="M332.35,539.21a46.28,46.28,0,0,1-2.89,15.46c-.56,1.63-1.13,1.71-2.25.57-5-5.12-11-8.94-16.73-13.18a18.8,18.8,0,0,1-2.74-2.54c-2.36-2.6-4.17-5-1.21-8.7a18.57,18.57,0,0,0,3.51-9.35c.28-2.21,1.41-3.2,3.7-3.27,5.77-.18,10.52,1.76,14,6.44A23.17,23.17,0,0,1,332.35,539.21Z" transform="translate(-200.57 -354.83)"/><path class="cls-11" d="M504.8,635c.88,7.41,1.15,14.91,3.2,22.16a64.22,64.22,0,0,0,6.22,14.66H495.3c-6.36,0-6.36,0-6.36-6.46V642.53a2.59,2.59,0,0,1,1.74-2.17C495.45,638.74,499.86,636.17,504.8,635Z" transform="translate(-200.57 -354.83)"/><path class="cls-12" d="M242.81,642.48l22,29.35c-6.46,0-12.34,0-18.22,0-9.49-.09-8,1.22-8.16-8.06-.05-4,0-8,0-12A11.89,11.89,0,0,1,242.81,642.48Z" transform="translate(-200.57 -354.83)"/><path class="cls-3" d="M422.76,593.9c0,1.36.11,2.73.11,4.09,0,8-2.08,10.75-10,12.14-5.11.9-10.16.42-14.56-2.85,0-3.23-.08-6.46,0-9.69,0-2.51.84-3.91,3.91-3.18a30.6,30.6,0,0,0,13.24.41C417.81,594.34,420.24,593.48,422.76,593.9Z" transform="translate(-200.57 -354.83)"/><path class="cls-7" d="M446.27,523.35c-5.34-1.92-10.29-4.41-12.63-10-.86-2.07-2.15-3-4.26-2.75a13,13,0,0,1-9.76-2.8c-1.4-1.13-2.46-.87-3.58.84-5.4,8.31-13.27,12-23.07,11.66-2.84-.11-5.14.08-5.88,3.48a4.82,4.82,0,0,1-2.66,3c-4.17,2.18-8.4,4.24-12.61,6.34-1.44-2.86.58-4.13,2.56-5.24,4.33-2.43,9.08-4.22,12.23-8.36.83-1.09,2.05-.69,3.14-.71,10.5-.18,19-4.49,25.6-12.55,1.31-1.61,2.2-1.82,4-.86a21.77,21.77,0,0,0,11.44,2.9,2.24,2.24,0,0,1,2.49,1.16c2.43,4.87,6.61,8,10.95,11C445.19,521.16,446.32,521.86,446.27,523.35Z" transform="translate(-200.57 -354.83)"/><path class="cls-7" d="M422.76,593.9c-2.52-.42-4.95.44-7.32.92a30.6,30.6,0,0,1-13.24-.41c-3.07-.73-3.86.67-3.91,3.18-.06,3.23,0,6.46,0,9.69-2.47-.85-3.35-2.53-3.19-5.15a95.3,95.3,0,0,0,0-9.71c-.09-2.48.11-3.6,3.24-2.65a37.18,37.18,0,0,0,20.26.29C423.09,588.93,423.1,589,422.76,593.9Z" transform="translate(-200.57 -354.83)"/><path class="cls-5" d="M354.68,476.69c-.16,6.52.08,12.91,4.62,18.28,1.2,1.42.67,3.35.74,5.07.3,7.07.74,14.11,4.53,20.42-1.5,2.7-2.84,2.14-4.11-.19a22.48,22.48,0,0,1-2.62-11.1c0-5.71-.07-11-3.78-16.16S350.91,482,354.68,476.69Z" transform="translate(-200.57 -354.83)"/><path class="cls-9" d="M301.33,613.32c-.23,2.54,1.41,5.54-1.65,7.39-4.46,2.7-9.11,3.5-14,1,0-1.62.08-3.23.07-4.84,0-1.79.72-2.95,2.62-2.8C292.75,614.46,297,613.49,301.33,613.32Z" transform="translate(-200.57 -354.83)"/><path class="cls-13" d="M301.33,613.32c-4.32.17-8.58,1.14-12.93.79-1.9-.15-2.64,1-2.62,2.8,0,1.61,0,3.22-.07,4.84-4-.67-4-3.53-4-6.7.12-6.42,0-6.46,6.1-5.18a16.37,16.37,0,0,0,7,.08c2.13-.47,4.24-1,6.48-1.58Z" transform="translate(-200.57 -354.83)"/><path class="cls-14" d="M278.47,631.25l-22.82,9.12c-2.6-2-2.65-3.32.79-4.53a141,141,0,0,0,14-5.77C273.58,628.57,276.15,628.39,278.47,631.25Z" transform="translate(-200.57 -354.83)"/><path class="cls-3" d="M504.8,635c-4.94,1.16-9.35,3.73-14.12,5.35a2.59,2.59,0,0,0-1.74,2.17c-1.37-5.19-1.38-5.2,3.45-7.19,4-1.65,8-3.25,12-4.89A8.16,8.16,0,0,1,504.8,635Z" transform="translate(-200.57 -354.83)"/><path class="cls-12" d="M319.39,671.83l9.37-10.94c.79,3.53.27,6.65.39,9.73,0,1.3-1,1.2-1.83,1.21Z" transform="translate(-200.57 -354.83)"/><path class="cls-14" d="M391.76,617c-3.68,1.47-7.5,2.61-10.85,4.83l-3.08-3.93C382.84,617.62,386.7,611,391.76,617Z" transform="translate(-200.57 -354.83)"/><path class="cls-7" d="M446.84,524.85c-.14-.34-.28-.68-.41-1C446.56,524.17,446.7,524.51,446.84,524.85Z" transform="translate(-200.57 -354.83)"/></svg>