<svg id="Layer_1" data-name="Layer 1" xmlns="http://www.w3.org/2000/svg" viewBox="0 0 383.96 328.55"><defs><style>.cls-1{fill:#0a0908;}.cls-2{fill:#ecbf6a;}.cls-3{fill:#648bc7;}.cls-4{fill:#658bc7;}.cls-5{fill:#e3e0e3;}.cls-6{fill:#8ab3df;}.cls-7{fill:#ecbe6a;}.cls-8{fill:#e7a661;}.cls-9{fill:#e8a761;}.cls-10{fill:#aa7b64;}.cls-11{fill:#bab4ba;}.cls-12{fill:#805b49;}.cls-13{fill:#0f0b04;}.cls-14{fill:#e4a45f;}</style></defs><title>Dairy Product</title><path class="cls-1" d="M454.63,416.49c4.86.49,6.11,1.66,6.76,6.26,3.23,23-15.86,45.69-39.09,45.89-31.36.28-62.72.07-94.07.08H188.09c-6.65,0-10.17-2.39-12.6-8.45-2-5-5.3-7.51-10-7.53s-8.07,2.46-10.08,7.46c-2.47,6.14-5.93,8.51-12.54,8.52q-21.93,0-43.85,0c-10.9,0-18.52-7.54-17.91-18.5A185,185,0,0,1,97.4,384.31a192.23,192.23,0,0,1,36.8-54.62c8.16-8.53,18.88-8.44,26.82.22q5.82,6.36,11.55,12.79c3.31,3.71,3.4,5.46.66,9.59-3.63,1.91-6.58,1.18-9.24-2-3.61-4.3-7.43-8.44-11.24-12.57-3.54-3.84-6.9-3.77-10.5,0A179.79,179.79,0,0,0,112,380.28a176,176,0,0,0-18.82,63l-.69,5.57c-.71,5.93,1.67,8.62,7.72,8.62,13.61,0,27.23,0,40.84.06,2.24,0,3.47-.44,4.44-2.76,3.64-8.69,10.56-13.08,19.81-13.5,8.57-.39,16.78,5.12,20.18,13.5,1,2.4,2.25,2.76,4.46,2.75,11.86-.08,23.72,0,35.59,0q13.29,0,26.59,0c1.72,0,3.3-.26,4.13-1.95s-.16-3.1-1.3-4.32q-3.68-4-7.36-7.93Q234.73,428.89,222,414.5c-1.12-1.27-2.16-1.08-3.63-.79-15,3-29.24-8.83-26.6-23.65,1.34-7.54-1.79-11.18-5.86-15.54-.68-.73-1.36-1.46-2-2.21-3.12-3.56-3.25-5.23-.79-9.32,4.3-2.2,6-1.94,9.15,1.54,2.7,2.94,5.31,6,8,8.89,4,4.31,5.28,9,3.13,14.74-2,5.28-.33,9.48,4.34,12.72,1-1.18.5-2.59.5-3.84,0-26.74.43-53.49-.14-80.22-.27-12.77,2.72-24.31,8.21-35.57,6.71-13.74,14.28-27.05,20.22-41.17a42.54,42.54,0,0,0,3.59-17.76c-.25-11.36-.12-22.74,0-34.11a4.12,4.12,0,0,0-2.24-4.13,23.53,23.53,0,0,1-10.32-26.94,23.77,23.77,0,0,1,23.05-16.88q23.43,0,46.86,0a23.68,23.68,0,0,1,13.19,43.46,5.16,5.16,0,0,0-2.77,5.05c.2,13.61.17,27.23.33,40.84,0,3.19-1.52,5.1-4.07,6.54-5-.08-6.59-1.4-7.34-6.37a35.68,35.68,0,0,1-.34-4.84q0-17.22,0-34.43c0-1.76,0-3-2.45-3-13.47.1-27,0-40.42,0-1.81,0-2.35.63-2.34,2.39.1,12.72.13,25.44.17,38.16-.59,8.76-4.32,16.52-7.87,24.31-2.46,5.38-5.23,10.61-7.95,16.1H312.4l-4.62-9.15c-2.19-4.38-1.9-6,1.6-9.52,4-1.1,6.64.44,8.45,4.12,4.43,9,9.13,18,13.48,27,1.18,2.45,2.42,3.41,5.23,3.4,28.22-.12,56.44-.08,84.66-.07,10.47,0,16.78,6.27,16.8,16.68a27.06,27.06,0,0,1,0,3.37c-.48,3.83.46,6.21,4.34,8.41,8.33,4.73,9.55,16.3,2.89,23.23-1.86,1.93-1.62,2.86,0,4.67,5.32,6.13,10.38,12.47,15.65,18.63,1.76,2.07,2.8,4.5,4.18,6.76v6.75c-2.94,7-8,10.83-16.17,10.29,1.32,3.51,2.41,6.64,3.69,9.7,1.51,3.62,1,6.54-2.55,8.61-4.48.68-6.43-.39-8.07-4.51q-2.67-6.7-5.28-13.45c-.45-1.16-.66-2.29-2.31-2.46-4.31-.46-8.56-1.48-12.93-1.36-5.7-1.69-10.87-1.25-15.81,2.67-5.86,4.63-12.1,8.79-18.22,13.09-8.14,5.71-15.82,5.67-23.87-.06-6.29-4.48-12.65-8.89-18.82-13.54a13.7,13.7,0,0,0-10.45-3c-4.82.61-9.65,1.52-14.48,1.59-5.53.08-8.19,2.65-9.3,7.8-.57,2.64-1.94,5.1-2.76,7.7-3.17,9.93-7.1,19.7-7.84,30.23-1.07,15.15,11.18,29.77,25.53,30.75,1.19.94,2.63.68,4,.68,30.23,0,60.46.13,90.69,0,18.34-.11,31.39-14.59,30-33C449.76,420.54,451.11,418,454.63,416.49Zm-30.31-86.95c3.07.79,6.21.45,9.29.28,2.58-.14,4.52-1.51,4.42-4.51-.1-2.8-2-4-4.42-4.14-3.09-.14-6.22-.5-9.29.29-.87-.08-1.73-.24-2.6-.24q-53.06,0-106.12,0a11.73,11.73,0,0,0-3,.32,3.73,3.73,0,0,0-3,4.13,3.52,3.52,0,0,0,3,3.71,23.78,23.78,0,0,0,4.46.39q51.75,0,103.5,0C421.84,329.78,423.08,329.62,424.32,329.54Zm-11.09-33.91q-39.12-.06-78.23-.12c-10.91,0-10.83,0-10.82,11.06,0,2.61.73,3.35,3.35,3.34,19-.11,37.93,0,56.9-.06,9.85,0,19.71-.11,29.56-.16,1.37.05,2.73.15,4.1.15,9.3,0,9.28,0,8.66-9.43-.2-3.13-1.75-4.85-4.92-4.89C419,295.49,416.1,295.59,413.23,295.63Zm-123-119.48c2.61,0,5.23.18,7.85.09A12.27,12.27,0,0,0,309.76,166c.86-6.54-2.6-12-8.72-13.86-3.56-1.06-7.17-.57-10.77-.48-13.37,0-26.75-.21-40.12-.08a12.34,12.34,0,1,0,.37,24.67C263.76,176.29,277,176.2,290.26,176.15Zm23.19,173.33L299,366.58c-1,1.14-2.19,2.26-1.21,3.92s2.46.94,3.74.79c9.4-1.1,18.81-2.09,28.17-3.47,8-1.18,15.24-.32,21.85,4.89,6,4.71,12.3,8.92,18.5,13.32,4,2.85,6.89,2.86,10.93,0,6.72-4.75,13.43-9.5,20.07-14.34a21.5,21.5,0,0,1,15.44-4.29l22.27,2.35c3.62,1.05,7.37,1.15,11.07,1.57,1.36.16,2.86.46,3.64-1.1s-.56-2.56-1.39-3.56C445.55,358.75,439,350.9,432.48,343a4.42,4.42,0,0,0-3.77-1.87q-53.22.08-106.43,0a3.86,3.86,0,0,0-3.51,1.61C317.09,345.05,315.23,347.24,313.45,349.48Zm-9.77-69.42L230.27,280c-.52-.23-.67.05-.69.5q-2.4,4.85-4.79,9.67A50.71,50.71,0,0,0,219.56,314c.3,27.87.11,55.74.11,83.61,0,.87.05,1.75,0,2.62-.07,1.18.21,1.81,1.61,1.84,3.91.09,6.71,2.28,9.2,5.07,10.59,11.82,21.15,23.66,31.85,35.37,3.41,3.75,6,7.66,5.43,13-.15,1.35.14,2.05,1.75,2,10.31-.06,20.62,0,30.89,0,0-.48.1-.63.05-.69-.47-.59-.94-1.17-1.43-1.73-9.46-10.8-12.6-23.24-9.52-37.23a249.61,249.61,0,0,1,9.81-32.06c.51-1.39,1.45-2.5-1.2-3-12.13-2.41-15.93-13.44-8-23.08,5.5-6.73,11.07-13.41,16.63-20.13-6.24-4.15-9.2-9.32-8.63-15,.6-6.06,3.4-11.46,9.21-12.89,6-1.49,6-4.84,5.55-9.34-.11-1-.1-2-.14-3,.93-4.44,2.36-8.59,6.07-11.61.86-.7,3.11-.93,1.82-2.89s-1-5.12-4.61-4.92C311.88,280.06,307.78,280,303.68,280.06Z" transform="translate(-81.04 -140.24)"/><path class="cls-2" d="M183.06,363c-2.46,4.09-2.33,5.76.79,9.32.66.75,1.34,1.48,2,2.21,4.07,4.36,7.2,8,5.86,15.54-2.64,14.82,11.6,26.64,26.6,23.65,1.47-.29,2.51-.48,3.63.79q12.73,14.42,25.58,28.74c-.74.94-1.78.76-2.76.76q-28.84,0-57.68,0a6,6,0,0,1-6.22-4.39c-2.43-6.92-7.14-11.05-14.59-11.33-8-.31-12.67,2.84-16,10.76-1.52,3.57-3.87,5.06-7.79,5-13.24-.15-26.47-.06-39.7-.06-3.23,0-6.48.19-9.63-.77a176,176,0,0,1,18.82-63,179.79,179.79,0,0,1,30.3-42.55c3.6-3.77,7-3.84,10.5,0,3.81,4.13,7.63,8.27,11.24,12.57,2.66,3.17,5.61,3.9,9.24,2ZM129.7,391.86a17.42,17.42,0,0,0,17.44,17.64,17.62,17.62,0,1,0,0-35.24A17.44,17.44,0,0,0,129.7,391.86Z" transform="translate(-81.04 -140.24)"/><path class="cls-3" d="M309.38,249.76c-3.5,3.47-3.79,5.14-1.6,9.52l4.62,9.15H297.65c-3.54-7.15-7.2-14.24-10.6-21.45-3.74-7.93-6.35-16.07-5.93-25.13.47-10,0-19.95.18-29.93.06-3-.93-3.82-3.83-3.74-7.23.18-14.47.22-21.7,0-3.28-.11-3.9,1.14-3.86,4.1.16,10.6.08,21.2.05,31.8,0,1.33.41,2.76-.58,4,0-12.72-.07-25.44-.17-38.16,0-1.76.53-2.4,2.34-2.39,13.47.07,26.95.12,40.42,0,2.49,0,2.46,1.26,2.45,3q0,17.22,0,34.43a35.68,35.68,0,0,0,.34,4.84c.75,5,2.32,6.29,7.34,6.37C305.24,240.93,307.61,245.23,309.38,249.76Z" transform="translate(-81.04 -140.24)"/><path class="cls-4" d="M421.38,379.57c4.37-.12,8.62.9,12.93,1.36,1.65.17,1.86,1.3,2.31,2.46q2.6,6.74,5.28,13.45c1.64,4.12,3.59,5.19,8.07,4.51q2.32,7.56,4.66,15.14c-3.52,1.51-4.87,4.05-4.58,8,1.36,18.41-11.69,32.89-30,33-30.23.17-60.46.06-90.69,0-1.34,0-2.78.26-4-.68q45.56,0,91.11,0c2,0,4.06.17,5.72-1.24,7.91-6.77,12.89-15.06,13.59-25.69.66-9.9-3-18.84-6.09-27.9C427.16,394.42,424.17,387,421.38,379.57Z" transform="translate(-81.04 -140.24)"/><path class="cls-5" d="M230.27,280l73.41.05a185.61,185.61,0,0,1,7.52,17.82c.27.8.63,1.31,1.49,1.39,0,1,0,2,.14,3,.49,4.5.46,7.85-5.55,9.34-5.81,1.43-8.61,6.83-9.21,12.89-.57,5.68,2.39,10.85,8.63,15-5.56,6.72-11.13,13.4-16.63,20.13-7.89,9.64-4.09,20.67,8,23.08,2.65.53,1.71,1.64,1.2,3a249.61,249.61,0,0,0-9.81,32.06c-3.08,14,.06,26.43,9.52,37.23.49.56,1,1.14,1.43,1.73.05.06,0,.21-.05.69-10.27,0-20.58,0-30.89,0-1.61,0-1.9-.69-1.75-2,.56-5.31-2-9.22-5.43-13-10.7-11.71-21.26-23.55-31.85-35.37-2.49-2.79-5.29-5-9.2-5.07-1.4,0-1.68-.66-1.61-1.84.05-.87,0-1.75,0-2.62,0-27.87.19-55.74-.11-83.61a50.71,50.71,0,0,1,5.23-23.77q2.4-4.83,4.79-9.67Z" transform="translate(-81.04 -140.24)"/><path class="cls-6" d="M421.38,379.57c2.79,7.46,5.78,14.85,8.31,22.4,3,9.06,6.75,18,6.09,27.9-.7,10.63-5.68,18.92-13.59,25.69-1.66,1.41-3.72,1.24-5.72,1.24q-45.56,0-91.11,0c-14.35-1-26.6-15.6-25.53-30.75.74-10.53,4.67-20.3,7.84-30.23.82-2.6,2.19-5.06,2.76-7.7,1.11-5.15,3.77-7.72,9.3-7.8,4.83-.07,9.66-1,14.48-1.59a13.7,13.7,0,0,1,10.45,3c6.17,4.65,12.53,9.06,18.82,13.54,8,5.73,15.73,5.77,23.87.06,6.12-4.3,12.36-8.46,18.22-13.09C410.51,378.32,415.68,377.88,421.38,379.57Z" transform="translate(-81.04 -140.24)"/><path class="cls-7" d="M438.74,369.75l-22.27-2.35A21.5,21.5,0,0,0,401,371.69c-6.64,4.84-13.35,9.59-20.07,14.34-4,2.86-6.91,2.85-10.93,0-6.2-4.4-12.54-8.61-18.5-13.32-6.61-5.21-13.86-6.07-21.85-4.89-9.36,1.38-18.77,2.37-28.17,3.47-1.28.15-2.83.74-3.74-.79s.24-2.78,1.21-3.92l14.47-17.1q53.57,0,107.13,0c2.6,0,4.55.64,6.17,2.67,2.39,3,5,5.84,7.33,8.93C436,363.69,438.71,366,438.74,369.75Z" transform="translate(-81.04 -140.24)"/><path class="cls-6" d="M251.38,228c1-1.2.57-2.63.58-4,0-10.6.11-21.2-.05-31.8,0-3,.58-4.21,3.86-4.1,7.23.24,14.47.2,21.7,0,2.9-.08,3.89.71,3.83,3.74-.19,10,.29,20-.18,29.93-.42,9.06,2.19,17.2,5.93,25.13,3.4,7.21,7.06,14.3,10.6,21.45H235.56c2.72-5.49,5.49-10.72,7.95-16.1C247.06,244.54,250.79,236.78,251.38,228Z" transform="translate(-81.04 -140.24)"/><path class="cls-8" d="M93.13,443.23c3.15,1,6.4.77,9.63.77,13.23,0,26.46-.09,39.7.06,3.92.05,6.27-1.44,7.79-5,3.37-7.92,8-11.07,16-10.76,7.45.28,12.16,4.41,14.59,11.33A6,6,0,0,0,187.1,444q28.85,0,57.68,0c1,0,2,.18,2.76-.76q3.68,4,7.36,7.93c1.14,1.22,2.18,2.54,1.3,4.32s-2.41,1.95-4.13,1.95q-13.29,0-26.59,0c-11.87,0-23.73,0-35.59,0-2.21,0-3.48-.35-4.46-2.75-3.4-8.38-11.61-13.89-20.18-13.5-9.25.42-16.17,4.81-19.81,13.5-1,2.32-2.2,2.77-4.44,2.76-13.61-.1-27.23,0-40.84-.06-6,0-8.43-2.69-7.72-8.62Z" transform="translate(-81.04 -140.24)"/><path class="cls-2" d="M290.26,176.15c-13.25,0-26.5.14-39.74.11a12.34,12.34,0,1,1-.37-24.67c13.37-.13,26.75,0,40.12.08C297,159,296,170.46,290.26,176.15Z" transform="translate(-81.04 -140.24)"/><path class="cls-2" d="M414,309.69c-9.85.05-19.71.14-29.56.16-19,0-37.94-.05-56.9.06-2.62,0-3.34-.73-3.35-3.34,0-11.07-.09-11.08,10.82-11.06q39.12,0,78.23.12C414.44,300.27,413.88,305,414,309.69Z" transform="translate(-81.04 -140.24)"/><path class="cls-9" d="M438.74,369.75c0-3.71-2.7-6.06-4.66-8.7-2.29-3.09-4.94-5.91-7.33-8.93-1.62-2-3.57-2.67-6.17-2.67q-53.56.1-107.13,0c1.78-2.24,3.64-4.43,5.32-6.74a3.86,3.86,0,0,1,3.51-1.61q53.21,0,106.43,0a4.42,4.42,0,0,1,3.77,1.87c6.5,7.91,13.07,15.76,19.58,23.67.83,1,2.19,1.95,1.39,3.56s-2.28,1.26-3.64,1.1C446.11,370.9,442.36,370.8,438.74,369.75Z" transform="translate(-81.04 -140.24)"/><path class="cls-10" d="M424.32,329.54c-1.24.08-2.48.24-3.72.24q-51.75,0-103.5,0a23.78,23.78,0,0,1-4.46-.39,3.52,3.52,0,0,1-3-3.71,3.73,3.73,0,0,1,3-4.13,11.73,11.73,0,0,1,3-.32q53.06,0,106.12,0c.87,0,1.73.16,2.6.24A30.36,30.36,0,0,1,424.32,329.54Z" transform="translate(-81.04 -140.24)"/><path class="cls-8" d="M290.26,176.15c5.69-5.69,6.72-17.18,0-24.48,3.6-.09,7.21-.58,10.77.48,6.12,1.84,9.58,7.32,8.72,13.86a12.27,12.27,0,0,1-11.65,10.23C295.49,176.33,292.87,176.19,290.26,176.15Z" transform="translate(-81.04 -140.24)"/><path class="cls-9" d="M414,309.69c-.11-4.69.45-9.42-.76-14.06,2.87,0,5.73-.14,8.6-.11,3.17,0,4.72,1.76,4.92,4.89.62,9.44.64,9.45-8.66,9.43C416.72,309.84,415.36,309.74,414,309.69Z" transform="translate(-81.04 -140.24)"/><path class="cls-11" d="M312.69,299.27c-.86-.08-1.22-.59-1.49-1.39a185.61,185.61,0,0,0-7.52-17.82c4.1-.06,8.2,0,12.29-.21,3.63-.2,3.39,3,4.61,4.92s-1,2.19-1.82,2.89C315.05,290.68,313.62,294.83,312.69,299.27Z" transform="translate(-81.04 -140.24)"/><path class="cls-12" d="M424.32,329.54a30.36,30.36,0,0,0,0-8.08c3.07-.79,6.2-.43,9.29-.29,2.4.11,4.32,1.34,4.42,4.14.1,3-1.84,4.37-4.42,4.51C430.53,330,427.39,330.33,424.32,329.54Z" transform="translate(-81.04 -140.24)"/><path class="cls-11" d="M230.27,280l-.69.5C229.6,280.06,229.75,279.78,230.27,280Z" transform="translate(-81.04 -140.24)"/><path class="cls-13" d="M129.7,391.86a17.44,17.44,0,0,1,17.48-17.6,17.62,17.62,0,1,1,0,35.24A17.42,17.42,0,0,1,129.7,391.86Zm17.69,6.37a6.34,6.34,0,1,0-.27-12.68,6.34,6.34,0,0,0,.27,12.68Z" transform="translate(-81.04 -140.24)"/><path class="cls-14" d="M147.39,398.23a6.34,6.34,0,0,1-.27-12.68,6.34,6.34,0,1,1,.27,12.68Z" transform="translate(-81.04 -140.24)"/></svg>