<svg id="Layer_1" data-name="Layer 1" xmlns="http://www.w3.org/2000/svg" viewBox="0 0 349.87 349.87"><defs><style>.cls-1{fill:#e4f5fa;}.cls-2{fill:#0b0a0a;}.cls-3{fill:#edeaed;}.cls-4{fill:#d5d3d5;}.cls-5{fill:#bdd7ef;}.cls-6{fill:#cf8f7f;}.cls-7{fill:#fff;}</style></defs><title>Dairy</title><rect class="cls-1" width="349.87" height="349.87" rx="23.29"/><path class="cls-2" d="M369.66,477.09c3.26.57,4.33,1.79,4.34,5.11,0,8.21.05,16.41,0,24.62a14.59,14.59,0,0,1-14.74,14.71q-82.72,0-165.45,0A23.51,23.51,0,0,1,170,497.58q0-61.4,0-122.79c0-5.1,0-10.21,0-15.31a5.57,5.57,0,0,0-1.14-3.51,61.58,61.58,0,0,1-11.46-36q0-13.8,0-27.62c0-11.33,8.27-19.55,19.66-19.65,2.83,0,5.66-.09,8.48,0,1.56.07,2.13-.42,1.94-2a15.55,15.55,0,0,1,0-2.73c.06-.95-.17-1.31-1.26-1.55-6.87-1.53-10.76-5.59-11.26-11.54-.43-5.19,3-11.44,9.08-13.06.08,0,.1-.28.15-.43h54.16c1.29,1.18,2.44,2.44,2.56,4.32-.78,2.89-2.62,4-5.63,3.93-15.67-.09-31.34,0-47,0-3,0-5,1.81-5,4.29s1.92,4.13,4.73,4.31c.54,0,1.09,0,1.64,0l112.89,0a14.84,14.84,0,0,0,3-.15,4.24,4.24,0,0,0,3.15-6.08c-1-2-2.9-2.48-5.07-2.47-15.4,0-30.8,0-46.2.08-3.07,0-5.09-.89-6-3.89a6.07,6.07,0,0,1,2.75-4.37h53.61c4.44,1.83,8.07,4.5,9.25,9.47,1.71,7.25-2.56,13.73-10.09,15.52-.66.16-1.89-.4-1.9.92,0,1.7-.38,3.45.26,5.08.11.27,1.16.21,1.77.24,4,.19,8-.34,12,.39,9.25,1.7,15.85,9,15.91,18.41.07,11.65.57,23.32-.37,35A44.9,44.9,0,0,1,332,338.91c-1,2.58-.19,3,2.22,2.84,3.17-.18,6.37-.07,9.56,0,7.33.09,11.64,4.43,11.7,11.76,0,1.64,0,3.28,0,4.92a9.83,9.83,0,0,1-4.93,8.87,3.24,3.24,0,0,0-1.69,3.28A56.81,56.81,0,0,0,359.54,404a77.43,77.43,0,0,1,13.67,33.44c1.24,8.25.75,16.55.74,24.83,0,2.58-1.84,3.79-4.29,4.08-2.81-.66-4.08-2.37-3.92-5.3.14-2.45,0-4.91,0-7.36a80.61,80.61,0,0,0-2.57-23.45c-.53-1.88-1-2.45-3-1.62a30.63,30.63,0,0,1-16.48,2.22,38.73,38.73,0,0,1-14.66-5.38c-3-1.81-6-3.66-9.65-4.09-5.89-1.76-11.45-.64-16.89,1.83a5.18,5.18,0,0,0-2.89,3.34A71.44,71.44,0,0,0,296,449.87q0,27.35,0,54.7a18.61,18.61,0,0,0,.17,3,6.32,6.32,0,0,0,6.51,5.74c4.28.06,8.56,0,12.84-.07l42.34.09c5.48,0,7.92-2.48,7.92-8,0-7.74.06-15.48,0-23.22C365.72,479.24,366.88,477.58,369.66,477.09ZM326,350.26c-1.46-.05-2.91-.13-4.36-.15-7.86-.12-7.18-.25-7.16,7.62,0,2,.94,3,3,3,2.83-.07,5.65-.07,8.47-.1,6.11,0,12.21,0,18.32.1,2.25,0,3-1.11,3-3.23.1-6.4-.11-7.31-2.74-7.34C338.33,350.07,332.14,350.21,326,350.26ZM217.58,266.67c-6.74,0-13.47,0-20.2-.12-1.29,0-1.81.34-1.7,1.67s0,2.55,0,3.82c.5,9.82-3,18.13-9.54,25.27-1.6,1.74-3.15,3.53-4.81,5.22a10.41,10.41,0,0,0-3.1,7.6q0,21.44,0,42.87a3.47,3.47,0,0,0,.66,2.55,55.71,55.71,0,0,0,15,12c.92.5,1.52.58,1.64-.71.32-3.39,2.42-5.51,5.15-7.18a8.94,8.94,0,0,1,10.11,2.78c1.4,1.62,2.39,1.26,3.83.23a27.13,27.13,0,0,1,14.88-5.42q16.66-.6,33.33,0a26.66,26.66,0,0,1,14.86,5.43c1.67,1.22,2.64,1.13,4-.43,2.4-2.69,5.43-3.9,9.08-2.69a8.65,8.65,0,0,1,6,6.8,16.9,16.9,0,0,1,.19,1.89,54.1,54.1,0,0,0,8.81-5.52,1.54,1.54,0,0,0,.77-1.83c-.83-2.77-.43-5.62-.39-8.42a10,10,0,0,1,5.89-9.39c1.75-.83,2.06-1.85,2.05-3.55-.07-9.48-.1-18.95,0-28.43a12.31,12.31,0,0,0-3.89-9.51,63.53,63.53,0,0,1-8.42-10c-4.53-6.75-5.56-14.31-5-22.16.16-2.5-.67-3-3-2.94-11.75.13-23.51.05-35.26.06Q238.07,266.6,217.58,266.67ZM206.64,513.22c.45,0,.91.1,1.36.1h79.86c.39,0,.89.21,1.2-.36a22.17,22.17,0,0,1-1.38-8.52c0-18.23,0-36.46,0-54.7a87.87,87.87,0,0,1,.61-10.63,76.23,76.23,0,0,1,13.73-34.85,56.89,56.89,0,0,0,9.28-20.15A50.39,50.39,0,0,0,312.6,368a65.45,65.45,0,0,1-14.38,9c-1.23.54-1.24,1.35-1.26,2.38,0,2.09.3,4.21-.32,6.25-2,6.6-9.77,8.34-14.82,3.17-1.59-1.63-2.54-1.54-4.25-.32a27.35,27.35,0,0,1-14.11,5.25c-9.29.64-18.59.05-27.88.31-7.87.22-15.18-1.33-21.58-6.13a1.71,1.71,0,0,0-2.75.29c-2.82,3.27-6.29,4.48-10.51,3.14-3.61-2.07-5.76-5.12-5.31-9.33.36-3.43-.77-5.41-4-6.43a20.83,20.83,0,0,1-3.58-1.95c-3.31-1.83-6.18-4.33-9.56-6.79v73.53c0,18.95,0,37.89,0,56.84,0,8.89,6.09,15.73,14.45,16.12C197.34,513.47,202,513.25,206.64,513.22Zm99.63-100.17c3.73-.5,7.18-1.12,10.78-.69,6.38.76,11.95,3.38,17.38,6.62a25.11,25.11,0,0,0,23.25,1.92c1.44-.58,1.73-1.2.91-2.52-2.22-3.54-4.28-7.18-6.57-10.67-7.36-11.21-11.66-23.34-11.33-36.89,0-1.62-.55-1.94-2-1.92-4.83.09-9.67.16-14.49,0-2.36-.08-3.27.39-3.22,3,.21,11.94-3.3,22.88-9.53,33C309.78,407.62,308.05,410.26,306.27,413.05Zm-17.76-45.54a10.32,10.32,0,0,0-1.11.77c-5,4.83-8.56,5.14-14.24,1.23a22.07,22.07,0,0,0-13-4.08c-8,.08-16.05.22-24.06,0-6.8-.23-12.91,1.06-18.48,5.2-3.66,2.72-8.16,2-11.48-1.19-.6-.57-.89-1.65-2.14-1.51V383.4a4.45,4.45,0,0,0,.9-.48c5.31-5.17,8.52-5.5,14.63-1.34a22.44,22.44,0,0,0,13.09,4c8.47-.06,16.95-.16,25.42,0a25.83,25.83,0,0,0,16.37-4.93c4.16-3,8.61-2.4,12.34,1.26.48.47.74,1.3,1.8,1.17ZM186.23,281.12c-3.56,0-6.84-.15-10.11,0-6.06.34-10.32,4.42-10.35,10.5-.06,11.64-.6,23.31.42,34.94A41,41,0,0,0,170,340.67c0-8.1,0-15.38,0-22.66-.06-14.39-.63-15.14,10-26.21A23.29,23.29,0,0,0,186.23,281.12Zm120,.13a19.79,19.79,0,0,0,4,7.83c2.27,2.73,4.67,5.34,7.08,7.95a17.37,17.37,0,0,1,4.91,10.1,47.36,47.36,0,0,1,.29,4.9c0,9.15,0,18.3,0,27.46A28.66,28.66,0,0,0,325.89,329c1.47-12.79.68-25.64.58-38.46a9.64,9.64,0,0,0-9.1-9.25C313.76,281,310.11,281.25,306.22,281.25Z" transform="translate(-90.79 -171.67)"/><path class="cls-3" d="M319.44,421.37c3.61.43,6.63,2.28,9.65,4.09a38.73,38.73,0,0,0,14.66,5.38,30.63,30.63,0,0,0,16.48-2.22c2-.83,2.44-.26,3,1.62a80.61,80.61,0,0,1,2.57,23.45c0,2.45.11,4.91,0,7.36-.16,2.93,1.11,4.64,3.92,5.3v10.74c-2.78.49-3.94,2.15-3.92,5,.08,7.74,0,15.48,0,23.22,0,5.56-2.44,8.05-7.92,8l-42.34-.09c-.18-2.16-1.16-4.15-1.13-6.39.37-21.54-.58-43.08.52-64.62a101.07,101.07,0,0,1,2.79-18.73C317.92,422.47,318.2,421.54,319.44,421.37Z" transform="translate(-90.79 -171.67)"/><path class="cls-3" d="M200.74,391.26c4.22,1.34,7.69.13,10.51-3.14a1.71,1.71,0,0,1,2.75-.29c6.4,4.8,13.71,6.35,21.58,6.13,9.29-.26,18.59.33,27.88-.31a27.35,27.35,0,0,0,14.11-5.25c1.71-1.22,2.66-1.31,4.25.32,5.05,5.17,12.81,3.43,14.82-3.17.62-2,.28-4.16.32-6.25,0-1,0-1.84,1.26-2.38a65.45,65.45,0,0,0,14.38-9,50.39,50.39,0,0,1-1.26,16.14,56.89,56.89,0,0,1-9.28,20.15,76.23,76.23,0,0,0-13.73,34.85,87.87,87.87,0,0,0-.61,10.63c-.06,18.24,0,36.47,0,54.7a22.17,22.17,0,0,0,1.38,8.52c-.31.57-.81.36-1.2.36H208c-.45,0-.91-.07-1.36-.1-.08-1.14-1-1.65-1.7-2.39A17.47,17.47,0,0,1,200.08,499q0-52.5,0-105C200.07,393.08,199.71,392,200.74,391.26Z" transform="translate(-90.79 -171.67)"/><path class="cls-3" d="M217.58,266.67q20.49-.06,41-.1c11.75,0,23.51.07,35.26-.06,2.33,0,3.16.44,3,2.94-.52,7.85.51,15.41,5,22.16a63.53,63.53,0,0,0,8.42,10,12.31,12.31,0,0,1,3.89,9.51c-.1,9.48-.07,18.95,0,28.43,0,1.7-.3,2.72-2.05,3.55a10,10,0,0,0-5.89,9.39c0,2.8-.44,5.65.39,8.42a1.54,1.54,0,0,1-.77,1.83,54.1,54.1,0,0,1-8.81,5.52,16.9,16.9,0,0,0-.19-1.89,8.65,8.65,0,0,0-6-6.8c-3.65-1.21-6.68,0-9.08,2.69-1.39,1.56-2.36,1.65-4,.43a26.66,26.66,0,0,0-14.86-5.43q-16.66-.6-33.33,0a27.13,27.13,0,0,0-14.88,5.42c-1.44,1-2.43,1.39-3.83-.23a8.94,8.94,0,0,0-10.11-2.78c-1-.73-.67-1.82-.67-2.77q0-23.91,0-47.82a11.82,11.82,0,0,1,2.64-7.56c1.69-2.13,3.64-4.06,5.44-6.09a45.18,45.18,0,0,0,5.69-7.61C217.58,281.19,217.72,274,217.58,266.67Z" transform="translate(-90.79 -171.67)"/><path class="cls-4" d="M200.74,391.26c-1,.73-.67,1.82-.67,2.77q0,52.5,0,105a17.47,17.47,0,0,0,4.86,11.79c.65.74,1.62,1.25,1.7,2.39-4.64,0-9.3.25-13.93,0-8.36-.39-14.43-7.23-14.45-16.12,0-18.95,0-37.89,0-56.84V366.76c3.38,2.46,6.25,5,9.56,6.79a20.83,20.83,0,0,0,3.58,1.95c3.27,1,4.4,3,4,6.43C195,386.14,197.13,389.19,200.74,391.26Z" transform="translate(-90.79 -171.67)"/><path class="cls-4" d="M217.58,266.67c.14,7.3,0,14.52-3.75,21.16a45.18,45.18,0,0,1-5.69,7.61c-1.8,2-3.75,4-5.44,6.09a11.82,11.82,0,0,0-2.64,7.56q0,23.91,0,47.82c0,.95-.35,2,.67,2.77-2.73,1.67-4.83,3.79-5.15,7.18-.12,1.29-.72,1.21-1.64.71a55.71,55.71,0,0,1-15-12,3.47,3.47,0,0,1-.66-2.55q0-21.44,0-42.87a10.41,10.41,0,0,1,3.1-7.6c1.66-1.69,3.21-3.48,4.81-5.22,6.58-7.14,10-15.45,9.54-25.27-.06-1.27.08-2.55,0-3.82s.41-1.69,1.7-1.67C204.11,266.63,210.84,266.64,217.58,266.67Z" transform="translate(-90.79 -171.67)"/><path class="cls-4" d="M319.44,421.37c-1.24.17-1.52,1.1-1.76,2.12a101.07,101.07,0,0,0-2.79,18.73c-1.1,21.54-.15,43.08-.52,64.62,0,2.24.95,4.23,1.13,6.39-4.28,0-8.56.13-12.84.07a6.32,6.32,0,0,1-6.51-5.74,18.61,18.61,0,0,1-.17-3q0-27.35,0-54.7a71.44,71.44,0,0,1,3.68-23.33,5.18,5.18,0,0,1,2.89-3.34C308,420.73,313.55,419.61,319.44,421.37Z" transform="translate(-90.79 -171.67)"/><path class="cls-5" d="M306.27,413.05c1.78-2.79,3.51-5.43,5.16-8.11,6.23-10.12,9.74-21.06,9.53-33,0-2.65.86-3.12,3.22-3,4.82.16,9.66.09,14.49,0,1.47,0,2.05.3,2,1.92-.33,13.55,4,25.68,11.33,36.89,2.29,3.49,4.35,7.13,6.57,10.67.82,1.32.53,1.94-.91,2.52A25.11,25.11,0,0,1,334.43,419c-5.43-3.24-11-5.86-17.38-6.62C313.45,411.93,310,412.55,306.27,413.05Z" transform="translate(-90.79 -171.67)"/><path class="cls-6" d="M288.51,367.51v15.58c-1.06.13-1.32-.7-1.8-1.17-3.73-3.66-8.18-4.28-12.34-1.26A25.83,25.83,0,0,1,258,385.59c-8.47-.2-16.95-.1-25.42,0a22.44,22.44,0,0,1-13.09-4c-6.11-4.16-9.32-3.83-14.63,1.34a4.45,4.45,0,0,1-.9.48V367.89c1.25-.14,1.54.94,2.14,1.51,3.32,3.15,7.82,3.91,11.48,1.19,5.57-4.14,11.68-5.43,18.48-5.2,8,.26,16,.12,24.06,0a22.07,22.07,0,0,1,13,4.08c5.68,3.91,9.23,3.6,14.24-1.23A10.32,10.32,0,0,1,288.51,367.51Z" transform="translate(-90.79 -171.67)"/><path class="cls-4" d="M240.92,245.76l10.55.05c.88,3,2.9,3.91,6,3.89,15.4-.12,30.8,0,46.2-.08,2.17,0,4,.45,5.07,2.47a4.24,4.24,0,0,1-3.15,6.08,14.84,14.84,0,0,1-3,.15l-112.89,0c-.55,0-1.1,0-1.64,0-2.81-.18-4.72-1.92-4.73-4.31s2-4.28,5-4.29c15.67,0,31.34-.08,47,0C238.3,249.71,240.14,248.65,240.92,245.76Z" transform="translate(-90.79 -171.67)"/><path class="cls-7" d="M186.23,281.12A23.29,23.29,0,0,1,180,291.8c-10.61,11.07-10,11.82-10,26.21,0,7.28,0,14.56,0,22.66a41,41,0,0,1-3.81-14.07c-1-11.63-.48-23.3-.42-34.94,0-6.08,4.29-10.16,10.35-10.5C179.39,281,182.67,281.12,186.23,281.12Z" transform="translate(-90.79 -171.67)"/><path class="cls-7" d="M306.22,281.25c3.89,0,7.54-.22,11.15.05a9.64,9.64,0,0,1,9.1,9.25c.1,12.82.89,25.67-.58,38.46a28.66,28.66,0,0,1-3.39,10.48c0-9.16,0-18.31,0-27.46a47.36,47.36,0,0,0-.29-4.9,17.37,17.37,0,0,0-4.91-10.1c-2.41-2.61-4.81-5.22-7.08-7.95A19.79,19.79,0,0,1,306.22,281.25Z" transform="translate(-90.79 -171.67)"/><path class="cls-3" d="M326,350.26c6.19-.05,12.38-.19,18.57-.11,2.63,0,2.84.94,2.74,7.34,0,2.12-.78,3.26-3,3.23-6.11-.06-12.21-.07-18.32-.1C325.92,357.17,325.93,353.71,326,350.26Z" transform="translate(-90.79 -171.67)"/><path class="cls-5" d="M326,350.26c0,3.45,0,6.91,0,10.36-2.82,0-5.64,0-8.47.1-2.07,0-3-1-3-3,0-7.87-.7-7.74,7.16-7.62C323,350.13,324.49,350.21,326,350.26Z" transform="translate(-90.79 -171.67)"/></svg>