<svg id="Layer_1" data-name="Layer 1" xmlns="http://www.w3.org/2000/svg" viewBox="0 0 384.03 363"><defs><style>.cls-1{fill:#0d0907;}.cls-2{fill:#f17e86;}.cls-3{fill:#fdde7d;}.cls-4{fill:#ffe07e;}.cls-5{fill:#ebe9ea;}.cls-6{fill:#6f6572;}.cls-7{fill:#ef6672;}.cls-8{fill:#fbc16b;}.cls-9{fill:#d9d6d9;}.cls-10{fill:#fcebe3;}.cls-11{fill:#5d5360;}.cls-12{fill:#eeb967;}.cls-13{fill:#de606c;}.cls-14{fill:#e1c5b9;}.cls-15{fill:#d55e68;}</style></defs><title>Delivery</title><path class="cls-1" d="M124.8,432.82c-3.65-2.6-4.26-5.75-2.88-10.08,3.38-10.65,6.27-21.45,9.53-32.78-2.29,0-4.33.08-6.36,0-3.64-.18-5.79-2.29-5.82-5.93-.06-10.13-.12-20.25,0-30.37.1-6.38,5.06-10,11.31-8.09,10.33,3.14,20.78,6.11,30.78,10.13,9,3.61,17.85,3.79,27.08,2.69,4.34-.52,8.72-1.29,13.05-1.12,4.57.18,7.46-2.23,10.92-4.54,7.23-4.83,10.35-11.07,9.71-19.69-.23-3.15.65-6.45,1.47-9.56.63-2.41.18-3.24-2.29-4-14.76-4.4-23.83-14.38-27.54-29.21a27.3,27.3,0,0,1-.71-11.89c.46-2.27-.11-2.66-2.27-2.75-5-.2-7-2.48-6.89-7.3.6-22.79,17.58-42.58,39.84-46.41a47.6,47.6,0,0,1,54.41,36.36c3.79,17.06.35,32.65-10.56,46.44-.89,1.13-2.29,1.91-.23,3.47,14.45,11,23,26.12,28.62,42.91,7.33,21.74,9.71,44.22,8.56,67.12-.11,2-2,4.63-.4,5.89,1.33,1.05,4.07.37,6.18.38,4.63,0,9.26-.19,13.87.08,2.88.16,3.48-.75,3.47-3.52-.12-23.25,0-46.5-.1-69.74,0-5,.83-9.69,3.92-13.74,4-5.27,9.25-8.3,16-8.32q33-.06,66,0a20,20,0,0,1,20,20q.11,33.19,0,66.37a20,20,0,0,1-19.85,20.16c-8.62.11-17.25.12-25.87,0-2.47-.05-3.2.63-3.08,3.09.21,4,0,8,.07,12a14.15,14.15,0,0,1-4.83,11.31c-1.27,1.14-1.73,2-.94,3.69,7.51,15.91,8.62,32.65,5.87,49.73-.95,5.92,1.34,11.31,1.54,17,.28,8.37-1.56,10.74-9.78,10.72-2.47,0-3.41.74-3.94,3.16a47.84,47.84,0,0,1-93.56,0c-.55-2.6-1.61-3.1-4-3.1q-55.5.09-111,0c-2.08,0-3.42.1-3.74,2.8-.82,6.89-3.77,8.91-10.48,7.07-3.45-.94-5.09-.67-6.86,3-8.08,16.95-26.72,26.35-45.28,23.4a43.22,43.22,0,0,1-35.6-36.08,3.08,3.08,0,0,1-.11-.74c.32-6.62-.74-12.09-9.25-12.17-1.12,0-2.22-1.71-3.33-2.63v-5.25c2.14-4.27,3.21-9,5.66-13.14,10.54-17.84,26-27.72,46.75-29.09,2.86-.19,4-1.07,4.7-3.82,2-7.94,4.46-15.78,6.73-23.66,1.45-5,2.65-6,7.86-6.15,4.21,3,4.65,4.2,3.22,9.12-2.44,8.47-4.82,17-7.47,25.35-.83,2.62-.34,4.31,1.46,6.3,12.71,14,25.3,28.21,38,42.32.7.78,1.18,2,2.63,1.71h8.77a8,8,0,0,0-.24-1.07c-.69-1.74-1.38-3.47-2.09-5.2-9.06-21.87-15.6-44.36-16.61-68.18-.91-21.65,2.73-42.68,9.14-63.29,1.24-4,1.25-4-3.11-4-1.62,0-3.24.08-4.86.13-6.54-.37-6.53-.37-8.35,5.89q-4.37,15-8.77,29.91C131.22,431.55,130.36,432.3,124.8,432.82Zm60.74-59.25c-.18-1.33,1.4-3.64-1.51-3.54-3.72.12-7.44.65-11.15,1-1.55.16-2.93.65-3.44,2.36-1.31,3.86-.55,5.17,3.13,5.26,2.83.06,5.67,0,8.51,0C186,378.7,186,378.7,185.54,373.57ZM130.67,378c.12.2.25.57.37.57,8.24.05,16.48,0,24.73.1,1.6,0,1.88-.79,1.76-2.1-.31-3.34.66-6.4,2.21-9.59L153,364.75l-22.32-7.37Zm66.6-3.77c.34,1.53-1.65,4.22,1.59,4.32,6.6.22,13.21.09,19.81,0a5,5,0,0,0,2.33-1.05q12.85-8.31,25.68-16.67a17.74,17.74,0,0,0,4.84-4.62c2.41-3.43,2.32-6.25-.18-9.89-3.84-4.25-8.07-4.82-12.77-1.1-5.94,4.72-11.83,9.55-17.31,14.79s-11.48,9.46-19.65,8.65C197.2,368.23,196.43,370.6,197.27,374.24Zm57.8-73.47,0,0c14.59-11.57,17.53-36.84,6.15-52.83-8.89-12.48-24.69-18.34-38-14.09-12.1,1.92-23.92,14-26.83,27.21-.57,2.57-.08,3.12,2.46,3.1,11.23-.12,22.47-.06,33.7-.05,10.85,0,14.83,4,14.84,14.94,0,8.81,0,17.62,0,26.93,2.78-1.42,5.05-2.58,6.86-4.49Zm-21.84,8.87c2.12.46,2.91-.37,2.89-2.55q-.1-14.44,0-28.87c0-1.8-.37-2.79-2.45-2.78q-13.32.1-26.62,0c-2.15,0-2.57,1-2.27,2.81C201.53,294.64,215.75,310.31,233.23,309.64ZM408,384c1.86.06,3.72.15,5.58.16,9,0,9,0,8.72-9,0-.25,0-.5,0-.75.17-1.58-.5-2.27-2.12-2.19-4.09.2-8.2-.35-12.28.3-3.24-.08-6.48-.22-9.72-.21q-29.24.06-58.45.18c-.37-.32-.48-.12-.51.25-.08,3-.06,6-.27,8.93-.15,2.07.74,2.45,2.59,2.44Q374.76,384,408,384ZM121.59,563.4c5.15-2.32,8.11-6.72,10.93-11.32,1.27-2.06.73-2.67-1.48-3.17-18.12-4.14-36.21-8.42-54.32-12.58-4.23-1-4.43-.67-3.28,3.65.45,9.47,5.09,16.68,12.33,22.38C95.84,570.29,112.19,570.72,121.59,563.4Zm224.09,3.38c7.59-4.6,12.18-11.45,15.13-19.67,1.17-3.26.38-4.07-3-4.05-20.32.12-40.64.06-61,.06-7.81,0-8,.26-4.31,7.4C301.26,571.56,327.16,579.49,345.68,566.78Zm62.32-206a35.69,35.69,0,0,0,3.72.14c3.43-.22,8.23,1.59,9.92-.72s.67-6.91.56-10.5c-.18-5.33-4-9-9.35-9.13-2.61-.08-5.23.05-7.84.09l-54.61-.11c-8.31,0-11.42,3.14-11.43,11.54,0,8.86,0,8.88,8.81,8.86Zm-57.77,93.69c6.22.05,12.44,0,18.67.17,3.25.09,4.54-1.5,4.57-4.48,0-3.86-.08-7.72,0-11.58.06-2.1-.65-2.85-2.78-2.8-6.84.14-13.69.12-20.54.17-15.1,0-30.2,0-45.3-.2-4.42-.07-8.25.39-11.49,3.81a16.17,16.17,0,0,1-5.42,3.24c-6.52,2.81-13.43,3.51-20.46,3.48-6.37,0-12.73,0-19.1,0-4.27,0-3.55,3.35-3.9,5.88-.44,3.23,2,2.46,3.72,2.46,12.86,0,25.71,0,38.57,0,4.8,0,6.43,1.31,7.62,5.91-1.29,4.61-2.66,5.67-7.74,5.68-12.8,0-25.6.16-38.39-.09-3.51-.07-4.39,1.11-3.89,4.19.08.49.11,1,.16,1.47-.06,1.38-.16,2.75-.16,4.12,0,10.24.06,20.49,0,30.74-.06,7.4-3.37,10.67-10.76,10.92-1.37.05-2.75.05-4.12.05q-25.5,0-51,0c-1.17,0-2.42-.37-3.81.47,1.44,3.46,3.09,6.81,4.2,10.33.88,2.74,2.31,3.48,5.11,3.47,25.11-.11,50.23-.16,75.35,0,3.78,0,5-.94,5.45-4.71,4.3-33.77,39.42-58,72.73-50.6A69.49,69.49,0,0,1,365.19,490l9.59,10.09c-.11-11-1.95-21.06-6.45-30.59-1.18-2.51-2.58-3.37-5.35-3.35-15.7.14-31.4.09-47.1.06-5.1,0-6.53-1.14-7.72-5.72,1-4.55,2.65-5.84,7.61-5.87C327.25,454.53,338.74,454.49,350.23,454.43ZM137.91,538.54c3,.75,6,1.56,9,2.22.89.2,2.05,1.24,2.74.17s-.49-2-1.22-2.84c-12.72-14.24-25.54-28.39-38.1-42.77-2.65-3-5.32-4.18-9.07-3.22-14.73-.36-33.54,13.2-38.3,27.43-.75,2.24.54,2.15,1.87,2.46,12.84,3,25.67,6,38.52,8.9C114.84,533.5,126.38,536,137.91,538.54ZM281.25,401.25a63.55,63.55,0,0,1,7.82.23c3.91.56,4.47-1.14,4.15-4.55-1.14-12.14-2.52-24.23-6-36-4.86-16.47-12-31.58-25.62-42.82-5-4.17-5.06-4.14-11.1-.88-1.66.5-3.31,1.41-5,1.43-9.61.16-12,6.28-12.13,14.33,0,.49,0,1,0,1.63,1.66-.68,3.12-1.34,4.62-1.87,7.53-2.69,14.36-1.17,20.12,4.12,5.53,5.07,7.76,11.52,5.81,19-1.58,6.09-5.48,10.57-10.56,14-4.84,3.3-9.77,6.46-14.68,9.65-1.09.71-2,1.29-1.58,2.9,1.52,5.64,3,11.3,4.4,17a2.33,2.33,0,0,0,2.61,2C256.52,401.34,268.88,401.31,281.25,401.25ZM405,424.39c2.25.05,4.5.13,6.74.12,6.82,0,10.46-3.56,10.51-10.29.05-5.12-.18-10.26.09-15.37.14-2.93-.88-3.47-3.59-3.46-25.48.09-51,0-76.46,0-1,0-2.25-.59-3.1.57-.07,8.83-.09,17.66-.26,26.49,0,2.15,1.13,2,2.58,2Q373.25,424.43,405,424.39ZM239.16,413c-.32-.33-.6-.19-.86.1a15.1,15.1,0,0,0-4,.62c-12.4,3.7-18.1,13.08-20.4,24.84-2.66,13.56-1.15,27.37-1.49,41.06,0,1.88,1,1.93,2.4,1.92,5,0,10-.14,15,.05,2.55.09,3.44-.58,3.39-3.28-.15-8.23.09-16.47,0-24.7-.11-11.51,3.67-19.64,19.3-18.86,7.3.37,14.71.78,22-.55,10.51,0,17.37-5.93,18.75-16.34.68-5.08.66-5.14-4.63-5.1-2.23,0-4.46.19-6.69.29C267.65,412.61,253.41,412.72,239.16,413ZM356.23,531.69c3.74,0,7.47.14,11.21.15,8,0,8,0,6-7.8-5.31-21.24-26.33-37.79-47.22-37.16A38,38,0,0,0,310.81,489c-18.9,6.25-30.16,19.47-34.69,38.65-.64,2.69-.65,4.59,3.35,4.32,6.21-.42,12.47-.1,18.72-.11ZM197.25,390c-7.87,0-15.74,0-23.61,0-1.42,0-2.43,0-3,1.8-5.31,15.89-9,32.13-10.06,48.87A161.28,161.28,0,0,0,168,499.26c2.2,7,2.13,6.81,9.36,7.12,3.32.15,4.39-1,4.87-4.06,1.46-9.21,6.43-16,15.34-19,3.05-1.05,3.51-2.38,3.55-5.18.22-13.71-1.17-27.49,1.42-41.1,2.37-12.49,7.91-23,19-30,2.88-1.84,7.79-2,8.54-5s-1.51-6.87-2.29-10.39c-.59-2.67-1-5-4.39-2.24-1,.86-2.39.57-3.63.57Q208.49,390,197.25,390ZM213,506.27h10.12c10.63,0,10.58,0,10-10.58-.12-2.11-.86-2.85-2.92-2.83-7.62.07-15.25-.14-22.87.08s-11.76,3.42-13.57,9.56c-.76,2.6-.48,3.94,2.75,3.83C202,506.13,207.54,506.27,213,506.27Z" transform="translate(-49.5 -221.25)"/><path class="cls-2" d="M159,531.69c-1.45.32-1.93-.93-2.63-1.71-12.65-14.11-25.24-28.27-38-42.32-1.8-2-2.29-3.68-1.46-6.3,2.65-8.39,5-16.88,7.47-25.35,1.43-4.92,1-6.09-3.22-9.12l3.6-14.07c5.56-.52,6.42-1.27,8.07-6.92q4.38-15,8.77-29.91c1.82-6.26,1.81-6.26,8.35-5.89-7.51,24.38-12.51,49-9.82,74.8a190,190,0,0,0,7.18,35.31C150.59,510.94,155,521.24,159,531.69Z" transform="translate(-49.5 -221.25)"/><path class="cls-3" d="M365.19,490a69.49,69.49,0,0,0-27.64-13.37c-33.31-7.41-68.43,16.83-72.73,50.6-.48,3.77-1.67,4.74-5.45,4.71-25.12-.2-50.24-.15-75.35,0-2.8,0-4.23-.73-5.11-3.47-1.11-3.52-2.76-6.87-4.2-10.33,1.39-.84,2.64-.47,3.81-.47q25.5,0,51,0c1.37,0,2.75,0,4.12-.05,7.39-.25,10.7-3.52,10.76-10.92.09-10.25,0-20.5,0-30.74,0-1.37.1-2.74.16-4.12h95.55C356.5,471.76,360,474.34,365.19,490Z" transform="translate(-49.5 -221.25)"/><path class="cls-2" d="M356.23,531.69l-58,.16c-6.25,0-12.51-.31-18.72.11-4,.27-4-1.63-3.35-4.32,4.53-19.18,15.79-32.4,34.69-38.65a38,38,0,0,1,15.44-2.11c.64,1.21,1.91,1.54,3,2.1a43.13,43.13,0,0,1,11.09,8.66A57.73,57.73,0,0,1,356.23,531.69Z" transform="translate(-49.5 -221.25)"/><path class="cls-2" d="M274.47,434.23c-7.31,1.33-14.72.92-22,.55-15.63-.78-19.41,7.35-19.3,18.86.08,8.23-.16,16.47,0,24.7.05,2.7-.84,3.37-3.39,3.28-5-.19-10-.07-15-.05-1.37,0-2.44,0-2.4-1.92.34-13.69-1.17-27.5,1.49-41.06,2.3-11.76,8-21.14,20.4-24.84a15.1,15.1,0,0,1,4-.62l.86-.1c14.25-.31,28.49-.42,42.74.05C281.52,420.87,279.42,428.05,274.47,434.23Z" transform="translate(-49.5 -221.25)"/><path class="cls-4" d="M405,424.39q-31.74.06-63.49.12c-1.45,0-2.62.13-2.58-2,.17-8.83.19-17.66.26-26.49,21.69,0,43.38.08,65.06,0,2.88,0,4,.68,3.83,3.73-.25,5.1-.16,10.22,0,15.33A13.68,13.68,0,0,1,405,424.39Z" transform="translate(-49.5 -221.25)"/><path class="cls-5" d="M281.25,401.25c-12.37.06-24.73.09-37.1.21a2.33,2.33,0,0,1-2.61-2c-1.44-5.66-2.88-11.32-4.4-17-.44-1.61.49-2.19,1.58-2.9,4.91-3.19,9.84-6.35,14.68-9.65,5.08-3.47,9-7.95,10.56-14,2-7.46-.28-13.91-5.81-19-5.76-5.29-12.59-6.81-20.12-4.12-1.5.53-3,1.19-4.62,1.87,0-.66,0-1.14,0-1.63.17-8,2.52-14.17,12.13-14.33,1.67,0,3.32-.93,5-1.43,1.42,0,2.17,1.08,3,1.94A68.78,68.78,0,0,1,267,338.33C276.74,358.13,280.75,379.31,281.25,401.25Z" transform="translate(-49.5 -221.25)"/><path class="cls-5" d="M137.91,538.54c-11.53-2.55-23.07-5-34.58-7.65C90.48,528,77.65,525,64.81,522c-1.33-.31-2.62-.22-1.87-2.46,4.76-14.23,23.57-27.79,38.3-27.43a8.58,8.58,0,0,0,1,1.94c8.93,10,17.9,19.91,26.83,29.89,3.21,3.6,6.34,7.28,9.46,11C139.63,536.25,140.5,537.72,137.91,538.54Z" transform="translate(-49.5 -221.25)"/><path class="cls-2" d="M254.25,301.53c-1.81,1.91-4.08,3.07-6.86,4.49,0-9.31,0-18.12,0-26.93,0-10.93-4-14.94-14.84-14.94-11.23,0-22.47-.07-33.7.05-2.54,0-3-.53-2.46-3.1,2.91-13.17,14.73-25.29,26.83-27.21a30.52,30.52,0,0,1,12,3.81c18.87,10.36,27.87,31,22.8,52-.89,3.72-2,7.4-3,11.1l0,0Z" transform="translate(-49.5 -221.25)"/><path class="cls-6" d="M294.44,460.52c-1.19-4.6-2.82-5.9-7.62-5.91-12.86,0-25.71,0-38.57,0-1.7,0-4.16.77-3.72-2.46.35-2.53-.37-5.89,3.9-5.88,6.37,0,12.73,0,19.1,0,7,0,13.94-.67,20.46-3.48a16.17,16.17,0,0,0,5.42-3.24c3.24-3.42,7.07-3.88,11.49-3.81,15.1.24,30.2.16,45.3.19l0,18.53c-11.49.06-23,.1-34.46.18-5,0-6.56,1.32-7.61,5.88Z" transform="translate(-49.5 -221.25)"/><path class="cls-4" d="M408,360.74l-60.22.17c-8.82,0-8.82,0-8.81-8.86,0-8.4,3.12-11.55,11.43-11.54l54.61.11a13.52,13.52,0,0,1,3,9.32C407.91,353.53,408,357.14,408,360.74Z" transform="translate(-49.5 -221.25)"/><path class="cls-7" d="M159,531.69c-4-10.45-8.4-20.75-11.64-31.48a190,190,0,0,1-7.18-35.31c-2.69-25.76,2.31-50.42,9.82-74.8,1.62-.05,3.24-.12,4.86-.13,4.36,0,4.35,0,3.11,4-6.41,20.61-10.05,41.64-9.14,63.29,1,23.82,7.55,46.31,16.61,68.18.71,1.73,1.4,3.46,2.09,5.2a8,8,0,0,1,.24,1.07Z" transform="translate(-49.5 -221.25)"/><path class="cls-8" d="M294.44,460.52l13.72,0c1.19,4.57,2.62,5.7,7.72,5.71,15.7,0,31.4.08,47.1-.06,2.77,0,4.17.84,5.35,3.35,4.5,9.53,6.34,19.56,6.45,30.59L365.19,490c-5.15-15.65-8.69-18.23-25.06-18.23H244.58c-.05-.49-.08-1-.16-1.47-.5-3.08.38-4.26,3.89-4.19,12.79.25,25.59.12,38.39.09C291.78,466.19,293.15,465.13,294.44,460.52Z" transform="translate(-49.5 -221.25)"/><path class="cls-6" d="M345.68,566.78c-18.52,12.71-44.42,4.78-53.12-16.26l13.47,0q20,0,40,0c1.63,0,3.21-.62,2.92,2.55C348.56,557.86,346.58,562.17,345.68,566.78Z" transform="translate(-49.5 -221.25)"/><path class="cls-9" d="M281.25,401.25c-.5-21.94-4.51-43.12-14.29-62.92a68.78,68.78,0,0,0-13.39-19.13c-.88-.86-1.63-1.93-3-1.94,6-3.26,6.06-3.29,11.1.88,13.6,11.24,20.76,26.35,25.62,42.82,3.46,11.74,4.84,23.83,6,36,.32,3.41-.24,5.11-4.15,4.55A63.55,63.55,0,0,0,281.25,401.25Z" transform="translate(-49.5 -221.25)"/><path class="cls-6" d="M121.59,563.4c-9.4,7.32-25.75,6.89-35.82-1-7.24-5.7-11.88-12.91-12.33-22.38,1,.25,1.92.52,2.88.74,15.36,3.51,30.71,7,46.08,10.52,2.87.64,3.22,2,2.16,4.56S121.94,560.62,121.59,563.4Z" transform="translate(-49.5 -221.25)"/><path class="cls-2" d="M339.72,372.51q29.22-.11,58.45-.18c3.24,0,6.48.13,9.72.21,0,3.81.06,7.63.1,11.44q-33.24.06-66.46.15c-1.85,0-2.74-.37-2.59-2.44.21-3,.19-5.95.27-8.93A.54.54,0,0,0,339.72,372.51Z" transform="translate(-49.5 -221.25)"/><path class="cls-7" d="M356.23,531.69a57.73,57.73,0,0,0-15.9-34.05A43.13,43.13,0,0,0,329.24,489c-1.08-.56-2.35-.89-3-2.1,20.89-.63,41.91,15.92,47.22,37.16,1.95,7.8,1.95,7.82-6,7.8C363.7,531.83,360,531.74,356.23,531.69Z" transform="translate(-49.5 -221.25)"/><path class="cls-10" d="M233.23,309.64c-17.48.67-31.7-15-28.46-31.39,7,0,13.91-.06,20.87,0,5.72,0,7.65,2,7.65,7.57C233.29,293.75,233.25,301.69,233.23,309.64Z" transform="translate(-49.5 -221.25)"/><path class="cls-7" d="M255,300.81c1-3.7,2.14-7.38,3-11.1,5.07-21-3.93-41.65-22.8-52a30.52,30.52,0,0,0-12-3.81c13.27-4.25,29.07,1.61,38,14.09C272.56,264,269.62,289.24,255,300.81Z" transform="translate(-49.5 -221.25)"/><path class="cls-11" d="M345.68,566.78c.9-4.61,2.88-8.92,3.31-13.72.29-3.17-1.29-2.55-2.92-2.55q-20,0-40,0l-13.47,0c-3.66-7.14-3.5-7.4,4.31-7.4,20.33,0,40.65.06,61-.06,3.35,0,4.14.79,3,4.05C357.86,555.33,353.27,562.18,345.68,566.78Z" transform="translate(-49.5 -221.25)"/><path class="cls-2" d="M197.27,374.24c-.84-3.64-.07-6,4.34-5.57,8.17.81,14-3.29,19.65-8.65s11.37-10.07,17.31-14.79c4.7-3.72,8.93-3.15,12.77,1.1a13.21,13.21,0,0,1-5.48,7.74c-6.62,4.43-13.42,8.62-19.81,13.36-7,5.19-14.34,8.2-23.17,6.86A37.48,37.48,0,0,0,197.27,374.24Z" transform="translate(-49.5 -221.25)"/><path class="cls-6" d="M213,506.27c-5.5,0-11-.14-16.5.06-3.23.11-3.51-1.23-2.75-3.83,1.81-6.14,6-9.34,13.57-9.56s15.25,0,22.87-.08c2.06,0,2.8.72,2.92,2.83.59,10.58.64,10.58-10,10.58Z" transform="translate(-49.5 -221.25)"/><path class="cls-12" d="M405,424.39a13.68,13.68,0,0,0,3-9.34c-.12-5.11-.21-10.23,0-15.33.15-3.05-.95-3.75-3.83-3.73-21.68.09-43.37,0-65.06,0,.85-1.16,2.08-.57,3.1-.57,25.49,0,51,.05,76.46,0,2.71,0,3.73.53,3.59,3.46-.27,5.11,0,10.25-.09,15.37-.05,6.73-3.69,10.27-10.51,10.29C409.5,424.52,407.25,424.44,405,424.39Z" transform="translate(-49.5 -221.25)"/><path class="cls-11" d="M350.23,454.43l0-18.53c6.85,0,13.7,0,20.54-.16,2.13-.05,2.84.7,2.78,2.8-.13,3.86,0,7.72,0,11.58,0,3-1.32,4.57-4.57,4.48C362.67,454.44,356.45,454.48,350.23,454.43Z" transform="translate(-49.5 -221.25)"/><path class="cls-3" d="M130.67,378V357.38L153,364.75c-.52,3.92-2.74,7.48-2.32,11.64.18,1.85-1.55,1.59-2.75,1.59C142.16,378,136.42,378,130.67,378Z" transform="translate(-49.5 -221.25)"/><path class="cls-7" d="M197.27,374.24a37.48,37.48,0,0,1,5.61.05c8.83,1.34,16.2-1.67,23.17-6.86,6.39-4.74,13.19-8.93,19.81-13.36a13.21,13.21,0,0,0,5.48-7.74c2.5,3.64,2.59,6.46.18,9.89a17.74,17.74,0,0,1-4.84,4.62Q233.84,369.2,221,377.51a5,5,0,0,1-2.33,1.05c-6.6.09-13.21.22-19.81,0C195.62,378.46,197.61,375.77,197.27,374.24Z" transform="translate(-49.5 -221.25)"/><path class="cls-9" d="M137.91,538.54c2.59-.82,1.72-2.29.59-3.64-3.12-3.69-6.25-7.37-9.46-11-8.93-10-17.9-19.91-26.83-29.89a8.58,8.58,0,0,1-1-1.94c3.75-1,6.42.19,9.07,3.22,12.56,14.38,25.38,28.53,38.1,42.77.73.82,2,1.66,1.22,2.84s-1.85,0-2.74-.17C143.88,540.1,140.9,539.29,137.91,538.54Z" transform="translate(-49.5 -221.25)"/><path class="cls-11" d="M121.59,563.4c.35-2.78,1.94-5.09,3-7.6s.71-3.92-2.16-4.56c-15.37-3.47-30.72-7-46.08-10.52-1-.22-1.92-.49-2.88-.74-1.15-4.32-1-4.63,3.28-3.65,18.11,4.16,36.2,8.44,54.32,12.58,2.21.5,2.75,1.11,1.48,3.17C129.7,556.68,126.74,561.08,121.59,563.4Z" transform="translate(-49.5 -221.25)"/><path class="cls-8" d="M408,360.74c0-3.6-.09-7.21,0-10.8a13.52,13.52,0,0,0-3-9.32c2.61,0,5.23-.17,7.84-.09,5.36.14,9.17,3.8,9.35,9.13.11,3.59,1.18,8.13-.56,10.5s-6.49.5-9.92.72A35.69,35.69,0,0,1,408,360.74Z" transform="translate(-49.5 -221.25)"/><path class="cls-13" d="M274.47,434.23c4.95-6.18,7-13.36,7.43-21.15,2.23-.1,4.46-.27,6.69-.29,5.29,0,5.31,0,4.63,5.1C291.84,428.3,285,434.27,274.47,434.23Z" transform="translate(-49.5 -221.25)"/><path class="cls-14" d="M233.23,309.64c0-7.95.06-15.89.06-23.84,0-5.6-1.93-7.54-7.65-7.57-7,0-13.91,0-20.87,0-.3-1.79.12-2.82,2.27-2.81q13.31.1,26.62,0c2.08,0,2.46,1,2.45,2.78q-.08,14.43,0,28.87C236.14,309.27,235.35,310.1,233.23,309.64Z" transform="translate(-49.5 -221.25)"/><path class="cls-15" d="M408,384c0-3.81-.07-7.63-.1-11.44,4.08-.65,8.19-.1,12.28-.3,1.62-.08,2.29.61,2.12,2.19,0,.25,0,.5,0,.75.24,9,.24,9-8.72,9C411.71,384.13,409.85,384,408,384Z" transform="translate(-49.5 -221.25)"/><path class="cls-12" d="M130.67,378c5.75,0,11.49,0,17.24,0,1.2,0,2.93.26,2.75-1.59-.42-4.16,1.8-7.72,2.32-11.64l6.76,2.24c-1.55,3.19-2.52,6.25-2.21,9.59.12,1.31-.16,2.11-1.76,2.1-8.25-.07-16.49-.05-24.73-.1C130.92,378.58,130.79,378.21,130.67,378Z" transform="translate(-49.5 -221.25)"/><path class="cls-14" d="M185.54,373.57c.49,5.13.49,5.13-4.46,5.13-2.84,0-5.68.05-8.51,0-3.68-.09-4.44-1.4-3.13-5.26A33.85,33.85,0,0,0,185.54,373.57Z" transform="translate(-49.5 -221.25)"/><path class="cls-10" d="M185.54,373.57a33.85,33.85,0,0,1-16.1-.14c.51-1.71,1.89-2.2,3.44-2.36,3.71-.39,7.43-.92,11.15-1C186.94,369.93,185.36,372.24,185.54,373.57Z" transform="translate(-49.5 -221.25)"/><path class="cls-7" d="M254.25,301.53l.82-.76Z" transform="translate(-49.5 -221.25)"/><path class="cls-13" d="M239.16,413l-.86.1C238.56,412.84,238.84,412.7,239.16,413Z" transform="translate(-49.5 -221.25)"/><path class="cls-15" d="M339.72,372.51a.54.54,0,0,1-.51.25C339.24,372.39,339.35,372.19,339.72,372.51Z" transform="translate(-49.5 -221.25)"/></svg>