<svg id="Layer_1" data-name="Layer 1" xmlns="http://www.w3.org/2000/svg" viewBox="0 0 314.95 343.64"><defs><style>.cls-1{fill:#e4f5fa;}.cls-2{fill:#5a6775;}.cls-3{fill:#e67c7c;}.cls-4{fill:#fafbfb;}.cls-5{fill:#556271;}.cls-6,.cls-9{fill:#f1f3f4;}.cls-10,.cls-7{fill:none;}.cls-10,.cls-14,.cls-7,.cls-8,.cls-9{stroke:#231f20;stroke-miterlimit:10;stroke-width:2px;}.cls-7{stroke-linecap:round;}.cls-13,.cls-8{fill:#e87c7c;}.cls-11{fill:#b4def1;}.cls-12{fill:#bcbec0;}.cls-14{fill:#99cc68;}.cls-15{fill:#f1f2f2;}.cls-16{fill:#231f20;}</style></defs><title>Digital shop</title><path class="cls-1" d="M694.93,390.49c0,122.06,37.25,123.5-23.85,123.5-2.16,0,2.16-176.23-2-183-3.95-6.37-131.35-3.09-148.56-.77-8,1.09.17,149.71-2.77,149.84-2.7.12,1.7,89.67-.69,89.82-.07,0-.15-.07-.24-.22C473.91,491,462.13,394.43,462.13,394.43,469.73,306.64,496.88,249,555.05,249,616.16,249,694.93,268.42,694.93,390.49Z" transform="translate(-437.32 -249.02)"/><path class="cls-2" d="M507.25,336.85H453.32l-1-1.45c7.45,1.16,7.74-4.86,10.5-8.42a18.66,18.66,0,0,1,12.55-7.46c2.35-.32,3.2-1.26,3.8-3.57,5.48-20.88,28.84-27.32,44.14-12.16a6.41,6.41,0,0,0,5.69,2c10.57-.77,21.15,5.09,25.26,13.74.41.86,1.39,1.85.31,2.63s-1.69-.33-2.14-1.22c-6.82-13.54-25.78-17.27-37.24-7.1a1.71,1.71,0,0,1-2.51.09c1.76-4.17,6.33-4.78,9.69-7.47-5.47-6.69-12.5-9.18-20.79-8.27-8.64.95-15.64,5.44-18.29,13.49-2.18,6.65-4.63,11.08-12.06,11.72-1.58.13-3.21,1.71-4.51,2.95-2.27,2.17-5.34,4.9-4.25,7.86.79,2.11,4.79.76,7.33.79,10.83.11,21.65,0,32.48.09C503.76,335.08,505.58,334.3,507.25,336.85Z" transform="translate(-437.32 -249.02)"/><path class="cls-3" d="M487,518.88c0,4.56-3.06,7.22-6.15,9.78-6.86,5.69-7.56,5.69-14.41-.18a25.23,25.23,0,0,1-4.3-4.81c-2.58-3.76-2.2-7.68.57-11.09,2.63-3.23,6.1-3.05,9.45-1.09,1.37.8,2.26.51,3.6-.11C482,508.49,487.18,512,487,518.88Z" transform="translate(-437.32 -249.02)"/><path class="cls-2" d="M437.32,445.25c3.86,2.4,7.11.08,10.41-.13,3.81-.24,7.9,2.46,12-.68.25-.19,1.7.9,2.38,1.59,1.72,1.72,3.35,2,5.08.08.22-.24.58-.36.78-.61,3.68-4.42,6,5.06,10.2.81,3.2-3.24,6.08-1.78,8.81,4.33-3.93-2.78-7.38-4.41-10.5-.34a1.89,1.89,0,0,1-1.8-.13c-2.92-3-5.6-.93-8.79-.67-4.25.34-8.8-.1-13.29,0-2.82.07-5.28-1.81-8.8.41C441,451.69,439,448,437.32,445.25Z" transform="translate(-437.32 -249.02)"/><path class="cls-2" d="M476.63,590.48h20.56l.05,1.51c-6.8.82-13.65.15-20.48.4Z" transform="translate(-437.32 -249.02)"/><path class="cls-2" d="M709.6,343c-9.47,0-18.94,0-28.42,0-.92,0-2.17.5-2.68-.63s.91-1.54,1.28-2.29c2.3-4.71,5.37-8.39,10.88-9.27,1.79-.28,1.61-1.81,2.06-3,4.67-12.44,17.53-15.9,27.68-7.29,1.75,1.49,3.43,1.53,5.44,1.6,10.35.36,16.93,8.24,15.95,18.49-.29,3.07-2.1,2.37-3.77,2.39-4.82,0-9.64,0-14.46,0h-14Zm9.71-20c-6.76-6.93-17.37-6.6-22,1.19-2.78,4.67-4.24,10-10.72,10.75-.67.08-1.24,1.05-1.82,1.64-.83.85-1.77,1.88-1.41,3,.46,1.43,2,.88,3.06.89,16.82,0,33.64-.07,50.46.07,3.37,0,4-1.22,3.32-4.15a15,15,0,0,0-21.9-10.06c-1.2.63-2.13,2.29-4.09,1.24C714.6,324.73,717.43,324.62,719.31,323Z" transform="translate(-437.32 -249.02)"/><path class="cls-4" d="M719.31,323c-1.88,1.61-4.71,1.72-5.1,4.59,2,1,2.89-.61,4.09-1.24a15,15,0,0,1,21.9,10.06c.65,2.93,0,4.18-3.32,4.15-16.82-.14-33.64-.05-50.46-.07-1.07,0-2.6.54-3.06-.89-.36-1.14.58-2.17,1.41-3,.58-.59,1.15-1.56,1.82-1.64,6.48-.79,7.94-6.08,10.72-10.75C701.94,316.41,712.55,316.08,719.31,323Z" transform="translate(-437.32 -249.02)"/><path class="cls-4" d="M522.36,306.43c-3.07,2.63-11.57,6.19-9.77,7.32,2.47,1.56,4.57-1.7,6.53-2.74,14.64-7.79,35,.69,35.87,17.25.06,1.19-15.6-.79-32,.33-3.79.26-4.34,5.88-5.09,6.05-2.2.48-9.55.2-19.65.22-8.55,0-13.3.12-31,.1-1.75,0-4.25.88-5-1.45-.59-1.89.94-3.59,2.29-5,.94-1,4.79-4.84,5.87-5,10.58-1.3,10.06-7.71,14.59-15.4C492.56,295.35,512.41,294.53,522.36,306.43Z" transform="translate(-437.32 -249.02)"/><path class="cls-5" d="M554.89,590.23h45.45c1.17,0,2.33,0,3.5,0,.69,0,1.4.23,1.47,1,.11,1.12-.76,1.3-1.63,1.34s-1.66,0-2.49,0H509.27c-1,0-2,0-3-.06-.67,0-1.41-.18-1.49-1-.11-1.16.83-1.29,1.64-1.3,3.83-.06,7.66-.08,11.49-.08Z" transform="translate(-437.32 -249.02)"/><path class="cls-5" d="M725,514a9.09,9.09,0,0,0-1.88,1.26c-2.3,2.5-4.42,2.3-6.65-.11-1.38-1.49-3-1.33-4.33.1-2.06,2.13-4.07,2.64-6.28.18-1.72-1.92-3.53-1.55-5.1.19-2.13,2.32-4,1.66-5.9-.26-1-1-3.4-1.56-2.26-3.2,1.3-1.88,2.61.33,3.58,1.12,2.15,1.76,3.39.12,4.67-1,1.82-1.63,3.51-1.79,5.14.07,2,2.29,3.86,2.06,5.83,0,1.69-1.78,3.52-1.75,5.15,0,2,2.25,3.86,2,5.82-.06,1.68-1.8,3.42-1.71,5.14,0s3.52,2.34,5.49.2c1.75-1.91,3.72-2.09,5.56-.11s3.63,2.07,5.46,0c2.08-2.28,4-1.71,5.91.26.84.89,2.71,1.56,1.59,3s-2-.77-2.9-.75c-4.59.12-9.28,2.89-13.7-.66-3.08,3.26-6.13,3.22-9.17-.07C726,514.06,725.55,514.09,725,514Z" transform="translate(-437.32 -249.02)"/><path class="cls-5" d="M704.81,585.85c-8.16,0-16.32,0-24.47,0-1.05,0-2.82.46-2.78-1.16.06-2,2-1.26,3.18-1.27q24.21-.09,48.43,0c1.13,0,3.12-.68,3,1.41-.1,1.54-1.84,1-2.9,1.05-8.15,0-16.31,0-24.46,0Z" transform="translate(-437.32 -249.02)"/><path class="cls-5" d="M487.3,475.18c3.65,0,7.31,0,11,0,1.09,0,2.67-.28,2.64,1.38,0,1.24-1.4,1.16-2.39,1.17-7.64,0-15.28,0-22.92,0-1,0-2.75.35-2.61-1.36s1.79-1.13,2.86-1.14C479.66,475.15,483.48,475.18,487.3,475.18Z" transform="translate(-437.32 -249.02)"/><path class="cls-6" d="M706.56,410.37c-.48,3.36-2.11,5.3-5.27,5.09s-4.91-2.2-4.63-5.29c.24-2.7,1.8-4.55,4.91-4.47C704.85,405.79,706.22,407.67,706.56,410.37Z" transform="translate(-437.32 -249.02)"/><path class="cls-7" d="M671.08,393.68V582.8a8.64,8.64,0,0,1-8.64,8.65H526.36a8.64,8.64,0,0,1-8.64-8.65V393.44" transform="translate(-437.32 -249.02)"/><path class="cls-7" d="M671.08,393.68" transform="translate(-437.32 -249.02)"/><path class="cls-7" d="M517.72,346.46v-9.89a8.64,8.64,0,0,1,8.64-8.65H662.44a8.64,8.64,0,0,1,8.64,8.65v11" transform="translate(-437.32 -249.02)"/><path class="cls-8" d="M89,104.36h22.68a0,0,0,0,1,0,0v27.17a6.29,6.29,0,0,1-6.29,6.29H95.32A6.29,6.29,0,0,1,89,131.53V104.36A0,0,0,0,1,89,104.36Z"/><path class="cls-9" d="M202.44,104.36h22.68a0,0,0,0,1,0,0v27.17a6.29,6.29,0,0,1-6.29,6.29H208.72a6.29,6.29,0,0,1-6.29-6.29V104.36A0,0,0,0,1,202.44,104.36Z"/><path class="cls-9" d="M69.46,104.36H89a0,0,0,0,1,0,0v27.17a6.29,6.29,0,0,1-6.29,6.29H72.64a6.29,6.29,0,0,1-6.29-6.29V107.47A3.11,3.11,0,0,1,69.46,104.36Z"/><path class="cls-9" d="M111.72,104.36H134.4a0,0,0,0,1,0,0v27.17a6.29,6.29,0,0,1-6.29,6.29H118a6.29,6.29,0,0,1-6.29-6.29V104.36A0,0,0,0,1,111.72,104.36Z"/><path class="cls-8" d="M134.4,104.36h22.68a0,0,0,0,1,0,0v27.17a6.29,6.29,0,0,1-6.29,6.29H140.68a6.29,6.29,0,0,1-6.29-6.29V104.36A0,0,0,0,1,134.4,104.36Z"/><path class="cls-9" d="M157.08,104.36h22.68a0,0,0,0,1,0,0v27.17a6.29,6.29,0,0,1-6.29,6.29H163.36a6.29,6.29,0,0,1-6.29-6.29V104.36A0,0,0,0,1,157.08,104.36Z"/><path class="cls-8" d="M179.76,104.36h22.68a0,0,0,0,1,0,0v27.17a6.29,6.29,0,0,1-6.29,6.29H186a6.29,6.29,0,0,1-6.29-6.29V104.36A0,0,0,0,1,179.76,104.36Z"/><path class="cls-8" d="M225.12,104.38h19.46a3.22,3.22,0,0,1,3.22,3.22v24.79a5.45,5.45,0,0,1-5.45,5.45H230.56a5.45,5.45,0,0,1-5.45-5.45v-28A0,0,0,0,1,225.12,104.38Z"/><line class="cls-10" x1="99.48" y1="312.9" x2="214.68" y2="312.9"/><rect class="cls-11" x="92.64" y="148.38" width="128.88" height="155.52" rx="11.52"/><rect class="cls-12" x="141.96" y="321.9" width="30.24" height="13.68" rx="2.38"/><path class="cls-13" d="M709.71,411.71c-.45,5.14-4.43,9.77-8.89,14.11-1,.94-1.84.38-2.54-.45-3.33-3.93-7-7.72-8.15-12.95a9.18,9.18,0,0,1,3.65-9.73c3.12-2.43,6.53-3.14,10.23-1.12C707.47,403.46,709.76,406.05,709.71,411.71Zm-4.84-1.34c-.35-2.7-1.71-4.58-5-4.67-3.11-.08-4.67,1.77-4.91,4.47-.27,3.09,1.55,5.09,4.63,5.29S704.39,413.73,704.87,410.37Z" transform="translate(-437.32 -249.02)"/><path class="cls-14" d="M687.05,434.58a37.57,37.57,0,0,0-16,3.54v68.41a37.75,37.75,0,1,0,16-71.95Z" transform="translate(-437.32 -249.02)"/><line class="cls-10" x1="249.73" y1="261.05" x2="249.28" y2="207.8"/><line class="cls-10" x1="249.59" y1="244.76" x2="277.66" y2="210.68"/><line class="cls-10" x1="233.76" y1="219.68" x2="249.34" y2="225.43"/><line class="cls-10" x1="249.73" y1="261.05" x2="249.5" y2="335.58"/><polygon class="cls-15" points="163.52 303.9 220.87 241.66 220.87 219.34 142.96 303.9 163.52 303.9"/><polygon class="cls-15" points="133.62 303.9 220.87 209.21 220.87 200.77 125.85 303.9 133.62 303.9"/><polygon class="cls-15" points="91.99 204.63 91.99 222.64 160.41 148.38 143.82 148.38 91.99 204.63"/><path class="cls-16" d="M557.41,335.44h2.64a7,7,0,0,1,1.77.19,3.19,3.19,0,0,1,1.34.72,5,5,0,0,1,1.57,4.07,8.4,8.4,0,0,1-.16,1.65,4.75,4.75,0,0,1-.49,1.34,3.75,3.75,0,0,1-.84,1.07,3.2,3.2,0,0,1-.88.58,3.85,3.85,0,0,1-1,.31,7.67,7.67,0,0,1-1.24.09h-2.64a1.7,1.7,0,0,1-.84-.17.77.77,0,0,1-.36-.47,2.86,2.86,0,0,1-.09-.79v-7.35a1.29,1.29,0,0,1,.3-.95A1.27,1.27,0,0,1,557.41,335.44Zm.78,1.6v6.8h1.54c.34,0,.6,0,.79,0a2.87,2.87,0,0,0,.6-.14,1.48,1.48,0,0,0,.53-.31,3.69,3.69,0,0,0,1-3,4.4,4.4,0,0,0-.45-2.23,2,2,0,0,0-1.1-.94,5.65,5.65,0,0,0-1.59-.2Z" transform="translate(-437.32 -249.02)"/><path class="cls-16" d="M567.28,337.17a1,1,0,0,1-.66-.24.82.82,0,0,1-.28-.67.84.84,0,0,1,.28-.66,1,1,0,0,1,.66-.25,1,1,0,0,1,.65.23.84.84,0,0,1,.28.68.87.87,0,0,1-.28.67A1,1,0,0,1,567.28,337.17Zm.93,1.93v5.39a1.19,1.19,0,0,1-.27.85.89.89,0,0,1-.68.29.83.83,0,0,1-.66-.3,1.18,1.18,0,0,1-.26-.84v-5.33a1.18,1.18,0,0,1,.26-.84.84.84,0,0,1,.66-.28.88.88,0,0,1,.68.28A1.09,1.09,0,0,1,568.21,339.1Z" transform="translate(-437.32 -249.02)"/><path class="cls-16" d="M577,339.41v5.42a5.8,5.8,0,0,1-.19,1.6,2.71,2.71,0,0,1-.64,1.11,2.76,2.76,0,0,1-1.14.65,6.33,6.33,0,0,1-1.76.21,5.15,5.15,0,0,1-1.73-.27,3.14,3.14,0,0,1-1.17-.7,1.28,1.28,0,0,1-.41-.88.73.73,0,0,1,.24-.56.79.79,0,0,1,.56-.21.9.9,0,0,1,.71.36l.31.37a1.86,1.86,0,0,0,.36.33,1.54,1.54,0,0,0,.47.19,2.38,2.38,0,0,0,.63.07,2.58,2.58,0,0,0,1.12-.2,1.15,1.15,0,0,0,.56-.57,2.23,2.23,0,0,0,.19-.77c0-.28,0-.72,0-1.33a3.14,3.14,0,0,1-1,.91,2.75,2.75,0,0,1-1.35.32,2.8,2.8,0,0,1-1.63-.48,3.07,3.07,0,0,1-1.08-1.34,4.94,4.94,0,0,1-.38-2,4.8,4.8,0,0,1,.23-1.52,3.2,3.2,0,0,1,.66-1.14,2.77,2.77,0,0,1,1-.7,3.05,3.05,0,0,1,1.22-.24,2.92,2.92,0,0,1,1.37.31,3.28,3.28,0,0,1,1.08.95v-.25a1.09,1.09,0,0,1,.24-.75.8.8,0,0,1,.62-.27.74.74,0,0,1,.72.35A2.35,2.35,0,0,1,577,339.41Zm-5.4,2.36a2.59,2.59,0,0,0,.49,1.72,1.6,1.6,0,0,0,1.28.58,1.63,1.63,0,0,0,.88-.25,1.91,1.91,0,0,0,.68-.75,2.68,2.68,0,0,0,.26-1.22,2.79,2.79,0,0,0-.51-1.78,1.59,1.59,0,0,0-1.32-.63,1.56,1.56,0,0,0-1.28.6A2.76,2.76,0,0,0,571.55,341.77Z" transform="translate(-437.32 -249.02)"/><path class="cls-16" d="M579.74,337.17a1,1,0,0,1-.66-.24.82.82,0,0,1-.28-.67.84.84,0,0,1,.28-.66,1,1,0,0,1,.66-.25,1,1,0,0,1,.65.23.84.84,0,0,1,.28.68.87.87,0,0,1-.28.67A1,1,0,0,1,579.74,337.17Zm.93,1.93v5.39a1.19,1.19,0,0,1-.27.85.89.89,0,0,1-.68.29.83.83,0,0,1-.66-.3,1.18,1.18,0,0,1-.26-.84v-5.33a1.18,1.18,0,0,1,.26-.84.84.84,0,0,1,.66-.28.88.88,0,0,1,.68.28A1.09,1.09,0,0,1,580.67,339.1Z" transform="translate(-437.32 -249.02)"/><path class="cls-16" d="M582.65,338.21h.21v-1.13c0-.3,0-.53,0-.7a1,1,0,0,1,.14-.44.79.79,0,0,1,.31-.32.91.91,0,0,1,1.1.15.74.74,0,0,1,.24.44,3.32,3.32,0,0,1,.06.72v1.28h.68a.9.9,0,0,1,.6.18.64.64,0,0,1,.21.49.54.54,0,0,1-.29.52,2,2,0,0,1-.86.15h-.34V343a5.89,5.89,0,0,0,0,.68.69.69,0,0,0,.16.38.55.55,0,0,0,.43.15,2.32,2.32,0,0,0,.45-.06,2.15,2.15,0,0,1,.44-.06.55.55,0,0,1,.4.18.61.61,0,0,1,.18.45.74.74,0,0,1-.49.69,3.31,3.31,0,0,1-1.41.24,2.4,2.4,0,0,1-1.33-.3,1.32,1.32,0,0,1-.59-.81,5.66,5.66,0,0,1-.14-1.39v-3.58h-.25a.86.86,0,0,1-.61-.19.63.63,0,0,1-.21-.48.61.61,0,0,1,.22-.49A1,1,0,0,1,582.65,338.21Z" transform="translate(-437.32 -249.02)"/><path class="cls-16" d="M592.18,344.58a6,6,0,0,1-1.31.79,3.74,3.74,0,0,1-1.42.26,2.85,2.85,0,0,1-1.26-.28,2.06,2.06,0,0,1-.83-.77,2,2,0,0,1-.3-1.06,1.85,1.85,0,0,1,.49-1.3,2.44,2.44,0,0,1,1.33-.73l.88-.18,1.21-.26c.33-.08.7-.18,1.09-.3a1.88,1.88,0,0,0-.3-1.08,1.32,1.32,0,0,0-1.09-.34,2.33,2.33,0,0,0-1.07.19,1.75,1.75,0,0,0-.61.6,5.6,5.6,0,0,1-.37.52c-.07.09-.22.13-.45.13a.8.8,0,0,1-.54-.2.65.65,0,0,1-.23-.52,1.54,1.54,0,0,1,.35-1,2.45,2.45,0,0,1,1.08-.76,4.92,4.92,0,0,1,1.84-.3,5.11,5.11,0,0,1,1.94.29,1.76,1.76,0,0,1,1,.92,4.07,4.07,0,0,1,.29,1.67V342c0,.3,0,.64,0,1a4,4,0,0,0,.17,1.1,3.34,3.34,0,0,1,.18.73.67.67,0,0,1-.27.52.91.91,0,0,1-.62.24.8.8,0,0,1-.56-.27A3.92,3.92,0,0,1,592.18,344.58Zm-.12-2.7a9.25,9.25,0,0,1-1.19.31l-1.09.25a1.34,1.34,0,0,0-.57.31.78.78,0,0,0-.27.64.93.93,0,0,0,.32.72,1.17,1.17,0,0,0,.84.3,2.2,2.2,0,0,0,1-.25,1.68,1.68,0,0,0,.69-.62,2.88,2.88,0,0,0,.25-1.4Z" transform="translate(-437.32 -249.02)"/><path class="cls-16" d="M595.74,344.49V336.4a1.31,1.31,0,0,1,.25-.85.85.85,0,0,1,.68-.28.87.87,0,0,1,.68.28,1.23,1.23,0,0,1,.26.85v8.09a1.26,1.26,0,0,1-.26.86.94.94,0,0,1-.68.28.83.83,0,0,1-.67-.3A1.22,1.22,0,0,1,595.74,344.49Z" transform="translate(-437.32 -249.02)"/><path class="cls-16" d="M609,343.19a2.3,2.3,0,0,1-.37,1.32,2.39,2.39,0,0,1-1.11.84,5.21,5.21,0,0,1-1.79.28,4.31,4.31,0,0,1-1.73-.31,2.42,2.42,0,0,1-1.05-.77,1.54,1.54,0,0,1-.35-.92.75.75,0,0,1,.78-.75.69.69,0,0,1,.45.14,1.81,1.81,0,0,1,.3.41,1.79,1.79,0,0,0,1.78,1,1.51,1.51,0,0,0,.91-.25.71.71,0,0,0,.36-.57.77.77,0,0,0-.37-.72,4.8,4.8,0,0,0-1.23-.43A10.71,10.71,0,0,1,604,342a2.56,2.56,0,0,1-1-.7,1.58,1.58,0,0,1-.36-1.06,1.92,1.92,0,0,1,.33-1.06,2.28,2.28,0,0,1,1-.79,3.73,3.73,0,0,1,1.57-.3,5.24,5.24,0,0,1,1.31.15,3.56,3.56,0,0,1,1,.4,2,2,0,0,1,.59.57,1.1,1.1,0,0,1,.2.6.66.66,0,0,1-.22.52.82.82,0,0,1-.61.21.77.77,0,0,1-.49-.17,3.82,3.82,0,0,1-.46-.49,1.74,1.74,0,0,0-.5-.44,1.68,1.68,0,0,0-.78-.16,1.5,1.5,0,0,0-.84.22.62.62,0,0,0-.33.53.57.57,0,0,0,.24.48,2.2,2.2,0,0,0,.67.32l1.15.3a6.33,6.33,0,0,1,1.41.5,2.38,2.38,0,0,1,.84.7A1.51,1.51,0,0,1,609,343.19Z" transform="translate(-437.32 -249.02)"/><path class="cls-16" d="M612.32,336.4v2.77a4.12,4.12,0,0,1,.7-.65,2.37,2.37,0,0,1,.75-.36,3.07,3.07,0,0,1,.88-.12,2.61,2.61,0,0,1,1.26.3,2.09,2.09,0,0,1,.86.88,1.87,1.87,0,0,1,.27.75,5.34,5.34,0,0,1,.07.95v3.57a1.23,1.23,0,0,1-.26.85.86.86,0,0,1-.68.29c-.61,0-.92-.38-.92-1.14v-3.15A2.84,2.84,0,0,0,615,340a1,1,0,0,0-1-.49,1.53,1.53,0,0,0-.9.29,1.79,1.79,0,0,0-.6.77,5,5,0,0,0-.15,1.49v2.46a1.27,1.27,0,0,1-.25.85.85.85,0,0,1-.69.29c-.61,0-.92-.38-.92-1.14V336.4a1.29,1.29,0,0,1,.24-.85,1,1,0,0,1,1.37,0A1.25,1.25,0,0,1,612.32,336.4Z" transform="translate(-437.32 -249.02)"/><path class="cls-16" d="M625.9,341.83a4.48,4.48,0,0,1-.26,1.54,3.31,3.31,0,0,1-1.93,2,4.15,4.15,0,0,1-1.54.27,4.07,4.07,0,0,1-1.52-.27,3.51,3.51,0,0,1-1.17-.79,3.56,3.56,0,0,1-.76-1.2,4.4,4.4,0,0,1-.25-1.54,4.54,4.54,0,0,1,.26-1.55,3.33,3.33,0,0,1,.74-1.2,3.4,3.4,0,0,1,1.18-.77,4.47,4.47,0,0,1,3.06,0,3.47,3.47,0,0,1,1.18.78,3.34,3.34,0,0,1,.75,1.21A4.38,4.38,0,0,1,625.9,341.83Zm-1.87,0a2.74,2.74,0,0,0-.51-1.77,1.61,1.61,0,0,0-1.35-.64,1.67,1.67,0,0,0-1,.29,1.71,1.71,0,0,0-.64.83,3.41,3.41,0,0,0-.23,1.29,3.53,3.53,0,0,0,.22,1.28,1.79,1.79,0,0,0,.64.84,1.68,1.68,0,0,0,1,.29,1.61,1.61,0,0,0,1.35-.64A2.74,2.74,0,0,0,624,341.83Z" transform="translate(-437.32 -249.02)"/><path class="cls-16" d="M629.05,339.09v.22a3.75,3.75,0,0,1,1.09-.95,2.73,2.73,0,0,1,1.29-.31,2.93,2.93,0,0,1,1.58.45,3,3,0,0,1,1.15,1.3,4.52,4.52,0,0,1,.42,2,4.94,4.94,0,0,1-.24,1.58,3.52,3.52,0,0,1-.67,1.21,3,3,0,0,1-1,.76,3.06,3.06,0,0,1-1.24.26,2.63,2.63,0,0,1-1.34-.32,3.81,3.81,0,0,1-1-.95v2.81q0,1.23-.9,1.23a.71.71,0,0,1-.69-.32,1.93,1.93,0,0,1-.17-.93v-8a1.18,1.18,0,0,1,.23-.8.81.81,0,0,1,.63-.26.85.85,0,0,1,.65.27A1.09,1.09,0,0,1,629.05,339.09Zm3.66,2.71a3.27,3.27,0,0,0-.23-1.27,1.91,1.91,0,0,0-.62-.81,1.52,1.52,0,0,0-.89-.28,1.67,1.67,0,0,0-1.3.6,2.69,2.69,0,0,0-.53,1.79,2.55,2.55,0,0,0,.53,1.74,1.64,1.64,0,0,0,1.3.62,1.49,1.49,0,0,0,.86-.27,1.83,1.83,0,0,0,.64-.81A3.23,3.23,0,0,0,632.71,341.8Z" transform="translate(-437.32 -249.02)"/></svg>