<svg id="Layer_1" data-name="Layer 1" xmlns="http://www.w3.org/2000/svg" viewBox="0 0 339.17 339.34"><defs><style>.cls-1{fill:#f3dfc3;}.cls-2{fill:#8ac5dc;}.cls-3{fill:#3e352e;}.cls-4{fill:#423a31;}.cls-5{fill:#decaad;}.cls-6{fill:#4a4138;}.cls-7{fill:#433a32;}.cls-8{fill:#ef6d7a;}.cls-9{fill:#f3dfc4;}.cls-10{fill:#d1d755;}.cls-11{fill:#ced455;}.cls-12{fill:#44362f;}.cls-13{fill:#87796f;}</style></defs><title>Discard</title><path class="cls-1" d="M247.41,599.27l-15.73,0c-.84-2.15-2.59-2.28-4.58-2.27q-15.57.09-31.13,0c-16.73-.1-29.44-12.72-29.45-29.42q-.06-118.3,0-236.61c0-16.71,12.7-29.4,29.43-29.42,42.12-.06,84.24,0,126.37-.09,2.69,0,3.25.76,3.24,3.33-.12,15.49-.18,31,.08,46.49.05,3.18-.9,3.54-3.62,3.54q-54.57-.12-109.12,0c-2.1,0-5.65-1.26-5.59,2.34.05,3.2,3.44,2.08,5.48,2.08q55.31.09,110.61.06c1.77,0,3.36-.42,4.49,2.07,5.46,12.1,15,18.28,28.33,18.33l20.25.09,0,17.93q.08,34.19.14,68.37c-14.86,5.4-27.11,14.28-35.79,27.6-1.85,2.83-3.78,3.57-6.94,3.57q-60.53-.15-121.07-.07c-1,0-2,0-3,0-1.43,0-2.6.53-2.67,2-.09,1.64,1.1,2.4,2.67,2.49,1,.05,2,0,3,0H336c-.73,1.79-1.3,3.15-1.85,4.51a66.58,66.58,0,0,0-4.37,34.5c.45,3.25-.16,3.9-3.37,3.89-37.86-.12-75.72-.08-113.57-.08-1,0-2,0-3,0-1.59,0-2.78.69-2.68,2.4.08,1.46,1.2,2.07,2.63,2.08l3,0c38.24,0,76.47,0,114.7-.09,2.92,0,4,.87,4.82,3.55,5.72,18.25,17.09,31.89,33.94,40.94,2,1.08,4.06,2.09,7,3.58H252.3C250.31,597,248.16,596.62,247.41,599.27Zm38.73-149.65h-75c-1.74,0-4-.17-4,2.25s2.14,2.32,3.92,2.36h1.49q73.31,0,146.59,0c2,0,5.28,1,5.2-2.43-.08-3.08-3.2-2.1-5.12-2.11Q322.69,449.56,286.14,449.62Zm-.42-43h73.46c1,0,2,0,3,0a2.07,2.07,0,0,0,2.29-2,2.13,2.13,0,0,0-1.93-2.36,14.09,14.09,0,0,0-3-.16H212.26a22.82,22.82,0,0,0-2.62.05c-1.37.15-2.48.82-2.49,2.3s1,2.14,2.49,2.15l3,0Z" transform="translate(-128.91 -262.46)"/><path class="cls-2" d="M131.25,371.91V355.62c2.62-.5,2.29-2.54,2.29-4.4V298.34c0-19.43,11.86-31.35,31.19-31.35L296,267c15.13,0,30.25-.07,45.38.05a28.72,28.72,0,0,1,27.76,21.55c1.35,5,1,10.18,1.07,15.28.12,11.31,0,22.62,0,33.92l-.84.73a19,19,0,0,0-2.06-3c-12-12.05-24-24-36-36.12a7.52,7.52,0,0,0-5.87-2.45q-64.32.1-128.63.07a35,35,0,0,0-6,.36C173.09,300.48,162,313.76,162,332q0,113.43.06,226.87c0,3.25-.82,4-4,3.42-14.64-2.69-24.47-14.19-24.53-29.17-.07-19.25,0-38.5,0-57.75V376.74C133.54,374.78,134,372.58,131.25,371.91Z" transform="translate(-128.91 -262.46)"/><path class="cls-3" d="M131.25,371.91c2.75.67,2.29,2.87,2.29,4.83v98.62c0,19.25,0,38.5,0,57.75.06,15,9.89,26.48,24.53,29.17,3.15.58,4-.17,4-3.42Q161.93,445.43,162,332c0-18.23,11.09-31.51,28.87-34.62a35,35,0,0,1,6-.36q64.32,0,128.63-.07a7.52,7.52,0,0,1,5.87,2.45c12,12.08,24,24.07,36,36.12a19,19,0,0,1,2.06,3l.84-.73c0-11.3.08-22.61,0-33.92-.05-5.1.28-10.25-1.07-15.28a28.72,28.72,0,0,0-27.76-21.55c-15.13-.12-30.25-.05-45.38-.05l-131.25,0c-19.33,0-31.18,11.92-31.19,31.35v52.88c0,1.86.33,3.9-2.29,4.4-1.85-.37-2.25-1.65-2.25-3.33.05-19.74-.35-39.51.2-59.24.46-16.44,15.29-30.47,31.74-30.5q90.75-.18,181.5,0c18.08.05,32,15.12,32.32,34.4.21,14.38.24,28.75.24,43.13a6.66,6.66,0,0,0,2.16,5.21c9.44,9.3,18.71,18.76,28.16,28a8.2,8.2,0,0,1,2.75,6.49c-.11,26.62,0,53.25-.12,79.87,0,2.7.61,3.62,3.46,4.2,29.22,6,50.36,27.64,55.63,56.69,6.49,35.79-18.23,72.11-54,79.39a72.14,72.14,0,0,1-27.16.42,5.63,5.63,0,0,0-1.83-.26c-15.88,2.89-31.9,1.06-47.85,1.25-28,.34-56,.1-84,.08-1.91,0-4.18.6-4.82-2.22.75-2.65,2.9-2.28,4.89-2.28H373.17c-2.92-1.49-5-2.5-7-3.58-16.85-9-28.22-22.69-33.94-40.94-.84-2.68-1.9-3.56-4.82-3.55-38.23.13-76.46.09-114.7.09l-3,0c-1.43,0-2.55-.62-2.63-2.08-.1-1.71,1.09-2.38,2.68-2.4,1,0,2,0,3,0,37.85,0,75.71,0,113.57.08,3.21,0,3.82-.64,3.37-3.89a66.58,66.58,0,0,1,4.37-34.5c.55-1.36,1.12-2.72,1.85-4.51H212.83c-1,0-2,0-3,0-1.57-.09-2.76-.85-2.67-2.49.07-1.46,1.24-2,2.67-2,1,0,2,0,3,0q60.54,0,121.07.07c3.16,0,5.09-.74,6.94-3.57,8.68-13.32,20.93-22.2,35.79-27.6,7.95-2.24,16-3.81,24.32-3.27,2.34.15,2.6-.88,2.57-2.81-.1-5.62,0-11.23,0-16.84q0-30.12,0-60.24c0-1.36,1-3.44-1.95-3.39-8.35.14-16.7.17-25,.25l-20.25-.09c-13.37-.05-22.87-6.23-28.33-18.33-1.13-2.49-2.72-2.07-4.49-2.07q-55.31,0-110.61-.06c-2,0-5.43,1.12-5.48-2.08-.06-3.6,3.49-2.33,5.59-2.34q54.56-.09,109.12,0c2.72,0,3.67-.36,3.62-3.54-.26-15.49-.2-31-.08-46.49,0-2.57-.55-3.34-3.24-3.33-42.13.09-84.25,0-126.37.09-16.73,0-29.42,12.71-29.43,29.42q-.06,118.31,0,236.61c0,16.7,12.72,29.32,29.45,29.42q15.57.1,31.13,0c2,0,3.74.12,4.58,2.27-.61,1.83-1.9,2.31-3.76,2.3-11.49-.08-23,.14-34.47-.12-16.19-.37-30.73-14.81-31.33-31-.1-2.76-.8-3.31-3.5-3.55-16.54-1.43-29.55-16-29.57-33.05q-.11-78.69,0-157.37c0-.5,0-1,0-1.5A2.7,2.7,0,0,1,131.25,371.91ZM333.68,532.08a64.87,64.87,0,0,0,129.73.19c.11-35.62-29.07-65-64.65-65A64.76,64.76,0,0,0,333.68,532.08Zm-3.52-226.46a4.28,4.28,0,0,0-.14.76q0,21,0,42c0,16.14,10.52,26.71,26.69,26.78,13.38.06,26.75,0,40.12,0,.9,0,2,.47,2.63-.35Z" transform="translate(-128.91 -262.46)"/><path class="cls-4" d="M445.53,322.7c-1.55-.18-2-1.25-2.32-2.55a34.66,34.66,0,0,0-4.16-9.93c-2.82-4.35-6.36-7.63-11.78-8.31-1.51-.19-3.22-.53-3.22-2.45s1.57-2.15,3.1-2.59c8.8-2.52,15.11-7.45,16.25-17.24a2.54,2.54,0,0,1,2.31-2.55c1.48-.11,2.2,1,2.59,2.24a34.32,34.32,0,0,0,4.17,8.72c3,4.53,6.85,7.91,12.43,8.76,1.42.22,2.83.45,3,2.19s-1.21,2.25-2.49,2.81a39,39,0,0,0-11.64,7.31c-3,2.82-5.14,6.05-5.61,10.25C448,321,447.81,322.73,445.53,322.7ZM434.2,299.12c5.33,3.11,8.59,7.66,11.28,13.23,3.29-5.81,8-9.25,13.21-12.56-5.79-2.92-9.17-7.45-12.32-12.74A26.18,26.18,0,0,1,434.2,299.12Z" transform="translate(-128.91 -262.46)"/><path class="cls-4" d="M413.27,336.11c-1.81-.09-2.19-1.28-2.55-2.51a24.27,24.27,0,0,0-3-6.83c-1.78-2.66-4-4.76-7.37-5.24-1.48-.2-3.12-.54-3.09-2.57,0-1.72,1.36-2.1,2.77-2.49,5.9-1.61,9.92-5.09,10.87-11.41.22-1.44.89-2.43,2.29-2.5,1.21-.07,2,.79,2.4,2a26.56,26.56,0,0,0,3.35,6.64c1.88,2.62,4.22,4.64,7.47,5.21,1.46.26,2.85.55,3.12,2.13.33,1.92-1.35,2.49-2.71,3.06a27.67,27.67,0,0,0-6.09,3.6c-2.76,2.13-4.83,4.72-5.24,8.3C415.35,335.08,414.78,336.09,413.27,336.11Zm-.06-9.39c2-3.43,5-5.14,7.6-7.49-3.09-1.89-5-4.65-7.2-7.35-1.76,3-4.32,5-6.89,7.12C409.42,321,411.22,323.51,413.21,326.72Z" transform="translate(-128.91 -262.46)"/><path class="cls-4" d="M429.65,278.82c-.11,1.33-1,2-2.27,2.54a26.6,26.6,0,0,0-7.87,4.9,11.3,11.3,0,0,0-4,7.36c-.13,1.4-.69,2.44-2.18,2.56s-2.13-.91-2.52-2.23a36.31,36.31,0,0,0-1.65-4.55c-1.89-4.16-4.64-7.37-9.48-8.06-1.43-.2-2.37-.8-2.38-2.31s1-2,2.35-2.41c6.15-1.64,10.43-5.13,11.34-11.82a2.26,2.26,0,0,1,2.11-2.22,2.32,2.32,0,0,1,2.46,1.84,29.3,29.3,0,0,0,3.09,6.34c2,2.89,4.42,5,8,5.68C428,276.69,429.35,277,429.65,278.82Zm-16-7c-1.8,2.77-5.66,4.59-6.11,6.8-.48,2.38,3.9,4.49,5.21,7.43,0,.06.19.06.64.19,1.84-2.73,4.63-4.71,7.41-7A31.12,31.12,0,0,1,413.67,271.85Z" transform="translate(-128.91 -262.46)"/><path class="cls-5" d="M376.47,379.76c8.34-.08,16.69-.11,25-.25,2.9-.05,1.95,2,1.95,3.39q.07,30.12,0,60.24c0,5.61-.06,11.22,0,16.84,0,1.93-.23,3-2.57,2.81-8.31-.54-16.37,1-24.32,3.27q-.08-34.18-.14-68.37Z" transform="translate(-128.91 -262.46)"/><path class="cls-6" d="M286.14,449.61q36.54,0,73.1,0c1.92,0,5-1,5.12,2.11.08,3.43-3.18,2.43-5.2,2.43q-73.29.07-146.59,0h-1.49c-1.78,0-4,0-3.92-2.36s2.25-2.25,4-2.25Z" transform="translate(-128.91 -262.46)"/><path class="cls-7" d="M285.72,406.64H212.63l-3,0c-1.45,0-2.5-.65-2.49-2.15s1.12-2.15,2.49-2.3a22.82,22.82,0,0,1,2.62-.05h147.3a14.09,14.09,0,0,1,3,.16,2.13,2.13,0,0,1,1.93,2.36,2.07,2.07,0,0,1-2.29,2c-1,0-2,0-3,0Z" transform="translate(-128.91 -262.46)"/><path class="cls-8" d="M333.68,532.08a64.76,64.76,0,0,1,65.08-64.84c35.58.05,64.76,29.41,64.65,65a64.87,64.87,0,0,1-129.73-.19Zm27.64,27.1c-.05,5.12,2,8.32,5.93,10.26,4.1,2,8.41,1.3,12-2.21Q388,558.76,396.51,550c1.56-1.61,2.42-1.77,4.07,0,5.44,5.68,11,11.22,16.66,16.73,5.06,5,11.19,5.15,15.6.65s4-10.68-.91-15.64c-5.26-5.33-10.51-10.69-15.93-15.86-2-2-2.38-3.13-.12-5.25,5.39-5,10.51-10.33,15.69-15.58s5.7-11.67,1.09-16.16-10.55-4-15.84,1.23c-5.5,5.45-11,10.89-16.39,16.46-1.52,1.58-2.32,1.44-3.76,0-5.48-5.64-11.07-11.18-16.67-16.71-5-5-11.13-5.3-15.63-.95s-4.12,10.84.91,15.91c5.46,5.51,10.88,11,16.46,16.41,1.71,1.65,1.57,2.56-.06,4.14-5.66,5.46-11.15,11.1-16.74,16.65C362.73,554.13,361.2,556.6,361.32,559.18Z" transform="translate(-128.91 -262.46)"/><path class="cls-9" d="M330.16,305.62l69.29,69.17c-.66.82-1.73.35-2.63.35-13.37,0-26.74.07-40.12,0-16.17-.07-26.68-10.64-26.69-26.78q0-21,0-42A4.28,4.28,0,0,1,330.16,305.62Z" transform="translate(-128.91 -262.46)"/><path class="cls-10" d="M434.2,299.12a26.18,26.18,0,0,0,12.17-12.07c3.15,5.29,6.53,9.82,12.32,12.74-5.24,3.31-9.92,6.75-13.21,12.56C442.79,306.78,439.53,302.23,434.2,299.12Z" transform="translate(-128.91 -262.46)"/><path class="cls-10" d="M413.21,326.72c-2-3.21-3.79-5.73-6.49-7.72,2.57-2.12,5.13-4.09,6.89-7.12,2.22,2.7,4.11,5.46,7.2,7.35C418.18,321.58,415.24,323.29,413.21,326.72Z" transform="translate(-128.91 -262.46)"/><path class="cls-11" d="M413.67,271.85a31.12,31.12,0,0,0,7.15,7.44c-2.78,2.27-5.57,4.25-7.41,7-.45-.13-.61-.13-.64-.19-1.31-2.94-5.69-5.05-5.21-7.43C408,276.44,411.87,274.62,413.67,271.85Z" transform="translate(-128.91 -262.46)"/><path class="cls-12" d="M361.32,559.18c-.12-2.58,1.41-5,3.62-7.25,5.59-5.55,11.08-11.19,16.74-16.65,1.63-1.58,1.77-2.49.06-4.14-5.58-5.37-11-10.9-16.46-16.41-5-5.07-5.38-11.6-.91-15.91s10.62-4,15.63.95c5.6,5.53,11.19,11.07,16.67,16.71,1.44,1.49,2.24,1.63,3.76,0,5.37-5.57,10.89-11,16.39-16.46,5.29-5.25,11.27-5.69,15.84-1.23s4.21,10.8-1.09,16.16-10.3,10.56-15.69,15.58c-2.26,2.12-1.92,3.3.12,5.25,5.42,5.17,10.67,10.53,15.93,15.86,4.88,5,5.21,11.25.91,15.64s-10.54,4.31-15.6-.65c-5.63-5.51-11.22-11-16.66-16.73-1.65-1.72-2.51-1.56-4.07,0q-8.47,8.76-17.22,17.23c-3.63,3.51-7.94,4.22-12,2.21C363.3,567.5,361.27,564.3,361.32,559.18Zm69.94-52.77a5.69,5.69,0,0,0-3.44-5.33c-2.62-1.33-4.87-.48-6.78,1.41-6.39,6.33-12.81,12.64-19.06,19.1-2.51,2.59-4.41,2.46-6.86-.08-6-6.2-12.14-12.24-18.25-18.31-3.29-3.27-6.59-3.66-9.21-1.16s-2.25,6.26,1,9.51c6.08,6.12,12.1,12.29,18.32,18.25,2.57,2.45,2.76,4.2.09,6.74-6.32,6-12.42,12.31-18.59,18.51-1,1.05-2.28,2-2.45,3.65-.25,2.49,0,4.86,2.51,6.15a6.33,6.33,0,0,0,7.9-1.2c6.21-6.16,12.37-12.36,18.56-18.54,3.6-3.59,3.61-3.59,7.32.12,5.92,5.91,11.82,11.85,17.76,17.75,3.19,3.16,6.76,3.59,9.26,1.22,2.81-2.68,2.54-6-.86-9.41-6.17-6.21-12.3-12.45-18.58-18.52-2.38-2.3-2.23-4,.07-6.2,6.28-6.08,12.4-12.34,18.59-18.51C430,510.12,431.27,508.63,431.26,506.41Z" transform="translate(-128.91 -262.46)"/><path class="cls-13" d="M431.26,506.41c0,2.22-1.28,3.71-2.72,5.15-6.19,6.17-12.31,12.43-18.59,18.51-2.3,2.23-2.45,3.9-.07,6.2,6.28,6.07,12.41,12.31,18.58,18.52,3.4,3.42,3.67,6.73.86,9.41-2.5,2.37-6.07,1.94-9.26-1.22-5.94-5.9-11.84-11.84-17.76-17.75-3.71-3.71-3.72-3.71-7.32-.12-6.19,6.18-12.35,12.38-18.56,18.54a6.33,6.33,0,0,1-7.9,1.2c-2.5-1.29-2.76-3.66-2.51-6.15.17-1.65,1.41-2.6,2.45-3.65,6.17-6.2,12.27-12.48,18.59-18.51,2.67-2.54,2.48-4.29-.09-6.74-6.22-6-12.24-12.13-18.32-18.25-3.23-3.25-3.58-7-1-9.51s5.92-2.11,9.21,1.16c6.11,6.07,12.27,12.11,18.25,18.31,2.45,2.54,4.35,2.67,6.86.08,6.25-6.46,12.67-12.77,19.06-19.1,1.91-1.89,4.16-2.74,6.78-1.41A5.69,5.69,0,0,1,431.26,506.41Z" transform="translate(-128.91 -262.46)"/></svg>