<svg id="Layer_1" data-name="Layer 1" xmlns="http://www.w3.org/2000/svg" viewBox="0 0 384.11 383.87"><defs><style>.cls-1{fill:#050504;}.cls-2{fill:#bfdea7;}</style></defs><title>Done_Successful</title><path class="cls-1" d="M543,529.58c4.61-1.92,8.8-4.62,13.07-7.17,9.94-5.95,21.12-3.59,26.77,5.67s2.74,20.29-7.11,26.43a195.42,195.42,0,0,1-81.13,28.13c-1.88.22-3.92-.5-5.63.86H457.5c-3.35-1.36-6.95-1.13-10.44-1.66a195.29,195.29,0,0,1-73.2-26.45c-68.54-41.74-101.95-119.93-89.36-195.85,5.76-34.67,20-65.81,43.14-92.22,47.49-54.15,107.61-75.53,178.55-65.15,36.32,5.31,68.24,21.4,95.62,46C636,278.8,656.56,317,663.88,362.37c.72,4.46.51,9.07,2.12,13.38v33c-1.61,1.69-.84,3.94-1.29,5.91-2.33,10-11.49,16.52-21.41,15a18.72,18.72,0,0,1-15.71-20.45c3.47-34.45-3.23-66.72-20.87-96.56-15.26-25.81-36.57-45.26-63.22-58.92a5.29,5.29,0,0,0-1.07-.31,22.38,22.38,0,0,0-2.18-1.34c-28.58-13.23-58.4-17.81-89.6-12.9-37.42,5.89-69,22.83-93.45,51.66-32,37.76-44.09,81.5-34.63,130.37,8.5,43.89,32.1,77.91,70,101.6,33.65,21,70.37,27.62,109.38,20.78A133,133,0,0,0,543,529.58Z" transform="translate(-281.89 -199.63)"/><path class="cls-2" d="M543,529.58a133,133,0,0,1-41.08,14c-39,6.84-75.73.26-109.38-20.78-37.9-23.69-61.5-57.71-70-101.6-9.46-48.87,2.63-92.61,34.63-130.37,24.43-28.83,56-45.77,93.45-51.66,31.2-4.91,61-.33,89.6,12.9a22.38,22.38,0,0,1,2.18,1.34c-21.88,17.05-39.27,37.79-51.29,62.84a164.62,164.62,0,0,0-15.75,54.2c-.62,5.81-1.59,11.58-1.3,17.46-8.76,8.89-17.58,17.72-26.23,26.71-1.9,2-2.91,1.67-4.66-.11-10.08-10.24-20.29-20.36-30.44-30.53-5.27-5.28-11.56-7.38-18.78-5.44-14.21,3.83-18.72,21-8.27,31.53,15.11,15.29,30.36,30.44,45.57,45.62,8.78,8.76,19.66,8.78,28.44.12l20.25-20c2.75,12.66,7.72,24.5,13.67,35.91a169.83,169.83,0,0,0,35.78,46.77C533.72,522.45,538,526.51,543,529.58Z" transform="translate(-281.89 -199.63)"/><path class="cls-1" d="M480,435.81l-20.25,20c-8.78,8.66-19.66,8.64-28.44-.12-15.21-15.18-30.46-30.33-45.57-45.62-10.45-10.55-5.94-27.7,8.27-31.53,7.22-1.94,13.51.16,18.78,5.44,10.15,10.17,20.36,20.29,30.44,30.53,1.75,1.78,2.76,2.09,4.66.11,8.65-9,17.47-17.82,26.23-26.71,5.07-5,10.18-9.92,15.21-14.94,15.48-15.45,30.85-31,46.42-46.37,10.47-10.33,27.44-6.1,31.52,7.78a17.79,17.79,0,0,1-4.46,18.34c-5.63,5.85-11.44,11.53-17.18,17.28Q512.8,402.9,480,435.81Z" transform="translate(-281.89 -199.63)"/></svg>