<svg id="Layer_1" data-name="Layer 1" xmlns="http://www.w3.org/2000/svg" viewBox="0 0 344.86 430.28"><title>download BW</title><path d="M148.66,552.14c-1.17-.65-2.35-1.29-3.51-1.95-5.49-3.11-8.94-7.66-9.08-14.1-.19-8.4-.26-16.81,0-25.2A16.48,16.48,0,0,1,151.5,495c1.81-.15,3.63-.19,5.45-.19q151.44,0,302.86,0a36.19,36.19,0,0,1,8.34.62,16.15,16.15,0,0,1,12.46,15.47c.22,7.84.14,15.68.12,23.52,0,8.19-4,13.71-11.51,16.83a6.45,6.45,0,0,0-1.22.91Z" transform="translate(-135.9 -121.85)"/><path d="M338.89,366a19.26,19.26,0,0,1,2.42-3.94q26.94-27.13,54-54.14c9.73-9.73,19.14-9.76,28.79-.12,4.46,4.45,9,8.86,13.36,13.38,7.88,8.1,8,18,0,26.06q-58,58.16-116.17,116.14c-7.93,7.9-17.73,7.85-25.66,0q-58.19-58-116.23-116.08c-7.92-7.93-7.83-18,0-26.09,4.48-4.63,9.08-9.14,13.65-13.68,9.1-9,18.89-9.08,27.93-.06q27.36,27.28,54.65,54.66c1.08,1.09,2,2.37,2.95,3.57l1.18-.4v-4.65q0-110.07,0-220.14c0-11.55,7-18.51,18.54-18.56,3.36,0,6.72,0,10.08,0,3.92,0,7.84-.05,11.76,0a16.88,16.88,0,0,1,16.78,15.56c.19,2.08.22,4.19.22,6.29q0,108,0,215.93v5Z" transform="translate(-135.9 -121.85)"/></svg>