<svg id="Layer_1" data-name="Layer 1" xmlns="http://www.w3.org/2000/svg" viewBox="0 0 349.87 349.98"><defs><style>.cls-1{fill:#e4f5fa;}.cls-2{fill:#5b5858;}.cls-3{fill:#0b0a09;}.cls-4{fill:#ffe0b2;}.cls-5{fill:#dec29b;}.cls-6{fill:#f3f4f4;}.cls-7{fill:#f3f3f4;}.cls-8{fill:#ddc19a;}.cls-9{fill:#ddc29a;}.cls-10{fill:#ced6da;}.cls-11{fill:#cdd6d9;}.cls-12{fill:#f5f5f5;}.cls-13{fill:#14120c;}.cls-14{fill:#09090a;}.cls-15{fill:#e5e5e5;}.cls-16{fill:#5ca0d7;}.cls-17{fill:#e5e5e4;}.cls-18{fill:#5c9fd6;}.cls-19{fill:#e4e4e4;}.cls-20{fill:#3d79bd;}.cls-21{fill:#e0e0e0;}.cls-22{fill:#dfdfdf;}.cls-23{fill:#c7c7c6;}.cls-24{fill:#b0b0b0;}.cls-25{fill:#c1c1c1;}.cls-26{fill:#03060b;}.cls-27{fill:#b2b1b2;}.cls-28{fill:#787878;}.cls-29{fill:#0e0b0a;}.cls-30{fill:#e69770;}.cls-31{fill:#f7e7d3;}.cls-32{fill:#e7cfb9;}.cls-33{fill:#fbc92b;}</style></defs><title>egg fish meat</title><rect class="cls-1" width="349.87" height="349.87" rx="23.29"/><path class="cls-2" d="M330.48,365.37a16.6,16.6,0,0,1,0-8.68Z" transform="translate(-122.79 -256.67)"/><path class="cls-3" d="M290.61,606.64H274.25c-.23-.65-.81-.47-1.28-.52a58.57,58.57,0,0,1-14-3.43,45.34,45.34,0,0,1-20.15-15.25,28.9,28.9,0,0,1-9.4,7.52c-12.57,6-27.57,3.84-34.09-12.65a65.33,65.33,0,0,1-2.85-10c-.63-2.85-.37-5.84-1.5-8.59v-22c.4-.1.49-.4.51-.76a108.36,108.36,0,0,1,2.09-15.65c2-9.77,4.52-19.36,10.55-27.57,1-1.32,0-1.77-.59-2.47a48.83,48.83,0,0,1-10.63-18.92c-.72-2.39-.74-4.95-1.93-7.21V456.89c.16-.17.43-.33.46-.52,2.09-14.17,9.22-25.15,21-33.24a18.25,18.25,0,0,0,6.18-7.31c1.94-4.05,3.9-8.09,5.85-12.13a13.41,13.41,0,0,1,9.06-7.58,2.34,2.34,0,0,0,1.35-.56c3.64-4,3.41-8.71-.61-12a21.89,21.89,0,0,1-2.23-31.4,21.62,21.62,0,0,1,31.2-1.09c1.48,1.45,2.56,1.52,4.38,1a21.8,21.8,0,0,1,28.13,20.68c.05,10.73-7.4,19.55-18.53,21.75-2.57.51-3.91,1.77-4,4.4,0,1.19-.18,2.38-.33,3.56a3.86,3.86,0,0,0,1.46,3.75,11.79,11.79,0,0,1,4.14,9.23V419c29-23.07,57.8-23.1,86.73,0-.53-5.53.59-10.23,5-13.68a1.52,1.52,0,0,0,.45-.61,8.08,8.08,0,0,0-5.48-10.52c-12.38-2.86-19.81-15-16.49-27a21.7,21.7,0,0,1,28.06-14.94,2.66,2.66,0,0,0,3.26-.82,21.65,21.65,0,0,1,31.59.75,21.87,21.87,0,0,1-2.25,31.41c-4.16,3.52-4.24,3.84-2.13,8.78.34.78.7,1.55,1.05,2.32a2.42,2.42,0,0,0,1.83,1.51,13.06,13.06,0,0,1,9.05,7.55c1.71,3.59,3.57,7.12,5.18,10.76a23,23,0,0,0,8.09,9.61,46.88,46.88,0,0,1,18.84,27.58c.53,2.08.43,4.31,1.44,6.27v.51a16.53,16.53,0,0,0,0,8.69v1.53c-.17.16-.46.3-.48.48a47.88,47.88,0,0,1-12.64,26.63,1.25,1.25,0,0,0-.1,1.92c7.07,9.94,9.62,21.47,11.68,33.19.61,3.44.46,7,1.54,10.36v22.49c-.87.39-.46,1.18-.53,1.79a65.48,65.48,0,0,1-3.63,16.35c-4.75,12.45-14.44,18-27.35,15.53a27.88,27.88,0,0,1-16.32-9.94l-.71.88a45.56,45.56,0,0,1-26.23,16.47c-3.15.75-6.37,1.24-9.56,1.85H351.94c-.16-.16-.31-.44-.49-.46a59.09,59.09,0,0,1-19-6.11,22.66,22.66,0,0,0-21.51.12A76.24,76.24,0,0,1,302,604C298.33,605.29,294.39,605.6,290.61,606.64ZM272.28,386.41h0c1.48-.32,3-.6,4.43-1,7-1.79,11-7.89,9.84-15.16-1-6.31-7-10.82-13.81-10.42a2,2,0,0,0-1.56.23l-.51.18a6.29,6.29,0,0,0-1.24.2,13.58,13.58,0,0,0-8.5,9.44,4.27,4.27,0,0,1-5.59,3,4.45,4.45,0,0,1-2.72-5.56,19.76,19.76,0,0,1,4.24-8.28c.76-.88.89-1.44-.07-2.2-3.14-2.47-6.66-3.78-10.66-3-5.53,1-9.25,4.36-10.53,9.78s.44,10.24,5,13.73a15.28,15.28,0,0,1,3.46,3.35c3.23,4.69,3,9.5.63,14.45-.36.77-1.38,1.86.48,2.26l10.16,2.18c2.28.59,4.59,1.1,6.83,1.81,1.42.45,1.95.28,2-1.34A15.89,15.89,0,0,1,268.3,389a.28.28,0,0,0,.32-.24l.44-.37,2.63-1.61A.45.45,0,0,0,272.28,386.41ZM391.93,398.9a34.54,34.54,0,0,1,4.94-1.13c2.57-.22,2.67-1.14,1.71-3.31-3.16-7.16-1.73-12.33,4.47-17.2a13.06,13.06,0,0,0,5.11-12.55c-.84-7.16-8.64-12.51-15.4-10.59-2.87.27-5,1.82-7,3.82A22.11,22.11,0,0,1,391,368a4.41,4.41,0,0,1-2.71,4.92,4.35,4.35,0,0,1-5.41-2.13,24.07,24.07,0,0,1-.83-2.39,13.11,13.11,0,0,0-25.43,4.56c.07,6.41,4.78,11.66,11.58,12.87,5.59,1,9.08,4.32,10.59,9.71a21.28,21.28,0,0,1,.55,4.8c.05,1.3.54,1.55,1.73,1.24C384.7,400.63,388.32,399.78,391.93,398.9ZM377.57,595.56c.66-.16,1.33-.28,2-.5,13-4.43,20.92-13.87,25-26.6,6.91-21.47,4.95-42.9-.86-64.24a121.61,121.61,0,0,0-5.58-17.14c-1.29-3.34-.47-5.71,2.25-6.75,2.57-1,4.66.29,5.92,3.59,2,5.21,3.73,10.53,5.24,15.92.39,1.4.9,1.9,2.26,1.34l.63-.28.21,0,.18-.12a2.37,2.37,0,0,0,.75,0,39.41,39.41,0,0,0,28.11-39.7C443,448,437,437.84,426.19,430.43a27.44,27.44,0,0,1-9.27-10.94c-1.92-4-3.84-7.93-5.72-11.92-1.13-2.4-2.92-3.45-5.55-2.84-1.23.28-2.43.65-3.64,1-8.42,1.93-16.86,3.81-25.26,5.85a3.82,3.82,0,0,0-2.87,4.06c0,2.89.19,5.8,0,8.68a8.58,8.58,0,0,0,2.53,6.83,115.54,115.54,0,0,1,11.69,15.75c1.5,2.37,1,4.89-1,6.33s-4.56.84-6.24-1.41c-.86-1.15-1.59-2.41-2.41-3.6-7-10.22-14.94-19.64-25.14-26.9-13.16-9.37-27.54-13.39-43.56-9.34-11.36,2.87-20.68,9.29-28.95,17.33a123.67,123.67,0,0,0-17.41,21.62c-2.11,3.27-4.5,4-6.94,2.39s-2.54-4-.44-7.12c2.25-3.3,4.16-7,7-9.7a21.35,21.35,0,0,0,6.68-19.7,4.34,4.34,0,0,1,0-.51c-.05-2.85-1.05-4.22-3.82-4.89q-13.72-3.33-27.46-6.56c-3.2-.74-4.69.06-6.15,3q-3,6-5.92,12.11a27.23,27.23,0,0,1-9,10.51c-12.88,9.13-18.75,21.5-17.18,37.33,1.54,15.46,14,29.77,29.17,33.43,1.85.45,2.53-.14,3-1.85a150.26,150.26,0,0,1,5.21-15.92c1.1-2.89,3.3-4,5.74-3.14,2.6,1,3.59,3.32,2.43,6.27a165.32,165.32,0,0,0-9.44,34.77c-2.37,14.89-2.17,29.67,1.9,44.23,3.62,12.93,10.53,23.62,23.6,28.53,15.07,5.67,30.25,5.66,45-1.67,10.14-5,20.2-5.07,30.31,0C350.06,599.09,363.67,599.36,377.57,595.56ZM199.63,551.92a96.46,96.46,0,0,0,.61,12.5c.54,6,1.54,12,4.52,17.35,2,3.56,4.62,6.38,8.83,7.05,7.86,1.27,14.09-1.66,19-7.72a3.13,3.13,0,0,0,.46-3.66,92.24,92.24,0,0,1-6.32-22.71c-2.09-14.3-1-28.49,2.14-42.52.43-2-.24-2.27-1.72-2.57a48.55,48.55,0,0,1-10.66-4c-1.81-.85-3.47-3.42-5.29-2.41-1.6.89-2.45,3.36-3.31,5.29C201.75,522.3,200.1,537,199.63,551.92ZM432,502.47a44.5,44.5,0,0,1-16.19,7.3c-1.56.34-1.44.94-1.16,2.25,4.88,22.4,4.7,44.49-4.42,66a2.53,2.53,0,0,0,.45,2.77,19.87,19.87,0,0,0,11.56,7.85c7.91,2,13.58-.7,17.19-8.05a39.11,39.11,0,0,0,3.42-12.19,126.32,126.32,0,0,0-3.08-48.28C438.18,513.83,436.07,507.75,432,502.47Z" transform="translate(-122.79 -256.67)"/><path class="cls-4" d="M413.78,501.18c-1.36.56-1.87.06-2.26-1.34-1.51-5.39-3.22-10.71-5.24-15.92-1.26-3.3-3.35-4.58-5.92-3.59-2.72,1-3.54,3.41-2.25,6.75a121.61,121.61,0,0,1,5.58,17.14c-1.4,2.14-3.81,1.44-5.76,2-1.42.38-2.1.61-1.64,2.47a119.7,119.7,0,0,1,3.81,33.85c-.41,10.07-1.71,19.87-5.14,29.36a46,46,0,0,1-13.35,19.78c-1.4,1.21-3.55,1.75-4,3.92-13.9,3.8-27.51,3.53-40.62-3.08-10.11-5.1-20.17-5.07-30.31,0-14.72,7.33-29.9,7.34-45,1.67-13.07-4.91-20-15.6-23.6-28.53-4.07-14.56-4.27-29.34-1.9-44.23a165.32,165.32,0,0,1,9.44-34.77c1.16-2.95.17-5.28-2.43-6.27-2.44-.91-4.64.25-5.74,3.14a150.26,150.26,0,0,0-5.21,15.92c-.44,1.71-1.12,2.3-3,1.85-15.16-3.66-27.63-18-29.17-33.43-1.57-15.83,4.3-28.2,17.18-37.33a27.23,27.23,0,0,0,9-10.51q2.94-6.06,5.92-12.11c1.46-3,3-3.77,6.15-3q13.74,3.21,27.46,6.56c2.77.67,3.77,2,3.82,4.89a4.34,4.34,0,0,0,0,.51,21.35,21.35,0,0,1-6.68,19.7c-2.82,2.72-4.73,6.4-7,9.7-2.1,3.09-1.91,5.53.44,7.12s4.83.88,6.94-2.39a123.67,123.67,0,0,1,17.41-21.62c8.27-8,17.59-14.46,28.95-17.33,16-4,30.4,0,43.56,9.34,10.2,7.26,18.11,16.68,25.14,26.9.82,1.19,1.55,2.45,2.41,3.6,1.68,2.25,4.28,2.8,6.24,1.41s2.5-4,1-6.33a115.54,115.54,0,0,0-11.69-15.75,8.58,8.58,0,0,1-2.53-6.83c.2-2.88,0-5.79,0-8.68a3.82,3.82,0,0,1,2.87-4.06c8.4-2,16.84-3.92,25.26-5.85,1.81,3.65,3.72,7.25,5.4,11a23.21,23.21,0,0,0,7.8,9.8,44.87,44.87,0,0,1,13.33,13.76c3.67,6.19,6.44,12.69,6.06,20.11-1.53-1.73-3.33-2.56-5.6-1.55a4.35,4.35,0,0,0,.16,8c2,.92,3.57.09,5.07-1.15,1,1.4.56,2.94.3,4.39-2.17,12.2-8.54,21.78-18.38,29.14-.62.46-1.35.76-1.35,1.69l-.18.12-.21,0ZM243.05,541.43a71.51,71.51,0,0,0,4.07,23.4c5.45,15.23,19.37,25,34.95,24.43,2.8-.1,4.88-2,4.91-4.51,0-2.19-2.26-4.16-4.86-4.19-14.79-.17-24-8.64-27.79-21.82a73.62,73.62,0,0,1-2.54-21.91,3.89,3.89,0,0,0-3.49-4.26,4.27,4.27,0,0,0-4.78,3C242.79,537.45,243.24,539.43,243.05,541.43Zm-17.27-96a4.13,4.13,0,0,0-4.2-4.42,4.34,4.34,0,0,0-4.52,4.19,4.59,4.59,0,0,0,4.29,4.53A4.4,4.4,0,0,0,225.78,445.39ZM212.65,467.1a4.29,4.29,0,0,0,4.41-4.28,4.16,4.16,0,0,0-4.21-4.42,4.38,4.38,0,0,0-4.51,4.22A4.53,4.53,0,0,0,212.65,467.1ZM422.22,441a4.14,4.14,0,0,0-4.42,4.21,4.36,4.36,0,0,0,4.2,4.52,4.6,4.6,0,0,0,4.52-4.3A4.4,4.4,0,0,0,422.22,441ZM221.51,484.5a4.35,4.35,0,0,0-.09-8.7,4.35,4.35,0,1,0,.09,8.7Zm205-4.46A4.51,4.51,0,0,0,422,475.8a4.35,4.35,0,0,0,.23,8.7A4.48,4.48,0,0,0,426.52,480Z" transform="translate(-122.79 -256.67)"/><path class="cls-5" d="M199.63,551.92c.47-14.91,2.12-29.62,8.29-43.44.86-1.93,1.71-4.4,3.31-5.29,1.82-1,3.48,1.56,5.29,2.41a48.55,48.55,0,0,0,10.66,4c1.48.3,2.15.62,1.72,2.57-3.14,14-4.23,28.22-2.14,42.52a92.24,92.24,0,0,0,6.32,22.71,3.13,3.13,0,0,1-.46,3.66c-4.94,6.06-11.17,9-19,7.72-4.21-.67-6.87-3.49-8.83-7.05-3-5.39-4-11.35-4.52-17.35A96.46,96.46,0,0,1,199.63,551.92Z" transform="translate(-122.79 -256.67)"/><path class="cls-5" d="M432,502.47c4.05,5.28,6.16,11.36,7.77,17.61a126.32,126.32,0,0,1,3.08,48.28,39.11,39.11,0,0,1-3.42,12.19c-3.61,7.35-9.28,10.05-17.19,8.05a19.87,19.87,0,0,1-11.56-7.85,2.53,2.53,0,0,1-.45-2.77c9.12-21.47,9.3-43.56,4.42-66-.28-1.31-.4-1.91,1.16-2.25A44.5,44.5,0,0,0,432,502.47Z" transform="translate(-122.79 -256.67)"/><path class="cls-6" d="M271.16,360.1a2,2,0,0,1,1.56-.23A18.37,18.37,0,0,1,275.48,382c-.94,1.62-3,2.36-3.22,4.44h0l-.59.35-2.63,1.61-.44.37a.28.28,0,0,1-.32.24c-1.34-.19-2.44.67-3.68.83-5.72.74-8.59,3.17-9.28,9.81l-10.16-2.18c-1.86-.4-.84-1.49-.48-2.26,2.37-4.95,2.6-9.76-.63-14.45a15.28,15.28,0,0,0-3.46-3.35c-4.59-3.49-6.34-8.22-5-13.73s5-8.75,10.53-9.78c4-.75,7.52.56,10.66,3,1,.76.83,1.32.07,2.2a19.76,19.76,0,0,0-4.24,8.28,4.45,4.45,0,0,0,2.72,5.56,4.27,4.27,0,0,0,5.59-3,13.58,13.58,0,0,1,8.5-9.44,6.29,6.29,0,0,1,1.24-.2Z" transform="translate(-122.79 -256.67)"/><path class="cls-7" d="M391.93,398.9c-3.61.88-7.23,1.73-10.84,2.66-1.19.31-1.68.06-1.73-1.24a21.28,21.28,0,0,0-.55-4.8c-1.51-5.39-5-8.71-10.59-9.71-6.8-1.21-11.51-6.46-11.58-12.87a13.11,13.11,0,0,1,25.43-4.56,24.07,24.07,0,0,0,.83,2.39,4.35,4.35,0,0,0,5.41,2.13A4.41,4.41,0,0,0,391,368a22.11,22.11,0,0,0-5.27-10c2-2,4.14-3.55,7-3.82,1.58-.07,2.49,1,3.31,2.07a17.56,17.56,0,0,1-3.22,24.36c-4.85,3.68-5.64,7-3.21,12.69C390.44,395.11,391.17,397,391.93,398.9Z" transform="translate(-122.79 -256.67)"/><path class="cls-8" d="M414.8,500.8c0-.93.73-1.23,1.35-1.69,9.84-7.36,16.21-16.94,18.38-29.14.26-1.45.68-3-.3-4.39a4.9,4.9,0,0,0,.37-5.25c.38-7.42-2.39-13.92-6.06-20.11a44.87,44.87,0,0,0-13.33-13.76,23.21,23.21,0,0,1-7.8-9.8c-1.68-3.7-3.59-7.3-5.4-11,1.21-.33,2.41-.7,3.64-1,2.63-.61,4.42.44,5.55,2.84,1.88,4,3.8,7.95,5.72,11.92a27.44,27.44,0,0,0,9.27,10.94C437,437.84,443,448,443.66,461.11a39.41,39.41,0,0,1-28.11,39.7A2.37,2.37,0,0,1,414.8,500.8Z" transform="translate(-122.79 -256.67)"/><path class="cls-9" d="M377.57,595.56c.49-2.17,2.64-2.71,4-3.92A46,46,0,0,0,395,571.86c3.43-9.49,4.73-19.29,5.14-29.36a119.7,119.7,0,0,0-3.81-33.85c-.46-1.86.22-2.09,1.64-2.47,1.95-.52,4.36.18,5.76-2,5.81,21.34,7.77,42.77.86,64.24-4.09,12.73-12,22.17-25,26.6C378.9,595.28,378.23,595.4,377.57,595.56Z" transform="translate(-122.79 -256.67)"/><path class="cls-10" d="M391.93,398.9c-.76-1.89-1.49-3.79-2.29-5.66-2.43-5.65-1.64-9,3.21-12.69a17.56,17.56,0,0,0,3.22-24.36c-.82-1.07-1.73-2.14-3.31-2.07,6.76-1.92,14.56,3.43,15.4,10.59a13.06,13.06,0,0,1-5.11,12.55c-6.2,4.87-7.63,10-4.47,17.2,1,2.17.86,3.09-1.71,3.31A34.54,34.54,0,0,0,391.93,398.9Z" transform="translate(-122.79 -256.67)"/><path class="cls-11" d="M272.26,386.42c.22-2.08,2.28-2.82,3.22-4.44a18.37,18.37,0,0,0-2.76-22.11c6.85-.4,12.82,4.11,13.81,10.42,1.14,7.27-2.81,13.37-9.84,15.16C275.23,385.82,273.74,386.1,272.26,386.42Z" transform="translate(-122.79 -256.67)"/><path class="cls-11" d="M255.34,399.62c.69-6.64,3.56-9.07,9.28-9.81,1.24-.16,2.34-1,3.68-.83a15.89,15.89,0,0,0-4.17,11.11c0,1.62-.54,1.79-2,1.34C259.93,400.72,257.62,400.21,255.34,399.62Z" transform="translate(-122.79 -256.67)"/><path class="cls-11" d="M271.16,360.1l-.51.18Z" transform="translate(-122.79 -256.67)"/><path class="cls-11" d="M271.69,386.76l.59-.35A.45.45,0,0,1,271.69,386.76Z" transform="translate(-122.79 -256.67)"/><path class="cls-11" d="M268.62,388.74l.44-.37Z" transform="translate(-122.79 -256.67)"/><path class="cls-8" d="M413.78,501.18l.63-.28Z" transform="translate(-122.79 -256.67)"/><path class="cls-12" d="M243.05,541.43c.19-2-.26-4,.47-5.89a4.27,4.27,0,0,1,4.78-3,3.89,3.89,0,0,1,3.49,4.26,73.62,73.62,0,0,0,2.54,21.91c3.82,13.18,13,21.65,27.79,21.82,2.6,0,4.88,2,4.86,4.19,0,2.49-2.11,4.41-4.91,4.51-15.58.55-29.5-9.2-34.95-24.43A71.51,71.51,0,0,1,243.05,541.43Z" transform="translate(-122.79 -256.67)"/><path class="cls-13" d="M225.78,445.39a4.4,4.4,0,0,1-4.43,4.3,4.59,4.59,0,0,1-4.29-4.53,4.34,4.34,0,0,1,4.52-4.19A4.13,4.13,0,0,1,225.78,445.39Z" transform="translate(-122.79 -256.67)"/><path class="cls-13" d="M212.65,467.1a4.53,4.53,0,0,1-4.31-4.48,4.38,4.38,0,0,1,4.51-4.22,4.16,4.16,0,0,1,4.21,4.42A4.29,4.29,0,0,1,212.65,467.1Z" transform="translate(-122.79 -256.67)"/><path class="cls-13" d="M434.6,460.33a4.9,4.9,0,0,1-.37,5.25c-1.5,1.24-3.07,2.07-5.07,1.15a4.35,4.35,0,0,1-.16-8C431.27,457.77,433.07,458.6,434.6,460.33Z" transform="translate(-122.79 -256.67)"/><path class="cls-13" d="M422.22,441a4.4,4.4,0,0,1,4.3,4.43,4.6,4.6,0,0,1-4.52,4.3,4.36,4.36,0,0,1-4.2-4.52A4.14,4.14,0,0,1,422.22,441Z" transform="translate(-122.79 -256.67)"/><path class="cls-13" d="M221.51,484.5a4.35,4.35,0,1,1-.09-8.7,4.35,4.35,0,0,1,.09,8.7Z" transform="translate(-122.79 -256.67)"/><path class="cls-13" d="M426.52,480a4.48,4.48,0,0,1-4.3,4.46,4.35,4.35,0,0,1-.23-8.7A4.51,4.51,0,0,1,426.52,480Z" transform="translate(-122.79 -256.67)"/><path class="cls-14" d="M214.25,528.69c-3.82-3.91-7.51-7.5-11-11.28a168,168,0,0,1-41-80c-3.43-16.44-3.43-33-3.27-49.67a3.93,3.93,0,0,1,4.13-4C207,382,247.51,391.5,283.53,416a172.74,172.74,0,0,1,43.63,42.24,4.63,4.63,0,0,0,3.58,2l37.4,4.32c2.26.26,4.51.62,6.78.85a3.75,3.75,0,0,1,3.64,2.92,3.62,3.62,0,0,1-1.94,4.15,46.44,46.44,0,0,0-10,7.72,34.91,34.91,0,0,0-9.78,24.08,8,8,0,0,0,1.05,3.74c11.53,23.66,4.77,56-25.35,68.56a53.13,53.13,0,0,1-19.94,4q-7.35.11-14.71,0c-1.28,0-1.7.31-1.63,1.54.11,1.93,0,3.87,0,5.8a3.54,3.54,0,0,1-2.49,3.62,3.91,3.91,0,0,1-4.45-1c-2.73-2.87-5.47-5.75-8.13-8.68a3,3,0,0,0-2.92-1.23,1.61,1.61,0,0,1-.49,0c-13.8-1.74-26.25,3.12-38.87,7.16-3.84,1.23-7.71,2.4-11.57,3.58-3.29,1-4.93.27-6.1-2.76-3.18-8.24-6.3-16.5-9.5-24.73-.3-.77-.25-1.88-1.75-1.85a3,3,0,0,0-2.77,1.35q-14,20.1-28.19,40.11c-.41.58-.8,1.17-1.26,1.71a3.88,3.88,0,0,1-4.58,1.22,3.39,3.39,0,0,1-2.48-3.61c.27-3.86.89-7.68,1-11.55q1.66-43.77-27.05-78.08c-1.47-1.77-2.14-3.49-.64-5.44,1.32-1.72,3.26-1.86,5.92-.51Q173.3,519,196.6,530.94a6.1,6.1,0,0,0,4.63.55C205.46,530.45,209.75,529.64,214.25,528.69ZM206,554.49c1.8,0,3.59.08,5.39.07a38.26,38.26,0,0,1,25.27,9c1.42,1.16,2.74,2.43,4.19,3.56,9.45,7.36,20.66,6.08,32.12,5.93-3.87-4.11-7.43-7.91-11-11.7a10.39,10.39,0,0,0-2.63-2.39c-7.13-3.73-14.13-7.65-21-11.82-3.95-2.84-8.26-5.34-11.77-8.61-3.66-3.41-7.22-3.37-11.83-2.35-6.35,1.41-12.58,3.86-19.34,3.26a23.4,23.4,0,0,1,4.42,20c1.58-.8,2-2,2.73-3A4.88,4.88,0,0,1,206,554.49ZM168.15,391.26c-1.27-.18-1.27.62-1.26,1.44,0,2.32.09,4.65,0,7-.09,1.55.4,2.17,2.06,2.71,14.34,4.66,23.73,13.93,28.11,27.67,1.55,4.87,1.44,4.9-3.79,5.75-.33.06-.64.13-1,.22-1.36.37-2.07,0-2.29-1.44a26.13,26.13,0,0,0-3.11-8.71,34.15,34.15,0,0,0-19.74-16.19,140.92,140.92,0,0,0,3.08,26.89,157.83,157.83,0,0,0,19.51,49.78c.46.76.8,1.35,1.95,1.37,11.62.17,23.17,0,34.31-3.77,14.19-4.76,26.05-12.57,35.13-24,.57-.65,1.18-1.27,1.69-2a69,69,0,0,0,13.73-36.06,2.06,2.06,0,0,0-1.2-2.22,178.94,178.94,0,0,0-77.84-27.31A231.7,231.7,0,0,0,168.15,391.26Zm175.19,169a15.92,15.92,0,0,0,3.94-4.38c10.64-16,10.66-32.21,1.19-48.56-5.67-9.78-11.73-19.36-17.47-29.11a173.56,173.56,0,0,0-33.73-41.77A149.26,149.26,0,0,0,284,425.7a77.25,77.25,0,0,1-17.11,39.65,93,93,0,0,1-11.59,11.28,84.33,84.33,0,0,1-45.14,18.11c-4.77.46-9.56.21-14.26.44-.09.23-.16.33-.13.37a8.09,8.09,0,0,0,.5.79c16.24,23,37.45,40.8,63.05,54a4.86,4.86,0,0,0,1.33.5c10.91,2.12,21.6,5.06,32.42,7.5a3.75,3.75,0,0,1,3.21,4.07c-.05,1.78.15,3.57-.06,5.33s.69,2.56,2.37,3.06a45.51,45.51,0,0,0,18.8,1.89C327.57,571.45,336.37,567.53,343.34,560.24Zm-9.45-92.16,16,26.48c.75-2.14,1.32-4,2-5.79,1.53-3.85,1.56-3.84-2-6.06-5.22-3.29-5.19-3.27-1.4-8.11.69-.88,1.14-1.06,2.11-.41,1.92,1.31,3.92,2.51,5.89,3.74.52.32,1,.8,1.65.06,1.86-2.09,3.79-4.13,5.86-6.38Zm-154,114.39.58.14c3.75-9.48,10-18,12.11-28.14-3.33,2.71-6.19,5.79-9.44,8.43-3.44,2.81-5.37,5.71-4.14,10.27C179.75,576.15,179.58,579.36,179.84,582.47Zm7.41-40,.3-.5-23.39-15.87-.48.44a112.78,112.78,0,0,1,6.42,12.82c.42,1,1.21.9,2,1C177.11,541.05,182.18,541.74,187.25,542.43ZM244.76,578a23.42,23.42,0,0,1-4.24-2.14c-2.84-2.35-5.86-2.43-9.26-1.4-2,.62-5.35.14-6,1.52s1.2,3.77,1.79,5.77c.39,1.35,1,1.59,2.38,1.14C234.4,581.21,239.41,579.66,244.76,578Zm28.66-16.58-.33.51,15.31,16.27c0-4.37,0-8.08,0-11.78,0-.62.32-1.38-.81-1.63C282.85,563.66,278.14,562.51,273.42,561.38Zm-97-3.57,8.62-8.15-11.42-1.55C174.6,551.6,175.55,554.87,176.4,557.81ZM228.49,567a23.2,23.2,0,0,0-8.16-3.7c.92,5.25,1,5.33,6,4.33A3.38,3.38,0,0,0,228.49,567Z" transform="translate(-122.79 -256.67)"/><path class="cls-15" d="M343.34,560.24c-7,7.29-15.77,11.21-26,12.44a45.51,45.51,0,0,1-18.8-1.89c-1.68-.5-2.58-1.21-2.37-3.06s0-3.55.06-5.33a3.75,3.75,0,0,0-3.21-4.07c-10.82-2.44-21.51-5.38-32.42-7.5a4.86,4.86,0,0,1-1.33-.5c-25.6-13.19-46.81-31-63.05-54a8.09,8.09,0,0,1-.5-.79s0-.14.13-.37c4.7-.23,9.49,0,14.26-.44a84.33,84.33,0,0,0,45.14-18.11,93,93,0,0,0,11.59-11.28c.67.56,1.38,1.08,2,1.67q9,8.5,17.52,17.49a431.86,431.86,0,0,1,33.48,40.17C328.33,536.16,336.05,548.07,343.34,560.24Zm-70.44-26.1c5.57-.52,12.8-1.13,20-1.92a3.61,3.61,0,0,0,2.43-6,16.3,16.3,0,0,0-1.94-1.76q-14.76-12.57-29.52-25.12c-.91-.77-1.11-1.25-.29-2.24a35,35,0,0,0,3.22-4.62c2-3.32,1.91-3.34-1.9-4.78a14,14,0,0,1-1.8-.71c-1.45-.82-2-.35-2.78,1-4.9,9.07-12.84,13.88-23.57,14.5-3.28.18-3.29.09-3.29,3.19,0,4.48,0,4.43,4.82,4.27,1.59-.05,3.52-1.3,4.65-.1,1,1,.91,2.88,1.32,4.36C247.53,526.16,258.41,534.19,272.9,534.14Z" transform="translate(-122.79 -256.67)"/><path class="cls-16" d="M343.34,560.24c-7.29-12.17-15-24.08-23.46-35.56a431.86,431.86,0,0,0-33.48-40.17q-8.49-9-17.52-17.49c-.63-.59-1.34-1.11-2-1.67A77.25,77.25,0,0,0,284,425.7a149.26,149.26,0,0,1,13.29,10.72A173.56,173.56,0,0,1,331,478.19c5.74,9.75,11.8,19.33,17.47,29.11,9.47,16.35,9.45,32.61-1.19,48.56A15.92,15.92,0,0,1,343.34,560.24Z" transform="translate(-122.79 -256.67)"/><path class="cls-17" d="M261.1,459.93C252,471.38,240.16,479.19,226,484c-11.14,3.73-22.69,3.94-34.31,3.77-1.15,0-1.49-.61-1.95-1.37a157.83,157.83,0,0,1-19.51-49.78,140.92,140.92,0,0,1-3.08-26.89,34.15,34.15,0,0,1,19.74,16.19,26.13,26.13,0,0,1,3.11,8.71c.22,1.41.93,1.81,2.29,1.44.32-.09.63-.16,1-.22,5.23-.85,5.34-.88,3.79-5.75-4.38-13.74-13.77-23-28.11-27.67-1.66-.54-2.15-1.16-2.06-2.71.14-2.32,0-4.65,0-7,0-.82,0-1.62,1.26-1.44,1,.64,2,1.23,3,1.91q15.69,10.79,31.37,21.6a10.47,10.47,0,0,0,8.91,6.1c5.4,3.85,10.86,7.64,16.19,11.59C232.2,435.82,236.92,439,241,443c-5.62,9.18-14.18,14-25.2,14.89-1.65.14-1.93.59-1.93,2,0,5.76,0,5.76,5.93,5.08.56-.07,1.13-.14,1.68-.25a39.86,39.86,0,0,0,25.83-16.83A175,175,0,0,1,261.1,459.93Z" transform="translate(-122.79 -256.67)"/><path class="cls-18" d="M241,443c-4-4-8.75-7.15-13.29-10.51-5.33-3.95-10.79-7.74-16.19-11.59.41,0,.82,0,1.22-.08,4.06-.52,7-2.5,8.42-6.17a8.39,8.39,0,0,0-2.27-9.61,9.66,9.66,0,0,0-10.13-2.27c-5.05,1.59-7.32,6.06-6.15,12q-15.69-10.8-31.37-21.6c-1-.68-2-1.27-3-1.91a231.7,231.7,0,0,1,29.33,1.12,178.94,178.94,0,0,1,77.84,27.31,2.06,2.06,0,0,1,1.2,2.22A69,69,0,0,1,262.79,458c-.51.69-1.12,1.31-1.69,2a175,175,0,0,0-13.84-12.06,40.84,40.84,0,0,0,5.7-16c.48-3.64.57-3.63-3.16-3.63a21.92,21.92,0,0,1-2.69,0c-1.48-.17-1.84.33-1.94,1.75A25.48,25.48,0,0,1,241,443Z" transform="translate(-122.79 -256.67)"/><path class="cls-19" d="M238.35,547.11c6.85,4.17,13.85,8.09,21,11.82a10.39,10.39,0,0,1,2.63,2.39c3.59,3.79,7.15,7.59,11,11.7-11.46.15-22.67,1.43-32.12-5.93-1.45-1.13-2.77-2.4-4.19-3.56a38.26,38.26,0,0,0-25.27-9c-1.8,0-3.59,0-5.39-.07,0-4.17,0-4.18,4.15-4.75,1-.13,2-.19,2.92-.28Z" transform="translate(-122.79 -256.67)"/><path class="cls-20" d="M238.35,547.11l-25.27,2.35c-1,.09-2,.15-2.92.28-4.17.57-4.17.58-4.15,4.75a4.88,4.88,0,0,0-3.45,2c-.71,1-1.15,2.2-2.73,3a23.4,23.4,0,0,0-4.42-20c6.76.6,13-1.85,19.34-3.26,4.61-1,8.17-1.06,11.83,2.35C230.09,541.77,234.4,544.27,238.35,547.11Z" transform="translate(-122.79 -256.67)"/><path class="cls-21" d="M333.89,468.08l30.18,3.53c-2.07,2.25-4,4.29-5.86,6.38-.66.74-1.13.26-1.65-.06-2-1.23-4-2.43-5.89-3.74-1-.65-1.42-.47-2.11.41-3.79,4.84-3.82,4.82,1.4,8.11,3.52,2.22,3.49,2.21,2,6.06-.71,1.8-1.28,3.65-2,5.79Z" transform="translate(-122.79 -256.67)"/><path class="cls-21" d="M179.84,582.47c-.26-3.11-.09-6.32-.89-9.3-1.23-4.56.7-7.46,4.14-10.27,3.25-2.64,6.11-5.72,9.44-8.43-2.07,10.19-8.36,18.66-12.11,28.14Z" transform="translate(-122.79 -256.67)"/><path class="cls-22" d="M187.25,542.43c-5.07-.69-10.14-1.38-15.2-2.11-.74-.1-1.53,0-2-1a112.78,112.78,0,0,0-6.42-12.82l.48-.44,23.39,15.87Z" transform="translate(-122.79 -256.67)"/><path class="cls-23" d="M244.76,578c-5.35,1.7-10.36,3.25-15.34,4.89-1.36.45-2,.21-2.38-1.14-.59-2-2.45-4.4-1.79-5.77s4-.9,6-1.52c3.4-1,6.42-.95,9.26,1.4A23.42,23.42,0,0,0,244.76,578Z" transform="translate(-122.79 -256.67)"/><path class="cls-24" d="M273.42,561.38c4.72,1.13,9.43,2.28,14.16,3.37,1.13.25.8,1,.81,1.63,0,3.7,0,7.41,0,11.78l-15.31-16.27Z" transform="translate(-122.79 -256.67)"/><path class="cls-22" d="M176.4,557.81c-.85-2.94-1.8-6.21-2.8-9.7L185,549.66Z" transform="translate(-122.79 -256.67)"/><path class="cls-25" d="M228.49,567a3.38,3.38,0,0,1-2.11.63c-5,1-5.13.92-6-4.33A23.2,23.2,0,0,1,228.49,567Z" transform="translate(-122.79 -256.67)"/><path class="cls-14" d="M272.9,534.14c-14.49.05-25.37-8-28.64-19.9-.41-1.48-.36-3.34-1.32-4.36-1.13-1.2-3.06.05-4.65.1-4.82.16-4.82.21-4.82-4.27,0-3.1,0-3,3.29-3.19,10.73-.62,18.67-5.43,23.57-14.5.75-1.4,1.33-1.87,2.78-1a14,14,0,0,0,1.8.71c3.81,1.44,3.86,1.46,1.9,4.78a35,35,0,0,1-3.22,4.62c-.82,1-.62,1.47.29,2.24q14.79,12.53,29.52,25.12a16.3,16.3,0,0,1,1.94,1.76,3.61,3.61,0,0,1-2.43,6C285.7,533,278.47,533.62,272.9,534.14Zm10.16-8.42L257.66,504a1.12,1.12,0,0,0-1.47-.11c-5.9,2.83-5.91,2.81-4.12,8.92,0,.15,0,.31.09.45,2.49,7,7.44,11.44,15.13,13C272.45,527.38,277.45,525.88,283.06,525.72Z" transform="translate(-122.79 -256.67)"/><path class="cls-14" d="M241,443a25.48,25.48,0,0,0,4.22-13c.1-1.42.46-1.92,1.94-1.75a21.92,21.92,0,0,0,2.69,0c3.73,0,3.64,0,3.16,3.63a40.84,40.84,0,0,1-5.7,16,39.86,39.86,0,0,1-25.83,16.83c-.55.11-1.12.18-1.68.25-6,.68-5.91.68-5.93-5.08,0-1.42.28-1.87,1.93-2C226.77,456.93,235.33,452.15,241,443Z" transform="translate(-122.79 -256.67)"/><path class="cls-26" d="M202.56,414.77c-1.17-6,1.1-10.44,6.15-12A9.66,9.66,0,0,1,218.84,405a8.39,8.39,0,0,1,2.27,9.61c-1.41,3.67-4.36,5.65-8.42,6.17-.4,0-.81,0-1.22.08A10.47,10.47,0,0,1,202.56,414.77Zm11.28-3.29a1.89,1.89,0,0,0-1.92-1.77,1.81,1.81,0,1,0,.07,3.6A1.9,1.9,0,0,0,213.84,411.48Z" transform="translate(-122.79 -256.67)"/><path class="cls-27" d="M283.06,525.72c-5.61.16-10.61,1.66-15.77.59-7.69-1.59-12.64-6-15.13-13,0-.14,0-.3-.09-.45-1.79-6.11-1.78-6.09,4.12-8.92a1.12,1.12,0,0,1,1.47.11Z" transform="translate(-122.79 -256.67)"/><path class="cls-28" d="M213.84,411.48a1.9,1.9,0,0,1-1.85,1.83,1.81,1.81,0,1,1-.07-3.6A1.89,1.89,0,0,1,213.84,411.48Z" transform="translate(-122.79 -256.67)"/><path class="cls-29" d="M263.88,591.85c-1.91,1.13-2.63,1-4.2-.43-9.75-9.17-15.28-20.5-17.26-33.67-.17-1.14.06-2.38-.63-3.43V542.1a55,55,0,0,0,1.32-7c3-16.3,8.59-31.48,18.95-44.63,4.65-5.9,9.81-11.24,16.51-14.94C292,468.14,310.35,470,321.89,480a48.25,48.25,0,0,1,3.63,3.37c.73.77,1.14.77,1.87,0a37.1,37.1,0,0,1,16.24-10.28c14.8-4.43,28-1.44,39.32,9.12,11,10.24,18.08,22.92,22.65,37.1a109.8,109.8,0,0,1,5,23.24c0,.23.06.43.32.5v11.23a25.46,25.46,0,0,0-.94,5.4c-3.38,22.68-21.75,41.84-44.48,46a52,52,0,0,1-37.91-7.24,2.15,2.15,0,0,0-2.72,0,52.62,52.62,0,0,1-50.39,3c-2.09-1-2.48-1.78-2-4a3.09,3.09,0,0,1,3.87-.66A47,47,0,0,0,301,601.24a48.06,48.06,0,0,0,20.72-6.78l-1.44-1.24a55.28,55.28,0,0,1-13.12-16.58,60.74,60.74,0,0,1-6.29-33.54,111.71,111.71,0,0,1,6-26.59c.64-1.84,1.66-2.35,3.55-1.88a2.64,2.64,0,0,1,1.14,3.53c-.69,2-1.33,3.94-1.88,6-3,10.79-5.23,21.66-3.48,33a54.42,54.42,0,0,0,7.25,20.61,50.34,50.34,0,0,0,16.88,16.59,47,47,0,0,0,37,5.88,50,50,0,0,0,25.95-15.95c8.6-9.68,12.28-21.37,12.65-34.15.28-9.89-2-19.39-4.94-28.73A84.3,84.3,0,0,0,382.61,489c-5.31-5.79-11.4-10.26-19.28-11.85a11.27,11.27,0,0,0-1.26-.36c-11.58-1.84-21.72,1.12-30.22,9.27a78.61,78.61,0,0,0-13.48,17.36c-1.14,1.95-1.81,2.19-3.88,1.74-1.49-1.65-1.53-2.29-.44-4.23a85.2,85.2,0,0,1,7-10.38c1.94-2.52,2-2.49-.29-4.73a33.88,33.88,0,0,0-46.07-1.43c-9.94,8.78-16.63,19.77-21.31,32.06a115.56,115.56,0,0,0-5.53,20.78,60,60,0,0,0,1.9,29.77,48.66,48.66,0,0,0,13.15,20.6C264.7,589.25,264.77,589.8,263.88,591.85Z" transform="translate(-122.79 -256.67)"/><path class="cls-30" d="M310.42,514.63c-1.89-.47-2.91,0-3.55,1.88a111.71,111.71,0,0,0-6,26.59,60.74,60.74,0,0,0,6.29,33.54,55.28,55.28,0,0,0,13.12,16.58l1.44,1.24A48.06,48.06,0,0,1,301,601.24a47,47,0,0,1-24.65-4.48,3.09,3.09,0,0,0-3.87.66,37.42,37.42,0,0,1-7.29-4.62l-1.33-.95c.89-2.05.82-2.6-1-4.3A48.66,48.66,0,0,1,249.73,567a60,60,0,0,1-1.9-29.77,115.56,115.56,0,0,1,5.53-20.78c4.68-12.29,11.37-23.28,21.31-32.06a33.88,33.88,0,0,1,46.07,1.43C323,488,323,488,321,490.5a85.2,85.2,0,0,0-7,10.38c-1.09,1.94-1.05,2.58.43,4.23-.26.6-.52,1.21-.81,1.8A40.59,40.59,0,0,0,310.42,514.63Z" transform="translate(-122.79 -256.67)"/><path class="cls-31" d="M310.42,514.63a40.59,40.59,0,0,1,3.25-7.72c.29-.59.55-1.2.81-1.8,2.08.45,2.75.21,3.89-1.74A78.61,78.61,0,0,1,331.85,486c8.5-8.15,18.64-11.11,30.22-9.27a11.27,11.27,0,0,1,1.26.36.79.79,0,0,0,.46.63c7,3.69,12.23,9.41,16.89,15.61a81.92,81.92,0,0,1,11.44,20.49c4.6,12.37,8,25,7.27,38.39a62.39,62.39,0,0,1-1.4,10.21,51.91,51.91,0,0,1-14.89,26.75A52.63,52.63,0,0,1,369,598.94c-.61.28-1.44.36-1.65,1.21a47,47,0,0,1-37-5.88,50.34,50.34,0,0,1-16.88-16.59,54.42,54.42,0,0,1-7.25-20.61c-1.75-11.3.49-22.17,3.48-33,.55-2,1.19-4,1.88-6A2.64,2.64,0,0,0,310.42,514.63Zm16.08,43.71a29.42,29.42,0,0,0,29.39,29.3c16.13-.14,29.36-13.46,29.19-29.38a29.29,29.29,0,0,0-58.58.08Z" transform="translate(-122.79 -256.67)"/><path class="cls-32" d="M367.3,600.15c.21-.85,1-.93,1.65-1.21a52.63,52.63,0,0,0,14.15-9.76A51.91,51.91,0,0,0,398,562.43a62.39,62.39,0,0,0,1.4-10.21c.77-13.42-2.67-26-7.27-38.39a81.92,81.92,0,0,0-11.44-20.49c-4.66-6.2-9.87-11.92-16.89-15.61a.79.79,0,0,1-.46-.63c7.88,1.59,14,6.06,19.28,11.85A84.3,84.3,0,0,1,401,521.32c2.92,9.34,5.22,18.84,4.94,28.73-.37,12.78-4,24.47-12.65,34.15A50,50,0,0,1,367.3,600.15Z" transform="translate(-122.79 -256.67)"/><path class="cls-29" d="M326.5,558.34a29.29,29.29,0,0,1,58.58-.08c.17,15.92-13.06,29.24-29.19,29.38A29.42,29.42,0,0,1,326.5,558.34Zm53.52,0a24.25,24.25,0,1,0-24.16,24.28A24.21,24.21,0,0,0,380,558.31Z" transform="translate(-122.79 -256.67)"/><path class="cls-33" d="M380,558.31a24.25,24.25,0,1,1-24.19-24.2A24.18,24.18,0,0,1,380,558.31Z" transform="translate(-122.79 -256.67)"/></svg>