<svg id="Layer_1" data-name="Layer 1" xmlns="http://www.w3.org/2000/svg" viewBox="0 0 399.09 257.85"><defs><style>.cls-1{fill:#2d292a;}.cls-2{fill:#a7a8ab;}.cls-3{fill:#f7f6f6;}.cls-4{fill:#f3f2f2;}</style></defs><title>Empty cart</title><path class="cls-1" d="M174,504c-9.66,0-19.33-.05-29-.16-1.71,0-4.75.77-4.71-1.33,0-2.8,3.18-1.45,4.88-1.46q55.5-.14,111-.07c12.19,0,19-6.93,19-19.19,0-7.31.06-14.64.46-22,.21-3.81-.81-5-4.82-4.95-35.66.17-71.33.1-107,.1h-47c-9.81,0-17.06-4.71-20.4-13.73-13.81-37.37-27.47-74.79-41.28-112.17-1.26-3.41-.44-4.3,3.09-4.29q70.76.12,141.5.09c1.16,0,107.37-.43,107.37,1.33,0,2.3-106.4.86-107.63.87-11.5.1-23,.14-34.5,0-3.2,0-4.47.26-3,4,3.91,10,7.5,20.07,11.09,30.17.93,2.61,2.41,3.39,5.15,3.38q84.26-.12,168.5,0c3.21,0,4.52-.74,4.25-4.16-.3-3.81,0-7.66-.07-11.5-.15-13.06-8.46-21.56-21.54-21.75-10.17-.15-20.34,0-30.5-.06-1.52,0-94.42.2-95.8-1.24.94-2.24,94-1,95.5-1,10.84-.07,21.67-.11,32.5,0,11.9.11,20.9,8.24,22,20.14.25,2.79,1.26,3.25,3.63,3.15,4.16-.16,8.33,0,12.49-.16A17.24,17.24,0,0,0,386,331.09c.07-2.16-.11-4.34,0-6.5.26-3.74,0-6.62-4.46-8.31-4.18-1.58-5.83-6.92-4.57-11.57s4.38-7.69,9.21-7.75q26.73-.31,53.48-.09a10.41,10.41,0,0,1,10.19,10.29c.17,5.6-4.27,10.3-10.11,11-2.87.35-6.79-1.6-8.35,1-1.34,2.2-.38,5.83-.38,8.83,0,15.09-7.95,23-23.12,23-16.83,0-33.67.12-50.5-.08-3.59-.05-4.42,1-4.32,4.44.61,21.65.08,43.3.41,65,.31,20.47-.31,41-.23,61.45.06,14.53-7.73,21.52-24.34,22.28a30.81,30.81,0,0,1,10.24,23.48c0,9.26-3,17.21-10,23.62,1.63,1.3,3.33.65,4.87.66q55.76.06,111.5,0c1.17,0,2.34-.05,3.5,0s2.7-.31,2.61,1.4c-.06,1.11-1.42,1.18-2.44,1.19H236.78q-89.47,0-179-.05c-1.85,0-5.3.91-5.24-1.1.08-2.9,3.47-1.39,5.33-1.39q57.5-.18,115-.14c9.41,1.25,18.82,1.91,28.22,0h9.39l-5.33-3.95c-10.88-14.76-7.35-32.25.94-40.73l3.95-3.12H202Zm89.9,47.79a83.64,83.64,0,0,0,28.19,0h8.39l-5.36-3.9c-9.62-14.85-9.31-28.75.91-40.88l3.78-2.91h-61c7.67,6.78,10.41,14.7,10.41,24s-3.32,16.9-10.43,23.72Zm6.24-146.6c-25.15,0-50.29.08-75.43-.08-4,0-5.27.65-3.61,4.81,3.8,9.49,7.24,19.12,10.84,28.69S210.81,452,221,452q55.2,0,110.41,0c11.89,0,18.82-6.85,19-18.81.1-7.49-.22-15,.11-22.48.19-4.27-.87-5.68-5.44-5.63C320.1,405.32,295.12,405.19,270.14,405.19Zm-62.2,46.91c-6.05-4.43-8.23-9.53-10.12-14.91-3.22-9.19-6.71-18.28-9.94-27.47-1.11-3.14-2.52-4.67-6.33-4.64q-45.23.3-90.45,0c-4.4,0-4.59,1.23-3.19,4.82,3.82,9.74,7.3,19.61,11,29.41,3.37,9,8.93,12.76,18.61,12.76q34.72,0,69.46,0ZM171.1,364.56c-4.3-11.83-8.35-22.8-12.24-33.83-1-2.76-2.46-3.68-5.44-3.67q-45.93.18-91.86,0c-4,0-3.89,1.19-2.69,4.27,3.71,9.57,7.33,19.19,10.61,28.91,1.17,3.46,2.86,4.43,6.4,4.41,30.12-.14,60.24-.08,90.37-.08Zm9.38,16.57c2.33,6.22,4.59,11.52,6.26,17,1,3.41,2.65,4.54,6.28,4.52,31.32-.16,62.65-.09,94-.09,19.83,0,39.66-.08,59.49.07,3.47,0,4.72-.9,4.45-4.45a71.53,71.53,0,0,1,0-12c.4-4.22-1.12-5.19-5.22-5.18q-80,.23-160,.1Zm4.73,21.44c-2.53-6.81-4.94-12.91-7-19.11-.71-2.11-2-2.34-3.73-2.34q-46.95,0-93.91,0c-2.81,0-3,1-2.12,3.24,2,5.1,3.87,10.23,5.64,15.4.78,2.28,2.15,2.89,4.46,2.89C120.49,402.55,152.45,402.57,185.21,402.57ZM263.06,367h-16.5q-33.24,0-66.48.05c-1.31,0-3.17-.94-3.93.9-1.31,3.15,4.36,10.83,7.89,10.83,53.82,0,107.63-.07,161.45.14,5.21,0,5-2.48,5-6.07s.39-6.07-4.94-6C318,367.2,290.55,367,263.06,367Zm-86.82,11.79c-.89-2.36-1.77-3.84-2-5.4-.77-5.7-4.17-6.55-9.35-6.51-28.94.25-57.88.12-86.83.12H72.38c.71,2.21,1.38,3.89,1.78,5.64,1.07,4.65,3.43,6.4,8.63,6.31,21.12-.39,42.25-.16,63.37-.16ZM336.61,527.54c-.27-6.51-1.72-12.73-6.16-17.87-7-8.17-16.64-7.89-23.32.6-7.71,9.79-7.33,26.66.81,36,6.1,7,14.79,7.37,21.34.83C334.66,541.75,336.35,535,336.61,527.54Zm-124.79,1.2A25.7,25.7,0,0,0,217,544.87c6.74,9.15,17.27,9.24,24.23.27,7.72-9.95,7.26-26.58-1-36-5.81-6.67-14.7-7.06-21-.89C213.76,513.52,211.8,520.18,211.82,528.74ZM268.32,501c23.1,0,44.86.12,66.62-.07,6.43-.06,12.83-5.49,14.81-11.65.87-2.7,1.2-4.52-3-4.48-21.81.21-43.63.12-65.44.07-2,0-3.32.16-3.73,2.66C276.72,492.83,273.64,496.91,268.32,501Zm82.53-55.77c-6.1,8-13.14,10.08-21.48,9.88-14-.33-27.94-.09-41.91-.09-9.94,0-9.85,0-9.51,10.06.08,2.3.55,3.14,3,3.13,22.29-.09,44.58-.06,66.87,0,1.93,0,3.1-.27,3-2.66C350.76,459.23,350.85,453,350.85,445.2Zm81-146.07c-14.91,0-28.88,0-42.84,0a13.24,13.24,0,0,0-3.9.61c-3.95,1.25-6.21,4.11-5.89,8.18.34,4.23,2.87,7.14,7.35,7.4,5,.28,10,.2,14.95.22,9.72,0,19.44,0,29.92,0C427.48,309.77,427.31,304.7,431.86,299.13ZM314,470.91H285.55c-7.8,0-7.65,0-7.61,7.63,0,2.87.89,3.63,3.69,3.62,21.81-.11,43.63-.17,65.44,0,5,0,3.55-3.24,3.59-5.71s1.33-5.77-3.67-5.64C336,471.11,325,470.91,314,470.91ZM379.34,348c12,0,23,.25,33.89-.09,6.61-.2,13-6.22,14.58-12.57.63-2.57,0-3.45-2.83-3.41-11.15.16-22.31.07-33.46.06-1.51,0-3-.21-3.28,2C387.63,339.65,384.36,343.73,379.34,348Zm29.08-29.89c-5.33,0-10.66.15-16-.06-2.94-.12-4.46.56-4.05,3.8a21.73,21.73,0,0,1,0,4.49c-.18,2.32.67,3.27,3.11,3.25,11.33-.09,22.65-.07,34,0,1.86,0,2.81-.55,2.68-2.55a23.22,23.22,0,0,1,0-4.49c.45-3.37-.62-4.74-4.27-4.5C418.76,318.37,413.58,318.13,408.42,318.13Zm31.08-2.92a7.77,7.77,0,0,0,7.55-7.63,7.92,7.92,0,0,0-7.79-7.94,8.23,8.23,0,0,0-8.22,7.69C430.92,311.63,434.8,315.24,439.5,315.21Z" transform="translate(-52.58 -296.77)"/><path class="cls-2" d="M206.12,507.1c-8.29,8.48-11.82,26-.94,40.73l-4.06,3.95c-9.4,1.92-18.81,1.26-28.22,0a2.64,2.64,0,0,0-.73-2.24c-12.78-15.2-12.29-30.34,1.39-44.69A3.32,3.32,0,0,0,174,504l28,0A5,5,0,0,0,206.12,507.1Z" transform="translate(-52.58 -296.77)"/><path class="cls-2" d="M270.14,405.19c25,0,50,.13,74.93-.11,4.57-.05,5.63,1.36,5.44,5.63-.33,7.48,0,15-.11,22.48-.16,12-7.09,18.8-19,18.81q-55.2,0-110.41,0c-10.2,0-15.42-3.68-19.07-13.38s-7-19.2-10.84-28.69c-1.66-4.16-.41-4.83,3.61-4.81C219.85,405.27,245,405.19,270.14,405.19Z" transform="translate(-52.58 -296.77)"/><path class="cls-2" d="M207.94,452.1H187q-34.72,0-69.46,0c-9.68,0-15.24-3.8-18.61-12.76-3.69-9.8-7.17-19.67-11-29.41-1.4-3.59-1.21-4.84,3.19-4.82q45.22.25,90.45,0c3.81,0,5.22,1.5,6.33,4.64,3.23,9.19,6.72,18.28,9.94,27.47C199.71,442.57,201.89,447.67,207.94,452.1Z" transform="translate(-52.58 -296.77)"/><path class="cls-3" d="M171.1,364.56h-4.85c-30.13,0-60.25-.06-90.37.08-3.54,0-5.23-.95-6.4-4.41-3.28-9.72-6.9-19.34-10.61-28.91-1.2-3.08-1.34-4.28,2.69-4.27q45.93.22,91.86,0c3,0,4.46.91,5.44,3.67C162.75,341.76,166.8,352.73,171.1,364.56Z" transform="translate(-52.58 -296.77)"/><path class="cls-4" d="M180.48,381.13h5.28q80,0,160-.1c4.1,0,5.62,1,5.22,5.18a71.53,71.53,0,0,0,0,12c.27,3.55-1,4.48-4.45,4.45-19.83-.15-39.66-.07-59.49-.07-31.33,0-62.66-.07-94,.09-3.63,0-5.23-1.11-6.28-4.52C185.07,392.65,182.81,387.35,180.48,381.13Z" transform="translate(-52.58 -296.77)"/><path class="cls-4" d="M185.21,402.57c-32.76,0-64.72,0-96.69.05-2.31,0-3.68-.61-4.46-2.89-1.77-5.17-3.67-10.3-5.64-15.4-.88-2.27-.69-3.25,2.12-3.24q47,.11,93.91,0c1.78,0,3,.23,3.73,2.34C180.27,389.66,182.68,395.76,185.21,402.57Z" transform="translate(-52.58 -296.77)"/><path class="cls-2" d="M263.06,367c27.49,0,55,.18,82.47-.15,5.33-.07,4.9,2.52,4.94,6s.23,6.09-5,6.07c-53.82-.21-107.63-.13-161.45-.14-3.53,0-9.2-7.68-7.89-10.83.76-1.84,2.62-.9,3.93-.9q33.24-.1,66.48-.05Z" transform="translate(-52.58 -296.77)"/><path class="cls-2" d="M292.09,551.8a83.64,83.64,0,0,1-28.19,0,5.63,5.63,0,0,0-.91-1.68c-9.16-8.08-11.22-18.25-9-29.78,1.3-6.68,5.28-11.63,9.93-16.22h27.15c1.53,1.17,2.83,2.73,4.94,2.91-10.22,12.13-10.53,26-.91,40.88C294,549.07,292.09,549.72,292.09,551.8Z" transform="translate(-52.58 -296.77)"/><path class="cls-2" d="M176.24,378.81H146.16c-21.12,0-42.25-.23-63.37.16-5.2.09-7.56-1.66-8.63-6.31-.4-1.75-1.07-3.43-1.78-5.64h5.71c29,0,57.89.13,86.83-.12,5.18,0,8.58.81,9.35,6.51C174.47,375,175.35,376.45,176.24,378.81Z" transform="translate(-52.58 -296.77)"/><path class="cls-3" d="M336.61,527.54c-.26,7.42-1.95,14.21-7.33,19.58-6.55,6.54-15.24,6.18-21.34-.83-8.14-9.36-8.52-26.23-.81-36,6.68-8.49,16.28-8.77,23.32-.6C334.89,514.81,336.34,521,336.61,527.54Zm-10.48.06a7.07,7.07,0,0,0-14.14,0,7.08,7.08,0,1,0,14.14,0Z" transform="translate(-52.58 -296.77)"/><path class="cls-3" d="M211.82,528.74c0-8.56,1.94-15.22,7.39-20.53,6.32-6.17,15.21-5.78,21,.89,8.26,9.46,8.72,26.09,1,36-7,9-17.49,8.88-24.23-.27A25.7,25.7,0,0,1,211.82,528.74ZM229.44,535a7.28,7.28,0,0,0,6.9-7.61,7.18,7.18,0,0,0-14.34.5A7.38,7.38,0,0,0,229.44,535Z" transform="translate(-52.58 -296.77)"/><path class="cls-4" d="M431.86,299.13c-4.55,5.57-4.38,10.64-.41,16.45-10.48,0-20.2,0-29.92,0-5,0-10,.06-14.95-.22-4.48-.26-7-3.17-7.35-7.4-.32-4.07,1.94-6.93,5.89-8.18a13.24,13.24,0,0,1,3.9-.61C403,299.11,417,299.13,431.86,299.13Z" transform="translate(-52.58 -296.77)"/><path class="cls-2" d="M314,470.91c11,0,22,.2,33-.09,5-.13,3.7,3.11,3.67,5.64s1.42,5.75-3.59,5.71c-21.81-.18-43.63-.12-65.44,0-2.8,0-3.67-.75-3.69-3.62,0-7.64-.19-7.64,7.61-7.63Z" transform="translate(-52.58 -296.77)"/><path class="cls-4" d="M408.42,318.13c5.16,0,10.34.24,15.49-.08,3.65-.24,4.72,1.13,4.27,4.5a23.22,23.22,0,0,0,0,4.49c.13,2-.82,2.56-2.68,2.55-11.33,0-22.65-.07-34,0-2.44,0-3.29-.93-3.11-3.25a21.73,21.73,0,0,0,0-4.49c-.41-3.24,1.11-3.92,4.05-3.8C397.76,318.28,403.09,318.13,408.42,318.13Z" transform="translate(-52.58 -296.77)"/><path class="cls-2" d="M439.5,315.21c-4.7,0-8.58-3.58-8.46-7.88a8.23,8.23,0,0,1,8.22-7.69,7.92,7.92,0,0,1,7.79,7.94A7.77,7.77,0,0,1,439.5,315.21Z" transform="translate(-52.58 -296.77)"/><path class="cls-1" d="M326.13,527.6a7.08,7.08,0,1,1-14.14,0,7.07,7.07,0,0,1,14.14,0Z" transform="translate(-52.58 -296.77)"/><path class="cls-1" d="M229.44,535a7.38,7.38,0,0,1-7.44-7.11,7.18,7.18,0,0,1,14.34-.5A7.28,7.28,0,0,1,229.44,535Z" transform="translate(-52.58 -296.77)"/></svg>