<svg id="Layer_1" data-name="Layer 1" xmlns="http://www.w3.org/2000/svg" viewBox="0 0 349.87 349.87"><defs><style>.cls-1{fill:#e4f5fa;}.cls-2{fill:#0f0a06;}.cls-3{fill:#f7981e;}.cls-4{fill:#f48820;}.cls-5{fill:#f8991d;}.cls-6{fill:#f58820;}.cls-7{fill:#f7991e;}.cls-8{fill:#10b07a;}.cls-9{fill:#35b682;}.cls-10{fill:#0b0806;}.cls-11{fill:#ee353f;}.cls-12{fill:#e2212e;}.cls-13{fill:#e1212d;}.cls-14{fill:#33b17e;}.cls-15{fill:#33b27f;}.cls-16{fill:#45b484;}.cls-17{fill:#45b685;}.cls-18{fill:#2fb07d;}.cls-19{fill:#2eae7c;}.cls-20{fill:#30b17e;}.cls-21{fill:#fefefe;}.cls-22{fill:#0e0b07;}.cls-23{fill:#f59596;}.cls-24{fill:#fcc246;}.cls-25{fill:#ed6261;}.cls-26{fill:#ffd05b;}.cls-27{fill:#ffd15b;}.cls-28{fill:#85c562;}.cls-29{fill:#9acc79;}.cls-30{fill:#99cb79;}.cls-31{fill:#fac146;}.cls-32{fill:#f07b7b;}.cls-33{fill:#83c261;}.cls-34{fill:#130f02;}.cls-35{fill:#160504;}.cls-36{fill:#080702;}.cls-37{fill:#080c05;}.cls-38{fill:#a6cd39;}.cls-39{fill:#bcd86d;}.cls-40{fill:#99c93d;}.cls-41{fill:#bbd76d;}.cls-42{fill:#98c83d;}.cls-43{fill:#99c83d;}</style></defs><title>fruits and vegetables</title><rect class="cls-1" width="349.87" height="349.87" rx="23.29"/><path class="cls-2" d="M163.53,538.64c-1.68,1-3.05.69-4.34-.82C149,525.93,140.86,513,137.84,497.32c-1.32-6.82-1.2-13.6,1.86-20A20.78,20.78,0,0,1,153.17,466a2.21,2.21,0,0,0,1.78-1.8,17.86,17.86,0,0,1,5-8.79c1.41-1.33,2-2.61,1.45-4.42a11.24,11.24,0,0,1-.2-1.58c-1.14.65-2.15,1.29-3.22,1.81-8.22,4-16.43,4.61-24.58-.21-10-5.91-13.92-19.54-8.09-29,.17-.27.54-.52.26-.92l4.5-4.51c1.1-.58,2.18-1.21,3.3-1.75,10.36-4.95,21.91,1,23.23,12a12.94,12.94,0,0,1-12.17,14.59,2.88,2.88,0,0,1-3.07-1.59,2.56,2.56,0,0,1,2.37-3.73,8,8,0,0,0,7.36-5.79,10,10,0,0,0-3.81-9.81c-7.2-5-17.56-.14-19.1,8.93-1.63,9.67,6.14,19.07,16.21,19.49a21.21,21.21,0,0,0,15.53-5.55c1.33-1.19,2.57-2.41,2.83-4.31a3.07,3.07,0,0,1,.49-1.31c2.24-3.27,1.45-6.35.23-9.9-4-11.64-1.86-22.36,6.1-31.82,1.93-2.29,4.47-2.4,6.6-.35s4,4,6,6a4.26,4.26,0,0,1,.3,6,15.42,15.42,0,0,0-3.37,8.55c-.17,2.75,1.64,4.41,4.31,3.82a29.24,29.24,0,0,1,11.22-.43,1.63,1.63,0,0,0,1.65-.66,20.63,20.63,0,0,1,10.14-6.07,1.6,1.6,0,0,0,1.39-1.27,20,20,0,0,1,3.79-7.67,3.33,3.33,0,0,0,.69-2.62c-.74-7.35-9-12.09-15.11-8.55a8,8,0,0,0-4,7.37A2.56,2.56,0,0,1,190.4,403a2.77,2.77,0,0,1-2.64-2.94,13.3,13.3,0,0,1,.06-1.41c.89-9.41,10.37-14.89,19.52-11.28,5,1.95,7.73,5.09,10,11.34,8.77-4.81,17.89-4,27.1-1.61,1.83.48,2.34,1.77,2.17,3.49-.93,1.74-2.31,2.12-4.16,1.56a38.37,38.37,0,0,0-5-1.09c-5.19-.8-10.34-.86-15.28,1.29a15.44,15.44,0,0,0-8.83,9.61,50.24,50.24,0,0,1,16.59,3c11.53,4,21.64,10.44,30.9,18.31a117.93,117.93,0,0,1,27.71,33.33c4.78,8.75,8.31,17.93,8.5,28.08,0,1.65,1,.77,1.48.54,6.13-2.78,9-7.85,9.77-14.27.72-5.73-.33-11.28-2.08-16.7-3.62-11.24-9.76-21.05-17.38-30C279.27,423,268.2,413.6,255,407a3.18,3.18,0,0,1-2-3.83c1.61-1.85,2.37-2,4.58-.9a112.67,112.67,0,0,1,31.86,24.49c8.39,9.11,15.37,19.13,20,30.66,2.84,7,4.67,14.18,4.37,21.8-.4,10.24-5.76,19.1-16.45,22.11a1.58,1.58,0,0,0-1.24,1.26c-2.54,8.91-8.55,13.89-17.58,15.39-.84.13-1.14.41-1.26,1.28-1.38,9.9-6.22,14.74-16.15,16.16-.87.12-1.15.4-1.29,1.25-1.49,9-6.49,15-15.38,17.6-.63.18-1.05.4-1.23,1.07-3.47,12.66-14.69,17.22-25.69,16.6-8.62-.48-16.57-3.23-24.21-7a110.09,110.09,0,0,1-24.51-17.09,3.08,3.08,0,0,1-.6-4.26c2.2-1.12,2.91-1.07,4.71.62A97.34,97.34,0,0,0,187,555.05c8.32,5.35,17.13,9.57,27,11.1a26.71,26.71,0,0,0,13.76-1c2.89-1.08,5.54-2.57,7.25-5.3a11.72,11.72,0,0,0,2.13-3.41c.44-.86.5-1.35-.77-1.37-8.78-.12-16.88-2.87-24.61-6.76-16.48-8.29-30-20.18-41-34.89-9.34-12.46-16.4-25.88-17-42a12.68,12.68,0,0,0-5,2.91,12.14,12.14,0,0,0-4.45,5.75c-2.65,6.06-2.23,12.31-.76,18.53,3.23,13.6,10.58,25,19.49,35.45C164.39,535.64,164.63,537,163.53,538.64Zm15.79-102.81a20.7,20.7,0,0,1,6.38-3.29c1.7-.42,4-.14,5-1.17s1-3.39,1.43-5.16a.49.49,0,0,1,.06-.17c.66-1.19,0-1.34-1-1.36a20.09,20.09,0,0,0-6.14.57c-6.12,1.81-12.5-2.87-11.25-10.62a28.73,28.73,0,0,1,3.72-9.6c-.83-1.74-2.54-2.67-3.72-4.1-.66-.79-1-.54-1.57.21-5.92,8.35-7,17.32-3.1,26.72a11.36,11.36,0,0,1-.26,10.43,21.23,21.23,0,0,0-2.12,12.38,26.73,26.73,0,0,1,5.68-1.48c.87-.09,1.18-.5,1.25-1.36A18.32,18.32,0,0,1,179.32,435.83Zm73.27,105.8a15.49,15.49,0,0,0,1.8-4.74c.34-1.16.09-1.68-1.21-1.82a38.53,38.53,0,0,1-8.06-1.88c-12.15-4-22.65-10.86-32.33-19a136.54,136.54,0,0,1-26.53-29.41c-5.36-8.14-9.81-16.71-11.87-26.35-1-4.61-1.08-4.67-5.64-2.71a10,10,0,0,0-.9.52c-5.36,2.48-7.62,7.05-8.4,12.57a32.27,32.27,0,0,0,1.05,12.78c3.56,13.71,11.1,25.18,20.25,35.71a116.39,116.39,0,0,0,16.31,15.38c8,6.23,16.52,11.41,26.17,14.63,6,2,12.2,3.29,18.58,2C246.5,548.36,250.39,546.15,252.59,541.63Zm-5.2-76.25c2.18-1.09,3.13-.93,4.64.79a139.53,139.53,0,0,1,12.19,15.53c6.11,9.23,11.21,18.9,12.87,30,.16,1.12.72.91,1.42.79,6.63-1.16,11.22-5.63,12.67-12.35a29.51,29.51,0,0,0-.31-12.79c-3-13.37-9.92-24.66-18.52-35a117.44,117.44,0,0,0-22.14-20.69c-8.14-5.81-16.8-10.56-26.56-13.05-5.25-1.34-10.56-2-15.89-.49-6.29,1.73-9.89,6-11.25,12.3-.22,1.06,0,1.43,1.14,1.58a55.28,55.28,0,0,1,15.77,4.91,113.69,113.69,0,0,1,28.09,19c2,1.76,2.16,2.42,1.07,4.69-1.54,1.13-2.85,1-4.62-.67a111.86,111.86,0,0,0-16.83-12.73c-7.27-4.5-14.88-8.24-23.39-9.77a20.11,20.11,0,0,0-8.39-.13c-6,.64-10,5-10.42,11.59a34.14,34.14,0,0,0,1.89,13c3.87,11.88,10.65,22.07,18.62,31.5a129.18,129.18,0,0,0,29.41,26c7.49,4.74,15.34,8.69,24.16,10.31a22.08,22.08,0,0,0,11-.34,10.61,10.61,0,0,0,7.66-9.17,12.5,12.5,0,0,0,.39-4.71c-.3-7-2.73-13.44-5.8-19.64a108.82,108.82,0,0,0-17.69-25.34C247.21,469,246,467.5,247.39,465.38Z" transform="translate(-96.16 -246.01)"/><path class="cls-3" d="M253,403.12a3.18,3.18,0,0,0,2,3.83c13.24,6.65,24.31,16,33.87,27.25,7.62,8.94,13.76,18.75,17.38,30,1.75,5.42,2.8,11,2.08,16.7-.8,6.42-3.64,11.49-9.77,14.27-.52.23-1.45,1.11-1.48-.54-.19-10.15-3.72-19.33-8.5-28.08a117.93,117.93,0,0,0-27.71-33.33c-9.26-7.87-19.37-14.3-30.9-18.31a50.24,50.24,0,0,0-16.59-3,15.44,15.44,0,0,1,8.83-9.61c4.94-2.15,10.09-2.09,15.28-1.29a38.37,38.37,0,0,1,5,1.09c1.85.56,3.23.18,4.16-1.56A46.63,46.63,0,0,1,253,403.12Z" transform="translate(-96.16 -246.01)"/><path class="cls-4" d="M163.53,538.64c1.1-1.65.86-3-.47-4.57-8.91-10.48-16.26-21.85-19.49-35.45-1.47-6.22-1.89-12.47.76-18.53a12.14,12.14,0,0,1,4.45-5.75,61.47,61.47,0,0,0-.56,7.15c.25,8.36,2.71,16.18,6.39,23.62a103.4,103.4,0,0,0,19.64,27.27,119.54,119.54,0,0,0,14.61,12.94,90.18,90.18,0,0,0,21,11.67c8.14,3,16.41,5,25.15,2.89-1.71,2.73-4.36,4.22-7.25,5.3a26.71,26.71,0,0,1-13.76,1c-9.89-1.53-18.7-5.75-27-11.1a97.34,97.34,0,0,1-14.05-10.91c-1.8-1.69-2.51-1.74-4.71-.62Z" transform="translate(-96.16 -246.01)"/><path class="cls-5" d="M189.35,437.27a20.11,20.11,0,0,1,8.39.13c8.51,1.53,16.12,5.27,23.39,9.77A111.86,111.86,0,0,1,238,459.9c1.77,1.63,3.08,1.8,4.62.67l4.81,4.81c-1.42,2.12-.18,3.61,1.19,5.09a108.82,108.82,0,0,1,17.69,25.34c3.07,6.2,5.5,12.62,5.8,19.64a12.5,12.5,0,0,1-.39,4.71,57.7,57.7,0,0,1-21.58-6c-10.13-4.85-19-11.5-27.3-19a126.77,126.77,0,0,1-13.54-14.34,124.59,124.59,0,0,1-11-15.61c-3.94-6.79-7.26-13.83-8.65-21.63C189.25,441.55,188.79,439.42,189.35,437.27Z" transform="translate(-96.16 -246.01)"/><path class="cls-6" d="M247.39,465.38l-4.81-4.81c1.09-2.27.88-2.93-1.07-4.69a113.69,113.69,0,0,0-28.09-19A55.28,55.28,0,0,0,197.65,432c-1.1-.15-1.36-.52-1.14-1.58,1.36-6.31,5-10.57,11.25-12.3,5.33-1.47,10.64-.85,15.89.49,9.76,2.49,18.42,7.24,26.56,13.05a117.44,117.44,0,0,1,22.14,20.69c8.6,10.36,15.56,21.65,18.52,35a29.51,29.51,0,0,1,.31,12.79c-1.45,6.72-6,11.19-12.67,12.35-.7.12-1.26.33-1.42-.79-1.66-11.13-6.76-20.8-12.87-30A139.53,139.53,0,0,0,252,466.17C250.52,464.45,249.57,464.29,247.39,465.38Z" transform="translate(-96.16 -246.01)"/><path class="cls-6" d="M189.35,437.27c-.56,2.15-.1,4.28.27,6.38,1.39,7.8,4.71,14.84,8.65,21.63a124.59,124.59,0,0,0,11,15.61,126.77,126.77,0,0,0,13.54,14.34c8.27,7.47,17.17,14.12,27.3,19a57.7,57.7,0,0,0,21.58,6,10.61,10.61,0,0,1-7.66,9.17,22.08,22.08,0,0,1-11,.34c-8.82-1.62-16.67-5.57-24.16-10.31a129.18,129.18,0,0,1-29.41-26c-8-9.43-14.75-19.62-18.62-31.5a34.14,34.14,0,0,1-1.89-13C179.38,442.3,183.33,437.91,189.35,437.27Z" transform="translate(-96.16 -246.01)"/><path class="cls-6" d="M252.59,541.63c-2.2,4.52-6.09,6.73-10.78,7.68-6.38,1.29-12.54,0-18.58-2-9.65-3.22-18.2-8.4-26.17-14.63a116.39,116.39,0,0,1-16.31-15.38c-9.15-10.53-16.69-22-20.25-35.71a32.27,32.27,0,0,1-1.05-12.78c.78-5.52,3-10.09,8.4-12.57a2.09,2.09,0,0,0-.42,1.14,39.89,39.89,0,0,0,1.69,16.88c4.14,13.73,12,25.26,21.45,35.77a114.86,114.86,0,0,0,15.94,14.65,97.31,97.31,0,0,0,20.58,12.39,56.56,56.56,0,0,0,18,4.8C247.63,542.07,250.08,541.48,252.59,541.63Z" transform="translate(-96.16 -246.01)"/><path class="cls-7" d="M252.59,541.63c-2.51-.15-5,.44-7.53.24a56.56,56.56,0,0,1-18-4.8,97.31,97.31,0,0,1-20.58-12.39A114.86,114.86,0,0,1,190.57,510c-9.43-10.51-17.31-22-21.45-35.77a39.89,39.89,0,0,1-1.69-16.88,2.09,2.09,0,0,1,.42-1.14,10,10,0,0,1,.9-.52c4.56-2,4.65-1.9,5.64,2.71,2.06,9.64,6.51,18.21,11.87,26.35a136.54,136.54,0,0,0,26.53,29.41c9.68,8.14,20.18,15,32.33,19a38.53,38.53,0,0,0,8.06,1.88c1.3.14,1.55.66,1.21,1.82A15.49,15.49,0,0,1,252.59,541.63Z" transform="translate(-96.16 -246.01)"/><path class="cls-3" d="M235,559.88c-8.74,2.13-17,.15-25.15-2.89a90.18,90.18,0,0,1-21-11.67,119.54,119.54,0,0,1-14.61-12.94,103.4,103.4,0,0,1-19.64-27.27c-3.68-7.44-6.14-15.26-6.39-23.62a61.47,61.47,0,0,1,.56-7.15,12.68,12.68,0,0,1,5-2.91c.63,16.14,7.69,29.56,17,42,11,14.71,24.51,26.6,41,34.89,7.73,3.89,15.83,6.64,24.61,6.76,1.27,0,1.21.51.77,1.37A11.72,11.72,0,0,1,235,559.88Z" transform="translate(-96.16 -246.01)"/><path class="cls-8" d="M179.32,435.83a18.32,18.32,0,0,0-5.64,12c-.07.86-.38,1.27-1.25,1.36a26.73,26.73,0,0,0-5.68,1.48,21.23,21.23,0,0,1,2.12-12.38,11.36,11.36,0,0,0,.26-10.43c-3.94-9.4-2.82-18.37,3.1-26.72.54-.75.91-1,1.57-.21,1.18,1.43,2.89,2.36,3.72,4.1l-.75-.75c-1.64-1.64-1.73-1.64-2.73.45A23.89,23.89,0,0,0,171.68,418,31.06,31.06,0,0,0,179.32,435.83Z" transform="translate(-96.16 -246.01)"/><path class="cls-9" d="M179.32,435.83A31.06,31.06,0,0,1,171.68,418,23.89,23.89,0,0,1,174,404.73c1-2.09,1.09-2.09,2.73-.45l.75.75a28.73,28.73,0,0,0-3.72,9.6c-1.25,7.75,5.13,12.43,11.25,10.62a20.09,20.09,0,0,1,6.14-.57c1,0,1.66.17,1,1.36a.49.49,0,0,0-.06.17c-.43,1.77-.33,4-1.43,5.16s-3.3.75-5,1.17A20.7,20.7,0,0,0,179.32,435.83Z" transform="translate(-96.16 -246.01)"/><path class="cls-10" d="M198.21,569c1,1.37,1,1.94-.17,3.19a28.75,28.75,0,0,1-25.44,9.67c-10.3-1.11-18.19-6.16-22.9-15.49-5.77-11.43-2-25.13,8.82-32.66.92-.63,1.09-.87.08-1.64-3.79-2.88-6.1-6.57-5.67-11.55a10.81,10.81,0,0,1,.31-1.79,1.88,1.88,0,0,1,1.75-1.61,1.84,1.84,0,0,1,1.9,1.39,12.15,12.15,0,0,0,5.9,6.52l.31,0-.11-.29a16.59,16.59,0,0,1-1.3-6.74,8.55,8.55,0,0,1,.27-1.67,1.85,1.85,0,0,1,2.86-1.2,17.9,17.9,0,0,1,5.1,4.27c.43.48.82,1,1.32,1.6.33-1,.61-2,.93-2.88a11.67,11.67,0,0,1,2.84-4.61,1.86,1.86,0,0,1,3,.16,13.12,13.12,0,0,1,2.51,6.25c.54-.12.45-.57.47-.93.56-9.35,5-16.41,12.73-21.5l.38-.25a17.88,17.88,0,0,1-5.41-5.26,11.19,11.19,0,0,1-1.44-9.41,1.75,1.75,0,0,1,1.63-1.4,1.7,1.7,0,0,1,1.91,1.19c1.05,3.15,3.36,5.16,6.11,6.82.32-.47-.09-.83-.21-1.2a13.24,13.24,0,0,1-.92-7c.39-2,1.63-2.59,3.43-1.55a20.74,20.74,0,0,1,6,5.63c.37-1.11.69-2.16,1.07-3.18a11.43,11.43,0,0,1,2.69-4.28,1.85,1.85,0,0,1,3.11.17,11.69,11.69,0,0,1,2.24,5.18,1.83,1.83,0,0,0,.36,1c.47-.41.93-.83,1.4-1.23a18,18,0,0,1,5.1-3.25,1.83,1.83,0,0,1,2.67,1.66,12,12,0,0,1-1.54,6.53c-.33.67-.71,1.32-1.23,2.26,3.38-1.66,6.06-3.61,7.4-7,.4-1,.83-1.88,2.11-1.79s1.62,1,1.84,2.06a11.67,11.67,0,0,1-2.57,10.1,18.24,18.24,0,0,1-4.4,3.85c.72.52,1.4,1,2.06,1.47,1.31,1,1.45,1.51.79,3a2.2,2.2,0,0,1-3.06-.05,23.64,23.64,0,0,0-11.32-4.58,21,21,0,0,0-8.92,0c-9.12,1.85-15.69,6.86-19.07,15.69a10.28,10.28,0,0,0-.83,3.7l1.18-.61c2.41-1.18,3.82-.29,3.64,2.38a14.11,14.11,0,0,1-1.79,5.75c-.31.57-.61,1.14-1,2,3.5-1.78,6.27-3.83,7.57-7.41.49-1.34,1.32-1.63,2.83-1.18a3.86,3.86,0,0,1,1,2.13,12.65,12.65,0,0,1-.29,5.74,15.61,15.61,0,0,1-5.64,7.14c-.75.54-.34.78.15,1.11a22.32,22.32,0,0,1,6.31,6,6.41,6.41,0,0,0,4.41,2.8,24.8,24.8,0,0,0,10.22.37c2.59-.29,5.14-.57,6.56-3.29a11.85,11.85,0,0,1,2-2.3,29.94,29.94,0,0,1,5.62-4.52L227,532c-.3-.22-.6-.43-.88-.66-3.86-3.17-6.27-7-5.43-12.23.19-1.19.39-2.45,1.87-2.62s1.84,1,2.28,2.1c1,2.49,3.87,5.25,5.89,5.72-.31-.94-.65-1.84-.9-2.76a11.27,11.27,0,0,1-.34-5.41c.38-1.73,1.6-2.35,3.13-1.52.56.3,1.1.65,1.8,1.06a21.23,21.23,0,0,0-3-7.41,2.15,2.15,0,0,1,.18-3.05c1.45-.52,2.07-.33,2.86.93a25,25,0,0,1,4,12.94c0,.42-.1.89.42,1.23a35,35,0,0,1,1.28-3.78,11.94,11.94,0,0,1,2.41-3.62,1.9,1.9,0,0,1,3.13.17,11.87,11.87,0,0,1,2.26,5.31c0,.27.12.54.21,1l2.16-1.82a18.6,18.6,0,0,1,3.76-2.43c2.2-1.05,3.41-.25,3.41,2.2a13.06,13.06,0,0,1-1.64,5.79c-.28.58-.6,1.14-.91,1.73.15,0,.29.13.37.09,3-1.46,5.5-3.43,6.77-6.64.4-1,.89-1.91,2.11-1.81s1.63,1,1.84,2.08c1,5.1-1,9-4.71,12.28-.73.64-1.54,1.19-2.36,1.82a27.58,27.58,0,0,1,8.48,7.9,25,25,0,0,1,4.15,9.62c0,.16,0,.31.24.35v2c-.48.45-.84,1.1-1.65,1-1.24.07-1.82-.59-2-1.76a22.51,22.51,0,0,0-7.58-13.35,24,24,0,0,0-13-5.94,1.85,1.85,0,0,0-.44-.18,26.53,26.53,0,0,0-18.51,4.29c-8,5.39-11.89,14.71-9.57,23.79,2.24,8.79,8.18,14.22,16.67,16.94a23.25,23.25,0,0,0,11.62.78,4.48,4.48,0,0,0,1-.06c9.79-2.22,16.71-7.65,19.51-17.61.35-1.25.94-2,2.31-2,1.46.72,1.74,1.25,1.31,2.8-3.16,11.38-10.92,17.84-22.16,20.39A29.3,29.3,0,0,1,219,569.42c-4.79-7.24-5.59-15-2.69-23.34a31,31,0,0,1-13.51-.08,26.19,26.19,0,0,1,1.73,9.69,24.42,24.42,0,0,1-1.39,7.74c-.5,1.36-1.12,1.71-2.6,1.47a2.12,2.12,0,0,1-.85-2.84,18.94,18.94,0,0,0,1.12-7.15,22.17,22.17,0,0,0-8.74-17.27A23.68,23.68,0,0,0,180,532.43a2,2,0,0,0-.44-.18,26.71,26.71,0,0,0-17.51,3.6c-8.87,5.37-13.18,15.25-10.55,24.89,2.34,8.56,8.22,13.84,16.53,16.52a23.84,23.84,0,0,0,11.74.79,24.19,24.19,0,0,0,15.46-8.25A2.3,2.3,0,0,1,198.21,569Zm44.13-41.9a8.44,8.44,0,0,0,1.39-9.58A17.27,17.27,0,0,0,242.34,527.14Zm-32.11-45.08a17,17,0,0,0-1.5,9.73C211.43,489,211.38,485.77,210.23,482.06Zm-34,36a17.29,17.29,0,0,0-1.51,9.61C177.56,524.89,177.42,521.69,176.23,518.09Zm28.6-26.23a21.92,21.92,0,0,0-5.33-7.56,21,21,0,0,0,2.13,5.61A3,3,0,0,0,204.83,491.86Zm-39.32,28.47a20.78,20.78,0,0,0,2.67,6.4c.62,1,1.53,1,2.56,1A19.71,19.71,0,0,0,165.51,520.33Zm67.57-.9a22.33,22.33,0,0,0,2.41,6.11,2.85,2.85,0,0,0,3,1.53A23.58,23.58,0,0,0,233.08,519.43Zm13.56,7.82a2.49,2.49,0,0,0,2.71-1,23.57,23.57,0,0,0,3.84-6.24A26.7,26.7,0,0,0,246.64,527.25ZM179,528a2.37,2.37,0,0,0,2.59-.93c.61-.85,1.32-1.63,1.91-2.5a11.79,11.79,0,0,0,1.91-3.73A26.06,26.06,0,0,0,179,528Zm34-35.88a3.07,3.07,0,0,0,3-1.51c.77-1.09,1.56-2.17,2.27-3.29a5.94,5.94,0,0,0,1.1-2.49A26.42,26.42,0,0,0,213,492.12Zm20.62,37.67a30.08,30.08,0,0,1-7.45-3.63,15.08,15.08,0,0,0,4.15,3.61C231.4,530.46,232.43,530.76,233.62,529.79Zm26.71-3.44a32.2,32.2,0,0,1-7.48,3.59c1,.11,1.58.82,2.26.5A12.67,12.67,0,0,0,260.33,526.35Zm-40.65-31.83a2.41,2.41,0,0,0,3.1.06,13.16,13.16,0,0,0,3.93-3.42A31,31,0,0,1,219.68,494.52Zm-26.94-3.46a12.4,12.4,0,0,0,4.37,3.68c1.16.64,1.46.61,2.65-.25A30.06,30.06,0,0,1,192.74,491.06Zm-34.1,35.86a13.92,13.92,0,0,0,4,3.52,1.72,1.72,0,0,0,2.33-.27A31.21,31.21,0,0,1,158.64,526.92Zm27.91,3.29c.89.54,1.57.84,2.43.22a19.43,19.43,0,0,0,2.62-2,3.21,3.21,0,0,0,1.29-1.67A25.89,25.89,0,0,1,186.55,530.21Z" transform="translate(-96.16 -246.01)"/><path class="cls-11" d="M270.09,558.36c-1.37,0-2,.77-2.31,2-2.8,10-9.72,15.39-19.51,17.61a4.48,4.48,0,0,1-1,.06,7.48,7.48,0,0,1-1.41-.36,25.7,25.7,0,0,1-9.6-7.46,23.76,23.76,0,0,1-5.22-12.59,23.2,23.2,0,0,1,1.28-10.47,24.66,24.66,0,0,1,9.54-12.11c1.71-1.18,3.41-2.51,5.64-2.63a24,24,0,0,1,13,5.94,22.51,22.51,0,0,1,7.58,13.35c.21,1.17.79,1.83,2,1.76A25.66,25.66,0,0,1,270.09,558.36Z" transform="translate(-96.16 -246.01)"/><path class="cls-11" d="M180,532.43a23.68,23.68,0,0,1,12.08,5.21,22.17,22.17,0,0,1,8.74,17.27,18.94,18.94,0,0,1-1.12,7.15,2.12,2.12,0,0,0,.85,2.84,20.6,20.6,0,0,1-2.34,4.14,2.3,2.3,0,0,0-3,.76,24.19,24.19,0,0,1-15.46,8.25,3.51,3.51,0,0,1-1.51-.38,26.44,26.44,0,0,1-9.92-8,23,23,0,0,1-4.25-20c1.7-7,6.08-12.14,12.21-15.79C177.43,533.16,178.55,532.33,180,532.43Z" transform="translate(-96.16 -246.01)"/><path class="cls-11" d="M231.6,505.19a2.15,2.15,0,0,0-.18,3.05,21.23,21.23,0,0,1,3,7.41c-.7-.41-1.24-.76-1.8-1.06-1.53-.83-2.75-.21-3.13,1.52a11.27,11.27,0,0,0,.34,5.41c.25.92.59,1.82.9,2.76-2-.47-4.89-3.23-5.89-5.72-.44-1.09-.83-2.26-2.28-2.1s-1.68,1.43-1.87,2.62c-.84,5.25,1.57,9.06,5.43,12.23.28.23.58.44.88.66l.86.63a29.94,29.94,0,0,0-5.62,4.52,11.85,11.85,0,0,0-2,2.3c-1.42,2.72-4,3-6.56,3.29a3,3,0,0,1-1.16-.32,25.52,25.52,0,0,1-10.67-8.72,18.57,18.57,0,0,1-3.62-8.39,12.65,12.65,0,0,0,.29-5.74,3.86,3.86,0,0,0-1-2.13,24.85,24.85,0,0,1,12.65-18.8c1.18-.7,2.31-1.54,3.78-1.52a23.64,23.64,0,0,1,11.32,4.58,2.2,2.2,0,0,0,3.06.05A38.59,38.59,0,0,1,231.6,505.19Z" transform="translate(-96.16 -246.01)"/><path class="cls-12" d="M180,532.43c-1.45-.1-2.57.73-3.7,1.4-6.13,3.65-10.51,8.74-12.21,15.79a23,23,0,0,0,4.25,20,26.44,26.44,0,0,0,9.92,8,3.51,3.51,0,0,0,1.51.38,23.84,23.84,0,0,1-11.74-.79c-8.31-2.68-14.19-8-16.53-16.52-2.63-9.64,1.68-19.52,10.55-24.89a26.71,26.71,0,0,1,17.51-3.6A2,2,0,0,1,180,532.43Z" transform="translate(-96.16 -246.01)"/><path class="cls-12" d="M247.53,532.43c-2.23.12-3.93,1.45-5.64,2.63a24.66,24.66,0,0,0-9.54,12.11,23.2,23.2,0,0,0-1.28,10.47,23.76,23.76,0,0,0,5.22,12.59,25.7,25.7,0,0,0,9.6,7.46,7.48,7.48,0,0,0,1.41.36,23.25,23.25,0,0,1-11.62-.78c-8.49-2.72-14.43-8.15-16.67-16.94-2.32-9.08,1.57-18.4,9.57-23.79a26.53,26.53,0,0,1,18.51-4.29A1.85,1.85,0,0,1,247.53,532.43Z" transform="translate(-96.16 -246.01)"/><path class="cls-12" d="M213.92,497.09c-1.47,0-2.6.82-3.78,1.52a24.85,24.85,0,0,0-12.65,18.8c-1.51-.45-2.34-.16-2.83,1.18-1.3,3.58-4.07,5.63-7.57,7.41.43-.82.73-1.39,1-2a14.11,14.11,0,0,0,1.79-5.75c.18-2.67-1.23-3.56-3.64-2.38l-1.18.61a10.28,10.28,0,0,1,.83-3.7C189.31,504,195.88,499,205,497.13A21,21,0,0,1,213.92,497.09Z" transform="translate(-96.16 -246.01)"/><path class="cls-13" d="M198.21,525.28a18.57,18.57,0,0,0,3.62,8.39,25.52,25.52,0,0,0,10.67,8.72,3,3,0,0,0,1.16.32,24.8,24.8,0,0,1-10.22-.37,6.41,6.41,0,0,1-4.41-2.8,22.32,22.32,0,0,0-6.31-6c-.49-.33-.9-.57-.15-1.11A15.61,15.61,0,0,0,198.21,525.28Z" transform="translate(-96.16 -246.01)"/><path class="cls-14" d="M242.34,527.14a17.27,17.27,0,0,1,1.39-9.58A8.44,8.44,0,0,1,242.34,527.14Z" transform="translate(-96.16 -246.01)"/><path class="cls-15" d="M210.23,482.06c1.15,3.71,1.2,6.91-1.5,9.73A17,17,0,0,1,210.23,482.06Z" transform="translate(-96.16 -246.01)"/><path class="cls-15" d="M176.23,518.09c1.19,3.6,1.33,6.8-1.51,9.61A17.29,17.29,0,0,1,176.23,518.09Z" transform="translate(-96.16 -246.01)"/><path class="cls-16" d="M204.83,491.86a3,3,0,0,1-3.2-1.95,21,21,0,0,1-2.13-5.61A21.92,21.92,0,0,1,204.83,491.86Z" transform="translate(-96.16 -246.01)"/><path class="cls-17" d="M165.51,520.33a19.71,19.71,0,0,1,5.23,7.44c-1,0-1.94,0-2.56-1A20.78,20.78,0,0,1,165.51,520.33Z" transform="translate(-96.16 -246.01)"/><path class="cls-17" d="M233.08,519.43a23.58,23.58,0,0,1,5.38,7.64,2.85,2.85,0,0,1-3-1.53A22.33,22.33,0,0,1,233.08,519.43Z" transform="translate(-96.16 -246.01)"/><path class="cls-16" d="M246.64,527.25a26.7,26.7,0,0,1,6.55-7.28,23.57,23.57,0,0,1-3.84,6.24A2.49,2.49,0,0,1,246.64,527.25Z" transform="translate(-96.16 -246.01)"/><path class="cls-17" d="M179,528a26.06,26.06,0,0,1,6.41-7.16,11.79,11.79,0,0,1-1.91,3.73c-.59.87-1.3,1.65-1.91,2.5A2.37,2.37,0,0,1,179,528Z" transform="translate(-96.16 -246.01)"/><path class="cls-17" d="M213,492.12a26.42,26.42,0,0,1,6.41-7.29,5.94,5.94,0,0,1-1.1,2.49c-.71,1.12-1.5,2.2-2.27,3.29A3.07,3.07,0,0,1,213,492.12Z" transform="translate(-96.16 -246.01)"/><path class="cls-18" d="M233.62,529.79c-1.19,1-2.22.67-3.3,0a15.08,15.08,0,0,1-4.15-3.61A30.08,30.08,0,0,0,233.62,529.79Z" transform="translate(-96.16 -246.01)"/><path class="cls-18" d="M260.33,526.35a12.67,12.67,0,0,1-5.22,4.09c-.68.32-1.26-.39-2.26-.5A32.2,32.2,0,0,0,260.33,526.35Z" transform="translate(-96.16 -246.01)"/><path class="cls-19" d="M219.68,494.52a31,31,0,0,0,7-3.36,13.16,13.16,0,0,1-3.93,3.42A2.41,2.41,0,0,1,219.68,494.52Z" transform="translate(-96.16 -246.01)"/><path class="cls-20" d="M192.74,491.06a30.06,30.06,0,0,0,7,3.43c-1.19.86-1.49.89-2.65.25A12.4,12.4,0,0,1,192.74,491.06Z" transform="translate(-96.16 -246.01)"/><path class="cls-19" d="M158.64,526.92a31.21,31.21,0,0,0,6.3,3.25,1.72,1.72,0,0,1-2.33.27A13.92,13.92,0,0,1,158.64,526.92Z" transform="translate(-96.16 -246.01)"/><path class="cls-19" d="M186.55,530.21a25.89,25.89,0,0,0,6.34-3.41,3.21,3.21,0,0,1-1.29,1.67,19.43,19.43,0,0,1-2.62,2C188.12,531.05,187.44,530.75,186.55,530.21Z" transform="translate(-96.16 -246.01)"/><path class="cls-21" d="M163,524.82l.11.29-.31,0Z" transform="translate(-96.16 -246.01)"/><path class="cls-22" d="M312.6,457.69c4.66-8.38,9.35-16.75,14-25.14q16.56-30,33.07-59.94c1.76-3.19,3.06-3.61,6.15-1.83,19.45,11.16,34.35,26.67,43.53,47.16,15.7,35,13.43,69.14-6.67,101.83-9.66,15.72-23.07,27.65-39.32,36.37a5.46,5.46,0,0,0-2,1.79c-11.48,16.26-30.47,22.43-49.38,16a1.52,1.52,0,0,0-2.17.76c-6.15,9.6-15,14.4-26.37,14.35a14,14,0,0,0-7.58,2.38,28.85,28.85,0,0,1-23.5,3.33c-2.75-.72-3.38-1.69-3.17-4.6,1.21-1.89,2.81-2.23,5-1.64a21.74,21.74,0,0,0,18.36-2.62,20.62,20.62,0,0,1,12-3.34,21.23,21.23,0,0,0,14.59-5.4,21.55,21.55,0,0,0,6.75-8.88c3.9-9,3.51-18.12.77-27.24-2.37-7.89-6.41-14.82-13-20-3.85-3-8.12-5.17-13.15-5.38l0,0a.4.4,0,0,0-.59-.11,11.16,11.16,0,0,0-1.27-.13c-5.07,0-9.44,2.18-13.89,4.27-1.53.72-1.59,1.41-1,2.71a21,21,0,0,1,1.36,3.8c.4,1.77-.11,3.26-2,3.94s-3.28,0-4.09-1.93c-.64-1.5-1.11-3.07-1.68-4.6-.24-.66-.4-1.22-1.41-1.25-11.65-.3-21.38,6.59-24.35,18.07-3.81,14.69-.09,27.88,9.25,39.59,1.36,1.7,1.93,3.21.85,5.17-2.56,1.61-3.69,1.46-5.66-.78a48.24,48.24,0,0,1-7.65-12.11c-.16-.35-.11-.88-.72-.87l-3.55-12.3c.23-3-.57-6-.46-9a45.52,45.52,0,0,1,1-9.25,3,3,0,0,0-.39-2.58,106.3,106.3,0,0,1-16.09-40.67c-2.62-14.85-2.05-29.49,4.2-43.53A48.74,48.74,0,0,1,219.15,443a2.06,2.06,0,0,0,.18-2.8,35,35,0,0,0-8.73-10c-1.68-1.32-3.37-2.61-5-4-2.9-2.38-3.66-5.3-2.27-8.51a6.89,6.89,0,0,1,7.74-4.24c3.42.45,6.83,1,10.48,1.51a32.19,32.19,0,0,0-10.93-17.41c-.77-.63-1.57-1.22-2.3-1.9a5.79,5.79,0,0,1-1.6-6.39c.88-2.36,3-4.17,5.55-3.88,7.82.9,15.66,1.89,22.51,6.32a39,39,0,0,1,4.54,3.7c2.17-10.45,9.84-16.59,17.33-22.81a5.91,5.91,0,0,1,8.82,6.95c-1.77,5-2.93,10.06-2.31,15.4a36.36,36.36,0,0,0,1.55,7.55c2.76-2.35,5.4-4.65,8.09-6.88a7.08,7.08,0,0,1,11,1.78,6.57,6.57,0,0,1,.51,5.92c-.81,2.42-1.73,4.81-2.54,7.23A34.56,34.56,0,0,0,280,422.53a2,2,0,0,0,1.63,2.23,55.86,55.86,0,0,1,26.5,19.86c1.61,2.14,1.55,3.2-.15,5.27-2.44,1-3.53.68-5.22-1.61a48.92,48.92,0,0,0-17.92-15c-8.5-4.18-17.45-6.1-26.95-4.85-13.18,1.47-24.32,6.89-32.71,17.31-7.26,9-10.33,19.62-11.08,31-1.14,17.35,2.85,33.65,10.46,49.15a25.89,25.89,0,0,0,3.49,6c5.67-9.54,13.84-14.87,24.92-16-.53-.69-.88-1.2-1.28-1.67a26.79,26.79,0,0,0-12.14-8.31c-2.84-.94-3.61-3.8-1.53-5.57a3.67,3.67,0,0,1,3.81-.45,32.07,32.07,0,0,1,16.77,12.82c1.4,2.08,2.41,1.78,4.22.88,6.36-3.17,12.95-5.55,20.24-4.2,1.24.23,1.46-.51,1.86-1.23q4.49-8.12,9-16.24,5.58-10.19,11.13-20.38C307.67,467,310.27,462.4,312.6,457.69Zm-38.88-54.22a98.92,98.92,0,0,0-8.19,7c-2.31,2-4.81,1.31-5.74-1.57-.39-1.21-.75-2.43-1.12-3.64l-.54-2.28c-1.7-7.2-2.44-14.39-.1-21.61.15-.48.56-1,.23-1.62a36,36,0,0,0-5.06,4.87c-6.26,6.07-9.5,13.15-7.38,22,.61,2.55,0,4.08-1.9,4.68s-3.43-.38-4.29-2.94A19.86,19.86,0,0,0,230.54,397c-4.32-2.5-9.06-3.61-13.91-4.43-.48-.09-1.09-.51-1.61.21a36.74,36.74,0,0,1,6.72,7.31c3.41,5.08,5.11,10.85,7.06,16.56,1.44,4.24-1.21,6.2-4.82,5.38-4.41-1-8.95-1.4-13.43-2.06-.46-.07-1-.37-1.31.26s.29.87.62,1.18a15.21,15.21,0,0,0,1.34,1.06c4.74,3.52,9.25,7.31,12.38,12.4,1,1.61,1.5,1.74,2.94.46,8.11-7.22,17.67-11.35,28.34-13.12a69.17,69.17,0,0,1,14.38-.45,19.87,19.87,0,0,1,2,.4c1.63.5,2.33.28,2.3-1.76a36.13,36.13,0,0,1,2.39-13c.68-1.86,1.35-3.72,2-5.58.15-.44.5-1,0-1.36s-.89,0-1.26.37C275.71,401.72,274.71,402.59,273.72,403.47Zm93.7,141.33a1.56,1.56,0,0,0-.31,1.38,1.34,1.34,0,0,0,.42,0,8.24,8.24,0,0,0,.9-.54,96.32,96.32,0,0,0,36.34-43.44c11.51-27.17,11.05-54.36-1.15-81.25a96,96,0,0,0-34.06-40.17c-5.33-3.64-5.35-3.61-8.13,2.32a14.9,14.9,0,0,1-.91,1.42c-1.25,1.5-.67,2.21.85,3.18,19,12.15,31.6,29.15,37.95,50.79.67,2.26.09,3.39-2.18,4.6-2.2.21-3.43-.8-4-2.91s-1.29-3.91-2-5.85c-6.3-17.33-17.35-30.87-32.71-41-1.56-1-2.22-1-3.2.76q-30.51,55.51-61.15,111c-.36.65-.7,1.32-1,2,11.71-12.6,25.88-18.14,42.77-14.07S363.16,508.17,368,525a77.82,77.82,0,0,0,14.63-16.72,82.05,82.05,0,0,0,13.46-51.58c-.15-2.29.66-3.67,2.79-4.35,2.17.25,3.51,1.29,3.66,3.62a89.77,89.77,0,0,1-1.35,23.43,88.61,88.61,0,0,1-31.09,52.3c-.62.52-1.45.9-1.39,2C368.85,537.44,368.07,541.12,367.42,544.8Zm-25.3,21.46c18.27-8.51,25.68-32.07,15.62-49.66-7.33-12.82-21.94-20.38-35.24-18.25a35.21,35.21,0,0,0-25.76,15.12c-.62.85-.53,1.26.31,2C312.52,529.05,317.72,546,313.57,566c-.26,1.23-.16,1.66,1.07,2.06A35.56,35.56,0,0,0,342.12,566.26Z" transform="translate(-96.16 -246.01)"/><path class="cls-23" d="M299.11,577.16a21.23,21.23,0,0,1-14.59,5.4,20.62,20.62,0,0,0-12,3.34,21.74,21.74,0,0,1-18.36,2.62c-2.14-.59-3.74-.25-5,1.64a20.36,20.36,0,0,1-7.43-5c1.07-1.95.5-3.46-.86-5.16-9.34-11.71-13.06-24.9-9.25-39.59,3-11.48,12.7-18.37,24.35-18.07,1,0,1.17.59,1.41,1.25.57,1.53,1,3.1,1.68,4.6.81,1.93,2.29,2.59,4.09,1.93s2.38-2.17,2-3.94a21,21,0,0,0-1.36-3.8c-.59-1.3-.53-2,1-2.71,4.45-2.09,8.82-4.27,13.89-4.27a11.16,11.16,0,0,1,1.27.13l.59.11,0,0c.05.78.69,1,1.22,1.35a32.4,32.4,0,0,1,7.24,6.49,57.17,57.17,0,0,1,12.54,43.36C301,570.36,299.88,573.71,299.11,577.16Z" transform="translate(-96.16 -246.01)"/><path class="cls-24" d="M312.6,457.69c-2.33,4.71-4.93,9.27-7.59,13.81a41.93,41.93,0,0,0-4.14-9.27c-2.14-3.87-4.07-7.92-7.21-11.16a5.28,5.28,0,0,1,.31-.78c.95-1.55,1.47-3.13.09-4.68s-3-1.17-4.65-.33a52.89,52.89,0,0,0-6.22-5.74,51.75,51.75,0,0,0-21.45-10.09c-1.29-.28-2.7-.16-3.85-1,9.5-1.25,18.45.67,26.95,4.85a48.92,48.92,0,0,1,17.92,15c1.69,2.29,2.78,2.6,5.22,1.61Z" transform="translate(-96.16 -246.01)"/><path class="cls-25" d="M398.84,452.34c-2.13.68-2.94,2.06-2.79,4.35a82.05,82.05,0,0,1-13.46,51.58A77.82,77.82,0,0,1,368,525c-4.8-16.82-15.28-28-32.17-32.07S304.73,494.39,293,507c.34-.67.68-1.34,1-2q30.58-55.47,61.15-111c1-1.79,1.64-1.79,3.2-.76,15.36,10.13,26.41,23.67,32.71,41,.7,1.94,1.44,3.87,2,5.85s1.83,3.12,4,2.91A69.77,69.77,0,0,1,398.84,452.34Zm-28.26-3c1.32-.38,2.3-.58,3.22-.95a3,3,0,0,0,1.91-3.61,2.84,2.84,0,0,0-3.21-2.49,45.31,45.31,0,0,0-7.65,1.73,2.87,2.87,0,0,0-2,3.74,2.93,2.93,0,0,0,3.67,2.35C368,449.84,369.49,449.51,370.58,449.3Zm6.57,19.28a3.17,3.17,0,0,0-2.61-2.42c-2.31-.34-4.62-.7-7-.93a3.06,3.06,0,0,0-3.47,2.68c-.15,1.74.53,3.17,2.34,3.54a64.73,64.73,0,0,0,7.57,1.07A3.13,3.13,0,0,0,377.15,468.58ZM365.29,422c-.42-1.43-2.69-2.35-4.56-1.19s-3.64,2.42-5.41,3.69-2.14,3.15-1.13,4.62a3.28,3.28,0,0,0,4.69.81c1.84-1.17,3.62-2.44,5.38-3.75C365.43,425.32,365.93,424.13,365.29,422Zm4.35,68.9a1.65,1.65,0,0,0-.7-1.1,34.11,34.11,0,0,0-7.6-4.17,2.8,2.8,0,0,0-3.53,1.66,2.91,2.91,0,0,0,1,4,73.79,73.79,0,0,0,6.69,3.7,2.8,2.8,0,0,0,3.33-.61A3.08,3.08,0,0,0,369.64,490.91Z" transform="translate(-96.16 -246.01)"/><path class="cls-26" d="M293.66,451.07c3.14,3.24,5.07,7.29,7.21,11.16A41.93,41.93,0,0,1,305,471.5q-5.56,10.19-11.13,20.38-4.45,8.13-9,16.24c-.4.72-.62,1.46-1.86,1.23-7.29-1.35-13.88,1-20.24,4.2-1.81.9-2.82,1.2-4.22-.88a32.07,32.07,0,0,0-16.77-12.82,3.67,3.67,0,0,0-3.81.45c-2.08,1.77-1.31,4.63,1.53,5.57a26.79,26.79,0,0,1,12.14,8.31c.4.47.75,1,1.28,1.67-11.08,1.11-19.25,6.44-24.92,16a25.89,25.89,0,0,1-3.49-6c-7.61-15.5-11.6-31.8-10.46-49.15.75-11.35,3.82-22,11.08-31,8.39-10.42,19.53-15.84,32.71-17.31,1.15.84,2.56.72,3.85,1a51.75,51.75,0,0,1,21.45,10.09,52.89,52.89,0,0,1,6.22,5.74c-1,1.73-2.05,3.41-2.88,5.21-.67,1.43-1.37,1.45-2.57.67a40.17,40.17,0,0,0-3.91-2.17c-1.91-1-3.74-.53-4.64,1-1,1.73-.46,3.46,1.56,4.62,2.58,1.48,5.2,2.92,7.83,4.32,2.35,1.26,3.83.83,5.17-1.45C291.22,455.39,292.43,453.22,293.66,451.07Zm-35,27.16a3,3,0,0,0-2.57-2.24,3.18,3.18,0,0,0-3.36,1.73c-1.06,1.85-1.71,4.7-3.25,5.29s-3.61-1.71-5.51-2.63-3.72-.51-4.64,1.07-.41,3.48,1.6,4.63q4,2.28,8,4.42a3.28,3.28,0,0,0,4.86-1.41c1.56-2.7,3-5.47,4.54-8.2A3.31,3.31,0,0,0,258.65,478.23ZM269,472a3,3,0,0,0-2.34,2.47,2.76,2.76,0,0,0,1.25,3.15c3.06,1.8,6.15,3.55,9.31,5.16a2.81,2.81,0,0,0,3.79-1c1.88-3.09,3.62-6.27,5.26-9.49a2.82,2.82,0,0,0-1.12-3.74,3.08,3.08,0,0,0-3.77.05,6.24,6.24,0,0,0-1.56,2.25c-.85,1.47-1.4,3.75-2.62,4.2-1.44.53-3-1.38-4.63-2.13C271.43,472.39,270.4,471.51,269,472Zm-1.91-17.16a3.09,3.09,0,0,0-2.58-2.25,3.13,3.13,0,0,0-3.27,1.53c-.89,1.54-1.8,3.07-2.57,4.66-.5,1-.94,1.33-2,.64a47.32,47.32,0,0,0-4.46-2.48,3.25,3.25,0,0,0-4.57,1.25,3.17,3.17,0,0,0,1.48,4.33q4.06,2.33,8.2,4.53c2.15,1.14,3.63.73,4.83-1.35,1.56-2.71,3-5.47,4.55-8.2A3.81,3.81,0,0,0,267.09,454.83Z" transform="translate(-96.16 -246.01)"/><path class="cls-27" d="M342.12,566.26a35.56,35.56,0,0,1-27.48,1.82c-1.23-.4-1.33-.83-1.07-2.06,4.15-20-1.05-37-16.52-50.55-.84-.74-.93-1.15-.31-2a35.21,35.21,0,0,1,25.76-15.12,43.84,43.84,0,0,1,11.55,4.12c11.41,6.47,18.31,16.08,20.33,29.18,1.33,8.68-.43,16.75-4.37,24.41C348,559.92,345.07,563.11,342.12,566.26ZM330,509.53a3.16,3.16,0,0,0-4.05-2.07,3.06,3.06,0,0,0-2.05,4,3.3,3.3,0,0,0,3.9,2.1A3.4,3.4,0,0,0,330,509.53Z" transform="translate(-96.16 -246.01)"/><path class="cls-28" d="M361.43,383.05c2.78-5.93,2.8-6,8.13-2.32a96,96,0,0,1,34.06,40.17c12.2,26.89,12.66,54.08,1.15,81.25a96.32,96.32,0,0,1-36.34,43.44,8.24,8.24,0,0,1-.9.54,1.34,1.34,0,0,1-.42,0,1.56,1.56,0,0,1,.31-1.38,3.67,3.67,0,0,0,.73-.4,101.71,101.71,0,0,0,29.57-41.9,102.33,102.33,0,0,0,4.57-56.75,86.65,86.65,0,0,0-3.78-13.67A124.77,124.77,0,0,0,393.42,420a100.35,100.35,0,0,0-27.2-33.56C364.69,385.24,363.42,383.62,361.43,383.05Z" transform="translate(-96.16 -246.01)"/><path class="cls-29" d="M269.24,421.78a69.17,69.17,0,0,0-14.38.45c-10.67,1.77-20.23,5.9-28.34,13.12-1.44,1.28-2,1.15-2.94-.46-3.13-5.09-7.64-8.88-12.38-12.4a15.21,15.21,0,0,1-1.34-1.06c-.33-.31-.93-.54-.62-1.18s.85-.33,1.31-.26c4.48.66,9,1.06,13.43,2.06,3.61.82,6.26-1.14,4.82-5.38-2-5.71-3.65-11.48-7.06-16.56A36.74,36.74,0,0,0,215,392.8c.52-.72,1.13-.3,1.61-.21,4.85.82,9.59,1.93,13.91,4.43a19.86,19.86,0,0,1,9.09,11.34c.86,2.56,2.28,3.57,4.29,2.94s2.51-2.13,1.9-4.68c-2.12-8.87,1.12-15.95,7.38-22-.08.42-.11.84-.23,1.25q-3.21,11.47,5.7,19.39c.37,1.21.73,2.43,1.12,3.64.93,2.88,3.43,3.59,5.74,1.57a98.92,98.92,0,0,1,8.19-7,6,6,0,0,1-.48,2C271.35,410.79,269.25,416,269.24,421.78Z" transform="translate(-96.16 -246.01)"/><path class="cls-30" d="M361.43,383.05c2,.57,3.26,2.19,4.79,3.39A100.35,100.35,0,0,1,393.42,420a124.77,124.77,0,0,1,5.09,12.08,86.65,86.65,0,0,1,3.78,13.67,102.33,102.33,0,0,1-4.57,56.75,101.71,101.71,0,0,1-29.57,41.9,3.67,3.67,0,0,1-.73.4c.65-3.68,1.43-7.36,1.25-11.13-.06-1.08.77-1.46,1.39-2a88.61,88.61,0,0,0,31.09-52.3A89.77,89.77,0,0,0,402.5,456c-.15-2.33-1.49-3.37-3.66-3.62a69.77,69.77,0,0,0-1.7-9.3c2.27-1.21,2.85-2.34,2.18-4.6C393,416.8,380.4,399.8,361.37,387.65c-1.52-1-2.1-1.68-.85-3.18A14.9,14.9,0,0,0,361.43,383.05Z" transform="translate(-96.16 -246.01)"/><path class="cls-31" d="M342.12,566.26c2.95-3.15,5.9-6.34,7.89-10.2,3.94-7.66,5.7-15.73,4.37-24.41-2-13.1-8.92-22.71-20.33-29.18a43.84,43.84,0,0,0-11.55-4.12c13.3-2.13,27.91,5.43,35.24,18.25C367.8,534.19,360.39,557.75,342.12,566.26Z" transform="translate(-96.16 -246.01)"/><path class="cls-32" d="M299.11,577.16c.77-3.45,1.89-6.8,2.39-10.32A57.17,57.17,0,0,0,289,523.48a32.4,32.4,0,0,0-7.24-6.49c-.53-.34-1.17-.57-1.22-1.35,5,.21,9.3,2.33,13.15,5.38,6.57,5.2,10.61,12.13,13,20,2.74,9.12,3.13,18.28-.77,27.24A21.55,21.55,0,0,1,299.11,577.16Z" transform="translate(-96.16 -246.01)"/><path class="cls-33" d="M258.67,405.24q-8.93-7.92-5.7-19.39c.12-.41.15-.83.23-1.25a36,36,0,0,1,5.06-4.87c.33.67-.08,1.14-.23,1.62-2.34,7.22-1.6,14.41.1,21.61Z" transform="translate(-96.16 -246.01)"/><path class="cls-33" d="M269.24,421.78c0-5.75,2.11-11,4-16.27a6,6,0,0,0,.48-2c1-.88,2-1.75,3-2.64.37-.34.74-.77,1.26-.37s.16.92,0,1.36c-.64,1.86-1.31,3.72-2,5.58a36.13,36.13,0,0,0-2.39,13c0,2-.67,2.26-2.3,1.76A19.87,19.87,0,0,0,269.24,421.78Z" transform="translate(-96.16 -246.01)"/><path class="cls-32" d="M280.52,515.66l-.59-.11A.4.4,0,0,1,280.52,515.66Z" transform="translate(-96.16 -246.01)"/><path class="cls-34" d="M293.66,451.07c-1.23,2.15-2.44,4.32-3.69,6.45-1.34,2.28-2.82,2.71-5.17,1.45-2.63-1.4-5.25-2.84-7.83-4.32-2-1.16-2.56-2.89-1.56-4.62.9-1.57,2.73-2,4.64-1a40.17,40.17,0,0,1,3.91,2.17c1.2.78,1.9.76,2.57-.67.83-1.8,1.91-3.48,2.88-5.21,1.62-.84,3.23-1.27,4.65.33s.86,3.13-.09,4.68A5.28,5.28,0,0,0,293.66,451.07Z" transform="translate(-96.16 -246.01)"/><path class="cls-35" d="M370.58,449.3c-1.09.21-2.54.54-4,.77a2.93,2.93,0,0,1-3.67-2.35,2.87,2.87,0,0,1,2-3.74,45.31,45.31,0,0,1,7.65-1.73,2.84,2.84,0,0,1,3.21,2.49,3,3,0,0,1-1.91,3.61C372.88,448.72,371.9,448.92,370.58,449.3Z" transform="translate(-96.16 -246.01)"/><path class="cls-35" d="M377.15,468.58a3.13,3.13,0,0,1-3.12,3.94,64.73,64.73,0,0,1-7.57-1.07c-1.81-.37-2.49-1.8-2.34-3.54a3.06,3.06,0,0,1,3.47-2.68c2.33.23,4.64.59,7,.93A3.17,3.17,0,0,1,377.15,468.58Z" transform="translate(-96.16 -246.01)"/><path class="cls-35" d="M365.29,422c.64,2.12.14,3.31-1,4.18-1.76,1.31-3.54,2.58-5.38,3.75a3.28,3.28,0,0,1-4.69-.81c-1-1.47-.58-3.39,1.13-4.62s3.56-2.53,5.41-3.69S364.87,420.58,365.29,422Z" transform="translate(-96.16 -246.01)"/><path class="cls-36" d="M369.64,490.91a3.08,3.08,0,0,1-.85,3.44,2.8,2.8,0,0,1-3.33.61,73.79,73.79,0,0,1-6.69-3.7,2.91,2.91,0,0,1-1-4,2.8,2.8,0,0,1,3.53-1.66,34.11,34.11,0,0,1,7.6,4.17A1.65,1.65,0,0,1,369.64,490.91Z" transform="translate(-96.16 -246.01)"/><path class="cls-34" d="M258.65,478.23a3.31,3.31,0,0,1-.31,2.66c-1.51,2.73-3,5.5-4.54,8.2a3.28,3.28,0,0,1-4.86,1.41q-4-2.14-8-4.42c-2-1.15-2.58-2.94-1.6-4.63s2.71-2,4.64-1.07,4,3.22,5.51,2.63,2.19-3.44,3.25-5.29a3.18,3.18,0,0,1,3.36-1.73A3,3,0,0,1,258.65,478.23Z" transform="translate(-96.16 -246.01)"/><path class="cls-36" d="M269,472c1.4-.48,2.43.4,3.57.93,1.59.75,3.19,2.66,4.63,2.13,1.22-.45,1.77-2.73,2.62-4.2a6.24,6.24,0,0,1,1.56-2.25,3.08,3.08,0,0,1,3.77-.05,2.82,2.82,0,0,1,1.12,3.74c-1.64,3.22-3.38,6.4-5.26,9.49a2.81,2.81,0,0,1-3.79,1c-3.16-1.61-6.25-3.36-9.31-5.16a2.76,2.76,0,0,1-1.25-3.15A3,3,0,0,1,269,472Z" transform="translate(-96.16 -246.01)"/><path class="cls-36" d="M267.09,454.83a3.81,3.81,0,0,1-.4,2.66c-1.53,2.73-3,5.49-4.55,8.2-1.2,2.08-2.68,2.49-4.83,1.35q-4.12-2.21-8.2-4.53a3.17,3.17,0,0,1-1.48-4.33,3.25,3.25,0,0,1,4.57-1.25,47.32,47.32,0,0,1,4.46,2.48c1.07.69,1.51.4,2-.64.77-1.59,1.68-3.12,2.57-4.66a3.13,3.13,0,0,1,3.27-1.53A3.09,3.09,0,0,1,267.09,454.83Z" transform="translate(-96.16 -246.01)"/><path class="cls-34" d="M330,509.53a3.4,3.4,0,0,1-2.2,4.05,3.3,3.3,0,0,1-3.9-2.1,3.06,3.06,0,0,1,2.05-4A3.16,3.16,0,0,1,330,509.53Z" transform="translate(-96.16 -246.01)"/><path class="cls-37" d="M317,549.72a16.57,16.57,0,0,0-.64,3.71,50.38,50.38,0,0,1-3.63,11.94,1.84,1.84,0,0,1-2.4,1.15,1.9,1.9,0,0,1-.59-2.71,44.6,44.6,0,0,0,3.54-24.23,43.14,43.14,0,0,0-8.41-20.91c-3.11-4.07-6.17-8.14-7.9-13a36.58,36.58,0,0,1-1.95-9.25c-.09-1.39-.16-1.39-1.56-1a10.84,10.84,0,0,0-6.68,15.4,1.88,1.88,0,0,1-1.77,2.88c-8.07-.05-13.21,7.52-10.33,15.09a1.75,1.75,0,0,1-2.18,2.54,14.23,14.23,0,0,0-5.81-.2,14.79,14.79,0,0,0-8.18,4.25c-.25.25-.72.53-.13,1a17.62,17.62,0,0,1,6.38,8.78A18.52,18.52,0,0,1,265,554c5-.94,9.54-.25,13.61,2.6a16.5,16.5,0,0,1,7.13,11.88c.49-.52.85-.88,1.18-1.26a58.66,58.66,0,0,0,5-6.76,14.7,14.7,0,0,0,1.91-11.22,13.73,13.73,0,0,0-6.31-8.94c-1-.69-1.29-1.58-.76-2.43s1.51-1,2.59-.33a17.52,17.52,0,0,1,7.05,8.54,5.42,5.42,0,0,0,.59,1.56,42.72,42.72,0,0,0,.49-18c-.46-2.27-1.06-4.5-1.73-6.71a1.59,1.59,0,0,1,1-2,1.62,1.62,0,0,1,2.1.93,7.39,7.39,0,0,1,.29.83,47.92,47.92,0,0,1-6.82,43.19c-.29.4-.59.8-.93,1.25a5,5,0,0,0,1.56,0c2.58-.38,5.14-.42,7.51.93,1.07.61,1.38,1.49.9,2.37a1.67,1.67,0,0,1-2.48.55,6,6,0,0,0-2.19-.68c-3.78-.35-7.15,1-10.46,2.54a1.63,1.63,0,0,0-.83,1.23,16,16,0,0,1-5.8,9.26,65.14,65.14,0,0,1-9.81,6.54c-.26.14-.65.16-.73.6A49,49,0,0,0,280,589a44.77,44.77,0,0,0,25.65-17.81c.82-1.15,1.27-1.31,2.6-.89.9,1,1,1.65.19,2.74a47.85,47.85,0,0,1-30.8,19.89,45.73,45.73,0,0,1-15.17.43,5.92,5.92,0,0,0-2.29.21,45.06,45.06,0,0,1-55-32.76c-3.62-14.8-.33-28.19,9.18-40.07a30.37,30.37,0,0,0,6.94-18.77c0-1.88.67-2.43,2.53-2.31a12,12,0,0,1,4.07.9c.57.26.76.12,1-.46a28.53,28.53,0,0,0,1.72-7c.23-2,.84-2.52,2.9-2.21a12.66,12.66,0,0,1,7.82,4.54,26.94,26.94,0,0,0,3.87-7.75c.17-.52.3-1.06.47-1.58a1.79,1.79,0,0,1,2.55-1.34,12.43,12.43,0,0,1,7.78,6.41,1.08,1.08,0,0,0,1.32.7,24.67,24.67,0,0,1,9.63.83c.67.21,1,.08,1.18-.58.32-.94.73-1.84,1.13-2.75.6-1.4,1.47-1.7,2.81-1a36.88,36.88,0,0,1,11.39,9.47c.25.3.42.69.83.88a14.34,14.34,0,0,1,9.74-6.8,13.82,13.82,0,0,1,2.31-.24,1.7,1.7,0,0,1,2,1.84,34.58,34.58,0,0,0,8.3,21.81A46.37,46.37,0,0,1,316.62,539a5.18,5.18,0,0,0,.4,2.3Zm-52.45-44.53a1.84,1.84,0,0,1,.65,2.51c-.63,1.49-1.23,3-1.84,4.48a1.85,1.85,0,0,0-.26,1,12.53,12.53,0,0,1-.79,6.82c-.25.58,0,.61.47.72a16.08,16.08,0,0,1,7,3.42c.2.17.37.46.77.42a10.73,10.73,0,0,1,.34-3.15,14,14,0,0,1,11.43-10.9c.39-.08.73-.06.54-.65a13.88,13.88,0,0,1-.28-7,1.07,1.07,0,0,0-.25-.9,34.35,34.35,0,0,0-9.93-9.62c-.61-.38-.81-.27-1.06.37-.92,2.35-1.91,4.68-2.86,7a2,2,0,0,1-2.1,1.42c-1.34-.79-1.52-1.31-.94-2.79a13.47,13.47,0,0,1,.67-1.62c.4-.7.11-.93-.55-1.1a26.5,26.5,0,0,0-7.43-.66c-.77,0-.9.36-.86,1a12,12,0,0,1-1.48,6.79c-.31.54-.15.73.35.95a10.87,10.87,0,0,1,3.4,2.4c.63.66,1.21,1.35,1.84,2.06.28-.69.52-1.3.79-1.9A1.71,1.71,0,0,1,264.57,505.19Zm-19.65,86.18a3.3,3.3,0,0,0,.52.13A45.5,45.5,0,0,0,256,591a31,31,0,0,0,5.51-1.4c-.81-.11-1.42-.21-2.05-.28a44.11,44.11,0,0,1-21-8,9.57,9.57,0,0,0-2.95-1.42c-2.83-.82-5.66-1.26-8.52-.16a4.37,4.37,0,0,0-.62.17,1.74,1.74,0,0,1-2.34-.39c-.69-.89-.34-1.69.34-2.42a16.06,16.06,0,0,1,7.51-1.32c-1.18-1.44-2.3-2.67-3.29-4a44.6,44.6,0,0,1-8.43-35.94,41.27,41.27,0,0,1,1.77-6.47,1.68,1.68,0,1,1,3.18,1c-.05.17-.1.35-.16.53a41.44,41.44,0,0,0-.39,25.91,32.58,32.58,0,0,0,2.37,5.88c.13-.14.2-.19.21-.25,0-.25,0-.51.07-.77a19,19,0,0,1,6.37-12.57,1.63,1.63,0,0,1,2.45-.07,1.65,1.65,0,0,1-.21,2.51,20,20,0,0,0-1.89,2c-3.37,4.49-3.84,9.66-3.36,15a1.75,1.75,0,0,0,.44.88,42,42,0,0,0,36.92,16.66,6.44,6.44,0,0,0,3.59-1.2c1.83-1.35,3.76-2.58,5.59-3.94a13.42,13.42,0,0,0-13.47-23c-.84.36-1.67.66-2.45-.09s-.5-1.57-.13-2.43a13.32,13.32,0,0,0,.8-8.31,13.66,13.66,0,0,0-16.51-10.38,1.8,1.8,0,0,1-2-.53,1.77,1.77,0,0,1-.15-2,9.57,9.57,0,0,0,.35-6.9,1.84,1.84,0,0,1,.72-2.31c1.38-.36,2.05,0,2.47,1.39a11.57,11.57,0,0,1,.46,5.66c-.13.66-.07,1,.78,1a15.81,15.81,0,0,1,6.38,1c.28.1.6.33.9,0a19.51,19.51,0,0,1,4.9-4.18,12.32,12.32,0,0,0-9.73-2.83,2,2,0,0,1-2.1-.64,2,2,0,0,1,.09-2.18,8.62,8.62,0,0,0,.84-5.57,9.08,9.08,0,0,0-8.66-7.73,1.7,1.7,0,0,1-1.46-2.67c.12-.23.27-.44.39-.67a9.24,9.24,0,0,0-4.83-13.05c-.55-.2-.94-.36-1,.48a26.16,26.16,0,0,1-1.94,6.87.82.82,0,0,0,.22,1.11,13.15,13.15,0,0,1,4,13.34c-.13.57-.07.75.54.87a12.44,12.44,0,0,1,4.2,1.58c1.25.74,1.45,1.35.9,2.75a1.71,1.71,0,0,1-2.11.39,12,12,0,0,0-6.29-1.68A1.56,1.56,0,0,1,231.7,518c.12-.34.33-.65.46-1a10.16,10.16,0,0,0-7.61-13.95c-.11,1.11-.17,2.11-.32,3.09a36.08,36.08,0,0,1-7.87,17.33c-8,10-10.93,21.48-8.57,34.07a40.62,40.62,0,0,0,17.82,27A39.24,39.24,0,0,0,244.92,591.37Zm7.3-67.83c5.06.56,6.58,1.2,10.9,4.63a.71.71,0,0,0,.78.2,26.87,26.87,0,0,1,4.54-.87,12.45,12.45,0,0,0-8.58-3.73c-.85,0-1.67-.13-2.07-1a2.16,2.16,0,0,1,.48-2.24A9.33,9.33,0,0,0,253,506.17c-2.21-.6-2.53-1.64-1.07-3.45a9.38,9.38,0,0,0-2.73-14c-.54-.29-.81-.41-1.07.37A29.66,29.66,0,0,1,243.5,498a1.23,1.23,0,0,0-.23,1.29,12,12,0,0,1,0,8c-.19.56-.14.71.45.91C250.45,510.45,253.81,516.52,252.22,523.54Z" transform="translate(-96.16 -246.01)"/><path class="cls-38" d="M297,505.64c1.73,4.89,4.79,9,7.9,13a43.14,43.14,0,0,1,8.41,20.91,44.6,44.6,0,0,1-3.54,24.23,1.9,1.9,0,0,0,.59,2.71l-2.15,3.75c-1.33-.42-1.78-.26-2.6.89A44.77,44.77,0,0,1,280,589,49,49,0,0,1,269,590.44c.08-.44.47-.46.73-.6a65.14,65.14,0,0,0,9.81-6.54,16,16,0,0,0,5.8-9.26,1.63,1.63,0,0,1,.83-1.23c3.31-1.57,6.68-2.89,10.46-2.54a6,6,0,0,1,2.19.68,1.67,1.67,0,0,0,2.48-.55c.48-.88.17-1.76-.9-2.37-2.37-1.35-4.93-1.31-7.51-.93a5,5,0,0,1-1.56,0c.34-.45.64-.85.93-1.25a47.92,47.92,0,0,0,6.82-43.19,7.39,7.39,0,0,0-.29-.83,1.62,1.62,0,0,0-2.1-.93,1.59,1.59,0,0,0-1,2c.67,2.21,1.27,4.44,1.73,6.71a42.72,42.72,0,0,1-.49,18,5.42,5.42,0,0,1-.59-1.56,17.52,17.52,0,0,0-7.05-8.54c-1.08-.71-2-.57-2.59.33s-.28,1.74.76,2.43a13.73,13.73,0,0,1,6.31,8.94,14.7,14.7,0,0,1-1.91,11.22,58.66,58.66,0,0,1-5,6.76c-.33.38-.69.74-1.18,1.26a16.5,16.5,0,0,0-7.13-11.88c-4.07-2.85-8.63-3.54-13.61-2.6a18.52,18.52,0,0,0-.23-8.92,2.28,2.28,0,0,1,.51-1.09,15.78,15.78,0,0,1,6.85-5.37,14.63,14.63,0,0,1,8.16-1.14c1.25.23,2-.55,1.68-1.82a12.48,12.48,0,0,1,10.42-15.4c1.81-.24,2.15-.73,1.56-2.49a11.87,11.87,0,0,1,.85-9.68C295.32,507.15,295.7,506,297,505.64Z" transform="translate(-96.16 -246.01)"/><path class="cls-39" d="M244.2,525.12a1.84,1.84,0,0,0-.72,2.31,9.57,9.57,0,0,1-.35,6.9,1.77,1.77,0,0,0,.15,2,1.8,1.8,0,0,0,2,.53,13.66,13.66,0,0,1,16.51,10.38,13.32,13.32,0,0,1-.8,8.31c-.37.86-.66,1.67.13,2.43s1.61.45,2.45.09a13.42,13.42,0,0,1,13.47,23c-1.83,1.36-3.76,2.59-5.59,3.94a6.44,6.44,0,0,1-3.59,1.2A42,42,0,0,1,231,569.55a1.75,1.75,0,0,1-.44-.88c-.48-5.36,0-10.53,3.36-15a20,20,0,0,1,1.89-2,1.65,1.65,0,0,0,.21-2.51,1.63,1.63,0,0,0-2.45.07,19,19,0,0,0-6.37,12.57c0,.26,0,.52-.07.77,0,.06-.08.11-.21.25a32.58,32.58,0,0,1-2.37-5.88A41.44,41.44,0,0,1,224.9,531c.06-.18.11-.36.16-.53a1.68,1.68,0,1,0-3.18-1,41.27,41.27,0,0,0-1.77,6.47,44.6,44.6,0,0,0,8.43,35.94c1,1.33,2.11,2.56,3.29,4a16.06,16.06,0,0,0-7.51,1.32,53.26,53.26,0,0,1-6.15-10.42,44,44,0,0,1-3.39-15.38,43.1,43.1,0,0,1,.63-9,44.83,44.83,0,0,1,5.1-14.23,74.76,74.76,0,0,1,5.75-8.07,32.24,32.24,0,0,0,5.37-12,9.7,9.7,0,0,1,.53,9c-.13.34-.34.65-.46,1a1.56,1.56,0,0,0,1.42,2.27,12,12,0,0,1,6.29,1.68,1.71,1.71,0,0,0,2.11-.39A7.74,7.74,0,0,1,244.2,525.12Z" transform="translate(-96.16 -246.01)"/><path class="cls-38" d="M231.63,508.08a32.24,32.24,0,0,1-5.37,12,74.76,74.76,0,0,0-5.75,8.07,44.83,44.83,0,0,0-5.1,14.23,43.1,43.1,0,0,0-.63,9,44,44,0,0,0,3.39,15.38,53.26,53.26,0,0,0,6.15,10.42c-.68.73-1,1.53-.34,2.42a1.74,1.74,0,0,0,2.34.39,4.37,4.37,0,0,1,.62-.17,1.08,1.08,0,0,0,.16.28,41.39,41.39,0,0,0,13.19,9.33,40.91,40.91,0,0,1,4.63,2,39.24,39.24,0,0,1-19.31-6.82,40.62,40.62,0,0,1-17.82-27c-2.36-12.59.58-24.05,8.57-34.07a36.08,36.08,0,0,0,7.87-17.33c.15-1,.21-2,.32-3.09A9.64,9.64,0,0,1,231.63,508.08Z" transform="translate(-96.16 -246.01)"/><path class="cls-40" d="M297,505.64c-1.29.32-1.67,1.51-2.18,2.47a11.87,11.87,0,0,0-.85,9.68c.59,1.76.25,2.25-1.56,2.49A12.48,12.48,0,0,0,282,535.68c.32,1.27-.43,2.05-1.68,1.82a14.63,14.63,0,0,0-8.16,1.14,15.78,15.78,0,0,0-6.85,5.37,2.28,2.28,0,0,0-.51,1.09,17.62,17.62,0,0,0-6.38-8.78c-.59-.42-.12-.7.13-1a14.79,14.79,0,0,1,8.18-4.25,14.23,14.23,0,0,1,5.81.2,1.75,1.75,0,0,0,2.18-2.54c-2.88-7.57,2.26-15.14,10.33-15.09a1.88,1.88,0,0,0,1.77-2.88,10.84,10.84,0,0,1,6.68-15.4c1.4-.41,1.47-.41,1.56,1A36.58,36.58,0,0,0,297,505.64Z" transform="translate(-96.16 -246.01)"/><path class="cls-39" d="M266.36,501.22a2,2,0,0,0,2.1-1.42c1-2.35,1.94-4.68,2.86-7,.25-.64.45-.75,1.06-.37a34.35,34.35,0,0,1,9.93,9.62,1.07,1.07,0,0,1,.25.9,13.88,13.88,0,0,0,.28,7c.19.59-.15.57-.54.65a14,14,0,0,0-11.43,10.9,10.73,10.73,0,0,0-.34,3.15c-.4,0-.57-.25-.77-.42a16.08,16.08,0,0,0-7-3.42c-.49-.11-.72-.14-.47-.72a12.53,12.53,0,0,0,.79-6.82,1.85,1.85,0,0,1,.26-1c.61-1.5,1.21-3,1.84-4.48a1.84,1.84,0,0,0-.65-2.51,11.68,11.68,0,0,1,1-2.76C265.73,502,265.71,501.36,266.36,501.22Z" transform="translate(-96.16 -246.01)"/><path class="cls-41" d="M252.22,523.54c1.59-7-1.77-13.09-8.51-15.38-.59-.2-.64-.35-.45-.91a12,12,0,0,0,0-8,1.23,1.23,0,0,1,.23-1.29,29.66,29.66,0,0,0,4.61-8.85c.26-.78.53-.66,1.07-.37a9.38,9.38,0,0,1,2.73,14c-1.46,1.81-1.14,2.85,1.07,3.45a9.33,9.33,0,0,1,5.29,14.38,2.16,2.16,0,0,0-.48,2.24c.4.85,1.22,1,2.07,1a12.45,12.45,0,0,1,8.58,3.73,26.87,26.87,0,0,0-4.54.87.71.71,0,0,1-.78-.2C258.8,524.74,257.28,524.1,252.22,523.54Z" transform="translate(-96.16 -246.01)"/><path class="cls-42" d="M244.2,525.12a7.74,7.74,0,0,0-2.68-3.53c.55-1.4.35-2-.9-2.75a12.44,12.44,0,0,0-4.2-1.58c-.61-.12-.67-.3-.54-.87a13.15,13.15,0,0,0-4-13.34.82.82,0,0,1-.22-1.11,26.16,26.16,0,0,0,1.94-6.87c.11-.84.5-.68,1-.48a9.24,9.24,0,0,1,4.83,13.05c-.12.23-.27.44-.39.67a1.7,1.7,0,0,0,1.46,2.67,9.08,9.08,0,0,1,8.66,7.73,8.62,8.62,0,0,1-.84,5.57,2,2,0,0,0-.09,2.18,2,2,0,0,0,2.1.64,12.32,12.32,0,0,1,9.73,2.83,19.51,19.51,0,0,0-4.9,4.18c-.3.37-.62.14-.9,0a15.81,15.81,0,0,0-6.38-1c-.85,0-.91-.3-.78-1a11.57,11.57,0,0,0-.46-5.66C246.25,525.12,245.58,524.76,244.2,525.12Z" transform="translate(-96.16 -246.01)"/><path class="cls-41" d="M244.92,591.37a40.91,40.91,0,0,0-4.63-2,41.39,41.39,0,0,1-13.19-9.33,1.08,1.08,0,0,1-.16-.28c2.86-1.1,5.69-.66,8.52.16a9.57,9.57,0,0,1,2.95,1.42,44.11,44.11,0,0,0,21,8c.63.07,1.24.17,2.05.28A31,31,0,0,1,256,591a45.5,45.5,0,0,1-10.56.47A3.3,3.3,0,0,1,244.92,591.37Z" transform="translate(-96.16 -246.01)"/><path class="cls-43" d="M266.36,501.22c-.65.14-.63.78-.79,1.21a11.68,11.68,0,0,0-1,2.76,1.71,1.71,0,0,0-2.42,1.19c-.27.6-.51,1.21-.79,1.9-.63-.71-1.21-1.4-1.84-2.06a10.87,10.87,0,0,0-3.4-2.4c-.5-.22-.66-.41-.35-.95a12,12,0,0,0,1.48-6.79c0-.67.09-1,.86-1a26.5,26.5,0,0,1,7.43.66c.66.17.95.4.55,1.1a13.47,13.47,0,0,0-.67,1.62C264.84,499.91,265,500.43,266.36,501.22Z" transform="translate(-96.16 -246.01)"/></svg>