<svg id="Layer_1" data-name="Layer 1" xmlns="http://www.w3.org/2000/svg" viewBox="0 0 360.03 355.77"><defs><style>.cls-1{fill:#a9dce8;}.cls-2{fill:#070c0a;}.cls-3{fill:#76cddd;}.cls-4{fill:#9acc7a;}.cls-5{fill:#85c562;}.cls-6{fill:#84c461;}.cls-7{fill:#fbe15a;}.cls-8{fill:#4bc3d6;}</style></defs><title>globe</title><path class="cls-1" d="M472.19,436.1q.09-2.72.09-5.43c0-.82,0-1.63,0-2.44a73,73,0,0,0-.33-8.75C466.14,328.24,390.33,256,297.64,256a174.65,174.65,0,1,0,35.61,345.65c.14.34.29.69.43,1.08l1.37-.83h0c3.39.14,6.44-1.58,9.78-1.74-.17-.4-.32-.8-.48-1.2a173.9,173.9,0,0,0,44-19.06V581l8.95-5.9,3.73-2.38-.5-.93A174.42,174.42,0,0,0,472.12,437.9l.12,0Z" transform="translate(-116.68 -255.97)"/><path class="cls-2" d="M179.8,416c2.57,1.19,5.41.64,8.09,1.33,9,2.3,14.76,7.84,17.42,16.69a23.89,23.89,0,0,1,.75,2.88,29.4,29.4,0,0,0,12.77,20.42c9,6.41,11.33,16,8,26.62q-3,9.58-6.21,19.11c-1.49,4.5-2.87,8.93-2.43,13.83s-1.76,8.94-4,13c-3.92,4.53-8.49,8.52-14.57,9-9.19.73-16.13,6-23.86,10.13a12,12,0,0,0,1,1.36,171.3,171.3,0,0,0,48.91,34.48,169.36,169.36,0,0,0,63,15.52c6.06.32,12.19.79,18.25-.44,6.4.25,12.65-1,18.94-1.84,4.54-.6,6.23.31,7.85,4.72.06,4.21-2.48,6-6.23,6.55a190.57,190.57,0,0,1-53,1.08c-27.14-3.37-52.27-12.23-75.08-27.24-41.59-27.38-68.49-65.29-78.76-114.1-17.92-85.17,26.21-169.23,106.22-203.57a180.16,180.16,0,0,1,27.22-9c5.14-1.29,7.31,0,9,5-.65,3.48-2.78,5.22-6.21,6A169.85,169.85,0,0,0,196.12,296c-2.28,1.66-2.35,2.59-.08,4.21,7.54,5.4,10.8,12.78,9.91,22a43.54,43.54,0,0,0,.12,5.23c-.43,6-.13,11.71,2.5,17.43,3.78,8.2,1.27,16.43-6,21.8-5.47,4-10.53,8.82-17.48,10.37-5.41.19-10.34-1-14.56-4.63s-5.66-3.94-10.64-1.16-10.1,4.07-15.77,2.92c-1.33-.28-2.75-.07-4.11-.26-1.52-.21-2.17.45-2.64,1.82A181.43,181.43,0,0,0,129.53,408c-.31,2,.14,2.79,2.36,3,8.3.79,16.58,1.88,24.87,2.76C164.44,414.53,172.12,415.22,179.8,416Zm11.95-55.45c7.9-5.1,8.62-7.1,5.13-14.21s-2.46-14.7-2.1-22.06c.34-7.11-1.39-12.52-7.38-16.74-2.21-1.56-3.22-1.77-5.16.05a173.31,173.31,0,0,0-31.08,38.63,125.41,125.41,0,0,0-8.32,16.24c6.83,1.4,6.83,1.4,12.67-1.63q11.51-6,21.2,2c4.82,4,6.44,4.05,11.52.43C189.44,362.37,190.58,361.41,191.75,360.5Zm14.87,158.22c-.5-8.92,2.37-17.14,5.26-25.36.91-2.57,1.62-5.21,2.45-7.82,4.24-13.29,3.81-14.91-7.19-23.32A26.18,26.18,0,0,1,197.06,447c-.54-2.3-1.1-4.59-1.7-6.87-2.5-9.43-5.67-11.93-15.49-12.25a9.39,9.39,0,0,0-1.76-.54c-15.74-1.72-31.49-3.36-47.22-5.19-2.68-.31-2.83.86-2.87,2.88a188,188,0,0,0,2.09,32.84A165.1,165.1,0,0,0,164,535.75c3.68,4.69,3.72,4.64,9,1.71,7.48-4.18,14.68-8.91,23.64-9.67C202,527.34,205.37,524.05,206.62,518.72Z" transform="translate(-116.68 -255.97)"/><path class="cls-3" d="M251.76,276.24c-1.75,1.4-3.44,2.87-5.18,4.28-16.33,13.22-29.36,29.3-40.51,47a43.54,43.54,0,0,1-.12-5.23c.89-9.26-2.37-16.64-9.91-22-2.27-1.62-2.2-2.55.08-4.21a169.85,169.85,0,0,1,60.74-28.49" transform="translate(-116.68 -255.97)"/><path class="cls-2" d="M472.24,437.88c3.65,1.51,4.78,4.26,4.41,8.08q-7.47,76.37-66.25,125.65c-3,2.51-5.89,3.69-9.35,1.09-2.54-4.52-2.22-6.38,2.06-9.84a177.61,177.61,0,0,0,25.35-25.35c1.44-1.74,1.39-2.81-.12-4.36Q423,527.63,418,521.87a12.16,12.16,0,0,1-.65-15.78,6.12,6.12,0,0,0,1.26-5.78c-1.5-6.62,0-12.22,5.74-16.5,4.39-3.27,8.45-7,12.66-10.5a13.25,13.25,0,0,1,9.65-3.26c3.85.26,7.73.35,11.56.82,2.47.31,3.16-.65,3.65-2.89,1.69-7.8,2.62-15.69,3.55-23.6C465.94,439.47,467.07,438.43,472.24,437.88ZM447,481.44c-1.45-.48-2.51.31-3.6,1.25a132.89,132.89,0,0,1-10.64,8.81c-3.08,2.12-3.73,4.55-2.91,7.91,1.08,4.46.57,8.69-2.59,12.25-1.25,1.41-1.23,2.48.07,3.82,2.51,2.6,5,5.22,7.3,8,1.73,2.09,2.6,2.13,4.16-.32a177.72,177.72,0,0,0,17.73-36.41c1.62-4.6,1.56-4.59-3.49-4.82C451,481.85,449,481.62,447,481.44Z" transform="translate(-116.68 -255.97)"/><path class="cls-3" d="M306.89,599.87c-6.06,1.23-12.19.76-18.25.44a169.36,169.36,0,0,1-63-15.52,171.3,171.3,0,0,1-48.91-34.48,12,12,0,0,1-1-1.36c7.73-4.11,14.67-9.4,23.86-10.13,6.08-.49,10.65-4.48,14.57-9,2.68,6,7.24,10.68,11.43,15.54a187,187,0,0,0,45.68,38.15A196.32,196.32,0,0,0,306.89,599.87Z" transform="translate(-116.68 -255.97)"/><path class="cls-3" d="M179.8,416c-7.68-.73-15.36-1.42-23-2.23-8.29-.88-16.57-2-24.87-2.76-2.22-.21-2.67-1-2.36-3a181.43,181.43,0,0,1,7.82-32.17c.47-1.37,1.12-2,2.64-1.82,1.36.19,2.78,0,4.11.26,5.67,1.15,10.8-.13,15.77-2.92s6.28-2.58,10.64,1.16,9.15,4.82,14.56,4.63c-1,6-2,11.93-3.09,17.87C180.67,401.91,180.84,409,179.8,416Z" transform="translate(-116.68 -255.97)"/><path class="cls-2" d="M320.71,537.45c2.5,4.86,1.52,7.87-3.47,9.65-4.64,1.65-9.14,4-14.37,3.37a18.13,18.13,0,0,1-5.38-1.42c-7.88-3.69-15.81-7.28-23.62-11.1-8.25-4-11.39-11.83-8.72-21,2.59-8.94,9.35-13.67,18.45-12.69,3.2.35,5.16-1.4,7.09-3.39,3.53-3.66,7.31-6.76,12.72-7.1,4.14-.27,8.1.42,11.23,3.1A115.64,115.64,0,0,1,325,507.09c2.3,2.55,1.71,5.21-1.27,8.58-3.2,1.37-5.74.45-8-2s-4.46-4.72-6.84-6.92-5.49-2.26-8,0c-1.48,1.33-2.83,2.82-4.31,4.15a17.38,17.38,0,0,1-13.34,4.69c-4.33-.32-6.36.9-7.37,4.52-1.11,4-.06,6.32,3.8,8.16,5.28,2.52,10.77,4.63,15.81,7.55,5.86,3.39,11.49,4.11,17.56.89A6.5,6.5,0,0,1,320.71,537.45Z" transform="translate(-116.68 -255.97)"/><path class="cls-4" d="M320.71,537.45a6.5,6.5,0,0,0-7.66-.78c-6.07,3.22-11.7,2.5-17.56-.89-5-2.92-10.53-5-15.81-7.55-3.86-1.84-4.91-4.16-3.8-8.16,1-3.62,3-4.84,7.37-4.52a17.38,17.38,0,0,0,13.34-4.69c1.48-1.33,2.83-2.82,4.31-4.15,2.52-2.27,5.52-2.32,8,0s4.66,4.52,6.84,6.92,4.81,3.42,8,2a1.25,1.25,0,0,1,.27.24C330.31,525.88,332.45,526.59,320.71,537.45Z" transform="translate(-116.68 -255.97)"/><path class="cls-5" d="M206.62,518.72c-1.25,5.33-4.63,8.62-10,9.07-9,.76-16.16,5.49-23.64,9.67-5.24,2.93-5.28,3-9-1.71a165.1,165.1,0,0,1-33.9-77.89A188,188,0,0,1,128,425c0-2,.19-3.19,2.87-2.88,15.73,1.83,31.48,3.47,47.22,5.19a9.39,9.39,0,0,1,1.76.54c-.65,2.89.65,5.64.63,8.49-.07,7.35,1.44,14.52,2.67,21.7a176,176,0,0,0,13.44,42.45C199.45,506.82,202.32,513.18,206.62,518.72Z" transform="translate(-116.68 -255.97)"/><path class="cls-6" d="M191.75,360.5c-1.17.91-2.31,1.87-3.52,2.73-5.08,3.62-6.7,3.55-11.52-.43q-9.68-8-21.2-2c-5.84,3-5.84,3-12.67,1.63a125.41,125.41,0,0,1,8.32-16.24,173.31,173.31,0,0,1,31.08-38.63c1.94-1.82,2.95-1.61,5.16-.05,6,4.22,7.72,9.63,7.38,16.74-.36,7.36-1.35,15,2.1,22.06-.89,1.63-2.09,3.17-2.6,4.91C193.36,354.27,190.92,357,191.75,360.5Z" transform="translate(-116.68 -255.97)"/><path class="cls-4" d="M206.62,518.72c-4.3-5.54-7.17-11.9-10-18.21a176,176,0,0,1-13.44-42.45c-1.23-7.18-2.74-14.35-2.67-21.7,0-2.85-1.28-5.6-.63-8.49,9.82.32,13,2.82,15.49,12.25.6,2.28,1.16,4.57,1.7,6.87a26.18,26.18,0,0,0,10.08,15.23c11,8.41,11.43,10,7.19,23.32-.83,2.61-1.54,5.25-2.45,7.82C209,501.58,206.12,509.8,206.62,518.72Z" transform="translate(-116.68 -255.97)"/><path class="cls-4" d="M191.75,360.5c-.83-3.54,1.61-6.23,2.53-9.3.51-1.74,1.71-3.28,2.6-4.91C200.37,353.4,199.65,355.4,191.75,360.5Z" transform="translate(-116.68 -255.97)"/><path class="cls-4" d="M447,481.44c2.06.18,4,.41,6,.5,5.05.23,5.11.22,3.49,4.82a177.72,177.72,0,0,1-17.73,36.41c-1.56,2.45-2.43,2.41-4.16.32-2.29-2.79-4.79-5.41-7.3-8-1.3-1.34-1.32-2.41-.07-3.82,3.16-3.56,3.67-7.79,2.59-12.25-.82-3.36-.17-5.79,2.91-7.91a132.89,132.89,0,0,0,10.64-8.81C444.45,481.75,445.51,481,447,481.44Z" transform="translate(-116.68 -255.97)"/><path class="cls-7" d="M344.17,258.27l-1.61.26C343,257.79,343.54,257.76,344.17,258.27Z" transform="translate(-116.68 -255.97)"/><path class="cls-8" d="M319.13,421.32l.89.65Z" transform="translate(-116.68 -255.97)"/></svg>