<svg id="Layer_1" data-name="Layer 1" xmlns="http://www.w3.org/2000/svg" viewBox="0 0 349.87 349.87"><defs><style>.cls-1{fill:#e4f5fa;}.cls-2{fill:#f05656;}.cls-3{fill:#110c07;}.cls-4{fill:#f59225;}.cls-5{fill:#0d0707;}.cls-6{fill:#0d0403;}.cls-7{fill:#0e0504;}.cls-8{fill:#fcd72e;}.cls-9{fill:#126aaf;}.cls-10{fill:#57c9e9;}.cls-11{fill:#f7d22f;}.cls-12{fill:#ee8e25;}.cls-13{fill:#0f0701;}.cls-14{fill:#0b0602;}.cls-15{fill:#dfeaed;}.cls-16{fill:#dfebee;}</style></defs><title>Grocery </title><rect class="cls-1" width="349.87" height="349.87" rx="23.29"/><path class="cls-2" d="M326.57,756.53H313.48c-.51-3.21-2.54-4.09-5.57-4.09q-47,.09-94,0c-4.33,0-8.67,0-13,0-3.51-.05-6.09-2.12-6.63-5.28-.32-1.9-.44-3.83-.64-5.74q-1.85-17.65-3.69-35.3c-1.26-11.86-2.57-23.72-3.83-35.58s-2.41-23.53-3.69-35.3c-.42-3.8-.54-3.79,3.15-3.79H410a11.68,11.68,0,0,0,1.45,0c1.69-.2,2.14.49,2,2.15-1.78,16.35-3.48,32.71-5.23,49.06q-3.37,31.43-6.79,62.83c-.53,5-2.68,7-7.68,7-9.54,0-19.08.1-28.62-.05-3.18,0-5.19,1-5.91,4.13l-13.87,0c-.52-2.93-2.26-4.2-5.23-4.08s-5.73.08-8.6,0S326.94,753.67,326.57,756.53ZM225.43,691.79q0,16,0,32.05a13.57,13.57,0,0,0,.36,4,11.16,11.16,0,0,0,12.13,8c6-.82,10-5.38,10-11.78q.08-32.19,0-64.39c0-6.91-5-12-11.48-11.87s-11,5.1-11,11.92C225.41,670.42,225.43,681.1,225.43,691.79Zm81.54.13q0,15.9,0,31.8a13.65,13.65,0,0,0,.33,4,11.29,11.29,0,0,0,22.14-3.32q.12-32.38,0-64.76c0-6.94-5.06-11.95-11.53-11.85a11.59,11.59,0,0,0-11,12C307.17,670.52,307,681.23,307,691.92Zm63.14-.12q0-15.75,0-31.48a14.79,14.79,0,0,0-.34-4.29,11.45,11.45,0,0,0-12.11-8.17c-5.84.69-10,5.51-10,11.82q-.06,32.05,0,64.11c0,7.05,5,12.35,11.44,12.22s11-5,11.07-12.16C370.13,713.16,370.11,702.48,370.11,691.8Zm-81.55.28q0-15.9,0-31.8a14.12,14.12,0,0,0-.36-4.29A11.43,11.43,0,0,0,276,647.86c-5.84.75-9.95,5.57-10,11.92q-.06,32.1,0,64.19c0,6.89,5,12.1,11.35,12,6.57-.06,11.12-5,11.14-12.12C288.58,713.28,288.56,702.68,288.56,692.08Z" transform="translate(-122.83 -410.74)"/><path class="cls-3" d="M359.14,756.54c.72-3.17,2.73-4.18,5.91-4.13,9.54.15,19.08.06,28.62.05,5,0,7.15-2,7.68-7q3.38-31.41,6.79-62.83c1.75-16.35,3.45-32.71,5.23-49.06.18-1.66-.27-2.35-2-2.15a11.68,11.68,0,0,1-1.45,0H185.62c-3.69,0-3.57,0-3.15,3.79,1.28,11.77,2.45,23.54,3.69,35.3s2.57,23.72,3.83,35.58,2.46,23.53,3.69,35.3c.2,1.91.32,3.84.64,5.74.54,3.16,3.12,5.23,6.63,5.28,4.33.06,8.67,0,13,0q47,0,94,0c3,0,5.06.88,5.57,4.09-.42,2.84-2,4.08-4.94,4.07q-54.18,0-108.37,0a14.23,14.23,0,0,1-14-12.47q-3.83-35.87-7.59-71.73c-1.51-14.34-3.08-28.68-4.54-43-.16-1.57-.78-1.93-2.17-1.86-1.63.09-3.28,0-4.91,0-3.66-.07-5.09-1.47-5.1-5.06q0-10,0-19.94a13.24,13.24,0,0,1,13.19-13.54c5.68-.13,11.37-.11,17.05,0,1.8,0,2.19-.47,2.25-2.23A162,162,0,0,1,197.6,563c.63-3,2.28-4.28,5.2-4.21,2.85,1.47,3.34,3.65,2.68,6.74a169.89,169.89,0,0,0-3,25.17c-.11,1.82.44,2.28,2.21,2.27q26.15-.09,52.28,0c1.65,0,2.13-.48,2.1-2.11-.1-4.43,0-8.86,0-13.29s1.05-8.94,3.92-12.41a7,7,0,0,0,1.26-7.59c-.23-.63-.37-1.29-.57-1.93-3.05-10.08-6.72-19.89-13.91-27.86-9.49-10.52-19.81-10.18-28.8.78a59.42,59.42,0,0,0-8.86,15.11c-1.05,2.55-2.81,3.82-5.66,3.1-2.14-1.15-3.22-3-2.28-5.26,3.67-9.09,8.35-17.58,16.21-23.78,11.47-9.05,24.7-7.47,35.13,4,8.35,9.2,12.85,20.37,16.19,32.1.6,2.12,1.09,3.55,3.58,2.07a4.68,4.68,0,0,1,1.1-.3c4.6-1.18,4.6-1.18,4.6-6.16,0-6.46,0-12.92,0-19.37,0-1.26-.14-2.11-1.53-2.65-1.82-.69-2.39-2.36-2.39-4.23,0-9.92,0-19.85,0-29.78,0-3.11,1.57-4.63,4.62-4.64q16,0,32.09,0c3.2,0,4.74,1.52,4.75,4.81.05,9.83,0,19.66,0,29.49,0,1.86-.5,3.6-2.28,4.3-1.53.6-1.66,1.52-1.65,2.87,0,7.52.05,15,0,22.55,0,1.48.24,2.31,1.95,2.42a19.42,19.42,0,0,1,11.05,4.44c1.3,1.05,1.89.61,2.78-.35a20,20,0,0,0,5.35-13.91c0-1.17-.29-1.64-1.52-1.89-2.52-.53-3.55-2.24-3.49-4.85.11-4.72,0-9.45,0-14.17,0-3.22,1.31-4.71,4.47-4.73q24.59-.09,49.15,0c2.94,0,4.53,1.54,4.6,4.44.12,4.91.07,9.82,0,14.74,0,2.38-1.15,4.19-3.58,4.55-1.55.23-1.5,1-1.5,2.12a19.12,19.12,0,0,0,6.75,15c4.93,4.39,8.61,9.53,10,16.1,1,4.58.53,9.21.54,13.82,0,1.82.39,2.45,2.35,2.4,5.39-.14,10.79-.09,16.19,0,8.27.08,13.88,5.77,13.9,14,0,6.56,0,13.11,0,19.66,0,3.28-1.44,4.73-4.7,4.88h-.58c-6.83.1-6.73.11-7.43,6.9-1.85,18-3.8,36-5.71,54q-2.94,27.7-5.86,55.4a14.26,14.26,0,0,1-14.26,12.82c-10.12,0-20.24-.07-30.36.06C361.66,760.66,359.8,759.57,359.14,756.54ZM297.77,623.18h71.71c17.73,0,35.47-.06,53.2.06,2.49,0,3.05-.71,2.95-3-.2-4.33,0-8.67-.07-13,0-3.89-1.93-5.85-5.78-6.1-.67,0-1.35,0-2,0h-240c-.68,0-1.35,0-2,0-3.85.24-5.74,2.22-5.78,6.1,0,4.24.15,8.49-.06,12.72-.13,2.57.52,3.35,3.24,3.34Q235.46,623.11,297.77,623.18Zm0-30.28c9.35,0,18.69-.08,28,.05,2.22,0,2.78-.62,2.67-2.74a97.51,97.51,0,0,1,0-10.4c.59-10.55-7.21-17.36-16.21-16.61-4.41.37-5.76-1.34-5.77-5.87,0-8.86-.06-17.73.05-26.58,0-2.06-.36-2.9-2.64-2.78-4,.2-8.1.19-12.13,0-2.21-.1-2.73.59-2.7,2.73.12,9.15.07,18.3,0,27.45,0,3.42-1.47,4.93-4.85,5.11-1,0-1.93,0-2.89,0a13.9,13.9,0,0,0-13.72,11.33c-1.06,5.14-.13,10.38-.52,15.55-.18,2.41.77,2.81,2.92,2.78C279.25,592.84,288.5,592.9,297.74,592.9Zm67.09.05c8.67,0,17.33,0,26,0,.85,0,2.27.73,2.35-1.14.44-9.5.16-18.58-8.23-25.43-6.25-5.1-9.26-12.16-9.11-20.32,0-2.15-.76-2.48-2.65-2.46q-13.43.13-26.86,0c-1.81,0-2.42.38-2.45,2.34-.08,5.88-1.36,11.68-5.35,16.05-3.27,3.58-4.3,6.63-2.71,11.43,1.82,5.49.53,11.46.64,17.22,0,1.86.48,2.41,2.38,2.39C347.51,592.89,356.17,593,364.83,593Zm-67.07-96.09c-3.46,0-6.93.06-10.39,0-1.53,0-2.23.25-2.2,2q.15,9.39,0,18.77c0,1.83.65,2.27,2.35,2.25q10.25-.12,20.5,0c1.71,0,2.37-.43,2.34-2.26-.09-6.25-.1-12.51,0-18.76,0-1.78-.69-2.06-2.21-2C304.7,496.92,301.23,496.86,297.76,496.86Zm61.61,38.58c5.68,0,11.37,0,17.05,0,4.84,0,4.16.67,4.23-4.35a1.4,1.4,0,0,1,0-.29c.41-2.3-.6-2.87-2.84-2.85-11.36.12-22.73.06-34.09.06-5,0-4.89,0-4.94,5,0,1.87.46,2.49,2.39,2.46C347.24,535.37,353.31,535.44,359.37,535.44Z" transform="translate(-122.83 -410.74)"/><path class="cls-4" d="M206.4,546.74c2.85.72,4.61-.55,5.66-3.1a59.42,59.42,0,0,1,8.86-15.11c9-11,19.31-11.3,28.8-.78,7.19,8,10.86,17.78,13.91,27.86.2.64.34,1.3.57,1.93a7,7,0,0,1-1.26,7.59C260.07,568.6,259,573,259,577.54s-.06,8.86,0,13.29c0,1.63-.45,2.11-2.1,2.11q-26.14-.09-52.28,0c-1.77,0-2.32-.45-2.21-2.27a169.89,169.89,0,0,1,3-25.17c.66-3.09.17-5.27-2.68-6.74A104.46,104.46,0,0,1,206.4,546.74ZM235.6,582c4.62,0,9.25,0,13.87,0,3.05,0,4.93-1.66,4.88-4.09s-2-4-5-4q-13.58-.06-27.16,0c-3.15,0-4.88,1.49-4.93,4-.06,2.73,1.57,4.09,5,4.11C226.74,582,231.17,582,235.6,582Zm.18-19.12c4.52,0,9.05,0,13.58,0,3.07,0,5-1.56,5-4s-1.93-4.14-4.89-4.15q-13.72,0-27.44,0c-3.07,0-4.79,1.62-4.75,4.21s1.59,3.88,4.64,3.91C226.54,562.89,231.16,562.86,235.78,562.87Z" transform="translate(-122.83 -410.74)"/><path class="cls-5" d="M326.57,756.53c.37-2.86,2-4.15,4.87-4.08s5.74.11,8.6,0,4.71,1.15,5.23,4.08c-.46,2.78-2,4.16-4.92,4.07s-5.94-.08-8.91,0S326.91,759.42,326.57,756.53Z" transform="translate(-122.83 -410.74)"/><path class="cls-6" d="M225.43,691.79c0-10.69,0-21.37,0-32,0-6.82,4.7-11.84,11-11.92s11.46,5,11.48,11.87q.08,32.19,0,64.39c0,6.4-4,11-10,11.78a11.16,11.16,0,0,1-12.13-8,13.57,13.57,0,0,1-.36-4Q225.43,707.81,225.43,691.79Zm8.12.18c0,10.49,0,21,0,31.46,0,2.21.2,4.2,3,4.22s3.22-1.94,3.22-4.14q0-31.6,0-63.21c0-2.24-.58-4.27-3.14-4.29s-3.16,1.88-3.15,4.21C233.58,670.81,233.55,681.39,233.55,692Z" transform="translate(-122.83 -410.74)"/><path class="cls-7" d="M307,691.92c0-10.69.2-21.4-.07-32.09a11.59,11.59,0,0,1,11-12c6.47-.1,11.51,4.91,11.53,11.85q.1,32.37,0,64.76a11.29,11.29,0,0,1-22.14,3.32,13.65,13.65,0,0,1-.33-4Q307,707.82,307,691.92Zm8.12.08c0,10.5,0,21,0,31.5,0,2.22.28,4.21,3.06,4.21s3.2-2,3.2-4.19q0-31.63,0-63.27c0-2.24-.53-4.25-3.16-4.25s-3.12,1.91-3.11,4.23C315.12,670.82,315.09,681.41,315.09,692Z" transform="translate(-122.83 -410.74)"/><path class="cls-7" d="M370.11,691.8c0,10.68,0,21.36,0,32.05,0,7.14-4.51,12-11.07,12.16s-11.43-5.17-11.44-12.22q0-32.06,0-64.11c0-6.31,4.21-11.13,10-11.82A11.45,11.45,0,0,1,369.76,656a14.79,14.79,0,0,1,.34,4.29Q370.13,676.05,370.11,691.8ZM362,692c0-10.59,0-21.19,0-31.79,0-2.31-.52-4.21-3.12-4.21s-3.17,2-3.17,4.24q0,31.65,0,63.29c0,2.22.51,4.2,3.21,4.19s3.07-2,3.06-4.22C362,713,362,702.5,362,692Z" transform="translate(-122.83 -410.74)"/><path class="cls-7" d="M288.56,692.08c0,10.6,0,21.2,0,31.8,0,7.13-4.57,12.06-11.14,12.12-6.34.07-11.34-5.14-11.35-12q-.07-32.1,0-64.19c0-6.35,4.12-11.17,10-11.92A11.43,11.43,0,0,1,288.19,656a14.12,14.12,0,0,1,.36,4.29Q288.58,676.18,288.56,692.08Zm-8.11,0c0-10.6,0-21.2,0-31.8,0-2.3-.49-4.22-3.1-4.24s-3.17,2-3.17,4.24q0,31.65,0,63.31c0,2.2.4,4.18,3.18,4.18s3.08-1.94,3.08-4.18C280.43,713.05,280.45,702.55,280.45,692Z" transform="translate(-122.83 -410.74)"/><path class="cls-8" d="M297.77,623.18q-62.31,0-124.62.06c-2.72,0-3.37-.77-3.24-3.34.21-4.23,0-8.48.06-12.72,0-3.88,1.93-5.86,5.78-6.1.67,0,1.34,0,2,0h240c.67,0,1.35,0,2,0,3.85.25,5.74,2.21,5.78,6.1,0,4.34-.13,8.68.07,13,.1,2.34-.46,3.07-2.95,3-17.73-.12-35.47-.06-53.2-.06Z" transform="translate(-122.83 -410.74)"/><path class="cls-9" d="M297.74,592.9c-9.24,0-18.49-.06-27.73,0-2.15,0-3.1-.37-2.92-2.78.39-5.17-.54-10.41.52-15.55a13.9,13.9,0,0,1,13.72-11.33c1,0,1.93,0,2.89,0,3.38-.18,4.84-1.69,4.85-5.11,0-9.15.08-18.3,0-27.45,0-2.14.49-2.83,2.7-2.73,4,.19,8.09.2,12.13,0,2.28-.12,2.66.72,2.64,2.78-.11,8.85-.05,17.72-.05,26.58,0,4.53,1.36,6.24,5.77,5.87,9-.75,16.8,6.06,16.21,16.61a97.51,97.51,0,0,0,0,10.4c.11,2.12-.45,2.78-2.67,2.74C316.43,592.82,307.09,592.9,297.74,592.9Z" transform="translate(-122.83 -410.74)"/><path class="cls-10" d="M364.83,593c-8.66,0-17.32-.06-26,0-1.9,0-2.35-.53-2.38-2.39-.11-5.76,1.18-11.73-.64-17.22-1.59-4.8-.56-7.85,2.71-11.43,4-4.37,5.27-10.17,5.35-16.05,0-2,.64-2.36,2.45-2.34q13.44.13,26.86,0c1.89,0,2.69.31,2.65,2.46-.15,8.16,2.86,15.22,9.11,20.32,8.39,6.85,8.67,15.93,8.23,25.43-.08,1.87-1.5,1.13-2.35,1.14C382.16,593,373.5,593,364.83,593Z" transform="translate(-122.83 -410.74)"/><path class="cls-11" d="M297.76,496.86c3.47,0,6.94.06,10.4,0,1.52,0,2.24.24,2.21,2-.11,6.25-.1,12.51,0,18.76,0,1.83-.63,2.28-2.34,2.26q-10.25-.12-20.5,0c-1.7,0-2.38-.42-2.35-2.25q.15-9.39,0-18.77c0-1.77.67-2.06,2.2-2C290.83,496.92,294.3,496.86,297.76,496.86Z" transform="translate(-122.83 -410.74)"/><path class="cls-12" d="M359.37,535.44c-6.06,0-12.13-.07-18.2,0-1.93,0-2.41-.59-2.39-2.46.05-5,0-5,4.94-5,11.36,0,22.73.06,34.09-.06,2.24,0,3.25.55,2.84,2.85a1.4,1.4,0,0,0,0,.29c-.07,5,.61,4.31-4.23,4.35C370.74,535.47,365.05,535.44,359.37,535.44Z" transform="translate(-122.83 -410.74)"/><path class="cls-13" d="M235.6,582c-4.43,0-8.86,0-13.29,0-3.47,0-5.1-1.38-5-4.11,0-2.55,1.78-4,4.93-4q13.58,0,27.16,0c3,0,4.94,1.64,5,4s-1.83,4.06-4.88,4.09C244.85,582,240.22,582,235.6,582Z" transform="translate(-122.83 -410.74)"/><path class="cls-14" d="M235.78,562.86c-4.62,0-9.24,0-13.87,0-3,0-4.6-1.38-4.64-3.91s1.68-4.19,4.75-4.21q13.72-.06,27.44,0c3,0,4.92,1.75,4.89,4.15s-1.92,4-5,4C244.83,562.89,240.3,562.87,235.78,562.86Z" transform="translate(-122.83 -410.74)"/><path class="cls-15" d="M233.55,692c0-10.58,0-21.16,0-31.75,0-2.33.6-4.22,3.15-4.21s3.14,2,3.14,4.29q0,31.61,0,63.21c0,2.2-.45,4.16-3.22,4.14s-3-2-3-4.22C233.57,713,233.55,702.46,233.55,692Z" transform="translate(-122.83 -410.74)"/><path class="cls-15" d="M315.09,692c0-10.59,0-21.18,0-31.77,0-2.32.51-4.22,3.11-4.23s3.16,2,3.16,4.25q0,31.63,0,63.27c0,2.2-.48,4.19-3.2,4.19s-3.07-2-3.06-4.21C315.11,713,315.09,702.5,315.09,692Z" transform="translate(-122.83 -410.74)"/><path class="cls-16" d="M362,692c0,10.5,0,21,0,31.5,0,2.24-.31,4.22-3.06,4.22s-3.21-2-3.21-4.19q0-31.65,0-63.29c0-2.24.55-4.24,3.17-4.24s3.14,1.9,3.12,4.21C362,670.81,362,681.41,362,692Z" transform="translate(-122.83 -410.74)"/><path class="cls-15" d="M280.45,692c0,10.51,0,21,0,31.51,0,2.24-.27,4.18-3.08,4.18s-3.18-2-3.18-4.18q0-31.66,0-63.31c0-2.24.54-4.25,3.17-4.24s3.12,1.94,3.1,4.24C280.41,670.84,280.45,681.44,280.45,692Z" transform="translate(-122.83 -410.74)"/></svg>