<svg id="Layer_1" data-name="Layer 1" xmlns="http://www.w3.org/2000/svg" viewBox="0 0 89.75 87.78"><title>hide</title><path d="M408,432l15-16.85c3.39,3.83,6.41,6.93,9,10.36.8,1.07.75,3.1.47,4.58-2.61,14.16,9.81,27.14,23.66,24.59,5.15-.95,6.15-.35,11.37,7-13.94,4.46-26.83,2.61-39.16-4.79C419.71,451.67,413.91,443.8,408,436Z" transform="translate(-408 -389.71)"/><path d="M409.44,393.28l3.47-3.57,18.81,20.12c11.75-6.22,22.89-7.69,34.34-3.65,13.23,4.67,23,13.79,30.68,25.25.92,1.39.61,4.74-.48,6.15-4.95,6.4-10.37,12.44-15.83,18.85l17.32,16.71-4.12,4.35Zm31.69,24.1c2.85,3.86,5.44,6,10.8,4.91a11,11,0,0,1,12.77,13c-1.28,5.55,1.42,7.83,4.83,10.47,7.53-8.14,4.25-20.35-1.31-26.13C460.86,412,449.47,410.89,441.13,417.38Z" transform="translate(-408 -389.71)"/><path d="M441.21,435.09l10.94,10.52C445.49,444.74,442.74,442.1,441.21,435.09Z" transform="translate(-408 -389.71)"/></svg>