<svg id="Layer_1" data-name="Layer 1" xmlns="http://www.w3.org/2000/svg" viewBox="0 0 409.6 379.16"><defs><style>.cls-1{fill:#221f1d;}.cls-2{fill:#ee504e;}.cls-3{fill:#fcb328;}.cls-4{fill:#d96c37;}.cls-5{fill:#f48120;}.cls-6{fill:#b14726;}.cls-7{fill:#fddd40;}.cls-8{fill:#d86b37;}.cls-9{fill:#f9d30d;}.cls-10{fill:#b14626;}</style></defs><title>Home customer</title><path class="cls-1" d="M370.43,174.63c3.42-2.62,6.49-2,9.64.72q41.15,35.91,82.4,71.72a15.43,15.43,0,0,1,3.93,5.73v4.8c-2.76,5-7.09,6.5-12.64,6.37-10.52-.25-21.05.09-31.58-.17-3.46-.08-4.05,1-4,4.2q.15,83.76.07,167.52c0,1.2.06,2.4,0,3.6-.53,9.4-6.58,15.24-16,15.24q-140.54,0-281.07,0c-9.5,0-15.87-5.71-16.07-15.1-.3-14.25-.12-28.52,0-42.78,0-3.89,1.71-6.67,6-7,4.12.66,5.82,3.13,5.8,7.24-.08,13.33,0,26.66,0,40,0,5.51.34,5.84,6,5.84,28.66,0,57.31-.1,86,.11,4.22,0,5.17-1.12,5.16-5.23q-.22-69.76-.09-139.55c0-10.81,5.48-16.31,16.16-16.32q35.39,0,70.78,0a18.89,18.89,0,0,1,5.54.49c6.84,2.06,10.35,7.42,10.35,16.09q0,69.58,0,139.16a26,26,0,0,1,0,2.79c-.2,1.95.66,2.5,2.53,2.49q33.18-.17,66.36-.21c5.06.06,10.12.15,15.18.16,5.35,0,5.69-.34,5.69-5.7q0-86.34.05-172.69a6.76,6.76,0,0,0-2.58-5.76q-68.07-59.07-136-118.28c-6.76-5.88-6.75-5.9-12.83.59-.86.62-1.78,1.17-2.57,1.86Q186.19,200.2,119.87,257.84a8.35,8.35,0,0,0-3.11,7.13q.12,50.13,0,100.27c0,5.27-1,6.58-5.87,7.94-4.86-1.32-5.94-2.89-5.94-8.79,0-32.13,0-64.26.07-96.38,0-3.19-.55-4.3-4-4.21-10.53.27-21.07-.08-31.59.17-5.54.13-9.88-1.35-12.64-6.37V252a31.87,31.87,0,0,1,6-6.74c17.53-15.17,35-30.44,52.49-45.64,1.58-1.38,2.54-2.68,2.52-5-.13-16.12-.1-32.25,0-48.38,0-2.19-.21-3.15-2.89-3.33-6.13-.42-9.26-3.25-9.69-9a117,117,0,0,1,0-17.56c.45-5.73,4-8.93,9.77-9q33.58-.21,67.17,0c6.18,0,9.64,4,9.79,10.28.06,2.4,0,4.8,0,7.2v8c3.25-2.81,6-5.17,8.76-7.56q26.08-22.7,52.17-45.39c7.12-6.18,10.23-6.21,17.23-.12q43.14,37.48,86.24,75c3.84,3.34,4.15,5,2,9.71-3.65,2.68-6.72,1.77-10-1.07-28-24.46-56.1-48.8-84.07-73.3-2.23-1.95-3.37-1.88-5.47.05-5.48,5.07-11.23,9.84-16.86,14.73Q159.21,177,76.44,249c-.9.79-2.26,1.33-2.41,3,8.44,0,16.74-.51,25,.15,7.26.59,12.36-2,17.68-6.72q68.66-60.27,137.69-120.08c5-4.38,9.51-4.34,14.59.08q71.61,62.34,143.19,124.72a6.93,6.93,0,0,0,5,1.88c9.73-.08,19.46,0,29.19-.06.95,0,2.1.54,3-.62-.79-.74-1.54-1.49-2.33-2.18L372.8,184.62C368.63,181,368.32,179.65,370.43,174.63Zm-211.3-55.3c-11.18,0-22.36-.12-33.53-.15-9.3,0-9.22,0-8.83,9.39.09,2.17.84,2.67,2.83,2.65,13.17-.11,26.34-.13,39.51-.17,4.12,0,8.23.12,12.34.13,9.1,0,9.1,0,8.61-9.17,0-.13,0-.26,0-.39.21-2-.84-2.48-2.62-2.45C171.33,119.27,165.23,119.28,159.13,119.33ZM148,143.15c-5.05-.07-10.1,0-15.14-.26-2.69-.14-3.3.8-3.28,3.35.12,12.77,0,25.55.08,38.32,0,.68-.49,1.64.83,2L148,171c5.64-4.83,11-10,17-14.39,4.15-3,5-6.63,4.66-11.24-.15-1.89-.65-2.53-2.55-2.49C160.72,143.07,154.35,143.08,148,143.15ZM283.19,293.42c-17.85,0-35.7-.06-53.54-.17-3.19,0-4.15,1.44-4.08,4.42.13,6.12,0,12.25,0,18.38q0,61.14,0,122.29c0,2-.83,4.24,2.84,4.2,18.25-.18,36.5-.13,54.75-.17,5.46,0,10.92.07,16.38.08,5.2,0,5.21,0,5.21-5V299.51c0-.93-.05-1.87,0-2.8a3.1,3.1,0,0,0-3.32-3.63C295.38,293.08,289.27,292.42,283.19,293.42Z" transform="translate(-56.8 -75.21)"/><path class="cls-2" d="M370.43,174.63c-2.11,5-1.8,6.35,2.37,10L447,249.19c.79.69,1.54,1.44,2.33,2.18-.88,1.16-2,.61-3,.62-9.73,0-19.46,0-29.19.06a6.93,6.93,0,0,1-5-1.88q-71.56-62.4-143.19-124.72c-5.08-4.42-9.56-4.46-14.59-.08q-68.9,60-137.69,120.08c-5.32,4.67-10.42,7.31-17.68,6.72-8.21-.66-16.51-.15-25-.15.15-1.67,1.51-2.21,2.41-3Q159.2,176.95,242,104.91c5.63-4.89,11.38-9.66,16.86-14.73,2.1-1.93,3.24-2,5.47-.05,28,24.5,56.07,48.84,84.07,73.3,3.24,2.84,6.31,3.75,10,1.07Z" transform="translate(-56.8 -75.21)"/><path class="cls-3" d="M111,389.44q-.06-8.13-.11-16.26c4.89-1.36,5.87-2.67,5.87-7.94q0-50.14,0-100.27a8.35,8.35,0,0,1,3.11-7.13q66.38-57.57,132.59-115.33c.79-.69,1.71-1.24,2.57-1.86a50.5,50.5,0,0,0,3.55,3.75c8.85,7.63,17.76,15.18,26.61,22.8,10.37,8.93,20.68,17.91,31,26.84q19.31,16.65,38.65,33.24c9.06,7.79,18.06,15.64,27.2,23.34,2.39,2,3.64,4.07,3.63,7.42-.15,28.25-.07,56.5-.09,84.75q0,49.77-.1,99.54-33.18.09-66.36.21c-1.87,0-2.73-.54-2.53-2.49a26,26,0,0,0,0-2.79q0-69.58,0-139.16c0-8.67-3.51-14-10.35-16.09a18.89,18.89,0,0,0-5.54-.49q-35.4,0-70.78,0c-10.68,0-16.15,5.51-16.16,16.32q0,69.78.09,139.55c0,4.11-.94,5.26-5.16,5.23-28.66-.21-57.31-.11-86-.11-5.62,0-6-.33-6-5.84,0-13.33,0-26.66,0-40C116.86,392.57,115.16,390.1,111,389.44Z" transform="translate(-56.8 -75.21)"/><path class="cls-4" d="M283.21,442.37c-18.25,0-36.5,0-54.75.17-3.67,0-2.84-2.24-2.84-4.2q0-61.14,0-122.29c0-6.13.09-12.26,0-18.38-.07-3,.89-4.44,4.08-4.42,17.84.11,35.69.13,53.54.18Q283.19,367.89,283.21,442.37Z" transform="translate(-56.8 -75.21)"/><path class="cls-5" d="M385.52,442.33q.06-49.77.1-99.54c0-28.25-.06-56.5.09-84.75,0-3.35-1.24-5.39-3.63-7.42-9.14-7.7-18.14-15.55-27.2-23.34Q335.56,210.66,316.23,194c-10.36-8.93-20.67-17.91-31-26.84-8.85-7.62-17.76-15.17-26.61-22.8a50.5,50.5,0,0,1-3.55-3.75c6.08-6.49,6.07-6.47,12.83-.59q68,59.17,136,118.28a6.76,6.76,0,0,1,2.58,5.76q-.09,86.36-.05,172.69c0,5.36-.34,5.72-5.69,5.7C395.64,442.48,390.58,442.39,385.52,442.33Z" transform="translate(-56.8 -75.21)"/><path class="cls-6" d="M283.21,442.37q0-74.47,0-148.94c6.08-1,12.19-.35,18.29-.35a3.1,3.1,0,0,1,3.32,3.63c-.05.93,0,1.87,0,2.8v137.9c0,5,0,5-5.21,5C294.13,442.44,288.67,442.4,283.21,442.37Z" transform="translate(-56.8 -75.21)"/><path class="cls-7" d="M148,171,130.46,186.6c-1.32-.4-.83-1.36-.83-2,0-12.77,0-25.55-.08-38.32,0-2.55.59-3.49,3.28-3.35,5,.26,10.09.19,15.14.26Q148,157.1,148,171Z" transform="translate(-56.8 -75.21)"/><path class="cls-8" d="M159.11,131.05c-13.17,0-26.34.06-39.51.17-2,0-2.74-.48-2.83-2.65-.39-9.39-.47-9.41,8.83-9.39,11.17,0,22.35.1,33.53.15C159.12,123.23,159.12,127.14,159.11,131.05Z" transform="translate(-56.8 -75.21)"/><path class="cls-9" d="M148,171q0-13.95,0-27.89c6.38-.07,12.75-.08,19.12-.23,1.9,0,2.4.6,2.55,2.49.35,4.61-.51,8.2-4.66,11.24C159,161,153.62,166.21,148,171Z" transform="translate(-56.8 -75.21)"/><path class="cls-10" d="M159.11,131.05c0-3.91,0-7.82,0-11.72,6.1,0,12.2-.06,18.31-.16,1.78,0,2.83.46,2.62,2.45,0,.13,0,.26,0,.39.49,9.18.49,9.19-8.61,9.17C167.34,131.17,163.23,131.09,159.11,131.05Z" transform="translate(-56.8 -75.21)"/></svg>