<svg id="Layer_1" data-name="Layer 1" xmlns="http://www.w3.org/2000/svg" viewBox="0 0 383.97 383.77"><title>i icon</title><path d="M693,696H666c-4.43-.58-8.86-1.1-13.28-1.74-31.8-4.67-60.91-16.12-86.7-35.36-40.76-30.41-66.11-70.63-75.48-120.73-1.28-6.84-2-13.78-3-20.67v-27c.57-4.44,1.08-8.89,1.73-13.31,4.61-31.29,15.39-60.27,34.58-85.46,47.37-62.2,110.34-88.14,187.59-77,43,6.22,79.56,26.64,108.9,58.77,40.73,44.59,57,97.37,49.36,157.15-4.45,34.94-18.24,66.26-40.47,93.61-30.07,37-68.6,60-115.53,68.68C706.82,694.23,699.89,695,693,696Zm6.09-164.09c0-15.36-.14-30.73.07-46.09.08-5.55-2.46-8.93-7.16-11.12-6.37-3-13.09-3.18-19.78-1.76-9.48,2-12.2,5.66-12.2,15.32,0,29.85.08,59.7-.06,89.55a11.9,11.9,0,0,0,6.91,11.44,26.86,26.86,0,0,0,20.7,1.81c8.65-2.53,11.52-6.41,11.52-15.31Zm-19.68-83.28a20.61,20.61,0,0,0,14.68-5.52c7.66-6.91,7.68-17.7.15-24.74a21.86,21.86,0,0,0-13.54-5.63c-12.54-1.07-23.14,9-21.54,20.46C660.35,441.82,669.26,448.6,679.41,448.63Z" transform="translate(-487.5 -312.23)"/></svg>