<svg id="Layer_1" data-name="Layer 1" xmlns="http://www.w3.org/2000/svg" viewBox="0 0 321.07 383.67"><defs><style>.cls-1{fill:#0b0d0b;}.cls-2{fill:#f7e768;}.cls-3{fill:#be2346;}.cls-4{fill:#121111;}.cls-5{fill:#a1d4b9;}.cls-6{fill:#62be8a;}.cls-7{fill:#c4e3f5;}.cls-8{fill:#d05473;}.cls-9{fill:#dbc626;}.cls-10{fill:#a7d6f2;}.cls-11{fill:#758cc6;}.cls-12{fill:#4d6ab1;}.cls-13{fill:#9abfd3;}.cls-14{fill:#fefefe;}.cls-15{fill:#0f0305;}.cls-16{fill:#20060b;}</style></defs><title>in stock</title><path class="cls-1" d="M776.18,398.83c5.69.29,5.69.29,5.69,6.14,0,26.36,0,52.73-.07,79.1,0,2.91.69,3.86,3.68,3.72,5.24-.26,10.5,0,15.74-.13,2.39-.08,2.92.72,2.89,3q-.18,14.24,0,28.49c0,2.07-.48,2.85-2.68,2.77-4.49-.16-9,0-13.95,0,3.45,5.37,5.53,10.85,5.54,17a30.21,30.21,0,0,1-5.42,17.09h4.5c19.24,0,38.49.06,57.73-.07,2.94,0,3.72.72,3.71,3.7q-.13,60.72,0,121.46h-321q0-60.51,0-121c0-3.19.6-4.19,4-4.16,25.48.17,51,.09,76.43.09H617c.82-1.32-.35-1.95-.77-2.71-8.93-16.07-1.38-35.62,16.12-41.22,2.41-.77,3-1.71,2.95-4.07q-.13-30.36,0-60.7c0-2.72-.81-3.24-3.35-3.22-16.11.12-32.22.06-48.34.06-5.4,0-5.4,0-5.67-5.33.5-6,.5-6,6.77-6,15.61,0,31.22,0,46.83,0,1.44,0,3.57.77,3.43-2-.15-3.09.48-6.22-.39-9.28q.09-32.76.21-65.51c0-2.23-1.23-2.31-2.87-2.31l-75.63-.06a4.75,4.75,0,0,0-1.08.27c-2.7-.78-5.46-.15-8.19-.4-2.24-.2-2.7.9-2.69,2.9q.06,36.72,0,73.45c0,2.64,1,3.08,3.3,3,4.37-.13,8.74,0,13.12,0,6.08,0,6.08,0,6.37,5.92-.28,5.38-.28,5.38-5.65,5.38-8.63,0-17.25-.08-25.87.05-2.31,0-2.93-.6-2.92-2.92q.12-48,0-96c0-2.84,1.09-3.18,3.5-3.17,24,.07,48,0,72,.12,3.09,0,4.08-.67,3.89-3.85-.29-5.11.16-10.26-.16-15.36-.21-3.31,1-3.81,3.95-3.77,12.87.17,25.74,0,38.61.13,2.58,0,3.46-.6,3.35-3.29-.21-5.37,0-10.75-.1-16.12,0-1.95.53-2.55,2.51-2.54q42.55.08,85.1,0c2.83,0,2.51,1.49,2.51,3.26,0,20.12,0,40.24-.07,60.36,0,2.8.51,3.8,3.58,3.72,9.11-.24,18.24,0,27.36-.15,2.69,0,3.39.79,3.3,3.37a155.71,155.71,0,0,0,0,15.73c.23,3.55-1,4.69-4.31,4.14a6.32,6.32,0,0,0-1.49.11c-5.8-.3-5.8-.3-5.8-6.41a29.78,29.78,0,0,1,0-3c.21-2-.62-2.56-2.56-2.54q-14.21.12-28.42,0c-2.12,0-2.81.68-2.76,2.79.12,5.61,0,11.22.08,16.82.06,2.15-.64,2.74-2.75,2.72-9.35-.11-18.7-.13-28.05,0-2.46,0-3.17-.69-3.13-3.14.09-6.22-.12-12.44-.2-18.66-1-1.18-2.34-.55-3.49-.55-8.74,0-17.49.16-26.23,0-3.07-.07-4,.7-4,3.86q.17,52.1,0,104.19c0,3.09.71,3.94,3.87,3.92,29.1-.13,58.21-.07,87.32-.07,10.85,0,10.85,0,10.08-10.91.06-1.36.17-2.73.17-4.09q0-33.8,0-67.58C770.36,399.17,770.36,399.17,776.18,398.83ZM629.44,526.53a16.95,16.95,0,1,0,23.92,23.94c6.31-7.54,6-17.31-.73-23.78S636.36,520.3,629.44,526.53Zm147.67,23.94c6.31-7.48,6-17.35-.73-23.79s-16.29-6.37-23.21-.12a16.94,16.94,0,1,0,23.94,23.91Zm-96.83-241.4c-2.87-.05-5.74,0-8.59-.17-2.1-.14-2.75.54-2.74,2.68q.12,25.26,0,50.51c0,1.93.51,2.56,2.5,2.56q31.24-.11,62.48,0c1.85,0,2.74-.37,2.6-2.45-.19-3-.12-6-.16-9,0-14,0-27.92.17-41.88,0-2.11-.79-2.45-2.61-2.39-3.86.11-7.73.14-11.59,0-2.12-.09-2.79.56-2.74,2.7.13,5.73,0,11.47.08,17.2.05,2.06-.5,2.81-2.69,2.78-9.6-.11-19.2-.09-28.8,0-2,0-2.56-.66-2.52-2.58.12-5,0-10,0-15C685.71,308.74,685.71,308.74,680.28,309.07ZM657.64,498.74c0-1.38.07-2.75.07-4.12q0-79.51,0-159c0-1.36-.08-2.73-.12-4.1.12-.5,0-.77-.58-.66H634.52c-.86-.05-1.72-.14-2.58-.15-9-.06-8.94-.06-8.75,8.82,0,1.84.35,2.68,2.42,2.54,3-.21,5.94-.13,8.91-.17a70.67,70.67,0,0,0,8.23.06c3.18-.33,3.83.77,3.83,3.85q-.17,69.56-.07,139.11c0,4.62.07,9.24.11,13.86a73.48,73.48,0,0,1-.17,7.86c-.4,3.24.86,3.82,3.89,3.81q67.67-.15,135.32-.07c7.11,0,6.94,0,7.17-7.22.1-3.1-.67-3.9-3.83-3.89q-63.54.18-127.07.05C660.51,499.29,658.94,499.91,657.64,498.74Zm18.83,153.8c-1,1.66,0,3.54-.61,5.24l-27.1.17q-51.18-.06-102.34-.14c-1.86,0-2.59.43-2.68,2.48-.42,9.57-.49,9.57,9,9.49.75,0,1.49-.09,2.24-.13,1.5,0,3,.09,4.49.09H834.38c7.78,0,7.61,0,7.86-7.68.11-3.37-.76-4.33-4.25-4.32-40.75.14-81.5.09-122.25.09-5.62,0-5.62,0-6.15-5.43.37-5.88.37-5.88,6.48-5.88H821.68c6,0,12-.08,18,0,2,0,2.66-.57,2.54-2.55-.18-3-.13-6-.18-9l0-1.34q.08-32.37.13-64.74c0-.41-.38-.82-.58-1.24-1.36-.09-2.72-.27-4.08-.27q-138.84,0-277.66,0c-1.37,0-2.74.13-4.1.2-2.75,0-5.51.06-8.23-.2-2.94-.28-3.78.73-3.77,3.71q.18,35.8,0,71.61c0,3.16.88,3.88,3.94,3.87q61.11-.17,122.22-.1c6.11,0,6.11,0,6.48,5.88Zm64.92-96.82c-7-11.38-6.94-22.5.24-33.7H663.81c7.22,11.22,7.17,22.34.28,33.7ZM725.3,381.29c-.07-5.84.75-5.35-4.64-5.33-6.83,0-6.5-1-6.47,5.1,0,6.52-.8,5.79,4.89,5.82C725.3,386.92,725.3,386.89,725.3,381.29Zm-17.18-66.61c-.09-6.42.75-5.7-4.59-5.69-7,0-6.16-.89-6.21,4.82-.06,6.46,0,6.46,5,6.46C708.12,320.27,708.12,320.27,708.12,314.68Z" transform="translate(-532.46 -297.33)"/><path class="cls-2" d="M776.18,398.83c-5.82.34-5.82.34-5.82,6.38q0,33.8,0,67.58c0,1.36-.11,2.73-.17,4.09l-56.31,0c0-3.72,0-7.44.07-11.16-1.08-1.3-2.55-.69-3.84-.7-9-.06-17.91-.09-26.86,0-2.21,0-3.11-.58-3-2.94.18-6.33.15-12.68.21-19l2.61,0c8.93,0,8.85,0,8.53-8.95-.08-2.24-.95-2.72-2.91-2.65-2.73.11-5.47,0-8.21,0-.06-17.45-.1-34.89-.23-52.33,0-2.25,1-2.7,2.94-2.68,6.48.06,13,0,19.44,0,.08,6.22.29,12.44.2,18.66,0,2.45.67,3.17,3.13,3.14,9.35-.14,18.7-.12,28.05,0,2.11,0,2.81-.57,2.75-2.72-.13-5.6,0-11.21-.08-16.82,0-2.11.64-2.81,2.76-2.79q14.22.13,28.42,0c1.94,0,2.77.56,2.56,2.54a29.78,29.78,0,0,0,0,3c0,6.11,0,6.11,5.8,6.41C776.17,391.52,776.17,395.18,776.18,398.83Z" transform="translate(-532.46 -297.33)"/><path class="cls-3" d="M567.08,438.67c-.29-5.92-.29-5.92-6.37-5.92-4.38,0-8.75-.09-13.12,0-2.26.07-3.31-.37-3.3-3q.15-36.73,0-73.45c0-2,.45-3.1,2.69-2.9,2.73.25,5.49-.38,8.19.4l-.06,11.45c0,17.45.06,34.89,0,52.34,0,2.8.59,4.2,3.72,3.87,2.59-.27,5.23-.12,7.84-.15l11.25,0,11.24.07h22.4l11.41,0,11.6.09c.87,3.06.24,6.19.39,9.28.14,2.78-2,2-3.43,2-15.61,0-31.22,0-46.83,0-6.27,0-6.27,0-6.77,6Z" transform="translate(-532.46 -297.33)"/><path class="cls-4" d="M844.59,348.35c0,1.28-1,1.49-1.71,1.91-8,4.77-16,9.49-24,14.34-1.65,1-2.39.87-3.47-.83-4.79-7.57-4.86-7.52,2.89-12.15,6.2-3.69,12.43-7.33,18.57-11.12,1.74-1.08,2.7-1.11,3.68.89C841.74,343.83,843.27,346.11,844.59,348.35Z" transform="translate(-532.46 -297.33)"/><path class="cls-4" d="M828.62,324.68c.23,1.32-.61,1.6-1.15,2q-11.24,9-22.49,18.07c-3,2.38-3.55-1.17-4.15-2.25-1.17-2.09-6-3.67-3-6.48,7.18-6.55,15-12.34,22.66-18.42.42-.34,1-1.23,1.48-.65C824.36,319.57,826.57,322.26,828.62,324.68Z" transform="translate(-532.46 -297.33)"/><path class="cls-4" d="M788.4,328.75c-1.31-1.18-2.21-2-3.08-2.79-5.49-5.26-5.5-5.26-.25-10.86s10.35-10.85,15.35-16.42c1.61-1.8,2.45-1.59,4.07,0,6.24,5.94,6.29,5.87.48,12q-7.47,7.89-14.89,15.82A26.11,26.11,0,0,0,788.4,328.75Z" transform="translate(-532.46 -297.33)"/><path class="cls-5" d="M842.06,633.69c0,.44,0,.89,0,1.34l-27.48.06c.15-.47.29-1,.43-1.44.41-2.21.7-4.43-.26-6.59a27.11,27.11,0,0,0-9.25-18.57c-1.49-1.33-1.62-2,0-3.38,6.33-5.6,9.24-12.77,9.42-21.18.11-5.36.23-5.36-5-5.36-6.23,0-6.23,0-6.5,6.17-.31,7.29-4.49,13.06-11.06,14.9V586.51c0-8.06,0-8-8-8-2.48,0-3.52.48-3.47,3.27.16,9.61,0,19.22.07,28.83,0,8.1.17,16.2.26,24.3l-11.58.19.32-1.44c.45-3.23.86-6.47-.29-9.66-4.48-.18-9,0-13.44-.62-9.29-1.24-15-8.65-14.44-18.19.48-8.21,7.46-14.77,16.18-15.13,3-.12,6,0,9-.05,1.35,0,3.1.28,2.8-1.89-.43-3.16,1.36-6.6-1.15-9.48-.11-.14-.48-.07-.73-.07-5.23,0-10.53-.45-15.67.78a27.87,27.87,0,0,0-21.74,28.07c.17,13.43,9.29,24.1,23.28,27.22-.85.76-1.88.54-2.86.54H704.12c-1,0-2,.23-2.84-.56,9.76-2.5,16-8.65,17.7-18.54.84-4.86.3-10,.28-15a22.19,22.19,0,0,0-19.61-22.23c-11.93-1.31-22.06,5.82-24.78,17.32-1.11,4.71-.55,9.45-.58,14.17-.09,12.76,5.65,20.41,17.94,24.24a2.67,2.67,0,0,1-2.09.57l-38.52-.1q0-18.15.08-36.3c0-8.68,0-8.68,8.64-8.68,8.2,0,8.07,0,8.14-8.21,0-2.77-1-3.23-3.42-3.21-11.11.12-22.21.06-33.31.06-8.76,0-8.69,0-8.48,8.6.05,2.09.6,2.84,2.75,2.8,4.61-.07,9.22.1,13.83.17q0,20.25,0,40.49c0,1-.23,2,.49,2.88l.18,1.41-38.73.08a3.12,3.12,0,0,1-2.47-.55c9.39-3.16,14-10.38,12.67-19.7-1.22-8.32-8.1-13.79-17.66-14-1.37,0-2.75,0-4.12,0-3.63-.15-5.9-2.23-5.91-5.37s2.3-5.31,5.87-5.37c4.5-.08,9,0,13.49,0,9,0,8.88,0,8.64-8.85-.06-2.27-.9-2.68-2.88-2.64-5.12.11-10.24,0-15.36.05-3.11,0-6.24-.17-9.27.8A16.82,16.82,0,0,0,573,597.74a16.63,16.63,0,0,0,15.33,14.41c2.73.23,5.5.12,8.21.49,3.15.42,4.32,2.66,4.2,5.63s-1.5,4.81-4.44,5.09c-2.6.25-5.24.09-7.86.23-5.19.26-10.42-.66-15.59.48a18,18,0,0,0-.11,9.63l.18,1.42c-4.61,0-9.23,0-13.83.14-2.53.1-3.48-.61-3.47-3.32.12-21.43.09-42.87.11-64.3,1.36-.07,2.73-.2,4.1-.2q138.82,0,277.66,0c1.36,0,2.72.18,4.07.27q0,31.56,0,63.11C841.57,631.79,841.34,632.83,842.06,633.69Z" transform="translate(-532.46 -297.33)"/><path class="cls-6" d="M769.59,635.11l11.58-.18,10.79.13,11.7,0,10.88.07L842,635c0,3,0,6,.18,9,.12,2-.58,2.59-2.54,2.55-6-.1-12,0-18,0H716.07c-6.11,0-6.11,0-6.48,5.88H698.92c-.36-5.89-.36-5.89-5.55-5.89-5.93,0-5.93,0-6.29,5.89H676.4c-.37-5.88-.37-5.88-6.48-5.88q-61.11,0-122.22.1c-3.06,0-4-.71-3.94-3.87q.21-35.81,0-71.61c0-3,.83-4,3.77-3.71,2.72.26,5.48.15,8.23.2,0,21.43,0,42.87-.11,64.3,0,2.71.94,3.42,3.47,3.32,4.6-.19,9.22-.11,13.83-.14,8.78-.13,17.57.59,26.32-.48a3.12,3.12,0,0,0,2.47.55l38.73-.08h11.14l38.52.1a2.67,2.67,0,0,0,2.09-.57,28.62,28.62,0,0,0,9,0c.83.79,1.87.56,2.84.56h46.72c1,0,2,.22,2.86-.54C759,635.42,764.29,635.06,769.59,635.11Z" transform="translate(-532.46 -297.33)"/><path class="cls-7" d="M698.92,652.42h10.67c.53,5.43.53,5.43,6.15,5.43,40.75,0,81.5,0,122.25-.09,3.49,0,4.36,1,4.25,4.32-.25,7.67-.08,7.68-7.86,7.68H559.51c-1.49,0-3-.06-4.49-.09a64.58,64.58,0,0,0-.11-7.1c-.43-3.47,1.06-4.09,4.23-4.08,28.42.11,56.85.07,85.28,0,1.45,0,3,.48,4.34-.56l27.1-.17c1.44-1.6.57-3.47.61-5.24l-.07-.13h10.68a5,5,0,0,1,.19,1.46c-.62,3.37.82,4.56,4.05,4a9.26,9.26,0,0,1,1.49,0C698.42,657.85,698.42,657.85,698.92,652.42Z" transform="translate(-532.46 -297.33)"/><path class="cls-8" d="M577.92,421.31l-11.25,0q.09-22.62.16-45.25c0-11.68,0-11.68-11.69-10.81l.06-11.45a4.75,4.75,0,0,1,1.08-.27l75.63.06c1.64,0,2.88.08,2.87,2.31q-.16,32.76-.21,65.51l-11.6-.09q.1-24,.2-48c0-8.49,0-8.38-8.44-8.33-2.62,0-3.06,1-3,3.29.1,9,.06,18,0,27,0,1.17.47,2.48-.52,3.58-1.28-.57-1.65-1.84-2.31-2.85q-9.21-14.1-18.36-28.25c-1.48-2.27-10-4-12.16-2.5-.72.52-.64,1.29-.63,2Q577.81,394.33,577.92,421.31Z" transform="translate(-532.46 -297.33)"/><path class="cls-9" d="M713.88,476.84l56.31,0c.77,10.91.77,10.91-10.08,10.91-29.11,0-58.22-.06-87.32.07-3.16,0-3.88-.83-3.87-3.92q.17-52.1,0-104.19c0-3.16.88-3.93,4-3.86,8.74.19,17.49,0,26.23,0,1.15,0,2.49-.63,3.49.55-6.48,0-13,.08-19.44,0-2,0-2.95.43-2.94,2.68.13,17.44.17,34.88.23,52.33,0,3.84,0,7.69,0,11.53-.06,6.34,0,12.69-.21,19-.07,2.36.83,3,3,2.94,9-.1,17.91-.07,26.86,0,1.29,0,2.76-.6,3.84.7q-12.93-.07-25.85-.14c-8,0-7.86,0-7.93,8,0,2.65.74,3.36,3.35,3.32C693.64,476.74,703.76,476.83,713.88,476.84Z" transform="translate(-532.46 -297.33)"/><path class="cls-7" d="M634.52,330.83H657l.58.66c0,1.37.12,2.74.12,4.1q0,79.52,0,159c0,1.37,0,2.74-.07,4.12h-11c0-4.62-.11-9.24-.11-13.86q0-69.56.07-139.11c0-3.08-.65-4.18-3.83-3.85a70.67,70.67,0,0,1-8.23-.06Z" transform="translate(-532.46 -297.33)"/><path class="cls-2" d="M680.28,309.07c5.43-.33,5.43-.33,5.43,5,0,5,.08,10,0,15,0,1.92.52,2.6,2.52,2.58,9.6-.08,19.2-.1,28.8,0,2.19,0,2.74-.72,2.69-2.78-.11-5.73.05-11.47-.08-17.2-.05-2.14.62-2.79,2.74-2.7,3.86.16,7.73.13,11.59,0,1.82-.06,2.63.28,2.61,2.39-.13,14-.13,27.92-.17,41.88-17.47,0-35-.05-52.42.1-3,0-3.8-.88-3.77-3.81C680.34,336,680.27,322.55,680.28,309.07Z" transform="translate(-532.46 -297.33)"/><path class="cls-10" d="M646.62,498.75h11c1.3,1.17,2.87.55,4.29.55q63.52.06,127.07-.05c3.16,0,3.93.79,3.83,3.89-.23,7.21-.06,7.22-7.17,7.22q-67.67,0-135.32.07c-3,0-4.29-.57-3.89-3.81A73.48,73.48,0,0,0,646.62,498.75Z" transform="translate(-532.46 -297.33)"/><path class="cls-9" d="M680.28,309.07c0,13.48.06,27-.1,40.44,0,2.93.77,3.83,3.77,3.81,17.47-.15,34.95-.09,52.42-.1,0,3,0,6,.16,9,.14,2.08-.75,2.45-2.6,2.45q-31.24-.08-62.48,0c-2,0-2.51-.63-2.5-2.56q.1-25.26,0-50.51c0-2.14.64-2.82,2.74-2.68C674.54,309.09,677.41,309,680.28,309.07Z" transform="translate(-532.46 -297.33)"/><path class="cls-11" d="M753.17,526.56c6.92-6.25,16.59-6.2,23.21.12s7,16.31.73,23.79C763.21,550.6,752.36,539.76,753.17,526.56Z" transform="translate(-532.46 -297.33)"/><path class="cls-11" d="M629.44,526.53c6.92-6.23,16.59-6.16,23.19.16s7,16.24.72,23.78C639.57,550.61,628.54,539.58,629.44,526.53Z" transform="translate(-532.46 -297.33)"/><path class="cls-12" d="M629.44,526.53c-.9,13.05,10.13,24.08,23.91,23.94a16.94,16.94,0,1,1-23.91-23.94Z" transform="translate(-532.46 -297.33)"/><path class="cls-12" d="M753.17,526.56c-.81,13.2,10,24,23.94,23.91a16.94,16.94,0,1,1-23.94-23.91Z" transform="translate(-532.46 -297.33)"/><path class="cls-13" d="M648.76,658c-1.33,1-2.89.56-4.34.56-28.43,0-56.86.07-85.28,0-3.17,0-4.66.61-4.23,4.08a64.58,64.58,0,0,1,.11,7.1c-.75,0-1.49.12-2.24.13-9.53.08-9.46.08-9-9.49.09-2,.82-2.49,2.68-2.48Q597.59,657.93,648.76,658Z" transform="translate(-532.46 -297.33)"/><path class="cls-10" d="M634.52,330.83v11c-3,0-5.95,0-8.91.17-2.07.14-2.38-.7-2.42-2.54-.19-8.88-.25-8.88,8.75-8.82C632.8,330.69,633.66,330.78,634.52,330.83Z" transform="translate(-532.46 -297.33)"/><path class="cls-3" d="M725.3,381.29c0,5.6,0,5.63-6.22,5.59-5.69,0-4.85.7-4.89-5.82,0-6.06-.36-5.07,6.47-5.1C726.05,375.94,725.23,375.45,725.3,381.29Z" transform="translate(-532.46 -297.33)"/><path class="cls-3" d="M708.12,314.68c0,5.59,0,5.59-5.83,5.59-5,0-5,0-5-6.46,0-5.71-.81-4.81,6.21-4.82C708.87,309,708,308.26,708.12,314.68Z" transform="translate(-532.46 -297.33)"/><path class="cls-6" d="M842.06,633.69c-.72-.86-.49-1.9-.49-2.87q0-31.56,0-63.11c.21.42.59.83.59,1.24Q842.16,601.32,842.06,633.69Z" transform="translate(-532.46 -297.33)"/><path class="cls-13" d="M676.47,652.54c0,1.77.83,3.64-.61,5.24C676.45,656.08,675.48,654.2,676.47,652.54Z" transform="translate(-532.46 -297.33)"/><path class="cls-10" d="M657.59,331.49l-.58-.66C657.57,330.72,657.71,331,657.59,331.49Z" transform="translate(-532.46 -297.33)"/><path class="cls-1" d="M713.88,476.84c-10.12,0-20.24-.1-30.36,0-2.61,0-3.38-.67-3.35-3.32.07-8,0-8,7.93-8q12.92,0,25.85.14C713.93,469.4,713.9,473.12,713.88,476.84Z" transform="translate(-532.46 -297.33)"/><path class="cls-14" d="M680.42,443c0-3.84,0-7.69,0-11.53,2.74,0,5.48.07,8.21,0,2-.07,2.83.41,2.91,2.65.32,9,.4,9-8.53,8.95Z" transform="translate(-532.46 -297.33)"/><path class="cls-15" d="M577.92,421.31q-.09-27-.18-54c0-.73-.09-1.5.63-2,2.11-1.52,10.68.23,12.16,2.5q9.18,14.13,18.36,28.25c.66,1,1,2.28,2.31,2.85,1-1.1.51-2.41.52-3.58,0-9,.08-18,0-27,0-2.29.41-3.28,3-3.29,8.44-.05,8.47-.16,8.44,8.33q-.07,24-.2,48l-11.41,0Q600.82,404.7,590.1,388l-.94.27v33.09Z" transform="translate(-532.46 -297.33)"/><path class="cls-16" d="M555.14,365.28c11.69-.87,11.71-.87,11.69,10.81q-.06,22.64-.16,45.25c-2.61,0-5.25-.12-7.84.15-3.13.33-3.73-1.07-3.72-3.87C555.2,400.17,555.14,382.73,555.14,365.28Z" transform="translate(-532.46 -297.33)"/><path class="cls-8" d="M589.16,421.38V388.29l.94-.27q10.73,16.68,21.46,33.36Z" transform="translate(-532.46 -297.33)"/><path class="cls-1" d="M701.28,634.63a28.62,28.62,0,0,1-9,0c-12.29-3.83-18-11.48-17.94-24.24,0-4.72-.53-9.46.58-14.17,2.72-11.5,12.85-18.63,24.78-17.32a22.19,22.19,0,0,1,19.61,22.23c0,5,.56,10.1-.28,15C717.27,626,711,632.13,701.28,634.63ZM708,606.75c0-1.87,0-3.74,0-5.61a11.22,11.22,0,0,0-22.43-.43,112.88,112.88,0,0,0,0,12.34,11.21,11.21,0,0,0,22.41-.69C708,610.49,708,608.62,708,606.75Z" transform="translate(-532.46 -297.33)"/><path class="cls-1" d="M599.28,634.64c-8.75,1.07-17.54.35-26.32.48l-.18-1.42c0-3.21.07-6.42.11-9.63,5.17-1.14,10.4-.22,15.59-.48,2.62-.14,5.26,0,7.86-.23,2.94-.28,4.32-2.24,4.44-5.09s-1-5.21-4.2-5.63c-2.71-.37-5.48-.26-8.21-.49A16.63,16.63,0,0,1,573,597.74a16.82,16.82,0,0,1,11.71-18.24c3-1,6.16-.78,9.27-.8,5.12,0,10.24.06,15.36-.05,2,0,2.82.37,2.88,2.64.24,8.85.33,8.85-8.64,8.85-4.5,0-9-.06-13.49,0-3.57.06-5.88,2.25-5.87,5.37s2.28,5.22,5.91,5.37c1.37.05,2.75,0,4.12,0,9.56.23,16.44,5.7,17.66,14C613.31,624.26,608.67,631.48,599.28,634.64Z" transform="translate(-532.46 -297.33)"/><path class="cls-1" d="M792,635.05l-10.79-.12c-.09-8.11-.22-16.21-.26-24.31,0-9.61.09-19.22-.07-28.83-.05-2.79,1-3.28,3.47-3.27,8,0,8-.07,8,8v13.13c6.57-1.84,10.75-7.61,11.06-14.9.27-6.17.27-6.17,6.5-6.17,5.2,0,5.08,0,5,5.36-.18,8.41-3.09,15.58-9.42,21.18-1.58,1.39-1.45,2,0,3.38a27.11,27.11,0,0,1,9.25,18.57q.12,3.3.26,6.59c-.14.49-.28,1-.43,1.44L803.66,635c-.11-2.33-.15-4.67-.36-7-.58-6.53-3.7-11.3-9.87-13.88-1.48-.86-1.26.34-1.25,1.09.06,6.14.16,12.28.24,18.42C792.27,634.12,792.12,634.59,792,635.05Z" transform="translate(-532.46 -297.33)"/><path class="cls-1" d="M769.59,635.11c-5.3-.05-10.61.31-15.89-.46-14-3.12-23.11-13.79-23.28-27.22a27.87,27.87,0,0,1,21.74-28.07c5.14-1.23,10.44-.75,15.67-.78.25,0,.62-.07.73.07,2.51,2.88.72,6.32,1.15,9.48.3,2.17-1.45,1.88-2.8,1.89-3,0-6-.07-9,.05-8.72.36-15.7,6.92-16.18,15.13-.56,9.54,5.15,16.95,14.44,18.19,4.43.59,9,.44,13.44.62q.15,4.83.29,9.66Z" transform="translate(-532.46 -297.33)"/><path class="cls-1" d="M651.62,635.1H640.48l-.18-1.41q.08-21.09.16-42.17c0-.51-.06-1-.61-1.2-4.61-.07-9.22-.24-13.83-.17-2.15,0-2.7-.71-2.75-2.8-.21-8.61-.28-8.6,8.48-8.6,11.1,0,22.2.06,33.31-.06,2.47,0,3.45.44,3.42,3.21-.07,8.21.06,8.21-8.14,8.21-8.63,0-8.62,0-8.64,8.68Q651.67,617,651.62,635.1Z" transform="translate(-532.46 -297.33)"/><path class="cls-6" d="M639.85,590.33c.55.22.62.69.61,1.2q-.08,21.09-.16,42.17c-.72-.87-.49-1.9-.49-2.88Q639.81,610.57,639.85,590.33Z" transform="translate(-532.46 -297.33)"/><path class="cls-6" d="M769.91,633.67q-.13-4.83-.29-9.66C770.77,627.2,770.36,630.44,769.91,633.67Z" transform="translate(-532.46 -297.33)"/><path class="cls-6" d="M572.89,624.07c0,3.21-.07,6.42-.11,9.63A18,18,0,0,1,572.89,624.07Z" transform="translate(-532.46 -297.33)"/><path class="cls-6" d="M815,633.65q-.13-3.28-.26-6.59C815.66,629.22,815.37,631.44,815,633.65Z" transform="translate(-532.46 -297.33)"/><path class="cls-5" d="M793.43,614.15c6.17,2.58,9.29,7.35,9.87,13.88.21,2.33.25,4.67.36,7l-11.7,0c.16-.47.31-.94.46-1.4.73-2.81.12-5.68.36-8.51C793.08,621.49,792,617.74,793.43,614.15Z" transform="translate(-532.46 -297.33)"/><path class="cls-4" d="M698.92,652.42c-.5,5.43-.5,5.43-6.11,5.43a9.26,9.26,0,0,0-1.49,0c-3.23.58-4.67-.61-4.05-4a5,5,0,0,0-.19-1.46c.36-5.89.36-5.89,6.29-5.89C698.56,646.53,698.56,646.53,698.92,652.42Z" transform="translate(-532.46 -297.33)"/><path class="cls-5" d="M708,606.75c0,1.87,0,3.74,0,5.61a11.21,11.21,0,0,1-22.41.69,112.88,112.88,0,0,1,0-12.34,11.22,11.22,0,0,1,22.43.43C708.05,603,708,604.88,708,606.75Z" transform="translate(-532.46 -297.33)"/><path class="cls-6" d="M793.43,614.15c-1.41,3.59-.35,7.34-.65,11-.24,2.83.37,5.7-.36,8.51-.08-6.14-.18-12.28-.24-18.42C792.17,614.49,792,613.29,793.43,614.15Z" transform="translate(-532.46 -297.33)"/></svg>