<svg id="Layer_1" data-name="Layer 1" xmlns="http://www.w3.org/2000/svg" viewBox="0 0 88.02 51.99"><title>keyboard</title><path d="M259.59,342c-11.48,0-23,0-34.44,0-6.28,0-9.09-2.87-9.12-9.17q-.08-17,0-33.93c0-5.95,2.93-8.82,8.93-8.83q34.93-.07,69.87,0c6.29,0,9.1,2.85,9.13,9.16q.07,17,0,33.94c0,5.93-2.95,8.8-8.94,8.83C283.21,342,271.4,342,259.59,342Zm-35.38-8.31h71.41V298.25H224.21Z" transform="translate(-215.99 -290)"/><path d="M275.75,318.28v7.36H244.34v-7.36Z" transform="translate(-215.99 -290)"/><path d="M232.1,313.68v-7.27h7.53v7.27Z" transform="translate(-215.99 -290)"/><path d="M251.65,313.75h-7.39v-7.36h7.39Z" transform="translate(-215.99 -290)"/><path d="M263.89,306.42v7.18h-7.54v-7.18Z" transform="translate(-215.99 -290)"/><path d="M268.42,306.11h7.18v7.54h-7.18Z" transform="translate(-215.99 -290)"/><path d="M280.28,306.24h7.35v7.43h-7.35Z" transform="translate(-215.99 -290)"/><path d="M232.28,318.24h7.35v7.43h-7.35Z" transform="translate(-215.99 -290)"/><path d="M287.75,318.29v7.33h-7.41v-7.33Z" transform="translate(-215.99 -290)"/></svg>