<svg id="Layer_1" data-name="Layer 1" xmlns="http://www.w3.org/2000/svg" viewBox="0 0 416.44 416.44"><defs><style>.cls-1{fill:#e4f5fa;}.cls-2{fill:#0e0c08;}.cls-3{fill:#fdcd30;}.cls-4{fill:#fcdd64;}.cls-5{fill:#6e573e;}.cls-6{fill:#634d39;}.cls-7{fill:#f9c930;}.cls-8{fill:#0c0906;}.cls-9{fill:#dfdfdf;}.cls-10{fill:#ee4248;}.cls-11{fill:#f9c59f;}.cls-12{fill:#c2c2c2;}.cls-13{fill:#f3ba93;}.cls-14{fill:#d52f2d;}.cls-15{fill:#efbd98;}.cls-16{fill:#e7a17b;}</style></defs><title>KYC</title><rect class="cls-1" width="416.44" height="416.44" rx="6.27"/><path class="cls-2" d="M547,380.42c3.49,1.22,4.43,2.74,3.85,6.56-3,19.67-9.73,37.9-21.11,54.28-1.64,2.35-1.22,3.48.62,5.24,5,4.84,9.88,9.87,14.76,14.78.34-.09.56-.08.67-.19,5.28-5.08,6.07-5.08,11.24.09,12,12,24.11,23.93,36,36.05,14.89,15.17,10.84,39.58-8.1,48.29-11.49,5.28-22.79,4-32-4.61-13.75-12.83-26.78-26.42-40.06-39.74-2.52-2.53-2.39-4.77.48-7.48,1.64-1.55,1.66-2.43,0-4q-7.12-6.78-13.91-13.91c-1.34-1.41-2.14-1.33-3.65-.29a123.32,123.32,0,0,1-57.32,21.82c-39.44,4.36-74.35-6.38-103.85-33.17-22.65-20.56-36.34-46.24-40.77-76.47A129.87,129.87,0,0,1,548,336.15a139.42,139.42,0,0,1,4.1,29.25c.14,3.25-1.11,5.39-4.47,6-3.63-.34-4.9-2.66-4.93-5.95a106.38,106.38,0,0,0-2.44-21.72c-6.35-29.39-21.57-53.21-45.41-71.46a111.15,111.15,0,0,0-41.34-20c-26.6-7.26-52.74-5.55-78,5.22-52,22.19-81.15,74.43-72.18,130.32,6.36,39.67,28.27,68.86,63.51,87.82,21.35,11.48,44.41,15.33,68.47,12.83,6.15-.64,12.35-1.33,18.17-3.73a6.34,6.34,0,0,0,2.82-.45c26.87-8,48.29-23.64,64.58-46.35,11.32-15.78,18-33.45,20.81-52.62C542.17,382.09,543.73,380.42,547,380.42Zm43.88,146.76c3.71-8.09,2.53-15.9-3.28-22.11-11.21-12-23.09-23.33-34.67-34.95-1-1-1.86-1.32-3-.18q-9.45,9.63-18.94,19.24c-2.24,2.13-4.41,4.36-6.76,6.38-1.76,1.5-1.53,2.51,0,4.06,11.2,11.07,22.27,22.28,33.46,33.37C568,543.12,584.47,540.18,590.84,527.18ZM521.68,485a13,13,0,0,0,1.08-.88c5-5,10-10,15.06-15,1-1,.71-1.51-.11-2.32-4.73-4.68-9.45-9.37-14.1-14.13-1.11-1.13-1.75-1.09-2.76.12a119.64,119.64,0,0,1-14.32,14.33c-1.18,1-1.35,1.56-.18,2.71,4.77,4.65,9.43,9.39,14.14,14.1C520.85,484.31,521.25,484.63,521.68,485Z" transform="translate(-238.99 -185.44)"/><path class="cls-3" d="M547,380.42c-3.23,0-4.79,1.67-5.26,4.83-2.8,19.17-9.49,36.84-20.81,52.62-16.29,22.71-37.71,38.34-64.58,46.35a6.34,6.34,0,0,1-2.82.45,5.86,5.86,0,0,1,2.72-1.65c13.92-5.81,26-14.33,36.87-24.72A124.43,124.43,0,0,0,513,433.22c10.77-17.62,16.4-36.89,17.84-57.35a121.93,121.93,0,0,0-1.71-28.45c-4-24.4-14.73-45.48-31.17-63.69a123,123,0,0,0-40.31-29.29c-1.41-.65-3.25-.59-4.13-2.23a111.15,111.15,0,0,1,41.34,20c23.84,18.25,39.06,42.07,45.41,71.46a106.38,106.38,0,0,1,2.44,21.72c0,3.29,1.3,5.61,4.93,5.95Q547.31,375.91,547,380.42Z" transform="translate(-238.99 -185.44)"/><path class="cls-4" d="M453.52,252.21c.88,1.64,2.72,1.58,4.13,2.23A123,123,0,0,1,498,283.73c16.44,18.21,27.13,39.29,31.17,63.69a121.93,121.93,0,0,1,1.71,28.45c-1.44,20.46-7.07,39.73-17.84,57.35a124.43,124.43,0,0,1-19.92,25.08c-10.84,10.39-22.95,18.91-36.87,24.72a5.86,5.86,0,0,0-2.72,1.65c-5.82,2.4-12,3.09-18.17,3.73-24.06,2.5-47.12-1.35-68.47-12.83-35.24-19-57.15-48.15-63.51-87.82-9-55.89,20.14-108.13,72.18-130.32C400.78,246.66,426.92,245,453.52,252.21ZM327,388.47l2.13,8.46c-3.37,2.5-3.69,3.6-2.17,7.62,17.83,47.14,67.76,73.89,117.93,62.58A101.55,101.55,0,0,0,523,353.8c-3.53-25.67-15.28-47.3-35.37-63.73-30.56-25-65-30.9-102-17.23C341.33,289.23,314,335.34,321.29,383,321.91,387.05,322.83,388,327,388.47Z" transform="translate(-238.99 -185.44)"/><path class="cls-5" d="M531,489.18q9.48-9.62,18.94-19.24c1.12-1.14,2-.82,3,.18,11.58,11.62,23.46,23,34.67,34.95,5.81,6.21,7,14,3.28,22.11-.93.22-1.87.41-2.79.66-9.34,2.46-17.73,1-24.76-6-4.92-4.93-9.86-9.83-14.76-14.78C542.65,501.11,536.82,495.13,531,489.18Z" transform="translate(-238.99 -185.44)"/><path class="cls-6" d="M531,489.18c5.85,5.95,11.68,11.93,17.56,17.86,4.9,4.95,9.84,9.85,14.76,14.78,7,7,15.42,8.48,24.76,6,.92-.25,1.86-.44,2.79-.66-6.37,13-22.89,15.94-33.13,5.81-11.19-11.09-22.26-22.3-33.46-33.37-1.57-1.55-1.8-2.56,0-4.06C526.56,493.54,528.73,491.31,531,489.18Z" transform="translate(-238.99 -185.44)"/><path class="cls-7" d="M521.68,485c-.43-.38-.83-.7-1.19-1.06-4.71-4.71-9.37-9.45-14.14-14.1-1.17-1.15-1-1.71.18-2.71a119.64,119.64,0,0,0,14.32-14.33c1-1.21,1.65-1.25,2.76-.12,4.65,4.76,9.37,9.45,14.1,14.13.82.81,1.1,1.35.11,2.32-5.05,5-10,10-15.06,15A13,13,0,0,1,521.68,485Z" transform="translate(-238.99 -185.44)"/><path class="cls-8" d="M327,388.47c-4.18-.46-5.1-1.42-5.72-5.49-7.31-47.64,20-93.75,64.35-110.14,37-13.67,71.4-7.75,102,17.23,20.09,16.43,31.84,38.06,35.37,63.73A101.55,101.55,0,0,1,444.9,467.13C394.73,478.44,344.8,451.69,327,404.55c-1.52-4-1.2-5.12,2.17-7.62,3.46-.44,5.26,1.3,6.45,4.43a90.75,90.75,0,0,0,20.86,32.08,3.83,3.83,0,0,0,.79-.66A76.57,76.57,0,0,1,383.84,409c1.51-.82,1.34-1.4.38-2.58a44.19,44.19,0,0,1-9.44-19.78,2.87,2.87,0,0,0-2.84-2.69,15.44,15.44,0,0,1-12.72-14.54c-.34-6.65,2.77-11.44,8.27-15.1l-1.65-1.36c-9.7-7.75-13.76-18-13.46-30.22.13-5.43,3.39-7.25,8.17-4.79a33.48,33.48,0,0,0,8.7,3.17,4.7,4.7,0,0,0,4.87-1.6q3.92-4.27,8-8.43c3.69-3.77,4.23-3.85,8.87-1.69.67,2.07,1.35,4.27-.31,6.09a161,161,0,0,1-11.82,12.25c-4.26,3.77-9.46,3.33-14.6,1.7-1.16-.37-2.75-1.12-2.07,1.41,2.26,8.45,7,14.92,15.26,18.28a48.86,48.86,0,0,0,25.82,2.75c11.35-1.61,20.72-6.63,27.79-15.66,4-5.07,6.45-5.14,10.19,0,2.38,3.28,4.69,6.66,8.42,8.63,1.27,1.84,3.29,2.72,5.07,3.87,7,4.56,7.87,4.31,10.8-3.43,4.11-10.86,2.09-23.45-5.54-30a12,12,0,0,0-11.58-2.8,12.63,12.63,0,0,0-3.8.48,4.78,4.78,0,0,1-5.87-2.13c-1.79-2.95-4.55-4.51-7.67-5.49-8.31-2.64-16.69-2.82-24.87.31-3.17,1.21-5.75,1.19-8.31-1-.14-5.57.19-6,5.68-8,7.45-2.72,15.16-2.87,22.87-1.95,6.57.78,12.77,2.84,17.53,7.84,1,1,1.88.55,2.93.43,10.43-1.17,18.83,2.19,24.42,11.35,7.24,11.85,7.06,24.16,1.82,36.63-.83,2-1,2.89,1.17,4.16A15.39,15.39,0,0,1,481.65,371c-1.42,7-6.13,11.82-13,13-1.57.27-2.05.79-2.37,2.33a44.81,44.81,0,0,1-9,19.32c-1.09,1.36-1.09,1.94.53,2.76,9.44,4.74,17.22,11.57,24.11,19.48l4.69,6.36c28-25.84,36.25-69.76,19.42-105.33-12.27-25.93-32.43-42.94-60.29-50.5a84.67,84.67,0,0,0-37.28-2.17c-31.22,5.1-54.31,21.74-69,49.62-9.06,17.16-12,35.6-9.21,54.86C330.74,384,330.6,386.93,327,388.47ZM443.77,418.1a1.21,1.21,0,0,0-.42,1.36c-3,13.78-16.09,21.74-28.91,17.35-7.91-2.7-12.73-8.37-14.87-16.42-.93-3.51-6.39-6-9.53-4.36a65.58,65.58,0,0,0-22.11,17.87c-5.78,7.37-5.46,5.39,1.38,10.15,20.59,14.32,43.48,19.22,68.15,15.28a83.13,83.13,0,0,0,34.93-13.81c1.78-1.18,3.54-2.41,5.36-3.54,1.64-1,1.68-1.94.55-3.58a70.15,70.15,0,0,0-25.07-22.17c-4.57-2.45-5.63-2.23-9.48,1.86Zm-19.24-3.89a1.66,1.66,0,0,0,1.63-.42l.17.08.13-.12a10.91,10.91,0,0,0,2.23-.15C443,409.86,452.5,401,456.74,386.77c2.4-8.06,1-16.41,1.36-24.63,0-1.21-.64-1.64-1.61-2.05a81.07,81.07,0,0,1-10.05-5.62,60.07,60.07,0,0,1-8.8-8c-1.38-1.67-2.12-1.3-3.44.05a48.67,48.67,0,0,1-15.58,10.6c-10.34,4.5-21.13,5.28-32.13,3.81-2.92-.39-4,0-3.79,3.22.29,4.06,0,8.15.08,12.23C383.05,399.45,401.55,416.18,424.53,414.21Zm8.32,7.81a51,51,0,0,1-22.56.6c3,4.12,6.52,6.08,11.11,6.07C426.28,428.68,429.9,426.52,432.85,422Zm34.41-47.15c3.42-.89,5.07-3,5.33-6a6.28,6.28,0,0,0-3.51-6.36c-1.06-.59-1.83-.68-1.82.91C467.27,367.17,467.26,370.88,467.26,374.87Zm-93.66,0c0-4,0-7.67,0-11.38,0-1.5-.58-1.59-1.74-.93a6.27,6.27,0,0,0-3.47,6.32C368.65,371.94,370.29,373.9,373.6,374.87Z" transform="translate(-238.99 -185.44)"/><path class="cls-9" d="M391,309.34c-4.64-2.16-5.18-2.08-8.87,1.69q-4.05,4.16-8,8.43a4.7,4.7,0,0,1-4.87,1.6,33.48,33.48,0,0,1-8.7-3.17c-4.78-2.46-8-.64-8.17,4.79-.3,12.17,3.76,22.47,13.46,30.22l1.65,1.36c-5.5,3.66-8.61,8.45-8.27,15.1a15.44,15.44,0,0,0,12.72,14.54,2.87,2.87,0,0,1,2.84,2.69,44.19,44.19,0,0,0,9.44,19.78c1,1.18,1.13,1.76-.38,2.58a76.57,76.57,0,0,0-26.6,23.83,3.83,3.83,0,0,1-.79.66,90.75,90.75,0,0,1-20.86-32.08c-1.19-3.13-3-4.87-6.45-4.43L327,388.47c3.59-1.54,3.73-4.49,3.26-7.78-2.76-19.26.15-37.7,9.21-54.86,14.72-27.88,37.81-44.52,69-49.62a84.67,84.67,0,0,1,37.28,2.17c.79,2,2.89,1.94,4.42,2.77,15.73,8.54,28.79,20,38.12,35.39,10.8,17.9,15.92,37.1,14.35,58.15a97.47,97.47,0,0,1-11.08,38.87c-2.69,5.08-5.44,10.18-9.63,14.29-6.89-7.91-14.67-14.74-24.11-19.48-1.62-.82-1.62-1.4-.53-2.76a44.81,44.81,0,0,0,9-19.32c.32-1.54.8-2.06,2.37-2.33,6.83-1.17,11.54-6,13-13a15.39,15.39,0,0,0-7.36-15.92c-2.17-1.27-2-2.17-1.17-4.16,5.24-12.47,5.42-24.78-1.82-36.63-5.59-9.16-14-12.52-24.42-11.35-1.05.12-2,.58-2.93-.43-4.76-5-11-7.06-17.53-7.84-7.71-.92-15.42-.77-22.87,1.95-5.49,2-5.82,2.43-5.68,8A19.83,19.83,0,0,0,391,309.34Z" transform="translate(-238.99 -185.44)"/><path class="cls-5" d="M391,309.34a19.83,19.83,0,0,1,6.91-4.75c2.56,2.17,5.14,2.19,8.31,1,8.18-3.13,16.56-2.95,24.87-.31,3.12,1,5.88,2.54,7.67,5.49a4.78,4.78,0,0,0,5.87,2.13,12.63,12.63,0,0,1,3.8-.48c-.18,1.33.58,2.17,1.4,3.07a19.18,19.18,0,0,1,3.77,6.29c3.12,8.44.79,15.93-3.92,23-3.73-2-6-5.35-8.42-8.63-3.74-5.14-6.23-5.07-10.19,0-7.07,9-16.44,14-27.79,15.66a48.86,48.86,0,0,1-25.82-2.75c-8.25-3.36-13-9.83-15.26-18.28-.68-2.53.91-1.78,2.07-1.41,5.14,1.63,10.34,2.07,14.6-1.7a161,161,0,0,0,11.82-12.25C392.31,313.61,391.63,311.41,391,309.34Z" transform="translate(-238.99 -185.44)"/><path class="cls-10" d="M472.39,445.52a83.13,83.13,0,0,1-34.93,13.81c-24.67,3.94-47.56-1-68.15-15.28-6.84-4.76-7.16-2.78-1.38-10.15A65.58,65.58,0,0,1,390,416c3.14-1.61,8.6.85,9.53,4.36,2.14,8.05,7,13.72,14.87,16.42,12.82,4.39,25.94-3.57,28.91-17.35a1.21,1.21,0,0,0,.42-1.36h0a20.42,20.42,0,0,1,2,1A81.39,81.39,0,0,1,472.39,445.52Z" transform="translate(-238.99 -185.44)"/><path class="cls-11" d="M426.46,413.75l-.13.12-.17-.08a1.54,1.54,0,0,0-1.63.42c-23,2-41.48-14.76-41.75-37.81,0-4.08.21-8.17-.08-12.23-.23-3.21.87-3.61,3.79-3.22,11,1.47,21.79.69,32.13-3.81a48.67,48.67,0,0,0,15.58-10.6c1.32-1.35,2.06-1.72,3.44-.05a60.07,60.07,0,0,0,8.8,8c0,3.52.1,7,0,10.56-.06,1.62.73,3.42-.73,4.85-6.72-2.35-11.91,1.21-10.91,7.48.72,4.45,4.58,6.44,10.14,5.23.93.52.94,1.34.75,2.23a43.28,43.28,0,0,1-15.94,25.64C428.51,411.41,426.86,412,426.46,413.75Zm-5.89-12.08a13.87,13.87,0,0,0,12.85-8.61c1.2-2.93.48-5.34-2-6.57s-4.83-.34-6.27,2.56c-1,2-2.2,3.37-4.58,3.41s-3.81-1.41-4.85-3.5c-1.36-2.76-3.68-3.65-6-2.57-2.52,1.16-3.3,3.52-2.16,6.52A13.74,13.74,0,0,0,420.57,401.67ZM399.23,369a6.9,6.9,0,0,0-7,7.11,7.14,7.14,0,0,0,7.08,7.16,7.46,7.46,0,0,0,7.15-7.21A7.22,7.22,0,0,0,399.23,369Z" transform="translate(-238.99 -185.44)"/><path class="cls-12" d="M482,427.85c4.19-4.11,6.94-9.21,9.63-14.29a97.47,97.47,0,0,0,11.08-38.87c1.57-21.05-3.55-40.25-14.35-58.15-9.33-15.43-22.39-26.85-38.12-35.39-1.53-.83-3.63-.76-4.42-2.77,27.86,7.56,48,24.57,60.29,50.5,16.83,35.57,8.55,79.49-19.42,105.33Z" transform="translate(-238.99 -185.44)"/><path class="cls-13" d="M445.69,369.88c1.46-1.43.67-3.23.73-4.85.12-3.52,0-7,0-10.56a81.07,81.07,0,0,0,10.05,5.62c1,.41,1.66.84,1.61,2.05-.34,8.22,1,16.57-1.36,24.63C452.5,401,443,409.86,428.69,413.6a10.91,10.91,0,0,1-2.23.15c.4-1.78,2.05-2.34,3.27-3.29a43.28,43.28,0,0,0,15.94-25.64c.19-.89.18-1.71-.75-2.23C450,378.37,450.24,374.66,445.69,369.88Z" transform="translate(-238.99 -185.44)"/><path class="cls-6" d="M449.64,344.79c4.71-7.1,7-14.59,3.92-23a19.18,19.18,0,0,0-3.77-6.29c-.82-.9-1.58-1.74-1.4-3.07A12,12,0,0,1,460,315.2c7.63,6.58,9.65,19.17,5.54,30-2.93,7.74-3.78,8-10.8,3.43C452.93,347.51,450.91,346.63,449.64,344.79Z" transform="translate(-238.99 -185.44)"/><path class="cls-14" d="M472.39,445.52a81.39,81.39,0,0,0-26.64-26.47,20.42,20.42,0,0,0-2-1c3.85-4.09,4.91-4.31,9.48-1.86A70.15,70.15,0,0,1,478.3,438.4c1.13,1.64,1.09,2.56-.55,3.58C475.93,443.11,474.17,444.34,472.39,445.52Z" transform="translate(-238.99 -185.44)"/><path class="cls-15" d="M432.85,422c-3,4.5-6.57,6.66-11.45,6.67-4.59,0-8.07-1.95-11.11-6.07A51,51,0,0,0,432.85,422Z" transform="translate(-238.99 -185.44)"/><path class="cls-16" d="M467.26,374.87c0-4,0-7.7,0-11.41,0-1.59.76-1.5,1.82-.91a6.28,6.28,0,0,1,3.51,6.36C472.33,371.9,470.68,374,467.26,374.87Z" transform="translate(-238.99 -185.44)"/><path class="cls-16" d="M373.6,374.87c-3.31-1-5-2.93-5.2-6a6.27,6.27,0,0,1,3.47-6.32c1.16-.66,1.75-.57,1.74.93C373.58,367.2,373.6,370.9,373.6,374.87Z" transform="translate(-238.99 -185.44)"/><path class="cls-13" d="M424.53,414.21a1.54,1.54,0,0,1,1.63-.42A1.66,1.66,0,0,1,424.53,414.21Z" transform="translate(-238.99 -185.44)"/><path class="cls-14" d="M443.77,418.1a1.21,1.21,0,0,1-.42,1.36A1.21,1.21,0,0,1,443.77,418.1Z" transform="translate(-238.99 -185.44)"/><path class="cls-2" d="M420.57,401.67a13.74,13.74,0,0,1-13-8.76c-1.14-3-.36-5.36,2.16-6.52,2.36-1.08,4.68-.19,6,2.57,1,2.09,2.32,3.55,4.85,3.5s3.6-1.44,4.58-3.41c1.44-2.9,3.8-3.79,6.27-2.56s3.18,3.64,2,6.57A13.87,13.87,0,0,1,420.57,401.67Z" transform="translate(-238.99 -185.44)"/><path class="cls-2" d="M399.23,369a7.22,7.22,0,0,1,7.2,7.06,7.46,7.46,0,0,1-7.15,7.21,7.14,7.14,0,0,1-7.08-7.16A6.9,6.9,0,0,1,399.23,369Z" transform="translate(-238.99 -185.44)"/><path class="cls-2" d="M445.69,369.88c4.55,4.78,4.32,8.49-.77,12.71-5.56,1.21-9.42-.78-10.14-5.23C433.78,371.09,439,367.53,445.69,369.88Z" transform="translate(-238.99 -185.44)"/></svg>