<svg id="Layer_1" data-name="Layer 1" xmlns="http://www.w3.org/2000/svg" viewBox="0 0 372.48 384.1"><defs><style>.cls-1{fill:#abdee9;}.cls-2{fill:#070c0a;}.cls-3{fill:#76cddd;}.cls-4{fill:#a9dce8;}.cls-5{fill:#9acc7a;}.cls-6{fill:#85c562;}.cls-7{fill:#84c461;}.cls-8{fill:#fbe15a;}.cls-9{fill:#4bc3d6;}.cls-10{fill:#090b08;}.cls-11{fill:#fbdd31;}.cls-12{fill:#e2dee2;}.cls-13{fill:#090808;}.cls-14{fill:#eb6160;}.cls-15{fill:#f5f4f4;}</style></defs><title>l-3</title><path class="cls-1" d="M456.05,458.92l-1.37.83c-1.62-4.41-3.31-5.32-7.85-4.72-6.29.85-12.54,2.09-18.94,1.84a196.32,196.32,0,0,1-35.63-16.37,187,187,0,0,1-45.68-38.15c-4.19-4.86-8.75-9.53-11.43-15.54,2.26-4,4.44-8.21,4-13s.94-9.33,2.43-13.83q3.16-9.53,6.21-19.11c3.35-10.6,1.06-20.21-8-26.62a29.4,29.4,0,0,1-12.77-20.42,23.89,23.89,0,0,0-.75-2.88c-2.66-8.85-8.42-14.39-17.42-16.69-2.68-.69-5.52-.14-8.09-1.33,1-7,.87-14,2.18-21,1.12-5.94,2.07-11.91,3.09-17.87,6.95-1.55,12-6.34,17.48-10.37,7.29-5.37,9.8-13.6,6-21.8-2.63-5.72-2.93-11.44-2.5-17.43,11.15-17.68,24.18-33.76,40.51-47,1.74-1.41,3.43-2.88,5.18-4.28a1.86,1.86,0,0,1,2.42-.15c.94.75.3,1.54-.18,2.29-.79,1.26-1.53,2.57-2.32,3.83-11.62,18.53-17.7,38.89-19.33,60.55a120.13,120.13,0,0,0,2.34,34.92c6.34,28.78,20,53.38,42.29,73a131.19,131.19,0,0,0,46.21,26.77c6.86,2.25,9.56,6.2,9.56,13.45q0,42.72,0,85.46C453.76,442,453.09,450.61,456.05,458.92Zm-14.34-64.47c11.74-10.86,9.6-11.57,3.32-21.54a1.25,1.25,0,0,0-.27-.24c3-3.37,3.57-6,1.27-8.58a115.64,115.64,0,0,0-10.39-10.26c-3.13-2.68-7.09-3.37-11.23-3.1-5.41.34-9.19,3.44-12.72,7.1-1.93,2-3.89,3.74-7.09,3.39-9.1-1-15.86,3.75-18.45,12.69-2.67,9.21.47,17,8.72,21,7.81,3.82,15.74,7.41,23.62,11.1a18.13,18.13,0,0,0,5.38,1.42c5.23.68,9.73-1.72,14.37-3.37C443.23,402.32,444.21,399.31,441.71,394.45Z" transform="translate(-237.68 -84.75)"/><path class="cls-2" d="M300.8,273c2.57,1.19,5.41.64,8.09,1.33,9,2.3,14.76,7.84,17.42,16.69a23.89,23.89,0,0,1,.75,2.88,29.4,29.4,0,0,0,12.77,20.42c9,6.41,11.33,16,8,26.62q-3,9.58-6.21,19.11c-1.49,4.5-2.87,8.93-2.43,13.83s-1.76,8.94-4,13c-3.92,4.53-8.49,8.52-14.57,9-9.19.73-16.13,6-23.86,10.13a12,12,0,0,0,1,1.36,171.3,171.3,0,0,0,48.91,34.48,169.36,169.36,0,0,0,63,15.52c6.06.32,12.19.79,18.25-.44,6.4.25,12.65-1,18.94-1.84,4.54-.6,6.23.31,7.85,4.72.06,4.21-2.48,6-6.23,6.55a190.57,190.57,0,0,1-53,1.08c-27.14-3.37-52.27-12.23-75.08-27.24-41.59-27.38-68.49-65.29-78.76-114.1-17.92-85.17,26.21-169.23,106.22-203.57a180.16,180.16,0,0,1,27.22-9c5.14-1.29,7.31,0,9,5-.65,3.48-2.78,5.22-6.21,6A169.85,169.85,0,0,0,317.12,153c-2.28,1.66-2.35,2.59-.08,4.21,7.54,5.4,10.8,12.78,9.91,22a43.54,43.54,0,0,0,.12,5.23c-.43,6-.13,11.71,2.5,17.43,3.78,8.2,1.27,16.43-6,21.8-5.47,4-10.53,8.82-17.48,10.37-5.41.19-10.34-1-14.56-4.63s-5.66-3.94-10.64-1.16-10.1,4.07-15.77,2.92c-1.33-.28-2.75-.07-4.11-.26-1.52-.21-2.17.45-2.64,1.82A181.43,181.43,0,0,0,250.53,265c-.31,2,.14,2.79,2.36,3,8.3.79,16.58,1.88,24.87,2.76C285.44,271.53,293.12,272.22,300.8,273Zm11.95-55.45c7.9-5.1,8.62-7.1,5.13-14.21s-2.46-14.7-2.1-22.06c.34-7.11-1.39-12.52-7.38-16.74-2.21-1.56-3.22-1.77-5.16,0a173.31,173.31,0,0,0-31.08,38.63,125.41,125.41,0,0,0-8.32,16.24c6.83,1.4,6.83,1.4,12.67-1.63q11.5-6,21.2,2c4.82,4,6.44,4,11.52.43C310.44,219.37,311.58,218.41,312.75,217.5Zm14.87,158.22c-.5-8.92,2.37-17.14,5.26-25.36.91-2.57,1.62-5.21,2.45-7.82,4.24-13.29,3.81-14.91-7.19-23.32A26.18,26.18,0,0,1,318.06,304c-.54-2.3-1.1-4.59-1.7-6.87-2.5-9.43-5.67-11.93-15.49-12.25a9.39,9.39,0,0,0-1.76-.54c-15.74-1.72-31.49-3.36-47.22-5.19-2.68-.31-2.83.86-2.87,2.88a188,188,0,0,0,2.09,32.84A165.1,165.1,0,0,0,285,392.75c3.68,4.69,3.72,4.64,9,1.71,7.48-4.18,14.68-8.91,23.64-9.67C323,384.34,326.37,381.05,327.62,375.72Z" transform="translate(-237.68 -84.75)"/><path class="cls-3" d="M327.07,184.5a43.54,43.54,0,0,1-.12-5.23c.89-9.26-2.37-16.64-9.91-22-2.27-1.62-2.2-2.55.08-4.21a169.85,169.85,0,0,1,60.74-28.49c3.43-.83,5.56-2.57,6.21-6l20.18-2.89c-11.42,10.75-21.17,22.76-28.36,36.81-36.08,70.49,3.76,157.39,80.78,176.07,6.25,1.51,6.25,1.51,6.25,8.07,0,7.49,0,15,0,22.48,0,4.86,1.08,6.21,5.84,7.76q0,6.2.07,12.39c-4.49,1-5.89,2.54-5.9,7.13q-.06,29.34,0,58.67c0,4.3,1.3,8.29,2.9,12.21-3.34.16-6.39,1.88-9.78,1.74-3-8.31-2.29-16.95-2.3-25.53q0-42.74,0-85.46c0-7.25-2.7-11.2-9.56-13.45A131.19,131.19,0,0,1,398,307.71c-22.3-19.65-36-44.25-42.29-73a120.13,120.13,0,0,1-2.34-34.92c1.63-21.66,7.71-42,19.33-60.55.79-1.26,1.53-2.57,2.32-3.83.48-.75,1.12-1.54.18-2.29a1.86,1.86,0,0,0-2.42.15c-1.75,1.4-3.44,2.87-5.18,4.28C351.25,150.74,338.22,166.82,327.07,184.5Z" transform="translate(-237.68 -84.75)"/><path class="cls-2" d="M593.24,294.88c3.65,1.51,4.78,4.26,4.41,8.08q-7.47,76.37-66.25,125.65c-3,2.51-5.89,3.69-9.35,1.09-2.54-4.52-2.22-6.38,2.06-9.84a177.61,177.61,0,0,0,25.35-25.35c1.44-1.74,1.39-2.81-.12-4.36Q544,384.63,539,378.87a12.16,12.16,0,0,1-.65-15.78,6.12,6.12,0,0,0,1.26-5.78c-1.5-6.62,0-12.22,5.74-16.5,4.39-3.27,8.45-7,12.66-10.5a13.25,13.25,0,0,1,9.65-3.26c3.85.26,7.73.35,11.56.82,2.47.31,3.16-.65,3.65-2.89,1.69-7.8,2.62-15.69,3.55-23.6C586.94,296.47,588.07,295.43,593.24,294.88ZM568,338.44c-1.45-.48-2.51.31-3.6,1.25a132.89,132.89,0,0,1-10.64,8.81c-3.08,2.12-3.73,4.55-2.91,7.91,1.08,4.46.57,8.69-2.59,12.25-1.25,1.41-1.23,2.48.07,3.82,2.51,2.6,5,5.22,7.3,8,1.73,2.09,2.6,2.13,4.16-.32a177.72,177.72,0,0,0,17.73-36.41c1.62-4.6,1.56-4.59-3.49-4.82C572,338.85,570,338.62,568,338.44Z" transform="translate(-237.68 -84.75)"/><path class="cls-4" d="M593.24,294.88c-5.17.55-6.3,1.59-6.87,6.5-.93,7.91-1.86,15.8-3.55,23.6-.49,2.24-1.18,3.2-3.65,2.89-3.83-.47-7.71-.56-11.56-.82a13.25,13.25,0,0,0-9.65,3.26c-4.21,3.52-8.27,7.23-12.66,10.5-5.77,4.28-7.24,9.88-5.74,16.5a6.12,6.12,0,0,1-1.26,5.78,12.16,12.16,0,0,0,.65,15.78q5.07,5.75,10.39,11.28c1.51,1.55,1.56,2.62.12,4.36a177.61,177.61,0,0,1-25.35,25.35c-4.28,3.46-4.6,5.32-2.06,9.84l-3.73,2.38c0-27.72-.16-55.44,0-83.15,0-7.54,2-11.74,10.51-14.66a130.46,130.46,0,0,0,58.55-39.87c1.69-2,2.7-4.89,5.65-5.73Z" transform="translate(-237.68 -84.75)"/><path class="cls-3" d="M593.06,288.67c-2.95.84-4,3.73-5.65,5.73a130.46,130.46,0,0,1-58.55,39.87c-8.5,2.92-10.46,7.12-10.51,14.66-.19,27.71-.05,55.43,0,83.15l-9,5.9q-.06-28.67-.11-57.32,0-23.79,0-47.58c0-1.76-.23-3.28,2.3-3.83,34.66-7.51,61.16-26.65,80.12-56.48a5.57,5.57,0,0,1,.73-.81A74.75,74.75,0,0,1,593.06,288.67Z" transform="translate(-237.68 -84.75)"/><path class="cls-3" d="M427.89,456.87c-6.06,1.23-12.19.76-18.25.44a169.36,169.36,0,0,1-63-15.52,171.3,171.3,0,0,1-48.91-34.48,12,12,0,0,1-1-1.36c7.73-4.11,14.67-9.4,23.86-10.13,6.08-.49,10.65-4.48,14.57-9,2.68,6,7.24,10.68,11.43,15.54a187,187,0,0,0,45.68,38.15A196.32,196.32,0,0,0,427.89,456.87Z" transform="translate(-237.68 -84.75)"/><path class="cls-3" d="M300.8,273c-7.68-.73-15.36-1.42-23-2.23-8.29-.88-16.57-2-24.87-2.76-2.22-.21-2.67-1-2.36-3a181.43,181.43,0,0,1,7.82-32.17c.47-1.37,1.12-2,2.64-1.82,1.36.19,2.78,0,4.11.26,5.67,1.15,10.8-.13,15.77-2.92s6.28-2.58,10.64,1.16,9.15,4.82,14.56,4.63c-1,6-2,11.93-3.09,17.87C301.67,258.91,301.84,266,300.8,273Z" transform="translate(-237.68 -84.75)"/><path class="cls-2" d="M441.71,394.45c2.5,4.86,1.52,7.87-3.47,9.65-4.64,1.65-9.14,4-14.37,3.37a18.13,18.13,0,0,1-5.38-1.42c-7.88-3.69-15.81-7.28-23.62-11.1-8.25-4-11.39-11.83-8.72-21,2.59-8.94,9.35-13.67,18.45-12.69,3.2.35,5.16-1.4,7.09-3.39,3.53-3.66,7.31-6.76,12.72-7.1,4.14-.27,8.1.42,11.23,3.1A115.64,115.64,0,0,1,446,364.09c2.3,2.55,1.71,5.21-1.27,8.58-3.2,1.37-5.74.45-8-2.05s-4.46-4.72-6.84-6.92-5.49-2.26-8,0c-1.48,1.33-2.83,2.82-4.31,4.15a17.38,17.38,0,0,1-13.34,4.69c-4.33-.32-6.36.9-7.37,4.52-1.11,4-.06,6.32,3.8,8.16,5.28,2.52,10.77,4.63,15.81,7.55,5.86,3.39,11.49,4.11,17.56.89A6.5,6.5,0,0,1,441.71,394.45Z" transform="translate(-237.68 -84.75)"/><path class="cls-5" d="M441.71,394.45a6.5,6.5,0,0,0-7.66-.78c-6.07,3.22-11.7,2.5-17.56-.89-5-2.92-10.53-5-15.81-7.55-3.86-1.84-4.91-4.16-3.8-8.16,1-3.62,3-4.84,7.37-4.52a17.38,17.38,0,0,0,13.34-4.69c1.48-1.33,2.83-2.82,4.31-4.15,2.52-2.27,5.52-2.32,8,0s4.66,4.52,6.84,6.92,4.81,3.42,8,2.05a1.25,1.25,0,0,1,.27.24C451.31,382.88,453.45,383.59,441.71,394.45Z" transform="translate(-237.68 -84.75)"/><path class="cls-6" d="M327.62,375.72c-1.25,5.33-4.63,8.62-10,9.07-9,.76-16.16,5.49-23.64,9.67-5.24,2.93-5.28,3-9-1.71a165.1,165.1,0,0,1-33.9-77.89A188,188,0,0,1,249,282c0-2,.19-3.19,2.87-2.88,15.73,1.83,31.48,3.47,47.22,5.19a9.39,9.39,0,0,1,1.76.54c-.65,2.89.65,5.64.63,8.49-.07,7.35,1.44,14.52,2.67,21.7a176,176,0,0,0,13.44,42.45C320.45,363.82,323.32,370.18,327.62,375.72Z" transform="translate(-237.68 -84.75)"/><path class="cls-7" d="M312.75,217.5c-1.17.91-2.31,1.87-3.52,2.73-5.08,3.62-6.7,3.55-11.52-.43q-9.68-8-21.2-2c-5.84,3-5.84,3-12.67,1.63a125.41,125.41,0,0,1,8.32-16.24,173.31,173.31,0,0,1,31.08-38.63c1.94-1.82,2.95-1.61,5.16,0,6,4.22,7.72,9.63,7.38,16.74-.36,7.36-1.35,15,2.1,22.06-.89,1.63-2.09,3.17-2.6,4.91C314.36,211.27,311.92,214,312.75,217.5Z" transform="translate(-237.68 -84.75)"/><path class="cls-5" d="M327.62,375.72c-4.3-5.54-7.17-11.9-10-18.21a176,176,0,0,1-13.44-42.45c-1.23-7.18-2.74-14.35-2.67-21.7,0-2.85-1.28-5.6-.63-8.49,9.82.32,13,2.82,15.49,12.25.6,2.28,1.16,4.57,1.7,6.87a26.18,26.18,0,0,0,10.08,15.23c11,8.41,11.43,10,7.19,23.32-.83,2.61-1.54,5.25-2.45,7.82C330,358.58,327.12,366.8,327.62,375.72Z" transform="translate(-237.68 -84.75)"/><path class="cls-5" d="M312.75,217.5c-.83-3.54,1.61-6.23,2.53-9.3.51-1.74,1.71-3.28,2.6-4.91C321.37,210.4,320.65,212.4,312.75,217.5Z" transform="translate(-237.68 -84.75)"/><path class="cls-5" d="M568,338.44c2.06.18,4,.41,6,.5,5,.23,5.11.22,3.49,4.82a177.72,177.72,0,0,1-17.73,36.41c-1.56,2.45-2.43,2.41-4.16.32-2.29-2.79-4.79-5.41-7.3-8-1.3-1.34-1.32-2.41-.07-3.82,3.16-3.56,3.67-7.79,2.59-12.25-.82-3.36-.17-5.79,2.91-7.91a132.89,132.89,0,0,0,10.64-8.81C565.45,338.75,566.51,338,568,338.44Z" transform="translate(-237.68 -84.75)"/><path class="cls-8" d="M465.17,115.27l-1.61.26C464,114.79,464.54,114.76,465.17,115.27Z" transform="translate(-237.68 -84.75)"/><path class="cls-9" d="M440.13,278.32l.89.65Z" transform="translate(-237.68 -84.75)"/><path class="cls-10" d="M509.37,438c-.13,4,.3,8.06-.49,11.9-2.08,10.09-8.44,16.61-18.55,18.51-9.64,1.8-17.56-1.78-23.37-9.77-.36-.5-.75-1-1.13-1.44-1.6-3.92-2.9-7.91-2.9-12.21q0-29.33,0-58.67c0-4.59,1.41-6.16,5.9-7.13,4.51,1.23,5.39,2.39,5.4,7.51q0,27.93,0,55.86a31.79,31.79,0,0,0,.21,4.48,11.82,11.82,0,0,0,12.45,10.46,12,12,0,0,0,11.06-12c0-37.11,0-74.23.09-111.34,0-2.64-1-2.82-3.08-2.56a66.25,66.25,0,0,1-17.57,0c-2.83-.4-3.27.76-3.23,3.26.15,8.12-.06,16.24.11,24.36.08,4.12-1.45,6.69-5.53,7.6-4.76-1.55-5.82-2.9-5.84-7.76,0-7.49,0-15,0-22.48,0-6.56,0-6.56-6.25-8.07-77-18.68-116.86-105.58-80.78-176.07,7.19-14.05,16.94-26.06,28.36-36.81,14.61-12.45,31-21.61,49.59-26.6a134.55,134.55,0,0,1,17.56-3.45c.68-.09,1.55.22,1.85-.79h24c5.3,1,10.67,1.67,15.88,3,49.31,12.59,80.87,43.58,93.35,92.77,7.93,31.23,2.8,61.31-13.1,89.44-.36.65-.65,1.33-1,2a5.57,5.57,0,0,0-.73.81c-19,29.83-45.46,49-80.12,56.48-2.53.55-2.3,2.07-2.3,3.83q0,23.79,0,47.58Q509.29,409.32,509.37,438ZM496.53,96.78c-11.91-1.82-23.63-.44-35.27,2.13-66.17,14.62-104.61,86.24-80.17,149.35a112.68,112.68,0,0,0,104.7,72.48c4.69,0,9.46.09,14.08-1.17,2.92.32,5.73-.47,8.51-1,57.83-12,97-66.19,89.15-124.35-5.15-38-25.16-66.38-58.73-84.94A97.43,97.43,0,0,0,496.53,96.78Z" transform="translate(-237.68 -84.75)"/><path class="cls-8" d="M496.53,96.78a97.43,97.43,0,0,1,42.27,12.46c33.57,18.56,53.58,47,58.73,84.94,7.88,58.16-31.32,112.37-89.15,124.35-2.78.57-5.59,1.36-8.51,1-1.72-.22-3.43.05-5.16-.57-10.27-3.71-19.57-9.19-28.49-15.39a4.12,4.12,0,0,1-1.9-2.21c14,2.73,27.92,3.21,41.95.16,49.51-10.76,84.42-59.5,73.09-112.71-11.22-52.69-61.51-84.65-114-73.54.52-3.18,3.51-3.88,5.61-5.35C478.86,104.41,487.75,100.7,496.53,96.78Z" transform="translate(-237.68 -84.75)"/><path class="cls-11" d="M496.53,96.78c-8.78,3.92-17.67,7.63-25.59,13.18-2.1,1.47-5.09,2.17-5.61,5.35l-.16,0c-.63-.51-1.18-.48-1.61.26a4.23,4.23,0,0,1-.95.56,94.29,94.29,0,0,0-46,27.14c-3.35,3.53-3.53,5.28-.95,9.57a78.63,78.63,0,0,0-7,10.35c-5-1-6.41-.3-8.55,4.28A93.31,93.31,0,0,0,391.38,218c2.88,26.5,14.85,48,35.4,64.87,11.07,9.07,23.85,14.73,37.54,18.53a4.12,4.12,0,0,0,1.9,2.21c8.92,6.2,18.22,11.68,28.49,15.39,1.73.62,3.44.35,5.16.57-4.62,1.26-9.39,1.2-14.08,1.17a112.68,112.68,0,0,1-104.7-72.48c-24.44-63.11,14-134.73,80.17-149.35C472.9,96.34,484.62,95,496.53,96.78Z" transform="translate(-237.68 -84.75)"/><path class="cls-12" d="M468.84,379.17q0-6.19-.07-12.39c4.08-.91,5.61-3.48,5.53-7.6-.17-8.12,0-16.24-.11-24.36,0-2.5.4-3.66,3.23-3.26a66.25,66.25,0,0,0,17.57,0c2-.26,3.08-.08,3.08,2.56-.1,37.11-.05,74.23-.09,111.34a12,12,0,0,1-11.06,12A11.82,11.82,0,0,1,474.47,447a31.79,31.79,0,0,1-.21-4.48q0-27.93,0-55.86C474.23,381.56,473.35,380.4,468.84,379.17Z" transform="translate(-237.68 -84.75)"/><path class="cls-10" d="M464.32,301.4c-13.69-3.8-26.47-9.46-37.54-18.53C406.23,266,394.26,244.5,391.38,218a93.31,93.31,0,0,1,8.71-50.57c2.14-4.58,3.56-5.24,8.55-4.28,3.55,3.41,3.72,4.63,1.5,9.52-10.9,23.92-10.9,47.9.17,71.69a77.63,77.63,0,0,0,29.83,34v0l.89.65c.81.56,1.58,1.19,2.43,1.68q28.89,16.8,61.54,9.61c45.76-10,75.34-58.55,62.21-103.47C556.88,151.5,533,130.62,496.5,125.2c-20.23-3-39.08,1.65-56.19,13A65.47,65.47,0,0,0,424.87,151c-2.76,3.06-5.65,3.74-9.23,1.85-2.58-4.29-2.4-6,.95-9.57a94.29,94.29,0,0,1,46-27.14,4.23,4.23,0,0,0,.95-.56l1.61-.26.16,0c52.52-11.11,102.81,20.85,114,73.54,11.33,53.21-23.58,102-73.09,112.71C492.24,304.61,478.29,304.13,464.32,301.4Z" transform="translate(-237.68 -84.75)"/><path class="cls-9" d="M415.64,152.8c3.58,1.89,6.47,1.21,9.23-1.85a65.47,65.47,0,0,1,15.44-12.78,6.32,6.32,0,0,1-.6,2.11A108,108,0,0,0,428,161a117.49,117.49,0,0,0-8.53,66.28c2.38,15.56,8.14,30,16.27,43.42,1.51,2.52,3.86,4.57,4.43,7.64a77.63,77.63,0,0,1-29.83-34c-11.07-23.79-11.07-47.77-.17-71.69,2.22-4.89,2.05-6.11-1.5-9.52A78.63,78.63,0,0,1,415.64,152.8Z" transform="translate(-237.68 -84.75)"/><path class="cls-3" d="M440.14,278.35c-.57-3.07-2.92-5.12-4.43-7.64-8.13-13.47-13.89-27.86-16.27-43.42A117.49,117.49,0,0,1,428,161a108,108,0,0,1,11.74-20.73,6.32,6.32,0,0,0,.6-2.11c17.11-11.32,36-16,56.19-13,36.51,5.42,60.38,26.3,70.7,61.59,13.13,44.92-16.45,93.47-62.21,103.47q-32.67,7.14-61.54-9.61c-.85-.49-1.62-1.12-2.43-1.68l-.89-.65Zm80-60.22c5.16,1.57,6.79,1,9.34-3.86A48.37,48.37,0,0,0,534.86,184c-3.78-26.37-29.9-45.41-56-40.54a48.42,48.42,0,0,0-31,76c4,5.72,8.07,11.41,12.31,17,6.87,9,13,18.14,14.69,29.74.9,6,6.66,10,12.4,9.88a13,13,0,0,0,12.24-9.79c.74-2.76,1.32-5.56,1.95-8.35,1.8-8,7.29-13.77,11.73-20.2,3-4.33,3-5.49-.18-9.58Z" transform="translate(-237.68 -84.75)"/><path class="cls-13" d="M513,228c3.18,4.09,3.17,5.25.18,9.58-4.44,6.43-9.93,12.24-11.73,20.2-.63,2.79-1.21,5.59-1.95,8.35A13,13,0,0,1,487.23,276c-5.74.09-11.5-3.85-12.4-9.88-1.73-11.6-7.82-20.78-14.69-29.74-4.24-5.54-8.31-11.23-12.31-17a48.42,48.42,0,0,1,31-76c26.14-4.87,52.26,14.17,56,40.54a48.37,48.37,0,0,1-5.35,30.31c-2.55,4.82-4.18,5.43-9.34,3.86-2.78-3.06-2.35-6.06-.48-9.55,7.39-13.75,5.52-29.51-4.65-41.51a36.93,36.93,0,0,0-58.87,44.36c4.54,6.86,9.42,13.52,14.43,20,7.06,9.19,13.29,18.71,14.7,30.59.12,1,.48,2.15,1.63,2.26,1.47.14,1.81-1.25,1.93-2.29,1.4-12.18,7.95-21.83,15.17-31.18C507,227.08,508.46,226.53,513,228Z" transform="translate(-237.68 -84.75)"/><path class="cls-14" d="M513,228c-4.51-1.5-6-.95-8.94,2.83-7.22,9.35-13.77,19-15.17,31.18-.12,1-.46,2.43-1.93,2.29-1.15-.11-1.51-1.25-1.63-2.26-1.41-11.88-7.64-21.4-14.7-30.59-5-6.53-9.89-13.19-14.43-20A36.93,36.93,0,0,1,515,167.07c10.17,12,12,27.76,4.65,41.51-1.87,3.49-2.3,6.49.48,9.55Zm-1.2-36.72a24.52,24.52,0,0,0-24.17-24.82c-14.05-.1-25.3,10.79-25.36,24.52a25.08,25.08,0,0,0,24.68,25A24.78,24.78,0,0,0,511.77,191.31Z" transform="translate(-237.68 -84.75)"/><path class="cls-13" d="M511.77,191.31A24.78,24.78,0,0,1,486.92,216a25.08,25.08,0,0,1-24.68-25c.06-13.73,11.31-24.62,25.36-24.52A24.52,24.52,0,0,1,511.77,191.31Zm-11.35-.4a13.37,13.37,0,1,0-26.73.5,13.37,13.37,0,1,0,26.73-.5Z" transform="translate(-237.68 -84.75)"/><path class="cls-15" d="M500.42,190.91a13.37,13.37,0,1,1-26.73.5,13.37,13.37,0,1,1,26.73-.5Z" transform="translate(-237.68 -84.75)"/></svg>