<svg id="Layer_1" data-name="Layer 1" xmlns="http://www.w3.org/2000/svg" viewBox="0 0 409.6 345.67"><defs><style>.cls-1{fill:#55c9ec;}</style></defs><title>loading</title><path class="cls-1" d="M308.68,419.78c7.73-1.57,12.84-7.83,12.92-15.94.06-5.71.16-11.43,0-17.14-.24-9.31-10-16.54-19-14.3-7.41,1.83-11.11,7.06-13,14v20.8c1.08.61.95,1.84,1.37,2.77C294.21,417.24,301.39,421.26,308.68,419.78Z" transform="translate(-289.6 -224.79)"/><path class="cls-1" d="M689.9,416.67c-6.14-2.92-13-1.73-18.36,3.53-9.81,9.6-19.51,19.32-29.23,29-2.13,2.13-4.18,4.33-7.1,7.37,0-3,0-4.65,0-6.32-.15-21.52,0-43.06-.58-64.57-.33-11.28-2.6-22.45-5.43-33.39-7.21-27.86-21.56-51.81-40.82-72.92a160.6,160.6,0,0,0-26.22-22.63C547,246,530.76,237.6,512.85,232.5a16.67,16.67,0,0,0-2.17-1c-27.78-7.7-55.76-9-84.06-2.95A171.82,171.82,0,0,0,366.3,254a15.85,15.85,0,0,0-4.64,22.15c5.15,7.62,14.24,9.27,22.94,4.18,6.06-3.55,11.89-7.45,18.33-10.38a141.61,141.61,0,0,1,55.15-13,143.49,143.49,0,0,1,54.72,9.27,140.08,140.08,0,0,1,58.26,42.14c21.35,26.08,31.85,56.21,32.11,89.88.14,18,0,36,0,54,0,1.09.51,2.35-.83,3.67q-16.26-16-32.44-31.84a45.49,45.49,0,0,0-5.69-5,15.71,15.71,0,0,0-22.84,5c-3.84,6.47-2.73,14.15,3.23,20,13.47,13.3,26.95,26.58,40.59,39.69a48.06,48.06,0,0,0,33.92,13.77c13.27.12,24.49-5.31,33.85-14.13,14.15-13.34,27.8-27.22,41.59-40.94a15.14,15.14,0,0,0,4.61-9.93A16,16,0,0,0,689.9,416.67Z" transform="translate(-289.6 -224.79)"/><path class="cls-1" d="M464.42,538.53c-6.08-.55-12.2-.84-18.3-.87a15.79,15.79,0,0,0-15.68,15c-.52,8.21,5.6,15.94,13.78,16.79,4.34.46,8.69,1.31,12.41.92,2.81,0,4.95.12,7.07,0a16,16,0,0,0,14.7-15.58C478.53,546.53,472.42,539.25,464.42,538.53Z" transform="translate(-289.6 -224.79)"/><path class="cls-1" d="M338.38,299a15.41,15.41,0,0,0-20.56,4.34,87.21,87.21,0,0,0-9.95,17.23,15.63,15.63,0,0,0,14.7,21.94,14.2,14.2,0,0,0,12.85-6.64,165.46,165.46,0,0,0,9.39-16.2C348.65,312,345.76,303.33,338.38,299Z" transform="translate(-289.6 -224.79)"/><path class="cls-1" d="M334.34,456.87a14.81,14.81,0,0,0-11.8-7.2c-12.1-.09-20.22,10.63-16.59,20.84a70.2,70.2,0,0,0,9.8,18.2c5.47,7.35,14.38,9,21.53,4.51s9.44-13.47,5.18-21.72C339.91,466.54,337.25,461.62,334.34,456.87Z" transform="translate(-289.6 -224.79)"/><path class="cls-1" d="M395.71,522a173.15,173.15,0,0,0-16.2-10.17c-7.47-4.09-16.33-1.43-20.81,5.79a15.86,15.86,0,0,0,4,21,125.12,125.12,0,0,0,15.52,9.76c11.09,5.74,23.52-1.82,23.5-12.09C401.78,529.29,399.87,524.93,395.71,522Z" transform="translate(-289.6 -224.79)"/></svg>