<svg id="Layer_1" data-name="Layer 1" xmlns="http://www.w3.org/2000/svg" viewBox="0 0 383.98 383.98"><title>Loader</title><path d="M492,226.5c.95.49,1.89,1,2.86,1.47,7.23,3.39,11.3,9,11.33,17q.17,37.68,0,75.37a18.72,18.72,0,0,1-37.44,0q-.07-36.93,0-73.87c0-9.67,4.11-15.67,13.1-19.23a5.31,5.31,0,0,0,1.13-.78Z" transform="translate(-295.5 -226.5)"/><path d="M295.5,414a57.45,57.45,0,0,1,3.52-6.41,17.66,17.66,0,0,1,15-7.81q37.68,0,75.37,0a18.72,18.72,0,0,1,0,37.44q-36.94.07-73.87,0c-9.65,0-15.72-4.16-19.24-13.11a5.51,5.51,0,0,0-.78-1.12Z" transform="translate(-295.5 -226.5)"/><path d="M608.47,559.72c-3.55.06-8.07-1.78-11.78-5.49-17.68-17.65-35.4-35.27-53-53a18.78,18.78,0,1,1,26.62-26.5q26.63,26.39,53,53a18.38,18.38,0,0,1,4,20.74C624.32,555.34,617.78,559.64,608.47,559.72Z" transform="translate(-295.5 -226.5)"/><path d="M554.76,367.68c-5.6-.18-11.57-3.72-14.82-11s-2.44-14.47,3.15-20.17Q570,309,597.4,282.13c7.31-7.18,18.9-6.62,26,.56a18.47,18.47,0,0,1,.35,26c-17.87,18.18-36,36.12-54,54.09C566.31,366.21,562,367.71,554.76,367.68Z" transform="translate(-295.5 -226.5)"/><path d="M346.23,542.13c0-6.29,1.82-10.71,5.43-14.32q26.46-26.55,53-53a18.8,18.8,0,1,1,26.75,26.43Q404.91,528,378.13,554.49a18.23,18.23,0,0,1-20.79,3.67C350.05,554.79,346.52,548.89,346.23,542.13Z" transform="translate(-295.5 -226.5)"/><path d="M623.28,399.76c12.37,0,24.73,0,37.1,0,10.93,0,19.11,8.1,19.1,18.76s-8.21,18.68-19.17,18.7q-37.09,0-74.19,0c-10.92,0-19.11-8.12-19.1-18.77s8.21-18.66,19.17-18.69C598.55,399.74,610.92,399.76,623.28,399.76Z" transform="translate(-295.5 -226.5)"/><path d="M506.24,554.22c0,12.36,0,24.73,0,37.09,0,11-8.06,19.16-18.7,19.17s-18.74-8.19-18.76-19.11q0-37.1,0-74.19c0-10.95,8.07-19.16,18.7-19.16s18.72,8.15,18.76,19.1C506.26,529.49,506.24,541.85,506.24,554.22Z" transform="translate(-295.5 -226.5)"/><path d="M370.46,320.09c.27-7.81,3.88-13.64,10.94-16.89s14.23-2.61,19.9,2.75q15.93,15,31,31c6.7,7.09,5.84,18.6-1.08,25.44s-18.63,7.41-25.76.55c-10.26-9.86-20.24-20-30.21-30.18A16.87,16.87,0,0,1,370.46,320.09Z" transform="translate(-295.5 -226.5)"/></svg>