<svg id="Layer_1" data-name="Layer 1" xmlns="http://www.w3.org/2000/svg" viewBox="0 0 206.65 318.77"><defs><style>.cls-1{fill:#e53a50;}.cls-2{fill:#0f0a0a;}.cls-3{fill:#cce2f4;}.cls-4{fill:#110707;}.cls-5{fill:#fdfdfd;}</style></defs><title>location</title><path class="cls-1" d="M294.06,308.72a40.26,40.26,0,0,1,5.33,8.49c-2.84,2.3-3.23,5.06-1.71,8.3a69,69,0,0,1,5,14.39c.83,3.73,2.87,5.64,6.71,5.6l1.08,9.9c-3.18.69-5.15,2.52-5.19,5.91-.21,17.69-5.88,34.05-12.53,50.09-14.12,34.08-33.6,65.13-54.46,95.36-6,8.72-12.33,17.22-18.62,26-.65-.72-1-1.05-1.3-1.44a728.75,728.75,0,0,1-44.87-66.81c-14.38-24.44-27.35-49.54-35.24-77-5.63-19.56-5.66-38.84,1.83-57.93,15-38.12,54.19-60.52,94.41-53.44a83,83,0,0,1,50.41,29.27C287.38,308.35,289.81,310.91,294.06,308.72ZM178.34,360.79c0,23,18.64,41.83,41.22,41.66a41.5,41.5,0,1,0-41.22-41.66Z" transform="translate(-116.47 -264.21)"/><path class="cls-2" d="M294.06,308.72c-4.25,2.19-6.68-.37-9.14-3.32a83,83,0,0,0-50.41-29.27c-40.22-7.08-79.45,15.32-94.41,53.44-7.49,19.09-7.46,38.37-1.83,57.93,7.89,27.44,20.86,52.54,35.24,77a728.75,728.75,0,0,0,44.87,66.81c.29.39.65.72,1.3,1.44,6.29-8.75,12.61-17.25,18.62-26,20.86-30.23,40.34-61.28,54.46-95.36,6.65-16,12.32-32.4,12.53-50.09,0-3.39,2-5.22,5.19-5.91,4.69,1.21,5.49,2.45,5.4,7.41-.32,18.67-6.37,35.93-13.3,52.89-12,29.4-28.3,56.48-45.72,82.93-.72,1.09-1.84,2-1.82,3.64,14.82,2.2,29.37,5.28,43.06,11.51,6.62,3,12.85,6.65,17.94,12,9.27,9.63,9.47,20.83.4,30.62-8.21,8.86-18.87,13.66-30.06,17.41C264.85,581,242.56,583,220,583c-24.06,0-47.75-2.58-70.64-10.59-3.86-1.35-6-3.36-5.38-7.61,1.87-3.12,4.49-4.08,7.93-2.83,22.1,8,45,10.42,68.36,10.38,22.43,0,44.52-2.34,65.84-9.81,8-2.8,15.8-6.14,21.95-12.28,5.79-5.78,5.82-11.43.14-17.28-3.87-4-8.64-6.69-13.63-9-14.26-6.68-29.52-9.46-45-11.65-2.07-.29-2.81,1-3.78,2.32q-10.49,14.35-21,28.64c-3.54,4.78-6.81,4.81-10.46.19C207,534,200,524.3,193.13,514.48c-1.1-1.57-2.08-2.53-4.2-2.12-6.72,1.3-13.53,2.17-20.19,3.7-12.41,2.84-24.53,6.57-34.83,14.5-8.86,6.82-9.16,13.58-.92,21,2.85,2.58,3.58,5.21,1.83,8.57-3,2.37-5.75,2.15-8.7-.36-13.13-11.2-12.85-26.37.78-37.25,8.93-7.13,19.31-11.29,30.09-14.5a174.53,174.53,0,0,1,27.2-5.64c0-1.61-1.22-2.63-2-3.79-17.58-26.8-34-54.25-45.9-84.12-6.28-15.75-11.77-31.76-12.66-48.92-2.52-49,32.46-92.57,81-100.05,36.16-5.57,65.9,6.83,89.6,34.35C297.15,303.28,297,305,294.06,308.72Z" transform="translate(-116.47 -264.21)"/><path class="cls-3" d="M134.82,560.14c1.75-3.36,1-6-1.83-8.57-8.24-7.43-7.94-14.19.92-21,10.3-7.93,22.42-11.66,34.83-14.5,6.66-1.53,13.47-2.4,20.19-3.7,2.12-.41,3.1.55,4.2,2.12C200,524.3,207,534,214.37,543.43c3.65,4.62,6.92,4.59,10.46-.19q10.59-14.26,21-28.64c1-1.33,1.71-2.61,3.78-2.32,15.43,2.19,30.69,5,45,11.65,5,2.34,9.76,5,13.63,9,5.68,5.85,5.65,11.5-.14,17.28-6.15,6.14-13.94,9.48-21.95,12.28-21.32,7.47-43.41,9.77-65.84,9.81-23.32,0-46.26-2.39-68.36-10.38-3.44-1.25-6.06-.29-7.93,2.83A33.67,33.67,0,0,0,134.82,560.14Z" transform="translate(-116.47 -264.21)"/><path class="cls-2" d="M309.4,345.5c-3.84,0-5.88-1.87-6.71-5.6a69,69,0,0,0-5-14.39c-1.52-3.24-1.13-6,1.71-8.3,4.31-1,6.22-.13,8,3.79a89.89,89.89,0,0,1,5.58,16.07C314.07,341.83,313.57,343.18,309.4,345.5Z" transform="translate(-116.47 -264.21)"/><path class="cls-4" d="M178.34,360.79a41.41,41.41,0,1,1,41.22,41.66C197,402.62,178.33,383.77,178.34,360.79Zm41.23,30.83a30.82,30.82,0,0,0,.56-61.63c-17-.12-31.07,13.53-31.18,30.2C188.84,377.76,202.23,391.5,219.57,391.62Z" transform="translate(-116.47 -264.21)"/><path class="cls-5" d="M219.57,391.62c-17.34-.12-30.73-13.86-30.62-31.43.11-16.67,14.2-30.32,31.18-30.2a30.82,30.82,0,0,1-.56,61.63Z" transform="translate(-116.47 -264.21)"/></svg>