<svg id="Layer_1" data-name="Layer 1" xmlns="http://www.w3.org/2000/svg" viewBox="0 0 384.04 307.07"><defs><style>.cls-1{fill:#0f0908;}.cls-2{fill:#f16470;}.cls-3{fill:#0f0808;}.cls-4{fill:#ee4a58;}</style></defs><title>love</title><path class="cls-1" d="M668.39,574.15c2.17,3.78,1.14,6.69-2,9.49-14.72,13-29.28,26.1-44,39.07-9.64,8.51-20.27,8.42-29.9-.14Q520.23,558.31,448.06,494c-17.95-16-28.68-36.11-31.81-60.1-.07-.51-.17-1-.75-1.11v-22.5c1.83-4.2,1.8-8.81,3-13.17,7.06-26.27,21.76-46.88,45-61.22,3.94-2.43,5.94-2.13,9.19,1.08,1.32,4.57.75,6.1-3.33,8.68-24.94,15.74-39,38.3-41.93,67.6-2.8,28.37,6.67,52.48,27.6,71.51,33.06,30.08,66.65,59.58,100,89.3q20.55,18.29,41.22,36.45c1.09,1,2.15,2.06,3.25,3,6,5.38,9.9,5.4,15.94,0q21.54-19.1,43.07-38.2C662.78,571.59,663.51,571.57,668.39,574.15Z" transform="translate(-415.5 -321.97)"/><path class="cls-2" d="M596.26,610.48Q575.65,592.26,555,574c-33.4-29.72-67-59.22-100-89.3-20.93-19-30.4-43.14-27.6-71.51,2.89-29.3,17-51.86,41.93-67.6,4.08-2.58,4.65-4.11,3.33-8.68l13.77-5.46c2.08,4.29,3.68,5,8.3,4.09,23.2-4.68,45.18-1.61,65.42,11,20.42,12.7,33.59,30.81,39.28,54.26.58,2.41,1.17,4.84,3.34,6.51,4.68,3.59,10.81,1.25,12.3-5,3.48-14.57,9.69-27.77,19.78-38.87,18.57-20.42,41.52-30.87,69.39-29.63a14.85,14.85,0,0,0,2.23,1.32,82.58,82.58,0,0,1,33.76,24.72C758,381.47,765.55,406.37,762,434.34a86.59,86.59,0,0,1-12.57,34.86c-5.95,9.63-13.62,17.7-22.2,25.06-8.31,7.13-16.26,14.69-24.44,22-10.22,9.1-20.55,18.08-30.78,27.16-7.73,6.87-15.34,13.85-23.07,20.71q-15.48,13.77-31.07,27.41Q607.06,601,596.26,610.48Z" transform="translate(-415.5 -321.97)"/><path class="cls-3" d="M704.23,333.81c-27.87-1.24-50.82,9.21-69.39,29.63-10.09,11.1-16.3,24.3-19.78,38.87-1.49,6.26-7.62,8.6-12.3,5-2.17-1.67-2.76-4.1-3.34-6.51-5.69-23.45-18.86-41.56-39.28-54.26-20.24-12.59-42.22-15.66-65.42-11-4.62.93-6.22.2-8.3-4.09-.3-4.06,1.67-6.08,5.61-7a99.16,99.16,0,0,1,113.85,59c.43,1,.82,2.06,1.27,3.21,1.54-.51,1.41-2,1.85-3,15.49-35.15,42.26-56,80.25-60.92,50.69-6.6,98,27.72,108,77.6,7.4,36.9-2.82,68.45-30.53,93.8-25.79,23.61-52.2,46.54-78.3,69.82-3,2.64-5.8,3.15-9,.71-2.3-4.19-2-5.9,1.42-9.17,1-.94,2-1.86,3.05-2.77,25.66-22.85,51.56-45.44,76.92-68.63,18.1-16.55,27.35-37.61,27.39-62.19,0-23.25-7.81-43.86-23.6-61C748.39,343.42,728.21,334.26,704.23,333.81Z" transform="translate(-415.5 -321.97)"/><path class="cls-4" d="M704.23,333.81c24,.45,44.16,9.61,60.31,27.14,15.79,17.14,23.64,37.75,23.6,61,0,24.58-9.29,45.64-27.39,62.19-25.36,23.19-51.26,45.78-76.92,68.63-1,.91-2.05,1.83-3.05,2.77-3.46,3.27-3.72,5-1.42,9.17l-11,9.44c-4.88-2.58-5.61-2.56-9.87,1.22q-21.57,19.07-43.07,38.2c-6,5.36-10,5.34-15.94,0-1.1-1-2.16-2-3.25-3q10.8-9.48,21.59-19,15.55-13.68,31.07-27.41c7.73-6.86,15.34-13.84,23.07-20.71,10.23-9.08,20.56-18.06,30.78-27.16,8.18-7.29,16.13-14.85,24.44-22,8.58-7.36,16.25-15.43,22.2-25.06A86.59,86.59,0,0,0,762,434.34c3.57-28-4-52.87-21.76-74.49a82.58,82.58,0,0,0-33.76-24.72A14.85,14.85,0,0,1,704.23,333.81Z" transform="translate(-415.5 -321.97)"/></svg>