<svg id="Layer_1" data-name="Layer 1" xmlns="http://www.w3.org/2000/svg" viewBox="0 0 458.69 414.35"><defs><style>.cls-1{fill:#e4f5fa;}.cls-2{fill:#464848;}.cls-3{fill:#a8a8a8;}.cls-4{fill:#b4def1;}.cls-5{fill:#fefefe;}.cls-6{fill:#99cc68;}.cls-7{fill:#efc545;}.cls-8{fill:#ced9e0;}.cls-9{fill:#96caeb;}.cls-10{fill:#fff;}.cls-11{fill:#e87c7c;}.cls-11,.cls-12{stroke:#414042;stroke-miterlimit:10;stroke-width:2px;}.cls-12{fill:#f1f3f4;}.cls-13{fill:#5a6775;}.cls-14{fill:#fafbfb;}</style></defs><title>maintain record</title><path class="cls-1" d="M1082.28,289.84c13.41,49.84-54.4,102.74-58.87,108.92-1.56,2.16,6.17-47.37-1.41-67.7-2.15-5.77-41.72-5.4-68.1-5.38-1.74,0,1-23-2.72-23.76-29.56-6-64.12-24.45-64.12-24.45s-63.38,30.93-67.17,23c0,0-21.19-3.32-25.66-5.6-42.72-21.77-26.54-96-20.69-101,30.1-25.46,125.13-36.57,159.22-8.6C966.29,212.78,1073.62,257.65,1082.28,289.84Z" transform="translate(-654.23 -168.88)"/><path class="cls-2" d="M896.52,544.19H705.58c-1.33,0-2.66,0-4,0-1.18,0-2.52,0-2.39-1.72.1-1.33,1.25-1.34,2.26-1.39.33,0,.67,0,1,0,8.91-.48,8.91-.49,8.91-9.57V418c0-8,1.5-9.48,9.69-9.49,8,0,16-.16,24,.07,3.38.1,4.11-1.09,4.09-4.26-.13-22.33-.08-44.66-.06-67,0-9.36,2.52-11.86,11.82-11.87,18.16,0,36.32-.1,54.48.08,3.55,0,4.55-.94,4.38-4.43-.29-5.82,0-11.66-.14-17.49-.08-2.77,1-3.87,3.64-4.23a163,163,0,0,0,60.89-21.08c2.18-1.28,3.86-1.09,6,.13a162.84,162.84,0,0,0,60.42,20.91c2.86.39,4,1.57,3.89,4.53-.19,5.82.12,11.66-.13,17.48-.14,3.25.83,4.2,4.13,4.17,18.32-.16,36.65-.08,55-.07,8.81,0,11.55,2.74,11.56,11.63,0,29,0,58,0,87,0,3.34.46,5.23,4.31,6.27,9,2.43,14.22,9.78,14.41,19.27.05,2.57-.22,4.6,3.44,5.27s4.5,4,4.49,7.46c0,11.66.11,23.33-.17,35-.07,2.78.57,3.36,3.1,3.44,3.27.09,7.31-1.48,9.62.79,2.13,2.1.63,6,.67,9.16,0,2.56.87,3.63,3.49,3.48,2.83-.17,5.69.2,8.49-.1,4.15-.43,5.43,2,4.32,5-1.35,3.78,4.59,10.33-4,11.32-4.11.48-6.88,5.82-4.63,9.5.88,1.44,2.34,1,3.6,1,4.83,0,9.67,0,14.5,0,1.23,0,3.07-.45,3,1.59s-1.86,1.45-3.11,1.52c-1,.05-2,0-3,0Zm105-86.47-1.18.58a3.29,3.29,0,0,0-1.74,3.31c0,11.64-.05,23.28,0,34.91,0,3.1,1.61,4.57,4.81,4,13.15,0,26.3,0,39.45.13,4.12,0,5.59-1.85,5.54-5.8q-.17-15.74,0-31.48c0-3.94-1.42-5.89-5.52-5.86-13.15.1-26.3.09-39.45.12Zm-96.23,83.15a5.9,5.9,0,0,0,5.28-.61l-6-4c-1.51-2.43-3.85-2.7-6.45-2.69-10.27.07-20.55.33-30.81-.1-4.78-.2-6.71,1.15-6.1,5.87-1,2,0,2,1.5,1.55Zm-43.66-13.56c-.34,1.56-.56,3.15,1.74,3.16,11.89,0,23.78,0,36.36,0-3.45-6.61-5.19-12.8-5-19.38.08-2.48-1.29-2.67-3.12-2.67-9,0-18,.11-27,0-3.21-.06-3.7,1.35-3,4A84,84,0,0,0,861.62,527.31Zm154.82-188.09c2,0,4.37,1.41,5.7-1,1.84-3.35-1.63-8.77-5.85-9.45-19.56-.08-39.12-.53-58.68.23-.94-.29-2.35-.77-2.67.18a16.92,16.92,0,0,0-.09,9.64c.24.89,1.74.42,2.69.29Zm-200,0c1.12.15,2.77.74,3.05-.63a19.09,19.09,0,0,0-.11-9.32c-.38-1.27-2-.81-3.09-.48q-28.69-.07-57.39-.13a8.32,8.32,0,0,0-3,.3c-3.89,1.48-4.22,4.82-3.92,8.27.32,3.67,3.3,2,5,2C776.84,339.32,796.63,339.24,816.43,339.2Zm-63.81,72.48h-2.23q-15.69,0-31.4,0c-6.13,0-4.13,4.6-4.62,7.89-.53,3.62,1.39,4,4.33,3.94,21.6-.12,43.2-.12,64.8-.15,1.54.33,3.39.42,3.06-1.71-.5-3.29,2.43-7.64-2.64-9.7ZM924.5,430.63l-21,11.92a27.31,27.31,0,0,0-8.52,3.7c-5.28,2.85-10.57,2.65-15.85,0a24.32,24.32,0,0,0-7.19-3.25l-20.35-10.78a8.68,8.68,0,0,0-4.58-3.09c-5.31-4.27-10.91-8.19-15.57-13.23-7.61-8.23-12.41-17.38-12-29.13.51-13.31,0-26.65.17-40,0-3-.45-4.46-4-4.43-20.16.13-40.31.07-60.47-.05-2.69,0-3.36.95-3.35,3.48q.13,29.24,0,58.47c0,3.16,1,4.34,4.36,4.25,8.32-.24,16.65-.13,25-.11,6.69,0,8.52,1.83,8.54,8.63,0,17.33,0,34.65,0,52,0,6.45,0,6.47,6.47,6.47h186.4c12.53,0,12.53,0,12.74-12.68,0-.5,0-1,0-1.5.16-3.32,1.64-6.05,4.93-6.7,3-.59,3.05-2.19,3.08-4.54.16-10.12,4.69-16.81,14.23-19.95,3.66-1.2,4.42-3.08,4.4-6.44q-.12-38.48,0-77c0-3.09-.59-4.32-4.08-4.3q-29.48.22-59-.09c-3.91,0-4.62,1.38-4.57,4.93.21,13-.31,26,.2,39,.48,11.89-4.19,21.25-12,29.66-4.66,5-10.36,8.82-15.44,13.34Zm-209.67-3.46c-.15,1.81-.42,3.61-.42,5.42q0,28,0,55.92,0,17,0,34c0,2-.41,4.34,2.94,3.6,16.46,0,32.92,0,49.38.21,3.16,0,3.88-1.25,3.82-4.15-.16-7.65,0-15.3,0-22.95,0-8.2,1.65-10.07,9.88-9.85,4.6.13,6.12-1.47,6.06-6-.23-16.8-.36-33.6-.1-50.39.07-5-1.24-6.63-6.37-6.56-20.28.26-40.58.09-60.87.11C717.67,426.48,716.09,426,714.83,427.17Zm108-78.33c0,13.34.12,26.67,0,40a31.13,31.13,0,0,0,6,18.68,60.75,60.75,0,0,0,12,12.66c13.12,10.49,27.81,18.2,43.34,24.43,1.62.65,3.17,1.06,4.82.38,18.71-7.74,36.77-16.64,51.17-31.33,6.28-6.42,11-13.88,11-23.37,0-27.83,0-55.66.06-83.49,0-3.06-.8-4.19-4-4.74-20.33-3.45-39.69-9.82-57.55-20.32-2-1.19-3.5-1-5.44.12-17.89,10.42-37.22,16.86-57.58,20.2-3.37.55-3.9,1.86-3.88,4.79C822.86,320.85,822.79,334.85,822.8,348.84Zm70.13,129.73c-32.83,0-65.65.06-98.48-.08-4.05,0-5.05,1.4-4.86,5.2.17,3.39-.16,5.83,4.73,5.74,17.83-.3,35.66-.12,53.49-.12,12.76,0,12.82,0,13.48,12.81.12,2.25.57,3.32,3.08,3.29,9.5-.12,19-.1,28.49-.05,2.2,0,3-1,3.8-3C901.84,489.5,911.45,483,925.33,482c11.22-.83,26.19,9.12,29.89,20.63.39,1.24.53,2.69,2.37,2.68,4.33,0,8.66,0,13,0a1.67,1.67,0,0,0,1.85-1.83c.1-2.9,2.18-2.89,4.27-2.88,5,0,10-.1,15,.08,2.84.09,4.21-.41,3.89-3.79a68.45,68.45,0,0,1,0-12.48c.38-4.45-.9-5.92-5.66-5.89C957.58,478.68,925.25,478.58,892.93,478.57Zm33,6.7c-15.54,0-28.36,12.22-28,27.67.34,15.19,9.92,27.91,27.86,28a27.84,27.84,0,1,0,.15-55.67ZM815.69,516.81c-12.64,0-25.29.09-37.93-.06-3.22,0-4.39.86-4.2,4.2.28,5.14.11,10.31.06,15.47,0,3.05,1.26,4.69,4.43,4.68l75.37,0c3.31,0,4.85-1.62,4.8-4.94-.06-4.32,0-8.65,0-13,0-6.33,0-6.34-6.58-6.35Q833.66,516.79,815.69,516.81Zm149.19,24.26h6c8.94,0,9.1,0,9-8.74,0-3.61.9-5.47,4.75-4.83,3.39.57,3.91-1,4.18-4.13.45-5.07-1.16-7-6.26-6.21a47.77,47.77,0,0,1-7,.05c-1.75,0-3.27-.76-2.92-2.56,1.34-7-3.13-6.53-7.63-6.23a24.05,24.05,0,0,1-4.49,0c-2.91-.33-4.17.39-3.88,3.75a26,26,0,0,1-5.57,18.71c-2.45,3.12-1.08,6.22-.48,9,.53,2.46,3.76,1,5.77,1.17C959.2,541.23,962.05,541.07,964.88,541.07ZM815.27,513.72v-.07c12.81,0,25.63-.07,38.44.05,3.26,0,4.92-.69,4.63-4.41-.25-3.05.44-5.9-4.33-5.88q-38.44.22-76.89,0c-5.55,0-3,3.93-3.45,6.35-.53,2.77.27,4.1,3.66,4C790,513.58,802.62,513.72,815.27,513.72Zm.26-13.22c12.82,0,25.65.05,38.48,0,4,0,5.52-2.71,3.62-6.11-1.36-2.44-3.66-1.93-5.75-1.93q-26.25,0-52.48,0c-7,0-14,.06-21-.06-3.44-.06-4.64,1.5-4.85,4.8-.25,3.81,2.13,3.36,4.48,3.35Zm-72.89,28.82c-8.16,0-16.32,0-24.48,0-1.13,0-2.85-.53-3.26.54-1.08,2.82-.71,5.89-.24,8.8.44,2.66,2.82,2.39,4.81,2.39h43.46c7.75,0,7.55,0,7.67-8,0-3.25-1.09-3.9-4-3.85C758.63,529.42,750.63,529.33,742.64,529.32Zm271.89-15.1c6,0,12-.21,18,.07,4,.19,3.73-2.3,3.56-4.82s1.36-5.92-3.58-5.85q-18.19.24-36.4,0c-4.72-.05-3.14,3.29-3.26,5.58s-1,5.21,3.29,5.06C1002.23,514.07,1008.38,514.22,1014.53,514.22Zm7,26.88c6.32,0,12.63-.06,18.94,0,4.48,0,2.82-3.29,2.84-5.35s1.54-5.34-2.9-5.31c-12.29.07-24.59.12-36.88,0-4.37,0-3.2,3-3.12,5.13s-1.6,5.7,3.18,5.57C1009.53,541,1015.51,541.09,1021.49,541.1Zm8.92-13.62c6,0,12-.2,17.95.07,4.07.18,3.69-2.36,3.52-4.85s1.23-5.58-3.39-5.52q-18,.21-35.91,0c-4-.06-3.75,2.32-3.59,4.89.15,2.41-1.11,5.61,3.46,5.46C1018.43,527.33,1024.42,527.47,1030.41,527.48Zm10.28-77c-.21-10.61-7.46-18-17-18.1-9.06-.12-16.84,6.93-17.2,15.9-.08,2-1.42,5.58,1.66,5.74s1.54-3.36,1.78-5.24c1-7.4,6.58-12.69,13.69-12.62s12.73,5.41,13.43,12.84c.12,1.32.09,2.65.26,4a1.35,1.35,0,0,0,1.75,1.26,2.08,2.08,0,0,0,1.36-1.14A12.33,12.33,0,0,0,1040.69,450.45Zm-50.74,80c-7.33,0-7.11,0-7.25,6.61-.07,3.49,1.29,4.4,4.39,4.07a18.15,18.15,0,0,1,4.48,0c4.54.68,5.68-1.1,5.89-5.67C997.77,528.65,993.31,530.79,990,530.48Zm-7.73-26.86c-1.9.7-5-1.48-6.46,1.43-2.51,4.93.36,9.21,5.91,9.2a15.9,15.9,0,0,1,2.49,0c4.24.64,5.48-.85,5.75-5.36C990.32,502.2,986.08,503.83,982.22,503.62Zm73.14,10.54a15.9,15.9,0,0,1,2.49,0c4.5.72,4.17-2.24,4.18-5.19s.24-5.83-4.21-5.31a58.34,58.34,0,0,1-6.48,0c-1.53,0-2.31.53-2.59,2.26C1047.6,512.88,1048.59,514.21,1055.36,514.16Zm7.81,16.5c-3.66-.22-7.64-1.38-7,4.93.38,3.55.25,6.31,5,5.5,3.54-.6,8.49,2.14,8.28-5.41C1069.32,530.28,1067,530,1063.17,530.66Zm-64.82-3.15c6.84,0,6.84,0,7.35-1.86,1.69-6-.08-8.45-6.23-8.47a33.26,33.26,0,0,1-3.46,0c-3.22-.38-4.34.94-4.33,4.19C991.7,527.51,991.53,527.51,998.35,527.51Zm73.26-.09c6.38,0,6.38,0,6.53-3.74.25-6.38.25-6.38-6.4-6.4-1.16,0-2.32.05-3.48,0-2.09-.15-2.83.72-3,2.85C1064.56,527.36,1064.56,527.45,1071.61,527.42Zm-46.82-80.9h0c0,1.67,0,3.33,0,5-.15,4,2.84,2.84,4.91,2.9s4.59.86,4.54-2.78c0-2.89-.22-5.69-2-8.07-1.64-2.16-3.8-4.69-6.43-3.88-2.15.66-.63,3.82-1,5.84A5.45,5.45,0,0,0,1024.79,446.52Zm-2.62,1c0-1.4,0-2.4,0-3.39-.07-1.45.46-3.4-1-4.12-1.63-.81-3,.69-4.33,1.69a9.07,9.07,0,0,0-3.09,3.81c-1,2.54-1.65,5.36-.43,7.73s4,1,5.93.88C1024.36,453.67,1021.14,449.42,1022.17,447.49Zm23.77,61.61c-.58-2,1.54-5.36-3.21-5.52-4.27-.15-3.94,2.42-3.81,5.12s-1.15,5.74,3.74,5.63C1047,514.24,1045.69,511.49,1045.94,509.1Zm16.31,13.17c.13-2.69.56-5.21-3.71-5.15-4.45.06-3.41,3-3.51,5.4-.11,2.64-.6,5.16,3.75,5.07C1063.29,527.51,1062.12,524.67,1062.25,522.27Zm-9,13.45c-.33-2.18,1.25-5.29-3.41-5.33s-3.46,3-3.41,5.34-1.37,5.46,3.3,5.48S1053.11,538.27,1053.29,535.72ZM941,541.28h3.24c1.38,0,2.75-.07,3-1.82.15-1,.46-2.24-.48-2.75-1.53-.82-2.25.94-3.28,1.59S941.36,539.21,941,541.28Z" transform="translate(-654.23 -168.88)"/><path class="cls-3" d="M870.24,243.44c7.16,0,14.33,0,21.49,0,1.34,0,3.45-.62,3.44,1.67,0,2-1.93,2-3.42,2q-21.74,0-43.48,0c-1.49,0-3.41.05-3.44-1.95,0-2.3,2.08-1.67,3.42-1.68C855.58,243.41,862.91,243.44,870.24,243.44Z" transform="translate(-654.23 -168.88)"/><path class="cls-3" d="M796.53,567.31c-8.3,0-16.61,0-24.91,0-1.37,0-3.54.67-3.72-1.35-.2-2.25,2-1.69,3.37-1.69q25.41-.06,50.82,0c1.25,0,3.17-.39,3.24,1.38.1,2.28-2.06,1.66-3.38,1.67C813.48,567.34,805,567.31,796.53,567.31Z" transform="translate(-654.23 -168.88)"/><path class="cls-3" d="M991.87,583.19c-4.32,0-8.63,0-13,0-1.35,0-2.9-.09-2.81-1.95.07-1.48,1.44-1.66,2.62-1.66q13.2,0,26.39,0c1.36,0,3,.16,2.81,2s-1.8,1.65-3.12,1.65C1000.5,583.21,996.18,583.19,991.87,583.19Z" transform="translate(-654.23 -168.88)"/><path class="cls-3" d="M669,462.1c-4,0-8,0-12,0-1.34,0-2.95-.16-2.78-2,.13-1.39,1.52-1.59,2.72-1.6q12.24,0,24.46,0c1.14,0,2.63-.11,2.77,1.41.15,1.74-1.31,2.18-2.71,2.19C677.32,462.14,673.16,462.1,669,462.1Z" transform="translate(-654.23 -168.88)"/><path class="cls-2" d="M680.34,544.18c-3.81,0-7.62,0-11.43,0-1.25,0-3,.33-3-1.61,0-1.54,1.47-1.49,2.66-1.49h23.84c1.16,0,2.66-.12,2.71,1.42.07,1.9-1.62,1.68-2.9,1.69C688.29,544.2,684.31,544.18,680.34,544.18Z" transform="translate(-654.23 -168.88)"/><path class="cls-3" d="M1079.56,432.32c-5.32,0-10.64,0-16,0-1.25,0-3,.26-2.87-1.74.12-1.57,1.71-1.28,2.81-1.28q16.45,0,32.93,0c.93,0,2.26-.2,2.41,1.12.18,1.58-1.2,1.85-2.35,1.86-5.66.06-11.31,0-17,0Z" transform="translate(-654.23 -168.88)"/><path class="cls-3" d="M787,570.32c4,0,8,0,12,0,1.16,0,2.57,0,2.57,1.62,0,1.28-1.22,1.42-2.22,1.42q-12.74,0-25.47,0c-1,0-2.2-.06-2.28-1.35-.11-1.67,1.27-1.68,2.44-1.69C778.29,570.31,782.62,570.32,787,570.32Z" transform="translate(-654.23 -168.88)"/><path class="cls-3" d="M831,243.25c2.06,1,6.09-1.45,6.06,2,0,3.12-4,1.73-6.26,1.78s-5.88,1.17-5.83-1.73C825,241.75,828.93,244.3,831,243.25Z" transform="translate(-654.23 -168.88)"/><path class="cls-3" d="M967.05,579.56c.83,0,1.66,0,2.48,0,1.45.07,3.37-.15,3.31,2-.05,1.71-1.77,1.66-3.08,1.69-2,0-4,0-6,0-1.23,0-3,.36-3-1.57-.08-1.75,1.46-2,2.82-2C964.74,579.51,965.9,579.56,967.05,579.56Z" transform="translate(-654.23 -168.88)"/><path class="cls-2" d="M1103.58,544.28c-1.43-.64-4.27,1.09-4.2-1.81,0-2.35,2.62-1.39,4.06-1.34s4.4-1.15,4.49,1.42C1108,545.27,1105.15,543.73,1103.58,544.28Z" transform="translate(-654.23 -168.88)"/><path class="cls-3" d="M759.6,564c1.68.72,4.76-.83,4.37,2-.34,2.39-3.35,1.16-5.17,1.25-1.46.07-4.21.78-4-1.44C755.06,562.9,758.13,565,759.6,564Z" transform="translate(-654.23 -168.88)"/><path class="cls-3" d="M953.06,583.23c-1.3-.24-3.36.48-3.17-1.84.15-1.93,2-1.83,3.43-1.82s3.41-.28,3.45,1.69C956.81,583.67,954.58,583,953.06,583.23Z" transform="translate(-654.23 -168.88)"/><path class="cls-3" d="M691.67,462.12c-1.41-.16-3.36.29-3.47-1.8-.1-1.8,1.6-1.8,2.92-1.81s3.43-.34,3.7,1.53C695.13,462.18,693.11,462,691.67,462.12Z" transform="translate(-654.23 -168.88)"/><path class="cls-3" d="M1109.39,429.22c1.34.32,3.65-.6,3.53,1.48s-2.46,1.59-4,1.6c-1.22,0-3.14.39-3.17-1.33C1105.69,428.32,1108.12,429.7,1109.39,429.22Z" transform="translate(-654.23 -168.88)"/><path class="cls-3" d="M1079.91,328.9c1.22,0,1.64.73,1.49,1.63a4.39,4.39,0,0,1-3.54,3.7c-.87.22-2-.21-1.76-1.14C1076.58,331,1078.3,329.9,1079.91,328.9Z" transform="translate(-654.23 -168.88)"/><path class="cls-3" d="M1064.73,328.81a6.58,6.58,0,0,1,3.44,3.78,1.19,1.19,0,0,1-1.32,1.6,4.8,4.8,0,0,1-3.91-3.92C1062.78,329.45,1063.6,328.84,1064.73,328.81Z" transform="translate(-654.23 -168.88)"/><path class="cls-3" d="M1073.64,328.58c-.17,1.43.32,3.27-1.5,3.36s-1.58-1.75-1.57-3-.4-3.11,1.41-3.2S1073.42,327.54,1073.64,328.58Z" transform="translate(-654.23 -168.88)"/><path class="cls-3" d="M671.17,374.29a5.67,5.67,0,0,1,3.73,3.42c.42,1-.41,1.59-1.3,1.52a4.23,4.23,0,0,1-3.81-3.26C669.48,375,670.1,374.47,671.17,374.29Z" transform="translate(-654.23 -168.88)"/><path class="cls-3" d="M677.45,393c.17-1.25-.38-3.07,1.4-3.26,2-.2,1.63,1.67,1.64,2.89s.45,3.07-1.33,3.26C677.22,396.07,677.63,394.2,677.45,393Z" transform="translate(-654.23 -168.88)"/><path class="cls-3" d="M1070.52,348c.18-1.23-.42-3.07,1.4-3.24s1.67,1.66,1.67,2.9.43,3.06-1.37,3.24C1070.22,351,1070.71,349.16,1070.52,348Z" transform="translate(-654.23 -168.88)"/><path class="cls-3" d="M1066.63,342.28c1.13.32,1.88.84,1.36,1.76-.85,1.51-1.62,3.34-3.76,3.35-.86,0-1.64-.63-1.19-1.61A7.07,7.07,0,0,1,1066.63,342.28Z" transform="translate(-654.23 -168.88)"/><path class="cls-3" d="M1081.37,345.55c0,1.27-.56,1.94-1.47,1.77a4.31,4.31,0,0,1-3.34-3.15c-.35-1.18.45-1.91,1.62-1.63A5,5,0,0,1,1081.37,345.55Z" transform="translate(-654.23 -168.88)"/><path class="cls-3" d="M684.42,379.28c-.82-.14-1.59-.44-1.39-1.21a5.26,5.26,0,0,1,3.63-3.72,1.08,1.08,0,0,1,1.47,1.34A5.77,5.77,0,0,1,684.42,379.28Z" transform="translate(-654.23 -168.88)"/><path class="cls-3" d="M671.48,392.41c-1.21-.12-2-.57-1.58-1.54a5.28,5.28,0,0,1,3.37-3.26c.92-.26,1.47.62,1.24,1.54A5.29,5.29,0,0,1,671.48,392.41Z" transform="translate(-654.23 -168.88)"/><path class="cls-3" d="M684.79,387.54c1.49.85,3,1.82,3.34,3.74.16.82-.7,1.19-1.28,1.08a4.29,4.29,0,0,1-3.35-3.14C683.23,388.34,683.67,387.67,684.79,387.54Z" transform="translate(-654.23 -168.88)"/><path class="cls-4" d="M927.2,429.23c5.08-4.52,10.78-8.3,15.44-13.34,7.76-8.41,12.43-17.77,12-29.66-.51-13,0-26-.2-39,0-3.55.66-5,4.57-4.93q29.47.32,59,.09c3.49,0,4.09,1.21,4.08,4.3q-.15,38.49,0,77c0,3.36-.74,5.24-4.4,6.44-9.54,3.14-14.07,9.83-14.23,19.95,0,2.35-.1,3.95-3.08,4.54-3.29.65-4.77,3.38-4.93,6.7,0,.5,0,1,0,1.5-.21,12.67-.21,12.68-12.74,12.68H796.22c-6.45,0-6.46,0-6.47-6.47,0-17.33,0-34.65,0-52,0-6.8-1.85-8.61-8.54-8.63-8.33,0-16.66-.13-25,.11-3.32.09-4.38-1.09-4.36-4.25q.09-29.24,0-58.47c0-2.53.66-3.49,3.35-3.48,20.16.12,40.31.18,60.47.05,3.53,0,4,1.43,4,4.43-.13,13.32.34,26.66-.17,40-.45,11.75,4.35,20.9,12,29.13,4.66,5,10.26,9,15.57,13.23l-3.66.43c-11-.08-22-.09-33-.26-2.79-.05-3.86.95-3.81,3.76.13,6.33.28,12.67,0,19-.21,4.23,1.27,5.3,5.37,5.28,27-.17,54-.09,80.95-.09,23.32,0,46.64-.08,70,.08,3.76,0,5-1.11,4.79-4.83-.27-6.15-.29-12.33,0-18.48.18-3.84-1.24-4.79-4.89-4.74C950.84,429.44,939,429.27,927.2,429.23Z" transform="translate(-654.23 -168.88)"/><path class="cls-4" d="M714.83,427.17c1.26-1.22,2.84-.69,4.27-.69,20.29,0,40.59.15,60.87-.11,5.13-.07,6.44,1.58,6.37,6.56-.26,16.79-.13,33.59.1,50.39.06,4.54-1.46,6.14-6.06,6-8.23-.22-9.86,1.65-9.88,9.85,0,7.65-.12,15.3,0,22.95.06,2.9-.66,4.18-3.82,4.15-16.46-.16-32.92-.16-49.38-.21q.07-47.51.15-95C717.5,429.12,717.4,427.32,714.83,427.17Zm56.58,40.3c0-3.49-.17-7,.05-10.46.2-3.32-1.3-5-4.36-5.54a42.46,42.46,0,0,1-14-4.84,4.49,4.49,0,0,0-5.09,0,41.68,41.68,0,0,1-14,4.88c-3.05.58-4.51,2.17-4.41,5.5.19,6.47,0,13,.05,19.44,0,9,11.53,20.63,20.63,20.88a9,9,0,0,0,3.37-.68c13.84-5.25,17.8-11,17.8-25.65Z" transform="translate(-654.23 -168.88)"/><path class="cls-5" d="M822.8,348.84c0-14,.06-28-.06-42,0-2.93.51-4.24,3.88-4.79,20.36-3.34,39.69-9.78,57.58-20.2,1.94-1.12,3.41-1.31,5.44-.12,17.86,10.5,37.22,16.87,57.55,20.32,3.19.55,4,1.68,4,4.74-.1,27.83,0,55.66-.06,83.49,0,9.49-4.74,16.95-11,23.37-14.4,14.69-32.46,23.59-51.17,31.33-1.65.68-3.2.27-4.82-.38-15.53-6.23-30.22-13.94-43.34-24.43a60.75,60.75,0,0,1-12-12.66,31.13,31.13,0,0,1-6-18.68C822.92,375.51,822.8,362.18,822.8,348.84ZM941.55,353c0-12.16-.21-24.32.12-36.47.11-4.22-1.4-6-5.27-6.8a185.57,185.57,0,0,1-45.85-16.43,6.8,6.8,0,0,0-6.67-.17,190.62,190.62,0,0,1-46.74,16.82c-3.56.79-4.73,2.49-4.7,6.19.17,23.15.48,46.31-.09,69.44-.27,10.84,4.47,18.41,12,25,11.9,10.39,25.75,17.54,40.11,23.8a5.43,5.43,0,0,0,4.74.2c14.23-6.16,28-13.2,39.86-23.33,8.2-7,13.46-15.17,12.63-26.78C941,374,941.55,363.47,941.55,353Z" transform="translate(-654.23 -168.88)"/><path class="cls-5" d="M892.93,478.57c32.32,0,64.65.11,97-.11,4.76,0,6,1.44,5.66,5.89a68.45,68.45,0,0,0,0,12.48c.32,3.38-1.05,3.88-3.89,3.79-5-.18-10-.07-15-.08-2.09,0-4.17,0-4.27,2.88a1.67,1.67,0,0,1-1.85,1.83c-4.33,0-8.66,0-13,0-1.84,0-2-1.44-2.37-2.68-3.7-11.51-18.67-21.46-29.89-20.63-13.88,1-23.49,7.54-28.67,20.39-.81,2-1.6,3-3.8,3-9.49-.05-19-.07-28.49.05-2.51,0-3-1-3.08-3.29-.66-12.81-.72-12.81-13.48-12.81-17.83,0-35.66-.18-53.49.12-4.89.09-4.56-2.35-4.73-5.74-.19-3.8.81-5.21,4.86-5.2C827.28,478.63,860.1,478.57,892.93,478.57Z" transform="translate(-654.23 -168.88)"/><path class="cls-6" d="M925.91,485.27a27.84,27.84,0,1,1-.15,55.67c-17.94-.09-27.52-12.81-27.86-28C897.55,497.49,910.37,485.27,925.91,485.27Zm18.34,17.62c-.28-.52-.4-1.15-.72-1.28-1.34-.54-2.17.44-3,1.25-4.84,4.81-9.89,9.43-14.41,14.52-3.21,3.61-5.49,3.29-8.32-.18a70.76,70.76,0,0,0-6-6c-.73-.71-1.74-1.32-2.61-.41s.11,1.82.75,2.47c3.26,3.33,6.67,6.52,9.82,10,1.93,2.09,3.31,2.08,5.25,0,5.78-6.2,11.71-12.26,17.57-18.38C943.16,504.23,943.66,503.58,944.25,502.89Z" transform="translate(-654.23 -168.88)"/><path class="cls-4" d="M879.08,446.25c5.28,2.65,10.57,2.85,15.85,0,.62.16,1.66.16,1.8.52,1.9,4.9,4.52.78,6.42.25,2.93-.82,0-2.94.3-4.47l21-11.92c1.22,2.39,3.51,1.57,5.34,1.59,10,.12,20,.16,30,0,3.4,0,4.93,1.1,4.73,4.62-.19,3.32,0,6.66,0,10,0,6.59,0,6.6-6.36,6.6H816.27c-1,0-2-.08-3,0-2.79.27-3.89-.9-3.8-3.73.15-4.49.19-9,0-13.48-.14-3.09,1-4.05,4-4,10,.12,20,0,30,0l8.06,0L871.89,443c-1.23,1-3.44,3-1.72,3.44,2.13.49,5.14,5.32,7.5.07C877.78,446.26,878.59,446.33,879.08,446.25Zm-46.36-5.35c-2.32-1.59-4-3.48-6.07-3.95-1.87-.42-3,2.27-5.2,3s2,3.57-.42,5.86c-.59.56,4.08,1.23,5.31,3.41,1.7-1,3.52-1.93,5.19-2.92S828.9,442.53,832.72,440.9Zm121.18-.34c-2.91-.63-4.42-3.48-6.61-3.51-1.44,0-2.72,2.75-5.14,3.11-.6.08,1.7,3.13.12,5.51-.54.81,4.33,1.25,5.71,3.52a24.67,24.67,0,0,1,4.5-2.89C954.12,445.47,950.2,442.47,953.9,440.56Zm-108,2.83c-.78,4.88,4.93,2.57,4.88,5.77,3.9-1.3,5.32-4.3,5.26-8.08,0-2.86-3.91-3.68-4.44-3.36C849.11,439.17,842.78,437.94,845.86,443.39Zm81.85.2c2.36-5.08-4-6.29-4.93-6.3-5.11-.06-4.38,4.9-4.65,8-.21,2.36,4.24,1.21,5.17,3.72C922.69,445.5,930.52,449,927.71,443.59Z" transform="translate(-654.23 -168.88)"/><path class="cls-5" d="M815.69,516.8h35.94c6.58,0,6.58,0,6.58,6.35,0,4.32-.05,8.65,0,13,0,3.32-1.49,4.94-4.8,4.94l-75.37,0c-3.17,0-4.46-1.63-4.43-4.68,0-5.16.22-10.33-.06-15.47-.19-3.34,1-4.24,4.2-4.2C790.4,516.9,803.05,516.81,815.69,516.8Zm-10.51,9.39c7.47,0,14.94,0,22.41,0,1.41,0,3.56.47,3.67-1.5.14-2.33-2.15-1.52-3.43-1.52q-22.67-.1-45.33,0c-1.3,0-3.58-.74-3.43,1.54.12,1.92,2.25,1.5,3.69,1.5C790.23,526.21,797.7,526.19,805.18,526.19Zm1.4,8.5v0c3.63,0,7.27,0,10.9,0,.94,0,2.17.17,2.33-1.18s-.88-1.72-1.92-1.72q-10.9-.06-21.8,0c-1,0-2,.53-1.84,1.8.14,1,1.09,1.12,1.92,1.12C799.64,534.7,803.11,534.69,806.58,534.69Zm-21.86.12c1.81-.8,5.33,1.19,5.35-1.58,0-2.51-3.51-1.49-5.47-1.48s-5.45-1.13-5.39,1.56S782.79,534.1,784.72,534.81Z" transform="translate(-654.23 -168.88)"/><path class="cls-4" d="M1003.42,457.59c13.15,0,26.3,0,39.45-.12,4.1,0,5.56,1.92,5.52,5.86q-.18,15.75,0,31.48c0,3.95-1.42,5.84-5.54,5.8-13.15-.13-26.3-.1-39.45-.13Q1003.41,479,1003.42,457.59Zm20.32,32.8c2.78.36,3.88-1.13,3.8-3.79a17.47,17.47,0,0,1,2.1-10c1.7-2.91.36-5.88-2.29-7.89a6,6,0,0,0-7.84.18c-2.59,2.06-3.88,5.14-2.06,7.95,2,3.07,2.12,6.16,2,9.47C1019.4,489.25,1020.58,490.78,1023.74,490.39Z" transform="translate(-654.23 -168.88)"/><path class="cls-5" d="M843.48,432.25c-10,0-20,.12-30,0-3,0-4.18.92-4,4,.2,4.48.16,9,0,13.48-.09,2.83,1,4,3.8,3.73,1-.09,2,0,3,0H958.15c6.36,0,6.36,0,6.36-6.6,0-3.33-.16-6.67,0-10,.2-3.52-1.33-4.66-4.73-4.62-10,.13-20,.09-30,0-1.83,0-4.12.8-5.34-1.59l2.7-1.4c11.82,0,23.64.21,35.45,0,3.65-.05,5.07.9,4.89,4.74-.29,6.15-.27,12.33,0,18.48.16,3.72-1,4.85-4.79,4.83-23.32-.16-46.64-.08-70-.08-27,0-54-.08-80.95.09-4.1,0-5.58-1.05-5.37-5.28.33-6.31.18-12.65,0-19,0-2.81,1-3.81,3.81-3.76,11,.17,22,.18,33,.26Z" transform="translate(-654.23 -168.88)"/><path class="cls-5" d="M964.88,541.07c-2.83,0-5.68.16-8.49-.06-2-.15-5.24,1.29-5.77-1.17-.6-2.75-2-5.85.48-9a26,26,0,0,0,5.57-18.71c-.29-3.36,1-4.08,3.88-3.75a24.05,24.05,0,0,0,4.49,0c4.5-.3,9-.79,7.63,6.23-.35,1.8,1.17,2.56,2.92,2.56a47.77,47.77,0,0,0,7-.05c5.1-.79,6.71,1.14,6.26,6.21-.27,3.09-.79,4.7-4.18,4.13-3.85-.64-4.79,1.22-4.75,4.83.08,8.74-.08,8.74-9,8.74Z" transform="translate(-654.23 -168.88)"/><path class="cls-4" d="M815.27,513.72c-12.65,0-25.3-.14-37.94.09-3.39.06-4.19-1.27-3.66-4,.46-2.42-2.1-6.37,3.45-6.35q38.45.16,76.89,0c4.77,0,4.08,2.83,4.33,5.88.29,3.72-1.37,4.44-4.63,4.41-12.81-.12-25.63-.05-38.44-.05Z" transform="translate(-654.23 -168.88)"/><path class="cls-5" d="M783.5,423.32c-21.6,0-43.2,0-64.8.15-2.94,0-4.86-.32-4.33-3.94.49-3.29-1.51-7.91,4.62-7.89q15.71,0,31.4,0a1.4,1.4,0,0,0,2.23,0l31.3.23ZM750.26,414a3.46,3.46,0,0,0-3.2,4,3.19,3.19,0,0,0,3.57,3.22c2.43-.11,3.45-1.7,3.3-3.95C753.79,415.22,752.46,414.16,750.26,414Z" transform="translate(-654.23 -168.88)"/><path class="cls-5" d="M816.43,339.2c-19.8,0-39.59.12-59.39,0-1.73,0-4.71,1.65-5-2-.3-3.45,0-6.79,3.92-8.27a8.32,8.32,0,0,1,3-.3q28.7,0,57.39.13A28.57,28.57,0,0,1,816.43,339.2Z" transform="translate(-654.23 -168.88)"/><path class="cls-5" d="M815.53,500.5H778c-2.35,0-4.73.46-4.48-3.35.21-3.3,1.41-4.86,4.85-4.8,7,.12,14,.05,21,.06q26.24,0,52.48,0c2.09,0,4.39-.51,5.75,1.93,1.9,3.4.43,6.08-3.62,6.11C841.18,500.55,828.35,500.5,815.53,500.5Z" transform="translate(-654.23 -168.88)"/><path class="cls-5" d="M742.64,529.32c8,0,16,.1,24-.05,2.89,0,4,.6,4,3.85-.12,7.94.08,8-7.67,8H719.47c-2,0-4.37.27-4.81-2.39-.47-2.91-.84-6,.24-8.8.41-1.07,2.13-.53,3.26-.54C726.32,529.3,734.48,529.32,742.64,529.32Z" transform="translate(-654.23 -168.88)"/><path class="cls-5" d="M957.61,329c19.56-.76,39.12-.31,58.68-.23a28.73,28.73,0,0,1,.15,10.46l-58.9-.12C957.56,335.73,957.59,332.36,957.61,329Z" transform="translate(-654.23 -168.88)"/><path class="cls-7" d="M1014.53,514.22c-6.15,0-12.3-.15-18.44,0-4.26.15-3.4-2.76-3.29-5.06s-1.46-5.63,3.26-5.58q18.2.21,36.4,0c4.94-.07,3.41,3.34,3.58,5.85s.49,5-3.56,4.82C1026.51,514,1020.52,514.22,1014.53,514.22Z" transform="translate(-654.23 -168.88)"/><path class="cls-5" d="M861.62,527.31a84,84,0,0,1,0-15c8.32,0,16.64.11,25-.1,3.74-.09,6.48.14,6.21,5a13.31,13.31,0,0,0,1.46,6.21c1.62,3.31.51,4-2.7,3.91C881.58,527.27,871.6,527.32,861.62,527.31Z" transform="translate(-654.23 -168.88)"/><path class="cls-7" d="M1021.49,541.1c-6,0-12-.13-17.94,0-4.78.13-3.1-3.33-3.18-5.57s-1.25-5.18,3.12-5.13c12.29.15,24.59.1,36.88,0,4.44,0,2.92,3.23,2.9,5.31s1.64,5.4-2.84,5.35C1034.12,541,1027.81,541.1,1021.49,541.1Z" transform="translate(-654.23 -168.88)"/><path class="cls-7" d="M1030.41,527.48c-6,0-12-.15-18,0-4.57.15-3.31-3-3.46-5.46-.16-2.57-.36-4.95,3.59-4.89q18,.24,35.91,0c4.62-.06,3.24,3.15,3.39,5.52s.55,5-3.52,4.85C1042.39,527.28,1036.39,527.48,1030.41,527.48Z" transform="translate(-654.23 -168.88)"/><path class="cls-5" d="M861.23,539.32c-.61-4.72,1.32-6.07,6.1-5.87,10.26.43,20.54.17,30.81.1,2.6,0,4.94.26,6.45,2.69l.69,4.63H862.73Z" transform="translate(-654.23 -168.88)"/><path class="cls-8" d="M714.83,427.17c2.57.15,2.67,1.95,2.66,3.91q-.09,47.49-.15,95c-3.35.74-2.94-1.63-2.94-3.6q0-17,0-34,0-28,0-55.92C714.41,430.78,714.68,429,714.83,427.17Z" transform="translate(-654.23 -168.88)"/><path class="cls-8" d="M861.62,527.31c10,0,20,0,29.93.09,3.21.05,4.32-.6,2.7-3.91a13.31,13.31,0,0,1-1.46-6.21c.27-4.89-2.47-5.12-6.21-5-8.31.21-16.63.09-25,.1-.69-2.61-.2-4,3-4,9,.15,18,.06,27,0,1.83,0,3.2.19,3.12,2.67-.2,6.58,1.54,12.77,5,19.38-12.58,0-24.47,0-36.36,0C861.06,530.46,861.28,528.87,861.62,527.31Z" transform="translate(-654.23 -168.88)"/><path class="cls-8" d="M1040.69,450.45a12.33,12.33,0,0,1-.27,2.61,2.08,2.08,0,0,1-1.36,1.14,1.35,1.35,0,0,1-1.75-1.26c-.17-1.32-.14-2.65-.26-4-.7-7.43-6.29-12.77-13.43-12.84s-12.73,5.22-13.69,12.62c-.24,1.88,1.18,5.4-1.78,5.24s-1.74-3.72-1.66-5.74c.36-9,8.14-16,17.2-15.9C1033.23,432.48,1040.48,439.84,1040.69,450.45Z" transform="translate(-654.23 -168.88)"/><path class="cls-8" d="M1003.42,457.59q0,21.45,0,42.89c-3.2.61-4.8-.86-4.81-4-.06-11.63,0-23.27,0-34.91a3.29,3.29,0,0,1,1.74-3.31l1.18-.58Z" transform="translate(-654.23 -168.88)"/><path class="cls-7" d="M990,530.48c3.36.31,7.82-1.83,7.51,5-.21,4.57-1.35,6.35-5.89,5.67a18.15,18.15,0,0,0-4.48,0c-3.1.33-4.46-.58-4.39-4.07C982.84,530.5,982.62,530.49,990,530.48Z" transform="translate(-654.23 -168.88)"/><path class="cls-7" d="M982.22,503.62c3.86.21,8.1-1.42,7.69,5.29-.27,4.51-1.51,6-5.75,5.36a15.9,15.9,0,0,0-2.49,0c-5.55,0-8.42-4.27-5.91-9.2C977.25,502.14,980.32,504.32,982.22,503.62Z" transform="translate(-654.23 -168.88)"/><path class="cls-7" d="M1055.36,514.17c-6.77,0-7.76-1.29-6.61-8.21.28-1.73,1.06-2.27,2.59-2.26a58.34,58.34,0,0,0,6.48,0c4.45-.52,4.22,2.31,4.21,5.31s.32,5.91-4.18,5.19A14.78,14.78,0,0,0,1055.36,514.17Z" transform="translate(-654.23 -168.88)"/><path class="cls-7" d="M1063.17,530.66c3.83-.64,6.15-.38,6.3,5,.21,7.55-4.74,4.81-8.28,5.41-4.75.81-4.62-2-5-5.5C1055.53,529.28,1059.51,530.44,1063.17,530.66Z" transform="translate(-654.23 -168.88)"/><path class="cls-7" d="M998.35,527.51c-6.82,0-6.65,0-6.67-6.16,0-3.25,1.11-4.57,4.33-4.19a33.26,33.26,0,0,0,3.46,0c6.15,0,7.92,2.43,6.23,8.47C1005.19,527.5,1005.19,527.5,998.35,527.51Z" transform="translate(-654.23 -168.88)"/><path class="cls-7" d="M1071.61,527.42c-7,0-7-.06-6.38-7.33.2-2.13.94-3,3-2.85,1.16.09,2.32,0,3.48,0,6.65,0,6.65,0,6.4,6.4C1078,527.4,1078,527.4,1071.61,527.42Z" transform="translate(-654.23 -168.88)"/><path class="cls-8" d="M1024.79,446.52a5.45,5.45,0,0,1,0-1c.36-2-1.16-5.18,1-5.84,2.63-.81,4.79,1.72,6.43,3.88,1.81,2.38,2,5.18,2,8.07,0,3.64-2.55,2.83-4.54,2.78s-5.06,1.09-4.91-2.9c.06-1.67,0-3.33,0-5Z" transform="translate(-654.23 -168.88)"/><path class="cls-3" d="M1022.17,447.49c-1,1.93,2.19,6.18-2.91,6.6-2,.15-4.74,1.44-5.93-.88s-.58-5.19.43-7.73a9.07,9.07,0,0,1,3.09-3.81c1.28-1,2.7-2.5,4.33-1.69,1.44.72.91,2.67,1,4.12C1022.21,445.09,1022.17,446.09,1022.17,447.49Z" transform="translate(-654.23 -168.88)"/><path class="cls-7" d="M1045.94,509.1c-.25,2.39,1,5.14-3.28,5.23-4.89.11-3.61-3.06-3.74-5.63s-.46-5.27,3.81-5.12C1047.48,503.74,1045.36,507.11,1045.94,509.1Z" transform="translate(-654.23 -168.88)"/><path class="cls-7" d="M1062.25,522.27c-.13,2.4,1,5.24-3.47,5.32-4.35.09-3.86-2.43-3.75-5.07.1-2.44-.94-5.34,3.51-5.4C1062.81,517.06,1062.38,519.58,1062.25,522.27Z" transform="translate(-654.23 -168.88)"/><path class="cls-7" d="M1053.29,535.72c-.18,2.55,1,5.52-3.52,5.49s-3.25-3.18-3.3-5.48-1.22-5.38,3.41-5.34S1053,533.54,1053.29,535.72Z" transform="translate(-654.23 -168.88)"/><path class="cls-3" d="M1016.44,339.22a28.73,28.73,0,0,0-.15-10.46c4.22.68,7.69,6.1,5.85,9.45C1020.81,340.63,1018.41,339.22,1016.44,339.22Z" transform="translate(-654.23 -168.88)"/><path class="cls-8" d="M903.45,442.55c-.27,1.53,2.63,3.65-.3,4.47-1.9.53-4.52,4.65-6.42-.25-.14-.36-1.18-.36-1.8-.52A27.31,27.31,0,0,1,903.45,442.55Z" transform="translate(-654.23 -168.88)"/><path class="cls-8" d="M957.61,329c0,3.37-.05,6.74-.07,10.11-.95.13-2.45.6-2.69-.29a16.92,16.92,0,0,1,.09-9.64C955.26,328.22,956.67,328.7,957.61,329Z" transform="translate(-654.23 -168.88)"/><path class="cls-3" d="M816.43,339.2a28.57,28.57,0,0,0-.15-10.43c1.13-.33,2.71-.79,3.09.48a19.09,19.09,0,0,1,.11,9.32C819.2,339.94,817.55,339.35,816.43,339.2Z" transform="translate(-654.23 -168.88)"/><path class="cls-3" d="M783.5,423.32l.42-11.41c5.07,2.06,2.14,6.41,2.64,9.7C786.89,423.74,785,423.65,783.5,423.32Z" transform="translate(-654.23 -168.88)"/><path class="cls-8" d="M879.08,446.25c-.49.08-1.3,0-1.41.26-2.36,5.25-5.37.42-7.5-.07-1.72-.4.49-2.47,1.72-3.44A24.32,24.32,0,0,1,879.08,446.25Z" transform="translate(-654.23 -168.88)"/><path class="cls-3" d="M941,541.28c.34-2.07,1.6-2.41,2.52-3s1.75-2.41,3.28-1.59c.94.51.63,1.79.48,2.75-.29,1.75-1.66,1.82-3,1.82Z" transform="translate(-654.23 -168.88)"/><path class="cls-8" d="M843.48,432.25l-.18-2.69,3.66-.43a8.68,8.68,0,0,1,4.58,3.09Z" transform="translate(-654.23 -168.88)"/><path class="cls-3" d="M905.28,540.87l-.69-4.63,6,4A5.9,5.9,0,0,1,905.28,540.87Z" transform="translate(-654.23 -168.88)"/><path class="cls-3" d="M861.23,539.32l1.5,1.55C861.22,541.33,860.22,541.29,861.23,539.32Z" transform="translate(-654.23 -168.88)"/><path class="cls-3" d="M752.62,411.68a1.4,1.4,0,0,1-2.23,0Z" transform="translate(-654.23 -168.88)"/><path class="cls-9" d="M1001.51,457.72l-1.18.58Z" transform="translate(-654.23 -168.88)"/><path class="cls-5" d="M771.41,467.47V471c0,14.68-4,20.4-17.8,25.65a9,9,0,0,1-3.37.68c-9.1-.25-20.6-11.92-20.63-20.88,0-6.48.14-13-.05-19.44-.1-3.33,1.36-4.92,4.41-5.5a41.68,41.68,0,0,0,14-4.88,4.49,4.49,0,0,1,5.09,0,42.46,42.46,0,0,0,14,4.84c3.06.58,4.56,2.22,4.36,5.54C771.24,460.48,771.41,464,771.41,467.47Zm-38.87.77c0,3.33-.1,6.65,0,10,.21,6.23,12.54,16.85,18.6,16a9,9,0,0,0,2.33-.86c10.11-4.32,17.32-10.53,15-23a17.42,17.42,0,0,1,0-3c0-3.66.84-7.65-.35-10.88-1.46-4-6.67-2.54-9.91-4.34-4.63-2.57-8.86-3.34-14.49-.8C732.82,456.31,732.53,455.67,732.54,468.24Z" transform="translate(-654.23 -168.88)"/><path class="cls-4" d="M941.55,353c0,10.49-.59,21,.16,31.47.83,11.61-4.43,19.79-12.63,26.78-11.89,10.13-25.63,17.17-39.86,23.33a5.43,5.43,0,0,1-4.74-.2c-14.36-6.26-28.21-13.41-40.11-23.8-7.55-6.59-12.29-14.16-12-25,.57-23.13.26-46.29.09-69.44,0-3.7,1.14-5.4,4.7-6.19a190.62,190.62,0,0,0,46.74-16.82,6.8,6.8,0,0,1,6.67.17,185.57,185.57,0,0,0,45.85,16.43c3.87.83,5.38,2.58,5.27,6.8C941.34,328.66,941.55,340.82,941.55,353Zm-15.82,4.3c0-21.28-17.34-38.85-38.14-38.71-22.07.14-39.21,17.08-39.21,38.73a39,39,0,0,0,39.25,38.83C908.44,396.14,925.76,378.48,925.73,357.28Z" transform="translate(-654.23 -168.88)"/><path class="cls-5" d="M944.25,502.89c-.59.69-1.09,1.34-1.65,1.93C936.74,510.94,930.81,517,925,523.2c-1.94,2.08-3.32,2.09-5.25,0-3.15-3.43-6.56-6.62-9.82-10-.64-.65-1.75-1.43-.75-2.47s1.88-.3,2.61.41a70.76,70.76,0,0,1,6,6c2.83,3.47,5.11,3.79,8.32.18,4.52-5.09,9.57-9.71,14.41-14.52.82-.81,1.65-1.79,3-1.25C943.85,501.74,944,502.37,944.25,502.89Z" transform="translate(-654.23 -168.88)"/><path class="cls-5" d="M832.72,440.9c-3.82,1.63.47,4.38-1.19,5.37s-3.49,1.88-5.19,2.92c-1.23-2.18-5.9-2.85-5.31-3.41,2.38-2.29-1.86-5.13.42-5.86s3.33-3.39,5.2-3C828.69,437.42,830.4,439.31,832.72,440.9Z" transform="translate(-654.23 -168.88)"/><path class="cls-5" d="M953.9,440.56c-3.7,1.91.22,4.91-1.42,5.74a24.67,24.67,0,0,0-4.5,2.89c-1.38-2.27-6.25-2.71-5.71-3.52,1.58-2.38-.72-5.43-.12-5.51,2.42-.36,3.7-3.13,5.14-3.11C949.48,437.08,951,439.93,953.9,440.56Z" transform="translate(-654.23 -168.88)"/><path class="cls-5" d="M845.86,443.39c-3.08-5.45,3.25-4.22,5.7-5.67.53-.32,4.39.5,4.44,3.36.06,3.78-1.36,6.78-5.26,8.08C850.79,446,845.08,448.27,845.86,443.39Z" transform="translate(-654.23 -168.88)"/><path class="cls-5" d="M927.71,443.59c2.81,5.4-5,1.91-4.41,5.44-.93-2.51-5.38-1.36-5.17-3.72.27-3.12-.46-8.08,4.65-8C923.7,437.3,930.07,438.51,927.71,443.59Z" transform="translate(-654.23 -168.88)"/><path class="cls-2" d="M805.18,526.19c-7.48,0-14.95,0-22.42,0-1.44,0-3.57.42-3.69-1.5-.15-2.28,2.13-1.54,3.43-1.54q22.66-.09,45.33,0c1.28,0,3.57-.81,3.43,1.52-.11,2-2.26,1.5-3.67,1.5C820.12,526.21,812.65,526.19,805.18,526.19Z" transform="translate(-654.23 -168.88)"/><path class="cls-2" d="M806.58,534.69c-3.47,0-6.94,0-10.41,0-.83,0-1.78-.13-1.92-1.12-.19-1.27.82-1.8,1.84-1.8q10.9-.07,21.8,0c1,0,2.07.44,1.92,1.72s-1.39,1.17-2.33,1.18c-3.63,0-7.27,0-10.9,0Z" transform="translate(-654.23 -168.88)"/><path class="cls-2" d="M784.72,534.81c-1.93-.71-5.45,1-5.51-1.5s3.44-1.55,5.39-1.56,5.48-1,5.47,1.48C790.05,536,786.53,534,784.72,534.81Z" transform="translate(-654.23 -168.88)"/><path class="cls-2" d="M1023.74,490.39c-3.16.39-4.34-1.14-4.26-4,.09-3.31-.05-6.4-2-9.47-1.82-2.81-.53-5.89,2.06-7.95a6,6,0,0,1,7.84-.18c2.65,2,4,5,2.29,7.89a17.47,17.47,0,0,0-2.1,10C1027.62,489.26,1026.52,490.75,1023.74,490.39Zm-.15-3.08c1.34-4.11-.14-8.66,3.45-12.13,1.09-1.06-.15-2.83-1.35-3.84a3.1,3.1,0,0,0-4.12-.15c-1.29.94-2.55,2.73-1.62,3.75C1023.26,478.53,1022.16,483.14,1023.59,487.31Z" transform="translate(-654.23 -168.88)"/><path class="cls-2" d="M750.26,414c2.2.14,3.53,1.2,3.67,3.3.15,2.25-.87,3.84-3.3,3.95a3.19,3.19,0,0,1-3.57-3.22A3.46,3.46,0,0,1,750.26,414Z" transform="translate(-654.23 -168.88)"/><path class="cls-2" d="M925.73,357.28c0,21.2-17.29,38.86-38.1,38.85a39,39,0,0,1-39.25-38.83c0-21.65,17.14-38.59,39.21-38.73C908.39,318.43,925.7,336,925.73,357.28Zm-38.88,35.37a35.31,35.31,0,0,0,35.6-35,35.79,35.79,0,0,0-35.29-36c-19.16-.16-35.42,15.89-35.61,35.16A35.33,35.33,0,0,0,886.85,392.65Z" transform="translate(-654.23 -168.88)"/><path class="cls-8" d="M1023.59,487.31c-1.43-4.17-.33-8.78-3.64-12.37-.93-1,.33-2.81,1.62-3.75a3.1,3.1,0,0,1,4.12.15c1.2,1,2.44,2.78,1.35,3.84C1023.45,478.65,1024.93,483.2,1023.59,487.31Z" transform="translate(-654.23 -168.88)"/><path class="cls-5" d="M758.13,475.31c0,2.3-4.76,7.85-7.19,7.36s-4.77-2.51-7.05-4a1.06,1.06,0,0,1,.18-1.7,2.28,2.28,0,0,1,1.79.09,9.54,9.54,0,0,0,5.73,1.29c1.65-.23,2.82-1,2.95-2.78.12-1.67-1.06-2.31-2.33-2.81-.61-.24-1.3-.25-1.93-.44-3.06-.92-6.39-1.79-6.63-5.71s4.11-4.34,6-6.67c.77-.93,6.59,3.09,6.71,4.56.08,1.07-.45,1.59-1.47,1.32-.79-.21-1.5-.74-2.29-1-2.26-.69-5.08-1.54-5.79,1.53-.62,2.67,2.27,2.62,4.13,3.08C754.29,470.26,757.46,471.26,758.13,475.31Z" transform="translate(-654.23 -168.88)"/><path class="cls-7" d="M886.85,392.65a35.33,35.33,0,0,1-35.3-35.8c.19-19.27,16.45-35.32,35.61-35.16a35.79,35.79,0,0,1,35.29,36A35.31,35.31,0,0,1,886.85,392.65Zm.16-6a29,29,0,0,0,29.48-29.32,29.48,29.48,0,1,0-59,0C857.5,373.74,870.4,386.57,887,386.6Z" transform="translate(-654.23 -168.88)"/><path class="cls-2" d="M887,386.6c-16.61,0-29.51-12.86-29.48-29.32a29.48,29.48,0,1,1,59,0A29,29,0,0,1,887,386.6Zm-.16-3.12a26.21,26.21,0,1,0-26.22-26.33A26.19,26.19,0,0,0,886.85,383.48Z" transform="translate(-654.23 -168.88)"/><path class="cls-7" d="M887.19,331.06a26.21,26.21,0,1,0,26.19,26.42A26.27,26.27,0,0,0,887.19,331.06Z" transform="translate(-654.23 -168.88)"/><path class="cls-2" d="M899.47,345.51h-9.14a8.33,8.33,0,0,1,3.1,5.65h6v2.77h-6c-.56,5.65-5,9.25-12.13,9.47,4.32,4.49,9,10.14,13.68,15.84h-5.32c-4.32-5.2-8.36-10-13.57-15.56v-3.43h3.05c6,0,9.19-2.5,9.58-6.32H876.15v-2.77h12.46c-.77-3.21-3.71-4.82-8.53-4.82h-3.93v-3.6h23.32Z" transform="translate(-654.23 -168.88)"/><path class="cls-4" d="M768.51,470.4a17.42,17.42,0,0,1,0-3c0-3.66.84-7.65-.35-10.88-1.46-4-6.67-2.54-9.91-4.34-4.63-2.57-8.86-3.34-14.49-.8-10.91,4.91-11.2,4.27-11.2,16.84,0,3.33-.09,6.65,0,10,.21,6.23,12.54,16.85,18.6,16a9,9,0,0,0,2.33-.86C763.6,489.07,770.81,482.86,768.51,470.4Z" transform="translate(-654.23 -168.88)"/><path class="cls-10" d="M758.13,461.21h-6.51a6,6,0,0,1,2.21,4h4.3v2h-4.26c-.4,4-3.6,6.6-8.65,6.75,3.08,3.2,6.43,7.23,9.75,11.3h-3.79c-3.08-3.71-6-7.15-9.68-11.1v-2.45h2.17c4.27,0,6.56-1.78,6.84-4.5h-9v-2h8.89c-.55-2.29-2.65-3.43-6.08-3.43H741.5v-2.57h16.63Z" transform="translate(-654.23 -168.88)"/><path class="cls-11" d="M62.72,256.87H74a0,0,0,0,1,0,0v11.65a5,5,0,0,1-5,5H67.73a5,5,0,0,1-5-5V256.87a0,0,0,0,1,0,0Z"/><path class="cls-12" d="M119.2,256.87h11.3a0,0,0,0,1,0,0v11.65a5,5,0,0,1-5,5h-1.26a5,5,0,0,1-5-5V256.87A0,0,0,0,1,119.2,256.87Z"/><path class="cls-12" d="M53.9,256.87h8.82a0,0,0,0,1,0,0v11.65a5,5,0,0,1-5,5H56.44a5,5,0,0,1-5-5v-9.17A2.48,2.48,0,0,1,53.9,256.87Z"/><path class="cls-12" d="M74,256.87h11.3a0,0,0,0,1,0,0v11.65a5,5,0,0,1-5,5H79a5,5,0,0,1-5-5V256.87A0,0,0,0,1,74,256.87Z"/><path class="cls-11" d="M85.31,256.87h11.3a0,0,0,0,1,0,0v11.65a5,5,0,0,1-5,5H90.33a5,5,0,0,1-5-5V256.87A0,0,0,0,1,85.31,256.87Z"/><path class="cls-12" d="M96.61,256.87h11.3a0,0,0,0,1,0,0v11.65a5,5,0,0,1-5,5h-1.26a5,5,0,0,1-5-5V256.87A0,0,0,0,1,96.61,256.87Z"/><path class="cls-11" d="M107.9,256.87h11.3a0,0,0,0,1,0,0v11.65a5,5,0,0,1-5,5h-1.26a5,5,0,0,1-5-5V256.87A0,0,0,0,1,107.9,256.87Z"/><path class="cls-11" d="M130.5,256.88h8.33a3,3,0,0,1,3,3v8.68a5,5,0,0,1-5,5h-1.26a5,5,0,0,1-5-5V256.88a0,0,0,0,1,0,0Z"/><path class="cls-13" d="M743.11,333.7H689.18l-1-1.45c7.45,1.15,7.74-4.86,10.5-8.42a18.66,18.66,0,0,1,12.55-7.46c2.35-.32,3.2-1.26,3.8-3.57,5.48-20.89,28.84-27.32,44.14-12.16a6.44,6.44,0,0,0,5.69,2c10.57-.77,21.15,5.09,25.26,13.74.41.86,1.39,1.85.31,2.63s-1.69-.33-2.14-1.22c-6.83-13.54-25.78-17.27-37.24-7.1a1.71,1.71,0,0,1-2.51.09c1.76-4.17,6.33-4.78,9.69-7.47-5.47-6.69-12.51-9.18-20.79-8.27-8.64.95-15.64,5.44-18.29,13.49-2.18,6.64-4.63,11.08-12.06,11.72-1.58.13-3.21,1.71-4.51,2.95-2.27,2.17-5.34,4.9-4.25,7.85.79,2.12,4.79.77,7.33.79,10.83.12,21.65,0,32.48.1C739.62,331.92,741.44,331.15,743.11,333.7Z" transform="translate(-654.23 -168.88)"/><path class="cls-14" d="M758.22,303.28c-3.07,2.63-11.57,6.19-9.77,7.32,2.47,1.55,4.57-1.7,6.53-2.74,14.63-7.79,35,.69,35.87,17.25.06,1.19-15.6-.79-32,.33-3.79.26-4.34,5.88-5.09,6.05-2.2.48-9.55.2-19.65.22-8.55,0-13.3.12-31,.09-1.75,0-4.25.89-5-1.44-.6-1.89.94-3.59,2.29-5,.94-1,4.79-4.84,5.87-5,10.58-1.3,10.06-7.71,14.59-15.4C728.42,292.19,748.27,291.38,758.22,303.28Z" transform="translate(-654.23 -168.88)"/><path class="cls-13" d="M1001.93,298c-9.48,0-18.95,0-28.42,0-.92,0-2.17.51-2.68-.62s.91-1.54,1.27-2.3c2.31-4.7,5.38-8.38,10.88-9.26,1.8-.29,1.62-1.81,2.06-3,4.68-12.45,17.53-15.9,27.68-7.3,1.76,1.49,3.44,1.54,5.45,1.61,10.35.35,16.93,8.24,15.95,18.49-.3,3.06-2.11,2.37-3.78,2.38-4.82.05-9.64,0-14.46,0h-14Zm9.71-20c-6.76-6.93-17.38-6.61-22,1.18-2.77,4.68-4.23,10-10.72,10.75-.66.09-1.24,1.05-1.82,1.65-.83.84-1.77,1.88-1.4,3,.45,1.42,2,.88,3.06.88,16.82,0,33.63-.06,50.45.08,3.38,0,4-1.23,3.33-4.15a15.05,15.05,0,0,0-21.91-10.06c-1.19.63-2.13,2.28-4.08,1.24C1006.92,279.74,1009.75,279.62,1011.64,278Z" transform="translate(-654.23 -168.88)"/><path class="cls-14" d="M1011.64,278c-1.89,1.6-4.72,1.72-5.1,4.59,2,1,2.89-.61,4.08-1.24a15.05,15.05,0,0,1,21.91,10.06c.64,2.92,0,4.17-3.33,4.15-16.82-.14-33.63-.05-50.45-.08-1.08,0-2.61.54-3.06-.88-.37-1.14.57-2.18,1.4-3,.58-.6,1.16-1.56,1.82-1.65,6.49-.79,8-6.07,10.72-10.75C994.26,271.41,1004.88,271.09,1011.64,278Z" transform="translate(-654.23 -168.88)"/></svg>