<svg id="Layer_1" data-name="Layer 1" xmlns="http://www.w3.org/2000/svg" viewBox="0 0 416.44 416.44"><defs><style>.cls-1{fill:#e4f5fa;}.cls-2{fill:#f8cc4f;}.cls-3{fill:#1a2c52;}.cls-4{fill:#6e7b85;}.cls-5{fill:#1b2d52;}.cls-6{fill:#192b51;}.cls-7{fill:#202f51;}.cls-8{fill:#192b50;}.cls-9{fill:#182a50;}.cls-10{fill:#51bcb0;}.cls-11{fill:#6d7b85;}.cls-12{fill:#e0e5eb;}.cls-13{fill:#ed5252;}.cls-14{fill:#eb5252;}</style></defs><title>Membership</title><rect class="cls-1" width="416.44" height="416.44" rx="23.29"/><path class="cls-2" d="M690.48,520.34l-12,.08c-1.15-4.47-2.2-5.23-7.33-5.23H434.33c-12.38,0-20.22-7.82-20.23-20.19q0-67.47-.06-134.94c0-2.62.47-3.57,3.37-3.56q103.5.12,207,0c2.52,0,3.37.64,3.33,3.25-.13,10.17,0,20.35-.07,30.52,0,2.76.45,5.25,3.32,6.33,2.64,1,4.66-.28,6.52-2.16,5.93-6,12.06-11.86,17.85-18,2.1-2.23,3.15-1.8,5,.13,5.78,6,11.77,11.8,17.62,17.74,1.93,2,4,3.39,6.81,2.23s3.17-3.72,3.16-6.44c0-10,.08-20.1-.08-30.15,0-2.79.79-3.47,3.52-3.45q24.27.19,48.54,0c2.63,0,3.56.51,3.55,3.39-.09,45.23,0,90.45-.09,135.67,0,11.66-8,19.56-19.69,19.63-8.82,0-17.65.11-26.47,0C693.41,515.07,691.21,516.63,690.48,520.34Zm-197-35.26H535c6.1,0,7.67-1.52,7.67-7.51q0-41.73,0-83.45c0-5.83-1.62-7.48-7.37-7.48H451.47c-5.6,0-7.28,1.65-7.28,7.17q0,42.09,0,84.19c0,5.36,1.7,7.07,7,7.08Zm152.12-59.2q30.51,0,61,0c4.31,0,6.7-1.87,6.75-5.07s-2.37-5.14-6.6-5.27H586.19a17.3,17.3,0,0,0-4,.34,5,5,0,0,0,.2,9.76,23.4,23.4,0,0,0,4,.23Zm.42,19.46H586.09a21.43,21.43,0,0,0-3.31.09,5.08,5.08,0,0,0-.65,9.91,15.17,15.17,0,0,0,4,.28H705.55a15.76,15.76,0,0,0,3.3-.11c2.7-.56,4.45-2.28,4.38-5.08s-1.78-4.74-4.79-5.05a33,33,0,0,0-3.3-.05Zm-.24,39.74h38.94c7.6,0,15.19.05,22.78,0,3.54,0,5.89-2.26,5.83-5.24s-2.32-4.87-5.66-5c-.74,0-1.47,0-2.21,0q-59.7,0-119.4,0a20.14,20.14,0,0,0-3.3.08,5.15,5.15,0,0,0-3.65,7.62c1.36,2.31,3.6,2.62,6,2.61Q615.44,485.05,645.74,485.08Z" transform="translate(-370.54 -201.87)"/><path class="cls-3" d="M690.48,520.34c.73-3.71,2.93-5.27,6.76-5.2,8.82.15,17.65.08,26.47,0,11.66-.07,19.68-8,19.69-19.63.05-45.22,0-90.44.09-135.67,0-2.88-.92-3.4-3.55-3.39q-24.27.18-48.54,0c-2.73,0-3.57.66-3.52,3.45.16,10.05,0,20.1.08,30.15,0,2.72-.3,5.27-3.16,6.44s-4.88-.27-6.81-2.23c-5.85-5.94-11.84-11.74-17.62-17.74-1.86-1.93-2.91-2.36-5-.13-5.79,6.15-11.92,12-17.85,18-1.86,1.88-3.88,3.16-6.52,2.16-2.87-1.08-3.33-3.57-3.32-6.33.05-10.17-.06-20.35.07-30.52,0-2.61-.81-3.25-3.33-3.25q-103.5.11-207,0c-2.9,0-3.38.94-3.37,3.56q.1,67.47.06,134.94c0,12.37,7.85,20.19,20.23,20.19H671.11c5.13,0,6.18.76,7.33,5.23-1.28,4.35-2.36,5.08-7.54,5.08H462.78c-9.68,0-19.36,0-29,0-17.3-.08-29.93-12.62-29.94-29.92q-.07-85.49,0-171c0-17.32,12.62-29.86,29.92-29.93,8.7,0,17.41,0,26.11,0,3.55,0,5.9,1.31,6.47,5-.28,3.77-2.41,5.34-6.08,5.31q-13.05-.08-26.09,0c-10.73.06-17.94,5.95-19.62,16.47-1.13,7-.11,14.18-.48,21.27-.14,2.76.76,3.51,3.51,3.51q103.26-.12,206.52,0c2.85,0,3.47-1,3.44-3.6-.13-11.15-.18-22.3,0-33.44.06-3.33-.81-4.32-4.25-4.3-32.58.13-65.16.08-97.74.07-4.79,0-5.83-.89-6.62-5.44.66-4.29,3.67-4.89,7.31-4.88q77.37,0,154.73,0,21.13,0,42.27,0c18,0,30.52,12.43,30.53,30.43q0,84.91,0,169.81c0,18.22-12.45,30.56-30.75,30.59-8.57,0-17.15-.06-25.72,0C693.52,525.58,691.18,524.11,690.48,520.34ZM677.27,379a12,12,0,0,0,.46-2c0-23.16,0-46.32.07-69.48,0-2.59-1.35-2.61-3.25-2.6-11.15,0-22.3.1-33.45,0-2.6,0-3.29.77-3.28,3.31.09,22.55,0,45.1.08,67.64,0,.85-.52,2,1.07,2.68,4.4-4.46,8.85-9,13.33-13.49s6.52-4.55,11-.09S672.38,374.1,677.27,379Zm38.3-32.85c8.2,0,16.41-.09,24.62.05,2.59,0,3.37-.78,3.3-3.34-.16-6.12,0-12.25-.07-18.37-.2-11.31-7.9-19.28-19.14-19.49-11-.21-22,0-33.07-.1-2.55,0-3.05,1-3,3.24q.12,17.46,0,34.92c0,2.4.74,3.17,3.14,3.14C699.4,346.09,707.48,346.17,715.57,346.17Z" transform="translate(-370.54 -201.87)"/><path class="cls-4" d="M518.9,299.52c.79,4.55,1.83,5.44,6.62,5.44,32.58,0,65.16.06,97.74-.07,3.44,0,4.31,1,4.25,4.3-.2,11.14-.15,22.29,0,33.44,0,2.64-.59,3.6-3.44,3.6q-103.26-.12-206.52,0c-2.75,0-3.65-.75-3.51-3.51.37-7.09-.65-14.24.48-21.27,1.68-10.52,8.89-16.41,19.62-16.47q13-.08,26.09,0c3.67,0,5.8-1.54,6.08-5.31h13.84c.26,3.73,2.34,5.36,6,5.31,3.89-.05,7.77-.06,11.66,0,3.66,0,5.72-1.59,6-5.3A122.86,122.86,0,0,0,518.9,299.52Z" transform="translate(-370.54 -201.87)"/><path class="cls-5" d="M503.79,299.68c-.29,3.71-2.35,5.35-6,5.3-3.89-.06-7.77-.05-11.66,0-3.65,0-5.73-1.58-6-5.31.51-3.45,2.62-5,6-5,3.88,0,7.76,0,11.64,0C501.17,294.66,503.24,296.27,503.79,299.68Z" transform="translate(-370.54 -201.87)"/><path class="cls-6" d="M493.44,485.08H451.17c-5.28,0-7-1.72-7-7.08q0-42.09,0-84.19c0-5.52,1.68-7.17,7.28-7.17h83.81c5.75,0,7.37,1.65,7.37,7.48q0,41.73,0,83.45c0,6-1.57,7.51-7.67,7.51Zm-39-49.32v30.87c0,8.66,0,8.6,8.84,8.21,1.77-.08,2.39-.57,2.24-2.31-.12-1.46,0-2.94,0-4.41-.31-10.34,3.15-19,11.65-25.19,1.76-1.29.88-2,0-3.1A19.79,19.79,0,0,1,473.07,424,20.45,20.45,0,0,1,489,407.13a20.74,20.74,0,0,1,21.92,9.17,20.23,20.23,0,0,1-1.17,23.38c-1.22,1.61-1.35,2.29.39,3.59,7.82,5.87,11.19,13.94,11.2,23.57,0,8.15,0,8.05,8.31,8,2.34,0,2.81-.73,2.8-2.92q-.1-36,0-72.05c0-2.45-.73-3-3.09-3q-35.84.13-71.68,0c-2.59,0-3.26.69-3.23,3.26C454.56,412,454.48,423.87,454.48,435.76Zm38.77,39.05h8.82c9.45,0,9.45,0,8.91-9.64-.55-10-8.38-17.61-17.8-17.37-9.66.25-17.11,7.89-17.34,17.81,0,2.08.1,4.17,0,6.24s.34,3.1,2.77,3C483.45,474.67,488.35,474.81,493.25,474.81Zm.14-37.41a10.19,10.19,0,0,0,10.32-10.15,10.53,10.53,0,0,0-10.29-10.34,10.36,10.36,0,0,0-10.28,10.29A10.13,10.13,0,0,0,493.39,437.4Z" transform="translate(-370.54 -201.87)"/><path class="cls-7" d="M645.56,425.88H586.4a23.4,23.4,0,0,1-4-.23,5,5,0,0,1-.2-9.76,17.3,17.3,0,0,1,4-.34H706.71c4.23.13,6.65,2.06,6.6,5.27s-2.44,5.06-6.75,5.07Q676.07,425.9,645.56,425.88Z" transform="translate(-370.54 -201.87)"/><path class="cls-8" d="M646,445.34h59.16a33,33,0,0,1,3.3.05c3,.31,4.73,2.12,4.79,5.05s-1.68,4.52-4.38,5.08a15.76,15.76,0,0,1-3.3.11H586.13a15.17,15.17,0,0,1-4-.28,5.08,5.08,0,0,1,.65-9.91,21.43,21.43,0,0,1,3.31-.09Z" transform="translate(-370.54 -201.87)"/><path class="cls-9" d="M645.74,485.08q-30.32,0-60.62,0c-2.45,0-4.69-.3-6-2.61a5.15,5.15,0,0,1,3.65-7.62,20.14,20.14,0,0,1,3.3-.08q59.7,0,119.4,0c.74,0,1.47,0,2.21,0,3.34.16,5.6,2.17,5.66,5s-2.29,5.21-5.83,5.24c-7.59.07-15.18,0-22.78,0Z" transform="translate(-370.54 -201.87)"/><path class="cls-10" d="M677.27,379c-4.89-4.92-9.43-9.51-14-14.06s-6.47-4.44-11,.09-8.93,9-13.33,13.49c-1.59-.71-1.07-1.83-1.07-2.68,0-22.54,0-45.09-.08-67.64,0-2.54.68-3.34,3.28-3.31,11.15.14,22.3.08,33.45,0,1.9,0,3.26,0,3.25,2.6-.08,23.16,0,46.32-.07,69.48A12,12,0,0,1,677.27,379Z" transform="translate(-370.54 -201.87)"/><path class="cls-11" d="M715.57,346.17c-8.09,0-16.17-.08-24.26.05-2.4,0-3.16-.74-3.14-3.14q.15-17.46,0-34.92c0-2.27.48-3.27,3-3.24,11,.12,22-.11,33.07.1,11.24.21,18.94,8.18,19.14,19.49.11,6.12-.09,12.25.07,18.37.07,2.56-.71,3.39-3.3,3.34C732,346.08,723.77,346.17,715.57,346.17Z" transform="translate(-370.54 -201.87)"/><path class="cls-12" d="M454.48,435.76c0-11.89.08-23.77-.06-35.65,0-2.57.64-3.27,3.23-3.26q35.85.16,71.68,0c2.36,0,3.1.58,3.09,3q-.13,36,0,72.05c0,2.19-.46,2.91-2.8,2.92-8.28,0-8.3.13-8.31-8,0-9.63-3.38-17.7-11.2-23.57-1.74-1.3-1.61-2-.39-3.59a20.23,20.23,0,0,0,1.17-23.38A20.74,20.74,0,0,0,489,407.13,20.45,20.45,0,0,0,473.07,424a19.79,19.79,0,0,0,4.12,15.86c.87,1.11,1.75,1.81,0,3.1-8.5,6.22-12,14.85-11.65,25.19.05,1.47-.09,2.95,0,4.41.15,1.74-.47,2.23-2.24,2.31-8.84.39-8.84.45-8.84-8.21Z" transform="translate(-370.54 -201.87)"/><path class="cls-13" d="M493.25,474.81c-4.9,0-9.8-.14-14.69.05-2.43.09-2.92-.9-2.77-3s0-4.16,0-6.24c.23-9.92,7.68-17.56,17.34-17.81,9.42-.24,17.25,7.4,17.8,17.37.54,9.64.54,9.64-8.91,9.64Z" transform="translate(-370.54 -201.87)"/><path class="cls-14" d="M493.39,437.4a10.13,10.13,0,0,1-10.25-10.2,10.36,10.36,0,0,1,10.28-10.29,10.53,10.53,0,0,1,10.29,10.34A10.19,10.19,0,0,1,493.39,437.4Z" transform="translate(-370.54 -201.87)"/></svg>