<svg id="Layer_1" data-name="Layer 1" xmlns="http://www.w3.org/2000/svg" viewBox="0 0 247.7 384.1"><defs><style>.cls-1{fill:#fbe15a;}.cls-2{fill:#4bc3d6;}.cls-3{fill:#090b08;}.cls-4{fill:#fbdd31;}.cls-5{fill:#e2dee2;}.cls-6{fill:#76cddd;}.cls-7{fill:#090808;}.cls-8{fill:#eb6160;}.cls-9{fill:#f5f4f4;}</style></defs><title>micoscope</title><path class="cls-1" d="M344.17,258.27l-1.61.26C343,257.79,343.54,257.76,344.17,258.27Z" transform="translate(-241.46 -227.75)"/><path class="cls-2" d="M319.13,421.32l.89.65Z" transform="translate(-241.46 -227.75)"/><path class="cls-3" d="M388.37,581c-.13,4,.3,8.06-.49,11.9-2.08,10.09-8.44,16.61-18.55,18.51-9.64,1.8-17.56-1.78-23.37-9.77-.36-.5-.75-1-1.13-1.44-1.6-3.92-2.9-7.91-2.9-12.21q0-29.33,0-58.67c0-4.59,1.41-6.16,5.9-7.13,4.51,1.23,5.39,2.39,5.4,7.51q0,27.93,0,55.86a31.79,31.79,0,0,0,.21,4.48,11.82,11.82,0,0,0,12.45,10.46,12,12,0,0,0,11.06-12c0-37.11,0-74.23.09-111.34,0-2.64-1-2.82-3.08-2.56a66.25,66.25,0,0,1-17.57,0c-2.83-.4-3.27.76-3.23,3.26.15,8.12-.06,16.24.11,24.36.08,4.12-1.45,6.69-5.53,7.6-4.76-1.55-5.82-2.9-5.84-7.76,0-7.49,0-15,0-22.48,0-6.56,0-6.56-6.25-8.07-77-18.68-116.86-105.58-80.78-176.07,7.19-14,16.94-26.06,28.36-36.81,14.61-12.45,31-21.61,49.59-26.6a134.55,134.55,0,0,1,17.56-3.45c.68-.09,1.55.22,1.85-.79h24c5.3,1,10.67,1.67,15.88,3,49.31,12.59,80.87,43.58,93.35,92.77,7.93,31.23,2.8,61.31-13.1,89.44-.36.65-.65,1.33-1,2a5.57,5.57,0,0,0-.73.81c-19,29.83-45.46,49-80.12,56.48-2.53.55-2.3,2.07-2.3,3.83q0,23.79,0,47.58Q388.29,552.33,388.37,581Zm-12.84-341.2c-11.91-1.82-23.63-.44-35.27,2.13-66.17,14.62-104.61,86.24-80.17,149.35a112.68,112.68,0,0,0,104.7,72.48c4.69,0,9.46.09,14.08-1.17,2.92.32,5.73-.47,8.51-1,57.83-12,97-66.19,89.15-124.35-5.15-38-25.16-66.38-58.73-84.94A97.43,97.43,0,0,0,375.53,239.78Z" transform="translate(-241.46 -227.75)"/><path class="cls-1" d="M375.53,239.78a97.43,97.43,0,0,1,42.27,12.46c33.57,18.56,53.58,47,58.73,84.94,7.88,58.16-31.32,112.37-89.15,124.35-2.78.57-5.59,1.36-8.51,1-1.72-.22-3.43.05-5.16-.57-10.27-3.71-19.57-9.19-28.49-15.39a4.12,4.12,0,0,1-1.9-2.21c14,2.73,27.92,3.21,41.95.16,49.51-10.76,84.42-59.5,73.09-112.71-11.22-52.69-61.51-84.65-114-73.54.52-3.18,3.51-3.88,5.61-5.35C357.86,247.41,366.75,243.7,375.53,239.78Z" transform="translate(-241.46 -227.75)"/><path class="cls-4" d="M375.53,239.78c-8.78,3.92-17.67,7.63-25.59,13.18-2.1,1.47-5.09,2.17-5.61,5.35l-.16,0c-.63-.51-1.18-.48-1.61.26a4.23,4.23,0,0,1-.95.56,94.29,94.29,0,0,0-46,27.14c-3.35,3.53-3.53,5.28-.95,9.57a78.63,78.63,0,0,0-7,10.35c-5-1-6.41-.3-8.55,4.28A93.31,93.31,0,0,0,270.38,361c2.88,26.5,14.85,48,35.4,64.87,11.07,9.07,23.85,14.73,37.54,18.53a4.12,4.12,0,0,0,1.9,2.21c8.92,6.2,18.22,11.68,28.49,15.39,1.73.62,3.44.35,5.16.57-4.62,1.26-9.39,1.2-14.08,1.17a112.68,112.68,0,0,1-104.7-72.48c-24.44-63.11,14-134.73,80.17-149.35C351.9,239.34,363.62,238,375.53,239.78Z" transform="translate(-241.46 -227.75)"/><path class="cls-5" d="M347.84,522.17q0-6.2-.07-12.39c4.08-.91,5.61-3.48,5.53-7.6-.17-8.12,0-16.24-.11-24.36,0-2.5.4-3.66,3.23-3.26a66.25,66.25,0,0,0,17.57,0c2-.26,3.08-.08,3.08,2.56-.1,37.11-.05,74.23-.09,111.34a12,12,0,0,1-11.06,12A11.82,11.82,0,0,1,353.47,590a31.79,31.79,0,0,1-.21-4.48q0-27.93,0-55.86C353.23,524.56,352.35,523.4,347.84,522.17Z" transform="translate(-241.46 -227.75)"/><path class="cls-3" d="M343.32,444.4c-13.69-3.8-26.47-9.46-37.54-18.53C285.23,409,273.26,387.5,270.38,361a93.31,93.31,0,0,1,8.71-50.57c2.14-4.58,3.56-5.24,8.55-4.28,3.55,3.41,3.72,4.63,1.5,9.52-10.9,23.92-10.9,47.9.17,71.69a77.63,77.63,0,0,0,29.83,34v0l.89.65c.81.56,1.58,1.19,2.43,1.68q28.89,16.8,61.54,9.61c45.76-10,75.34-58.55,62.21-103.47C435.88,294.5,412,273.62,375.5,268.2c-20.23-3-39.08,1.65-56.19,13A65.47,65.47,0,0,0,303.87,294c-2.76,3.06-5.65,3.74-9.23,1.85-2.58-4.29-2.4-6,.95-9.57a94.29,94.29,0,0,1,46-27.14,4.23,4.23,0,0,0,.95-.56l1.61-.26.16,0c52.52-11.11,102.81,20.85,114,73.54,11.33,53.21-23.58,101.95-73.09,112.71C371.24,447.61,357.29,447.13,343.32,444.4Z" transform="translate(-241.46 -227.75)"/><path class="cls-2" d="M294.64,295.8c3.58,1.89,6.47,1.21,9.23-1.85a65.47,65.47,0,0,1,15.44-12.78,6.32,6.32,0,0,1-.6,2.11A108,108,0,0,0,307,304a117.49,117.49,0,0,0-8.53,66.28c2.38,15.56,8.14,29.95,16.27,43.42,1.51,2.52,3.86,4.57,4.43,7.64a77.63,77.63,0,0,1-29.83-34c-11.07-23.79-11.07-47.77-.17-71.69,2.22-4.89,2.05-6.11-1.5-9.52A78.63,78.63,0,0,1,294.64,295.8Z" transform="translate(-241.46 -227.75)"/><path class="cls-6" d="M319.14,421.35c-.57-3.07-2.92-5.12-4.43-7.64-8.13-13.47-13.89-27.86-16.27-43.42A117.49,117.49,0,0,1,307,304a108,108,0,0,1,11.74-20.73,6.32,6.32,0,0,0,.6-2.11c17.11-11.32,36-16,56.19-13,36.51,5.42,60.38,26.3,70.7,61.59,13.13,44.92-16.45,93.47-62.21,103.47q-32.67,7.14-61.54-9.61c-.85-.49-1.62-1.12-2.43-1.68l-.89-.65Zm80-60.22c5.16,1.57,6.79,1,9.34-3.86A48.37,48.37,0,0,0,413.86,327c-3.78-26.37-29.9-45.41-56-40.54a48.42,48.42,0,0,0-31,76c4,5.72,8.07,11.41,12.31,16.95,6.87,9,13,18.14,14.69,29.74.9,6,6.66,10,12.4,9.88a13,13,0,0,0,12.24-9.79c.74-2.76,1.32-5.56,1.95-8.35,1.8-8,7.29-13.77,11.73-20.2,3-4.33,3-5.49-.18-9.58Z" transform="translate(-241.46 -227.75)"/><path class="cls-7" d="M392,371c3.18,4.09,3.17,5.25.18,9.58-4.44,6.43-9.93,12.24-11.73,20.2-.63,2.79-1.21,5.59-1.95,8.35A13,13,0,0,1,366.23,419c-5.74.09-11.5-3.85-12.4-9.88-1.73-11.6-7.82-20.78-14.69-29.74-4.24-5.54-8.31-11.23-12.31-16.95a48.42,48.42,0,0,1,31-76c26.14-4.87,52.26,14.17,56,40.54a48.37,48.37,0,0,1-5.35,30.31c-2.55,4.82-4.18,5.43-9.34,3.86-2.78-3.06-2.35-6.06-.48-9.55,7.39-13.75,5.52-29.51-4.65-41.51a36.93,36.93,0,0,0-58.87,44.36c4.54,6.86,9.42,13.52,14.43,20.05,7.06,9.19,13.29,18.71,14.7,30.59.12,1,.48,2.15,1.63,2.26,1.47.14,1.81-1.25,1.93-2.29,1.4-12.18,7.95-21.83,15.17-31.18C386,370.08,387.46,369.53,392,371Z" transform="translate(-241.46 -227.75)"/><path class="cls-8" d="M392,371c-4.51-1.5-6-.95-8.94,2.83-7.22,9.35-13.77,19-15.17,31.18-.12,1-.46,2.43-1.93,2.29-1.15-.11-1.51-1.25-1.63-2.26-1.41-11.88-7.64-21.4-14.7-30.59-5-6.53-9.89-13.19-14.43-20.05A36.93,36.93,0,0,1,394,310.07c10.17,12,12,27.76,4.65,41.51-1.87,3.49-2.3,6.49.48,9.55Zm-1.2-36.72a24.52,24.52,0,0,0-24.17-24.82c-14.05-.1-25.3,10.79-25.36,24.52A25.08,25.08,0,0,0,365.92,359,24.78,24.78,0,0,0,390.77,334.31Z" transform="translate(-241.46 -227.75)"/><path class="cls-7" d="M390.77,334.31A24.78,24.78,0,0,1,365.92,359,25.08,25.08,0,0,1,341.24,334c.06-13.73,11.31-24.62,25.36-24.52A24.52,24.52,0,0,1,390.77,334.31Zm-11.35-.4a13.37,13.37,0,1,0-26.73.5,13.37,13.37,0,1,0,26.73-.5Z" transform="translate(-241.46 -227.75)"/><path class="cls-9" d="M379.42,333.91a13.37,13.37,0,1,1-26.73.5,13.37,13.37,0,1,1,26.73-.5Z" transform="translate(-241.46 -227.75)"/></svg>