<svg id="Layer_1" data-name="Layer 1" xmlns="http://www.w3.org/2000/svg" viewBox="0 0 416.44 416.44"><defs><style>.cls-1{fill:#e4f5fa;}.cls-2{fill:#0c0908;}.cls-3{fill:#070707;}.cls-4{fill:#fbbf9f;}.cls-5{fill:#100f0f;}.cls-6{fill:#fbd3be;}.cls-7{fill:#fdd4bf;}.cls-8{fill:#f7bc9d;}.cls-9{fill:#f2828c;}.cls-10{fill:#95d8ef;}.cls-11{fill:#f9bd9e;}.cls-12{fill:#fabe9f;}.cls-13{fill:#f6bc9d;}.cls-14{fill:#120908;}</style></defs><title>Need help</title><rect class="cls-1" width="416.44" height="416.44" rx="23.29"/><path class="cls-2" d="M578.76,575.73c.44.51.85,1,1.31,1.52,4.31,4.54,4,7.8-1.22,12.68h-5.47c-1.51-1.43-3.07-2.83-4.54-4.31Q525.22,542,481.66,498.4c-1.56-1.57-3-2.43-5.31-2-6.17,1.12-12.21.09-18.24-1.25-9.35-2.07-16.89-7.6-24.65-12.71-8.88-5.85-8.87-5.86-16.59,1.86Q366.52,534.64,316.16,585c-2,2-3.92,4-6.62,4.92h-2.73c-3.4-2.17-6-4.75-4.75-9.3.57-2.07,2.39-3.23,3.53-4.88a8.55,8.55,0,0,0,1.08-.79q36.7-36.69,73.44-73.34c1.84-1.83,1.05-2.65-.29-4Q357.46,475.34,335.19,453c-1.75-1.78-2.53-1.53-4.14.09q-23.93,24.12-48,48.09A19.19,19.19,0,0,1,278,505c-4.15.78-6.64-1.61-8.79-4.64v-4.1a35.84,35.84,0,0,1,4.76-5.68q35.91-35.85,71.84-71.7c2.09-2.07,2-3.12-.08-4.94a101.78,101.78,0,0,1-7.5-7.48,23.11,23.11,0,0,1,6.72-37c2.25-1.07,2.33-1.81,1.53-3.89a22.93,22.93,0,0,1,17.9-31.35c2.64-.44,3.72-1.26,4-4.09,1-9.61,9.24-17.72,19-19.09,2.37-.33,3.72-.88,4.08-3.66,1.21-9.17,6.5-15.45,15.06-18.55s16.45-1.53,23.22,4.47c4.34,3.85,8.38,8.05,12.38,12.26,1.55,1.62,2.41,1.63,4,0,7.25-7.42,14.55-14.78,22-22,6.59-6.39,14.55-8.4,23.29-5.72s13.86,8.74,15.94,17.52a8.21,8.21,0,0,1,.31,2.35c-.11,1.65.32,2.28,2.21,2.44a23,23,0,0,1,21,20.7c.16,1.51.19,2.35,2.16,2.52a22.84,22.84,0,0,1,21,20.63c.21,1.84.66,2.39,2.53,2.59,9.18,1,15.66,5.93,19.07,14.4,3.49,8.64,2,16.82-4.07,23.87-3.5,4-7.43,7.71-11.28,11.42-1.35,1.31-1.6,2.3-.77,4.09a70.63,70.63,0,0,1,6.9,29.62c0,1.77,1,2.63,2,3.65q23.93,23.94,47.83,47.87c3.76,3.78,3.78,8.46.12,11.21a7.22,7.22,0,0,1-6.14,1.25,16.51,16.51,0,0,1-4.29-3.23c-5.68-5.73-11.4-11.43-17.1-17.14-5-5-5-5-9.9-.08-4.39,4.35-6.58,4.6-11.6,1.34-2.54-4.85-2.22-7,1.63-10.87,1.21-1.21,2.36-2.48,3.64-3.6s1.43-1.69.14-2.92c-4.12-3.93-8.14-8-12.08-12.07-1.28-1.34-2-1.18-3.25.06Q531,472.11,504.41,498.6c-1.32,1.31-1.15,2,.07,3.15,2.89,2.74,5.66,5.61,8.47,8.43,5,5,5,5,10,0,4.24-4.21,6.41-4.5,11.36-1.48,2.71,4.77,2.38,7.16-1.53,11.15a22.08,22.08,0,0,1-2.67,2.63c-2.46,1.77-1.87,3.06.09,5,7.34,7.12,14.49,14.44,21.74,21.65Q565.31,562.45,578.76,575.73Zm-201-148.92c12.81,12.75,25.4,25.27,38,37.84a2.47,2.47,0,0,0,3.46.54,36.21,36.21,0,0,1,13.27-4c6.22-.66,12.5-.28,18.71-1.3a97.46,97.46,0,0,0,54.66-28.36c17.73-17.88,35.59-35.62,53.37-53.42a23.74,23.74,0,0,0,2.71-3.06,8.8,8.8,0,0,0,.57-9.94,9.1,9.1,0,0,0-8.69-4.92c-3.24.07-5.51,1.84-7.64,4-7.17,7.17-14.3,14.37-21.53,21.47a6.88,6.88,0,0,1-9.8.19c-2.71-2.71-2.69-6.69.09-9.8.68-.76,1.44-1.45,2.16-2.17,6.85-6.85,13.76-13.64,20.52-20.56,4-4.1,4-9.57.19-13.44s-9-3.91-13.18-.36c-.86.74-1.66,1.56-2.46,2.37-6.77,6.76-13.55,13.5-20.29,20.29a7.12,7.12,0,0,1-7.79,2,6.42,6.42,0,0,1-4.37-5.62c-.35-2.72,1-4.75,2.86-6.59q10.78-10.73,21.51-21.5c2.57-2.57,3.94-5.58,3-9.24-1.9-7.64-10.46-9.93-16.28-4.31-4.84,4.66-9.45,9.56-14.29,14.21-4,3.81-9.21,3.09-11.44-1.43-1.66-3.37-.46-6.15,2-8.61,4.67-4.67,9.36-9.33,14-14,2.58-2.6,3.75-5.69,2.75-9.32a9.39,9.39,0,0,0-15.92-4.29c-7,6.81-13.77,13.94-20.87,20.68-2.5,2.37-2.57,3.66-.25,6.32,6,6.81,7.15,14.86,3.91,23.25s-9.55,13.43-18.57,14.51c-2.56.31-3.06,1.46-3.32,3.65-1.19,10-9.63,18.63-19.4,19.5-2.81.25-3.46,1.4-3.84,3.87-1.49,9.56-7,16.27-16.26,18.5-4.94,1.19-6.74,3-7.7,7.79C390.09,418.92,384.67,423.57,377.72,426.81Zm68.88,47.54c9.1,7,18.94,10,29.5,8.06,6.69-1.24,10.93.93,14.74,5.67.21.26.52.45.71.73,1.2,1.72,2.16,1.22,3.45-.08q28.2-28.31,56.48-56.54c.63-.63,1.42-1.16,1.36-2.24a62.11,62.11,0,0,0-5.06-22,28.19,28.19,0,0,1-2.4,3.31c-11,11-22,22.17-33.13,33a106,106,0,0,1-47.88,26.82A161.9,161.9,0,0,1,446.6,474.35Zm-40,.58c-.52-.56-1-1.05-1.42-1.52q-22.8-22.8-45.58-45.62c-1.21-1.21-1.91-1.45-3.23-.07-3.92,4.12-7.93,8.16-12.07,12-1.47,1.4-.87,2,.21,3.12q22.73,22.64,45.35,45.36c1.29,1.3,2.06,1.62,3.48.13,3.84-4,7.85-7.92,11.79-11.86C405.6,476,406,475.53,406.6,474.93Zm-15.14-83.75c5.42-.17,8.37-2.08,9.89-5.76a9.18,9.18,0,0,0-2.17-10.63c-8-8.06-16-16.14-24.12-24.1-4.14-4.06-9.93-4-13.71-.26s-3.7,9.61.35,13.72c7.89,8,15.88,15.94,23.85,23.89C387.55,390,389.9,391.29,391.46,391.18Zm23.91-89.85c-4.85,0-7.76,1.84-9.5,5.46a9.36,9.36,0,0,0,2,10.69q12.12,12.28,24.41,24.4a9.45,9.45,0,1,0,13.43-13.29c-8.05-8.21-16.24-16.29-24.38-24.43A8.55,8.55,0,0,0,415.37,301.33ZM414.72,368c5.18-.06,8.17-1.89,9.74-5.59a9.1,9.1,0,0,0-2-10.67q-12-12.12-24.17-24.16c-4.09-4-10-4-13.73-.26s-3.63,9.63.42,13.73c7.93,8,15.94,16,23.91,23.94C410.79,366.87,413.05,368,414.72,368Zm-46.6,46.44c5.33-.14,8.2-1.9,9.87-5.39a8.93,8.93,0,0,0-1.69-10.7c-4.62-4.86-9.38-9.61-14.21-14.28-4.36-4.21-10.1-4.2-14-.16-3.61,3.76-3.4,9.59.65,13.77,4.44,4.57,9,9.05,13.51,13.53C364.28,413.14,366.61,414.47,368.12,414.39Z" transform="translate(-235.99 -206.73)"/><path class="cls-3" d="M269.21,320.62c2.46-3.39,5.74-4.37,9.89-4.18,6.58.3,13.18.06,19.78.08,4.5,0,7.72,2.9,7.72,6.83s-3.21,6.82-7.72,6.83c-6.59,0-13.2-.21-19.78.09-4.15.2-7.42-.82-9.89-4.18Z" transform="translate(-235.99 -206.73)"/><path class="cls-4" d="M567.46,474.9c5,3.26,7.21,3,11.6-1.34,4.93-4.89,4.93-4.89,9.9.08,5.7,5.71,11.42,11.41,17.1,17.14a16.51,16.51,0,0,0,4.29,3.23c-3.48,5.9-5.2,12.52-7.64,18.83-8.08,20.93-16,41.92-24,62.89q-13.43-13.31-26.86-26.61c-7.25-7.21-14.4-14.53-21.74-21.65-2-1.89-2.55-3.18-.09-5a22.08,22.08,0,0,0,2.67-2.63c3.91-4,4.24-6.38,1.53-11.15a141.16,141.16,0,0,1,11.78-11.81c4,2.45,7,2.43,9.58-.06s2.77-5.54.54-9.58c.24-1.33,1.34-2,2.18-2.92C561.38,481.2,564.42,478.06,567.46,474.9Z" transform="translate(-235.99 -206.73)"/><path class="cls-5" d="M327.2,290.68c.09,5.15-5.37,8.71-9.86,6.52a10.44,10.44,0,0,1-2.7-2q-15.47-15.41-30.9-30.87c-2.17-2.17-3.22-4.67-2.18-7.7A6.56,6.56,0,0,1,287,252a6.76,6.76,0,0,1,6.17,2.12Q309,269.92,324.8,285.73A8.33,8.33,0,0,1,327.2,290.68Z" transform="translate(-235.99 -206.73)"/><path class="cls-5" d="M607.27,258.8a8.26,8.26,0,0,1-2.5,5.39c-10.47,10.44-20.89,20.93-31.39,31.34-3.19,3.16-7.12,3.18-10,.36s-3-6.86.14-10q15.84-16,31.85-31.86a6.65,6.65,0,0,1,7.84-1.48C605.82,253.71,607,256,607.27,258.8Z" transform="translate(-235.99 -206.73)"/><path class="cls-3" d="M359.44,258.6c0,3.87.05,7.75,0,11.62a6.82,6.82,0,1,1-13.63.15q-.1-11.79,0-23.57A6.61,6.61,0,0,1,352.7,240c3.91,0,6.66,2.87,6.73,7C359.49,250.86,359.44,254.73,359.44,258.6Z" transform="translate(-235.99 -206.73)"/><path class="cls-3" d="M529,258.61c0-3.87,0-7.74,0-11.61.07-4.17,2.8-7,6.72-7,4.07-.05,6.9,2.81,6.93,7.17q.07,11.44,0,22.89c0,4.2-3.07,7.37-6.89,7.32s-6.72-3.19-6.76-7.45C528.92,266.13,529,262.37,529,258.61Z" transform="translate(-235.99 -206.73)"/><path class="cls-3" d="M600.53,316.52c3.76,0,7.52,0,11.27,0,4.45.05,7.33,2.7,7.38,6.73s-2.82,6.9-7.18,6.93q-11.44.07-22.89,0c-4.19,0-7.37-3.09-7.32-6.9s3.22-6.71,7.47-6.75C593,316.49,596.77,316.52,600.53,316.52Z" transform="translate(-235.99 -206.73)"/><path class="cls-6" d="M377.72,426.81c6.95-3.24,12.37-7.89,13.83-15.27,1-4.82,2.76-6.6,7.7-7.79,9.25-2.23,14.77-8.94,16.26-18.5.38-2.47,1-3.62,3.84-3.87,9.77-.87,18.21-9.48,19.4-19.5.26-2.19.76-3.34,3.32-3.65,9-1.08,15.33-6.1,18.57-14.51s2.06-16.44-3.91-23.25c-2.32-2.66-2.25-4,.25-6.32,7.1-6.74,13.83-13.87,20.87-20.68a9.39,9.39,0,0,1,15.92,4.29c1,3.63-.17,6.72-2.75,9.32-4.64,4.69-9.33,9.35-14,14-2.46,2.46-3.66,5.24-2,8.61,2.23,4.52,7.48,5.24,11.44,1.43,4.84-4.65,9.45-9.55,14.29-14.21,5.82-5.62,14.38-3.33,16.28,4.31.92,3.66-.45,6.67-3,9.24Q503.27,341.23,492.5,352c-1.85,1.84-3.21,3.87-2.86,6.59a6.42,6.42,0,0,0,4.37,5.62,7.12,7.12,0,0,0,7.79-2c6.74-6.79,13.52-13.53,20.29-20.29.8-.81,1.6-1.63,2.46-2.37,4.15-3.55,9.53-3.39,13.18.36s3.8,9.34-.19,13.44c-6.76,6.92-13.67,13.71-20.52,20.56-.72.72-1.48,1.41-2.16,2.17-2.78,3.11-2.8,7.09-.09,9.8a6.88,6.88,0,0,0,9.8-.19c7.23-7.1,14.36-14.3,21.53-21.47,2.13-2.13,4.4-3.9,7.64-4a9.1,9.1,0,0,1,8.69,4.92,8.8,8.8,0,0,1-.57,9.94,23.74,23.74,0,0,1-2.71,3.06c-17.78,17.8-35.64,35.54-53.37,53.42a97.46,97.46,0,0,1-54.66,28.36c-6.21,1-12.49.64-18.71,1.3a36.21,36.21,0,0,0-13.27,4,2.47,2.47,0,0,1-3.46-.54C403.12,452.08,390.53,439.56,377.72,426.81Z" transform="translate(-235.99 -206.73)"/><path class="cls-7" d="M305.59,575.75c-1.78-6.82-4.78-13.2-7.26-19.75-6.14-16.21-12.46-32.35-18.67-48.54-.37-1-.63-1.94-1.66-2.43a19.19,19.19,0,0,0,5.06-3.9q24-24,48-48.09c1.61-1.62,2.39-1.87,4.14-.09q22.2,22.44,44.63,44.68c1.34,1.34,2.13,2.16.29,4Q343.3,538.2,306.67,575A8.55,8.55,0,0,1,305.59,575.75Z" transform="translate(-235.99 -206.73)"/><path class="cls-8" d="M446.6,474.35a161.9,161.9,0,0,0,17.77-3.24,106,106,0,0,0,47.88-26.82c11.18-10.87,22.12-22,33.13-33a28.19,28.19,0,0,0,2.4-3.31,62.11,62.11,0,0,1,5.06,22c.06,1.08-.73,1.61-1.36,2.24Q523.22,460.45,495,488.73c-1.29,1.3-2.25,1.8-3.45.08-.19-.28-.5-.47-.71-.73-3.81-4.74-8-6.91-14.74-5.67C465.54,484.36,455.7,481.34,446.6,474.35Z" transform="translate(-235.99 -206.73)"/><path class="cls-9" d="M546.05,496.93a141.16,141.16,0,0,0-11.78,11.81c-4.95-3-7.12-2.73-11.36,1.48-5,4.93-5,4.93-10,0-2.81-2.82-5.58-5.69-8.47-8.43-1.22-1.15-1.39-1.84-.07-3.15q26.62-26.48,53.13-53.1c1.22-1.24,2-1.4,3.25-.06,3.94,4.1,8,8.14,12.08,12.07,1.29,1.23,1,1.92-.14,2.92s-2.43,2.39-3.64,3.6c-3.85,3.89-4.17,6-1.63,10.87-3,3.16-6.08,6.3-9.11,9.47-.84.88-1.94,1.59-2.18,2.92-3.74-2.73-7.16-2.87-9.85-.43C543.43,489.5,543.34,492.75,546.05,496.93Z" transform="translate(-235.99 -206.73)"/><path class="cls-10" d="M406.6,474.93c-.56.6-1,1.11-1.47,1.59-3.94,3.94-7.95,7.82-11.79,11.86-1.42,1.49-2.19,1.17-3.48-.13q-22.62-22.72-45.35-45.36c-1.08-1.08-1.68-1.72-.21-3.12,4.14-3.89,8.15-7.93,12.07-12,1.32-1.38,2-1.14,3.23.07q22.74,22.86,45.58,45.62C405.64,473.88,406.08,474.37,406.6,474.93Z" transform="translate(-235.99 -206.73)"/><path class="cls-11" d="M391.46,391.18c-1.56.11-3.91-1.14-5.91-3.14-8-8-16-15.87-23.85-23.89-4.05-4.11-4.1-10-.35-13.72s9.57-3.8,13.71.26c8.11,8,16.11,16,24.12,24.1a9.18,9.18,0,0,1,2.17,10.63C399.83,389.1,396.88,391,391.46,391.18Z" transform="translate(-235.99 -206.73)"/><path class="cls-12" d="M415.37,301.33a8.55,8.55,0,0,1,5.92,2.83c8.14,8.14,16.33,16.22,24.38,24.43a9.45,9.45,0,1,1-13.43,13.29q-12.32-12.09-24.41-24.4a9.36,9.36,0,0,1-2-10.69C407.61,303.17,410.52,301.31,415.37,301.33Z" transform="translate(-235.99 -206.73)"/><path class="cls-12" d="M414.72,368c-1.67.08-3.93-1.08-5.87-3-8-8-16-15.91-23.91-23.94-4.05-4.1-4.16-10-.42-13.73s9.64-3.77,13.73.26q12.17,12,24.17,24.16a9.1,9.1,0,0,1,2,10.67C422.89,366.06,419.9,367.89,414.72,368Z" transform="translate(-235.99 -206.73)"/><path class="cls-13" d="M368.12,414.39c-1.51.08-3.84-1.25-5.84-3.23-4.53-4.48-9.07-9-13.51-13.53-4-4.18-4.26-10-.65-13.77,3.87-4,9.61-4.05,14,.16,4.83,4.67,9.59,9.42,14.21,14.28A8.93,8.93,0,0,1,378,409C376.32,412.49,373.45,414.25,368.12,414.39Z" transform="translate(-235.99 -206.73)"/><path class="cls-14" d="M546.05,496.93c-2.71-4.18-2.62-7.43.27-10.07,2.69-2.44,6.11-2.3,9.85.43,2.23,4,2.06,7.12-.54,9.58S550.08,499.38,546.05,496.93Z" transform="translate(-235.99 -206.73)"/></svg>