<svg id="Layer_1" data-name="Layer 1" xmlns="http://www.w3.org/2000/svg" viewBox="0 0 409.62 409.74"><defs><style>.cls-1{fill:#0b0902;}.cls-2{fill:#fbc014;}.cls-3{fill:#090905;}.cls-4{fill:#121008;}.cls-5{fill:#231f20;}</style></defs><title>new</title><path class="cls-1" d="M382.37,406.37l0,0,0,0Z" transform="translate(-93.6 -83.86)"/><path class="cls-1" d="M503.16,160c0-38.06-28.58-70.07-66.42-75.26A86.93,86.93,0,0,0,424.8,84c-98.91,0-197.83.13-296.75-.16-17.47,0-30.88,11.31-33.72,25.81a0,0,0,0,1,0,0,6.73,6.73,0,0,0-.72,3.61v9.46a2.68,2.68,0,0,0,.13.84c4,12.46,13.89,20.31,22.62,29.05q105.5,105.53,211,211a9.9,9.9,0,0,0,12.38,1.3h0A7.78,7.78,0,0,0,341,353L117.34,129.32c-6.88-6.88-8.33-13.9-4.22-20.74,2.45-4.09,6-6.7,10.89-7.07,1.85-.15,3.71-.41,5.56-.41q147,0,294,0c11.5,0,22.54,2,32.51,8,20.51,12.36,30.1,30.84,30.1,54.55q0,72,0,144,0,75.19,0,150.39c0,5.19-.74,10.07-4.71,13.93A15.3,15.3,0,0,1,461.4,473a39.44,39.44,0,0,1-3.24-3l-63.71-63.69a8.53,8.53,0,0,0-12.08,0h0l0,0h0a8.66,8.66,0,0,0,0,12.24L444.72,481c1.6,1.6,3.37,3,4.95,4.65,3.82,3.94,9.1,5.2,13.74,7.62a2.76,2.76,0,0,0,1.26.31h9.81a4.34,4.34,0,0,0,2.23-.58c1.09-.64,2.45-.57,3.61-.93,13.86-4.28,22.86-16.09,22.86-30.58Q503.23,310.73,503.16,160Z" transform="translate(-93.6 -83.86)"/><path class="cls-2" d="M346.72,358.65l.28.28V358A6.36,6.36,0,0,1,346.72,358.65Z" transform="translate(-93.6 -83.86)"/><path class="cls-2" d="M486.16,307.61q0-72,0-144c0-23.71-9.59-42.19-30.1-54.55-10-6-21-8-32.51-8q-147,0-294,0c-1.85,0-3.71.26-5.56.41-4.92.37-8.44,3-10.89,7.07-4.11,6.84-2.66,13.86,4.22,20.74L346.72,358.65A6.36,6.36,0,0,0,347,358v.93L458.16,470.06a39.44,39.44,0,0,0,3.24,3,15.3,15.3,0,0,0,20.05-1.1c4-3.86,4.72-8.74,4.71-13.93Q486.15,382.81,486.16,307.61ZM272.41,220.48c-5.18-.2-8.85-4.91-7.82-10.32,3.3-17.21,6.77-34.4,10.2-51.59a8.27,8.27,0,0,0,0-4.84c-4.1,4.15-7.72,7.82-11.35,11.47-6,6-12,12.12-18.1,18.08-3.44,3.35-7,3.91-10.51,1.88a8.14,8.14,0,0,1-4.33-8.71,10,10,0,0,1,3.32-5.77q24.44-24.47,48.92-48.88c3.7-3.69,7.64-4.5,11.14-2.56,3.91,2.17,5.14,5.62,4.06,11q-5.37,26.55-10.65,53.11a6.26,6.26,0,0,0,0,1.23c1.53.11,2-1.17,2.8-1.92,8.89-8.82,17.73-17.7,26.61-26.53,2.62-2.61,5.47-4.62,9.54-3.49,5.52,1.53,8.07,7.26,5.23,12.22a18.72,18.72,0,0,1-3,3.71q-23.87,23.93-47.75,47.8C278.37,218.67,275.84,220.62,272.41,220.48Zm74.75,14.45c-3.62,3.77-8.57,3.54-13.09-.73-2.72-2.57-5.43-5.15-7.9-7.94-1.71-1.93-2.79-1.69-4.41.08-2.88,3.14-5.9,6.17-9.05,9-1.82,1.65-1.85,2.68,0,4.41,5.4,5.16,10.58,10.53,15.89,15.78,2.14,2.12,3.74,4.48,4,7.72-.3,3.08-1.58,5.79-4.56,7.33a8,8,0,0,1-8.66-.44c-3.22-2.18-5.66-5.23-8.41-7.94q-8.55-8.42-17-17c-5.35-5.41-5.45-9.85-.18-15.14q24.12-24.22,48.36-48.34c5.08-5.05,9.65-5.22,14.56-.41,8,7.84,15.89,15.79,23.75,23.75,2.64,2.68,4.27,5.77,2.84,9.72a8.22,8.22,0,0,1-6.66,5.58c-3.53.68-6.17-1.09-8.5-3.39-5.4-5.34-10.8-10.68-16.08-16.15-1.7-1.77-2.81-2.28-4.7-.14-2.91,3.29-6.1,6.34-9.31,9.34-1.55,1.45-1.54,2.4,0,3.83,2.84,2.63,5.56,5.39,8.21,8.2C350.39,226.55,350.68,231.26,347.16,234.93Zm118.54,69a22.11,22.11,0,0,1-3.73,2.27q-31.86,16-63.75,31.86c-2,1-4,2.14-6.39,1.92-5.9-.53-9.31-5.89-7.35-12,3.33-10.36,6.84-20.67,10.26-31,.24-.72.37-1.47.76-3-11.44,3.8-22.14,7.32-32.8,10.91a11.29,11.29,0,0,1-7.42.41,8.17,8.17,0,0,1-5.1-10.28,24.3,24.3,0,0,1,1.46-3.68q15.9-31.91,31.85-63.79c1.71-3.41,3.63-6.52,8.05-6.78,6.31-.38,10.69,5,8.63,11a83.68,83.68,0,0,1-4.46,9.74c-6.73,13.52-13.52,27-20.6,41.17l28-9.24c.88-.29,1.75-.63,2.64-.9,3.53-1.05,6.91-.93,9.64,1.85s2.92,6.15,1.77,9.65c-3.1,9.46-6.26,18.89-9.39,28.34-.16.48-.3,1-.66,2.08,3.64-1.78,6.77-3.28,9.88-4.83q18.88-9.44,37.74-18.89c3-1.51,6.09-2.71,9.49-1A8.42,8.42,0,0,1,465.7,303.92Z" transform="translate(-93.6 -83.86)"/><path class="cls-3" d="M395.5,293.94c-11.44,3.8-22.14,7.32-32.8,10.91a11.29,11.29,0,0,1-7.42.41,8.17,8.17,0,0,1-5.1-10.28,24.3,24.3,0,0,1,1.46-3.68q15.9-31.91,31.85-63.79c1.71-3.41,3.63-6.52,8.05-6.78,6.31-.38,10.69,5,8.63,11a83.68,83.68,0,0,1-4.46,9.74c-6.73,13.52-13.52,27-20.6,41.17l28-9.24c.88-.29,1.75-.63,2.64-.9,3.53-1.05,6.91-.93,9.64,1.85s2.92,6.15,1.77,9.65c-3.1,9.46-6.26,18.89-9.39,28.34-.16.48-.3,1-.66,2.08,3.64-1.78,6.77-3.28,9.88-4.83q18.88-9.44,37.74-18.89c3-1.51,6.09-2.71,9.49-1a8.42,8.42,0,0,1,1.49,14.24,22.11,22.11,0,0,1-3.73,2.27q-31.86,16-63.75,31.86c-2,1-4,2.14-6.39,1.92-5.9-.53-9.31-5.89-7.35-12,3.33-10.36,6.84-20.67,10.26-31C395,296.26,395.11,295.51,395.5,293.94Z" transform="translate(-93.6 -83.86)"/><path class="cls-3" d="M274.76,153.73c-4.1,4.15-7.72,7.82-11.35,11.47-6,6-12,12.12-18.1,18.08-3.44,3.35-7,3.91-10.51,1.88a8.14,8.14,0,0,1-4.33-8.71,10,10,0,0,1,3.32-5.77q24.44-24.47,48.92-48.88c3.7-3.69,7.64-4.5,11.14-2.56,3.91,2.17,5.14,5.62,4.06,11q-5.37,26.55-10.65,53.11a6.26,6.26,0,0,0,0,1.23c1.53.11,2-1.17,2.8-1.92,8.89-8.82,17.73-17.7,26.61-26.53,2.62-2.61,5.47-4.62,9.54-3.49,5.52,1.53,8.07,7.26,5.23,12.22a18.72,18.72,0,0,1-3,3.71q-23.87,23.93-47.75,47.8c-2.32,2.33-4.85,4.28-8.28,4.14-5.18-.2-8.85-4.91-7.82-10.32,3.3-17.21,6.77-34.4,10.2-51.59A8.27,8.27,0,0,0,274.76,153.73Z" transform="translate(-93.6 -83.86)"/><path class="cls-4" d="M332.54,263.29c-.3,3.08-1.58,5.79-4.56,7.33a8,8,0,0,1-8.66-.44c-3.22-2.18-5.66-5.23-8.41-7.94q-8.55-8.42-17-17c-5.35-5.41-5.45-9.85-.18-15.14q24.12-24.22,48.36-48.34c5.08-5.05,9.65-5.22,14.56-.41,8,7.84,15.89,15.79,23.75,23.75,2.64,2.68,4.27,5.77,2.84,9.72a8.22,8.22,0,0,1-6.66,5.58c-3.53.68-6.17-1.09-8.5-3.39-5.4-5.34-10.8-10.68-16.08-16.15-1.7-1.77-2.81-2.28-4.7-.14-2.91,3.29-6.1,6.34-9.31,9.34-1.55,1.45-1.54,2.4,0,3.83,2.84,2.63,5.56,5.39,8.21,8.2,4.16,4.42,4.45,9.13.93,12.8s-8.57,3.54-13.09-.73c-2.72-2.57-5.43-5.15-7.9-7.94-1.71-1.93-2.79-1.69-4.41.08-2.88,3.14-5.9,6.17-9.05,9-1.82,1.65-1.85,2.68,0,4.41,5.4,5.16,10.58,10.53,15.89,15.78C330.71,257.69,332.31,260.05,332.54,263.29Z" transform="translate(-93.6 -83.86)"/><circle class="cls-5" cx="280.4" cy="313.85" r="8.68"/></svg>