<svg id="Layer_1" data-name="Layer 1" xmlns="http://www.w3.org/2000/svg" viewBox="0 0 349.87 349.87"><defs><style>.cls-1{fill:#e4f5fa;}.cls-2{fill:#0f0d09;}.cls-3{fill:#faefdf;}.cls-4{fill:#fee0ba;}.cls-5{fill:#dfba7f;}.cls-6{fill:#060503;}.cls-7{fill:#11100f;}.cls-8{fill:#0b0a09;}.cls-9{fill:#070706;}.cls-10{fill:#10100e;}.cls-11{fill:#010101;}.cls-12{fill:#020202;}.cls-13{fill:#181715;}.cls-14{fill:#131311;}.cls-15{fill:#dfba80;}.cls-16{fill:#b28f57;}.cls-17{fill:#101011;}.cls-18{fill:#e4e4ea;}.cls-19{fill:#c3c3cf;}.cls-20{fill:#f1c418;}.cls-21{fill:#92989e;}</style></defs><title>Newspaper</title><rect class="cls-1" width="349.87" height="349.87" rx="23.29"/><path class="cls-2" d="M189.32,454V262.3c7.85,0,15.7-.14,23.54-.07,1.93,0,2.45-.58,2.34-2.41-.15-2.49.11-5-.08-7.49-.16-2.05.52-2.55,2.52-2.51,7.22.12,14.45,0,21.68.08,1.49,0,2.05-.34,2-1.91-.12-2.58.11-5.19-.08-7.76-.15-2.09.48-2.61,2.59-2.61q108.57.09,217.13,0c2,0,2.63.43,2.63,2.57q-.1,104.28-.06,208.56c0,14.69-11,25.61-25.71,25.62h-41.5c-4.41,0-4.41,0-4.63-4.28,0-.36.08-.71.08-1.06.05-3.5.05-3.5,3.54-3.5q20.48,0,40.94,0c1.24,0,2.48-.18,3.72-.28a9.41,9.41,0,0,0,5.35-1.33c6.76-3.45,9.36-9.16,9.36-16.61q-.11-97.08,0-194.18c0-7.1,0-7.1-7.17-6.42-1-.06-1.94-.18-2.91-.18q-95.56,0-191.12-.08c-2.74,0-3.31.7-3.31,3.36q.12,96.09.1,192.19c0,8.25,0,16.4-6.14,23.54H378.7c4.71,0,4.71,0,5.05,4.55-.72,1.51,1.54,4.36-2.53,4.35q-83.54-.14-167.06-.07a25.16,25.16,0,0,1-23.8-17.76C190.1,455.72,190.22,454.65,189.32,454Zm34.31-137.85a10.5,10.5,0,0,0-3.83.09c-4.6-.34-4.6-.34-4.6-5.07,0-12.32-.11-24.64.07-36.95,0-2.84-.83-3.46-3.44-3.3a77.24,77.24,0,0,1-10.43,0c-2.64-.19-3.21.69-3.21,3.25q.12,86.47.07,173c0,1.42,0,2.86.15,4.28.62,6.77,6.83,13.08,13.57,13.86,3.21.37,3.22.37,3.22-2.92V330.1c0-4.68,0-4.68,4.7-4.88,4.23.31,4.23.31,4.23,4.75v132a12.94,12.94,0,0,1,0,1.87c-.22,1.55.52,1.71,1.85,1.64,8.63-.43,15.29-7.64,15.29-16.76q0-93.69.05-187.38c0-2-.34-2.81-2.57-2.7a105,105,0,0,1-11.77,0c-2.43-.15-2.9.63-2.89,2.93.09,18.12,0,36.23,0,54.34Z" transform="translate(-140.13 -124.56)"/><path class="cls-3" d="M391.66,470.09h-7.91c-.34-4.55-.34-4.55-5.05-4.55H244.06c6.16-7.14,6.14-15.29,6.14-23.54q-.09-96.11-.1-192.19c0-2.66.57-3.36,3.31-3.36q95.57.13,191.12.08c1,0,1.94.12,2.91.18q0,100.49,0,201a32.1,32.1,0,0,1-.23,4.26c-.71,5.4-3.45,9.63-7.25,13.31-1.24.1-2.48.28-3.72.28q-20.48,0-40.94,0c-3.49,0-3.49,0-3.54,3.5C391.74,469.38,391.69,469.73,391.66,470.09Zm-35-39.57c12.4,0,24.8,0,37.19.05,1.9,0,2.33-.51,2.33-2.36q-.1-37.32,0-74.65c0-2.07-.59-2.44-2.52-2.43q-37.32.11-74.65,0c-1.91,0-2.31.52-2.3,2.36q.09,37.32,0,74.64c0,2.05.54,2.46,2.5,2.45C331.7,430.47,344.19,430.52,356.67,430.52Zm-3-97h85.1c6,0,5.89,0,6.1-6.05.09-2.56-.77-3-3.1-3q-86.58.09-173.15,0c-6.08,0-6,0-6.13,6.09-.05,2.28.43,3,2.87,3C294.76,333.47,324.19,333.51,353.63,333.51Zm29.47-45c-2.28-7.09-4.3-13.33-6.3-19.58-1.77-5.55-1.76-5.44-7.59-5.57-2-.05-2.6.74-3.1,2.37q-2.91,9.54-6,19c-.34,1-.3,2.29-1.41,3.05-1.7-7.87-3.38-15.68-5.06-23.5-.28-1.3-.58-2.28-2.38-1.57a18.42,18.42,0,0,1-4.94,1.09c-1.63.17-1.79.79-1.46,2.27,2.62,11.61,5.15,23.23,7.71,34.85,1.34,6.1,1.35,6,7.6,6.06,1.79,0,2.41-.64,2.9-2.27,2.17-7.12,4.47-14.2,6.79-21.28.33-1,.29-2.25,1.35-3,2.19,6.81,4.37,13.56,6.53,20.31,2,6.33,2,6.29,8.43,6.2,1.48,0,2.12-.35,2.46-2,2.41-11.47,5-22.91,7.47-34.36,1.53-7,1.51-7-5.79-7.94-1.17-.15-1.56,0-1.78,1.16-.46,2.53-1.05,5-1.61,7.56C385.7,276.86,384.48,282.3,383.1,288.5Zm-112.18-8.67.56-.19c5.12,7.37,10.49,14.58,15.25,22.17,2.39,3.81,5.06,5.34,9.47,4.86,2.05-.22,2.44-.72,2.42-2.62-.08-11.5,0-23,0-34.5,0-7,0-6.93-6.9-6.81-1.54,0-1.93.46-1.91,2,.07,7.66,0,15.33,0,23,0,.62.39,1.39-.48,2-5.1-7.32-10.4-14.45-15.14-21.94-2.4-3.8-5-5.67-9.57-5.1-2.17.27-2.51.84-2.5,2.76.08,11.86,0,23.72,0,35.57,0,6.11,0,6,6,6.14,2.23.05,2.84-.57,2.81-2.8C270.84,296.18,270.92,288,270.92,279.83Zm37.95,5c0,6.41.09,12.84-.06,19.25-.05,2.17.44,2.92,2.73,2.84,5.35-.17,10.7,0,16,0,6.88,0,6.82,0,6.65-6.87,0-1.58-.56-2-2-1.9-2.59.1-5.17,0-7.76,0-7.26,0-7.23,0-6.67-7.34.09-1.17.44-1.53,1.57-1.5,2.23.07,4.46,0,6.69,0,7.16,0,7.1,0,6.9-7.11,0-1.5-.57-1.76-1.87-1.71-2.22.08-4.45,0-6.68,0-7,0-6.93,0-6.62-7.1.06-1.31.42-1.67,1.69-1.63,2.67.09,5.34,0,8,0,6.85,0,6.78,0,6.75-6.83,0-1.86-.66-2.17-2.31-2.15-6.95.08-13.91.09-20.86,0-1.75,0-2.28.44-2.25,2.21C308.93,271.61,308.87,278.21,308.87,284.81Zm101.71,15.7c7.77,7.65,20.74,8.77,28.28,2.48,6.36-5.3,6.16-13.77-.46-18.74a19.88,19.88,0,0,0-5.12-2.79c-3.34-1.2-6.67-2.42-10-3.69-1.36-.52-3.27-.79-3-2.77s1.88-2.63,3.61-3.08c3.49-.9,6.71,0,9.75,1.59,1.16.61,1.78.67,2.57-.55,1.25-1.94,2.76-3.71,4.15-5.56-6.1-5-16.14-6.17-22.55-2.51-4.39,2.51-6.79,6.23-6.29,11.43.46,4.76,3.27,7.72,7.61,9.36,4.14,1.57,8.33,3,12.43,4.68,1.45.59,3.06,1.5,3,3.4s-1.65,2.88-3.21,3.57c-3.49,1.57-6.93.79-10.39-.31-1.7-.54-2.86-3-4.68-2.1s-2.85,2.64-4.23,4C411.53,299.46,411.06,300,410.58,300.51ZM295.88,448.15h27.56c6.3,0,6.21,0,6.32-6.34,0-2-.54-2.47-2.51-2.46-19.44.07-38.88,0-58.32,0-6.48,0-6.39,0-6.46,6.5,0,1.94.56,2.32,2.38,2.31C275.19,448.11,285.54,448.15,295.88,448.15Zm118.36-8.76H389.88c-6.33,0-6.24,0-6.35,6.34,0,2,.5,2.48,2.49,2.47,17.39-.08,34.79,0,52.19-.06,2.11,0,5,.93,6.12-.4s.26-4.06.45-6.17c.16-1.73-.4-2.24-2.17-2.22C433.15,439.44,423.7,439.39,414.24,439.39ZM281.69,376.88H294.8c6.46,0,6.37,0,6.46-6.51,0-2-.5-2.54-2.52-2.52-9.8.11-19.61,0-29.42,0-7,0-6.93,0-6.86,7,0,1.66.47,2.1,2.11,2.07C270.27,376.82,276,376.88,281.69,376.88Zm143.73,0c4.28,0,8.56.06,12.84,0,2.11,0,5,1,6.11-.43s.23-4.08.42-6.19c.16-1.84-.39-2.41-2.31-2.39-9.81.1-19.62,0-29.43,0-7.13,0-7.08,0-6.95,7.08,0,1.5.41,2,1.93,1.94C413.83,376.83,419.62,376.88,425.42,376.88ZM282,359.94H294.8c6.47,0,6.38,0,6.46-6.53,0-2-.62-2.29-2.41-2.28-9.89.09-19.78,0-29.68,0-6.82,0-6.75,0-6.7,6.76,0,1.7.53,2.07,2.12,2C270.38,359.88,276.18,359.94,282,359.94Zm143.27,0c4.36,0,8.73,0,13.09,0,2,0,4.76.71,5.95-.31,1.41-1.22.23-4,.49-6.13.24-1.83-.33-2.39-2.26-2.37-10,.11-20,.05-29.94.05-6.48,0-6.41,0-6.47,6.43,0,1.82.36,2.43,2.3,2.39C414,359.84,419.63,359.94,425.24,359.94ZM281.68,395.17h13.1c6.49,0,6.41,0,6.47-6.46,0-1.92-.56-2.33-2.38-2.32-9.89.09-19.78,0-29.67,0-6.83,0-6.76,0-6.73,6.74,0,1.7.51,2.06,2.11,2C270.28,395.11,276,395.17,281.68,395.17Zm143.78,0c4.27,0,8.54.05,12.82,0,2.1,0,5,1,6.09-.43s.21-4.08.42-6.18c.18-1.87-.6-2.15-2.24-2.14-9.89.07-19.77,0-29.65,0-7,0-6.92,0-6.8,6.92,0,1.59.57,1.86,2,1.85C413.88,395.13,419.67,395.17,425.46,395.17ZM282,430.52H294.8c6.48,0,6.39,0,6.46-6.48,0-2-.63-2.31-2.41-2.29-9.89.08-19.78,0-29.67,0-6.82,0-6.74,0-6.71,6.75,0,1.74.57,2,2.13,2C270.39,430.47,276.18,430.52,282,430.52Zm143.52,0c4.28,0,8.55.06,12.82,0,2.1,0,4.88,1,6.1-.45,1-1.2.19-3.91.38-5.93.17-1.83-.35-2.39-2.29-2.37-10,.11-19.94.05-29.91.05-6.56,0-6.51,0-6.49,6.68,0,1.59.33,2.13,2,2.09C413.92,430.45,419.71,430.52,425.49,430.52Zm-7.79-16.84h5.08c7,0,7,0,6.87-7,0-1.8-.71-2-2.21-2-4.81.08-9.62,0-14.43,0-7.36,0-7.32,0-6.91,7.31.07,1.3.47,1.67,1.72,1.65C411.11,413.64,414.41,413.68,417.7,413.68Zm-143.34-8.93h-5.09c-7,0-6.94,0-6.81,6.93,0,1.73.66,2.06,2.2,2,4.82-.08,9.64,0,14.45,0,7.14,0,7.1,0,6.8-7.29-.06-1.27-.34-1.71-1.65-1.67C281,404.81,277.66,404.75,274.36,404.75Z" transform="translate(-140.13 -124.56)"/><path class="cls-4" d="M219.8,316.26a10.5,10.5,0,0,1,3.83-.09c.39.26.47.05.46-.3,0-18.11.07-36.22,0-54.34,0-2.3.46-3.08,2.89-2.93a105,105,0,0,0,11.77,0c2.23-.11,2.57.71,2.57,2.7q-.08,93.69-.05,187.38c0,9.12-6.66,16.33-15.29,16.76-1.33.07-2.07-.09-1.85-1.64a12.94,12.94,0,0,0,0-1.87V330c0-4.44,0-4.44-4.23-4.75C219.87,322.23,219.83,319.25,219.8,316.26Z" transform="translate(-140.13 -124.56)"/><path class="cls-5" d="M219.8,316.26c0,3,.07,6,.1,9-4.7.2-4.7.2-4.7,4.88V462.36c0,3.29,0,3.29-3.22,2.92-6.74-.78-12.95-7.09-13.57-13.86-.13-1.42-.15-2.86-.15-4.28q0-86.47-.07-172.95c0-2.56.57-3.44,3.21-3.25a77.24,77.24,0,0,0,10.43,0c2.61-.16,3.49.46,3.44,3.3-.18,12.31-.07,24.63-.07,36.95C215.2,315.92,215.2,315.92,219.8,316.26Z" transform="translate(-140.13 -124.56)"/><path class="cls-4" d="M439.94,465.24c3.8-3.68,6.54-7.91,7.25-13.31a32.1,32.1,0,0,0,.23-4.26q0-100.49,0-201c7.17-.68,7.17-.68,7.17,6.42q0,97.1,0,194.18c0,7.45-2.6,13.16-9.36,16.61A9.41,9.41,0,0,1,439.94,465.24Z" transform="translate(-140.13 -124.56)"/><path class="cls-5" d="M224.09,315.87c0,.35-.07.56-.46.3Z" transform="translate(-140.13 -124.56)"/><path class="cls-6" d="M356.67,430.52c-12.48,0-25,0-37.45.05-2,0-2.51-.4-2.5-2.45q.12-37.32,0-74.64c0-1.84.39-2.36,2.3-2.36q37.34.12,74.65,0c1.93,0,2.52.36,2.52,2.43q-.13,37.32,0,74.65c0,1.85-.43,2.37-2.33,2.36C381.47,430.48,369.07,430.52,356.67,430.52Zm23.18-70.39a2.41,2.41,0,0,0-.52-.11c-17.23,0-34.45,0-51.68,0-2.13,0-2,1.14-2,2.53q0,16.74,0,33.47,0,11.77,0,23.56c0,1.22-.11,2.25,1.72,2.24q26.22-.12,52.46-.14a40.27,40.27,0,0,1,4.54.16c2.57.37,3-.75,3-3.12-.1-17.29-.05-34.59-.05-51.89C387.4,359.3,387.4,359.3,379.85,360.13Z" transform="translate(-140.13 -124.56)"/><path class="cls-7" d="M353.63,333.51c-29.44,0-58.87,0-88.31.07-2.44,0-2.92-.68-2.87-3,.16-6.09.05-6.09,6.13-6.09q86.58,0,173.15,0c2.33,0,3.19.42,3.1,3-.21,6.05-.07,6.05-6.1,6.05Z" transform="translate(-140.13 -124.56)"/><path class="cls-8" d="M383.1,288.5c1.38-6.2,2.6-11.64,3.8-17.08.56-2.52,1.15-5,1.61-7.56.22-1.15.61-1.31,1.78-1.16,7.3,1,7.32.94,5.79,7.94-2.5,11.45-5.06,22.89-7.47,34.36-.34,1.62-1,1.95-2.46,2-6.41.09-6.4.13-8.43-6.2-2.16-6.75-4.34-13.5-6.53-20.31-1.06.73-1,2-1.35,3-2.32,7.08-4.62,14.16-6.79,21.28-.49,1.63-1.11,2.28-2.9,2.27-6.25,0-6.26,0-7.6-6.06-2.56-11.62-5.09-23.24-7.71-34.85-.33-1.48-.17-2.1,1.46-2.27a18.42,18.42,0,0,0,4.94-1.09c1.8-.71,2.1.27,2.38,1.57,1.68,7.82,3.36,15.63,5.06,23.5,1.11-.76,1.07-2,1.41-3.05q3.09-9.48,6-19c.5-1.63,1.14-2.42,3.1-2.37,5.83.13,5.82,0,7.59,5.57C378.8,275.17,380.82,281.41,383.1,288.5Z" transform="translate(-140.13 -124.56)"/><path class="cls-9" d="M270.92,279.83c0,8.17-.08,16.35.06,24.52,0,2.23-.58,2.85-2.81,2.8-6-.14-6,0-6-6.14,0-11.85,0-23.71,0-35.57,0-1.92.33-2.49,2.5-2.76,4.61-.57,7.17,1.3,9.57,5.1,4.74,7.49,10,14.62,15.14,21.94.87-.63.47-1.4.48-2,0-7.67.06-15.34,0-23,0-1.5.37-1.94,1.91-2,6.9-.12,6.9-.17,6.9,6.81,0,11.5,0,23,0,34.5,0,1.9-.37,2.4-2.42,2.62-4.41.48-7.08-1.05-9.47-4.86-4.76-7.59-10.13-14.8-15.25-22.17Z" transform="translate(-140.13 -124.56)"/><path class="cls-10" d="M308.87,284.81c0-6.6.06-13.2,0-19.8,0-1.77.5-2.23,2.25-2.21,6.95.1,13.91.09,20.86,0,1.65,0,2.3.29,2.31,2.15,0,6.83.1,6.83-6.75,6.83-2.68,0-5.35.06-8,0-1.27,0-1.63.32-1.69,1.63-.31,7.1-.35,7.1,6.62,7.1,2.23,0,4.46.06,6.68,0,1.3-.05,1.82.21,1.87,1.71.2,7.11.26,7.11-6.9,7.11-2.23,0-4.46,0-6.69,0-1.13,0-1.48.33-1.57,1.5-.56,7.34-.59,7.34,6.67,7.34,2.59,0,5.17.07,7.76,0,1.45-.06,2,.32,2,1.9.17,6.87.23,6.87-6.65,6.87-5.35,0-10.7-.12-16,0-2.29.08-2.78-.67-2.73-2.84C309,297.65,308.87,291.22,308.87,284.81Z" transform="translate(-140.13 -124.56)"/><path class="cls-8" d="M410.58,300.51c.48-.52.95-1.05,1.44-1.56,1.38-1.39,2.56-3.22,4.23-4s3,1.56,4.68,2.1c3.46,1.1,6.9,1.88,10.39.31,1.56-.69,3.14-1.63,3.21-3.57s-1.53-2.81-3-3.4c-4.1-1.66-8.29-3.11-12.43-4.68-4.34-1.64-7.15-4.6-7.61-9.36-.5-5.2,1.9-8.92,6.29-11.43,6.41-3.66,16.45-2.51,22.55,2.51-1.39,1.85-2.9,3.62-4.15,5.56-.79,1.22-1.41,1.16-2.57.55-3-1.62-6.26-2.49-9.75-1.59-1.73.45-3.38,1.18-3.61,3.08s1.67,2.25,3,2.77c3.31,1.27,6.64,2.49,10,3.69a19.88,19.88,0,0,1,5.12,2.79c6.62,5,6.82,13.44.46,18.74C431.32,309.28,418.35,308.16,410.58,300.51Z" transform="translate(-140.13 -124.56)"/><path class="cls-11" d="M295.88,448.15c-10.34,0-20.69,0-31,.05-1.82,0-2.41-.37-2.38-2.31.07-6.5,0-6.5,6.46-6.5,19.44,0,38.88,0,58.32,0,2,0,2.54.43,2.51,2.46-.11,6.34,0,6.34-6.32,6.34Z" transform="translate(-140.13 -124.56)"/><path class="cls-11" d="M414.24,439.39c9.46,0,18.91.05,28.37,0,1.77,0,2.33.49,2.17,2.22-.19,2.11.62,4.9-.45,6.17s-4,.39-6.12.4c-17.4,0-34.8,0-52.19.06-2,0-2.53-.45-2.49-2.47.11-6.34,0-6.34,6.35-6.34Z" transform="translate(-140.13 -124.56)"/><path class="cls-7" d="M281.69,376.88c-5.71,0-11.42-.06-17.12,0-1.64,0-2.09-.41-2.11-2.07-.07-7-.13-7,6.86-7,9.81,0,19.62.06,29.42,0,2,0,2.55.52,2.52,2.52-.09,6.51,0,6.51-6.46,6.51Z" transform="translate(-140.13 -124.56)"/><path class="cls-7" d="M425.42,376.88c-5.8,0-11.59-.05-17.39,0-1.52,0-1.91-.44-1.93-1.94-.13-7.08-.18-7.08,6.95-7.08,9.81,0,19.62.05,29.43,0,1.92,0,2.47.55,2.31,2.39-.19,2.11.64,4.88-.42,6.19s-4,.39-6.11.43C434,376.94,429.7,376.88,425.42,376.88Z" transform="translate(-140.13 -124.56)"/><path class="cls-12" d="M282,359.94c-5.79,0-11.59-.06-17.38,0-1.59,0-2.11-.34-2.12-2-.05-6.76-.12-6.76,6.7-6.76,9.9,0,19.79.05,29.68,0,1.79,0,2.43.32,2.41,2.28-.08,6.53,0,6.53-6.46,6.53Z" transform="translate(-140.13 -124.56)"/><path class="cls-11" d="M425.24,359.94c-5.61,0-11.23-.1-16.84.05-1.94,0-2.32-.57-2.3-2.39.06-6.43,0-6.43,6.47-6.43,10,0,20,.06,29.94-.05,1.93,0,2.5.54,2.26,2.37-.26,2.1.92,4.91-.49,6.13-1.19,1-3.91.3-5.95.31C434,360,429.6,359.94,425.24,359.94Z" transform="translate(-140.13 -124.56)"/><path class="cls-12" d="M281.68,395.17c-5.7,0-11.4-.06-17.1,0-1.6,0-2.1-.34-2.11-2,0-6.74-.1-6.74,6.73-6.74,9.89,0,19.78.05,29.67,0,1.82,0,2.4.4,2.38,2.32-.06,6.46,0,6.46-6.47,6.46Z" transform="translate(-140.13 -124.56)"/><path class="cls-11" d="M425.46,395.17c-5.79,0-11.58,0-17.37,0-1.42,0-2-.26-2-1.85-.12-6.92-.18-6.92,6.8-6.92,9.88,0,19.76,0,29.65,0,1.64,0,2.42.27,2.24,2.14-.21,2.1.64,4.86-.42,6.18s-4,.39-6.09.43C434,395.22,429.73,395.17,425.46,395.17Z" transform="translate(-140.13 -124.56)"/><path class="cls-12" d="M282,430.52c-5.79,0-11.58,0-17.37,0-1.56,0-2.13-.27-2.13-2,0-6.75-.11-6.75,6.71-6.75,9.89,0,19.78,0,29.67,0,1.78,0,2.43.34,2.41,2.29-.07,6.48,0,6.48-6.46,6.48Z" transform="translate(-140.13 -124.56)"/><path class="cls-11" d="M425.49,430.52c-5.78,0-11.57-.07-17.35,0-1.71,0-2-.5-2-2.09,0-6.68-.07-6.68,6.49-6.68,10,0,19.94.06,29.91-.05,1.94,0,2.46.54,2.29,2.37-.19,2,.64,4.73-.38,5.93-1.22,1.42-4,.41-6.1.45C434,430.58,429.77,430.52,425.49,430.52Z" transform="translate(-140.13 -124.56)"/><path class="cls-13" d="M417.7,413.68c-3.29,0-6.59,0-9.88,0-1.25,0-1.65-.35-1.72-1.65-.41-7.31-.45-7.31,6.91-7.31,4.81,0,9.62.05,14.43,0,1.5,0,2.18.18,2.21,2,.1,7,.17,7-6.87,7Z" transform="translate(-140.13 -124.56)"/><path class="cls-14" d="M274.36,404.75c3.3,0,6.6.06,9.9,0,1.31,0,1.59.4,1.65,1.67.3,7.29.34,7.29-6.8,7.29-4.81,0-9.63-.05-14.45,0-1.54,0-2.17-.3-2.2-2-.13-6.93-.19-6.93,6.81-6.93Z" transform="translate(-140.13 -124.56)"/><path class="cls-15" d="M379.87,421.64q-26.24.06-52.46.14c-1.83,0-1.73-1-1.72-2.24q0-11.78,0-23.56,0-16.74,0-33.47c0-1.39-.16-2.54,2-2.53,17.23.07,34.45,0,51.68,0a2.41,2.41,0,0,1,.52.11Q379.87,390.9,379.87,421.64Z" transform="translate(-140.13 -124.56)"/><path class="cls-16" d="M379.87,421.64q0-30.75,0-61.51c7.55-.83,7.55-.83,7.55,6.66,0,17.3,0,34.6.05,51.89,0,2.37-.47,3.49-3,3.12A40.27,40.27,0,0,0,379.87,421.64Z" transform="translate(-140.13 -124.56)"/><path class="cls-17" d="M210.11,274.77c-.59-2.78.58-4.21,3.33-4.77,9.54-1.95,17.72-.08,24.85,7.09Q300.15,339.24,362.38,401c9.33,9.22,11.58,19.42,7.33,30.9-8.15,22-23.3,36.87-46.79,41.89a22.94,22.94,0,0,1-22.3-6.69c-16.39-16.61-32.94-33.07-49.62-49.78-1.2,1.44-.73,2.92-.75,4.25-.05,6.13,0,12.27,0,18.41,0,1.8-.14,3.54-2.08,4.38s-3-.42-4.26-1.41c-2.18-1.76-4.28-5-6.44-5s-4.3,3.18-6.5,4.9c-1.32,1-2.58,2.52-4.58,1.43s-2-3-2-4.85c0-15.08-.06-30.17.06-45.25a7.46,7.46,0,0,0-2.5-5.88c-15.35-15.23-30.32-30.85-46-45.72-9.65-9.15-11.29-19.47-7.34-31.27,5-15,15-26.14,28.18-34.61,2.15-1.38,3.94-1.26,5.6.67,1,3.08-1.29,4.18-3.31,5.57-10.86,7.47-19.64,16.63-23.82,29.5-3.81,9.52-3,17.83,5,25.32,10.6,9.94,20.63,20.49,30.94,30.73.74.74,1.21,2.05,2.76,1.9a53,53,0,0,1,3.75-16.29c10.36-20.4,25.83-34.2,50-37.92-1.88-.63-2.86-1-3.87-1.28-8.2-1.92-15.45.92-22.53,4.56-2.06,1.06-4.33,2.3-5.86-.51s.66-3.93,2.74-5.11c6.18-3.49,12.85-5.43,21-6.28-4.51-1.75-8-2.39-11.62-1.92a45.37,45.37,0,0,0-16.08,5.58c-1.78,1-3.63,1.12-4.84-1s0-3.64,1.73-4.59c2.43-1.35,5-2.39,7.54-3.56,4.13-1.92,8.69-2.35,13.07-3.51a18.74,18.74,0,0,0-9.79-1.68c-5.94.62-11.29,2.8-16.48,5.59-1.76.94-3.68,1.12-4.82-1s0-3.66,1.78-4.6c2.59-1.34,5.3-2.42,7.93-3.67,4-1.9,8.43-2.16,13.7-3.27-6.75-2.64-12.36-2-17.93-.33a55.58,55.58,0,0,0-9.45,4.16c-1.79.92-3.76,1.08-4.81-1.1s.05-3.59,1.88-4.63c.92-.53,1.87-1,2.81-1.48a45.18,45.18,0,0,1,19.17-5c-2.72-5.1-11.53-6.88-17-5.44C213.7,276.68,211.68,276.77,210.11,274.77ZM322,419.86c2,2.1,4,4.21,6.1,6.29,4.71,4.73,4.67,4.68.32,10-4.22,5.12-7.47,10.69-7.24,17.65.15,4.75,2.9,7.64,7.65,8a19.13,19.13,0,0,0,10.74-2.41c11.46-6.31,19-15.87,23.4-28.1a24.62,24.62,0,0,0,2.22-9.59c.51-9.52-4.4-15.78-13.88-16.54-12-1-21.42,5.09-30.16,12.39C319.83,418.59,321.1,419.28,322,419.86Zm-22.68,15.93C309.88,415,325.58,401,349.68,397.91c-4.66-6-10.19-10.05-18.23-9.31a41,41,0,0,0-16.18,5.25c-2.16,1.2-4.37,2-5.76-.77-1.26-2.58.69-3.82,2.68-4.91A47.33,47.33,0,0,1,332.57,382a4.22,4.22,0,0,0-2.57-1.45c-8-2.14-15.17.42-22.23,3.84-2.22,1.08-4.95,3.66-6.85.06-2-3.87,1.86-4.53,4.1-5.82,5.73-3.27,12-4.8,19.42-5.57-1.59-.66-2.29-1-3-1.24-8.45-2.31-16,.47-23.27,4.36-2.83,1.52-4.73,1.28-7-1-7.53-7.75-15.24-15.32-22.88-23-4.29-4.29-4-5.6,1.31-8.46a52.11,52.11,0,0,1,20.58-5.65c-6.51-4.91-12.88-4.6-19.32-2.77-12.12,3.44-21.41,11-29.09,20.68-1.62,2.07-2.95,4.66-6.34,3.7-1.93-2-1.78-3.75-.1-6,11.05-14.55,24.77-24.62,44-26.39a16.33,16.33,0,0,0-13.57-4.08c-19.72,2.4-40.44,21.43-44.51,40.92-1.29,6.18-1.4,12.3,3.76,18a44.09,44.09,0,0,1,1.73-11.7c.65-2.54,2-4,4.83-3.61.63.83,1.27,1.65,1.91,2.48-.3,1.43-.52,2.88-.9,4.29-2.38,8.68-.74,15.9,6,22.48,18.09,17.56,35.75,35.58,53.6,53.38,1,1,1.69,2.29,3.34,2.68A52.14,52.14,0,0,1,299.31,435.79Zm-25.45-86.74c6.84,6.77,13.57,13.37,20.22,20.06,1.1,1.1,2,.92,3.14.33a46.09,46.09,0,0,1,18.11-4.9c-5.14-5.47-10.24-11.2-15.7-16.57-2.88-2.83-7-3.37-10.85-3.19A32.15,32.15,0,0,0,273.86,349.05Zm48,118c-7.41-7.23-9-13-6-22.07.88-2.62,2.46-5,3.54-7.57s4.58-4.1,3.71-6.58-3.67-4.1-5.62-6.1c-.19-.19-.4-.36-.57-.56-.89-1.08-1.57-1-2.51.12-6.66,7.91-11.61,16.65-12.23,27.2C301.5,462.83,311.54,470.64,321.83,467ZM231.93,398l-.8.58v35.16c2.48-1.06,3.68-3.66,6.34-3.71s3.52,3,6.23,3.33c0-7.25,0-14.29,0-21.33a3.75,3.75,0,0,0-1-2.88C239.07,405.44,235.51,401.7,231.93,398Z" transform="translate(-140.13 -124.56)"/><path class="cls-18" d="M210.11,274.77c1.57,2,3.59,1.91,5.78,1.34,5.5-1.44,14.31.34,17,5.44a45.18,45.18,0,0,0-19.17,5c-.94.48-1.89.95-2.81,1.48-1.83,1-2.87,2.57-1.88,4.63s3,2,4.81,1.1a55.58,55.58,0,0,1,9.45-4.16c5.57-1.66,11.18-2.31,17.93.33-5.27,1.11-9.72,1.37-13.7,3.27-2.63,1.25-5.34,2.33-7.93,3.67-1.82.94-2.91,2.48-1.78,4.6s3.06,2,4.82,1c5.19-2.79,10.54-5,16.48-5.59a18.74,18.74,0,0,1,9.79,1.68c-4.38,1.16-8.94,1.59-13.07,3.51-2.52,1.17-5.11,2.21-7.54,3.56-1.71,1-3,2.42-1.73,4.59s3.06,2,4.84,1a45.37,45.37,0,0,1,16.08-5.58c3.66-.47,7.11.17,11.62,1.92-8.17.85-14.84,2.79-21,6.28-2.08,1.18-4.28,2.3-2.74,5.11s3.8,1.57,5.86.51c7.08-3.64,14.33-6.48,22.53-4.56,1,.24,2,.65,3.87,1.28-24.13,3.72-39.6,17.52-50,37.92-1.41-.68-2.16-2.48-4-2.41a27,27,0,0,1,.73-2.67A57.63,57.63,0,0,1,229,328.32c1.85-1.75,4.36-3.71,1.81-6.25s-4.51,0-6.36,1.74a67.58,67.58,0,0,0-15.6,21.51c-1.33-.73-2.06-2.43-3.86-2.4a17.11,17.11,0,0,1,.53-2.3,58.26,58.26,0,0,1,14.73-21.07c1.83-1.74,4.4-3.63,1.81-6.22s-4.5,0-6.35,1.7a69.07,69.07,0,0,0-15.62,21.48l-3.72-3.19.15-.78.52-.86a16.76,16.76,0,0,1,.59-1.86,60.14,60.14,0,0,1,14.57-19.66c2.7-2.48,2.73-5.5.14-6.36-1.9-.63-3.25.45-4.59,1.66a72.11,72.11,0,0,0-16.42,22.25c-1.4-.6-2-2.39-3.82-2.4,2.63-9.56,8.62-16.89,15.62-23.54,1.79-1.69,3.88-3.5,1.48-6-2.19-2.25-4.1-.44-5.82,1.11a73,73,0,0,0-16.23,22l-7.3-6.45c4.18-12.87,13-22,23.82-29.5,2-1.39,4.26-2.49,3.31-5.57C204.83,276.19,207.28,274.93,210.11,274.77Z" transform="translate(-140.13 -124.56)"/><path class="cls-18" d="M235.41,359.72c3.39,1,4.72-1.63,6.34-3.7,7.68-9.73,17-17.24,29.09-20.68,6.44-1.83,12.81-2.14,19.32,2.77a52.11,52.11,0,0,0-20.58,5.65c-5.36,2.86-5.6,4.17-1.31,8.46,7.64,7.64,15.35,15.21,22.88,23,2.25,2.32,4.15,2.56,7,1,7.25-3.89,14.82-6.67,23.27-4.36.75.21,1.45.58,3,1.24-7.4.77-13.69,2.3-19.42,5.57-2.24,1.29-6.14,1.95-4.1,5.82,1.9,3.6,4.63,1,6.85-.06,7.06-3.42,14.22-6,22.23-3.84a4.22,4.22,0,0,1,2.57,1.45,47.33,47.33,0,0,0-20.38,6.13c-2,1.09-3.94,2.33-2.68,4.91,1.39,2.82,3.6,2,5.76.77a41,41,0,0,1,16.18-5.25c8-.74,13.57,3.3,18.23,9.31-24.1,3.13-39.8,17.1-50.37,37.88a95.83,95.83,0,0,1-11-11.17c2.9-9,8.61-16.1,15.41-22.43,1.74-1.62,3.53-3.41,1.47-5.73s-4-.73-5.8.87A69.36,69.36,0,0,0,283.33,419c-1.83,0-2.45-2-4-2.44C282.13,407.24,288,400,295,393.46c1.75-1.63,3.47-3.46,1.46-5.73s-4-.72-5.8.87a70,70,0,0,0-16.08,21.62c-1.84.06-2.46-1.88-3.93-2.41,2.81-9.47,8.79-16.8,15.87-23.36,1.71-1.59,3-3.44,1.21-5.47s-3.73-.93-5.51.63a70.51,70.51,0,0,0-16.4,21.8c-1.85.1-2.47-1.81-3.91-2.39,2.7-9.2,8.5-16.33,15.25-22.81,1.78-1.7,4-3.56,1.8-6s-4.2-.51-6.07,1.16a72,72,0,0,0-15.83,21.22L252.94,391a26,26,0,0,1,.72-2.66c3.18-8.08,8.31-14.79,14.56-20.71,1.85-1.75,4.38-3.7,1.82-6.25s-4.51,0-6.36,1.74a67.7,67.7,0,0,0-15.6,21.5c-1.34-.71-2.05-2.43-3.85-2.4a17,17,0,0,1,.54-2.29c3.18-8.23,8.37-15.05,14.71-21.07,1.83-1.74,4.43-3.61,1.82-6.22s-4.52,0-6.36,1.69a69.53,69.53,0,0,0-15.63,21.48,20.89,20.89,0,0,1-5.84-6.36c-.64-.83-1.28-1.65-1.91-2.48Q233.48,363.31,235.41,359.72Z" transform="translate(-140.13 -124.56)"/><path class="cls-19" d="M363,431.24c-4.36,12.23-11.94,21.79-23.4,28.1a19.13,19.13,0,0,1-10.74,2.41c-4.75-.34-7.5-3.23-7.65-8-.23-7,3-12.53,7.24-17.65,4.35-5.29,4.39-5.24-.32-10C326,424.07,324,422,322,419.86c5.5-3.73,11.85-3.77,17.92-3C349.66,418,358.35,421.54,363,431.24Z" transform="translate(-140.13 -124.56)"/><path class="cls-19" d="M288.32,424.62a95.83,95.83,0,0,0,11,11.17,52.14,52.14,0,0,0-3.76,16.45c-1.65-.39-2.38-1.72-3.34-2.68-17.85-17.8-35.51-35.82-53.6-53.38-6.78-6.58-8.42-13.8-6-22.48.38-1.41.6-2.86.9-4.29a20.89,20.89,0,0,0,5.84,6.36c-1.2,3.61-2.68,7.13-3.09,11-.24,2.21.64,3.78,2.78,4,1.95.24,3.16-1.19,3.55-3s.49-3.9,1.68-5.56c1.8,0,2.51,1.69,3.85,2.4-1.24,3.49-2.64,6.94-3.07,10.68-.25,2.14.33,3.87,2.58,4.22s3.36-1.3,3.78-3.27c.38-1.8.5-3.66,1.57-5.25l4.11,1.65c-1.14,3.77-2.89,7.36-3.28,11.36-.21,2.11.22,3.83,2.52,4.21s3.38-1.21,3.82-3.16.6-4.18,1.79-6c1.44.58,2.06,2.49,3.91,2.39-1.22,3.74-2.89,7.34-3.29,11.32-.22,2.09.18,3.78,2.52,4.17s3.34-1.19,3.81-3.13.57-4.16,1.79-6c1.47.53,2.09,2.47,3.93,2.41-1.32,3.7-2.83,7.33-3.34,11.28-.24,1.9.1,3.49,2.15,4s3.47-.46,4.08-2.61.57-4.43,1.89-6.33c1.53.47,2.15,2.46,4,2.44a52.67,52.67,0,0,0-3.43,11.39c-.29,1.92.33,3.5,2.43,3.91s3.23-.49,3.83-2.54C286.86,429.4,286.86,426.79,288.32,424.62Z" transform="translate(-140.13 -124.56)"/><path class="cls-20" d="M235.41,359.72q-1.93,3.6-3.85,7.21c-2.79-.37-4.18,1.07-4.83,3.61a44.09,44.09,0,0,0-1.73,11.7c-5.16-5.72-5.05-11.84-3.76-18,4.07-19.49,24.79-38.52,44.51-40.92a16.33,16.33,0,0,1,13.57,4.08c-19.24,1.77-33,11.84-44,26.39C233.63,356,233.48,357.76,235.41,359.72Z" transform="translate(-140.13 -124.56)"/><path class="cls-21" d="M273.86,349.05a32.15,32.15,0,0,1,14.92-4.27c3.89-.18,8,.36,10.85,3.19,5.46,5.37,10.56,11.1,15.7,16.57a46.09,46.09,0,0,0-18.11,4.9c-1.17.59-2,.77-3.14-.33C287.43,362.42,280.7,355.82,273.86,349.05Z" transform="translate(-140.13 -124.56)"/><path class="cls-19" d="M175.22,312.45l7.3,6.45c-1,3.42-2.13,6.81-3,10.26-.53,2.09-.14,4.22,2.33,4.76s3.52-1.11,4-3.35c.39-1.79.49-3.7,1.64-5.26,1.77,0,2.42,1.8,3.82,2.4-1.16,3.62-2.66,7.15-3.1,11-.26,2.2.6,3.77,2.75,4.07,2,.27,3.2-1.13,3.57-3a26.82,26.82,0,0,1,1.82-6.45l3.72,3.19c-1.21,3.61-2.69,7.13-3.09,11-.24,2.21.63,3.77,2.77,4,2,.25,3.14-1.19,3.56-3s.48-3.9,1.66-5.56c1.8,0,2.53,1.67,3.86,2.4-1.24,3.49-2.63,6.93-3.07,10.67-.24,2.14.31,3.85,2.57,4.2s3.36-1.28,3.78-3.24c.39-1.8.53-3.65,1.56-5.25,1.86-.07,2.61,1.73,4,2.41a53,53,0,0,0-3.75,16.29c-1.55.15-2-1.16-2.76-1.9-10.31-10.24-20.34-20.79-30.94-30.73C172.23,330.28,171.41,322,175.22,312.45Z" transform="translate(-140.13 -124.56)"/><path class="cls-21" d="M321.83,467c-10.29,3.6-20.33-4.21-19.67-15.56.62-10.55,5.57-19.29,12.23-27.2.94-1.12,1.62-1.2,2.51-.12.17.2.38.37.57.56,1.95,2,4.79,3.7,5.62,6.1s-2.7,4.15-3.71,6.58-2.66,5-3.54,7.57C312.79,454.09,314.42,459.81,321.83,467Z" transform="translate(-140.13 -124.56)"/><path class="cls-21" d="M363,431.24c-4.61-9.7-13.3-13.26-23-14.42-6.07-.73-12.42-.69-17.92,3-.89-.58-2.16-1.27-.85-2.36,8.74-7.3,18.2-13.35,30.16-12.39,9.48.76,14.39,7,13.88,16.54A24.62,24.62,0,0,1,363,431.24Z" transform="translate(-140.13 -124.56)"/><path class="cls-20" d="M231.93,398c3.58,3.72,7.14,7.46,10.75,11.15a3.75,3.75,0,0,1,1,2.88c0,7,0,14.08,0,21.33C241,433.05,240,430,237.47,430s-3.86,2.65-6.34,3.71V398.56Z" transform="translate(-140.13 -124.56)"/><path class="cls-17" d="M187.47,325.31c-1.15,1.56-1.25,3.47-1.64,5.26-.47,2.24-1.54,3.89-4,3.35s-2.86-2.67-2.33-4.76c.88-3.45,2-6.84,3-10.26a73,73,0,0,1,16.23-22c1.72-1.55,3.63-3.36,5.82-1.11,2.4,2.46.31,4.27-1.48,6C196.09,308.42,190.1,315.75,187.47,325.31Z" transform="translate(-140.13 -124.56)"/><path class="cls-17" d="M196.33,333.32a26.82,26.82,0,0,0-1.82,6.45c-.37,1.86-1.59,3.26-3.57,3-2.15-.3-3-1.87-2.75-4.07.44-3.83,1.94-7.36,3.1-11a72.11,72.11,0,0,1,16.42-22.25c1.34-1.21,2.69-2.29,4.59-1.66,2.59.86,2.56,3.88-.14,6.36a60.14,60.14,0,0,0-14.57,19.66,16.76,16.76,0,0,0-.59,1.86l-.52.86Z" transform="translate(-140.13 -124.56)"/><path class="cls-17" d="M205,342.92c-1.18,1.66-1.23,3.66-1.66,5.56s-1.59,3.27-3.56,3c-2.14-.26-3-1.82-2.77-4,.4-3.83,1.88-7.35,3.09-11A69.07,69.07,0,0,1,215.67,315c1.85-1.71,3.82-4.23,6.35-1.7s0,4.48-1.81,6.22a58.26,58.26,0,0,0-14.73,21.07A17.11,17.11,0,0,0,205,342.92Z" transform="translate(-140.13 -124.56)"/><path class="cls-17" d="M213.65,351.7c-1,1.6-1.17,3.45-1.56,5.25-.42,2-1.5,3.6-3.78,3.24s-2.81-2.06-2.57-4.2c.44-3.74,1.83-7.18,3.07-10.67a67.58,67.58,0,0,1,15.6-21.51c1.85-1.71,3.86-4.22,6.36-1.74s0,4.5-1.81,6.25A57.63,57.63,0,0,0,214.38,349,27,27,0,0,0,213.65,351.7Z" transform="translate(-140.13 -124.56)"/><path class="cls-19" d="M196.48,332.54l.52-.86Z" transform="translate(-140.13 -124.56)"/><path class="cls-17" d="M279.35,416.59c-1.32,1.9-1.28,4.22-1.89,6.33s-1.89,3.18-4.08,2.61-2.39-2.13-2.15-4c.51-3.95,2-7.58,3.34-11.28a70,70,0,0,1,16.08-21.62c1.77-1.59,3.74-3.2,5.8-.87s.29,4.1-1.46,5.73C288,400,282.13,407.24,279.35,416.59Z" transform="translate(-140.13 -124.56)"/><path class="cls-17" d="M288.32,424.62c-1.46,2.17-1.46,4.78-2.16,7.17-.6,2-1.82,2.93-3.83,2.54s-2.72-2-2.43-3.91A52.67,52.67,0,0,1,283.33,419a69.36,69.36,0,0,1,16.07-21.7c1.76-1.6,3.72-3.21,5.8-.87s.27,4.11-1.47,5.73C296.93,408.52,291.22,415.61,288.32,424.62Z" transform="translate(-140.13 -124.56)"/><path class="cls-17" d="M244.23,382.18c-1.19,1.66-1.27,3.65-1.68,5.56s-1.6,3.28-3.55,3c-2.14-.26-3-1.83-2.78-4,.41-3.84,1.89-7.36,3.09-11a69.53,69.53,0,0,1,15.63-21.48c1.84-1.7,3.82-4.22,6.36-1.69s0,4.48-1.82,6.22c-6.34,6-11.53,12.84-14.71,21.07A17,17,0,0,0,244.23,382.18Z" transform="translate(-140.13 -124.56)"/><path class="cls-17" d="M270.64,407.81c-1.22,1.8-1.3,3.94-1.79,6s-1.48,3.51-3.81,3.13-2.74-2.08-2.52-4.17c.4-4,2.07-7.58,3.29-11.32a70.51,70.51,0,0,1,16.4-21.8c1.78-1.56,3.69-2.68,5.51-.63s.5,3.88-1.21,5.47C279.43,391,273.45,398.34,270.64,407.81Z" transform="translate(-140.13 -124.56)"/><path class="cls-17" d="M252.94,391c-1.07,1.59-1.19,3.45-1.57,5.25-.42,2-1.53,3.61-3.78,3.27s-2.83-2.08-2.58-4.22c.43-3.74,1.83-7.19,3.07-10.68a67.7,67.7,0,0,1,15.6-21.5c1.85-1.71,3.85-4.23,6.36-1.74s0,4.5-1.82,6.25c-6.25,5.92-11.38,12.63-14.56,20.71A26,26,0,0,0,252.94,391Z" transform="translate(-140.13 -124.56)"/><path class="cls-17" d="M261.9,399c-1.19,1.82-1.33,4-1.79,6s-1.52,3.54-3.82,3.16-2.73-2.1-2.52-4.21c.39-4,2.14-7.59,3.28-11.36a72,72,0,0,1,15.83-21.22c1.87-1.67,3.9-3.6,6.07-1.16s0,4.28-1.8,6C270.4,382.69,264.6,389.82,261.9,399Z" transform="translate(-140.13 -124.56)"/></svg>