<svg id="Layer_1" data-name="Layer 1" xmlns="http://www.w3.org/2000/svg" viewBox="0 0 232.48 380"><defs><style>.cls-1{fill:#e6e7e8;}.cls-2{fill:none;stroke:#231f20;stroke-miterlimit:10;stroke-width:2px;}.cls-3{fill:#bcbec0;}.cls-4{fill:#f1f2f2;}</style></defs><title>no internet</title><path class="cls-1" d="M362.4,217.89h-133a39,39,0,0,0-39,39v284a39,39,0,0,0,39,39h133a39,39,0,0,0,39-39v-284A39,39,0,0,0,362.4,217.89ZM327.6,228a3.19,3.19,0,0,1-3.2,3.19h-57A3.19,3.19,0,0,1,264.2,228h0a3.19,3.19,0,0,1,3.19-3.19h57a3.19,3.19,0,0,1,3.2,3.19Z" transform="translate(-181.4 -209.89)"/><path class="cls-2" d="M412.88,344.27V287.83a3.48,3.48,0,0,0-3.48-3.48V249.89a39,39,0,0,0-39-39h-149a39,39,0,0,0-39,39v300a39,39,0,0,0,39,39h149a39,39,0,0,0,39-39v-151a3.48,3.48,0,0,0,3.48-3.48V370.67a3.48,3.48,0,0,0-3.48-3.48V347.75A3.48,3.48,0,0,0,412.88,344.27Z" transform="translate(-181.4 -209.89)"/><path class="cls-3" d="M295.9,290.06a195.09,195.09,0,0,0-105.5,30.79v220a39,39,0,0,0,39,39h133a39,39,0,0,0,39-39v-220A195.09,195.09,0,0,0,295.9,290.06Z" transform="translate(-181.4 -209.89)"/><path class="cls-4" d="M373.23,407.58a15.71,15.71,0,0,1-2.64,3.11l-6.79,6.78c-2.69,2.69-5.19,2.77-8,.28a87.74,87.74,0,0,0-46.3-21.14A85.43,85.43,0,0,0,291.4,396a1.53,1.53,0,0,1-1.3-.49l-18.23-18.3s0-.09-.07-.25a61.44,61.44,0,0,1,8.27-1.76,100.9,100.9,0,0,1,19.08-1.47A108.92,108.92,0,0,1,366,397.53c1.67,1.3,3.24,2.72,4.87,4.06a10.65,10.65,0,0,1,2.39,2.75Z" transform="translate(-181.4 -209.89)"/><path class="cls-4" d="M338.1,473.18a10.87,10.87,0,0,1-7.91-3.38c-3.26-3.21-6.48-6.46-9.71-9.7Q281,420.67,241.59,381.23a11.83,11.83,0,0,1-3.92-7.85c-.37-6.69,5.31-11.19,11.78-9.34a13.46,13.46,0,0,1,5.78,3.65L301.55,414q20.82,20.82,41.64,41.63a12.66,12.66,0,0,1,3.87,7.1A8.81,8.81,0,0,1,338.1,473.18Z" transform="translate(-181.4 -209.89)"/><path class="cls-4" d="M292.76,439.88a44.15,44.15,0,0,0-17.41,5.85,49.09,49.09,0,0,0-4.86,3.33c-2.79,2.12-5.27,1.94-7.76-.53s-5.16-5.14-7.72-7.72-2.53-5.29.4-7.75a66.65,66.65,0,0,1,18.42-10.92,1.3,1.3,0,0,1,1.66.29q8.31,8.37,16.67,16.7C292.33,439.3,292.46,439.5,292.76,439.88Z" transform="translate(-181.4 -209.89)"/><path class="cls-4" d="M258.17,405.12a91.9,91.9,0,0,0-12.11,7.42c-2.31,1.68-4.52,3.48-6.67,5.35-2.5,2.17-5.12,2.13-7.48-.19q-4.11-4-8.14-8.14c-2.38-2.43-2.29-5,.22-7.31a106.57,106.57,0,0,1,17.12-12.74c.54-.33.91-.57,1.5,0C247.73,394.7,252.89,399.84,258.17,405.12Z" transform="translate(-181.4 -209.89)"/><path class="cls-4" d="M297.53,461.6a20.77,20.77,0,0,1,11.55,3c2.46,1.45,3.05,4.29,1.1,6.36-3,3.22-6.18,6.34-9.38,9.4a4.45,4.45,0,0,1-6.17-.07c-3.18-3-6.3-6.09-9.28-9.29-2.07-2.22-1.49-4.84,1.15-6.41A20.66,20.66,0,0,1,297.53,461.6Z" transform="translate(-181.4 -209.89)"/><path class="cls-4" d="M314.78,420a33.07,33.07,0,0,1,7.39,2.33,63.25,63.25,0,0,1,18.18,10.95c2.62,2.26,2.69,4.92.28,7.37-.66.67-1.35,1.3-2,2s-.88.71-1.51.07q-10.95-11-22-22c-.19-.2-.47-.37-.37-.73Z" transform="translate(-181.4 -209.89)"/></svg>