<svg id="Layer_1" data-name="Layer 1" xmlns="http://www.w3.org/2000/svg" viewBox="0 0 494.82 436.28"><defs><style>.cls-1{fill:#e4f5fa;}.cls-2{fill:#0c0c08;}.cls-3{fill:#e97f87;}.cls-4{fill:#4dbfab;}.cls-5{fill:#24b49f;}.cls-6{fill:#e4646e;}.cls-7{fill:#fef9d1;}.cls-8{fill:#fdf067;}.cls-9{fill:#f8ee91;}.cls-10{fill:#fdf394;}.cls-11{fill:#faef92;}.cls-12{fill:#f6e865;}.cls-13{fill:#070c07;}.cls-14{fill:#f8f3cd;}.cls-15{fill:#f9eb66;}.cls-16{fill:#0b0d0a;}.cls-17{fill:#0a0d09;}.cls-18{fill:#aed492;}</style></defs><title>number change</title><path class="cls-1" d="M499.14,546.63H163.19a51.41,51.41,0,0,1-51.41-51.41V190.44c0-28.39,80.32-12.33,108.72-12.33l188.17-57.53c53.89-17.81,143.43,10.34,141.88,38.69-7.79,143.08-23.6,106.51-27.71,215.89C521.77,403.54,527.53,546.63,499.14,546.63Z" transform="translate(-55.75 -115.01)"/><path class="cls-2" d="M510.9,420.59c-1.56.86-1.68,2.68-2.59,4-3.75,5.37-9,7.18-15.33,7.17-32.23-.06-64.46,0-96.69-.12-3.79,0-4.7,1-4.68,4.72.16,31.95-.11,63.91.19,95.86.12,12.1-7.82,19.1-19.11,19.07q-131.8-.37-263.61,0c-9.77,0-17.1-2.5-21.32-11.69V366.87c4.54-9.5,12.44-11.65,22.32-11.53,31,.36,61.92.09,92.88.2,3.14,0,4.17-.64,4.1-4-.24-10.59-.1-21.19-.09-31.78,0-5.77,1.07-7.21,6.42-9,5.32,1.85,6.35,3.27,6.37,9.06,0,10.74.08,21.48,0,32.22,0,2.66.68,3.62,3.43,3.48a101.23,101.23,0,0,1,12.8,0c3.6.29,4.25-1.08,4.22-4.39q-.22-29.74,0-59.48c.06-13.77,8.8-22.35,22.52-22.36q62.58,0,125.16,0c12.59,0,21.84,8.29,22,20.76q.45,43.78,0,87.57c-.11,12.05-8.52,20.07-20.64,20.88-1.72.12-3.53-.38-5.48.66,2.82,3.11,5.82,5.94,7.4,9.79.21,2,.78,4.13.55,6.13-.39,3.53,1.25,3.95,4.24,3.94C427.92,419,460,419,492.09,419c5.93,0,6.41-.46,6.41-6.29q0-57.62.06-115.25a9.42,9.42,0,0,0-3-7.28c-12.34-12.19-24.72-24.36-36.74-36.86-3.63-3.78-7.38-5.39-12.38-4.52a2.7,2.7,0,0,0-.41-.06q-110.71,0-221.43-.1c-3.54,0-4.92,1.53-4.89,5,.09,10.74.05,21.48,0,32.22,0,5.78-1,7.16-6.38,9.08-5.39-1.86-6.4-3.26-6.41-9,0-10.6.17-21.21-.05-31.81-.24-11.75,8.68-18,18-18q113,.39,226,.08a18.87,18.87,0,0,1,14.33,5.9q18.57,18.81,37.39,37.39c3.4,3.36,6.54,6.81,8.3,11.32ZM370.38,314.87c-2.31-.05-4.62-.14-6.92-.15-12.2,0-12.2,0-11,12.49.19.18.38.52.57.52q21,.06,42.06.09c2.81,0,2.3-2.15,2-3.5-.7-3.18,2.05-7-1.62-9.59-.18-.13-.54,0-.81,0Zm-18-13.27c1.12,1.24,2.57.57,3.85.58,10,.06,20,0,30.05,0,11.81,0,11.81,0,10.88-11.95-.41-5.26-3.46-8.36-8.69-8.44-6-.1-12.07.06-18.11.11-11.69-.05-23.38.08-35.07-.24-3.75-.11-4.37,1.31-4.06,4.46.26,2.69-1,6.06,4,5.42C343.44,290.47,349.35,293.65,352.39,301.6Zm18,38.86c-4.68-.06-9.37.13-14-.26-3.61-.3-4.28,1-4.19,4.34.23,8.54.07,8.54,8.7,8.89,4.11.17,6.89,2.61,6.92,6.08s-2.82,6.13-6.8,6.36c-2.34.13-4.68,0-7,0-.67,0-1.43-.16-1.84.57-.52.91,0,1.56.65,2.15l6.82,6.53c3.05,3.15,6.13,6.27,9.14,9.45A4,4,0,0,0,372,386c5.77-.07,11.54.07,17.31-.11,4.48-.13,7.35-3,7.77-7.46.19-1.91.13-3.84.13-5.76,0-6.32,0-6.31-6.13-6.79a9.28,9.28,0,0,1-2-.34c-3.37-1-5-3.26-4.61-6.78.38-3.35,2.43-5.08,5.74-5.31a40.29,40.29,0,0,1,4.53,0c1.7.09,2.78-.5,2.47-2.3-.63-3.58,1.53-7.48-1.27-10.77-.18-.21-.79-.07-1.2-.06Zm-42.13,28.07c-1.24-.08-2.47-.24-3.7-.24q-109.29,0-218.56,0c-5.29,0-5.81.56-5.81,6q0,51.44,0,102.88,0,25.4.13,50.81c0,1.65-.14,3.3-.13,4.94,0,4.56,1,5.67,5.53,5.67H373.41c4.69,0,5.48-.82,5.48-5.59q0-58.45.05-116.92a8.38,8.38,0,0,0-2.77-6.51c-12.52-12.4-25.06-24.79-37.34-37.44C335.7,369,332.5,367.62,328.24,368.53Zm11.59-11.77c0-16.94-.05-33.6.05-50.25,0-2.45-1.07-2.58-3-2.57-7.85.07-15.7.16-23.54,0-2.8-.07-3.38.86-3.35,3.47.12,14.73.14,29.47,0,44.2,0,3.13.65,4.11,4,4.11C322.48,355.69,331,354.72,339.83,356.76Zm-51.15-75c-8.81,0-17.62,0-26.44,0-6.23,0-9.28,3.1-9.45,9.38-.07,2.47.17,5-.06,7.43-.28,3,.87,3.69,3.71,3.66,12.53-.14,25.07-.12,37.6,0,2.46,0,3.78-.41,4.85-3a11.73,11.73,0,0,1,11.25-7.62c1.93-.05,3.86-.17,5.78,0,2.23.17,3-.78,2.79-2.88a14,14,0,0,1,0-3.3c.41-2.87-.68-3.73-3.59-3.66C306.32,281.89,297.5,281.77,288.68,281.77Zm-13.74,58.52c-6.46,0-12.91.08-19.37,0-2.1,0-2.95.49-2.83,2.73a73,73,0,0,1,0,9.47c-.2,2.66.84,3.2,3.28,3.17,9.89-.13,19.78,0,29.67-.1,3.91,0,9.27,1.81,11.34-.79s.45-7.61.7-11.56c.16-2.4-.73-3-3-2.93C288.12,340.38,281.53,340.29,274.94,340.29Zm.17-12.48H288.3c9.51,0,9.41,0,9.45-9.73,0-2.62-.59-3.48-3.36-3.44-10.72.17-21.44.07-32.16.07-9.65,0-9.55,0-9.52,9.63,0,2.62.61,3.63,3.43,3.53C262.46,327.66,268.78,327.81,275.11,327.81Z" transform="translate(-55.75 -115.01)"/><path class="cls-3" d="M213.38,295c5.37-1.92,6.37-3.3,6.38-9.08,0-10.74.06-21.48,0-32.22,0-3.47,1.35-5,4.89-5q110.72.09,221.43.1a2.7,2.7,0,0,1,.41.06c7,7,13.82,14.19,20.91,21.09a12.06,12.06,0,0,1,3.95,9.44c-.11,39.49-.06,79-.07,118.47,0,7.86-3.35,11.18-11.26,11.19H391.05c-1.58-3.85-4.58-6.68-7.4-9.79,2-1,3.76-.54,5.48-.66,12.12-.81,20.53-8.83,20.64-20.88q.39-43.79,0-87.57c-.12-12.47-9.37-20.76-22-20.76q-62.58,0-125.16,0c-13.72,0-22.46,8.59-22.52,22.36q-.13,29.73,0,59.48c0,3.31-.62,4.68-4.22,4.39a101.23,101.23,0,0,0-12.8,0c-2.75.14-3.47-.82-3.43-3.48.13-10.74.07-21.48,0-32.22,0-5.79-1-7.21-6.37-9.06Q213.38,302.87,213.38,295Z" transform="translate(-55.75 -115.01)"/><path class="cls-4" d="M100.3,528q-.08-25.41-.13-50.81,0-51.45,0-102.88c0-5.48.52-6,5.81-6q109.28,0,218.56,0c1.23,0,2.46.16,3.7.24,0,1.74,1.43,2.6,2.47,3.65,6,6.05,12,12.14,18.12,18.08a10.57,10.57,0,0,1,3.41,8q0,59.86,0,119.74c0,6.27-3.78,10-10,10ZM182,395l-16.09,0c-1.37-5-2.87-6.26-8.1-6.33s-10.19-.11-15.28,0c-13.29.3-21.73,9-21.74,22.26q0,42.54,0,85.09c0,13,8.93,22,22.05,22q62.77,0,125.56,0c12.88,0,21.81-9,21.82-21.75q0-42.56,0-85.09c0-13.76-8.48-22.44-22.3-22.49-25.75-.09-51.5,0-77.24,0C185.16,388.71,183.89,389.71,182,395Z" transform="translate(-55.75 -115.01)"/><path class="cls-5" d="M100.3,528h242c6.18,0,10-3.71,10-10q0-59.86,0-119.74a10.57,10.57,0,0,0-3.41-8c-6.13-5.94-12.11-12-18.12-18.08-1-1.05-2.43-1.91-2.47-3.65,4.26-.91,7.46.42,10.59,3.64,12.28,12.65,24.82,25,37.34,37.44a8.38,8.38,0,0,1,2.77,6.51q-.09,58.47-.05,116.92c0,4.77-.79,5.59-5.48,5.59H105.7c-4.48,0-5.5-1.11-5.53-5.67C100.16,531.32,100.25,529.67,100.3,528Z" transform="translate(-55.75 -115.01)"/><path class="cls-6" d="M391.05,409H460c7.91,0,11.26-3.33,11.26-11.19,0-39.49,0-79,.07-118.47a12.06,12.06,0,0,0-3.95-9.44c-7.09-6.9-13.95-14.05-20.91-21.09,5-.87,8.75.74,12.38,4.52,12,12.5,24.4,24.67,36.74,36.86a9.42,9.42,0,0,1,3,7.28q-.13,57.63-.06,115.25c0,5.83-.48,6.29-6.41,6.29-32.09,0-64.17,0-96.25.06-3,0-4.63-.41-4.24-3.94C391.83,413.14,391.26,411.05,391.05,409Z" transform="translate(-55.75 -115.01)"/><path class="cls-7" d="M339.83,356.76c-8.8-2-17.35-1.07-25.84-1.08-3.33,0-4-1-4-4.11.16-14.73.14-29.47,0-44.2,0-2.61.55-3.54,3.35-3.47,7.84.2,15.69.11,23.54,0,1.89,0,3,.12,3,2.57C339.78,323.16,339.83,339.82,339.83,356.76Z" transform="translate(-55.75 -115.01)"/><path class="cls-8" d="M370.37,340.46l24.3-.16c.41,0,1-.15,1.2.06,2.8,3.29.64,7.19,1.27,10.77.31,1.8-.77,2.39-2.47,2.3a40.29,40.29,0,0,0-4.53,0c-3.31.23-5.36,2-5.74,5.31-.39,3.52,1.24,5.78,4.61,6.78a9.28,9.28,0,0,0,2,.34c6.14.48,6.15.47,6.13,6.79,0,1.92.06,3.85-.13,5.76-.42,4.47-3.29,7.33-7.77,7.46-5.77.18-11.54,0-17.31.11a4,4,0,0,1-3.22-1.41c-3-3.18-6.09-6.3-9.14-9.45,7.23-2.36,10.78-7.1,10.81-14.57C370.43,353.88,370.38,347.17,370.37,340.46Z" transform="translate(-55.75 -115.01)"/><path class="cls-9" d="M288.68,281.77c8.82,0,17.64.12,26.45-.07,2.91-.07,4,.79,3.59,3.66a14,14,0,0,0,0,3.3c.19,2.1-.56,3-2.79,2.88-1.92-.14-3.85,0-5.78,0a11.73,11.73,0,0,0-11.25,7.62c-1.07,2.63-2.39,3.06-4.85,3-12.53-.1-25.07-.12-37.6,0-2.84,0-4-.71-3.71-3.66.23-2.46,0-5,.06-7.43.17-6.28,3.22-9.34,9.45-9.38C271.06,281.73,279.87,281.77,288.68,281.77Z" transform="translate(-55.75 -115.01)"/><path class="cls-10" d="M274.94,340.29c6.59,0,13.18.09,19.77-.05,2.28-.05,3.17.53,3,2.93-.25,3.95,1.26,9.1-.7,11.56s-7.43.74-11.34.79c-9.89.13-19.78,0-29.67.1-2.44,0-3.48-.51-3.28-3.17a73,73,0,0,0,0-9.47c-.12-2.24.73-2.77,2.83-2.73C262,340.37,268.48,340.29,274.94,340.29Z" transform="translate(-55.75 -115.01)"/><path class="cls-11" d="M352.39,301.6c-3-8-8.95-11.13-17.18-10.05-5,.64-3.71-2.73-4-5.42-.31-3.15.31-4.57,4.06-4.46,11.69.32,23.38.19,35.07.24,0,5.46-.07,10.94.09,16.4.07,2.51-.81,3.37-3.31,3.3C362.23,301.47,357.31,301.59,352.39,301.6Z" transform="translate(-55.75 -115.01)"/><path class="cls-9" d="M275.11,327.81c-6.33,0-12.65-.15-19,.06-2.82.1-3.42-.91-3.43-3.53,0-9.63-.13-9.63,9.52-9.63,10.72,0,21.44.1,32.16-.07,2.77,0,3.37.82,3.36,3.44,0,9.73.06,9.73-9.45,9.73Z" transform="translate(-55.75 -115.01)"/><path class="cls-12" d="M352.39,301.6c4.92,0,9.84-.13,14.76,0,2.5.07,3.38-.79,3.31-3.3-.16-5.46-.07-10.94-.09-16.4,6-.05,12.07-.21,18.11-.11,5.23.08,8.28,3.18,8.69,8.44.93,11.95.93,11.95-10.88,11.95-10,0-20,.05-30.05,0C355,302.17,353.51,302.84,352.39,301.6Z" transform="translate(-55.75 -115.01)"/><path class="cls-9" d="M370.37,340.46c0,6.71.06,13.42,0,20.13,0,7.47-3.58,12.21-10.81,14.57l-6.82-6.53c-.61-.59-1.17-1.24-.65-2.15.41-.73,1.17-.57,1.84-.57,2.34,0,4.68.09,7,0,4-.23,6.83-3,6.8-6.36s-2.81-5.91-6.92-6.08c-8.63-.35-8.47-.35-8.7-8.89-.09-3.31.58-4.64,4.19-4.34C361,340.59,365.69,340.4,370.37,340.46Z" transform="translate(-55.75 -115.01)"/><path class="cls-12" d="M370.38,314.87l24.32-.16c.27,0,.63-.11.81,0,3.67,2.63.92,6.41,1.62,9.59.3,1.35.81,3.5-2,3.5q-21-.06-42.06-.09c-.19,0-.38-.34-.57-.52,4.77,0,9.55-.18,14.31,0,2.95.12,3.84-1,3.64-3.78S370.39,317.74,370.38,314.87Z" transform="translate(-55.75 -115.01)"/><path class="cls-10" d="M370.38,314.87c0,2.87-.12,5.74.07,8.59s-.69,3.9-3.64,3.78c-4.76-.21-9.54,0-14.31,0-1.24-12.49-1.24-12.5,11-12.49C365.76,314.73,368.07,314.82,370.38,314.87Z" transform="translate(-55.75 -115.01)"/><path class="cls-13" d="M182,395c1.86-5.29,3.13-6.29,8.68-6.29,25.74,0,51.49-.08,77.24,0,13.82,0,22.3,8.73,22.3,22.49q0,42.54,0,85.09c0,12.77-8.94,21.74-21.82,21.75q-62.77.06-125.56,0c-13.12,0-22-8.95-22.05-22q0-42.56,0-85.09c0-13.28,8.45-22,21.74-22.26,5.09-.12,10.19-.08,15.28,0s6.73,1.3,8.1,6.33c-1.41,5-3,6.2-8.19,6.26s-10.47-.09-15.69.05c-5.54.15-8.63,3.3-8.8,8.76-.09,2.89.13,5.79-.07,8.67-.15,2.25.71,2.74,2.81,2.72,13.36-.08,26.71,0,40.07-.06,1,0,2.13.5,2.67-1.11,2.63-7.85,8.7-10.18,16.24-9.51,3.69.33,4.46-.86,4.51-4.45,0-4-.79-5.9-5.1-5.1a19.12,19.12,0,0,1-3.71,0C185.21,401.24,183.75,400.17,182,395Zm68.58,77.54c5.89,0,11.79.12,17.68.14,9.73,0,9.62,0,9.63-9.84,0-2.74-.81-3.4-3.45-3.37-12.76.12-25.51,0-38.26.07-1,0-2.22-.65-2.93.69-.1,3.27-.08,6.56-.33,9.83-.18,2.31.86,2.71,2.86,2.65C240.74,472.56,245.68,472.58,250.61,472.54Zm-17.33-37.93c-.1,3.27-.08,6.56-.33,9.83-.18,2.31.86,2.71,2.86,2.65,4.93-.15,9.87-.13,14.8-.17,5.89.05,11.79.12,17.68.14,9.73,0,9.62,0,9.63-9.84,0-2.74-.81-3.4-3.45-3.37-12.76.12-25.51,0-38.26.07C235.24,433.93,234,433.27,233.28,434.61Zm17.28-33.09-36.71-.2c-.77,0-1.94-.2-2,.88-.14,2.6-.61,5.4.15,7.77.56,1.73,3.21.78,4.87.73,7.31-.23,13,2.12,15.46,9.53.53,1.59,1.61,1.21,2.6,1.21,5.23,0,10.45-.08,15.67-.13s10.68.13,16,.14c11.95,0,11.95,0,11.22-11.84-.3-4.8-3.24-8.05-8-8.17C263.42,401.27,257,401.48,250.56,401.52Zm-64.93,93.31c-2.61-1.8-5.35-3.59-6.2-6.84-.72-2.77-2.4-3-4.81-2.94-10.72.12-21.44.05-32.17.05-9.59,0-9.59,0-9.08,9.86-.27,7.28,2.91,10.63,10.27,10.64q24.54,0,49.06,0c6.78,0,6.64,0,6.71-6.67,0-2.55-.65-3.34-3.21-3.19C192.66,496,189.06,496.13,185.63,494.83Zm39.93,0a26.3,26.3,0,0,1-7.7,1c-6.2-.07-6.2,0-6.12,6.32a5.61,5.61,0,0,1,0,.82c-.23,1.86.35,2.68,2.45,2.67,18.28-.07,36.56,0,54.84-.1,5.55-.05,8.71-3.66,8.81-9.29.05-2.89-.1-5.78.05-8.66.1-2-.65-2.56-2.59-2.53-8.52.13-17,.13-25.56.18l-14.85-.15c-1.31,0-2.24.07-2.67,1.74C231.27,490.48,228.55,492.82,225.56,494.86Zm-34.82-41.71c0,8.94.07,17.88-.05,26.82,0,2.52.44,3.6,3.34,3.52q11.55-.35,23.1,0c2.92.08,3.38-1,3.37-3.55q-.13-26.6,0-53.21c0-2.53-.46-3.68-3.39-3.6-7.69.22-15.4.24-23.09,0-3-.1-3.34,1.19-3.31,3.62C190.79,435.55,190.74,444.35,190.74,453.15Zm-35.24-6.09h12.81c10.22,0,10.11,0,9.93-10.07-.05-2.67-1-3.15-3.39-3.13-10.6.11-21.21.05-31.81.05-10.06,0-9.93,0-9.89,10.15,0,2.77,1,3.09,3.35,3.05C142.83,447,149.17,447.06,155.5,447.06Zm0,25.62h13.22c9.61,0,9.47,0,9.5-9.68,0-3.1-1.15-3.56-3.84-3.53-10.47.14-20.93.06-31.4.06-10,0-10,0-9.83,10.18,0,2.26.53,3.09,2.94,3C142.58,472.57,149.06,472.68,155.53,472.68Z" transform="translate(-55.75 -115.01)"/><path class="cls-10" d="M182,395c1.72,5.17,3.18,6.24,8.65,6.31a19.12,19.12,0,0,0,3.71,0c4.31-.8,5.15,1.09,5.1,5.1-.05,3.59-.82,4.78-4.51,4.45-7.54-.67-13.61,1.66-16.24,9.51-.54,1.61-1.71,1.1-2.67,1.11-13.36,0-26.71,0-40.07.06-2.1,0-3-.47-2.81-2.72.2-2.88,0-5.78.07-8.67.17-5.46,3.26-8.61,8.8-8.76,5.22-.14,10.46,0,15.69-.05s6.78-1.3,8.19-6.26Z" transform="translate(-55.75 -115.01)"/><path class="cls-14" d="M190.74,453.15c0-8.8,0-17.6,0-26.4,0-2.43.28-3.72,3.31-3.62,7.69.24,15.4.22,23.09,0,2.93-.08,3.4,1.07,3.39,3.6q-.11,26.61,0,53.21c0,2.53-.45,3.63-3.37,3.55q-11.53-.36-23.1,0c-2.9.08-3.37-1-3.34-3.52C190.81,471,190.74,462.09,190.74,453.15Z" transform="translate(-55.75 -115.01)"/><path class="cls-15" d="M249.74,485.25c8.52-.05,17-.05,25.56-.18,1.94,0,2.69.52,2.59,2.53-.15,2.88,0,5.77-.05,8.66-.1,5.63-3.26,9.24-8.81,9.29-18.28.14-36.56,0-54.84.1-2.1,0-2.68-.81-2.45-2.67a5.61,5.61,0,0,0,0-.82c-.08-6.33-.08-6.39,6.12-6.32a26.3,26.3,0,0,0,7.7-1c4.07,0,8.15.18,12.23.09A12.47,12.47,0,0,0,249.74,485.25Z" transform="translate(-55.75 -115.01)"/><path class="cls-15" d="M185.63,494.83c3.43,1.3,7,1.13,10.57.92,2.56-.15,3.23.64,3.21,3.19-.07,6.67.07,6.67-6.71,6.67q-24.52,0-49.06,0c-7.36,0-10.54-3.36-10.27-10.64Z" transform="translate(-55.75 -115.01)"/><path class="cls-11" d="M155.5,447.06c-6.33,0-12.67-.09-19,.05-2.32,0-3.34-.28-3.35-3.05,0-10.15-.17-10.15,9.89-10.15,10.6,0,21.21.06,31.81-.05,2.39,0,3.34.46,3.39,3.13.18,10.07.29,10.07-9.93,10.07Z" transform="translate(-55.75 -115.01)"/><path class="cls-11" d="M155.53,472.68c-6.47,0-12.95-.11-19.41.05-2.41.07-2.91-.76-2.94-3-.14-10.18-.22-10.18,9.83-10.18,10.47,0,20.93.08,31.4-.06,2.69,0,3.85.43,3.84,3.53,0,9.68.11,9.68-9.5,9.68Z" transform="translate(-55.75 -115.01)"/><path class="cls-10" d="M250.6,421.31c-5.22.05-10.44.12-15.67.13-1,0-2.07.38-2.6-1.21-2.49-7.41-8.15-9.76-15.46-9.53-1.66.05-4.31,1-4.87-.73-.76-2.37-.29-5.17-.15-7.77.06-1.08,1.23-.88,2-.88l36.71.2Q250.58,411.42,250.6,421.31Z" transform="translate(-55.75 -115.01)"/><path class="cls-8" d="M250.6,421.31q0-9.88,0-19.79c6.43,0,12.86-.25,19.29-.08,4.75.12,7.69,3.37,8,8.17.73,11.85.73,11.87-11.22,11.84C261.28,421.44,255.94,421.36,250.6,421.31Z" transform="translate(-55.75 -115.01)"/><path class="cls-11" d="M185.63,494.83l-52.26.13c-.51-9.86-.51-9.86,9.08-9.86,10.73,0,21.45.07,32.17-.05,2.41,0,4.09.17,4.81,2.94C180.28,491.24,183,493,185.63,494.83Z" transform="translate(-55.75 -115.01)"/><path class="cls-15" d="M233.28,434.61c.71-1.34,2-.68,2.93-.69,12.75,0,25.5.05,38.26-.07,2.64,0,3.46.63,3.45,3.37,0,9.84.1,9.86-9.63,9.84-5.89,0-11.79-.09-17.68-.14,0-3.16-.09-6.32,0-9.47.07-2.17-.85-2.89-2.94-2.85C242.89,434.68,238.09,434.61,233.28,434.61Z" transform="translate(-55.75 -115.01)"/><path class="cls-15" d="M233.28,460.23c.71-1.34,2-.68,2.93-.69,12.75,0,25.5,0,38.26-.07,2.64,0,3.46.63,3.45,3.37,0,9.84.1,9.86-9.63,9.84-5.89,0-11.79-.09-17.68-.14,0-3.16-.09-6.32,0-9.47.07-2.17-.85-2.89-2.94-2.85C242.89,460.3,238.09,460.23,233.28,460.23Z" transform="translate(-55.75 -115.01)"/><path class="cls-10" d="M233.28,434.61c4.81,0,9.61.07,14.41,0,2.09,0,3,.68,2.94,2.85-.11,3.15,0,6.31,0,9.47-4.93,0-9.87,0-14.8.17-2,.06-3-.34-2.86-2.65C233.2,441.17,233.18,437.88,233.28,434.61Z" transform="translate(-55.75 -115.01)"/><path class="cls-10" d="M233.28,460.23c4.81,0,9.61.07,14.41,0,2.09,0,3,.68,2.94,2.85-.11,3.15,0,6.31,0,9.47-4.93,0-9.87,0-14.8.17-2,.06-3-.34-2.86-2.65C233.2,466.79,233.18,463.5,233.28,460.23Z" transform="translate(-55.75 -115.01)"/><path class="cls-9" d="M249.74,485.25a12.47,12.47,0,0,1-12,9.7c-4.08.09-8.16-.05-12.23-.09,3-2,5.71-4.38,6.66-8,.43-1.67,1.36-1.76,2.67-1.74Z" transform="translate(-55.75 -115.01)"/><path class="cls-16" d="M140.52,241.27c1.2-4,2.29-4.83,6.35-4.83,9.82,0,19.63-.09,29.43.05A14.34,14.34,0,0,1,180,264.56a21.81,21.81,0,0,1-6.44.65H110.72c-6.14,0-9.24,4.53-7.07,10.28.55,1.47,1.63.61,2.33.5,11.3-1.85,16.66,7.05,16.57,14.76a12.84,12.84,0,0,1-3.67,9.24c-6.33,6.38-12.61,12.8-19.07,19.05-6.25,6.06-14.67,6.12-21,0S66,306.49,59.71,300c-4.55-4.7-5.14-10.77-2-16.54s8.81-8.6,15.21-7.42l1.91.35c.17-5.2-.18-10.34,1.18-15.41a33.08,33.08,0,0,1,30.9-24.53c5.57-.13,11.15-.06,16.73-.05,4,0,5.06.79,6.4,4.82-.82,3.52-3.07,4.73-6.6,4.57-4.74-.21-9.5-.05-14.25-.05a27.52,27.52,0,0,0-7.34.93c-10.58,2.91-17.42,11.8-17.62,23-.11,5.78,0,11.57-.06,17.35a4.32,4.32,0,0,1-2.32,4.07c-1.76,1-3.22.15-4.53-.89s-2.24-2.14-3.39-3.18c-2.52-2.27-5.42-2.41-7.45-.4s-2,4.84.52,7.37q9.15,9.27,18.4,18.41c2.29,2.25,5.2,2.45,7.45.26q9.66-9.4,19.05-19.07a4.72,4.72,0,0,0-.14-7.15c-2-1.81-4.72-1.73-7,.28-1.23,1.11-2.3,2.38-3.54,3.47-3,2.63-5.66,1.86-6.66-1.95a15,15,0,0,1-.46-3.66c-.05-4.34,0-8.68,0-13,0-10.4,5.45-15.89,15.77-15.9h63.52a29.16,29.16,0,0,0,3.1-.07,4.56,4.56,0,0,0,4.25-4.2,4.65,4.65,0,0,0-2.81-5,8.18,8.18,0,0,0-3.93-.63c-9.09,0-18.18-.1-27.26.06C143.33,245.89,141.31,244.59,140.52,241.27Z" transform="translate(-55.75 -115.01)"/><path class="cls-17" d="M465.2,539c-.79,3.6-2.13,4.82-5.62,4.83-12.19,0-24.37.07-36.56,0-7.75-.06-14.1-6.1-14.34-13.38-.27-8.34,5.08-14.65,13.31-15.2,5.25-.35,10.53-.16,15.79-.16q25.41,0,50.8,0c5.66,0,8.95-5.18,6.63-10.4-.6-1.35-1.65-.47-2.39-.38-10.29,1.31-18-6.37-16.58-16.55a12.68,12.68,0,0,1,3.65-7.33c6.54-6.6,13.05-13.23,19.72-19.71a14.12,14.12,0,0,1,19.84-.15c6.64,6.35,13.1,12.89,19.49,19.49,4.19,4.33,5,12.39,2.09,17.64-2.71,4.92-9.22,7.64-15.48,6.47-.48-.09-.95-.2-1.56-.33-.17,5.24.19,10.38-1.18,15.46a33.13,33.13,0,0,1-30.91,24.53c-3.3.08-6.61,0-9.91,0-3.84,0-5.07-1-6.08-4.73,1.1-3.87,2-4.57,6.1-4.6,4.84,0,9.72.38,14.49-.77,10.6-2.57,17.84-11.75,18.09-23,.12-5.37.08-10.74,0-16.11,0-2.44.38-4.6,2.88-5.62s3.87.61,5.34,2.11c.65.66,1.29,1.34,2,2,2.6,2.39,5.66,2.54,7.67.39s1.82-4.77-.76-7.38q-9-9.13-18.18-18.18c-2.54-2.51-5.32-2.52-7.89-.06-2.76,2.64-5.43,5.38-8.13,8.08-3.5,3.5-7,7-10.49,10.53a4.79,4.79,0,0,0-.71,6.47,4.58,4.58,0,0,0,6,1.67,10.41,10.41,0,0,0,3.08-2.5c1.78-1.83,3.65-3.74,6.4-2.59s2.94,3.92,2.91,6.59c0,4.23,0,8.47,0,12.7,0,10.16-5.53,15.74-15.63,15.74H425.58c-1,0-2.07,0-3.1,0a4.54,4.54,0,0,0-4.4,4c-.45,2.42.76,4.19,2.91,5.26a8.5,8.5,0,0,0,3.94.59c11.46,0,22.92.05,34.38,0C462.63,534.45,464.63,535.7,465.2,539Z" transform="translate(-55.75 -115.01)"/><path class="cls-18" d="M465.2,539c-.57-3.32-2.57-4.57-5.89-4.54-11.46.1-22.92,0-34.38,0a8.5,8.5,0,0,1-3.94-.59c-2.15-1.07-3.36-2.84-2.91-5.26a4.54,4.54,0,0,1,4.4-4c1-.07,2.06,0,3.1,0h63.49c10.1,0,15.62-5.58,15.63-15.74,0-4.23,0-8.47,0-12.7,0-2.67-.06-5.41-2.91-6.59s-4.62.76-6.4,2.59a10.41,10.41,0,0,1-3.08,2.5,4.58,4.58,0,0,1-6-1.67,4.79,4.79,0,0,1,.71-6.47c3.45-3.56,7-7,10.49-10.53,2.7-2.7,5.37-5.44,8.13-8.08,2.57-2.46,5.35-2.45,7.89.06q9.15,9,18.18,18.18c2.58,2.61,2.78,5.21.76,7.38s-5.07,2-7.67-.39c-.69-.62-1.33-1.3-2-2-1.47-1.5-3-3.07-5.34-2.11s-2.91,3.18-2.88,5.62c.07,5.37.11,10.74,0,16.11-.25,11.22-7.49,20.4-18.09,23-4.77,1.15-9.65.72-14.49.77-4.07,0-5,.73-6.1,4.6Z" transform="translate(-55.75 -115.01)"/><path class="cls-18" d="M140.52,241.27c.79,3.32,2.81,4.62,6.28,4.56,9.08-.16,18.17,0,27.26-.06a8.18,8.18,0,0,1,3.93.63,4.65,4.65,0,0,1,2.81,5,4.56,4.56,0,0,1-4.25,4.2,29.16,29.16,0,0,1-3.1.07H109.93c-10.32,0-15.76,5.5-15.77,15.9,0,4.34,0,8.68,0,13a15,15,0,0,0,.46,3.66c1,3.81,3.65,4.58,6.66,1.95,1.24-1.09,2.31-2.36,3.54-3.47,2.23-2,5-2.09,7-.28a4.72,4.72,0,0,1,.14,7.15q-9.37,9.67-19.05,19.07c-2.25,2.19-5.16,2-7.45-.26Q76.18,303.3,67,294c-2.5-2.53-2.62-5.29-.52-7.37s4.93-1.87,7.45.4c1.15,1,2.18,2.22,3.39,3.18s2.77,1.86,4.53.89a4.32,4.32,0,0,0,2.32-4.07c0-5.78,0-11.57.06-17.35.2-11.21,7-20.1,17.62-23a27.52,27.52,0,0,1,7.34-.93c4.75,0,9.51-.16,14.25.05,3.53.16,5.78-1.05,6.6-4.57Z" transform="translate(-55.75 -115.01)"/></svg>