<svg id="Layer_1" data-name="Layer 1" xmlns="http://www.w3.org/2000/svg" viewBox="0 0 409.61 387.45"><defs><style>.cls-1{fill:#080606;}.cls-2{fill:#fefefe;}.cls-3{fill:#a85241;}.cls-4{fill:#c47060;}.cls-5{fill:#e0e6f1;}.cls-6{fill:#d6dae4;}</style></defs><title>Office location</title><path class="cls-1" d="M261,505.9c-1.11,4.76-2.65,6.15-7.3,6.16-52.92,0-105.84.12-158.75,0C76.77,512,64,498.64,64,480.41q0-116.57,0-233.13c0-18.74,13.12-32,31.83-32,22.13-.08,44.26-.1,66.38.06,3.09,0,3.71-.84,3.65-3.75-.23-11.45-.08-22.84,2.92-34.07,7-26.32,32.32-48.43,59.39-52,8.91-1.17,17.82-.71,26.72-.77,15.33-.12,30.66-.16,46,.07,34.08.52,64.2,26.92,69.62,60.63,1.38,8.61,1.39,17.25,1.21,25.9-.06,3,.65,4,3.86,3.95,21.59-.16,43.19.17,64.78-.17,16.72-.26,30.11,10.33,32.68,25.17,0,.19.37.32.56.48V397.6c-1.87,1.6-3.45,3.69-6.31,3.5-4-.84-5.75-3.22-5.73-7.35.09-16.53,0-33.06,0-49.58v-9.1c-1.54,2-2.46,3.26-3.42,4.48-14.74,18.77-33.94,29.14-57.87,30-12.91.45-25.85.14-38.78.15-21.59,0-43.18.05-64.77-.06-2.94,0-4.09.81-3.9,3.84.21,3.45.1,6.93,0,10.39a14.82,14.82,0,0,1-14.53,14.58c-6.39.18-12.79.19-19.18,0a14.82,14.82,0,0,1-14.34-14.35,69.77,69.77,0,0,1,0-9.59c.37-3.91-1.07-4.9-4.9-4.89-33.85.13-67.71.22-101.56,0-22.45-.17-40.81-9.69-55.82-26-2.18-2.37-4-5.1-6.43-8.27v4.84q0,69.17,0,138.34c0,14.3,7.31,21.57,21.69,21.57H252.47C258,500,259.36,501,261,505.9Zm5.45-119.58,10.37.16c2.82,0,4.1-1.4,4.1-4.18,0-10.51,0-21,0-31.54,0-2.14-.67-3.92-3.09-4.42l-.91-.43a51.21,51.21,0,0,0-10.43-.13c-8.74-.47-9.67.39-9.67,9.06v22.7C256.74,386.9,256.74,386.9,266.4,386.32Zm92.7-160.7c.07-.53.13-1.06.19-1.58q.66-13.24,0-26.48c0-.79-.08-1.58-.13-2.36a45,45,0,0,0-.05-4.79c-3.43-29.73-29.54-53.36-59.46-53.58-20.53-.16-41.06-.06-61.59,0a54.29,54.29,0,0,0-21.31,4.38l-.72.43h0c-16.13,6.32-27,17.93-33.57,33.74-6.64,16.09-4,33-4.09,49.73,0,2.67,2.15,4.08,4.51,4.28s4.69-.8,5.18-3.76c1-2,.62-4.17.65-6.28.12-9.31-.84-18.78.48-27.92,3.87-26.81,24.73-44.14,52-44.18,16.64,0,33.29.27,49.92-.09,12.94-.29,25.07,1.87,36.12,8.87.57.52,1.12,1.08,1.73,1.56,12.54,10,19.55,22.79,19.93,38.92.21,8.76.06,17.53.1,26.29,0,3,.92,5.6,4.18,6.44,2.64.68,4.62-.41,5.83-2.87ZM92.78,227.89c-9.54.36-16.74,8.49-16.79,19.2-.08,15.57-.13,31.14,0,46.71a62.37,62.37,0,0,0,10.16,34.3c7.39,11.27,17,19.92,29.88,24.61a1.53,1.53,0,0,0,.63.15,1.57,1.57,0,0,0,1.73.71,51.91,51.91,0,0,0,21,4q47.81.07,95.6,0c3,0,6.81,1.24,8.92-.55s.58-5.53.76-8.41c.51-8.36,6.84-14.79,15.2-15q9-.22,18,0a15.51,15.51,0,0,1,14.66,12,30.71,30.71,0,0,1,.34,8c-.2,3,.55,4.1,3.88,4.09,33.86-.14,67.73-.1,101.59-.07a55.23,55.23,0,0,0,11.49-1.24c30.67-6.44,51.48-31.88,51.73-63.31.11-14.8,0-29.6,0-44.4,0-13.73-7.52-21.33-21.22-21.35-21.73,0-43.47,0-65.2-.06-2.57,0-3.88.49-4.87,3.22a16.55,16.55,0,0,1-16,11c-7.49-.16-13.08-3.71-15.84-10.7-1.15-2.93-2.57-3.59-5.49-3.58q-64,.13-128,0c-3,0-4.58.6-5.82,3.69-2.8,7-8.44,10.47-15.93,10.59a16.81,16.81,0,0,1-16-11.16c-.88-2.41-2-3.14-4.51-3.12-21.87.11-43.73.06-65.6.06A9.31,9.31,0,0,0,92.78,227.89Zm175.58-12.65c21.46,0,42.91-.12,64.36.1,3.7,0,4.44-1.08,4.19-4.4-.29-3.85-.06-7.73-.07-11.59,0-22.63-16.28-39.58-38.82-39.95-19.45-.32-38.91-.26-58.36,0-18.2.24-32.07,11.09-37.43,28.48-2.42,7.85-1,15.87-1.54,23.79-.23,3.1.81,3.67,3.72,3.65C225.73,215.18,247.05,215.24,268.36,215.24Z" transform="translate(-63.99 -124.67)"/><path class="cls-1" d="M473.6,488c-2.16,3.72-3.11,8-5.81,11.5-6.77,8.71-15.64,12.67-26.67,12.62-28.93-.14-57.86,0-86.78,0q-35,0-70,0c-5.05,0-6.56-1.28-7.7-6.16,1.6-4.93,3-5.9,8.47-5.9H440.51c13.53,0,21.07-7.48,21.08-20.93,0-18,.1-36-.06-53.93,0-4.36,1.39-7.17,5.65-8.35,2.81.26,4.78,1.87,6.42,4Z" transform="translate(-63.99 -124.67)"/><path class="cls-2" d="M473.6,420.8c-1.64-2.14-3.61-3.75-6.42-4q0-7.85.11-15.69c2.86.19,4.44-1.9,6.31-3.5Z" transform="translate(-63.99 -124.67)"/><path class="cls-3" d="M467.29,401.1q-.06,7.84-.11,15.69c-4.26,1.18-5.69,4-5.65,8.35.16,18,.08,35.95.06,53.93,0,13.45-7.55,20.93-21.08,20.93H285.12c-5.52,0-6.87,1-8.47,5.9H261c-1.59-4.93-2.95-5.9-8.48-5.9H97.74c-14.38,0-21.69-7.27-21.69-21.57q0-69.18,0-138.34v-4.84c2.44,3.17,4.25,5.9,6.43,8.27,15,16.35,33.37,25.87,55.82,26,33.85.25,67.71.16,101.56,0,3.83,0,5.27,1,4.9,4.89a69.77,69.77,0,0,0,0,9.59,14.82,14.82,0,0,0,14.34,14.35c6.39.2,12.79.19,19.18,0a14.82,14.82,0,0,0,14.53-14.58c.13-3.46.24-6.94,0-10.39-.19-3,1-3.85,3.9-3.84,21.59.11,43.18.07,64.77.06,12.93,0,25.87.3,38.78-.15,23.93-.84,43.13-11.21,57.87-30,1-1.22,1.88-2.46,3.42-4.48v9.1c0,16.52,0,33.05,0,49.58C461.54,397.88,463.31,400.26,467.29,401.1Z" transform="translate(-63.99 -124.67)"/><path class="cls-4" d="M116.68,352.86a1.53,1.53,0,0,1-.63-.15,4,4,0,0,0-2-2.83,69.93,69.93,0,0,1-28.47-56.39c0-14.38.31-28.77-.12-43.14-.25-8.56,1.78-16,7.33-22.46a9.31,9.31,0,0,1,4.31-.57c21.87,0,43.73.05,65.6-.06,2.54,0,3.63.71,4.51,3.12a16.81,16.81,0,0,0,16,11.16c7.49-.12,13.13-3.63,15.93-10.59,1.24-3.09,2.83-3.69,5.82-3.69q64,.13,128,0c2.92,0,4.34.65,5.49,3.58,2.76,7,8.35,10.54,15.84,10.7a16.55,16.55,0,0,0,16-11c1-2.73,2.3-3.23,4.87-3.22,21.73.09,43.47,0,65.2.06,13.7,0,21.21,7.62,21.22,21.35,0,14.8.1,29.6,0,44.4-.25,31.43-21.06,56.87-51.73,63.31a55.23,55.23,0,0,1-11.49,1.24c-33.86,0-67.73-.07-101.59.07-3.33,0-4.08-1.09-3.88-4.09a30.71,30.71,0,0,0-.34-8,15.51,15.51,0,0,0-14.66-12q-9-.22-18,0c-8.36.2-14.69,6.63-15.2,15-.18,2.88,1.28,6.69-.76,8.41s-5.88.54-8.92.55q-47.81,0-95.6,0a51.91,51.91,0,0,1-21-4A1.56,1.56,0,0,0,116.68,352.86Zm152.07-85.8c10.53,0,21.05.06,31.58,0,4.51,0,7.45-2.58,7.51-6.13s-2.92-6-7.41-6.25c-.53,0-1.06,0-1.6,0q-30,0-60,0a20.33,20.33,0,0,0-4.73.56,5.51,5.51,0,0,0-4.3,5.58,5.72,5.72,0,0,0,3.82,5.58,12.82,12.82,0,0,0,5.11.69Q253.76,267,268.75,267.06Z" transform="translate(-63.99 -124.67)"/><path class="cls-5" d="M327.16,156c-11.05-7-23.18-9.16-36.12-8.87-16.63.36-33.28.06-49.92.09-27.22,0-48.08,17.37-52,44.18-1.32,9.14-.36,18.61-.48,27.92,0,2.11.35,4.27-.65,6.28-1.36-1.16-.81-2.73-.82-4.13-.05-7.45,0-14.91,0-22.37-.05-19.43,7-35.88,20.51-49.75,2.66-2.73,6.46-4.2,8.31-7.74h0l.72-.43a54.29,54.29,0,0,1,21.31-4.38c20.53,0,41.06-.14,61.59,0,29.92.22,56,23.85,59.46,53.58a45,45,0,0,1,.05,4.79c-1.42-.15-1.53-1.15-1.58-2.29-.3-7.51-3.1-14.19-7.31-20.21C344.56,164.5,337.42,158,327.16,156Z" transform="translate(-63.99 -124.67)"/><path class="cls-3" d="M92.78,227.89c-5.55,6.48-7.58,13.9-7.33,22.46.43,14.37.11,28.76.12,43.14A69.93,69.93,0,0,0,114,349.88a4,4,0,0,1,2,2.83C103.2,348,93.56,339.37,86.17,328.1A62.37,62.37,0,0,1,76,293.8c-.15-15.57-.1-31.14,0-46.71C76,236.38,83.24,228.25,92.78,227.89Z" transform="translate(-63.99 -124.67)"/><path class="cls-6" d="M216,141.63c-1.85,3.54-5.65,5-8.31,7.74-13.54,13.87-20.56,30.32-20.51,49.75,0,7.46,0,14.92,0,22.37,0,1.4-.54,3,.82,4.13-.49,3-2.67,4-5.18,3.76s-4.52-1.61-4.51-4.28c.09-16.68-2.55-33.64,4.09-49.73C189,159.56,199.88,148,216,141.63Z" transform="translate(-63.99 -124.67)"/><path class="cls-6" d="M327.16,156c10.26,2,17.4,8.48,23.12,16.68,4.21,6,7,12.7,7.31,20.21.05,1.14.16,2.14,1.58,2.29.05.78.09,1.57.13,2.36a2.25,2.25,0,0,0-.9,2.08V222a2.27,2.27,0,0,0,.89,2.09c-.06.52-.12,1.05-.19,1.58-.09,0-.27.11-.27.17a2.84,2.84,0,0,0,.1.57c-1.21,2.46-3.19,3.55-5.83,2.87-3.26-.84-4.17-3.42-4.18-6.44,0-8.76.11-17.53-.1-26.29-.38-16.13-7.39-29-19.93-38.92C328.28,157.1,327.73,156.54,327.16,156Z" transform="translate(-63.99 -124.67)"/><path class="cls-5" d="M277.75,346.34c2.42.5,3.08,2.28,3.09,4.42,0,10.52,0,21,0,31.54,0,2.78-1.28,4.22-4.1,4.18l-10.37-.16a211.19,211.19,0,0,1,0-40.54,51.21,51.21,0,0,1,10.43.13Z" transform="translate(-63.99 -124.67)"/><path class="cls-6" d="M266.41,345.78a211.19,211.19,0,0,0,0,40.54c-9.66.58-9.66.58-9.66-8.78v-22.7C256.74,346.17,257.67,345.31,266.41,345.78Z" transform="translate(-63.99 -124.67)"/><path class="cls-5" d="M359.29,224a2.27,2.27,0,0,1-.89-2.09V199.64a2.25,2.25,0,0,1,.9-2.08Q359.93,210.79,359.29,224Z" transform="translate(-63.99 -124.67)"/><path class="cls-3" d="M116.68,352.86a1.56,1.56,0,0,1,1.73.71A1.56,1.56,0,0,1,116.68,352.86Z" transform="translate(-63.99 -124.67)"/><path class="cls-6" d="M216.76,141.19l-.72.43Z" transform="translate(-63.99 -124.67)"/><path class="cls-5" d="M358.93,226.36a2.84,2.84,0,0,1-.1-.57c0-.06.18-.12.27-.17Z" transform="translate(-63.99 -124.67)"/><path class="cls-6" d="M277.75,346.34l-.91-.43Z" transform="translate(-63.99 -124.67)"/><path class="cls-1" d="M268.75,267.06q-15,0-30,0a12.82,12.82,0,0,1-5.11-.69,5.72,5.72,0,0,1-3.82-5.58,5.51,5.51,0,0,1,4.3-5.58,20.33,20.33,0,0,1,4.73-.56q30,0,60,0c.54,0,1.07,0,1.6,0,4.49.29,7.46,2.8,7.41,6.25s-3,6.09-7.51,6.13C289.8,267.12,279.28,267.06,268.75,267.06Z" transform="translate(-63.99 -124.67)"/></svg>