<svg id="Layer_1" data-name="Layer 1" xmlns="http://www.w3.org/2000/svg" viewBox="0 0 416.44 416.44"><defs><style>.cls-1{fill:#e4f5fa;}.cls-2{fill:#0d0c0a;}.cls-3{fill:#f4d08f;}.cls-4{fill:#fcfcfb;}.cls-5{fill:#fdfdfd;}.cls-6{fill:#fdf3d5;}.cls-7{fill:#f7d99a;}.cls-8{fill:#eae8e9;}.cls-9{fill:#ffe09e;}.cls-10{fill:#dad8da;}.cls-11{fill:#eceaeb;}.cls-12{fill:#0b0b0b;}.cls-13{fill:#d9d6d9;}.cls-14{fill:#141414;}.cls-15{fill:#121212;}.cls-16{fill:#837c85;}</style></defs><title>one time order history</title><rect class="cls-1" width="416.44" height="416.44" rx="23.29"/><path class="cls-2" d="M662,624.89c-3.39-1.56-7.13-1.67-10.67-2.68a71.06,71.06,0,0,1-50.93-61.38c-.2-2.15-.41-4.3-.61-6.45a154.2,154.2,0,0,1,2-17c.82-2.47,1.59-5,2.45-7.41,1.26-3.59,1.29-3.58-2.69-3.58q-54.48,0-109,0c-2.61,0-5-.33-6.88-2.26a13.72,13.72,0,0,1-.78-5q0-102.21,0-204.42a11.64,11.64,0,0,1,.55-4.35,6.31,6.31,0,0,1,5.85-2.73c2.94.11,5.9,0,8.85,0,3.82.06,5.35,1.44,6.06,5.37l-.08,1.46a.23.23,0,0,0-.13.37c-1.8,2.93-4.61,3.46-7.7,3-2.55-.36-3.2.53-3.18,3.11.13,17,.07,33.95.07,50.93q0,70.41-.05,140.81c0,2.32.23,3.35,3,3.34,36.8-.11,73.6-.07,110.39-.08,1.22,0,2.35.15,3.29-1.16,2.52-3.49,5.25-6.84,7.9-10.24,5.1-4.51,10.13-9.13,16.24-12.26,1.93-1,2.41-2.25,2.4-4.28q-.06-83.46,0-166.92c0-2.76-.8-3.55-3.4-3.26-3.54.39-6.64-.22-7.61-4.4.56-4.41,2-5.79,6.33-5.83,3.19,0,6.38-.07,9.57,0a5,5,0,0,1,5.26,4.78,34.42,34.42,0,0,1,.14,4.77q0,81.85,0,163.7c0,5.49,0,5.48,5.45,4.1a13.58,13.58,0,0,1,2.34-.44c3-.2,3.88-1.59,3.87-4.75q-.2-84.75-.09-169.51c0-.91,0-1.82,0-2.73-.41-7.13-5-11.52-12.11-11.57-8,0-15.95.08-23.92-.06-2.36,0-3.06.56-3.07,3,0,4.72,1,9.59-1.49,14.06-3.34,5-8.39,5.09-13.65,5-3.46-.08-5.46-1.59-6.29-4.86.7-3.32,2.34-5.57,6.12-5.47,1,0,2-.06,3,0,1.4.13,2.06-.3,2-1.85-.14-3-.14-6.07-.2-9.1s.07-6.36.22-9.53c.08-1.62-.46-2.13-2.11-2.12q-37.34.12-74.66.14c-3.07,0-6.14,0-9.2-.15-2-.13-2.44.7-2.41,2.55.11,5.45.2,10.91,0,16.36-.12,2.88.49,3.81,3.63,3.78,18.52-.18,37-.1,55.56-.09,4.75,0,6.36,1.54,6.59,6.15-.9,3.07-3,4.16-6.13,4.15-19-.06-37.92-.15-56.87.05-4.82.05-8.61-1.29-11.55-5.05-.3-.85-.64-1.68-.89-2.53-1.17-4-.43-8.1-.51-12.15,0-1.77-.48-2.31-2.28-2.28-8.38.13-16.76.12-25.13.16-7.31.22-11.62,4.86-11.62,12.61q0,113.1,0,226.19c0,9.73,4.17,13.9,13.92,13.9h94.3c4.89,0,6.11,1,6.94,5.54-.75,3.43-2.92,4.81-6.38,4.8-32.46,0-64.92,0-97.38,0A21.45,21.45,0,0,1,463,537.55q0-115.14,0-230.29a21.37,21.37,0,0,1,21.47-21.42c8.2,0,16.4-.07,24.6,0,2,0,3-.11,3.47-2.62.89-5.1,5.33-8.35,10.55-8.35q43.56,0,87.13,0c5.6,0,9.6,3.08,10.71,8.51.4,2,1.14,2.5,3.11,2.47,8.08-.12,16.17-.07,24.26-.05,12.82,0,22.19,9.23,22.36,22.05.12,8.32,0,16.63,0,24.95q0,72.76-.09,145.55c0,3.5.57,4.79,4.42,4.95,30.67,1.29,58,23.86,65.22,55.47,8.72,37.94-17.11,77.63-55.46,84.8-2.15.41-4.47.06-6.46,1.29Zm43.86-21.57c19.83-14.6,28.46-34.39,24.9-58.53-5.22-35.39-39.38-58-74.2-49.65a56.41,56.41,0,0,0-33.6,22.26c-12.19,15.69-15.42,33.36-10.46,52.3a60,60,0,0,0,54.32,44.77A57.4,57.4,0,0,0,705.81,603.32Z" transform="translate(-394.27 -241.67)"/><path class="cls-3" d="M485.44,310.41a11.64,11.64,0,0,0-.55,4.35q0,102.21,0,204.42a13.72,13.72,0,0,0,.78,5c.65,7.1,7.52,13.22,14.92,13.22H601.74a154.2,154.2,0,0,0-2,17l-11.3.07c-.83-4.54-2.05-5.53-6.94-5.54H487.2c-9.75,0-13.92-4.17-13.92-13.9q0-113.1,0-226.19c0-7.75,4.31-12.39,11.62-12.61C485.22,300.94,484.21,305.72,485.44,310.41Z" transform="translate(-394.27 -241.67)"/><path class="cls-4" d="M506,314.92a.23.23,0,0,1,.13-.37,1.44,1.44,0,0,0,.61-1.43l7-.11c2.94,3.76,6.73,5.1,11.55,5.05,19-.2,37.91-.11,56.87-.05,3.13,0,5.23-1.08,6.13-4.15,3.75-1.48,7.66-.33,11.47-.69.83,3.27,2.83,4.78,6.29,4.86,5.26.13,10.31,0,13.65-5,2.57.24,5.2-.5,7.73.48,1,4.18,4.07,4.79,7.61,4.4,2.6-.29,3.41.5,3.4,3.26q-.13,83.46,0,166.92c0,2-.47,3.29-2.4,4.28-6.11,3.13-11.14,7.75-16.24,12.26-1.48,0-3-.09-4.44-.09H522.73c-5.77,0-10.14-2.51-13.49-7.22-3.22-4.52-3-9.74-3-14.72-.15-54.32-.09-108.63-.1-162.94C506.1,318.1,506,316.51,506,314.92Zm31.69,36.51c-.5-1.38-1-2.75-1.5-4.15-2.75-8.13-8.5-12.23-17.16-12.19-4.2,0-6.68,1.9-6.74,5.13s2.4,5.09,6.61,5.16c4.71.07,6.19,1.14,7.68,5.61,3,8.9,5.86,17.84,8.93,26.71,3.39,9.75,13,16.18,22.77,14.62,14.43-2.31,28.79-5.08,43.14-7.87,5.86-1.14,8.65-4.84,8.78-10.85.12-5.12.06-10.24,0-15.36-.05-8-4.22-12.19-12.17-12.2q-20.14,0-40.28,0c-4.72,0-5.94.93-7.3,5.41Zm42.84,98.1q13.83,0,27.67,0a20.23,20.23,0,0,0,3.4-.19,4.51,4.51,0,0,0,4-4.72c.08-2.57-1.07-4.41-3.65-5a16,16,0,0,0-3.72-.35q-27.85,0-55.69,0a15,15,0,0,0-3.72.39,4.62,4.62,0,0,0-3.64,4.76,4.67,4.67,0,0,0,3.89,4.9,16,16,0,0,0,3.39.25Q566.51,449.55,580.52,449.53Zm-5.41,33.62c-7.74,0-15.48,0-23.22,0-1.58,0-3.23-.16-4.56,1-1.67,1.42-2.63,3.14-1.92,5.4.94,2.95,3.19,3.91,6.07,3.91q23.38,0,46.79,0c4.3,0,6.49-1.91,6.41-5.34s-2.07-4.93-6.35-4.95C590.59,483.12,582.85,483.15,575.11,483.15Zm35.08-74.3a13.37,13.37,0,0,0-13.3-13.48,13.71,13.71,0,0,0-13.39,13.52,13.38,13.38,0,0,0,13.28,13.17A13.06,13.06,0,0,0,610.19,408.85Zm-49.33,0a13.3,13.3,0,0,0-13.22-13.53,13.7,13.7,0,0,0-13.46,13.46,13.43,13.43,0,0,0,13.22,13.24A13.07,13.07,0,0,0,560.86,408.9Zm8.81,52.28c-5.91,0-11.83,0-17.75,0-1.58,0-3.22-.1-4.55,1-1.69,1.4-2.67,3.12-2,5.37.91,3,3.16,3.93,6,3.93,12.06,0,24.12,0,36.18,0,4.09,0,6.17-1.93,6.12-5.26s-2.06-5-6.31-5C581.51,461.14,575.59,461.19,569.67,461.18ZM525.75,449.5c.9,0,1.82.06,2.71,0,3-.26,4.89-1.75,5-4.89s-1.62-4.8-4.61-5.23a20.64,20.64,0,0,0-3.05-.14q-8,0-8,5.16C517.74,447.83,520.38,449.53,525.75,449.5Zm-.33,22v-.07a25.54,25.54,0,0,0,3.39,0c3-.41,4.73-2.09,4.64-5.21s-2-4.69-5-4.91a39.51,39.51,0,0,0-5.44,0c-3.12.22-5.3,2.37-5.3,5.07s2.18,4.84,5.28,5.14A23.62,23.62,0,0,0,525.42,471.48Zm.06,22c.9,0,1.82.07,2.72,0,3.45-.32,5.37-2.31,5.28-5.4-.1-2.92-2-4.68-5.39-4.85-1.58-.08-3.17-.08-4.75,0-3.21.15-5.41,2.08-5.58,4.8s2.12,5.14,5.34,5.46A23.57,23.57,0,0,0,525.48,493.45Z" transform="translate(-394.27 -241.67)"/><path class="cls-5" d="M622.91,517.4a56.41,56.41,0,0,1,33.6-22.26c34.82-8.32,69,14.26,74.2,49.65,3.56,24.14-5.07,43.93-24.9,58.53-.41-.91-1.09-1-2-.73-7.32,2.46-14.89,2.76-22.5,2.45a61.37,61.37,0,0,1-27.5-7.93,64.48,64.48,0,0,1-30.24-35.42A61.61,61.61,0,0,1,620,533C620.67,527.73,622.37,522.68,622.91,517.4Zm78.21,41.82c4.21,0,8.42,0,12.64,0,3.76-.05,6.29-2.31,6.16-5.38s-2.42-4.87-6.17-4.89c-8.31,0-16.62-.05-24.93,0-1.78,0-2.85-.34-3.62-2.14a13.19,13.19,0,0,0-6.75-6.92c-2-.92-2.4-2.22-2.38-4.24.11-8.08.06-16.17,0-24.25,0-2.81-.74-5.27-3.79-6.13-3.69-1-6.44,1.34-6.48,5.66-.07,8.2-.09,16.4,0,24.59A4.19,4.19,0,0,1,663.3,540c-6.27,3.46-9.12,9-8.24,16.18.81,6.64,4.72,11,10.86,13.15s13.69.59,17-5.08c3-5.07,6.67-5.33,11.36-5C696.56,559.34,698.84,559.22,701.12,559.22Z" transform="translate(-394.27 -241.67)"/><path class="cls-6" d="M506,314.92c0,1.59.11,3.18.11,4.78,0,54.31-.05,108.62.1,162.94,0,5-.18,10.2,3,14.72,3.35,4.71,7.72,7.22,13.49,7.22h92.58c1.48,0,3,.06,4.44.09-2.65,3.4-5.38,6.75-7.9,10.24-.94,1.31-2.07,1.16-3.29,1.16-36.79,0-73.59,0-110.39.08-2.81,0-3-1-3-3.34q.09-70.41.05-140.81c0-17,.06-33.95-.07-50.93,0-2.58.63-3.47,3.18-3.11C501.38,318.38,504.19,317.85,506,314.92Z" transform="translate(-394.27 -241.67)"/><path class="cls-7" d="M627.41,313.55c-2.53-1-5.16-.24-7.73-.48,2.46-4.47,1.46-9.34,1.49-14.06,0-2.42.71-3,3.07-3,8,.14,15.94,0,23.92.06,7.15.05,11.7,4.44,12.11,11.57.05.91,0,1.82,0,2.73q0,84.75.09,169.51c0,3.16-.84,4.55-3.87,4.75a13.58,13.58,0,0,0-2.34.44c-5.45,1.38-5.45,1.39-5.45-4.1q0-81.86,0-163.7a34.42,34.42,0,0,0-.14-4.77,5,5,0,0,0-5.26-4.78c-3.19-.09-6.38-.05-9.57,0C629.45,307.76,628,309.14,627.41,313.55Z" transform="translate(-394.27 -241.67)"/><path class="cls-8" d="M622.91,517.4c-.54,5.28-2.24,10.33-2.88,15.63a61.61,61.61,0,0,0,3.57,28.66,64.48,64.48,0,0,0,30.24,35.42,61.37,61.37,0,0,0,27.5,7.93c7.61.31,15.18,0,22.5-2.45.88-.29,1.56-.18,2,.73a57.4,57.4,0,0,1-39,11.15,60,60,0,0,1-54.32-44.77C607.49,550.76,610.72,533.09,622.91,517.4Z" transform="translate(-394.27 -241.67)"/><path class="cls-9" d="M601.74,537.38H500.58c-7.4,0-14.27-6.12-14.92-13.22,1.91,1.93,4.27,2.26,6.88,2.26q54.48-.07,109,0c4,0,4,0,2.69,3.58C603.33,532.43,602.56,534.91,601.74,537.38Z" transform="translate(-394.27 -241.67)"/><path class="cls-10" d="M599.74,313.17c-3.81.36-7.72-.79-11.47.69-.23-4.61-1.84-6.14-6.59-6.15-18.52,0-37-.09-55.56.09-3.14,0-3.75-.9-3.63-3.78.23-5.45.14-10.91,0-16.36,0-1.85.37-2.68,2.41-2.55,3.06.19,6.13.12,9.2.15,0,5.37,2.65,9.43,7.31,10.59a27.24,27.24,0,0,0,6.71.95c20.84-.06,41.69,0,62.53,0,.06,3,.06,6.07.2,9.1.08,1.55-.58,2-2,1.85-1-.08-2,0-3,0C602.08,307.6,600.44,309.85,599.74,313.17Z" transform="translate(-394.27 -241.67)"/><path class="cls-11" d="M610.68,296.77c-20.84,0-41.69,0-62.53,0a27.24,27.24,0,0,1-6.71-.95c-4.66-1.16-7.31-5.22-7.31-10.59q37.32,0,74.66-.14c1.65,0,2.19.5,2.11,2.12C610.75,290.41,610.74,293.59,610.68,296.77Z" transform="translate(-394.27 -241.67)"/><path class="cls-9" d="M513.72,313l-7,.11-.53,0c-.71-3.93-2.24-5.31-6.06-5.37-2.95-.05-5.91.07-8.85,0a6.31,6.31,0,0,0-5.85,2.73c-1.23-4.69-.22-9.47-.53-14.2,8.37,0,16.75,0,25.13-.16,1.8,0,2.24.51,2.28,2.28.08,4.05-.66,8.15.51,12.15C513.08,311.33,513.42,312.16,513.72,313Z" transform="translate(-394.27 -241.67)"/><path class="cls-6" d="M506.2,313.09l.53,0a1.44,1.44,0,0,1-.61,1.43C506.15,314.06,506.17,313.58,506.2,313.09Z" transform="translate(-394.27 -241.67)"/><path class="cls-12" d="M550.47,351.44c1.36-4.48,2.58-5.4,7.3-5.41q20.15,0,40.28,0c8,0,12.12,4.19,12.17,12.2,0,5.12.09,10.24,0,15.36-.13,6-2.92,9.71-8.78,10.85-14.35,2.79-28.71,5.56-43.14,7.87-9.78,1.56-19.38-4.87-22.77-14.62-3.07-8.87-6-17.81-8.93-26.71-1.49-4.47-3-5.54-7.68-5.61-4.21-.07-6.67-2-6.61-5.16s2.54-5.11,6.74-5.13c8.66,0,14.41,4.06,17.16,12.19.47,1.4,1,2.77,1.5,4.15,2.5,7.62,4.9,15.28,7.53,22.86A11.33,11.33,0,0,0,558.07,382c13.15-2.39,26.29-4.89,39.46-7.18,1.91-.34,2.44-1,2.4-2.79-.1-4.2-.21-8.42,0-12.62.15-2.67-.81-3.16-3.28-3.14-13.08.12-26.16,0-39.23.11C553.69,356.43,551.34,355.15,550.47,351.44Z" transform="translate(-394.27 -241.67)"/><path class="cls-13" d="M550.47,351.44c.87,3.71,3.22,5,7,4.94,13.07-.14,26.15,0,39.23-.11,2.47,0,3.43.47,3.28,3.14-.24,4.2-.13,8.42,0,12.62,0,1.82-.49,2.45-2.4,2.79-13.17,2.29-26.31,4.79-39.46,7.18a11.33,11.33,0,0,1-12.86-7.71c-2.63-7.58-5-15.24-7.53-22.86Z" transform="translate(-394.27 -241.67)"/><path class="cls-14" d="M580.52,449.53q-14,0-28,0a16,16,0,0,1-3.39-.25,4.67,4.67,0,0,1-3.89-4.9,4.62,4.62,0,0,1,3.64-4.76,15,15,0,0,1,3.72-.39q27.84,0,55.69,0a16,16,0,0,1,3.72.35c2.58.63,3.73,2.47,3.65,5a4.51,4.51,0,0,1-4,4.72,20.23,20.23,0,0,1-3.4.19Q594.36,449.55,580.52,449.53Z" transform="translate(-394.27 -241.67)"/><path class="cls-15" d="M575.11,483.15c7.74,0,15.48,0,23.22,0,4.28,0,6.28,1.64,6.35,4.95s-2.11,5.33-6.41,5.34q-23.4,0-46.79,0c-2.88,0-5.13-1-6.07-3.91-.71-2.26.25-4,1.92-5.4,1.33-1.15,3-1,4.56-1C559.63,483.14,567.37,483.15,575.11,483.15Z" transform="translate(-394.27 -241.67)"/><path class="cls-12" d="M610.19,408.85a13.06,13.06,0,0,1-13.41,13.21,13.38,13.38,0,0,1-13.28-13.17,13.71,13.71,0,0,1,13.39-13.52A13.37,13.37,0,0,1,610.19,408.85Zm-10.38.14c0-2-1-3-2.75-3-1.93-.06-3,.91-3,2.87,0,1.73.87,2.8,2.69,2.82A2.68,2.68,0,0,0,599.81,409Z" transform="translate(-394.27 -241.67)"/><path class="cls-12" d="M560.86,408.9a13.07,13.07,0,0,1-13.46,13.17,13.43,13.43,0,0,1-13.22-13.24,13.7,13.7,0,0,1,13.46-13.46A13.3,13.3,0,0,1,560.86,408.9Zm-12.94,2.77a2.67,2.67,0,0,0,2.59-3c-.08-1.93-1.3-2.75-3.14-2.68a2.61,2.61,0,0,0-2.71,2.82C544.67,410.55,545.7,411.7,547.92,411.67Z" transform="translate(-394.27 -241.67)"/><path class="cls-14" d="M569.67,461.18c5.92,0,11.84,0,17.75,0,4.25,0,6.26,1.71,6.31,5s-2,5.24-6.12,5.26c-12.06.06-24.12,0-36.18,0-2.88,0-5.13-.95-6-3.93-.69-2.25.29-4,2-5.37,1.33-1.11,3-1,4.55-1C557.84,461.17,563.76,461.18,569.67,461.18Z" transform="translate(-394.27 -241.67)"/><path class="cls-15" d="M525.75,449.5c-5.37,0-8-1.67-8-5.12s2.7-5.18,8-5.16a20.64,20.64,0,0,1,3.05.14c3,.43,4.71,2.12,4.61,5.23s-2,4.63-5,4.89C527.57,449.56,526.65,449.5,525.75,449.5Z" transform="translate(-394.27 -241.67)"/><path class="cls-15" d="M525.42,471.48a23.62,23.62,0,0,1-2.38,0c-3.1-.3-5.28-2.45-5.28-5.14s2.18-4.85,5.3-5.07a39.51,39.51,0,0,1,5.44,0c3,.22,4.86,1.77,5,4.91s-1.66,4.8-4.64,5.21a25.54,25.54,0,0,1-3.39,0Z" transform="translate(-394.27 -241.67)"/><path class="cls-14" d="M525.48,493.45a23.57,23.57,0,0,1-2.38,0c-3.22-.32-5.52-2.69-5.34-5.46s2.37-4.65,5.58-4.8c1.58-.07,3.17-.07,4.75,0,3.38.17,5.29,1.93,5.39,4.85.09,3.09-1.83,5.08-5.28,5.4C527.3,493.52,526.38,493.45,525.48,493.45Z" transform="translate(-394.27 -241.67)"/><path class="cls-12" d="M701.12,559.22c-2.28,0-4.56.12-6.83,0-4.69-.3-8.39,0-11.36,5-3.32,5.67-10.82,7.27-17,5.08s-10-6.51-10.86-13.15c-.88-7.19,2-12.72,8.24-16.18a4.19,4.19,0,0,0,2.56-4.43c-.11-8.19-.09-16.39,0-24.59,0-4.32,2.79-6.7,6.48-5.66,3,.86,3.79,3.32,3.79,6.13,0,8.08.07,16.17,0,24.25,0,2,.34,3.32,2.38,4.24a13.19,13.19,0,0,1,6.75,6.92c.77,1.8,1.84,2.16,3.62,2.14,8.31-.08,16.62-.05,24.93,0,3.75,0,6,1.88,6.17,4.89s-2.4,5.33-6.16,5.38C709.54,559.26,705.33,559.22,701.12,559.22Zm-24.44-5.12a5.76,5.76,0,0,0-5.78-5.8,5.46,5.46,0,0,0-5.66,5.46,5.71,5.71,0,0,0,5.48,6.08A6,6,0,0,0,676.68,554.1Z" transform="translate(-394.27 -241.67)"/><path class="cls-16" d="M599.81,409a2.68,2.68,0,0,1-3,2.67c-1.82,0-2.67-1.09-2.69-2.82,0-2,1-2.93,3-2.87C598.82,406,599.77,407,599.81,409Z" transform="translate(-394.27 -241.67)"/><path class="cls-16" d="M547.92,411.67c-2.22,0-3.25-1.12-3.26-2.88a2.61,2.61,0,0,1,2.71-2.82c1.84-.07,3.06.75,3.14,2.68A2.67,2.67,0,0,1,547.92,411.67Z" transform="translate(-394.27 -241.67)"/><path class="cls-13" d="M676.68,554.1a6,6,0,0,1-6,5.74,5.71,5.71,0,0,1-5.48-6.08,5.46,5.46,0,0,1,5.66-5.46A5.76,5.76,0,0,1,676.68,554.1Z" transform="translate(-394.27 -241.67)"/></svg>