<svg xmlns="http://www.w3.org/2000/svg" width="55.268" height="50" viewBox="0 0 55.268 50">
  <g id="online_stores" data-name="online stores" transform="translate(-0.1 -0.05)">
    <path id="Path_2681" data-name="Path 2681" d="M146.118,131.646c-.18.107-.144.314-.2.471a3.662,3.662,0,0,1-3.465,2.447q-9.605,0-19.212-.01c-.5,0-.625.131-.6.613.039.9.016,1.8.01,2.7,0,.775-.177.993-.931,1.234-.779-.217-.963-.455-.965-1.247,0-.864-.016-1.728,0-2.591,0-.327-.059-.487-.432-.481q-1.834.033-3.665,0c-.379,0-.443.154-.432.481.014.864,0,1.728,0,2.591,0,.792-.184,1.028-.965,1.247-.753-.239-.926-.461-.931-1.234,0-.917-.027-1.836.01-2.751.019-.445-.092-.561-.549-.56q-9.418.026-18.836.012a3.694,3.694,0,0,1-4.018-2.855c-.009-.027-.053-.04-.081-.06V96.879c.029-.017.075-.027.085-.052C91.769,94.71,92.819,94,95.088,94H142.4a3.746,3.746,0,0,1,3.462,2.319c.1.219.059.488.252.671Zm-1.872-34.119c-.017-.06-.033-.121-.05-.181-.209-1.008-.864-1.464-2.108-1.464H94.868c-1.53,0-2.2.669-2.2,2.193V130.99a1.788,1.788,0,0,0,1.44,1.646l.161.055c1.008.063,2.015.036,3.023.014.18,0,.358.017.538.017h44.211c1.548,0,2.239-.69,2.239-2.231V100.439c0-.18-.012-.358-.017-.538Z" transform="translate(-90.75 -93.95)" fill="#0b0b0b"/>
    <path id="Path_2682" data-name="Path 2682" d="M203.746,415.592a46.455,46.455,0,0,1,9.725,1.728,1.027,1.027,0,0,1,.845.8c.128.744-.527,1.26-1.33,1.008a37.807,37.807,0,0,0-3.857-.955,46.15,46.15,0,0,0-10.19-.769,42.757,42.757,0,0,0-10.767,1.67,2.352,2.352,0,0,1-.576.128.923.923,0,0,1-.91-.766.946.946,0,0,1,.744-1.091,43.361,43.361,0,0,1,5.283-1.219c1.507-.252,3.023-.383,4.545-.544A51.021,51.021,0,0,1,203.746,415.592Z" transform="translate(-172.778 -369.151)" fill="#0b0b0b"/>
    <path id="Path_2683" data-name="Path 2683" d="M266.748,382.854a51.02,51.02,0,0,0-6.478,0v-1.3c.78-.219.963-.455.965-1.247,0-.864.016-1.728,0-2.591,0-.327.059-.487.432-.481q1.834.033,3.665,0c.379,0,.443.154.432.481-.014.864,0,1.728,0,2.591,0,.792.186,1.029.965,1.247Q266.747,382.206,266.748,382.854Z" transform="translate(-235.78 -336.413)" fill="#4e4f5a"/>
    <path id="Path_2684" data-name="Path 2684" d="M182.705,135c0,.18.017.358.017.538v30.051c0,1.542-.691,2.231-2.239,2.231H136.3c-.18,0-.358-.012-.538-.017a2.57,2.57,0,0,0,.747-1.34c.121-.6.213-1.2.356-1.785a38.754,38.754,0,0,1,5.6-13.007,23.956,23.956,0,0,1,2.459-3.167q.009,4.448.019,8.9a3.67,3.67,0,0,0,3.8,3.848q8.168.012,16.34,0a3.671,3.671,0,0,0,3.822-3.831V150.94c0-.8-.179-1.031-.967-1.235-.016-1.195.184-2.384.1-3.58a1.027,1.027,0,0,0,.864-1.067c-.01-1.4.016-2.806-.012-4.207a3.66,3.66,0,0,0-3.023-3.485c-1.143-.194-2.3-.014-3.442-.108a.884.884,0,0,1,.479-.216c.78-.187,1.553-.4,2.337-.585a40.9,40.9,0,0,1,8.376-1.025,42.058,42.058,0,0,1,6.113.239A3.652,3.652,0,0,0,182.705,135Z" transform="translate(-129.195 -129.047)" fill="#d7eff7"/>
    <path id="Path_2685" data-name="Path 2685" d="M155.175,111.082a3.65,3.65,0,0,1-2.976.669,42.053,42.053,0,0,0-6.113-.239,40.9,40.9,0,0,0-8.374,1.026c-.783.18-1.556.4-2.337.585a.884.884,0,0,0-.479.216c-.2,0-.394.02-.592.02H121.362a3.727,3.727,0,0,0-3.956,3.937q0,3.638-.017,7.279a24.732,24.732,0,0,0-2.459,3.167,38.742,38.742,0,0,0-5.6,13.007c-.144.589-.235,1.189-.356,1.785a2.57,2.57,0,0,1-.747,1.34c-1.008.022-2.015.049-3.023-.014l-.161-.055a1.788,1.788,0,0,1-1.44-1.646c-.013-.16,0-.322,0-.485V109.253c0-1.523.671-2.193,2.2-2.193h47.22c1.247,0,1.9.455,2.108,1.464.017.06.033.121.05.181Z" transform="translate(-101.664 -105.13)" fill="#e8f6fa"/>
    <path id="Path_2686" data-name="Path 2686" d="M461.49,117.411c-.017-.06-.033-.121-.05-.181C461.457,117.29,461.473,117.351,461.49,117.411Z" transform="translate(-407.989 -113.836)" fill="#d7eff7"/>
    <path id="Path_2687" data-name="Path 2687" d="M113.61,362.37l.161.055Z" transform="translate(-110.233 -323.685)" fill="#d7eff7"/>
    <path id="Path_2688" data-name="Path 2688" d="M233.572,212.27c.083,1.2-.117,2.385-.1,3.58-.72.242-.872.443-.874,1.2v6.478a1.86,1.86,0,0,1-2.005,2.015H214.349a1.867,1.867,0,0,1-2.039-2.041v-8.54a4.838,4.838,0,0,0,1.525.443c.864.043,1.172-.217,1.271-1.073a3.083,3.083,0,0,0,1.277-.9,3.713,3.713,0,0,0,5.892.911c.166-.181.25-.083.386.033a3.6,3.6,0,0,0,5.083.013c.2-.176.288-.163.466.012a3.435,3.435,0,0,0,2.257.989c.848.042,1.133-.22,1.192-1.062a2.735,2.735,0,0,0,1.8-2.063Zm-11.114,8.436h2.853c.671,0,1.031-.318,1.042-.885a.931.931,0,0,0-1.048-.956q-2.853-.013-5.707,0a.926.926,0,0,0-1.044.962c.014.576.373.875,1.049.88.946.006,1.9,0,2.849,0Z" transform="translate(-194.724 -195.193)" fill="#fffefe"/>
    <path id="Path_2689" data-name="Path 2689" d="M222.495,159.564h-.105c-.739-.259-.874-.443-.875-1.214v-3.508c0-1.584-.684-2.269-2.26-2.27h-15.98a1.842,1.842,0,0,0-2.033,1.837q-.048,2.322,0,4.643a1.787,1.787,0,0,0,1.628,1.781,1.175,1.175,0,0,1,1.152.785c-.1.855-.41,1.116-1.271,1.073a4.838,4.838,0,0,1-1.525-.443v8.547a1.866,1.866,0,0,0,2.039,2.041h16.245a1.863,1.863,0,0,0,2.005-2.015v-6.478c0-.76.144-.962.874-1.2.789.2.967.432.967,1.235v6.478a3.675,3.675,0,0,1-3.822,3.831q-8.168.012-16.34,0a3.671,3.671,0,0,1-3.8-3.848q-.01-4.448-.019-8.9l.017-7.279a3.729,3.729,0,0,1,3.956-3.937h12.942c.2,0,.394-.013.592-.02,1.152.094,2.3-.086,3.442.108a3.66,3.66,0,0,1,3.023,3.485c.027,1.4,0,2.8.012,4.207A1.031,1.031,0,0,1,222.495,159.564Z" transform="translate(-183.647 -142.487)" fill="#0b0b0b"/>
    <path id="Path_2690" data-name="Path 2690" d="M215.059,172.769a1.18,1.18,0,0,0-1.152-.785,1.784,1.784,0,0,1-1.628-1.781q-.048-2.321,0-4.643a1.844,1.844,0,0,1,2.033-1.837c1.854-.01,3.707,0,5.56,0h10.42c1.576,0,2.262.69,2.26,2.27V169.5c0,.77.137.954.875,1.214a2.728,2.728,0,0,1-1.8,2.063.983.983,0,0,0-1.015-.785,1.783,1.783,0,0,1-1.717-1.736c-.056-.619-.39-.99-.913-1.015-.5-.024-.864.331-.963.949a2.2,2.2,0,0,1-.389,1.1,1.828,1.828,0,0,1-1.925.642,1.748,1.748,0,0,1-1.324-1.584,1.068,1.068,0,0,0-.626-1.041c-.645-.253-1.2.18-1.3,1A1.789,1.789,0,0,1,219.585,172c-.969-.026-1.584-.664-1.781-1.872a.936.936,0,0,0-.966-.883.949.949,0,0,0-.888,1.026,3.842,3.842,0,0,0,.4,1.6A3.167,3.167,0,0,1,215.059,172.769Z" transform="translate(-194.677 -153.632)" fill="#ef6b79"/>
    <path id="Path_2691" data-name="Path 2691" d="M238.246,204.666a3.843,3.843,0,0,1-.4-1.6.957.957,0,0,1,.888-1.026.94.94,0,0,1,.966.882c.2,1.209.812,1.847,1.781,1.872a1.794,1.794,0,0,0,1.872-1.692c.1-.818.651-1.251,1.3-1a1.084,1.084,0,0,1,.626,1.041,1.748,1.748,0,0,0,1.324,1.584,1.828,1.828,0,0,0,1.922-.642,2.2,2.2,0,0,0,.389-1.1c.094-.618.462-.973.963-.949a.966.966,0,0,1,.913,1.015,1.783,1.783,0,0,0,1.717,1.736.983.983,0,0,1,1.015.785c-.059.842-.344,1.1-1.192,1.062a3.435,3.435,0,0,1-2.257-1c-.181-.174-.266-.187-.466-.012a3.6,3.6,0,0,1-5.083-.013c-.135-.117-.22-.215-.386-.033A3.712,3.712,0,0,1,238.246,204.666Z" transform="translate(-216.587 -186.427)" fill="#0b0b0b"/>
    <path id="Path_2692" data-name="Path 2692" d="M259.561,259.883h-2.853c-.677,0-1.035-.312-1.049-.88a.932.932,0,0,1,1.044-.962q2.852-.013,5.707,0a.926.926,0,0,1,1.048.956c-.013.574-.371.881-1.042.885C261.465,259.889,260.511,259.883,259.561,259.883Z" transform="translate(-231.831 -234.37)" fill="#0b0b0b"/>
  </g>
</svg>
