<svg id="Layer_1" data-name="Layer 1" xmlns="http://www.w3.org/2000/svg" viewBox="0 0 384 306.18"><defs><style>.cls-1{fill:#050505;}.cls-2{fill:#afd582;}.cls-3{fill:#95cc81;}.cls-4{fill:#dae6f2;}.cls-5{fill:#fff2c0;}</style></defs><title>open</title><path class="cls-1" d="M180.75,321.75c1.27-.74,1-2.2,1.36-3.29a28,28,0,0,1,26.69-19.2q19.48-.06,39,0a10.21,10.21,0,0,0,5.94-1.65q45.89-29.55,91.88-58.95c1.7-1.09,2.24-2,1.75-4.08-3.55-15.33,5.16-29.09,20.39-32.45,13.88-3.06,27.78,6.35,30.86,21a20.71,20.71,0,0,1-.31,10.74c-.75,2.32-.32,3.59,1.94,5q36.28,23,72.4,46.32c6.5,4.17,13,8.29,19.47,12.55a8.87,8.87,0,0,0,5.23,1.5q19.49-.09,39,0c14,0,24.77,8.79,27.82,22.46.06.3.41.53.63.79v29.25c-1.3,2-2.77,3.67-5.34,3.86-4.55-.88-5.89-2.44-5.91-7,0-7.08.09-14.17,0-21.25-.13-8.08-5.34-14.38-13.21-16.34-3.57-.88-7.16-.47-10.75-.39-1.25-.05-2.49-.12-3.74-.12H211.24c-12.5,0-19.24,6.71-19.24,19.14V477c0,13,6.6,19.53,19.61,19.53H525.39c1.37,0,2.75-.07,4.12-.12s2.49.12,3.73.12c13.92,0,20.26-6.34,20.26-20.32q0-49.38,0-98.75c0-4.61,1.35-6.16,5.91-7,2.57.19,4.05,1.89,5.34,3.86v111c-1.28.74-1,2.19-1.37,3.29a28,28,0,0,1-26.68,19.2q-164,0-327.9,0a28,28,0,0,1-26.69-19.2c-.38-1.09-.08-2.55-1.36-3.29Zm291.87-22.68a12.77,12.77,0,0,0-1.16-1q-39-25-78-50.07c-1.71-1.1-2.59-.88-4.08.33-9.92,8-23.09,8.11-33,.08-1.9-1.53-3-1.21-4.72-.11q-23.69,15.32-47.46,30.51c-10.31,6.62-20.64,13.23-31.62,20.27Zm-84.87-71.14A15,15,0,1,0,372.81,243,15.12,15.12,0,0,0,387.75,227.93Z" transform="translate(-180.75 -201.57)"/><path class="cls-2" d="M529.51,496.37c-1.37.05-2.75.12-4.12.12H211.61c-13,0-19.61-6.57-19.61-19.53V329.64c0-12.43,6.74-19.14,19.24-19.14H525.77c1.25,0,2.49.07,3.74.12,2.6,3.41,5.52,6.66,6,11.23-1.87,0-3.74-.11-5.62-.11h-316c-6.81,0-10.59,3.64-10.59,10.25q0,71.6,0,143.19c0,6.21,3.83,10,10,10.05,7.75.05,15.5-.06,23.24,0,3.85.06,6.19-1.48,6.86-5.34h15c1.31,4.49,2.47,5.31,7.6,5.31H531c1.5,0,3-.08,4.49-.11C535,489.7,532.11,493,529.51,496.37Z" transform="translate(-180.75 -201.57)"/><path class="cls-3" d="M529.51,496.37c2.6-3.41,5.52-6.67,6-11.23,4.86-2.17,6.87-5.8,6.86-11.22q-.18-70.43,0-140.85c0-5.43-2-9-6.86-11.21-.43-4.57-3.35-7.82-6-11.23,3.59-.08,7.18-.49,10.75.39,7.87,2,13.08,8.26,13.21,16.34.12,7.08,0,14.17,0,21.25,0,4.56,1.36,6.12,5.91,7v14.78c-4.56.87-5.9,2.42-5.91,7q0,49.36,0,98.75c0,14-6.34,20.34-20.26,20.32C532,496.49,530.75,496.42,529.51,496.37Z" transform="translate(-180.75 -201.57)"/><path class="cls-4" d="M387.75,227.93A15,15,0,1,1,372.68,213,15.15,15.15,0,0,1,387.75,227.93Z" transform="translate(-180.75 -201.57)"/><path class="cls-5" d="M258.36,479.94h-15c-.91-4.69-2.33-5.92-7-5.94-6.12,0-12.26-.18-18.37.08-3,.13-3.62-.83-3.61-3.69q.13-66.74,0-133.47c0-3.38.88-4,4.08-4q154.29.13,308.57,0c3.31,0,4,.79,4,4.05q-.18,66.36,0,132.72c0,3.65-.88,4.4-4.45,4.4q-130.29-.18-260.57-.09C260.66,474,259.29,475.06,258.36,479.94Zm199.69-88.09.73-.12c.35.5.71,1,1.05,1.5q14.9,21.52,29.77,43c1.94,2.83,4.53,4,7.71,3a6.13,6.13,0,0,0,4.4-6.3q-.24-30.54-.67-61.07c0-3.05-1.9-4.82-4.85-5.2-3.21-.42-5.26,1.24-6.13,4.24a13.14,13.14,0,0,0-.23,3.72c.17,12.86.37,25.72.52,38.59,0,1,.35,2.14-.48,3.38-1-1.4-1.85-2.59-2.68-3.79q-14.9-21.52-29.75-43.07c-1.67-2.43-3.83-3.7-6.68-2.87s-4.08,3.06-4.07,6c0,20.36,0,40.72,0,61.07,0,4,2,6.18,5.4,6.27s5.84-2.16,5.89-6.25c.12-9.74,0-19.48,0-29.23Zm-140.6,11.8a36.64,36.64,0,0,0-36.29-37c-20.55-.17-37.29,16.07-37.41,36.28a36.85,36.85,0,1,0,73.7.68Zm14.9-.43c0,10,0,20,0,30,0,4.69,2.07,7.14,5.81,7.11s5.45-2.31,5.48-6.91c0-5.87.08-11.74,0-17.61,0-1.92.46-2.67,2.49-2.58,3.24.15,6.49.09,9.74,0,11.69-.27,21.71-9,23-20.1,1.42-12.4-5.6-22.8-17.69-25.71-7-1.68-14.17-.53-21.26-.7-5.69-.14-7.51,1.84-7.52,7.66C332.33,384,332.35,393.6,332.35,403.22Zm61.61.32c0,9.86,0,19.72,0,29.59,0,4.94,2.2,7,7.12,7.06,8,0,16,.07,24,0,4-.05,6.34-2.38,6.25-5.87s-2.28-5.35-6.23-5.39c-5.62-.05-11.24-.12-16.85,0-2.34.07-3-.69-2.95-3,.15-4.74.12-9.49,0-14.23-.05-2,.65-2.59,2.58-2.55,5,.11,10,.13,15,0,4.17-.1,6.89-2.65,6.71-6s-2.76-5.33-6.84-5.38c-4.87-.07-9.74-.1-14.61,0-2.06.05-2.88-.54-2.82-2.72.14-4.74.16-9.5,0-14.23-.08-2.39.82-2.95,3-2.89,5.49.13,11,.05,16.48,0a6.63,6.63,0,0,0,3.95-.79,5.43,5.43,0,0,0,2.44-6.17c-.72-2.92-2.92-4.28-5.83-4.3-7.86-.06-15.73,0-23.59,0-5.86,0-7.79,1.95-7.81,7.9C393.94,384.31,394,393.92,394,403.54Z" transform="translate(-180.75 -201.57)"/><path class="cls-1" d="M258.36,479.94c.93-4.88,2.3-5.94,7.72-5.94q130.28,0,260.57.09c3.57,0,4.46-.75,4.45-4.4q-.23-66.36,0-132.72c0-3.26-.71-4.06-4-4.05q-154.29.15-308.57,0c-3.2,0-4.09.61-4.08,4q.21,66.74,0,133.47c0,2.86.6,3.82,3.61,3.69,6.11-.26,12.25-.1,18.37-.08,4.64,0,6.06,1.25,7,5.94-.67,3.86-3,5.4-6.86,5.34-7.74-.1-15.49,0-23.24,0-6.2,0-10-3.84-10-10.05q0-71.6,0-143.19c0-6.61,3.78-10.25,10.59-10.25h316c1.88,0,3.75.07,5.62.11,4.84,2.17,6.88,5.78,6.86,11.21q-.18,70.43,0,140.85c0,5.42-2,9.05-6.86,11.22-1.5,0-3,.11-4.49.11H266C260.83,485.25,259.67,484.43,258.36,479.94Z" transform="translate(-180.75 -201.57)"/><path class="cls-1" d="M458.05,391.85v13c0,9.75.08,19.49,0,29.23-.05,4.09-2.37,6.34-5.89,6.25s-5.39-2.23-5.4-6.27c-.06-20.35,0-40.71,0-61.07,0-2.95,1.23-5.18,4.07-6s5,.44,6.68,2.87q14.83,21.56,29.75,43.07c.83,1.2,1.69,2.39,2.68,3.79.83-1.24.49-2.36.48-3.38-.15-12.87-.35-25.73-.52-38.59a13.14,13.14,0,0,1,.23-3.72c.87-3,2.92-4.66,6.13-4.24,2.95.38,4.81,2.15,4.85,5.2q.42,30.53.67,61.07a6.13,6.13,0,0,1-4.4,6.3c-3.18,1-5.77-.21-7.71-3q-14.84-21.55-29.77-43c-.34-.5-.7-1-1.05-1.5Z" transform="translate(-180.75 -201.57)"/><path class="cls-1" d="M317.45,403.65a36.85,36.85,0,1,1-73.7-.68c.12-20.21,16.86-36.45,37.41-36.28A36.64,36.64,0,0,1,317.45,403.65Zm-11.33-.2A25.28,25.28,0,0,0,280.4,378a25.52,25.52,0,1,0,.46,51A25.32,25.32,0,0,0,306.12,403.45Z" transform="translate(-180.75 -201.57)"/><path class="cls-1" d="M332.35,403.22c0-9.62,0-19.24,0-28.86,0-5.82,1.83-7.8,7.52-7.66,7.09.17,14.27-1,21.26.7,12.09,2.91,19.11,13.31,17.69,25.71-1.26,11.05-11.28,19.83-23,20.1-3.25.08-6.5.14-9.74,0-2-.09-2.53.66-2.49,2.58.11,5.87.07,11.74,0,17.61,0,4.6-1.87,6.88-5.48,6.91s-5.79-2.42-5.81-7.11C332.32,423.2,332.35,413.21,332.35,403.22ZM351.27,378a29.65,29.65,0,0,1-4.11,0c-2.78-.39-3.79.56-3.52,3.45.28,3.09.08,6.23.09,9.35,0,12.49,0,12.49,12.54,11.19,5.29-.55,10.07-4.45,11.19-9.11a12,12,0,0,0-5-12.75C359,377.59,355.12,377.92,351.27,378Z" transform="translate(-180.75 -201.57)"/><path class="cls-1" d="M394,403.54c0-9.62,0-19.23,0-28.84,0-5.95,2-7.89,7.81-7.9,7.86,0,15.73,0,23.59,0,2.91,0,5.11,1.38,5.83,4.3a5.43,5.43,0,0,1-2.44,6.17,6.63,6.63,0,0,1-3.95.79c-5.5,0-11,.1-16.48,0-2.22-.06-3.12.5-3,2.89.17,4.73.15,9.49,0,14.23-.06,2.18.76,2.77,2.82,2.72,4.87-.12,9.74-.09,14.61,0,4.08.05,6.67,2.15,6.84,5.38s-2.54,5.86-6.71,6c-5,.13-10,.11-15,0-1.93,0-2.63.56-2.58,2.55.12,4.74.15,9.49,0,14.23-.08,2.28.61,3,2.95,3,5.61-.16,11.23-.09,16.85,0,4,0,6.15,2,6.23,5.39s-2.27,5.82-6.25,5.87c-8,.08-16,.05-24,0-4.92,0-7.09-2.12-7.12-7.06C393.91,423.26,394,413.4,394,403.54Z" transform="translate(-180.75 -201.57)"/><path class="cls-5" d="M306.12,403.45A25.32,25.32,0,0,1,280.86,429a25.52,25.52,0,1,1-.46-51A25.28,25.28,0,0,1,306.12,403.45Z" transform="translate(-180.75 -201.57)"/><path class="cls-5" d="M351.27,378c3.85,0,7.73-.36,11.15,2.1a12,12,0,0,1,5,12.75c-1.12,4.66-5.9,8.56-11.19,9.11-12.49,1.3-12.49,1.3-12.54-11.19,0-3.12.19-6.26-.09-9.35-.27-2.89.74-3.84,3.52-3.45A29.65,29.65,0,0,0,351.27,378Z" transform="translate(-180.75 -201.57)"/></svg>