<svg id="Layer_1" data-name="Layer 1" xmlns="http://www.w3.org/2000/svg" viewBox="0 0 384 384.01"><defs><style>.cls-1{fill:#030404;}.cls-2{fill:#030303;}.cls-3{fill:#fefefe;}.cls-4{fill:#fecb7d;}.cls-5{fill:#96d9f0;}.cls-6{fill:#f0737e;}.cls-7{fill:#fdfdfc;}.cls-8{fill:#838da2;}.cls-9{fill:#060707;}.cls-10{fill:#060606;}.cls-11{fill:#0a0a0a;}.cls-12{fill:#12100d;}.cls-13{fill:#94d4eb;}.cls-14{fill:#f9c87b;}</style></defs><title>Order sent Customer</title><path class="cls-1" d="M420.75,205.5V464.25c-2,4.09-5.24,5.39-9.75,5.33-15.49-.2-31,0-46.47-.15-3,0-3.94.52-3.92,3.76.16,24.86,0,49.73.16,74.59,0,4.56-1.21,8-5.27,10.22H123c-4.66-2-5.51-5.72-5.51-10.34q.11-166.8.06-333.6c0-1.5,0-3,.13-4.5A37.17,37.17,0,0,1,154.85,174q114.33-.06,228.65,0a37.26,37.26,0,0,1,35.14,25C419.42,201.14,419.36,203.56,420.75,205.5Zm-67.51,92.37c-5.64-1.21-7.49-3.48-7.49-9.31,0-22.74.14-45.49-.06-68.24-.1-11,.19-21.68,7.61-31.32H349c-63.75,0-127.49.21-191.23-.16-14.19-.08-25.27,10.07-25.23,25.07q.47,162.54.1,325.08c0,3.15.54,4.11,4,4.1q102.56-.18,205.1,0c3.28,0,4.07-.74,4.06-4.05q-.12-89.8,0-179.6c0-5.83,1.86-8.12,7.49-9.3,5.49,1.07,7.5,3.42,7.51,8.89q0,46.11-.06,92.21c0,2.54.51,3.37,3.23,3.34,12.61-.16,25.24-.2,37.85,0,3.28.05,4.07-.74,4.06-4q-.16-100.64-.08-201.28c0-12.5.05-25,0-37.49-.05-7.12-2.72-13.2-8.35-17.63-7.17-5.64-15.13-6.84-23.5-2.94-8.65,4-13,11.16-13.07,20.56-.16,25.74-.05,51.47-.06,77.21C360.74,294.44,358.74,296.78,353.24,297.87Z" transform="translate(-36.75 -173.99)"/><path class="cls-2" d="M36.75,480.75V215.25c1.31-.84,1.13-2.35,1.55-3.56a31.92,31.92,0,0,1,35.51-21.05,31.59,31.59,0,0,1,25.92,30.88q0,127.64,0,255.27a13.54,13.54,0,0,1-1,5.45q-11.52,26.91-23,53.84c-1.44,3.4-3.64,5.65-7.53,5.61s-6-2.33-7.44-5.74c-3.93-9.4-7.89-18.79-12-28.11C44.73,498.81,41.45,489.47,36.75,480.75Zm48-102.8c0-29.86,0-59.71.07-89.57,0-2.78-.62-3.54-3.46-3.48-8.86.21-17.73.17-26.6,0-2.47-.05-3.07.66-3.06,3.09q.11,89.75,0,179.51c0,2.28.53,3,2.87,2.91,8.87-.15,17.74-.2,26.61,0,3,.07,3.65-.79,3.64-3.68C84.71,437.16,84.75,407.55,84.75,378Zm-16.37-141c4.61,0,9.22,0,13.83,0,1.52,0,2.64,0,2.58-2.09-.14-4.74.17-9.49-.13-14.21-.52-8-7-14.57-14.49-15.17-8.75-.7-15.82,4.18-17.81,12.51-1.37,5.77-.36,11.67-.59,17.5-.07,1.8,1.36,1.43,2.4,1.43C58.91,237,63.64,236.93,68.38,236.93Zm.13,33c4.49,0,9-.09,13.48,0,2,.05,2.91-.27,2.81-2.57-.18-4.36-.18-8.74,0-13.1.09-2.14-.8-2.4-2.59-2.39-9.36.07-18.72.1-28.08,0-2.07,0-2.48.69-2.43,2.55.12,4.24.2,8.5,0,12.73-.13,2.46.78,2.88,3,2.81C59.27,269.84,63.89,270,68.51,270Zm-.24,245c4.11-9.67,7.76-18.38,11.52-27,.8-1.85.45-2.48-1.54-2.47q-10.11.06-20.22,0c-1.44,0-2.21.44-1.55,2C60.28,496.34,64.09,505.21,68.27,515Z" transform="translate(-36.75 -173.99)"/><path class="cls-3" d="M353.24,350.13c-5.63,1.18-7.49,3.47-7.49,9.3q-.06,89.81,0,179.6c0,3.31-.78,4.06-4.06,4.05q-102.55-.17-205.1,0c-3.42,0-4-1-4-4.1q.12-162.54-.1-325.08c0-15,11-25.15,25.23-25.07,63.74.37,127.48.16,191.23.16h4.33c-7.42,9.64-7.71,20.36-7.61,31.32.2,22.75.06,45.5.06,68.24,0,5.83,1.85,8.1,7.49,9.31v18.5c-5,1.06-7.5,3.61-7.49,7.63s2.49,6.56,7.49,7.63ZM152.08,365.66c0,5.37-.06,10.74,0,16.11S155,390,160.48,390q15.54,0,31.1,0c5.19,0,8.39-2.79,8.47-7.91q.27-16.11,0-32.23c-.08-5-3.26-7.81-8.16-7.84Q176,341.93,160,342c-5,0-7.83,2.86-7.92,7.89C152,355.16,152.09,360.41,152.08,365.66ZM176,405.75c-5.25,0-10.5,0-15.74,0s-8.14,2.79-8.18,8q-.12,15.93,0,31.86c0,5.26,2.91,8.06,8.12,8.09q15.75.06,31.49,0c5,0,8.23-2.75,8.32-7.66q.32-16.29,0-32.61c-.09-4.92-3.31-7.67-8.27-7.71C186.52,405.71,181.28,405.75,176,405.75Zm-23.95,87.38c0,5.37-.06,10.74,0,16.11s2.87,8.23,8.35,8.25q15.56.06,31.11,0c5.19,0,8.4-2.78,8.49-7.88q.27-16.11,0-32.23c-.08-5-3.24-7.84-8.13-7.87q-15.93-.08-31.86,0c-5,0-7.86,2.84-7.95,7.87C152,482.63,152.09,487.88,152.08,493.13ZM269.61,214.5H230.27c-5.67,0-9.12,3-9,7.66s3.48,7.34,9,7.34h79.43c5.29,0,8.89-3.05,8.91-7.48s-3.59-7.51-8.85-7.52Zm0,78.75H309.7c5.26,0,8.87-3.11,8.85-7.54s-3.63-7.45-8.91-7.46H230.21c-5.49,0-8.87,2.79-9,7.34-.09,4.71,3.36,7.65,9,7.66Zm0,63.75h40.09c5.27,0,8.87-3.1,8.86-7.52s-3.62-7.47-8.9-7.48H230.22c-5.49,0-8.87,2.78-9,7.33s3.36,7.66,9,7.67Zm0,48.75H230.27c-5.67,0-9.12,2.95-9,7.65s3.48,7.34,9,7.35h79.43c5.29,0,8.88-3.05,8.91-7.47s-3.59-7.52-8.85-7.53Zm0,78.75h40.09c5.28,0,8.88-3.09,8.87-7.52s-3.61-7.47-8.89-7.48H230.23c-5.5,0-8.87,2.78-9,7.32-.1,4.7,3.36,7.67,9,7.68ZM171.21,232.79c-2.21-2.33-4-4.41-6-6.29-3.46-3.28-8-3.36-11-.34s-2.9,7.5.43,11,6.83,6.92,10.3,10.33c4.48,4.39,8.17,4.44,12.59.07q9.71-9.6,19.3-19.31c3.94-4,4.23-8.14.94-11.47s-7.59-3-11.48.82C181.35,222.51,176.46,227.49,171.21,232.79Zm0,69.78c-1.95-2.13-3.64-4.13-5.5-6-3.83-3.8-8.32-4.05-11.53-.77-3.06,3.12-2.77,7.6.81,11.25,3.41,3.48,6.84,6.92,10.33,10.32,4.14,4,7.9,4.06,12,0q10-9.86,19.85-19.85c3.64-3.69,3.79-8,.55-11.22s-7.55-2.92-11.21.73C181.48,292.08,176.52,297.17,171.19,302.57Zm74.23-43.07c5.5,0,11,.06,16.48,0a7.68,7.68,0,0,0,7.9-7.33c.12-4.16-3.37-7.61-8-7.63q-16.29-.09-32.58,0c-4.72,0-8,3.21-8,7.51s3.33,7.41,8.07,7.46C234.69,259.54,240.06,259.5,245.42,259.5Zm0,63.75c5.49,0,11,.06,16.48,0a7.69,7.69,0,0,0,7.92-7.3c.14-4.16-3.36-7.64-7.94-7.66q-16.29-.09-32.58,0c-4.73,0-8,3.19-8,7.5s3.32,7.43,8.05,7.48C234.67,323.3,240,323.25,245.4,323.25Zm.23,48.75c-5.37,0-10.74,0-16.1,0-5,0-8.36,3.18-8.28,7.63.08,4.28,3.39,7.33,8.18,7.35q16.11.06,32.2,0c4.68,0,8.13-3.25,8.17-7.45s-3.43-7.47-8.07-7.53C256.36,372,251,372,245.63,372Zm0,63.75c-5.37,0-10.74,0-16.1,0-5,0-8.36,3.18-8.28,7.63.08,4.29,3.39,7.33,8.18,7.35q16.11.06,32.2,0c4.68,0,8.13-3.25,8.17-7.45s-3.43-7.47-8.07-7.53C256.36,435.7,251,435.75,245.63,435.75Zm.17,63.75c-5.36,0-10.73,0-16.1,0-5.07,0-8.43,3-8.45,7.45s3.35,7.52,8.38,7.53q15.92,0,31.83,0c4.88,0,8.45-3.35,8.34-7.64s-3.57-7.3-8.27-7.34C256.29,499.46,251.05,499.5,245.8,499.5Z" transform="translate(-36.75 -173.99)"/><path class="cls-4" d="M353.24,350.13v-18.5q7.51-1.49,7.51-7.63t-7.51-7.63v-18.5c5.5-1.09,7.5-3.43,7.51-8.9,0-25.74-.1-51.47.06-77.21.05-9.4,4.42-16.52,13.07-20.56,8.37-3.9,16.33-2.7,23.5,2.94,5.63,4.43,8.3,10.51,8.35,17.63.07,12.5,0,25,0,37.49q0,100.64.08,201.28c0,3.31-.78,4.1-4.06,4-12.61-.22-25.24-.18-37.85,0-2.72,0-3.23-.8-3.23-3.34q.13-46.11.06-92.21C360.74,353.55,358.73,351.2,353.24,350.13Z" transform="translate(-36.75 -173.99)"/><path class="cls-5" d="M84.75,378c0,29.6,0,59.21.07,88.82,0,2.89-.67,3.75-3.64,3.68-8.87-.22-17.74-.17-26.61,0-2.34,0-2.87-.63-2.87-2.91q.09-89.76,0-179.51c0-2.43.59-3.14,3.06-3.09,8.87.15,17.74.19,26.6,0,2.84-.06,3.47.7,3.46,3.48C84.71,318.24,84.75,348.09,84.75,378Z" transform="translate(-36.75 -173.99)"/><path class="cls-6" d="M68.38,236.93c-4.74,0-9.47,0-14.21,0-1,0-2.47.37-2.4-1.43.23-5.83-.78-11.73.59-17.5,2-8.33,9.06-13.21,17.81-12.51,7.48.6,14,7.22,14.49,15.17.3,4.72,0,9.47.13,14.21.06,2.08-1.06,2.1-2.58,2.09C77.6,236.9,73,236.93,68.38,236.93Z" transform="translate(-36.75 -173.99)"/><path class="cls-7" d="M68.51,270c-4.62,0-9.24-.12-13.85.05-2.19.07-3.1-.35-3-2.81.22-4.23.14-8.49,0-12.73-.05-1.86.36-2.57,2.43-2.55,9.36.12,18.72.09,28.08,0,1.79,0,2.68.25,2.59,2.39-.19,4.36-.19,8.74,0,13.1.1,2.3-.86,2.62-2.81,2.57C77.5,269.87,73,270,68.51,270Z" transform="translate(-36.75 -173.99)"/><path class="cls-8" d="M68.27,515c-4.18-9.76-8-18.63-11.79-27.51-.66-1.55.11-2,1.55-2q10.11,0,20.22,0c2,0,2.34.62,1.54,2.47C76,496.59,72.38,505.3,68.27,515Z" transform="translate(-36.75 -173.99)"/><path class="cls-9" d="M152.08,365.66c0-5.25-.07-10.5,0-15.75.09-5,2.94-7.87,7.92-7.89q15.93-.09,31.86,0c4.9,0,8.08,2.88,8.16,7.84q.25,16.11,0,32.23c-.08,5.12-3.28,7.89-8.47,7.91q-15.56.06-31.1,0c-5.5,0-8.3-2.75-8.38-8.22S152.08,371,152.08,365.66Zm15,.89c.33,2.23-1.27,6,.58,7.92,1.7,1.74,5.45.49,8.29.51,9.07.06,9.07,0,9.07-9s0-9-9.11-9C167.12,357,167.12,357,167.12,366.55Z" transform="translate(-36.75 -173.99)"/><path class="cls-9" d="M176,405.75c5.25,0,10.49,0,15.74,0,5,0,8.18,2.79,8.27,7.71q.28,16.3,0,32.61c-.09,4.91-3.34,7.64-8.32,7.66q-15.75.06-31.49,0c-5.21,0-8.08-2.83-8.12-8.09q-.1-15.93,0-31.86c0-5.24,2.92-8,8.18-8S170.78,405.75,176,405.75Zm9,24.09c0-9.09,0-9.09-9-9.09h-.37c-8.57,0-8.59,0-8.55,8.72,0,3-.95,6.85.54,8.66s5.62.56,8.57.59C185.06,438.81,185.06,438.75,185.06,429.84Z" transform="translate(-36.75 -173.99)"/><path class="cls-10" d="M152.08,493.13c0-5.25-.07-10.5,0-15.74.09-5,2.94-7.85,7.95-7.87q15.93-.09,31.86,0c4.89,0,8.05,2.89,8.13,7.87q.25,16.11,0,32.23c-.09,5.1-3.3,7.87-8.49,7.88q-15.56,0-31.11,0c-5.48,0-8.28-2.77-8.35-8.25S152.08,498.5,152.08,493.13Zm23.72-8.63c-2.31.4-6.38-1.41-8.16.69-1.5,1.76-.44,5.69-.51,8.66v.37c0,8.28,0,8.33,8.25,8.26,3.08,0,7.05,1.32,9-.55s.58-5.9.61-9C185.1,484.5,185,484.5,175.8,484.5Z" transform="translate(-36.75 -173.99)"/><path class="cls-1" d="M269.61,214.5H309.7c5.26,0,8.88,3.11,8.85,7.52s-3.62,7.47-8.91,7.48H230.21c-5.48,0-8.86-2.79-9-7.34s3.35-7.65,9-7.66Z" transform="translate(-36.75 -173.99)"/><path class="cls-1" d="M269.61,293.25H230.27c-5.66,0-9.11-2.95-9-7.66.09-4.55,3.47-7.34,9-7.34h79.43c5.28,0,8.89,3.06,8.91,7.46s-3.59,7.53-8.85,7.54Z" transform="translate(-36.75 -173.99)"/><path class="cls-1" d="M269.6,357H230.26c-5.65,0-9.11-3-9-7.67s3.48-7.33,9-7.33h79.43c5.28,0,8.89,3.07,8.9,7.48S315,357,309.69,357Z" transform="translate(-36.75 -173.99)"/><path class="cls-1" d="M269.61,405.75H309.7c5.26,0,8.88,3.12,8.85,7.53s-3.62,7.46-8.91,7.47H230.21c-5.48,0-8.86-2.8-9-7.35s3.35-7.64,9-7.65Z" transform="translate(-36.75 -173.99)"/><path class="cls-1" d="M269.59,484.5H230.25c-5.64,0-9.1-3-9-7.68.11-4.54,3.48-7.32,9-7.32h79.43c5.28,0,8.89,3.07,8.89,7.48s-3.59,7.51-8.87,7.52Z" transform="translate(-36.75 -173.99)"/><path class="cls-11" d="M171.21,232.79c5.25-5.3,10.14-10.28,15.09-15.21,3.89-3.86,8.2-4.13,11.48-.82s3,7.49-.94,11.47q-9.6,9.71-19.3,19.31c-4.42,4.37-8.11,4.32-12.59-.07-3.47-3.41-6.94-6.82-10.3-10.33s-3.44-7.94-.43-11,7.53-2.94,11,.34C167.2,228.38,169,230.46,171.21,232.79Z" transform="translate(-36.75 -173.99)"/><path class="cls-10" d="M171.19,302.57c5.33-5.4,10.29-10.49,15.32-15.5,3.66-3.65,8-3.88,11.21-.73s3.09,7.53-.55,11.22q-9.87,10-19.85,19.85c-4.12,4.06-7.88,4-12,0-3.49-3.4-6.92-6.84-10.33-10.32-3.58-3.65-3.87-8.13-.81-11.25,3.21-3.28,7.7-3,11.53.77C167.55,298.44,169.24,300.44,171.19,302.57Z" transform="translate(-36.75 -173.99)"/><path class="cls-10" d="M245.42,259.5c-5.36,0-10.73,0-16.1,0-4.74-.05-8-3.16-8.07-7.46s3.29-7.49,8-7.51q16.29-.09,32.58,0c4.59,0,8.08,3.47,8,7.63a7.68,7.68,0,0,1-7.9,7.33C256.41,259.56,250.92,259.5,245.42,259.5Z" transform="translate(-36.75 -173.99)"/><path class="cls-10" d="M245.4,323.25c-5.36,0-10.73.05-16.1,0-4.73-.05-8-3.18-8.05-7.48s3.3-7.47,8-7.5q16.29-.08,32.58,0c4.58,0,8.08,3.5,7.94,7.66a7.69,7.69,0,0,1-7.92,7.3C256.39,323.31,250.89,323.25,245.4,323.25Z" transform="translate(-36.75 -173.99)"/><path class="cls-10" d="M245.63,372c5.36,0,10.73-.05,16.1,0,4.64.06,8.11,3.36,8.07,7.53s-3.49,7.43-8.17,7.45q-16.09.06-32.2,0c-4.79,0-8.1-3.07-8.18-7.35-.08-4.45,3.28-7.59,8.28-7.63C234.89,372,240.26,372,245.63,372Z" transform="translate(-36.75 -173.99)"/><path class="cls-10" d="M245.63,435.75c5.36,0,10.73-.05,16.1,0,4.64.06,8.11,3.36,8.07,7.53s-3.49,7.43-8.17,7.45q-16.09.06-32.2,0c-4.79,0-8.1-3.06-8.18-7.35-.08-4.45,3.28-7.59,8.28-7.63C234.89,435.72,240.26,435.75,245.63,435.75Z" transform="translate(-36.75 -173.99)"/><path class="cls-10" d="M245.8,499.5c5.25,0,10.49,0,15.73,0,4.7,0,8.17,3.15,8.27,7.34s-3.46,7.62-8.34,7.64q-15.91.06-31.83,0c-5,0-8.4-3.09-8.38-7.53s3.38-7.43,8.45-7.45C235.07,499.47,240.44,499.5,245.8,499.5Z" transform="translate(-36.75 -173.99)"/><path class="cls-12" d="M353.24,316.37q7.51,1.47,7.51,7.63t-7.51,7.63c-5-1.07-7.49-3.6-7.49-7.63S348.25,317.43,353.24,316.37Z" transform="translate(-36.75 -173.99)"/><path class="cls-13" d="M167.12,366.55c0-9.55,0-9.55,8.83-9.55,9.11,0,9.11,0,9.11,9s0,9.06-9.07,9c-2.84,0-6.59,1.23-8.29-.51C165.85,372.56,167.45,368.78,167.12,366.55Z" transform="translate(-36.75 -173.99)"/><path class="cls-13" d="M185.06,429.84c0,8.91,0,9-8.81,8.88-2.95,0-7,1.34-8.57-.59s-.53-5.69-.54-8.66c0-8.72,0-8.72,8.55-8.72h.37C185.06,420.75,185.06,420.75,185.06,429.84Z" transform="translate(-36.75 -173.99)"/><path class="cls-14" d="M175.8,484.5c9.23,0,9.3,0,9.2,8.46,0,3.07,1.38,7.08-.61,9s-5.93.52-9,.55c-8.25.07-8.25,0-8.25-8.26v-.37c.07-3-1-6.9.51-8.66C169.42,483.09,173.49,484.9,175.8,484.5Z" transform="translate(-36.75 -173.99)"/></svg>