<svg xmlns="http://www.w3.org/2000/svg" width="54.376" height="50" viewBox="0 0 54.376 50">
  <g id="Order_web" data-name="Order web" transform="translate(0.02 0.013)">
    <path id="Path_2653" data-name="Path 2653" d="M110.689,131.153l4.4.021a3.622,3.622,0,0,1,3.771,3.759V138.7a3.639,3.639,0,0,1-3.5,3.611c-.425.017-.85.017-1.274.025-.211-.008-.425-.023-.634-.023H74.136c-.9,0-1.126-.163-1.338-.943.234-.763.409-.882,1.33-.882h35.707c1.733,0,3.466.007,5.2,0a1.851,1.851,0,0,0,2.015-2.012v-3.5a1.508,1.508,0,0,0-.193-.859A1.834,1.834,0,0,0,114.889,133H68.445a3.577,3.577,0,0,0-.477.017,1.818,1.818,0,0,0-1.672,1.861c-.014,1.256-.028,2.513,0,3.768a1.646,1.646,0,0,0,1.144,1.665,2.923,2.923,0,0,0,1.389.173c.736.038.893.163,1.093.888l.724,3.4c.142.762.269,1.524.425,2.283q1.385,7.052,2.78,14.1a2.685,2.685,0,0,0,2.724,2.2h30.2a2.687,2.687,0,0,0,2.723-2.206q1.505-7.571,2.989-15.138c.142-.756.392-.981,1.165-1.021.654.36.783.606.63,1.379q-1.027,5.214-2.069,10.426c-.327,1.643-.623,3.291-1,4.922a4.428,4.428,0,0,1-4.224,3.451c-.16,0-.319.008-.479.008-9.893,0-19.785-.023-29.679.017a4.681,4.681,0,0,1-4.769-3.682c-.306-1.467-.583-2.94-.874-4.408q-1.429-7.207-2.85-14.429c-.055-.283-.142-.355-.425-.388a3.61,3.61,0,0,1-3.328-2.734c-.011-.041-.067-.069-.1-.1v-5.412c.017-.007.042-.008.048-.02.937-2.24,1.851-2.842,4.312-2.842.5,0,.991-.027,1.484.008.388.027.514-.074.5-.487-.03-1.274-.017-2.549-.008-3.816a3.656,3.656,0,0,1,3.885-3.871H85.149c.194,0,.388-.013.581-.018.46,0,.919.011,1.378.024a3.636,3.636,0,0,1,3.551,2.8,8.557,8.557,0,0,1,.088,2.641.874.874,0,0,1-.886.824.994.994,0,0,1-.937-1.114,7.927,7.927,0,0,0-.1-2.033,1.7,1.7,0,0,0-1.841-1.263q-6.2-.008-12.408,0a3.217,3.217,0,0,0-.37.023,1.725,1.725,0,0,0-1.543,1.618c-.027,1.45,0,2.9-.016,4.348,0,.258.082.333.333.326.708-.02,1.416-.017,2.124-.024l8.2.018c2.188,0,4.374-.013,6.56-.018h2.763c.212,0,.425.018.634.018h15.576C109.453,131.173,110.07,131.16,110.689,131.153Z" transform="translate(-64.5 -115.205)" fill="#0a0908"/>
    <path id="Path_2654" data-name="Path 2654" d="M151.013,276.985c-.773.04-1.017.265-1.165,1.021q-1.484,7.567-2.991,15.133a2.687,2.687,0,0,1-2.723,2.206h-30.2a2.685,2.685,0,0,1-2.724-2.2q-1.4-7.046-2.78-14.1c-.149-.759-.283-1.521-.425-2.283h43Zm-22.9,7.788v5.3c0,.673.357,1.086.895,1.1s.92-.416.943-1.112V279.779a2.588,2.588,0,0,0-.058-.629.876.876,0,0,0-1.338-.535,1.053,1.053,0,0,0-.442,1.014Zm-7.246.067v-3.558c0-.691-.37-1.133-.919-1.114s-.9.45-.9,1.106v7.114a.964.964,0,0,0,.908,1.092c.537.006.9-.425.9-1.082C120.873,287.211,120.87,286.025,120.87,284.84Zm16.332-.05v3.663a.932.932,0,0,0,.9,1.025.952.952,0,0,0,.9-1.042q.009-3.611,0-7.222a.916.916,0,1,0-1.81.017C137.2,282.418,137.2,283.6,137.2,284.79Z" transform="translate(-101.866 -247.201)" fill="#d7eff7"/>
    <path id="Path_2655" data-name="Path 2655" d="M261.342,102.079c-.619.007-1.236.02-1.853.02H243.912c-.211,0-.425-.011-.634-.018-.061-2.148.11-4.3-.1-6.448a3.451,3.451,0,0,0-3.192-3.1,1.4,1.4,0,0,1,.317-.881,2.846,2.846,0,0,1,2.492-1.235h15.876a1.55,1.55,0,0,0,1.616-1.3,1.9,1.9,0,0,1,.169,1.022V98.78c0,.756.178.976.888,1.148Z" transform="translate(-215.153 -86.131)" fill="#f9a866"/>
    <path id="Path_2656" data-name="Path 2656" d="M146.673,256.138h-43q-.361-1.7-.724-3.4h2.87c.212.78.442.943,1.338.943h39.319c.211,0,.425.014.634.023A17.153,17.153,0,0,1,146.673,256.138Z" transform="translate(-97.523 -226.583)" fill="#c1e7f5"/>
    <path id="Path_2657" data-name="Path 2657" d="M234.308,81.719c-.708-.173-.886-.392-.888-1.148V71.933a1.893,1.893,0,0,0-.169-1.022,1.679,1.679,0,0,0-1.664-1.141H212.153a1.8,1.8,0,0,0-1.848,1.791c-.01.246,0,.494,0,.742,0,.7-.246.974-.947,1.093-.66-.174-.859-.415-.859-1.065a6.054,6.054,0,0,1,.142-1.841,3.589,3.589,0,0,1,3.3-2.533c1.182-.037,2.368-.017,3.553-.017,5.25,0,10.5.048,15.753-.023a3.831,3.831,0,0,1,4.016,4.044c-.076,2.862-.017,5.728-.02,8.592C235.247,81.307,235.031,81.567,234.308,81.719Z" transform="translate(-188.122 -67.93)" fill="#080605"/>
    <path id="Path_2658" data-name="Path 2658" d="M214.58,84.618c.7-.119.942-.4.947-1.093,0-.248-.007-.5,0-.742a1.809,1.809,0,0,1,1.851-1.791h19.434a1.679,1.679,0,0,1,1.661,1.147,1.551,1.551,0,0,1-1.616,1.3H220.982a2.843,2.843,0,0,0-2.492,1.235,1.364,1.364,0,0,0-.317.881l-3.57.016Z" transform="translate(-193.346 -79.152)" fill="#fcbc7b"/>
    <path id="Path_2659" data-name="Path 2659" d="M214.594,113.226l3.57-.016a3.451,3.451,0,0,1,3.2,3.1c.211,2.148.04,4.3.1,6.448H218.7V120.88a.871.871,0,0,0,.886-.824,8.558,8.558,0,0,0-.088-2.641,3.637,3.637,0,0,0-3.551-2.8c-.459-.013-.918-.017-1.378-.024Q214.583,113.909,214.594,113.226Z" transform="translate(-193.338 -106.81)" fill="#f8a158"/>
    <path id="Path_2660" data-name="Path 2660" d="M90.772,208.733H87.9c-.2-.725-.357-.85-1.093-.888a2.854,2.854,0,0,1-1.389-.173,1.671,1.671,0,0,0,1.392-1.781,3.529,3.529,0,0,1,.065-1.1,2.818,2.818,0,0,1,2.751-1.912q21.553.027,43.105.011c.177,0,.354.01.53,0a1.53,1.53,0,0,0,1.569-1.416,1.508,1.508,0,0,1,.193.859v3.5a1.851,1.851,0,0,1-2.015,2.012c-1.733.01-3.466,0-5.2,0H92.1C91.182,207.85,91.006,207.969,90.772,208.733Z" transform="translate(-82.475 -182.572)" fill="#ee5161"/>
    <path id="Path_2661" data-name="Path 2661" d="M127.765,194.768a1.537,1.537,0,0,1-1.569,1.416c-.176.013-.353,0-.53,0q-21.554,0-43.105-.011a2.818,2.818,0,0,0-2.751,1.912,3.529,3.529,0,0,0-.065,1.1,1.672,1.672,0,0,1-1.392,1.781,1.646,1.646,0,0,1-1.144-1.665c-.035-1.255-.021-2.512,0-3.768a1.814,1.814,0,0,1,1.672-1.861,3.575,3.575,0,0,1,.477-.017H125.8A1.826,1.826,0,0,1,127.765,194.768Z" transform="translate(-75.408 -175.866)" fill="#ee6b79"/>
    <path id="Path_2662" data-name="Path 2662" d="M154.26,148.3v1.879c-2.186,0-4.373.018-6.56.018q-4.1,0-8.2-.018v-1.005a2.765,2.765,0,0,1,2.821-2.8c2.965,0,5.932-.014,8.9.008a1.927,1.927,0,0,0,2.008-1.226,7.826,7.826,0,0,1,.1,2.033A1,1,0,0,0,154.26,148.3Z" transform="translate(-128.897 -134.227)" fill="#faa966"/>
    <path id="Path_2663" data-name="Path 2663" d="M138.341,137.484a1.927,1.927,0,0,1-2.008,1.226c-2.965-.023-5.932-.01-8.9-.008a2.764,2.764,0,0,0-2.821,2.8v1.005c-.708,0-1.416,0-2.124.024-.251.007-.336-.068-.333-.326.011-1.45-.011-2.9.016-4.348a1.721,1.721,0,0,1,1.543-1.618,3.217,3.217,0,0,1,.37-.023H136.5A1.708,1.708,0,0,1,138.341,137.484Z" transform="translate(-114.012 -126.561)" fill="#fcbc7b"/>
    <path id="Path_2664" data-name="Path 2664" d="M250,295.118v-5.147a1.053,1.053,0,0,1,.442-1.014.876.876,0,0,1,1.338.535,2.587,2.587,0,0,1,.058.629V300.41c-.023.7-.392,1.133-.943,1.112s-.891-.425-.895-1.1Z" transform="translate(-223.751 -257.547)" fill="#171c1d"/>
    <path id="Path_2665" data-name="Path 2665" d="M187.851,305.489v3.557c0,.654-.37,1.087-.9,1.082a.967.967,0,0,1-.908-1.092v-7.114a.977.977,0,0,1,.892-1.106c.531-.018.918.425.919,1.114Q187.854,303.711,187.851,305.489Z" transform="translate(-168.847 -267.851)" fill="#050707"/>
    <path id="Path_2666" data-name="Path 2666" d="M314.159,305.441v-3.557c0-.648.381-1.082.915-1.066a.949.949,0,0,1,.895,1.049q.008,3.611,0,7.221a.949.949,0,0,1-.9,1.042.935.935,0,0,1-.9-1.025C314.154,307.883,314.159,306.663,314.159,305.441Z" transform="translate(-278.823 -267.852)" fill="#060707"/>
  </g>
</svg>
