<svg id="Layer_1" data-name="Layer 1" xmlns="http://www.w3.org/2000/svg" viewBox="0 0 337.68 384"><title>order icon</title><path d="M420.75,265.5c18.1,5.49,24.19,19.62,25.34,36.57.63,9.28-.4,18.67-.68,28-.06,1.8-.47,3-2.78,3-29.62-.07-59.23,0-89.72,0,3-6.51,5.65-12.61,8.61-18.55a133.15,133.15,0,0,1,22-32,59.36,59.36,0,0,1,26.78-17Z" transform="translate(-165.66 -265.5)"/><path d="M303.75,265.5c2.42,2.2,5.63,4,7.1,6.68,3.81,7.07-1.34,15.11-9.63,15.83-7.81.68-12.42,6-11.3,13.17,19.95,2.65,36.95,9.47,43.26,31.62H223.91c2.48-16.63,18-28.95,42.8-31.57a68.77,68.77,0,0,1,.7-7.23c3-14.94,11.91-24.3,26.82-27.83a5.35,5.35,0,0,0,1.27-.67Z" transform="translate(-165.66 -265.5)"/><path d="M334.73,355.52H467.44c8.68,0,12.53,3.37,13.39,12.1,2.28,23.36,4.44,46.72,6.69,70.08,2.4,25,4.87,50,7.25,74.92,2.12,22.37,4.15,44.75,6.25,67.12.6,6.46,1.19,12.93,2,19.37,3.24,26.48-17.59,50.33-44.26,50.34q-124.28.09-248.56,0c-26.77,0-47.43-24.18-44.19-50.79,2.13-17.47,3.41-35,5.09-52.56,1.89-19.75,3.83-39.5,5.71-59.26,1.62-17,3.17-34.06,4.78-51.08s3.31-34.3,5-51.44q.83-8.58,1.67-17.15c.81-8,4.88-11.65,13.06-11.65Zm-79,66.81c1.27,26.1,5.47,51.6,15,76,6.83,17.51,15.86,33.65,30.34,46.15,20.65,17.84,45.91,17.86,66.66.17,9.55-8.15,16.81-18.1,22.6-29.13C407.41,483,412.82,447.9,413.17,411.7a11.23,11.23,0,0,0-11.32-11.16c-6,.11-10.83,5.07-11.1,11.45s-.36,12.73-.77,19.09c-1.33,20.66-5.33,40.79-13,60.07-5.25,13.2-11.88,25.63-22.57,35.36C347.53,532.78,339.75,537,330,535c-7.66-1.57-13.54-6.21-18.71-11.78-10.93-11.78-17.51-26-22.49-41-7.48-22.59-10.5-45.89-10.53-69.63,0-6.9-4.94-12.05-11.22-12.06s-11.17,5.21-11.26,12C255.72,415.83,255.76,419.08,255.76,422.33Z" transform="translate(-165.66 -265.5)"/></svg>