<svg id="Layer_1" data-name="Layer 1" xmlns="http://www.w3.org/2000/svg" viewBox="0 0 409.57 345.66"><defs><style>.cls-1{fill:#0c0505;}.cls-2{fill:#fbdaa4;}.cls-3{fill:#f39895;}.cls-4{fill:#fac296;}.cls-5{fill:#e5656f;}.cls-6{fill:#d35a5f;}.cls-7{fill:#0f0e0d;}.cls-8{fill:#0d0c0b;}.cls-9{fill:#090506;}.cls-10{fill:#b5ccea;}.cls-11{fill:#95b4d6;}.cls-12{fill:#98b8db;}.cls-13{fill:#9abade;}.cls-14{fill:#e1636d;}.cls-15{fill:#9bbce0;}</style></defs><title>Other location</title><path class="cls-1" d="M135,765.71c-5.34-1.56-6.22-2.74-6.22-8.56q0-141.14,0-282.26c0-2.37.33-4.35-3-5.17-2.57-.63-3.8-3.28-3.32-6.13a5.81,5.81,0,0,1,5.35-5.11,22.56,22.56,0,0,1,3.19-.07H510.45a16.45,16.45,0,0,1,4,.18,5.76,5.76,0,0,1,4.72,5.27c.32,2.9-1.06,5.49-3.6,6-3.5.68-2.72,2.85-2.73,4.92-.06,5.81-.92,7.17-5.65,8.57-5.08-.9-6.64-2.57-6.28-8.27.25-3.93-1-4.72-4.77-4.72q-175.39.16-350.78.09a16.67,16.67,0,0,1-2,0c-1.82-.21-2.66.36-2.57,2.38.18,3.73.12,7.46.17,11.19-.05,1.33-.13,2.66-.13,4q0,82.39-.08,164.77c0,3.57.78,4.61,4.51,4.6q175.56-.15,351.13,0c3.75,0,4.51-1.07,4.5-4.62q-.18-73.79-.07-147.57c0-5.75.86-6.88,6.34-8.46,4.61,1.11,5.72,4.25,5.72,8.67q-.12,141.08-.12,282.17c0,3.17.29,5.17,4.15,4.38,3.54-.72,6.28.89,8.71,3.26V800c-1.92,3.19-4.75,4-8.41,4q-196.47-.1-392.93-.06a23.58,23.58,0,0,1-2.79-.06,5.91,5.91,0,0,1-5.43-6.26c.27-3.36,2.19-5.26,5.57-5.7,2.34-.3,5.43,1,6.81-.71,1.12-1.43.21-4.35.44-6.59.38-3.6,2.68-5.3,6.14-5.65,4.91,1.43,6,2.78,5.72,8.86-.15,3.32.75,4.17,4.11,4.16q70-.18,140,0c3.77,0,4.25-1.22,4.23-4.49-.12-25.6-.08-51.2-.06-76.8,0-6.66,1.92-8.58,8.55-8.59q22.8,0,45.6,0c7.85,0,9.45,1.64,9.45,9.69,0,25.33.07,50.67-.08,76,0,3.32.8,4.17,4.15,4.16q70-.18,140,0c3.22,0,4.23-.62,4.21-4.06q-.19-57.19,0-114.4c0-3.17-.55-4.24-4-4.24q-176,.17-352,0c-3.36,0-4.14.85-4.12,4.15.14,27.87,0,55.74.15,83.6C140.89,761.6,139.55,764.58,135,765.71Zm205-38.52c.06-3.18,0-6.37.23-9.54.2-2.63-.73-3.42-3.35-3.37-8,.15-15.94.05-23.91.05-12.45,0-12.45,0-11.49,12.86q-.1,31.13-.25,62.25c0,2.33,1.1,2.54,2.94,2.53,9.19-.06,18.37,0,27.55,0,8.5,0,8.52,0,8.49-8.48Q340.2,755.32,340.06,727.19Z" transform="translate(-116.03 -458.39)"/><path class="cls-2" d="M507.14,496.72c-5.48,1.58-6.34,2.71-6.34,8.46q0,73.79.07,147.57c0,3.55-.75,4.62-4.5,4.62q-175.56-.17-351.13,0c-3.73,0-4.52-1-4.51-4.6q.17-82.38.08-164.77c0-1.33.08-2.66.13-4H507Q507.07,490.37,507.14,496.72ZM248.55,608.49c0,9.07,0,18.13,0,27.2,0,5.92,2,8,7.87,8q23.79.1,47.59,0c5.7,0,7.9-2.37,7.91-8.12q0-26.79,0-53.59c0-5.95-2.23-8.24-8.19-8.25q-23.6-.07-47.19,0c-5.88,0-7.95,2.1-8,7.93C248.51,590.63,248.55,599.56,248.55,608.49Zm144.5.35c0-9.07,0-18.13,0-27.2,0-5.68-2.07-7.84-7.64-7.86q-24-.12-48,0c-5.44,0-7.71,2.42-7.73,7.9q0,27,0,54c0,5.72,2.23,8,8,8.06q23.79.1,47.59,0c5.84,0,7.78-2.13,7.81-8.1C393.08,626.7,393.05,617.77,393.05,608.84Zm-162.51,0c0-9.06,0-18.13,0-27.19,0-5.72-2-7.87-7.57-7.9q-24-.12-48,0c-5.5,0-7.73,2.37-7.74,7.86q0,27.2,0,54.39c0,5.24,2.24,7.65,7.51,7.68q24.19.16,48.39,0c5.39,0,7.37-2.23,7.4-7.65C230.58,627,230.54,617.94,230.54,608.87Zm180.52-.16c0,9.06,0,18.13,0,27.19,0,5.66,2,7.79,7.64,7.82q24,.12,48,0c5.49,0,7.66-2.39,7.67-7.92q0-27,0-54c0-5.72-2.23-8-8-8q-23.81-.09-47.59,0c-5.67,0-7.71,2.13-7.74,7.73C411,590.58,411.06,599.64,411.06,608.71ZM280.22,547.37c8.13,0,16.25,0,24.38,0,5.09-.05,7.29-2.22,7.32-7.32q.1-17.79,0-35.57c0-5.23-2.35-7.58-7.58-7.6q-24.18-.08-48.36,0c-5.13,0-7.35,2.18-7.39,7.26q-.12,18,0,36c0,5.19,2.1,7.22,7.25,7.26C264,547.42,272.09,547.37,280.22,547.37Zm81.21,0c8.13,0,16.26,0,24.38,0,5,0,7.15-2,7.19-6.91q.13-18.2,0-36.37c0-4.9-2.23-7.17-7.05-7.2q-24.57-.12-49.15,0c-4.72,0-7.09,2.47-7.13,7.24q-.12,18,0,36c0,5.07,2.26,7.23,7.38,7.27C345.18,547.42,353.31,547.37,361.43,547.37Zm-162.4,0c8,0,16,0,24,0,5.48,0,7.49-2,7.51-7.37q.07-17.79,0-35.57c0-5.38-2.13-7.53-7.48-7.55q-24-.08-48,0c-5.54,0-7.82,2.26-7.85,7.71q-.06,17.59,0,35.17c0,5.56,2.11,7.58,7.82,7.62C183,547.4,191,547.37,199,547.37Zm243.7,0c8.13,0,16.25,0,24.38,0,5.09-.05,7.23-2.23,7.25-7.37q.08-17.79,0-35.57c0-5.21-2.34-7.53-7.61-7.55q-24.17-.08-48.35,0c-5.12,0-7.29,2.22-7.32,7.31q-.09,18,0,36c0,5.16,2.07,7.17,7.27,7.21C426.48,547.41,434.61,547.37,442.73,547.37Z" transform="translate(-116.03 -458.39)"/><path class="cls-3" d="M135,765.71c4.53-1.13,5.87-4.11,5.85-8.61-.13-27.86,0-55.73-.15-83.6,0-3.3.76-4.15,4.12-4.15q176,.15,352,0c3.48,0,4,1.07,4,4.24q-.17,57.2,0,114.4c0,3.44-1,4.06-4.21,4.06q-70-.16-140,0c-3.35,0-4.16-.84-4.15-4.16.15-25.33.09-50.67.08-76,0-8-1.6-9.69-9.45-9.69q-22.8,0-45.6,0c-6.63,0-8.54,1.93-8.55,8.59,0,25.6-.06,51.2.06,76.8,0,3.27-.46,4.5-4.23,4.49q-70-.24-140,0c-3.36,0-4.26-.84-4.11-4.16.27-6.08-.81-7.43-5.72-8.86Q135,772.36,135,765.71Zm288.39-82.77q-21.59,0-43.16,0c-3.1,0-5.95.45-7.27,3.7-4.3,10.55-8.66,21.09-12.71,31.74-1.69,4.45.75,8,5.45,8.67a12.63,12.63,0,0,0,3.58.05c2.77-.41,3.31.86,3.29,3.37-.1,13.19-.07,26.38,0,39.56,0,6.4,2,8.35,8.33,8.35H466c6.27,0,8.37-2.11,8.38-8.39,0-12.78.13-25.57-.08-38.36-.06-3.5.67-4.75,4.46-4.61,7.27.27,9.75-3.63,7.06-10.47q-5.38-13.68-10.86-27.33c-2.25-5.62-3.16-6.25-9.19-6.26Q444.59,682.92,423.41,682.94Zm-204.87,0c-14.52,0-29,0-43.56,0-3.35,0-6.11.82-7.44,4.14-4.2,10.45-8.42,20.89-12.44,31.42-1.59,4.15.34,7.34,4.63,8.37a6.69,6.69,0,0,0,2.76.24c4.28-.84,4.88,1.22,4.82,5-.23,12.65-.1,25.31-.09,38,0,6.24,2.12,8.34,8.43,8.34h85.12c6.3,0,8.26-2,8.28-8.39,0-12.93.13-25.85-.08-38.77-.05-3.33.85-4.25,4.17-4.17,7.88.18,10.28-3.58,7.34-10.95-3.63-9.11-7.42-18.16-10.87-27.34-1.6-4.23-4.2-5.93-8.71-5.87C246.78,683.05,232.66,682.94,218.54,682.94Z" transform="translate(-116.03 -458.39)"/><path class="cls-4" d="M507,484H140.94c-.05-3.73,0-7.46-.17-11.19-.09-2,.75-2.59,2.57-2.38a16.67,16.67,0,0,0,2,0q175.38,0,350.78-.09c3.81,0,5,.79,4.77,4.72-.36,5.7,1.2,7.37,6.28,8.27A1.33,1.33,0,0,1,507,484Z" transform="translate(-116.03 -458.39)"/><path class="cls-5" d="M340.06,727.19q.1,28.14.21,56.27c0,8.48,0,8.48-8.49,8.48-9.18,0-18.36,0-27.55,0-1.84,0-3-.2-2.94-2.53q.19-31.12.25-62.25Z" transform="translate(-116.03 -458.39)"/><path class="cls-6" d="M340.06,727.19H301.54c-1-12.86-1-12.86,11.49-12.86,8,0,15.94.1,23.91-.05,2.62,0,3.55.74,3.35,3.37C340.05,720.82,340.12,724,340.06,727.19Z" transform="translate(-116.03 -458.39)"/><path class="cls-7" d="M248.55,608.49c0-8.93,0-17.86,0-26.79,0-5.83,2.11-7.91,8-7.93q23.6-.07,47.19,0c6,0,8.18,2.3,8.19,8.25q0,26.79,0,53.59c0,5.75-2.21,8.09-7.91,8.12q-23.8.1-47.59,0c-5.86,0-7.84-2.12-7.87-8C248.52,626.62,248.55,617.56,248.55,608.49Zm25,22.7c1.39-1,.68-2.44.68-3.64.06-10.51,0-21,0-31.52,0-10.67,0-10.62-10.84-10.23-2,.07-2.91.49-2.8,2.67.19,3.58.15,7.17.21,10.75-.05,10-.08,20-.18,30,0,1.63.35,2.51,2.2,2.37C266.42,631.31,270,632,273.57,631.19Zm25.61,0c1.46-1,.71-2.42.72-3.62.05-10.52,0-21,0-31.57,0-11,0-11-11.22-10.25-2,.13-2.47.88-2.4,2.66.13,3.58.13,7.18.18,10.77,0,10-.07,20-.16,30,0,1.58.25,2.53,2.15,2.4C292,631.33,295.62,631.92,299.18,631.23Z" transform="translate(-116.03 -458.39)"/><path class="cls-7" d="M393.05,608.84c0,8.93,0,17.86,0,26.79,0,6-2,8.07-7.81,8.1q-23.79.1-47.59,0c-5.74,0-8-2.34-8-8.06q0-27,0-54c0-5.48,2.29-7.88,7.73-7.9q24-.12,48,0c5.57,0,7.6,2.18,7.64,7.86C393.09,590.71,393.05,599.77,393.05,608.84Zm-25,22.35c3.55.78,7.15.12,10.72.38,1.85.14,2.21-.74,2.2-2.37-.1-10-.13-20-.18-30,.06-1.06.16-2.11.17-3.17.05-10.49.05-10.39-10.34-10.27-2.68,0-3.33.9-3.31,3.47.11,13,0,26.06,0,39.09C367.34,629.29,366.74,630.5,368,631.19Zm-25.61,0c3.56.69,7.16.1,10.73.35,1.9.13,2.17-.82,2.15-2.4-.09-10-.11-20-.16-30,.05-1.06.15-2.12.16-3.18.05-10.46,0-10.36-10.37-10.26-2.71,0-3.31.92-3.29,3.47.11,13,0,26.11.06,39.16C341.7,629.36,341.08,630.58,342.42,631.23Z" transform="translate(-116.03 -458.39)"/><path class="cls-8" d="M230.54,608.87c0,9.07,0,18.13,0,27.2,0,5.42-2,7.61-7.4,7.65q-24.19.13-48.39,0c-5.27,0-7.5-2.44-7.51-7.68q0-27.19,0-54.39c0-5.49,2.24-7.84,7.74-7.86q24-.12,48,0c5.58,0,7.55,2.18,7.57,7.9C230.57,590.74,230.54,599.81,230.54,608.87Zm-37.84-9.66c.05-1.05.14-2.11.14-3.17,0-10.38,0-10.31-10.27-10.24-2.52,0-3.42.58-3.39,3.31.14,13.13,0,26.27.07,39.4,0,.93-.64,2.18.76,2.77,3.58.09,7.17.11,10.74.3,1.95.11,2.12-.89,2.1-2.43C192.77,619.17,192.74,609.19,192.7,599.21Zm25.63,0c0-1.06.14-2.12.15-3.19.05-10.45.05-10.35-10.38-10.25-2.72,0-3.3.93-3.28,3.47.11,13.07,0,26.13.05,39.2,0,.94-.62,2.17.75,2.8,3.58.1,7.16.13,10.73.33,1.92.11,2.15-.84,2.14-2.41C218.4,619.19,218.37,609.2,218.33,599.22Z" transform="translate(-116.03 -458.39)"/><path class="cls-8" d="M411.06,608.71c0-9.07,0-18.13,0-27.2,0-5.6,2.07-7.71,7.74-7.73q23.79-.1,47.59,0c5.74,0,8,2.32,8,8q0,27,0,54c0,5.53-2.18,7.89-7.67,7.92q-24,.13-48,0c-5.63,0-7.62-2.16-7.64-7.82C411,626.84,411.06,617.77,411.06,608.71Zm37.84-9.5c0,10-.07,20-.15,29.94,0,1.54.15,2.54,2.1,2.43,3.57-.19,7.16-.21,10.74-.3,1.53-.9.75-2.38.75-3.56.06-10.48,0-21,0-31.45,0-10.89,0-10.83-10.89-10.46-2,.07-2.87.52-2.75,2.67C448.9,592.05,448.85,595.64,448.9,599.21Zm-12.92,32c1.5-.93.73-2.41.74-3.6.06-10.53,0-21.07,0-31.6,0-11,0-11-11.23-10.26-2,.13-2.48.85-2.41,2.64.13,3.6.13,7.19.18,10.79,0,10-.07,20-.16,29.95,0,1.57.22,2.52,2.14,2.41C428.82,631.38,432.4,631.35,436,631.25Z" transform="translate(-116.03 -458.39)"/><path class="cls-9" d="M280.22,547.37c-8.13,0-16.25,0-24.38,0-5.15,0-7.22-2.07-7.25-7.26q-.12-18,0-36c0-5.08,2.26-7.24,7.39-7.26q24.18-.08,48.36,0c5.23,0,7.56,2.37,7.58,7.6q.1,17.79,0,35.57c0,5.1-2.23,7.27-7.32,7.32C296.47,547.42,288.35,547.37,280.22,547.37Zm19-12.29c1.32-.45.71-1.57.72-2.36.05-4.52,0-9,0-13.56,0-10.87,0-10.83-11.06-10.33-1.81.09-2.66.44-2.57,2.43.17,3.72.14,7.44.19,11.16,0,3.55,0,7.11-.18,10.66-.07,1.74.53,2.32,2.25,2.24C292.08,535.15,295.63,535.15,299.18,535.08Zm-38.34-12.66c-.91,13.65-.64,13.91,12.74,12.63.21-.14.6-.27.6-.41,0-8,0-15.92.08-23.88,0-1.72-1-1.79-2.32-1.91-11.33-1-11.33-1-11.27,10.4C260.67,520.31,260.78,521.36,260.84,522.42Z" transform="translate(-116.03 -458.39)"/><path class="cls-9" d="M361.43,547.37c-8.12,0-16.25,0-24.37,0-5.12,0-7.35-2.2-7.38-7.27q-.1-18,0-36c0-4.77,2.41-7.21,7.13-7.24q24.57-.12,49.15,0c4.82,0,7,2.3,7.05,7.2q.12,18.18,0,36.37c0,4.87-2.19,6.87-7.19,6.91C377.69,547.42,369.56,547.37,361.43,547.37ZM368,535.05c3.56.08,7.11.1,10.66.26,1.7.08,2.36-.44,2.28-2.21-.16-3.56-.14-7.12-.2-10.68.06-1.06.17-2.11.17-3.17.06-10.65.05-10.58-10.47-10.43-2.41,0-3.22.66-3.16,3.13.15,6.37,0,12.74.07,19.11C367.39,532.37,366.52,533.94,368,535.05Zm-12.88-12.63c.05-1.06.15-2.12.15-3.18,0-10.91,0-10.85-10.91-10.42-2.09.09-2.75.68-2.72,2.76.1,7.31,0,14.62,0,21.94,0,.61-.18,1.36.74,1.56,3.55.07,7.1.07,10.65.24,1.72.08,2.32-.5,2.25-2.24C355.16,529.53,355.19,526,355.14,522.42Z" transform="translate(-116.03 -458.39)"/><path class="cls-9" d="M199,547.37c-8,0-16,0-24,0-5.71,0-7.8-2.06-7.82-7.62q-.06-17.58,0-35.17c0-5.45,2.31-7.7,7.85-7.71q24-.06,48,0c5.35,0,7.46,2.17,7.48,7.55q.07,17.79,0,35.57c0,5.39-2,7.34-7.51,7.37C215,547.41,207,547.37,199,547.37Zm6.59-12.28c3.55.07,7.1.06,10.64.23,1.74.08,2.31-.52,2.24-2.25-.15-3.55-.13-7.1-.18-10.65.05-3.73,0-7.45.19-11.17.09-2-.77-2.48-2.58-2.4a83.85,83.85,0,0,1-8.39,0c-2.13-.12-2.73.68-2.7,2.74.09,7.32,0,14.65,0,22C204.86,534.16,204.69,534.91,205.62,535.09ZM192.7,522.41c.05-3.59,0-7.19.18-10.78.08-2-.36-2.94-2.61-2.79a67,67,0,0,1-8.38,0c-2.17-.12-2.71.72-2.68,2.76.09,7.2,0,14.39,0,21.59,0,.69-.39,1.65.77,1.92,3.55.06,7.1,0,10.64.21,1.76.08,2.29-.56,2.22-2.26C192.72,529.51,192.75,526,192.7,522.41Z" transform="translate(-116.03 -458.39)"/><path class="cls-9" d="M442.73,547.37c-8.12,0-16.25,0-24.38,0-5.2,0-7.25-2.05-7.27-7.21q-.07-18,0-36c0-5.09,2.2-7.29,7.32-7.31q24.18-.09,48.35,0c5.27,0,7.59,2.34,7.61,7.55q.08,17.79,0,35.57c0,5.14-2.16,7.32-7.25,7.37C459,547.42,450.86,547.37,442.73,547.37Zm-19.45-25c0,3.55,0,7.1-.18,10.65-.07,1.73.5,2.33,2.24,2.25,3.54-.17,7.09-.16,10.64-.23,1.46-.58.72-1.83.73-2.74.08-4.39,0-8.79,0-13.18,0-11.36,0-11.3-11.45-10.35-1.83.16-2.21.84-2.17,2.43C423.21,515,423.23,518.69,423.28,522.42Zm38.31,12.69c1.49-.55.73-1.82.75-2.72.08-4.4,0-8.8,0-13.19,0-10.59,0-10.54-10.63-10.37-2.11,0-3.17.37-3,2.8.23,3.59.14,7.19.19,10.78s0,7.1-.17,10.65c-.07,1.7.46,2.34,2.22,2.26C454.49,535.15,458,535.17,461.59,535.11Z" transform="translate(-116.03 -458.39)"/><path class="cls-9" d="M423.41,682.94q21.18,0,42.36,0c6,0,6.94.64,9.19,6.26q5.44,13.66,10.86,27.33c2.69,6.84.21,10.74-7.06,10.47-3.79-.14-4.52,1.11-4.46,4.61.21,12.79.09,25.58.08,38.36,0,6.28-2.11,8.38-8.38,8.39H380.88c-6.34,0-8.31-2-8.33-8.35,0-13.18-.06-26.37,0-39.56,0-2.51-.52-3.78-3.29-3.37a12.63,12.63,0,0,1-3.58-.05c-4.7-.71-7.14-4.22-5.45-8.67,4.05-10.65,8.41-21.19,12.71-31.74,1.32-3.25,4.17-3.71,7.27-3.7Q401.84,683,423.41,682.94ZM384.84,740l0,25.56c.12.65.58.78,1.15.78,9.7,0,19.41-.06,29.11,0,2.46,0,2.4-1.32,2.39-3,0-11.17-.08-22.34,0-33.5,0-2-.4-2.84-2.61-2.82-9.31.11-18.61.08-27.92,0-1.64,0-2.43.36-2.34,2.19C384.8,732.85,384.79,736.44,384.84,740Zm44.85,0,0,25.57c.11.66.58.77,1.14.77,9.72,0,19.43-.07,29.15,0,2.46,0,2.4-1.27,2.39-3,0-11.18-.07-22.36,0-33.53,0-2-.33-2.85-2.58-2.82q-14,.18-27.95,0c-2.05,0-2.43.8-2.36,2.58C429.65,733.1,429.63,736.56,429.69,740Zm42.45-25c-2.42-6.12-4.69-11.62-6.76-17.18-.76-2-1.83-2.78-4.08-2.77q-37.93.13-75.87,0c-2.29,0-3.25.81-4,2.83-1.68,4.61-3.46,9.19-5.5,13.66-1.37,3-.41,3.53,2.51,3.51,15.84-.1,31.68,0,47.52,0Z" transform="translate(-116.03 -458.39)"/><path class="cls-9" d="M218.54,682.94c14.12,0,28.24.11,42.36-.06,4.51-.06,7.11,1.64,8.71,5.87,3.45,9.18,7.24,18.23,10.87,27.34,2.94,7.37.54,11.13-7.34,10.95-3.32-.08-4.22.84-4.17,4.17.21,12.92.11,25.84.08,38.77,0,6.42-2,8.39-8.28,8.39H175.65c-6.31,0-8.42-2.1-8.43-8.34,0-12.65-.14-25.31.09-38,.06-3.77-.54-5.83-4.82-5a6.69,6.69,0,0,1-2.76-.24c-4.29-1-6.22-4.22-4.63-8.37,4-10.53,8.24-21,12.44-31.42,1.33-3.32,4.09-4.15,7.44-4.14C189.5,683,204,682.94,218.54,682.94Zm-6.65,82.65q0-12.78,0-25.57c.06-3.32-.07-6.66.22-10,.22-2.65-.9-3-3.19-3q-13.17.18-26.35,0c-2.47,0-3.45.44-3.41,3.22q.24,16.37,0,32.73c-.05,3,1,3.46,3.65,3.41,8.65-.15,17.3,0,25.95-.1C209.79,766.31,211.14,767,211.89,765.59Zm44.84,0,0-25.56c.06-3.31-.05-6.65.23-9.95.22-2.61-.84-3.05-3.17-3q-13.15.18-26.32,0c-2.46,0-3.48.42-3.44,3.22q.24,16.35,0,32.7c-.05,2.93,1,3.49,3.65,3.44,8.64-.15,17.28,0,25.92-.09C254.63,766.32,256,767,256.73,765.58ZM169.43,715c31.95,0,63.23,0,94.51,0,2.07,0,3-.32,2-2.71-2.14-5-4.07-10.09-6-15.17-.62-1.64-1.63-2.07-3.32-2.07q-38.34.08-76.68,0c-1.32,0-2.55-.13-3.2,1.6C174.45,702.62,172,708.49,169.43,715Z" transform="translate(-116.03 -458.39)"/><path class="cls-10" d="M299.18,631.23c-3.56.69-7.16.1-10.73.35-1.9.13-2.17-.82-2.15-2.4.09-10,.11-20,.16-30,3.07,0,6.15.14,9.2-.08,2.9-.22,3.6,1,3.56,3.69C299.09,612.3,299.18,621.76,299.18,631.23Z" transform="translate(-116.03 -458.39)"/><path class="cls-10" d="M273.57,631.19c-3.55.78-7.15.12-10.72.38-1.85.14-2.21-.74-2.2-2.37.1-10,.13-20,.18-30,3.07,0,6.14.14,9.19-.08,2.87-.21,3.63.93,3.59,3.66C273.48,612.26,273.57,621.73,273.57,631.19Z" transform="translate(-116.03 -458.39)"/><path class="cls-11" d="M299.18,631.23c0-9.47-.09-18.93,0-28.4,0-2.71-.66-3.91-3.56-3.69-3.05.22-6.13.07-9.2.08,0-3.59,0-7.19-.18-10.77-.07-1.78.38-2.53,2.4-2.66,11.22-.73,11.22-.79,11.22,10.25,0,10.53.05,21.05,0,31.57C299.89,628.81,300.64,630.28,299.18,631.23Z" transform="translate(-116.03 -458.39)"/><path class="cls-11" d="M273.57,631.19c0-9.46-.09-18.93,0-28.39,0-2.73-.72-3.87-3.59-3.66-3,.22-6.12.07-9.19.08-.06-3.58,0-7.17-.21-10.75-.11-2.18.81-2.6,2.8-2.67,10.83-.39,10.83-.44,10.84,10.23,0,10.5.05,21,0,31.52C274.25,628.75,275,630.2,273.57,631.19Z" transform="translate(-116.03 -458.39)"/><path class="cls-10" d="M355.14,599.22c.05,10,.07,20,.16,30,0,1.58-.25,2.53-2.15,2.4-3.57-.25-7.17.34-10.73-.35,0-9.6.06-19.2,0-28.8,0-2.35.62-3.42,3.15-3.28C348.73,599.32,351.94,599.21,355.14,599.22Z" transform="translate(-116.03 -458.39)"/><path class="cls-10" d="M380.77,599.22c.05,10,.08,20,.18,30,0,1.63-.35,2.51-2.2,2.37-3.57-.26-7.17.4-10.72-.38,0-9.6.07-19.19,0-28.79,0-2.38.67-3.39,3.18-3.25C374.36,599.32,377.57,599.21,380.77,599.22Z" transform="translate(-116.03 -458.39)"/><path class="cls-11" d="M355.14,599.22c-3.2,0-6.41.1-9.6-.07-2.53-.14-3.17.93-3.15,3.28.09,9.6,0,19.2,0,28.8-1.34-.65-.72-1.87-.72-2.82,0-13,.05-26.11-.06-39.16,0-2.55.58-3.44,3.29-3.47,10.41-.1,10.42-.2,10.37,10.26C355.29,597.1,355.19,598.16,355.14,599.22Z" transform="translate(-116.03 -458.39)"/><path class="cls-11" d="M380.77,599.22c-3.2,0-6.41.1-9.59-.07-2.51-.14-3.2.87-3.18,3.25.1,9.6,0,19.19,0,28.79-1.29-.69-.69-1.9-.69-2.85,0-13,.06-26.06,0-39.09,0-2.57.63-3.43,3.31-3.47,10.39-.12,10.39-.22,10.34,10.27C380.93,597.11,380.83,598.16,380.77,599.22Z" transform="translate(-116.03 -458.39)"/><path class="cls-10" d="M218.33,599.22c0,10,.07,20,.16,29.95,0,1.57-.22,2.52-2.14,2.41-3.57-.2-7.15-.23-10.73-.33,0-9.52.09-19-.06-28.55-.05-2.82.92-3.73,3.65-3.56C212.24,599.34,215.29,599.21,218.33,599.22Z" transform="translate(-116.03 -458.39)"/><path class="cls-10" d="M192.7,599.21c0,10,.07,20,.15,29.94,0,1.54-.15,2.54-2.1,2.43-3.57-.19-7.16-.21-10.74-.3,0-9.52.09-19-.06-28.55,0-2.81.88-3.76,3.63-3.58C186.61,599.35,189.66,599.21,192.7,599.21Z" transform="translate(-116.03 -458.39)"/><path class="cls-11" d="M218.33,599.22c-3,0-6.09.12-9.12-.08-2.73-.17-3.7.74-3.65,3.56.15,9.52.06,19,.06,28.55-1.37-.63-.74-1.86-.75-2.8,0-13.07.06-26.13-.05-39.2,0-2.54.56-3.45,3.28-3.47,10.43-.1,10.43-.2,10.38,10.25C218.47,597.1,218.38,598.16,218.33,599.22Z" transform="translate(-116.03 -458.39)"/><path class="cls-12" d="M192.7,599.21c-3,0-6.09.14-9.12-.06-2.75-.18-3.68.77-3.63,3.58.15,9.51.06,19,.06,28.55-1.4-.59-.76-1.84-.76-2.77,0-13.13.07-26.27-.07-39.4,0-2.73.87-3.29,3.39-3.31,10.31-.07,10.32-.14,10.27,10.24C192.84,597.1,192.75,598.16,192.7,599.21Z" transform="translate(-116.03 -458.39)"/><path class="cls-10" d="M436,631.25c-3.58.1-7.16.13-10.73.33-1.92.11-2.15-.84-2.14-2.41.09-10,.12-20,.16-29.95,3,0,6.09.12,9.12-.08,2.73-.17,3.7.74,3.65,3.56C435.89,612.22,436,621.74,436,631.25Z" transform="translate(-116.03 -458.39)"/><path class="cls-10" d="M461.59,631.28c-3.58.09-7.17.11-10.74.3-2,.11-2.12-.89-2.1-2.43.08-10,.11-20,.15-29.94,3,0,6.09.14,9.12-.06,2.75-.18,3.68.77,3.63,3.58C461.5,612.24,461.59,621.76,461.59,631.28Z" transform="translate(-116.03 -458.39)"/><path class="cls-11" d="M436,631.25c0-9.51-.09-19,.06-28.55,0-2.82-.92-3.73-3.65-3.56-3,.2-6.08.07-9.12.08,0-3.6,0-7.19-.18-10.79-.07-1.79.4-2.51,2.41-2.64,11.22-.71,11.22-.77,11.23,10.26,0,10.53,0,21.07,0,31.6C436.71,628.84,437.48,630.32,436,631.25Z" transform="translate(-116.03 -458.39)"/><path class="cls-12" d="M461.59,631.28c0-9.52-.09-19,.06-28.55.05-2.81-.88-3.76-3.63-3.58-3,.2-6.08.06-9.12.06,0-3.57,0-7.16-.18-10.73-.12-2.15.74-2.6,2.75-2.67,10.88-.37,10.88-.43,10.89,10.46,0,10.48,0,21,0,31.45C462.34,628.9,463.12,630.38,461.59,631.28Z" transform="translate(-116.03 -458.39)"/><path class="cls-12" d="M260.84,522.42c-.06-1.06-.17-2.11-.17-3.17-.06-11.37-.06-11.35,11.27-10.4,1.32.12,2.33.19,2.32,1.91-.05,8,0,15.92-.08,23.88,0,.14-.39.27-.6.41,0-3.31-.1-6.62,0-9.93.07-2.1-.8-2.81-2.81-2.75C267.46,522.47,264.15,522.41,260.84,522.42Z" transform="translate(-116.03 -458.39)"/><path class="cls-12" d="M286.46,522.42c0-3.72,0-7.44-.19-11.16-.09-2,.76-2.34,2.57-2.43,11.05-.5,11.05-.54,11.06,10.33,0,4.52.05,9,0,13.56,0,.79.6,1.91-.72,2.36,0-3.31-.08-6.63,0-9.94.06-2.07-.76-2.84-2.8-2.77C293.09,522.47,289.78,522.41,286.46,522.42Z" transform="translate(-116.03 -458.39)"/><path class="cls-10" d="M286.46,522.42c3.32,0,6.63.05,9.94,0,2-.07,2.86.7,2.8,2.77-.1,3.31,0,6.63,0,9.94-3.55.07-7.1.07-10.65.24-1.72.08-2.32-.5-2.25-2.24C286.44,529.53,286.41,526,286.46,522.42Z" transform="translate(-116.03 -458.39)"/><path class="cls-10" d="M260.84,522.42c3.31,0,6.62.05,9.93,0,2-.06,2.88.65,2.81,2.75-.1,3.31,0,6.62,0,9.93C260.2,536.33,259.93,536.07,260.84,522.42Z" transform="translate(-116.03 -458.39)"/><path class="cls-12" d="M342.42,535.08c-.92-.2-.74-1-.74-1.56,0-7.32.08-14.63,0-21.94,0-2.08.63-2.67,2.72-2.76,11-.43,11-.49,10.91,10.42,0,1.06-.1,2.12-.15,3.18-3.32,0-6.63.05-9.94,0-2-.07-2.86.7-2.8,2.77C342.5,528.45,342.42,531.77,342.42,535.08Z" transform="translate(-116.03 -458.39)"/><path class="cls-12" d="M368,535.05c-1.5-1.11-.63-2.68-.65-4-.11-6.37.08-12.74-.07-19.11-.06-2.47.75-3.1,3.16-3.13,10.52-.15,10.53-.22,10.47,10.43,0,1.06-.11,2.11-.17,3.17-3.31,0-6.62.05-9.93,0-2-.06-2.88.65-2.81,2.75C368.12,528.43,368,531.74,368,535.05Z" transform="translate(-116.03 -458.39)"/><path class="cls-10" d="M368,535.05c0-3.31.1-6.62,0-9.93-.07-2.1.8-2.81,2.81-2.75,3.31.1,6.62,0,9.93,0,.06,3.56,0,7.12.2,10.68.08,1.77-.58,2.29-2.28,2.21C375.13,535.15,371.58,535.13,368,535.05Z" transform="translate(-116.03 -458.39)"/><path class="cls-10" d="M342.42,535.08c0-3.31.08-6.63,0-9.94-.06-2.07.76-2.84,2.8-2.77,3.31.1,6.62,0,9.94,0,.05,3.55,0,7.11.18,10.66.07,1.74-.53,2.32-2.25,2.24C349.52,535.15,346,535.15,342.42,535.08Z" transform="translate(-116.03 -458.39)"/><path class="cls-13" d="M180,535.11c-1.16-.27-.77-1.23-.77-1.92,0-7.2.06-14.39,0-21.59,0-2,.51-2.88,2.68-2.76a67,67,0,0,0,8.38,0c2.25-.15,2.69.83,2.61,2.79-.16,3.59-.13,7.19-.18,10.78-3.31,0-6.63.07-9.94,0-2.07-.06-2.84.76-2.78,2.8C180.08,528.48,180,531.8,180,535.11Z" transform="translate(-116.03 -458.39)"/><path class="cls-12" d="M205.62,535.09c-.93-.18-.76-.93-.76-1.54,0-7.32.07-14.65,0-22,0-2.06.57-2.86,2.7-2.74a83.85,83.85,0,0,0,8.39,0c1.81-.08,2.67.38,2.58,2.4-.17,3.72-.14,7.44-.19,11.17-3.31,0-6.62.05-9.93,0-2.06-.07-2.86.72-2.8,2.78C205.7,528.46,205.62,531.78,205.62,535.09Z" transform="translate(-116.03 -458.39)"/><path class="cls-10" d="M205.62,535.09c0-3.31.08-6.63,0-9.94-.06-2.06.74-2.85,2.8-2.78,3.31.1,6.62,0,9.93,0,.05,3.55,0,7.1.18,10.65.07,1.73-.5,2.33-2.24,2.25C212.72,535.15,209.17,535.16,205.62,535.09Z" transform="translate(-116.03 -458.39)"/><path class="cls-10" d="M180,535.11c0-3.31.07-6.63,0-9.94-.06-2,.71-2.86,2.78-2.8,3.31.11,6.63,0,9.94,0,.05,3.55,0,7.1.17,10.65.07,1.7-.46,2.34-2.22,2.26C187.11,535.15,183.56,535.17,180,535.11Z" transform="translate(-116.03 -458.39)"/><path class="cls-13" d="M448.9,522.41c0-3.59,0-7.19-.19-10.78-.16-2.43.9-2.76,3-2.8,10.63-.17,10.62-.22,10.63,10.37,0,4.39.07,8.79,0,13.19,0,.9.74,2.17-.75,2.72,0-3.31-.07-6.63,0-9.94.06-2-.71-2.86-2.78-2.8C455.53,522.48,452.21,522.41,448.9,522.41Z" transform="translate(-116.03 -458.39)"/><path class="cls-12" d="M423.28,522.42c0-3.73-.07-7.45-.18-11.17,0-1.59.34-2.27,2.17-2.43,11.45-.95,11.44-1,11.45,10.35,0,4.39.07,8.79,0,13.18,0,.91.73,2.16-.73,2.74,0-3.31-.08-6.63,0-9.94.06-2.06-.74-2.85-2.8-2.78C429.9,522.47,426.59,522.41,423.28,522.42Z" transform="translate(-116.03 -458.39)"/><path class="cls-10" d="M448.9,522.41c3.31,0,6.63.07,9.94,0,2.07-.06,2.84.76,2.78,2.8-.1,3.31,0,6.63,0,9.94-3.55.06-7.1,0-10.64.21-1.76.08-2.29-.56-2.22-2.26C448.88,529.51,448.85,526,448.9,522.41Z" transform="translate(-116.03 -458.39)"/><path class="cls-10" d="M423.28,522.42c3.31,0,6.62.05,9.93,0,2.06-.07,2.86.72,2.8,2.78-.11,3.31,0,6.63,0,9.94-3.55.07-7.1.06-10.64.23-1.74.08-2.31-.52-2.24-2.25C423.25,529.52,423.23,526,423.28,522.42Z" transform="translate(-116.03 -458.39)"/><path class="cls-14" d="M472.14,715H426c-15.84,0-31.68,0-47.52,0-2.92,0-3.88-.49-2.51-3.51,2-4.47,3.82-9,5.5-13.66.74-2,1.7-2.84,4-2.83q37.94.13,75.87,0c2.25,0,3.32.72,4.08,2.77C467.45,703.37,469.72,708.87,472.14,715Z" transform="translate(-116.03 -458.39)"/><path class="cls-10" d="M429.71,765.59q0-12.78,0-25.57c9.45,0,18.9.08,28.35-.08,2.82,0,3.69.9,3.61,3.66-.17,6-.21,12,0,18,.11,3.09-.74,4.17-4,4.1C448.35,765.45,439,765.59,429.71,765.59Z" transform="translate(-116.03 -458.39)"/><path class="cls-10" d="M384.87,765.58l0-25.56c9.46,0,18.92.08,28.37-.08,2.82,0,3.69.88,3.61,3.65-.17,6-.2,12,0,18,.11,3.09-.74,4.17-4,4.1C403.52,765.45,394.2,765.59,384.87,765.58Z" transform="translate(-116.03 -458.39)"/><path class="cls-13" d="M384.87,765.58c9.33,0,18.65-.13,28,.09,3.25.07,4.1-1,4-4.1-.21-6-.18-12,0-18,.08-2.77-.79-3.69-3.61-3.65-9.45.16-18.91.08-28.37.08,0-3.58,0-7.17-.2-10.75-.09-1.83.7-2.2,2.34-2.19,9.31.06,18.61.09,27.92,0,2.21,0,2.62.84,2.61,2.82-.07,11.16,0,22.33,0,33.5,0,1.71.07,3.06-2.39,3-9.7-.11-19.41,0-29.11,0C385.45,766.36,385,766.23,384.87,765.58Z" transform="translate(-116.03 -458.39)"/><path class="cls-15" d="M429.71,765.59c9.32,0,18.64-.14,28,.08,3.26.07,4.11-1,4-4.1-.22-6-.18-12,0-18,.08-2.76-.79-3.7-3.61-3.66-9.45.16-18.9.07-28.35.08-.06-3.46,0-6.92-.19-10.37-.07-1.78.31-2.6,2.36-2.58q14,.15,27.95,0c2.25,0,2.59.87,2.58,2.82-.07,11.17,0,22.35,0,33.53,0,1.73.07,3-2.39,3-9.72-.12-19.43-.06-29.15,0C430.29,766.36,429.82,766.25,429.71,765.59Z" transform="translate(-116.03 -458.39)"/><path class="cls-14" d="M169.43,715c2.61-6.5,5-12.37,7.28-18.29.65-1.73,1.88-1.6,3.2-1.6q38.34,0,76.68,0c1.69,0,2.7.43,3.32,2.07,1.93,5.08,3.86,10.17,6,15.17,1,2.39.1,2.71-2,2.71C232.66,715,201.38,715,169.43,715Z" transform="translate(-116.03 -458.39)"/><path class="cls-10" d="M256.76,740l0,25.56c-9.33,0-18.65-.13-28,.09-3.25.07-4.1-1-4-4.1.21-6,.18-12,0-18-.08-2.77.79-3.69,3.61-3.65C237.84,740.1,247.3,740,256.76,740Z" transform="translate(-116.03 -458.39)"/><path class="cls-10" d="M211.91,740q0,12.78,0,25.57c-9.32,0-18.64-.14-27.95.08-3.26.07-4.11-1-4-4.1.22-6,.18-12,0-18-.08-2.76.79-3.7,3.61-3.66C193,740.1,202.46,740,211.91,740Z" transform="translate(-116.03 -458.39)"/><path class="cls-13" d="M256.76,740c-9.46,0-18.92.08-28.37-.08-2.82,0-3.69.88-3.61,3.65.17,6,.2,12,0,18-.11,3.09.74,4.17,4,4.1,9.32-.22,18.64-.08,28-.09-.75,1.45-2.1.74-3.14.75-8.64.07-17.28-.06-25.92.09-2.66.05-3.7-.51-3.65-3.44q.28-16.35,0-32.7c0-2.8,1-3.26,3.44-3.22q13.16.18,26.32,0c2.33,0,3.39.4,3.17,3C256.71,733.37,256.82,736.71,256.76,740Z" transform="translate(-116.03 -458.39)"/><path class="cls-15" d="M211.91,740c-9.45,0-18.9.08-28.35-.08-2.82,0-3.69.9-3.61,3.66.17,6,.21,12,0,18-.11,3.09.74,4.17,4,4.1,9.31-.22,18.63-.08,27.95-.08-.75,1.45-2.1.72-3.14.73-8.65.07-17.3-.05-25.95.1-2.63.05-3.7-.43-3.65-3.41q.28-16.37,0-32.73c0-2.78.94-3.26,3.41-3.22q13.17.2,26.35,0c2.29,0,3.41.35,3.19,3C211.84,733.36,212,736.7,211.91,740Z" transform="translate(-116.03 -458.39)"/></svg>