<svg id="Layer_1" data-name="Layer 1" xmlns="http://www.w3.org/2000/svg" viewBox="0 0 384.12 384.13"><defs><style>.cls-1{fill:#120406;}.cls-2{fill:#c12145;}.cls-3{fill:#d15573;}.cls-4{fill:#e5ecf5;}.cls-5{fill:#fefefe;}.cls-6{fill:#cbd8ea;}</style></defs><title>out of stock </title><path class="cls-1" d="M373.5,460.5c1.75-4.15,1.4-8.66,2.16-13C387.3,381,423.68,332.93,484,303.1c29-14.32,60-19.5,92.21-18,83.72,4,157.71,65.32,175.95,147.06,15.43,69.09-1.78,129.82-51.07,180.62-29.15,30-65.23,47.74-106.75,54-1.85.27-3.7.53-5.55.74-5.83.65-5.83.64-6.84-5.13.14-2.79-.9-5.95,4-6.15,8.73-.36,17.25-2.32,25.67-4.56,11.05-2.94,22-6.25,32-11.94l-.06,0a1.74,1.74,0,0,0,1.77-.76c.92-.4,1.85-.75,2.74-1.19a168.1,168.1,0,0,0,54.48-42.64c36-42.9,49.8-92.39,41.15-147.54-6.71-42.83-27-78.91-60-107C637.19,301.2,583.67,288,524.26,301.25c-38.83,8.66-71,29.09-96.81,59.42C417.07,372.89,408.22,386.15,402,401a1.68,1.68,0,0,0-.76,1.75l0,0c-1.1.77-1.33,2.06-1.81,3.18a179,179,0,0,0-14.59,66A175.42,175.42,0,0,0,392,527.73q22.6,75.32,92.71,111.09a172.86,172.86,0,0,0,58.06,17.36c6.09.75,6.12.44,6.16,6.23a6.48,6.48,0,0,0-.54,2.15c.46,3.76-1.49,3.88-4.42,3.35-4.65-.84-9.4-1.17-14-2.08-33.67-6.61-63.8-20.71-89.71-43.3Q387,576.09,375.65,506.16c-.75-4.71-.52-9.58-2.15-14.16Z" transform="translate(-373.5 -284.87)"/><path class="cls-1" d="M559.5,669q0-3-.08-6c.37-5.27.37-5.27,5.88-5.26h.37c5.52,0,5.52,0,5.9,5.26,0,2-.05,4-.07,6Z" transform="translate(-373.5 -284.87)"/><path class="cls-2" d="M571.57,663c-.38-5.27-.38-5.27-5.9-5.26h-.37c-5.51,0-5.51,0-5.88,5.26-3.49,0-7,.1-10.45-.59,0-5.79-.07-5.48-6.16-6.23a172.86,172.86,0,0,1-58.06-17.36q-70-35.7-92.71-111.09A175.42,175.42,0,0,1,384.86,472a179,179,0,0,1,14.59-66c.48-1.12.71-2.41,1.81-3.18a7.79,7.79,0,0,1-.62,3.65,167.4,167.4,0,0,0-8.94,43.73c-1.62,24.54.5,48.79,8.32,72.31a187.91,187.91,0,0,0,90.74,107.65,177.23,177.23,0,0,0,72,20.72c19.55,1.34,39.12.41,58.25-4.66,7.56-2,15.06-4.23,22.59-6.36-10,5.69-21,9-32,11.94-8.42,2.24-16.94,4.2-25.67,4.56-4.85.2-3.81,3.36-4,6.15A58.87,58.87,0,0,1,571.57,663Z" transform="translate(-373.5 -284.87)"/><path class="cls-3" d="M643.56,639.78c-7.53,2.13-15,4.36-22.59,6.36-19.13,5.07-38.7,6-58.25,4.66a177.23,177.23,0,0,1-72-20.72A187.91,187.91,0,0,1,400,522.43c-7.82-23.52-9.94-47.77-8.32-72.31a167.4,167.4,0,0,1,8.94-43.73,7.79,7.79,0,0,0,.62-3.65l0,0c.79-.35.81-1,.76-1.75,6.22-14.87,15.07-28.13,25.45-40.35,25.78-30.33,58-50.76,96.81-59.42,59.41-13.24,112.93-.05,159.34,39.39,33.08,28.12,53.33,64.2,60,107,8.65,55.15-5.12,104.64-41.15,147.54A168.1,168.1,0,0,1,648,637.85c-.89.44-1.82.79-2.74,1.19-.72-.06-1.42,0-1.77.76Zm56.87-190.72-10.93,0c-.24-5.84-.24-5.84-6-5.84q-135.51,0-271-.08c-3.6,0-4.83.61-4.78,4.57q.36,29.24,0,58.48c-.05,3.88,1.05,4.62,4.73,4.62q153.13-.16,306.26-.09a18.58,18.58,0,0,1,2.24,0c1.86.21,2.32-.67,2.32-2.4q-.06-31.29,0-62.6c0-1.94-.58-2.61-2.55-2.56-4.75.12-9.5,0-14.25,0C700.68,443.25,700.68,443.25,700.43,449.06Zm-50.28-44.4c0-2.63.05-4.51,0-6.38-.35-11.92-9.36-21.88-20.37-22.52-13.17-.78-23,7.21-24.74,20.13a69,69,0,0,0-.16,14.58c1,11.68,9.3,20.37,20.25,21.46A22.72,22.72,0,0,0,649,416.12C650.29,412.12,650.22,408,650.15,404.66ZM548.84,550.14c0,2.34-.09,4.59,0,6.83.54,11.12,9.36,20.53,19.88,21.27,12.26.86,22.12-6.23,24.59-17.67,1.26-5.81.76-11.71.51-17.53a22.52,22.52,0,0,0-16.29-20.23A22.8,22.8,0,0,0,553,531.3C548.78,537,548.49,543.55,548.84,550.14ZM475.47,404.67c0-2.72,0-4.84,0-7a22.5,22.5,0,0,0-22-22c-12.67-.17-22.61,9-23.08,21.5-.17,4.48-.16,9,0,13.47A22.39,22.39,0,0,0,450.74,432a22.75,22.75,0,0,0,24.06-17.09C475.68,411.27,475.36,407.68,475.47,404.67ZM460.23,578.33v0c3.38,0,6.75.09,10.12,0a16.95,16.95,0,0,0,2.85-33.53,46.37,46.37,0,0,0-7.47-.29c-4.63-.09-6.84-1.89-6.82-5.6s2.23-5.43,6.93-5.46c6,0,12,0,18,0,1.22,0,3.13.6,2.87-1.71-.36-3.2,1.19-6.59-1-9.57-.14-.19-.72-.08-1.09-.08-7.37,0-14.75-.22-22.11.09a15.8,15.8,0,0,0-14.83,14.34c-.86,9.24,3.54,16.25,11.53,18.62,3.2,1,6.43.6,9.66.7,4.09.14,6.5,2.28,6.42,5.74s-2.47,5.51-6.59,5.53c-6.25,0-12.49,0-18.74,0-1,0-2.66-.6-2.78,1a64.84,64.84,0,0,0,0,9.35c.09,1.31,1.58.89,2.5.9C453.24,578.36,456.73,578.33,460.23,578.33Zm195.28-28.17V570c0,9,0,8.91,9.08,8.36,1.84-.11,2.32-.73,2.29-2.44-.09-4-.12-8,0-12,.06-2.16-1-5.69.59-6.18,2.41-.73,4.49,2,6.3,3.89a14.63,14.63,0,0,1,1.57,2.09c2.4,3.59,2.86,7.62,2.69,11.81,0,1.3-.4,3.1,1.82,2.78,3.15-.44,6.57,1.36,9.45-1.14.13-.11,0-.48.06-.73.6-9.16-1.69-17.37-8.48-23.83-1.94-1.85-2.45-2.62-.18-4.72a26.53,26.53,0,0,0,8.65-19.62c.12-6.31.2-6.31-6.19-6.31-5.1,0-5.13,0-5.14,5.1a16.84,16.84,0,0,1-8.59,15.18c-1.75,1.08-2.69,1-2.62-1.44.11-3.62,0-7.24,0-10.86,0-8.13,0-8-8.28-8-2.46,0-3.15.69-3.11,3.13C655.6,533.43,655.51,541.8,655.51,550.16ZM486.66,394.8h0c0,5-.09,10,0,15a22.52,22.52,0,0,0,45-.52c0-8.62,0-17.23,0-25.85,0-7.8,0-7.63-7.75-7.83-3.11-.08-3.65,1-3.61,3.8.16,9.74.13,19.48,0,29.22-.07,6.83-5.12,12-11.34,12S498,415.31,498,408.44c0-8.11,0-16.23,0-24.34,0-8.72,0-8.61-8.58-8.51-2.5,0-2.83,1-2.79,3.1C486.73,384.06,486.66,389.43,486.66,394.8ZM635.79,578.33c2.13,0,4.25,0,6.38,0,.8,0,2,.3,2.06-1,.09-3.12.09-6.25,0-9.37-.05-1.27-1.29-.91-2.09-.92-3.25,0-6.5,0-9.75,0-8-.2-15.08-6.6-15.89-14.25-1-9.07,4.09-16.7,12.38-18.82,3.21-.82,6.45-.63,9.69-.64,5.8,0,5.8,0,5.8-5.61s0-5.7-5.69-5.69c-2.13,0-4.25,0-6.37,0-18,.22-31.36,18.12-26.47,35.39C609.59,570.74,620.44,578.32,635.79,578.33ZM571.32,409.45V395.6c0-8.62,0-8.62,8.77-8.62,8,0,7.85,0,8-7.93.06-2.94-.91-3.47-3.59-3.44-11.1.15-22.21.06-33.32.06-8.62,0-8.56,0-8.26,8.77.06,1.9.49,2.67,2.52,2.58,3.48-.15,7,.2,10.47-.11,3.27-.29,3.87,1,3.82,4-.18,10.85-.07,21.71-.07,32.57,0,8.87,0,8.8,8.9,8.59,2.1-.05,2.83-.62,2.79-2.76C571.24,422.68,571.32,416.06,571.32,409.45ZM514.6,555.93v14.22c0,8.35,0,8.25,8.49,8.24,2.46,0,3.21-.69,3.18-3.15-.12-11.1,0-22.21,0-33.31,0-8.56,0-8.56,8.54-8.56s8.29,0,8.31-8.39c0-2.56-.86-3.05-3.19-3-11.23.11-22.46,0-33.69,0-8.93,0-8.88,0-8.33,9.07.1,1.81.67,2.36,2.41,2.32,3.87-.09,7.74.08,11.6-.06,2.13-.08,2.81.63,2.77,2.76C514.53,542.7,514.6,549.31,514.6,555.93ZM661.23,403.68q0,12.75,0,25.5c0,1.31-.36,3.08,1.87,2.78,3.16-.43,6.62,1.32,9.46-1.15.38-.33.11-1.44.11-2.19V417.37c0-7.82,0-7.82,7.64-7.87.62,0,1.25,0,1.87,0,1.29.07,1.61-.57,1.78-1.79,1.18-8.73.63-9.43-7.94-9.52-.62,0-1.25,0-1.87,0s-1.35-.14-1.37-.93c0-3.12-.17-6.25.05-9.36.09-1.36,1.6-.84,2.49-.85,3.87-.06,7.75,0,11.62,0,8.48,0,8.38,0,8.31-8.43,0-2.33-.69-3-3-2.94-9.37.11-18.75.15-28.12,0-2.72-.05-3,1.12-3,3.33C661.28,387.18,661.23,395.43,661.23,403.68ZM559.68,336.75V345c0,8.39,0,8.26,8.47,8.31,2.82,0,3.27-1.07,3.22-3.51-.13-7,0-14,0-21,0-8.88,0-8.78-8.85-8.65-2.47,0-2.89,1-2.83,3.1C559.76,327.77,559.68,332.26,559.68,336.75Zm0,280.55v8.22c0,8.64,0,8.51,8.68,8.45,2.68,0,3-1.11,3-3.34-.1-7.09,0-14.19,0-21.29,0-8.69,0-8.61-8.68-8.46-2.24,0-3.08.65-3,3C559.76,608.33,559.66,612.82,559.65,617.3Zm32.28-261.79c2.91.62,2.47-1.88,2.72-3.53,1-6.75,1.87-13.54,2.91-20.3,1.36-8.86,1.41-8.82-7.61-9.82-1.76-.19-2.66.05-2.94,2.13-1.26,9.49-2.69,18.95-4.1,28.41-.22,1.49.45,2.06,1.77,2.22ZM540,633.11c1.8.3,2.75-.13,3-2.21.9-7.28,2.1-14.51,3-21.79,1-8.3.86-8.27-7.4-9.61-1.95-.32-2.84-.13-3.13,2.21-1,8.26-2.33,16.49-3.53,24.73-.74,5.13-.73,5.13,4.43,6.06Zm49.37-.77,7.21-1c1.3-.17,2-.7,1.82-2.19-1.42-9.59-2.79-19.18-4.21-28.76-.11-.79,0-2-1.31-1.82-3.08.4-6.15.88-9.21,1.42-1.29.22-.88,1.34-.77,2.12,1.28,9.23,2.6,18.46,3.89,27.68C587,631.69,587.74,632.89,589.36,632.34ZM531.55,324.28c1.13,7.89,2.27,15,3.16,22.18,1.06,8.48.95,8.39,9.11,7.54,2.63-.27,3.36-1.26,3-3.8-1.1-7-2.12-14-3-21.06-1.07-8.75-1-8.73-9.63-7.27C532.25,322.2,531.07,322.83,531.55,324.28Zm56.48,74c-6.5.1-5.74-.85-5.79,4.48-.06,6.77,0,6.77,4.61,6.77,6.92,0,6.92,0,6.92-4.85C593.77,398.25,593.77,398.25,588,398.25Z" transform="translate(-373.5 -284.87)"/><path class="cls-2" d="M402,401c.05.72,0,1.4-.76,1.75A1.68,1.68,0,0,1,402,401Z" transform="translate(-373.5 -284.87)"/><path class="cls-2" d="M643.5,639.8c.35-.81,1-.82,1.77-.76A1.74,1.74,0,0,1,643.5,639.8Z" transform="translate(-373.5 -284.87)"/><path class="cls-4" d="M689.5,449.08l10.93,0c.29,5.46.29,5.46,5.91,5.46,1.12,0,2.25.08,3.36,0,1.55-.14,2.19.33,2.17,2-.12,10.56-.14,21.13-.19,31.7H434.58c-.5,0-1,0-1.5,0-2,.19-2.66-.74-2.6-2.64.09-2.87,0-5.75,0-8.62,3,0,5.94-.05,8.9,0,1.79,0,2.66-.85,2.28-2.47-.67-2.9,1.82-6.37-1.56-8.71-.43-.29-1.21-.08-1.83-.08h-7.79V454.65c1.49,0,3-.12,4.49-.12H683.54C689.15,454.52,689.15,454.52,689.5,449.08ZM458.45,477c6.17-.07,5.82.79,5.79-5,0-6.73.87-6.28-4.88-6.26-7,0-6.36-.88-6.34,5.16C453,477.66,452.19,476.94,458.45,477Z" transform="translate(-373.5 -284.87)"/><path class="cls-1" d="M711.68,488.24c.05-10.57.07-21.14.19-31.7,0-1.71-.62-2.18-2.17-2-1.11.1-2.24,0-3.36,0-5.62,0-5.62,0-5.91-5.46.25-5.81.25-5.81,6-5.81,4.75,0,9.5.08,14.25,0,2,0,2.55.62,2.55,2.56q-.09,31.31,0,62.6c0,1.73-.46,2.61-2.32,2.4a18.58,18.58,0,0,0-2.24,0q-153.13,0-306.26.09c-3.68,0-4.78-.74-4.73-4.62q.35-29.24,0-58.48c-.05-4,1.18-4.58,4.78-4.57q135.51.15,271,.08c5.77,0,5.77,0,6,5.83-.35,5.44-.35,5.44-6,5.44H435c-1.5,0-3,.08-4.49.12-2.5,0-5,.11-7.48-.17-3-.34-4,.5-3.94,3.75q.33,18.54,0,37.08c-.06,3.39.81,4.25,4.23,4.25q139-.17,278-.12c3.45,0,8.32,1.57,10-.68S711.67,491.84,711.68,488.24Z" transform="translate(-373.5 -284.87)"/><path class="cls-1" d="M650.15,404.66c.07,3.35.14,7.46-1.11,11.46a22.72,22.72,0,0,1-23.91,15.81c-11-1.09-19.3-9.78-20.25-21.46a69,69,0,0,1,.16-14.58c1.71-12.92,11.57-20.91,24.74-20.13,11,.64,20,10.6,20.37,22.52C650.2,400.15,650.15,402,650.15,404.66Zm-33.74-.76c0,2.13-.09,4.25,0,6.37a11.09,11.09,0,0,0,10.67,10.47,10.88,10.88,0,0,0,11.26-9.8,100.44,100.44,0,0,0,0-14.2A10.85,10.85,0,0,0,627,387a11.09,11.09,0,0,0-10.61,10.53C616.33,399.66,616.4,401.78,616.41,403.9Z" transform="translate(-373.5 -284.87)"/><path class="cls-1" d="M548.84,550.14c-.35-6.59-.06-13.12,4.15-18.84a22.8,22.8,0,0,1,24.56-8.49A22.52,22.52,0,0,1,593.84,543c.25,5.82.75,11.72-.51,17.53C590.86,572,581,579.1,568.74,578.24c-10.52-.74-19.34-10.15-19.88-21.27C548.75,554.73,548.84,552.48,548.84,550.14Zm33.77.19c-.19-2.61.21-5.22-.39-7.83-1.27-5.6-6.24-9.6-11.55-9.17a11.21,11.21,0,0,0-10.45,11.17c-.07,3.87-.08,7.74,0,11.61a11.08,11.08,0,0,0,21.95,2C582.79,555.55,582.44,552.94,582.61,550.33Z" transform="translate(-373.5 -284.87)"/><path class="cls-1" d="M475.47,404.67c-.11,3,.21,6.6-.67,10.19A22.75,22.75,0,0,1,450.74,432a22.39,22.39,0,0,1-20.32-21.27c-.17-4.49-.18-9,0-13.47.47-12.48,10.41-21.67,23.08-21.5a22.5,22.5,0,0,1,22,22C475.52,399.83,475.47,402,475.47,404.67Zm-33.74-1c0,2.12-.07,4.24,0,6.36a11.31,11.31,0,0,0,9.77,10.68c5,.69,10.68-2.71,11.86-7.71a39.87,39.87,0,0,0,0-18.18c-1.16-5-6.76-8.39-11.81-7.77a11.3,11.3,0,0,0-9.83,10.62C441.66,399.66,441.73,401.66,441.73,403.66Z" transform="translate(-373.5 -284.87)"/><path class="cls-1" d="M460.23,578.33c-3.5,0-7,0-10.49,0-.92,0-2.41.41-2.5-.9a64.84,64.84,0,0,1,0-9.35c.12-1.61,1.78-1,2.78-1,6.25,0,12.49,0,18.74,0,4.12,0,6.51-2.06,6.59-5.53s-2.33-5.6-6.42-5.74c-3.23-.1-6.46.26-9.66-.7-8-2.37-12.39-9.38-11.53-18.62a15.8,15.8,0,0,1,14.83-14.34c7.36-.31,14.74-.08,22.11-.09.37,0,1-.11,1.09.08,2.15,3,.6,6.37,1,9.57.26,2.31-1.65,1.7-2.87,1.71-6,0-12,0-18,0-4.7,0-6.9,1.79-6.93,5.46s2.19,5.51,6.82,5.6a46.37,46.37,0,0,1,7.47.29,16.95,16.95,0,0,1-2.85,33.53c-3.37.1-6.74,0-10.12,0Z" transform="translate(-373.5 -284.87)"/><path class="cls-1" d="M655.51,550.16c0-8.36.09-16.73,0-25.1,0-2.44.65-3.13,3.11-3.13,8.28,0,8.28-.09,8.28,8,0,3.62.08,7.24,0,10.86-.07,2.44.87,2.52,2.62,1.44A16.84,16.84,0,0,0,678,527.09c0-5.09,0-5.09,5.14-5.1,6.39,0,6.31,0,6.19,6.31a26.53,26.53,0,0,1-8.65,19.62c-2.27,2.1-1.76,2.87.18,4.72,6.79,6.46,9.08,14.67,8.48,23.83,0,.25.07.62-.06.73-2.88,2.5-6.3.7-9.45,1.14-2.22.32-1.87-1.48-1.82-2.78.17-4.19-.29-8.22-2.69-11.81a14.63,14.63,0,0,0-1.57-2.09c-1.81-1.86-3.89-4.62-6.3-3.89-1.62.49-.53,4-.59,6.18-.13,4-.1,8,0,12,0,1.71-.45,2.33-2.29,2.44-9.08.55-9.08.61-9.08-8.36Z" transform="translate(-373.5 -284.87)"/><path class="cls-1" d="M486.66,394.8c0-5.37.07-10.74,0-16.11,0-2.1.29-3.07,2.79-3.1,8.58-.1,8.58-.21,8.58,8.51,0,8.11,0,16.23,0,24.34,0,6.87,4.79,12.05,11.09,12.12s11.27-5.13,11.34-12c.09-9.74.12-19.48,0-29.22,0-2.79.5-3.88,3.61-3.8,7.75.2,7.75,0,7.75,7.83,0,8.62,0,17.23,0,25.85a22.52,22.52,0,0,1-45,.52c-.11-5,0-10,0-15Z" transform="translate(-373.5 -284.87)"/><path class="cls-1" d="M635.79,578.33c-15.35,0-26.2-7.59-30-20.93-4.89-17.27,8.49-35.17,26.47-35.39,2.12,0,4.24,0,6.37,0,5.69,0,5.69,0,5.69,5.69s0,5.58-5.8,5.61c-3.24,0-6.48-.18-9.69.64-8.29,2.12-13.36,9.75-12.38,18.82.81,7.65,7.92,14,15.89,14.25,3.25.08,6.5,0,9.75,0,.8,0,2-.35,2.09.92.13,3.12.13,6.25,0,9.37,0,1.28-1.26,1-2.06,1C640,578.36,637.92,578.33,635.79,578.33Z" transform="translate(-373.5 -284.87)"/><path class="cls-1" d="M571.32,409.45c0,6.61-.08,13.23,0,19.84,0,2.14-.69,2.71-2.79,2.76-8.9.21-8.9.28-8.9-8.59,0-10.86-.11-21.72.07-32.57,0-3-.55-4.27-3.82-4-3.47.31-7,0-10.47.11-2,.09-2.46-.68-2.52-2.58-.3-8.77-.36-8.77,8.26-8.77,11.11,0,22.22.09,33.32-.06,2.68,0,3.65.5,3.59,3.44-.16,7.93,0,7.93-8,7.93-8.77,0-8.77,0-8.77,8.62Z" transform="translate(-373.5 -284.87)"/><path class="cls-1" d="M514.6,555.93c0-6.62-.07-13.23,0-19.84,0-2.13-.64-2.84-2.77-2.76-3.86.14-7.73,0-11.6.06-1.74,0-2.31-.51-2.41-2.32-.55-9.08-.6-9.07,8.33-9.07,11.23,0,22.46.06,33.69,0,2.33,0,3.2.47,3.19,3,0,8.39.1,8.39-8.31,8.39s-8.54,0-8.54,8.56c0,11.1-.07,22.21,0,33.31,0,2.46-.72,3.15-3.18,3.15-8.49,0-8.49.11-8.49-8.24Z" transform="translate(-373.5 -284.87)"/><path class="cls-1" d="M661.23,403.68c0-8.25,0-16.5,0-24.74,0-2.21.26-3.38,3-3.33,9.37.17,18.75.13,28.12,0,2.28,0,3,.61,3,2.94.07,8.43.17,8.43-8.31,8.43-3.87,0-7.75,0-11.62,0-.89,0-2.4-.51-2.49.85-.22,3.11-.09,6.24-.05,9.36,0,.79.72.91,1.37.93s1.25,0,1.87,0c8.57.09,9.12.79,7.94,9.52-.17,1.22-.49,1.86-1.78,1.79-.62,0-1.25,0-1.87,0-7.64.05-7.64.05-7.64,7.87v11.25c0,.75.27,1.86-.11,2.19-2.84,2.47-6.3.72-9.46,1.15-2.23.3-1.87-1.47-1.87-2.78Q661.21,416.43,661.23,403.68Z" transform="translate(-373.5 -284.87)"/><path class="cls-1" d="M559.68,336.75c0-4.49.08-9,0-13.47-.06-2.13.36-3.06,2.83-3.1,8.85-.13,8.85-.23,8.85,8.65,0,7-.08,14,0,21,0,2.44-.4,3.52-3.22,3.51-8.47-.05-8.47.08-8.47-8.31Z" transform="translate(-373.5 -284.87)"/><path class="cls-1" d="M559.65,617.3c0-4.48.11-9,0-13.45-.08-2.32.76-2.93,3-3,8.69-.15,8.68-.23,8.68,8.46,0,7.1-.06,14.2,0,21.29,0,2.23-.32,3.32-3,3.34-8.68.06-8.68.19-8.68-8.45Z" transform="translate(-373.5 -284.87)"/><path class="cls-1" d="M591.93,355.51l-7.25-.89c-1.32-.16-2-.73-1.77-2.22,1.41-9.46,2.84-18.92,4.1-28.41.28-2.08,1.18-2.32,2.94-2.13,9,1,9,1,7.61,9.82-1,6.76-1.88,13.55-2.91,20.3C594.4,353.63,594.84,356.13,591.93,355.51Z" transform="translate(-373.5 -284.87)"/><path class="cls-1" d="M540,633.11l-3.67-.61c-5.16-.93-5.17-.93-4.43-6.06,1.2-8.24,2.52-16.47,3.53-24.73.29-2.34,1.18-2.53,3.13-2.21,8.26,1.34,8.37,1.31,7.4,9.61-.86,7.28-2.06,14.51-3,21.79C542.74,633,541.79,633.41,540,633.11Z" transform="translate(-373.5 -284.87)"/><path class="cls-1" d="M589.36,632.34c-1.62.55-2.32-.65-2.58-2.54-1.29-9.22-2.61-18.45-3.89-27.68-.11-.78-.52-1.9.77-2.12,3.06-.54,6.13-1,9.21-1.42,1.31-.17,1.2,1,1.31,1.82,1.42,9.58,2.79,19.17,4.21,28.76.22,1.49-.52,2-1.82,2.19Z" transform="translate(-373.5 -284.87)"/><path class="cls-1" d="M531.55,324.28c-.48-1.45.7-2.08,2.61-2.41,8.65-1.46,8.56-1.48,9.63,7.27.87,7,1.89,14.06,3,21.06.4,2.54-.33,3.53-3,3.8-8.16.85-8.05.94-9.11-7.54C533.82,339.3,532.68,332.17,531.55,324.28Z" transform="translate(-373.5 -284.87)"/><path class="cls-5" d="M588,398.25c5.74,0,5.74,0,5.74,6.4,0,4.86,0,4.86-6.92,4.85-4.63,0-4.67,0-4.61-6.77C582.29,397.4,581.53,398.35,588,398.25Z" transform="translate(-373.5 -284.87)"/><path class="cls-6" d="M711.68,488.24c0,3.6,1.3,8.17-.42,10.52s-6.52.68-10,.68q-139,.06-278,.12c-3.42,0-4.29-.86-4.23-4.25q.33-18.53,0-37.08c-.06-3.25.93-4.09,3.94-3.75,2.47.28,5,.13,7.48.17V477c0,2.87.05,5.75,0,8.62-.06,1.9.63,2.83,2.6,2.64.5,0,1,0,1.5,0Z" transform="translate(-373.5 -284.87)"/><path class="cls-5" d="M430.52,477V465.76h7.79c.62,0,1.4-.21,1.83.08,3.38,2.34.89,5.81,1.56,8.71.38,1.62-.49,2.51-2.28,2.47C436.46,476.94,433.49,477,430.52,477Z" transform="translate(-373.5 -284.87)"/><path class="cls-5" d="M458.45,477c-6.26-.06-5.42.66-5.43-6.08,0-6-.62-5.13,6.34-5.16,5.75,0,4.84-.47,4.88,6.26C464.27,477.79,464.62,476.93,458.45,477Z" transform="translate(-373.5 -284.87)"/><path class="cls-3" d="M616.4,403.9c0-2.12-.07-4.24,0-6.36A11.09,11.09,0,0,1,627,387a10.85,10.85,0,0,1,11.31,9.73,100.44,100.44,0,0,1,0,14.2,10.88,10.88,0,0,1-11.26,9.8,11.09,11.09,0,0,1-10.67-10.47C616.32,408.15,616.41,406,616.4,403.9Z" transform="translate(-373.5 -284.87)"/><path class="cls-3" d="M582.6,550.33c-.16,2.61.19,5.22-.43,7.83a11.08,11.08,0,0,1-21.95-2c-.08-3.87-.07-7.74,0-11.61a11.21,11.21,0,0,1,10.45-11.17c5.31-.43,10.28,3.57,11.55,9.17C582.82,545.11,582.42,547.72,582.6,550.33Z" transform="translate(-373.5 -284.87)"/><path class="cls-3" d="M441.73,403.66c0-2-.07-4,0-6A11.3,11.3,0,0,1,451.57,387c5.05-.62,10.65,2.76,11.81,7.77a39.87,39.87,0,0,1,0,18.18c-1.18,5-6.89,8.4-11.86,7.71A11.31,11.31,0,0,1,441.74,410C441.66,407.9,441.73,405.78,441.73,403.66Z" transform="translate(-373.5 -284.87)"/></svg>