<svg id="Layer_1" data-name="Layer 1" xmlns="http://www.w3.org/2000/svg" viewBox="0 0 483.84 418.77"><defs><style>.cls-1{fill:#e4f5fa;}.cls-2{fill:#17120f;}.cls-3{fill:#eeeded;}.cls-4{fill:#f05f41;}.cls-5{fill:#eebf21;}.cls-6{fill:#aeaeaf;}.cls-7{fill:#ed5d40;}.cls-8{fill:#afafaf;}.cls-9{fill:#adadad;}.cls-10{fill:#878686;}.cls-11{fill:#fbc8c0;}.cls-12{fill:#f7e4ab;}.cls-13{fill:#181302;}.cls-14{fill:#120f01;}.cls-15{fill:#0d0b01;}</style></defs><title>Password</title><path class="cls-1" d="M432.48,177.84s151.64-7.68,224.88-7.68c97,0,152.4,140.4,152.4,157.27,0,55.85-16.32,126.12-31.68,165.29-4.8,12.24-62.78,57.36-66.24,57.36l-333.66,3.54a6.27,6.27,0,0,1-6.27-6.27s-46-224.42-46-300.39C325.92,199,429,177.84,432.48,177.84Z" transform="translate(-325.92 -170.16)"/><path class="cls-2" d="M483.34,263.9c-1.32-3.27,0-5.15,3.08-6.4,7.45-3.06,15.15-5,23.24-4.88,11.22.21,22.5-1,33.67.83a61.66,61.66,0,0,1,50.41,48c.63,2.92,1.79,3.14,4.16,3.14q43.11-.09,86.23,0c12.65,0,20.61,7.82,20.62,20.5q.06,96.17.06,192.33c0,12.5-9,20.71-20.56,20.64-43-.25-86-.06-129-.16-3.41,0-4.39.4-3.48,4.21,3.2,13.44,5.92,27,8.84,40.48,1,4.72-.16,6.36-4.9,6.36q-33.74,0-67.48,0c-4.55,0-5.94-1.71-5-6,3-13.86,5.86-27.75,9.08-41.56.73-3.13,0-3.48-2.84-3.48q-64.49.12-129,.07c-4,0-8-.27-11.55-2.4-6.93-4.09-9.75-10.34-9.74-18.15q0-42.74,0-85.47c0-35.12.24-70.24-.11-105.35-.15-14.57,9.71-22.41,22.23-22.19,28.23.48,56.48.12,84.72.2,2.66,0,3.72-.5,4.29-3.46a57.84,57.84,0,0,1,9.43-21.77c1.79-2.6,3.86-3.39,6.65-1.69,1.45,2.34.87,4.35-.63,6.52-5.1,7.41-8.43,15.62-9,24.6-.93,15-.2,30-.42,45,0,2,.69,2.53,2.6,2.49,5-.12,10-.2,15,0,2.86.13,3.78-.58,3.74-3.63-.17-13.12-.19-26.24,0-39.35.23-15.32,11.94-28.77,27.06-31.33,8.8-1.49,17.69-.37,26.54-.69a33.71,33.71,0,0,1,35.07,35c-.45,12.35,0,24.73-.14,37.09,0,2.34.63,3,2.93,2.91,5.12-.17,10.25-.15,15.37,0,2.19.06,3.06-.4,3-2.83-.2-14.49.16-29-.4-43.47-.92-23.67-21.08-45.48-44.54-49-10.33-1.53-20.7-.42-31-.77a48.92,48.92,0,0,0-22.14,4.41C487.16,265.68,485.21,265.66,483.34,263.9ZM546,552l-2.37-12c-.32-1.62-1.29-2.14-2.93-2.13q-18.67.09-37.36,0c-1.64,0-2.62.5-2.94,2.12q-1.17,6-2.36,12-3,13.46-6,26.9c-.37,1.67,0,2.41,1.95,2.4q28.07-.09,56.12,0c2,0,2.32-.73,2-2.4Q549,565.47,546,552ZM436.46,511.6c.89-3.28,3.24-3.87,6.33-3.87q61.68.11,123.35,0c34.87,0,69.74,0,104.61.06,2.94,0,3.8-.74,3.73-3.71-.19-8.87-.07-17.74-.07-26.62q0-69.36,0-138.73c0-2,.78-4.21-2.86-4.19-24.49.13-49,.09-73.49,0-2.12,0-2.84.66-2.8,2.79.12,5.24.17,10.5,0,15.74-.09,2.59.9,3.15,3.25,3.08,5-.14,10,.29,15-.11,8.64-.7,13.84,5.09,13.76,13.63-.31,34.24-.13,68.49-.13,102.73,0,10.06-4,14.09-14,14.09H477.33c-16,0-32,0-48,0-7.61,0-12.42-4.59-12.42-11.92q-.06-53.43,0-106.86c0-7.12,4.6-11.52,11.83-11.57,5.74,0,11.5-.1,17.24,0,2.17,0,2.81-.7,2.76-2.8-.12-4.87-.23-9.75,0-14.62.16-3.17-.59-4.26-4-4.24q-35.62.26-71.24,0c-3.09,0-4,.78-4,3.91q.14,82.68,0,165.35c0,3.53,1.13,4,4.23,4,11.74-.17,23.49,0,35.24-.1,2.91,0,4.82,1,5.47,3.9-.59,3.05-2.59,3.79-5.47,3.77-13.38-.09-26.75,0-40.12,0-6.43,0-7.06-.63-7.06-7v-174c0-6.6.7-7.3,7.27-7.3,25.37,0,50.74,0,76.12.06,2.63,0,3.91-.41,3.6-3.41a43.62,43.62,0,0,1,0-8.24c.23-2.68-.76-3.34-3.35-3.33-28.62.08-57.24,0-85.87.06-8.05,0-12.45,4.45-12.45,12.56q0,96.56,0,193.11c0,8.17,4.32,12.41,12.5,12.41H684.33c8.22,0,12.57-4.21,12.57-12.34q0-96.55,0-193.11c0-8.3-4.4-12.63-12.76-12.63-28.37,0-56.75,0-85.12-.07-2.79,0-4.18.47-3.79,3.65a32.35,32.35,0,0,1,0,7.49c-.36,3.19.84,3.88,3.91,3.87,25.75-.13,51.5-.08,77.25-.07,4.58,0,5.82,1.16,5.82,5.72q0,88.5,0,177c0,4.51-1.11,5.59-5.48,5.59q-117.37,0-234.73,0C439.07,515.41,437.17,514.52,436.46,511.6Zm85.14-32.83h91.83c5.53,0,6.1-.57,6.1-5.94V369.75c0-5.34-.68-6-6-6H430.56c-5.5,0-6.09.61-6.09,6.33V472.4c0,6,.41,6.37,6.41,6.37Zm.27-144.12c-11.23,0-22.47.06-33.7,0-2.25,0-3.06.56-3,2.91.16,5.36.11,10.73,0,16.1,0,1.87.45,2.62,2.49,2.61q34.26-.09,68.52,0c2.31,0,2.65-.93,2.61-2.88-.11-4.87-.23-9.75,0-14.6.17-3.17-.55-4.29-4-4.2C543.84,334.82,532.85,334.65,521.87,334.65Zm-.12-7.59c8.61,0,17.22,0,25.83,0,3.59,0,8.42,1.2,10.45-.63,2.34-2.11.34-7.05.79-10.72.38-3.18-1.08-3.6-3.82-3.58-19.46.1-38.93,0-58.39.09-3.69,0-8.59-1.62-10.76.73s-.33,7.15-.67,10.86c-.23,2.61.59,3.36,3.26,3.32C499.54,327,510.65,327.06,521.75,327.06Zm-34.39-22.69h69.27c-4-8.16-10-13.43-18.66-14.85-9.76-1.59-19.68-1.1-29.47-.39S491.81,295.29,487.36,304.37Z" transform="translate(-325.92 -170.16)"/><path class="cls-3" d="M483.34,263.9c1.87,1.76,3.82,1.78,6.14.72a48.92,48.92,0,0,1,22.14-4.41c10.35.35,20.72-.76,31,.77,23.46,3.48,43.62,25.29,44.54,49,.56,14.47.2,29,.4,43.47,0,2.43-.84,2.89-3,2.83-5.12-.15-10.25-.17-15.37,0-2.3.08-3-.57-2.93-2.91.12-12.36-.31-24.74.14-37.09a33.71,33.71,0,0,0-35.07-35c-8.85.32-17.74-.8-26.54.69-15.12,2.56-26.83,16-27.06,31.33-.2,13.11-.18,26.23,0,39.35,0,3.05-.88,3.76-3.74,3.63-5-.22-10-.14-15,0-1.91,0-2.63-.47-2.6-2.49.22-15-.51-30,.42-45,.55-9,3.88-17.19,9-24.6,1.5-2.17,2.08-4.18.63-6.52.52-2.56,3.48-3.62,3.86-6.26,1.67,1.72,3.59,2.75,5.82,1.2s1.79-3.53.81-5.57C479.19,266.23,480.78,264.07,483.34,263.9Z" transform="translate(-325.92 -170.16)"/><path class="cls-2" d="M476.93,267c1,2,1.32,4.1-.81,5.57s-4.15.52-5.82-1.2C470.13,266.12,472.28,264.7,476.93,267Z" transform="translate(-325.92 -170.16)"/><path class="cls-4" d="M414.43,511.64c-.65-2.94-2.56-3.92-5.47-3.9-11.75.09-23.5-.07-35.24.1-3.1.05-4.24-.46-4.23-4q.21-82.67,0-165.35c0-3.13.88-3.93,4-3.91q35.61.2,71.24,0c3.46,0,4.21,1.07,4,4.24-.26,4.87-.15,9.75,0,14.62.05,2.1-.59,2.85-2.76,2.8-5.74-.13-11.5-.07-17.24,0-7.23.05-11.82,4.45-11.83,11.57q-.06,53.43,0,106.86c0,7.33,4.81,11.9,12.42,11.92,16,.05,32,0,48,0H613.06c10,0,14-4,14-14.09,0-34.24-.18-68.49.13-102.73.08-8.54-5.12-14.33-13.76-13.63-5,.4-10,0-15,.11-2.35.07-3.34-.49-3.25-3.08.19-5.24.14-10.5,0-15.74,0-2.13.68-2.79,2.8-2.79,24.5.06,49,.1,73.49,0,3.64,0,2.86,2.21,2.86,4.19q0,69.38,0,138.73c0,8.88-.12,17.75.07,26.62.07,3-.79,3.72-3.73,3.71-34.87-.1-69.74-.06-104.61-.06q-61.67,0-123.35,0c-3.09,0-5.44.59-6.33,3.87h-7.07c-.48-2.11-1.55-3.76-3.91-3.76s-3.37,1.76-4,3.75Zm119.63-9.18h126.7c6.43,0,6.9-.46,6.91-6.72V464.25q0-54.36,0-108.71c0-2.75,0-5.79-3.58-5.8s-4.07,3-4,6c0,.75,0,1.5,0,2.25q0,66.17.09,132.32c0,3.68-.75,4.77-4.66,4.76q-123.69-.19-247.39-.1c-1.38,0-2.75,0-4.12.06a3.41,3.41,0,0,0-3.48,3.65c0,2.19,1.33,3.44,3.43,3.75a23.65,23.65,0,0,0,3.37.06ZM385.44,495v0c-1.24,0-2.48,0-3.72,0a3.47,3.47,0,0,0-3.66,3.46,3.39,3.39,0,0,0,3.19,3.89,44.41,44.41,0,0,0,8.55,0,3.67,3.67,0,0,0-.27-7.3C388.18,494.89,386.8,495,385.44,495Z" transform="translate(-325.92 -170.16)"/><path class="cls-5" d="M521.6,478.77H430.88c-6,0-6.41-.41-6.41-6.37V370.07c0-5.72.59-6.33,6.09-6.33H613.49c5.36,0,6,.67,6,6V472.83c0,5.37-.57,5.94-6.1,5.94Zm12.78-8.41h71.21c5.2,0,5.76-.58,5.77-5.87V380.16c0-.75,0-1.5,0-2.24-.09-2.2-1.17-3.56-3.42-3.66s-3.46,1.31-3.93,3.3a15,15,0,0,0-.12,3.36q0,38.24,0,76.46c0,6.14.71,5.48-5.3,5.48q-67.09,0-134.18,0a14.92,14.92,0,0,0-4.08.27,3.53,3.53,0,0,0-2.8,3.91,3.28,3.28,0,0,0,3.42,3.26c1.12.07,2.24,0,3.37,0Zm41.49-56.53a42,42,0,0,0-4.62-2.56c-2-.81-4-.73-5.18,1.47s-.31,3.85,1.53,5.11c1.4.95,2.88,1.78,4.7,2.9-1.76,1.08-3.12,1.89-4.45,2.74-2,1.3-3.12,3-1.73,5.32s3.36,2.19,5.53,1.21c1.45-.64,2.61-1.91,4.46-2,0,1,.15,2,.13,3,0,2.95.31,6,4,5.94,3.39-.05,3.84-2.92,3.82-5.76,0-1.06-.38-2.21.51-3.36,1.41.77,2.77,1.64,4.22,2.29,2.16,1,4.2.91,5.47-1.44s.13-3.78-1.66-5.11c-1.28-.94-3.74-1.3-3.76-2.67,0-1.71,2.53-1.95,3.85-3,1.75-1.37,2.77-3,1.52-5.14s-3.36-2.32-5.5-1.3c-1.44.68-2.81,1.51-4.32,2.33-1.09-3.46,1.34-9.1-4.24-9.11S577,410.33,575.87,413.83Zm-40.26,14.05c0,1.69-.07,3.3,0,4.9.13,2.43,1.38,4.19,3.87,4.18s3.67-1.71,3.75-4.23c0-1.64-.36-3.36.37-5.14,1.26.7,2.24,1.23,3.2,1.79,2.44,1.4,5,2.42,6.73-.74s-.57-4.5-2.84-5.83c-3.48-2-3.47-2.06,0-4.15.32-.19.66-.35,1-.55,2-1.3,3.22-2.91,1.86-5.3s-3.49-2.32-5.79-1.22c-1.42.68-2.56,2-4.3,2-1.08-3.22,1.74-8.91-4-8.9s-3.15,5.62-4.18,9.16a48.91,48.91,0,0,0-4.59-2.54c-2-.86-4-.81-5.21,1.35s-.44,3.81,1.43,5.17c1.38,1,3.15,1.42,4.29,2.91-1.05,1.42-2.68,1.85-4,2.72-2.06,1.36-3,3.13-1.71,5.37s3.39,2.17,5.55,1.17C532.49,429.34,533.67,428.12,535.61,427.88Zm-29-7.15c1.93-1.16,3.34-2,4.7-2.83,1.94-1.25,2.69-3,1.57-5.12s-3.09-2.34-5.18-1.51c-1.7.68-3,2.16-5.18,2.42,0-1.85,0-3.58,0-5.31,0-2.42-1.47-3.83-3.7-3.83s-3.67,1.47-3.79,3.83c-.09,1.76,0,3.53,0,5.71a58.42,58.42,0,0,0-5.18-2.86c-1.89-.79-3.85-.62-4.93,1.33s-.7,3.81,1.28,5.22c1.45,1,3.38,1.47,4.52,3.21-1.58,1-3,1.81-4.34,2.63a3.61,3.61,0,0,0-1.55,5.14c1.09,2.15,3.11,2.27,5.19,1.45,1.65-.66,2.93-2.17,5-2.32,0,1.8,0,3.42,0,5,.09,2.54,1.53,4.11,4,4,2.22-.08,3.57-1.59,3.54-4,0-1.69,0-3.38,0-5.53a56.07,56.07,0,0,0,5.34,2.89c1.89.77,3.8.53,4.92-1.42s.6-3.87-1.33-5.18C510.07,422.73,508.57,421.9,506.64,420.73Zm-40.38-.14,4.43-2.7a3.65,3.65,0,0,0,1.53-5.15c-1.07-2.15-3.1-2.29-5.17-1.45-1.67.68-3,2.12-5.06,2.43,0-1.92.06-3.67,0-5.41a3.58,3.58,0,0,0-3.81-3.76c-2.23,0-3.65,1.45-3.67,3.87,0,1.77,0,3.53,0,5.72-2.13-1.2-3.59-2.17-5.17-2.85-2-.88-4.06-.68-5.13,1.5a3.61,3.61,0,0,0,1.58,5.12c1.45.86,2.87,1.77,4.63,2.87-1.64,1-2.86,1.8-4.14,2.49-2.37,1.28-3.31,3.25-2,5.58s3.64,2.16,5.88,1c1.35-.72,2.54-1.86,4.13-2,.9,3.35-1.7,8.77,3.7,8.95,6,.21,3.21-5.67,4.29-9,3.3.66,6.83,5.86,9.74,1.06S468.81,423.31,466.26,420.59Zm-24.72,49.73v0c1.5,0,3,0,4.48,0a3.38,3.38,0,0,0,3.77-3.31,3.5,3.5,0,0,0-3.19-3.94,35.47,35.47,0,0,0-10.39,0c-1.94.31-2.93,1.73-2.78,3.8a3.24,3.24,0,0,0,3.27,3.36C438.31,470.4,439.93,470.32,441.54,470.32Z" transform="translate(-325.92 -170.16)"/><path class="cls-6" d="M429.39,511.61h7.07c.71,2.92,2.61,3.81,5.54,3.81q117.36-.07,234.73,0c4.37,0,5.48-1.08,5.48-5.59q0-88.49,0-177c0-4.56-1.24-5.72-5.82-5.72-25.75,0-51.5-.06-77.25.07-3.07,0-4.27-.68-3.91-3.87a32.35,32.35,0,0,0,0-7.49c-.39-3.18,1-3.65,3.79-3.65,28.37.09,56.75.05,85.12.07,8.36,0,12.76,4.33,12.76,12.63q0,96.56,0,193.11c0,8.13-4.35,12.34-12.57,12.34H359.6c-8.18,0-12.5-4.24-12.5-12.41q0-96.55,0-193.11c0-8.11,4.4-12.55,12.45-12.56,28.63,0,57.25,0,85.87-.06,2.59,0,3.58.65,3.35,3.33a43.62,43.62,0,0,0,0,8.24c.31,3-1,3.42-3.6,3.41-25.38-.09-50.75-.06-76.12-.06-6.57,0-7.27.7-7.27,7.3v174c0,6.41.63,7,7.06,7,13.37,0,26.74,0,40.12,0,2.88,0,4.88-.72,5.47-3.77l7,0c.68,2.17,1.72,3.9,4.39,3.72C428.18,515.17,428.93,513.54,429.39,511.61Z" transform="translate(-325.92 -170.16)"/><path class="cls-7" d="M521.87,334.65c11,0,22,.17,33-.09,3.47-.09,4.19,1,4,4.2-.26,4.85-.14,9.73,0,14.6,0,1.95-.3,2.89-2.61,2.88q-34.26-.12-68.52,0c-2,0-2.52-.74-2.49-2.61.1-5.37.15-10.74,0-16.1-.07-2.35.74-2.93,3-2.91C499.4,334.71,510.64,334.65,521.87,334.65Z" transform="translate(-325.92 -170.16)"/><path class="cls-8" d="M546,552q3,13.46,6,26.9c.37,1.67,0,2.41-2,2.4q-28.06-.09-56.12,0c-2,0-2.32-.73-1.95-2.4q3-13.45,6-26.9Z" transform="translate(-325.92 -170.16)"/><path class="cls-9" d="M521.75,327.06c-11.1,0-22.21-.09-33.31.06-2.67,0-3.49-.71-3.26-3.32.34-3.71-1.48-8.55.67-10.86s7.07-.72,10.76-.73c19.46-.07,38.93,0,58.39-.09,2.74,0,4.2.4,3.82,3.58-.45,3.67,1.55,8.61-.79,10.72-2,1.83-6.86.61-10.45.63C539,327.08,530.36,327.06,521.75,327.06Z" transform="translate(-325.92 -170.16)"/><path class="cls-10" d="M546,552H498q1.19-6,2.36-12c.32-1.62,1.3-2.13,2.94-2.12q18.68.09,37.36,0c1.64,0,2.61.51,2.93,2.13Z" transform="translate(-325.92 -170.16)"/><path class="cls-11" d="M534.06,502.46H407.36a23.65,23.65,0,0,1-3.37-.06c-2.1-.31-3.47-1.56-3.43-3.75A3.41,3.41,0,0,1,404,495c1.37-.09,2.74-.06,4.12-.06q123.69,0,247.39.1c3.91,0,4.67-1.08,4.66-4.76Q660,424.12,660.12,358c0-.75,0-1.5,0-2.25-.09-3,.3-6,4-6s3.58,3.05,3.58,5.8q0,54.36,0,108.71v31.49c0,6.26-.48,6.72-6.91,6.72Z" transform="translate(-325.92 -170.16)"/><path class="cls-11" d="M385.44,495c1.36,0,2.74-.11,4.09,0a3.67,3.67,0,0,1,.27,7.3,44.41,44.41,0,0,1-8.55,0,3.39,3.39,0,0,1-3.19-3.89,3.47,3.47,0,0,1,3.66-3.46c1.24,0,2.48,0,3.72,0Z" transform="translate(-325.92 -170.16)"/><path class="cls-2" d="M429.39,511.61c-.46,1.93-1.21,3.56-3.54,3.71-2.67.18-3.71-1.55-4.39-3.72.65-2,1.66-3.75,4-3.75S428.91,509.5,429.39,511.61Z" transform="translate(-325.92 -170.16)"/><path class="cls-12" d="M534.38,470.36H464.29c-1.13,0-2.25,0-3.37,0a3.28,3.28,0,0,1-3.42-3.26,3.53,3.53,0,0,1,2.8-3.91,14.92,14.92,0,0,1,4.08-.27q67.08,0,134.18,0c6,0,5.29.66,5.3-5.48q0-38.24,0-76.46a15,15,0,0,1,.12-3.36c.47-2,1.69-3.39,3.93-3.3s3.33,1.46,3.42,3.66c0,.74,0,1.49,0,2.24v84.33c0,5.29-.57,5.86-5.77,5.87Z" transform="translate(-325.92 -170.16)"/><path class="cls-13" d="M575.87,413.83c1.14-3.5-1.34-9.17,4.28-9.16s3.15,5.65,4.24,9.11c1.51-.82,2.88-1.65,4.32-2.33,2.14-1,4.16-1,5.5,1.3s.23,3.77-1.52,5.14c-1.32,1-3.87,1.28-3.85,3,0,1.37,2.48,1.73,3.76,2.67,1.79,1.33,2.84,2.9,1.66,5.11s-3.31,2.41-5.47,1.44c-1.45-.65-2.81-1.52-4.22-2.29-.89,1.15-.52,2.3-.51,3.36,0,2.84-.43,5.71-3.82,5.76-3.69.05-4-3-4-5.94,0-1-.08-2-.13-3-1.85.13-3,1.4-4.46,2-2.17,1-4.17,1.08-5.53-1.21s-.3-4,1.73-5.32c1.33-.85,2.69-1.66,4.45-2.74-1.82-1.12-3.3-1.95-4.7-2.9-1.84-1.26-2.76-2.9-1.53-5.11s3.18-2.28,5.18-1.47A42,42,0,0,1,575.87,413.83Z" transform="translate(-325.92 -170.16)"/><path class="cls-14" d="M535.61,427.88c-1.94.24-3.12,1.46-4.56,2.13-2.16,1-4.24,1.11-5.55-1.17s-.35-4,1.71-5.37c1.31-.87,2.94-1.3,4-2.72-1.14-1.49-2.91-1.92-4.29-2.91-1.87-1.36-2.58-3.09-1.43-5.17s3.22-2.21,5.21-1.35a48.91,48.91,0,0,1,4.59,2.54c1-3.54-1.44-9.16,4.18-9.16s2.93,5.68,4,8.9c1.74,0,2.88-1.33,4.3-2,2.3-1.1,4.36-1.29,5.79,1.22s.1,4-1.86,5.3c-.31.2-.65.36-1,.55-3.5,2.09-3.51,2.11,0,4.15,2.27,1.33,4.53,2.79,2.84,5.83s-4.29,2.14-6.73.74c-1-.56-1.94-1.09-3.2-1.79-.73,1.78-.32,3.5-.37,5.14-.08,2.52-1.26,4.22-3.75,4.23s-3.74-1.75-3.87-4.18C535.54,431.18,535.61,429.57,535.61,427.88Z" transform="translate(-325.92 -170.16)"/><path class="cls-15" d="M506.64,420.73c1.93,1.17,3.43,2,4.85,3,1.93,1.31,2.5,3.13,1.33,5.18s-3,2.19-4.92,1.42a56.07,56.07,0,0,1-5.34-2.89c0,2.15,0,3.84,0,5.53,0,2.42-1.32,3.93-3.54,4-2.45.1-3.89-1.47-4-4-.06-1.62,0-3.24,0-5-2.08.15-3.36,1.66-5,2.32-2.08.82-4.1.7-5.19-1.45a3.61,3.61,0,0,1,1.55-5.14c1.39-.82,2.76-1.67,4.34-2.63-1.14-1.74-3.07-2.17-4.52-3.21-2-1.41-2.38-3.25-1.28-5.22s3-2.12,4.93-1.33a58.42,58.42,0,0,1,5.18,2.86c0-2.18-.07-3.95,0-5.71.12-2.36,1.54-3.84,3.79-3.83s3.67,1.41,3.7,3.83c0,1.73,0,3.46,0,5.31,2.15-.26,3.48-1.74,5.18-2.42,2.09-.83,4-.62,5.18,1.51s.37,3.87-1.57,5.12C510,418.78,508.57,419.57,506.64,420.73Z" transform="translate(-325.92 -170.16)"/><path class="cls-15" d="M466.26,420.59c2.55,2.72,8.71,3.34,5.74,8.24s-6.44-.4-9.74-1.06c-1.08,3.34,1.75,9.22-4.29,9-5.4-.18-2.8-5.6-3.7-8.95-1.59.12-2.78,1.26-4.13,2-2.24,1.2-4.49,1.46-5.88-1s-.38-4.3,2-5.58c1.28-.69,2.5-1.5,4.14-2.49-1.76-1.1-3.18-2-4.63-2.87a3.61,3.61,0,0,1-1.58-5.12c1.07-2.18,3.1-2.38,5.13-1.5,1.58.68,3,1.65,5.17,2.85,0-2.19,0-3.95,0-5.72,0-2.42,1.44-3.84,3.67-3.87a3.58,3.58,0,0,1,3.81,3.76c.08,1.74,0,3.49,0,5.41,2.06-.31,3.39-1.75,5.06-2.43,2.07-.84,4.1-.7,5.17,1.45a3.65,3.65,0,0,1-1.53,5.15Z" transform="translate(-325.92 -170.16)"/><path class="cls-12" d="M441.54,470.32c-1.61,0-3.23.08-4.84,0a3.24,3.24,0,0,1-3.27-3.36c-.15-2.07.84-3.49,2.78-3.8a35.47,35.47,0,0,1,10.39,0,3.5,3.5,0,0,1,3.19,3.94,3.38,3.38,0,0,1-3.77,3.31c-1.49,0-3,0-4.48,0Z" transform="translate(-325.92 -170.16)"/></svg>