<svg id="Layer_1" data-name="Layer 1" xmlns="http://www.w3.org/2000/svg" viewBox="0 0 312.25 409.62"><defs><style>.cls-1{fill:#f7e06e;}</style></defs><title>Pending</title><path class="cls-1" d="M495.72,550.68c-10.35,5.73-33,3-27.89,17.89,2.73,7.93,2.95,20.77,0,28.61-5.8,15.2,26.48,16.45,39.55,16.46q104.52.08,209,0c10.27,0,16.56-6.18,17.3-16.52.68-9.43,6.66-7.06,7.56-15.48,0-.25-.49-2.26-1.92-2.4-1.21-.13-1.47-.67-1.92-1.8l-14.16-35.28c-.75-1.3-1-2.76-1.92-4-3.18-4.31-5.44-2-8.6-5.38-7-7.54-14.4-14.65-22-21.53a4.19,4.19,0,0,0-3.07-1.09c-.88.06-1.77.09-2.66.09-28.56,0-51.71-26.08-51.71-58.26a66.14,66.14,0,0,1,1-11.61,5,5,0,0,0,.06-.54c.33-13.32,6.54-26.6,18.57-36.91,14.47-12.41,29-24.73,43-37.65,12.54-11.57,24.37-23.91,32.56-39.18a41.76,41.76,0,0,0,5.15-20.68c-.1-6.53,0-13.07,0-19.6,0-.64,0-1.25-.08-1.86-3.77,40.67-47.38,84.17-109.51,104.86A220,220,0,0,1,573,399.5c-3.64.3-28-5.45-25.43-2.9l11.52,12.6c7.17,7,8.22,16.52,10.08,25.56.07.34-3.11-6.05-2.52,14.08.54,18.68,1.8,7.41,1.8,16.88,0,32.4-7,47.33-33.1,59.93" transform="translate(-442.27 -233.6)"/><path d="M712.8,233.6c7.88,2,15.59,4.31,22.15,9.41,12.44,9.67,19.23,22.26,19.38,38.08.11,10.92.6,21.94-.59,32.76-1.94,17.79-11.27,32.51-22.24,46.13-16.32,20.25-35.91,37.15-55.72,53.8-4.6,3.86-9.22,7.69-13.71,11.67-9.16,8.11-9.13,17.87.11,26,16,14.08,32.18,28,48.09,42.18a186.8,186.8,0,0,1,14.21,14.62,16,16,0,0,1-.73,22.65c-6.39,6-16.15,6.1-22.29-.52-18.57-20-39.86-36.95-60.44-54.72-24.21-20.9-23.81-54.15.67-75.14,14.46-12.41,29-24.72,43-37.64,12.55-11.57,24.38-23.91,32.57-39.18A41.82,41.82,0,0,0,722.44,303c-.11-6.53,0-13.06,0-19.6-.08-11.13-6.58-17.79-17.63-17.8q-106.39,0-212.79,0c-10.86,0-17.5,6.65-17.58,17.43-.07,8.13-.39,16.29.18,24.39.89,12.69,8,22.67,15.61,32.18,15.4,19.12,34.17,34.75,52.71,50.61,5.47,4.68,11.12,9.17,16.27,14.19,19.27,18.78,19.51,49.41,0,67.89-13.06,12.36-27.22,23.54-40.62,35.55-13.11,11.76-25.54,24.21-35.38,39-6,9-9.4,18.69-8.84,29.69.3,5.85,0,11.73.07,17.59.17,10.34,6.77,17.07,17.12,17.08q106.8.09,213.6,0c10.27,0,16.56-6.18,17.3-16.52.68-9.44,7.65-15.8,16.9-15.43,8.59.34,15,7.38,15.06,16.47.08,25.54-21.3,47.38-46.91,47.42q-109,.18-218,0c-25.53,0-46.83-21.41-47-46.9-.08-11.06-.62-22.21.57-33.15,2-17.94,11.36-32.76,22.44-46.48,16.25-20.12,35.75-36.93,55.45-53.51,4-3.35,7.93-6.72,11.9-10.08,11.69-9.88,11.62-19.19.13-29.19-16.29-14.17-32.77-28.15-48.47-43-15.16-14.31-28.68-30.13-36.82-49.76-3.24-7.81-5.34-15.9-5.22-24.42.15-11.05-.5-22.22.9-33.11,2.58-20,18.72-35.74,38.46-39.2a12.82,12.82,0,0,0,2.2-.78Z" transform="translate(-442.27 -233.6)"/></svg>