<svg id="Layer_1" data-name="Layer 1" xmlns="http://www.w3.org/2000/svg" viewBox="0 0 483.47 460.76"><defs><style>.cls-1{fill:#e4f5fa;}.cls-2{fill:#030302;}.cls-3{fill:#fff0b0;}.cls-4{fill:#f0d4aa;}.cls-5{fill:#ffd169;}.cls-6{fill:#a3acb9;}.cls-7{fill:#fab596;}.cls-8{fill:#dce6ee;}.cls-9{fill:#c9d3dd;}.cls-10{fill:#060708;}.cls-11{fill:#80a9c7;}.cls-12{fill:#80a8c7;}.cls-13{fill:#4a80ab;}</style></defs><title>Personal information</title><path class="cls-1" d="M535.4,237.09c89.59,10.7,183.3,7,247.5,9.72C851.72,249.69,866,413,867,444.68c3.84,131.89-14.52,160.45-25,173.08-2.21,2.66-2.81,6.27-6.28,6.27H431.84a6.27,6.27,0,0,1-6.27-6.27s-94.65-173.71,1.71-353.31C447.7,226.39,484.16,231,535.4,237.09Z" transform="translate(-384.01 -232.99)"/><path class="cls-2" d="M735.08,637.34c4.61.92,5.89,2.43,5.92,7,0,3.37,0,6.74,0,10.11a16.64,16.64,0,0,1-16.88,16.76q-29.4.06-58.79,0c-2.32,0-3.15.42-3.14,3,0,11.13-3,15.4-13.43,19.56H450c-.64-1.11-1.94-1-2.9-1.45-6.17-3.17-9.82-8.08-9.82-15.11q-.06-141.08,0-282.15c0-8.53,6.42-15.9,14.91-16.28,11.34-.49,22.72-.29,34.08-.26,3.49,0,5.5,2,5.89,5.52-.95,4.44-2.57,5.81-7.13,5.85-10.2.08-20.39.11-30.58.17-4.43.36-5.93,2.14-5.93,7.18q0,55.29,0,110.57v166.4c0,6.7,1.63,8.31,8.42,8.31H643.19c6,0,7.82-1.87,7.8-7.81,0-.62-.07-1.24-.1-1.86q.06-27,.1-53.89c0-21.09-.07-42.17-.1-63.25a33.68,33.68,0,0,1,.15-5.23c.71-4-1.08-4.55-4.65-4.54q-61.83.2-123.67.08c-11,0-18-7-18-18q0-53,0-106c0-12.62-.07-25.23-.11-37.85l.12-56.2c0-11.25,6.89-18.11,18.19-18.11H689.33c11,0,17.89,6.95,17.92,18q0,11.24.12,22.47c0,10.36-.17,20.72-.07,31.07,0,3.94-1.35,6.47-5.31,7.33-4.62-.93-6-2.48-6-7q0-26.43,0-52.86c0-6-1.8-7.77-7.8-7.77H524c-6.29,0-8,1.7-8,7.93V526.84c0,6.19,1.75,7.91,8,7.91H687.85c6.48,0,8.15-1.68,8.15-8.18V407c0-4.89,1.27-6.43,6-7.37l11.27,0q10.46,0,20.9.11c4.29,0,6.84,2.15,6.84,5.62s-2.56,5.6-6.84,5.63l-20.9.12A18.46,18.46,0,0,1,711,411c-3.11-.57-4.06.62-3.84,3.77.3,4.35.07,8.74.07,13.11,0,5.79,0,5.79,6,5.51l20.9.12c4.29,0,6.84,2.15,6.84,5.62s-2.56,5.6-6.84,5.63l-20.9.12a18.46,18.46,0,0,1-2.24-.13c-3.11-.57-4.06.62-3.84,3.77.3,4.35.07,8.74.07,13.11,0,5.79,0,5.79,6,5.51l20.9.12c4.29,0,6.84,2.15,6.84,5.62s-2.56,5.6-6.84,5.63l-20.9.12a18.46,18.46,0,0,1-2.24-.13c-3.11-.57-4.06.62-3.84,3.77.3,4.35.07,8.74.07,13.11,0,5.79,0,5.79,6,5.51l20.9.12c4.29,0,6.84,2.15,6.84,5.62s-2.56,5.6-6.84,5.63q-10.45.07-20.9.11a14.14,14.14,0,0,1-1.85-.12c-3.27-.55-4.36.59-4.27,4.08.16,6,.7,12.1-.57,18.32h6.69q10.46,0,20.9.11c4.29,0,6.84,2.15,6.84,5.62s-2.56,5.6-6.84,5.63q-10.45.07-20.9.11c-16.25,0-32.49-.05-48.74-.15-1.79,0-2.34.5-2.31,2.31.11,6,.11,12,0,18,0,1.85.59,2.29,2.34,2.27,14.25-.1,28.49-.12,42.74-.16,9.22,0,18.44.1,27.66.12a5.67,5.67,0,0,1,5.45,3.19,5.18,5.18,0,0,1-.42,5.64c-1.5,2.21-3.79,2.46-6.27,2.46q-30.86,0-61.7.08c-2.37,0-4.75,0-7.11-.14-2.12-.18-2.73.54-2.7,2.67.13,7.74,0,15.48,0,23.23,0,9.72,0,9.72,9.76,9.27q42.72,0,85.45.08c4.18,0,6-2.4,6-7.26q0-122.19,0-244.38c0-5.31-1.85-7.18-7.17-7.2-10.25,0-20.49,0-30.74,0-4.58,0-6.13-1.34-7.2-5.87.52-3.91,3-5.56,6.7-5.57,10.86,0,21.73-.22,32.59.1s17.08,7.31,17.08,18.1V608.28c0,11-6.94,17.93-18,18-7.24,0-14.48.11-21.72.16q-35.24-.07-70.46-.19c-1.7,0-2.42.34-2.41,2.24q.13,14.63,0,29.24c0,1.79.51,2.36,2.32,2.33,7.49-.12,15-.1,22.48-.13,12.19,0,24.39.12,36.58.07,4,0,6.06-2.28,6.13-6.38.06-3.35-.05-6.71-.08-10.07C729.8,640,731.71,638,735.08,637.34Z" transform="translate(-384.01 -232.99)"/><path class="cls-3" d="M650.89,555.69c0,21.08.1,42.16.1,63.25q0,26.94-.1,53.89h-189c-6.71,0-7.48-.78-7.48-7.58q0-137.6,0-275.2c10.19-.06,20.38-.09,30.58-.17,4.56,0,6.18-1.41,7.13-5.85l3,.24c0,1.25-.1,2.5-.1,3.75q0,76.44,0,152.89c0,10.19,4.64,14.79,14.92,14.79Z" transform="translate(-384.01 -232.99)"/><path class="cls-4" d="M713.26,444.87l20.9-.12c4.28,0,6.84-2.15,6.84-5.63s-2.55-5.59-6.84-5.62l-20.9-.12V411.12l20.9-.12c4.28,0,6.84-2.15,6.84-5.63s-2.55-5.59-6.84-5.62q-10.45-.08-20.9-.11l-.06-49.34,5.18-.06c1.07,4.53,2.62,5.86,7.2,5.87,10.25,0,20.49,0,30.74,0,5.32,0,7.17,1.89,7.17,7.2q0,122.19,0,244.38c0,4.86-1.85,7.25-6,7.26q-42.72,0-85.45-.08v-35q30.84,0,61.7-.08c2.48,0,4.77-.25,6.27-2.46a5.18,5.18,0,0,0,.42-5.64,5.67,5.67,0,0,0-5.45-3.19c-9.22,0-18.44-.08-27.66-.12,2.8-1.88,4.92-4.3,5.17-7.77.35-4.82,1.14-9.63.8-14.49q10.46,0,20.9-.11c4.28,0,6.84-2.15,6.84-5.63s-2.55-5.59-6.84-5.62q-10.45-.07-20.9-.11V512.36q10.46,0,20.9-.11c4.28,0,6.84-2.15,6.84-5.63s-2.55-5.59-6.84-5.62l-20.9-.12V478.62l20.9-.12c4.28,0,6.84-2.15,6.84-5.63s-2.55-5.59-6.84-5.62l-20.9-.12Z" transform="translate(-384.01 -232.99)"/><path class="cls-5" d="M650.89,555.69H510c-10.28,0-14.92-4.6-14.92-14.79q0-76.45,0-152.89c0-1.25.06-2.5.1-3.75l9.46-.2c0,12.62.11,25.23.11,37.85q0,53,0,106.05c0,11,7,18,18,18q61.83,0,123.67-.08c3.57,0,5.36.56,4.65,4.54A33.68,33.68,0,0,0,650.89,555.69Z" transform="translate(-384.01 -232.99)"/><path class="cls-6" d="M735.08,637.34c-3.37.69-5.28,2.66-5.43,6.18-13.1,0-26.21,0-39.31-.1-2.58,0-3.55.72-3.43,3.38.2,4.36.09,8.73.11,13.1-7.5,0-15,0-22.48.13-1.81,0-2.34-.54-2.32-2.33q.1-14.61,0-29.24c0-1.9.71-2.24,2.41-2.24q35.24.15,70.46.19Z" transform="translate(-384.01 -232.99)"/><path class="cls-7" d="M713.2,350.3l.06,49.34-11.27,0v-11c4-.86,5.35-3.39,5.31-7.33-.1-10.35,0-20.71.07-31.07Z" transform="translate(-384.01 -232.99)"/><path class="cls-8" d="M702,388.63v11c-4.72.94-6,2.48-6,7.37V526.57c0,6.5-1.67,8.18-8.15,8.18H524c-6.29,0-8-1.72-8-7.91V328.93c0-6.23,1.73-7.93,8-7.93H688.2c6,0,7.8,1.79,7.8,7.77q0,26.43,0,52.86C696,386.15,697.37,387.7,702,388.63ZM606,523.5h71.6c5.27,0,7.13-1.9,7.14-7.24,0-6.74.09-13.49,0-20.24a40.43,40.43,0,0,0-4.2-17.64c-5-10-13.89-14.93-23.79-18.63-5.23-1.95-10.62-3.51-15.63-6-3.42-1.71-6.32-4-7.77-7.7-.78-2-.78-3.43,1.31-5a45.89,45.89,0,0,0,17.58-28.23c1.63-8.15.81-16.44.95-24.67.1-5.62.14-11.25-1-16.79a47.49,47.49,0,0,0-49.58-37.71c-21.22,1.31-40.74,19.2-43.18,40.33-1.12,9.73-.57,19.47-.54,29.2,0,15.22,5.93,27.92,17.94,37.38,3,2.34,2.58,4.34,1.2,6.89-2.66,4.87-7.54,6.66-12.28,8.57-6.21,2.5-12.69,4.28-18.69,7.37-11,5.67-17.44,14.47-19.18,26.76-1.22,8.59-.4,17.21-.59,25.81-.14,5.83,1.71,7.58,7.52,7.58Z" transform="translate(-384.01 -232.99)"/><path class="cls-5" d="M454.44,390q0,137.59,0,275.2c0,6.8.77,7.58,7.48,7.58h189c0,.62.1,1.24.1,1.86,0,5.94-1.82,7.8-7.8,7.81H456.92c-6.79,0-8.42-1.61-8.42-8.31V507.79q0-55.29,0-110.57C448.51,392.18,450,390.4,454.44,390Z" transform="translate(-384.01 -232.99)"/><path class="cls-7" d="M713.26,546.11c.34,4.86-.45,9.67-.8,14.49-.25,3.47-2.37,5.89-5.17,7.77-14.25,0-28.49.06-42.74.16-1.75,0-2.37-.42-2.34-2.27.11-6,.11-12,0-18,0-1.81.52-2.32,2.31-2.31C680.77,546.06,697,546.08,713.26,546.11Z" transform="translate(-384.01 -232.99)"/><path class="cls-9" d="M687,659.9c0-4.37.09-8.74-.11-13.1-.12-2.66.85-3.41,3.43-3.38,13.1.12,26.21.08,39.31.1,0,3.36.14,6.72.08,10.07-.07,4.1-2.15,6.36-6.13,6.38C711.41,660,699.21,659.93,687,659.9Z" transform="translate(-384.01 -232.99)"/><path class="cls-7" d="M672,579.86v35c-9.76.45-9.76.45-9.76-9.27,0-7.75.08-15.49,0-23.23,0-2.13.58-2.85,2.7-2.67C667.26,579.91,669.64,579.83,672,579.86Z" transform="translate(-384.01 -232.99)"/><path class="cls-7" d="M713.26,512.36v22.28h-6.69c1.27-6.22.73-12.3.57-18.32-.09-3.49,1-4.63,4.27-4.08A14.14,14.14,0,0,0,713.26,512.36Z" transform="translate(-384.01 -232.99)"/><path class="cls-7" d="M713.26,411.12v22.26c-6,.28-6,.28-6-5.51,0-4.37.23-8.76-.07-13.11-.22-3.15.73-4.34,3.84-3.77A18.46,18.46,0,0,0,713.26,411.12Z" transform="translate(-384.01 -232.99)"/><path class="cls-7" d="M713.26,444.87v22.26c-6,.28-6,.28-6-5.51,0-4.37.23-8.76-.07-13.11-.22-3.15.73-4.34,3.84-3.77A18.46,18.46,0,0,0,713.26,444.87Z" transform="translate(-384.01 -232.99)"/><path class="cls-7" d="M713.26,478.62v22.26c-6,.28-6,.28-6-5.51,0-4.37.23-8.76-.07-13.11-.22-3.15.73-4.34,3.84-3.77A18.46,18.46,0,0,0,713.26,478.62Z" transform="translate(-384.01 -232.99)"/><path class="cls-10" d="M606,523.5H534.8c-5.81,0-7.66-1.75-7.52-7.58.19-8.6-.63-17.22.59-25.81,1.74-12.29,8.19-21.09,19.18-26.76,6-3.09,12.48-4.87,18.69-7.37,4.74-1.91,9.62-3.7,12.28-8.57,1.38-2.55,1.77-4.55-1.2-6.89-12-9.46-17.89-22.16-17.94-37.38,0-9.73-.58-19.47.54-29.2,2.44-21.13,22-39,43.18-40.33a47.49,47.49,0,0,1,49.58,37.71c1.13,5.54,1.09,11.17,1,16.79-.14,8.23.68,16.52-.95,24.67A45.89,45.89,0,0,1,634.64,441c-2.09,1.59-2.09,3-1.31,5,1.45,3.74,4.35,6,7.77,7.7,5,2.51,10.4,4.07,15.63,6,9.9,3.7,18.78,8.67,23.79,18.63a40.43,40.43,0,0,1,4.2,17.64c.12,6.75,0,13.5,0,20.24,0,5.34-1.87,7.24-7.14,7.24Zm-19.77-67.7c-4.38,5.23-10.13,8.35-16.38,10.74-5.8,2.23-11.8,3.94-17.4,6.71-7.74,3.82-12.16,9.92-13.4,18.54-.8,5.49-.19,11-.62,16.45-.26,3.26.66,4.1,4,4.09,42.37-.13,84.74-.08,127.11-.08a14.58,14.58,0,0,1,1.87,0c1.69.21,2.13-.56,2.09-2.15-.1-5,.12-10-.15-15-.6-11.35-6.2-19.22-16.89-23.29-3.6-1.37-7.25-2.62-10.87-3.95-7.4-2.74-14.65-5.73-19.87-12.08a33.08,33.08,0,0,1-2.59-4.92c-.76-2.31-1.76-2.62-4.09-1.9a43.57,43.57,0,0,1-20.67,1.19c-2.68-.47-5.91-2.28-7.84-1.34S587.62,453.37,586.24,455.8Zm-16.12-63.54c.21,5.12-.18,10.23.42,15.35,2,17.25,16,30.84,32.91,31.86,17.55,1.06,33.15-10.08,37.08-27.27,2.66-11.65,1.79-23.64.79-35.43C639.9,360,625.76,346.17,609.67,345c-18.51-1.33-33.88,9.57-38.32,27.13C569.66,378.78,570.32,385.54,570.12,392.26Z" transform="translate(-384.01 -232.99)"/><path class="cls-11" d="M625.74,455.8c5.22,6.35,12.47,9.34,19.87,12.08,3.62,1.33,7.27,2.58,10.87,3.95,10.69,4.07,16.29,11.94,16.89,23.29.27,5,0,10,.15,15,0,1.59-.4,2.36-2.09,2.15a14.58,14.58,0,0,0-1.87,0c-42.37,0-84.74,0-127.11.08-3.35,0-4.27-.83-4-4.09.43-5.46-.18-11,.62-16.45,1.24-8.62,5.66-14.72,13.4-18.54,5.6-2.77,11.6-4.48,17.4-6.71,6.25-2.39,12-5.51,16.38-10.74,1.29.41,2.59.78,3.87,1.23A45.88,45.88,0,0,0,609.65,460C615.36,459.49,620.37,457.12,625.74,455.8Z" transform="translate(-384.01 -232.99)"/><path class="cls-12" d="M570.13,392.26c.19-6.72-.47-13.48,1.22-20.12,4.44-17.56,19.81-28.46,38.32-27.13,16.09,1.16,30.23,14.94,31.65,31.76,1,11.79,1.87,23.78-.79,35.43-3.93,17.19-19.53,28.33-37.08,27.27-16.91-1-30.9-14.61-32.91-31.86C569.94,402.49,570.33,397.38,570.13,392.26Z" transform="translate(-384.01 -232.99)"/><path class="cls-13" d="M625.74,455.8c-5.37,1.32-10.38,3.69-16.09,4.17A45.88,45.88,0,0,1,590.11,457c-1.28-.45-2.58-.82-3.87-1.23,1.38-2.43,2.23-6,4.31-7s5.16.87,7.84,1.34A43.57,43.57,0,0,0,619.06,449c2.33-.72,3.33-.41,4.09,1.9A33.08,33.08,0,0,0,625.74,455.8Z" transform="translate(-384.01 -232.99)"/></svg>