<svg id="Layer_1" data-name="Layer 1" xmlns="http://www.w3.org/2000/svg" viewBox="0 0 372.16 372.27"><defs><style>.cls-1{fill:#0a0a09;}.cls-2{fill:#70cdeb;}.cls-3{fill:#040606;}.cls-4{fill:#f7d36e;}.cls-5{fill:#060605;}.cls-6{fill:#e5e7eb;}.cls-7{fill:#d2a06c;}.cls-8{fill:#6bc4aa;}.cls-9{fill:#f38170;}.cls-10{fill:#aab1bd;}.cls-11{fill:#cbcfd7;}.cls-12{fill:#949da8;}.cls-13{fill:#af7846;}.cls-14{fill:#c9cdd4;}.cls-15{fill:#040404;}.cls-16{fill:#0a0b0b;}.cls-17{fill:#fad570;}</style></defs><title>pre pairing</title><path class="cls-1" d="M363.38,473.26v-.05l1.33.74a53.88,53.88,0,0,0,36.91,6.68c28.3-4.78,48.47-32.67,44-61.07a54.1,54.1,0,0,0-105.57-6.68c-.74,2.6-.77,5.37-1.94,7.86v13.57c1.14,2.24,1.09,4.76,1.76,7.12a53.93,53.93,0,0,0,13.58,23.62,4.21,4.21,0,0,1,1,1.42C356.89,469.39,360.46,470.82,363.38,473.26Zm-16.61-40.14c-.16-1.14.15-1.5,1.27-1.45,1.67.06,3.36-.07,5,0,1.37.09,1.73-.47,1.66-1.74-.13-2.15.63-4.9-.43-6.31s-3.91-.28-6-.39c-.93,0-1.8.18-1.57-1.38a47.61,47.61,0,0,1,8.81-21.81c1.1-1.49,1.74-1.71,3.15-.24,4,4.17,4,4,8.19,0,1.37-1.31,1.55-2.06.07-3.48-4.33-4.16-4.27-4.24.78-7.49a46.78,46.78,0,0,1,18.67-6.75c1-.15,1.66-.08,1.49,1.17a3.14,3.14,0,0,0,0,.75c.2,2-.94,4.93.46,5.68,1.82,1,4.55.28,6.89.34.94,0,1.1-.5,1.08-1.27,0-.92,0-1.85,0-2.77,0-4.17,0-4.23,4-3.47a46.32,46.32,0,0,1,19.49,8.66c1.09.82,1.38,1.31.24,2.41-1.47,1.44-4.21,2.81-3.94,4.49s2.76,3.15,4.2,4.77c.79.88,1.38,1,2.21,0,1.12-1.24,2.37-2.36,3.52-3.58.69-.74,1.19-1,2,0a45.7,45.7,0,0,1,9.36,22.88c.09.77,0,1.09-.81,1.06-.42,0-.84,0-1.25,0-1.9.15-4.82-.86-5.46.42-.94,1.89-.31,4.56-.36,6.9,0,1.13.75,1.1,1.54,1.09,1.6,0,3.19.05,4.78,0,1.27-.06,1.65.21,1.47,1.67a45.52,45.52,0,0,1-9.21,22.15c-.62.83-1.11,1.22-1.88.22a3.86,3.86,0,0,0-.53-.54c-1.5-1.3-3-4.18-4.3-3.77-2,.6-3.39,3.05-5.11,4.64-.72.68-.4,1.08.13,1.59,1.31,1.29,2.57,2.65,3.92,3.9.86.79.74,1.23-.15,1.91a45.22,45.22,0,0,1-22.39,9.25c-1.13.13-1.56,0-1.46-1.17a5.68,5.68,0,0,0,0-1c-.15-1.81.84-4.5-.41-5.25-2-1.17-4.72-.3-7.14-.38-1.06,0-.87.8-.87,1.44,0,2.16,0,4.33,0,6.53a45.89,45.89,0,0,1-23.46-9.08c-1.26-.94-1.42-1.49-.2-2.63,1.44-1.35,4-2.71,3.82-4.32s-2.67-3-4-4.6c-1.05-1.26-1.79-1.1-2.73.08-1.26,1.56-2.62,3-4,4.63A46.46,46.46,0,0,1,346.77,433.12Z" transform="translate(-74.08 -373.21)"/><path class="cls-2" d="M435.84,431.67c-1.59.06-3.18,0-4.78,0-.79,0-1.56,0-1.54-1.09.05-2.34-.58-5,.36-6.9.64-1.28,3.56-.27,5.46-.42.41,0,.83,0,1.25,0,.79,0,.9-.29.81-1.06A45.7,45.7,0,0,0,428,399.32c-.76-1-1.26-.71-2,0-1.15,1.22-2.4,2.34-3.52,3.58-.83.93-1.42.84-2.21,0-1.44-1.62-3.92-3-4.2-4.77s2.47-3.05,3.94-4.49c1.14-1.1.85-1.59-.24-2.41a46.32,46.32,0,0,0-19.49-8.66c-4-.76-4-.7-4,3.47,0,.92,0,1.85,0,2.77,0,.77-.14,1.29-1.08,1.27-2.34-.06-5.07.65-6.89-.34-1.4-.75-.26-3.71-.46-5.68a3.14,3.14,0,0,1,0-.75c.17-1.25-.47-1.32-1.49-1.17a46.78,46.78,0,0,0-18.67,6.75c-5.05,3.25-5.11,3.33-.78,7.49,1.48,1.42,1.3,2.17-.07,3.48-4.18,4-4.2,4.16-8.19,0-1.41-1.47-2-1.25-3.15.24a47.61,47.61,0,0,0-8.81,21.81c-.23,1.56.64,1.33,1.57,1.38,2.07.11,5-.94,6,.39s.3,4.16.43,6.31c.07,1.27-.29,1.83-1.66,1.74-1.67-.11-3.36,0-5,0-1.12-.05-1.43.31-1.27,1.45a46.46,46.46,0,0,0,10.55,23.81c1.4-1.6,2.76-3.07,4-4.63.94-1.18,1.68-1.34,2.73-.08,1.33,1.6,3.76,2.92,4,4.6s-2.38,3-3.82,4.32c-1.22,1.14-1.06,1.69.2,2.63a45.89,45.89,0,0,0,23.46,9.08c0-2.2,0-4.37,0-6.53,0-.64-.19-1.47.87-1.44,2.42.08,5.17-.79,7.14.38,1.25.75.26,3.44.41,5.25a5.68,5.68,0,0,1,0,1c-.1,1.14.33,1.3,1.46,1.17a45.22,45.22,0,0,0,22.39-9.25c.89-.68,1-1.12.15-1.91-1.35-1.25-2.61-2.61-3.92-3.9-.53-.51-.85-.91-.13-1.59,1.72-1.59,3.13-4,5.11-4.64,1.34-.41,2.8,2.47,4.3,3.77a3.86,3.86,0,0,1,.53.54c.77,1,1.26.61,1.88-.22a45.52,45.52,0,0,0,9.21-22.15C437.49,431.88,437.11,431.61,435.84,431.67ZM407.2,418.26a11.16,11.16,0,0,1-1.25,1.23c-2,1.48-2.4,3-1.71,5.68,1.95,7.45-4.38,14.73-12.29,14.69a12.27,12.27,0,0,1-11.68-15.95,2.8,2.8,0,0,0-.92-3.39c-3.27-3.12-6.36-6.43-9.63-9.54-1.17-1.1-1-1.68,0-2.75,4.48-4.52,4.44-4.56,8.94-.05,2.31,2.3,4.65,4.58,6.91,6.93a2,2,0,0,0,2.56.63,10.14,10.14,0,0,1,7.58-.08c1.48.59,2.26.07,3.19-.9,1.91-2,3.92-3.89,5.83-5.88.74-.77,1.19-.78,2-.05C412.05,413.41,412.07,413.39,407.2,418.26Z" transform="translate(-74.08 -373.21)"/><path class="cls-3" d="M392,439.86a12.27,12.27,0,0,1-11.68-15.95,2.8,2.8,0,0,0-.92-3.39c-3.27-3.12-6.36-6.43-9.63-9.54-1.17-1.1-1-1.68,0-2.75,4.48-4.52,4.44-4.56,8.94-.05,2.31,2.3,4.65,4.58,6.91,6.93a2,2,0,0,0,2.56.63,10.14,10.14,0,0,1,7.58-.08c1.48.59,2.26.07,3.19-.9,1.91-2,3.92-3.89,5.83-5.88.74-.77,1.19-.78,2-.05,5.26,4.58,5.28,4.56.41,9.43a11.16,11.16,0,0,1-1.25,1.23c-2,1.48-2.4,3-1.71,5.68C406.19,432.62,399.86,439.9,392,439.86Zm4.26-12.33a4.24,4.24,0,0,0-4.1-4.23,4.36,4.36,0,0,0-4.17,4.19,4.22,4.22,0,0,0,4,4.05A4.11,4.11,0,0,0,396.21,427.53Z" transform="translate(-74.08 -373.21)"/><path class="cls-4" d="M396.21,427.53a4.11,4.11,0,0,1-4.26,4,4.22,4.22,0,0,1-4-4.05,4.36,4.36,0,0,1,4.17-4.19A4.24,4.24,0,0,1,396.21,427.53Z" transform="translate(-74.08 -373.21)"/><path class="cls-5" d="M74.09,547.5q0-65.24,0-130.49c0-14.9,7.8-26,21-30.28a33.8,33.8,0,0,1,10.71-1.33c8.87,0,17.75,0,26.62,0a3.52,3.52,0,0,0,3.75-2.17c3.41-6.51,8.92-9.86,16.36-9.86h83.24c7.44,0,12.91,3.39,16.3,9.92.92,1.77,2,2.12,3.76,2.11,9.75-.06,19.51-.17,29.25.06a29.87,29.87,0,0,1,29.15,29.65c.09,6.25.09,6.25,6.2,6.25,4.87,0,9.77-.26,14.62.1,3,.22,3.46-1.18,3.94-3.48,4.78-23,18.69-37.64,41.33-43.32,30-7.53,60.92,14.33,65.34,44.88,4.17,28.79-16.18,57-45.33,61.16-1.54.22-2.28.75-2.11,2.35a16.65,16.65,0,0,1,0,1.87q0,65.25-.09,130.49c0,3.35.84,4.17,4.1,4,6.61-.27,13.25,0,19.87-.13a5.29,5.29,0,0,1,5,2.44c5.81,8,11.75,15.83,17.73,23.67a6.89,6.89,0,0,1,1.46,4.46c-.05,19.62,0,39.25,0,58.87,0,10.83-7.86,18.61-18.64,18.68-1.25,0-2.51.08-3.75,0-1.69-.13-2.52.36-3.24,2.16-4,10-12.37,15.82-22.31,15.85-10.21,0-18.4-5.65-22.62-15.92a2.9,2.9,0,0,0-3.25-2.11q-22.31.09-44.62,0c-1.72,0-2.5.44-3.21,2.21-3.94,9.93-12.4,15.79-22.34,15.81-10.19,0-18.34-5.64-22.59-16a2.84,2.84,0,0,0-3.28-2.06c-4.25.17-8.48.19-12.4-1.94-5.4-2.92-8.83-7.3-9.61-13.41-.26-2.06-.8-2.76-2.88-2.67-3.74.16-7.5.05-11.25.05q-67.68,0-135.36,0c-15,0-27-9.47-30.16-24a42.33,42.33,0,0,1-.58-9Q74.07,612,74.09,547.5Zm36.11-.23q0,61.29-.07,122.57c0,2.93.71,3.68,3.66,3.68q68.23-.15,136.45,0c3.49,0,4-1,4-4.17-.13-23.62,0-47.23-.12-70.85,0-2.35.47-3.23,3-3.14,5.87.21,11.75-.1,17.62.14,2.86.12,3.49-.77,3.48-3.53-.12-21.5-.07-43-.07-64.48q0-51.36.06-102.71c0-2.49-.41-3.49-3.19-3.39-6.62.22-13.25.13-19.87,0a2.93,2.93,0,0,0-3.1,1.93c-3.5,6.93-9.34,10.1-17,10.11q-41,0-82.09,0c-7.52,0-13.23-3.25-16.75-9.87a3.51,3.51,0,0,0-3.74-2.16c-6.25.09-12.51.21-18.74,0-3-.12-3.65.75-3.65,3.66Q110.29,486.17,110.2,547.27Zm204-32.85c0,25.73.06,51.47-.08,77.2,0,3.13.77,3.89,3.88,3.86,17.61-.16,35.23,0,52.84-.16,2.89,0,3.58.8,3.42,3.54-.24,4.23-.06,8.49-.06,12.74,0,7.81,0,7.63,7.64,7.88,3.37.11,4.33-.74,4.32-4.24q-.19-64.28,0-128.55c0-3.85-.48-5.48-4.91-6.53-23.34-5.51-37.65-20.19-42.34-43.9-.39-1.95-1-2.94-3.32-2.86q-9,.35-18,0c-2.78-.11-3.5.59-3.48,3.43C314.26,462.7,314.21,488.56,314.21,514.42Zm-.34,177c15,0,30-.07,45,.06,2.66,0,3.34-.77,3.33-3.37q-.15-38.62,0-77.24c0-2.45-.38-3.57-3.2-3.47-6,.22-12,.2-18,0-2.49-.08-2.86.9-2.82,3,.13,5.87-.13,11.75.12,17.62.12,2.92-.88,3.49-3.59,3.46q-20.62-.19-41.24,0c-2.56,0-3.49-.55-3.39-3.27.21-5.74-.07-11.5.12-17.24.09-2.69-.48-3.75-3.44-3.62-5.74.25-11.5.2-17.24,0-2.58-.08-3.37.58-3.36,3.27q.17,38.63,0,77.24c0,2.73.58,3.6,3.48,3.57C284.37,691.34,299.12,691.43,313.87,691.43ZM86.21,547.5q0,64.88,0,129.74a23.62,23.62,0,0,0,.42,6.32c2.36,8.75,9.24,13.9,18.89,13.9q70.31,0,140.61,0c8.05,0,7.82,0,8.14-7.89.14-3.65-1.17-4.17-4.39-4.17q-68.43.15-136.86.07c-10.7,0-14.85-4.19-14.85-15q0-103.12,0-206.23c0-14.25-.05-28.5,0-42.75,0-7,5-12,12-12,5-.05,10,0,15,0,9.23,0,9.12,0,9-9.21,0-2.47-.91-2.85-3.05-2.82-8.38.1-16.77.44-25.12-.06-11-.65-20.13,7.89-20,20C86.44,460.76,86.21,504.13,86.21,547.5Zm264-120.16a42.1,42.1,0,0,0,41.7,42.09c22.95.15,42.37-19.26,42.19-42.15a41.95,41.95,0,0,0-83.89.06Zm24,234.18c0,9,0,18,0,27,0,1.74-.09,3,2.43,3q27.51-.13,55,0c2,0,2.54-.74,2.51-2.62-.09-6.24,0-12.49,0-18.73s1.27-12.91-.56-18.58c-1.74-5.38-6.76-9.71-10.33-14.51-.9-1.2-1.84-2.37-2.63-3.63a4.21,4.21,0,0,0-4.07-2c-13.1.07-26.21.11-39.31,0-2.5,0-3.12.73-3.08,3.14C374.29,643.54,374.21,652.53,374.21,661.52ZM194,385.48c-13.61,0-27.22,0-40.83,0-4.75,0-6.88,2.12-6.91,6.81,0,7.24,0,14.49,0,21.73,0,5.29,2.12,7.39,7.54,7.39q40.28,0,80.55,0c5.54,0,7.78-2.2,7.82-7.67q.08-10.29,0-20.6c0-5.56-2.17-7.67-7.71-7.67Q214.2,385.46,194,385.48ZM302.17,504.11c0-28.86-.16-57.72.08-86.57.1-13-9.49-20.83-20-20.14-6.34.42-12.74.08-19.11.08-9.19,0-9.1,0-9,9.11,0,2.27.56,3,2.91,2.94,6.24-.17,12.49-.07,18.74-.06,9.93,0,14.4,4.45,14.41,14.34V587.2c0,8.32,0,8.17,8.33,8.34,3,.07,3.71-.82,3.7-3.74C302.13,562.57,302.18,533.34,302.17,504.11Zm16,199.49c3.17,3.22,5.38,6.23,6.48,9.86.52,1.72,1.44,2,3,2,15.09,0,30.18,0,45.27,0,.78,0,1.8.4,2.18-.83a30.64,30.64,0,0,1,6.7-11Zm-27.93,17.82a12.08,12.08,0,0,0,11.8,12,12.4,12.4,0,0,0,12.09-12.22A12.09,12.09,0,0,0,302,709.5,11.87,11.87,0,0,0,290.22,721.42ZM398,709.49a11.89,11.89,0,0,0-11.76,12,12.09,12.09,0,0,0,11.82,12,12.4,12.4,0,0,0,12.07-12.23A12.12,12.12,0,0,0,398,709.49Zm-83.8-102h-3c-9.7,0-9.7,0-9,9.61a2.41,2.41,0,0,1,0,.38c-.1,1.43.59,2,2,2,6.63,0,13.35.67,19.84-.24,4.67-.65,1.19-5.35,2-8.11.39-1.38.91-3.72-2.13-3.63C320.68,607.56,317.43,607.48,314.18,607.48Zm99.93,96c3.22,3.5,5.68,6.71,6.77,10.73.27,1,1,1.27,2,1.25,1.74-.05,3.5.1,5.22-.05,4.66-.42,8.18-7.11,6-11.22a1.51,1.51,0,0,0-1.56-.71Zm-128.08,0H272.11c-6.45,0-6.84.43-5.85,6.8A5.37,5.37,0,0,0,270,714.9a18.53,18.53,0,0,0,8.76.22c.19,0,.32-.63.44-1A28.61,28.61,0,0,1,286,703.48Z" transform="translate(-74.08 -373.21)"/><path class="cls-6" d="M110.2,547.27q0-61.11-.07-122.21c0-2.91.68-3.78,3.65-3.66,6.23.25,12.49.13,18.74,0a3.51,3.51,0,0,1,3.74,2.16c3.52,6.62,9.23,9.87,16.75,9.87q41,0,82.09,0c7.62,0,13.46-3.18,17-10.11a2.93,2.93,0,0,1,3.1-1.93c6.62.11,13.25.2,19.87,0,2.78-.1,3.19.9,3.19,3.39q-.12,51.36-.06,102.71c0,21.49-.05,43,.07,64.48,0,2.76-.62,3.65-3.48,3.53-5.87-.24-11.75.07-17.62-.14-2.55-.09-3,.79-3,3.14.08,23.62,0,47.23.12,70.85,0,3.13-.5,4.18-4,4.17q-68.22-.21-136.45,0c-3,0-3.66-.75-3.66-3.68Q110.29,608.57,110.2,547.27Zm47.92,114.21c11,0,22-.07,33,0,2.37,0,3.17-.51,3.15-3q-.16-27,0-54c0-2.42-.59-3.13-3.07-3.12q-33,.15-66,0c-2.37,0-3.15.51-3.13,3q.18,27,0,54c0,2.84,1,3.16,3.43,3.13C136.38,661.41,147.25,661.48,158.12,661.48Zm68.75-204H258c8.25,0,8.06,0,8.33-8.35.1-3.34-1.06-3.76-4-3.74-21.73.12-43.47.06-65.2.06-9.1,0-9,0-9,9.09,0,2.59.88,3,3.18,3C203.14,457.42,215,457.48,226.87,457.48Zm0,48H258c8.25,0,8.13,0,8.29-8.37.05-2.81-.53-3.76-3.6-3.74-21.86.15-43.71.08-65.57.08-9.09,0-9,0-9,9.1,0,2.61.91,3,3.19,3C203.15,505.43,215,505.48,226.88,505.48Zm.39,24H258c8.23,0,8.11,0,8.27-8.38.06-2.84-.57-3.75-3.61-3.73-22,.15-44,.08-66,.08-8.62,0-8.45,0-8.63,8.73-.07,3,1,3.39,3.59,3.36C203.54,529.41,215.4,529.48,227.27,529.48Zm-.06,48h30.35c8.7,0,8.55,0,8.73-8.69.06-3-.91-3.41-3.57-3.4-21.86.11-43.72.06-65.57.06-9.13,0-9,0-9.06,9,0,2.53.78,3.06,3.15,3C203.23,577.42,215.22,577.48,227.21,577.48ZM165.37,441.85c-.51.62-.92,1.08-1.29,1.58q-14.49,19.27-29,38.57c-1,1.31-1.56,2.48-3.29.67s-3.41-5.17-5.61-4.86-3.78,3.33-5.71,5.09c-.92.84-2,1.52-3,2.28l17.34,17.23c3-4,6.07-8.11,9.14-12.19l29.17-38.88c.94-1.26,2.38-2.27,0-3.74C170.44,445.93,168,443.81,165.37,441.85Zm-30.8,132.76c.74-.87,1.24-1.42,1.69-2Q153,550.33,169.68,528c1.71-2.28,5-5.07,4.53-6.87-.57-2.29-4.26-3.75-6.51-5.67-1.73-1.49-2.71-1.43-4.21.6-9.38,12.75-19,25.34-28.42,38-1.12,1.5-1.79,2.17-3.31.44s-3.76-5-5.32-4.8c-2.09.26-3.84,3.19-5.74,5a18.38,18.38,0,0,1-1.34,1.31c-1.36,1-1.36,1.9-.07,3.16C124.36,564.2,129.32,569.3,134.57,574.61Zm80.49-93.13h18.73c8.45,0,8.28,0,8.5-8.54.09-3.17-1.08-3.57-3.79-3.54-13.73.12-27.47.05-41.2.05-9.35,0-9.24,0-9.21,9.27,0,2.45.81,2.84,3,2.81C199.07,481.41,207.06,481.48,215.06,481.48Zm-.2,60h-18c-8.82,0-8.69,0-8.79,8.93,0,2.81.95,3.18,3.4,3.16,13.86-.12,27.72-.06,41.58-.06,9.38,0,9.26,0,9.21-9.33,0-2.55-1-2.76-3.07-2.74C231.1,541.51,223,541.45,214.86,541.45Zm9,72h9.36c9.12,0,9,0,9.05-9.1,0-2.65-.94-3-3.21-3-8,.11-16,0-24,0-9.09,0-9,0-9,9.08,0,2.59.86,3.08,3.18,3C214.13,613.37,219,613.48,223.87,613.48Zm.29,12h-9c-9.28,0-9.21,0-9.06,9.39,0,2.12.6,2.72,2.71,2.69,8.11-.12,16.23,0,24.34,0,9.6,0,9.54,0,9.1-9.79-.08-1.83-.63-2.3-2.37-2.27C234.65,625.51,229.4,625.45,224.16,625.45Zm-.29,24h-8.61c-9.32,0-9.21,0-9.17,9.3,0,2.48.87,2.81,3,2.78,8-.12,16,0,24,0,9.38,0,9.26,0,9.21-9.32,0-2.53-1-2.8-3.05-2.75C234.11,649.53,229,649.45,223.87,649.45Zm42.34-174.24c0-5.76,0-5.76-5.91-5.76-6.14,0-6.14,0-6.14,6.25,0,5.78,0,5.78,5.87,5.78C266.21,481.48,266.21,481.48,266.21,475.21Zm-5.67,66.24c-6.38,0-6.38,0-6.38,6.39,0,5.64,0,5.64,5.63,5.64,6.42,0,6.42,0,6.42-6.41C266.21,541.45,266.21,541.45,260.54,541.45Z" transform="translate(-74.08 -373.21)"/><path class="cls-7" d="M313.87,691.43c-14.75,0-29.5-.09-44.24.07-2.9,0-3.49-.84-3.48-3.57q.17-38.62,0-77.24c0-2.69.78-3.35,3.36-3.27,5.74.19,11.5.24,17.24,0,3-.13,3.53.93,3.44,3.62-.19,5.74.09,11.5-.12,17.24-.1,2.72.83,3.29,3.39,3.27q20.61-.18,41.24,0c2.71,0,3.71-.54,3.59-3.46-.25-5.87,0-11.75-.12-17.62,0-2.14.33-3.12,2.82-3,6,.19,12,.21,18,0,2.82-.1,3.21,1,3.2,3.47q-.12,38.63,0,77.24c0,2.6-.67,3.39-3.33,3.37C343.86,691.36,328.86,691.43,313.87,691.43Z" transform="translate(-74.08 -373.21)"/><path class="cls-8" d="M86.21,547.5c0-43.37.23-86.74-.15-130.11-.11-12.12,9-20.66,20-20,8.35.5,16.74.16,25.12.06,2.14,0,3,.35,3.05,2.82.08,9.21.19,9.21-9,9.21-5,0-10,0-15,0-7,.08-12,5-12,12-.07,14.25,0,28.5,0,42.75q0,103.11,0,206.23c0,10.79,4.15,15,14.85,15q68.43,0,136.86-.07c3.22,0,4.53.52,4.39,4.17-.32,7.88-.09,7.89-8.14,7.89q-70.3,0-140.61,0c-9.65,0-16.53-5.15-18.89-13.9a23.62,23.62,0,0,1-.42-6.32Q86.19,612.38,86.21,547.5Z" transform="translate(-74.08 -373.21)"/><path class="cls-9" d="M374.21,661.52c0-9,.08-18,0-27,0-2.41.58-3.16,3.08-3.14,13.1.13,26.21.09,39.31,0a4.21,4.21,0,0,1,4.07,2c.79,1.26,1.73,2.43,2.63,3.63,3.57,4.8,8.59,9.13,10.33,14.51,1.83,5.67.53,12.35.56,18.58s-.05,12.49,0,18.73c0,1.88-.48,2.63-2.51,2.62q-27.53-.11-55,0c-2.52,0-2.44-1.27-2.43-3C374.23,679.49,374.21,670.5,374.21,661.52Z" transform="translate(-74.08 -373.21)"/><path class="cls-10" d="M194,385.48q20.23,0,40.46,0c5.54,0,7.68,2.11,7.71,7.67q.06,10.3,0,20.6c0,5.47-2.28,7.66-7.82,7.67q-40.27,0-80.55,0c-5.42,0-7.53-2.1-7.54-7.39,0-7.24,0-14.49,0-21.73,0-4.69,2.16-6.8,6.91-6.81C166.74,385.46,180.35,385.48,194,385.48Z" transform="translate(-74.08 -373.21)"/><path class="cls-8" d="M302.18,504.11c0,29.23-.05,58.46.06,87.69,0,2.92-.7,3.81-3.7,3.74-8.33-.17-8.33,0-8.33-8.34V423.81c0-9.89-4.48-14.33-14.41-14.34-6.25,0-12.5-.11-18.74.06-2.35.06-2.89-.67-2.91-2.94-.07-9.11-.16-9.11,9-9.11,6.37,0,12.77.34,19.11-.08,10.47-.69,20.06,7.18,20,20.14C302,446.39,302.17,475.25,302.18,504.11Z" transform="translate(-74.08 -373.21)"/><path class="cls-11" d="M318.15,703.6h63.62a30.64,30.64,0,0,0-6.7,11c-.38,1.23-1.4.82-2.18.83-15.09,0-30.18,0-45.27,0-1.55,0-2.47-.29-3-2C323.53,709.83,321.32,706.82,318.15,703.6Z" transform="translate(-74.08 -373.21)"/><path class="cls-12" d="M290.22,721.42A11.87,11.87,0,0,1,302,709.5a12.09,12.09,0,0,1,12.12,11.7A12.4,12.4,0,0,1,302,733.42,12.08,12.08,0,0,1,290.22,721.42Z" transform="translate(-74.08 -373.21)"/><path class="cls-12" d="M398,709.49a12.12,12.12,0,0,1,12.13,11.7A12.4,12.4,0,0,1,398,733.42a12.09,12.09,0,0,1-11.82-12A11.89,11.89,0,0,1,398,709.49Z" transform="translate(-74.08 -373.21)"/><path class="cls-13" d="M314.18,607.48c3.25,0,6.5.08,9.74,0,3-.09,2.52,2.25,2.13,3.63-.8,2.76,2.68,7.46-2,8.11-6.49.91-13.21.21-19.84.24-1.41,0-2.1-.54-2-2a2.41,2.41,0,0,0,0-.38c-.74-9.61-.74-9.61,9-9.61Z" transform="translate(-74.08 -373.21)"/><path class="cls-14" d="M414.11,703.48h18.43a1.51,1.51,0,0,1,1.56.71c2.19,4.11-1.33,10.8-6,11.22-1.72.15-3.48,0-5.22.05-1,0-1.74-.26-2-1.25C419.79,710.19,417.33,707,414.11,703.48Z" transform="translate(-74.08 -373.21)"/><path class="cls-11" d="M286,703.48a28.61,28.61,0,0,0-6.79,10.66c-.12.35-.25,1-.44,1a18.53,18.53,0,0,1-8.76-.22,5.37,5.37,0,0,1-3.78-4.62c-1-6.37-.6-6.8,5.85-6.8Z" transform="translate(-74.08 -373.21)"/><path class="cls-15" d="M158.12,661.48c-10.87,0-21.74-.07-32.6,0-2.43,0-3.45-.29-3.43-3.13q.21-27,0-54c0-2.52.76-3,3.13-3q33,.14,66,0c2.48,0,3.08.7,3.07,3.12q-.15,27,0,54c0,2.54-.78,3.08-3.15,3C180.11,661.41,169.12,661.48,158.12,661.48Zm-.11-12c6.86,0,13.73-.12,20.59.06,2.65.06,3.69-.43,3.63-3.41-.21-9.86-.16-19.72,0-29.58,0-2.48-.7-3.11-3.13-3.09q-21,.17-41.93,0c-2.15,0-3.05.31-3,2.79.16,10.11.13,20.22,0,30.33,0,2.25.51,3,2.88,3C144,649.34,151,649.45,158,649.45Z" transform="translate(-74.08 -373.21)"/><path class="cls-15" d="M226.87,457.48c-11.87,0-23.73-.06-35.6,0-2.3,0-3.19-.4-3.18-3,0-9.09-.08-9.09,9-9.09,21.73,0,43.47.06,65.2-.06,2.93,0,4.09.4,4,3.74-.27,8.34-.08,8.35-8.33,8.35Z" transform="translate(-74.08 -373.21)"/><path class="cls-15" d="M226.88,505.48c-11.86,0-23.73-.05-35.6,0-2.28,0-3.2-.37-3.19-3,0-9.1-.08-9.1,9-9.1,21.86,0,43.71.07,65.57-.08,3.07,0,3.65.93,3.6,3.74-.16,8.37,0,8.37-8.29,8.37Z" transform="translate(-74.08 -373.21)"/><path class="cls-15" d="M227.27,529.48c-11.87,0-23.73-.07-35.6.06-2.6,0-3.66-.34-3.59-3.36.18-8.72,0-8.73,8.63-8.73,22,0,44,.07,66-.08,3,0,3.67.89,3.61,3.73-.16,8.38,0,8.38-8.27,8.38Z" transform="translate(-74.08 -373.21)"/><path class="cls-15" d="M227.21,577.48c-12,0-24-.06-36,0-2.37,0-3.15-.5-3.15-3,0-9-.07-9,9.06-9,21.85,0,43.71,0,65.57-.06,2.66,0,3.63.43,3.57,3.4-.18,8.69,0,8.69-8.73,8.69Z" transform="translate(-74.08 -373.21)"/><path class="cls-16" d="M165.37,441.85c2.62,2,5.07,4.08,7.8,5.75,2.4,1.47,1,2.48,0,3.74L144,490.22c-3.07,4.08-6.13,8.16-9.14,12.19l-17.34-17.23c1-.76,2.06-1.44,3-2.28,1.93-1.76,3.62-4.79,5.71-5.09s3.86,3,5.61,4.86,2.31.64,3.29-.67q14.43-19.32,29-38.57C164.45,442.93,164.86,442.47,165.37,441.85Z" transform="translate(-74.08 -373.21)"/><path class="cls-16" d="M134.57,574.61c-5.25-5.31-10.21-10.41-15.28-15.4-1.29-1.26-1.29-2.12.07-3.16a18.38,18.38,0,0,0,1.34-1.31c1.9-1.79,3.65-4.72,5.74-5,1.56-.2,3.68,2.94,5.32,4.8s2.19,1.06,3.31-.44c9.45-12.7,19-25.29,28.42-38,1.5-2,2.48-2.09,4.21-.6,2.25,1.92,5.94,3.38,6.51,5.67.46,1.8-2.82,4.59-4.53,6.87Q153,550.33,136.26,572.6C135.81,573.19,135.31,573.74,134.57,574.61Z" transform="translate(-74.08 -373.21)"/><path class="cls-15" d="M215.06,481.48c-8,0-16-.07-24,0-2.18,0-3-.36-3-2.81,0-9.27-.14-9.27,9.21-9.27,13.73,0,27.47.07,41.2-.05,2.71,0,3.88.37,3.79,3.54-.22,8.54,0,8.54-8.5,8.54Z" transform="translate(-74.08 -373.21)"/><path class="cls-15" d="M214.86,541.45c8.12,0,16.24.06,24.35,0,2.07,0,3.06.19,3.07,2.74.05,9.33.17,9.33-9.21,9.33-13.86,0-27.72-.06-41.58.06-2.45,0-3.44-.35-3.4-3.16.1-8.93,0-8.93,8.79-8.93Z" transform="translate(-74.08 -373.21)"/><path class="cls-5" d="M223.87,613.48c-4.87,0-9.74-.11-14.6,0-2.32.08-3.19-.41-3.18-3,0-9.08-.08-9.08,9-9.08,8,0,16,.07,24,0,2.27,0,3.23.32,3.21,3-.05,9.1.07,9.1-9.05,9.1Z" transform="translate(-74.08 -373.21)"/><path class="cls-5" d="M224.16,625.45c5.24,0,10.49.06,15.73,0,1.74,0,2.29.44,2.37,2.27.44,9.79.5,9.79-9.1,9.79-8.11,0-16.23-.07-24.34,0-2.11,0-2.68-.57-2.71-2.69-.15-9.39-.22-9.39,9.06-9.39Z" transform="translate(-74.08 -373.21)"/><path class="cls-5" d="M223.87,649.45c5.12,0,10.24.08,15.36,0,2.08,0,3,.22,3.05,2.75.05,9.32.17,9.32-9.21,9.32-8,0-16-.07-24,0-2.14,0-3-.3-3-2.78,0-9.3-.15-9.3,9.17-9.3Z" transform="translate(-74.08 -373.21)"/><path class="cls-16" d="M266.21,475.21c0,6.27,0,6.27-6.18,6.27-5.87,0-5.87,0-5.87-5.78,0-6.25,0-6.25,6.14-6.25C266.21,469.45,266.21,469.45,266.21,475.21Z" transform="translate(-74.08 -373.21)"/><path class="cls-16" d="M260.54,541.45c5.67,0,5.67,0,5.67,5.62,0,6.41,0,6.41-6.42,6.41-5.63,0-5.63,0-5.63-5.64C254.16,541.45,254.16,541.45,260.54,541.45Z" transform="translate(-74.08 -373.21)"/><path class="cls-17" d="M158,649.45c-7,0-14-.11-21,.06-2.37,0-2.91-.7-2.88-3,.11-10.11.14-20.22,0-30.33,0-2.48.86-2.81,3-2.79q21,.12,41.93,0c2.43,0,3.17.61,3.13,3.09-.14,9.86-.19,19.72,0,29.58.06,3-1,3.47-3.63,3.41C171.74,649.33,164.87,649.45,158,649.45Z" transform="translate(-74.08 -373.21)"/></svg>