<svg id="Layer_1" data-name="Layer 1" xmlns="http://www.w3.org/2000/svg" viewBox="0 0 301.26 384.25"><defs><style>.cls-1{fill:#040404;}.cls-2{fill:#bad2ed;}</style></defs><title>Preparing </title><path class="cls-1" d="M240,489c-1.84-1.4-4.18-1.17-6.24-1.87-21.82-7.37-34.12-22.71-38-45.16-1.66-9.5,0-19,.4-28.4.66-15.35,1.76-30.67,2.67-46q1.75-29.35,3.5-58.71c.8-13.47,1.53-26.93,2.47-40.39C206.4,244.84,226.4,223,249.9,219c9.56-1.63,19.19-.82,28.79-.86,2.89,0,3.48-.82,3.45-3.56-.14-14.24-.09-28.49-.06-42.74.06-32.67,21.4-59,53.32-65.81,35-7.46,71.58,17.79,77.15,53.2a109.89,109.89,0,0,1,1,16.8c0,12.62.15,25.24-.08,37.86-.06,3.44,1,4.1,4.21,4.06,10-.11,19.94-.56,29.69,2.5A56.92,56.92,0,0,1,486.82,272c1.11,23.2,2.8,46.38,4.17,69.56,1.13,19.08,2.16,38.16,3.26,57.24q.88,15.33,1.87,30.66c1.76,26.62-14.85,52.28-41.29,58.42-1.6.37-3.49-.37-4.83,1.11H439.5a3.39,3.39,0,0,0-.84-.65c-9.26-3.16-14.94-11.23-13.83-19.72,1.33-10.2,8.2-16.45,18.87-17.14A14.44,14.44,0,0,0,455,445.07c2.88-4,3.71-8.58,3.43-13.45-1.11-19.44-2.13-38.89-3.27-58.33q-2.89-49.71-5.87-99.43c-.6-10.34-8.33-18-18.6-18.17-4.74-.07-9.49.1-14.23-.08-2.29-.08-3,.56-2.95,2.91.17,5.74.07,11.49.05,17.23,0,3.36.23,6.76-.71,10.05-2.65,9.26-11.08,14.65-21,13.46-8.8-1.05-15.82-9-16-18.38-.16-8.11-.13-16.23-.18-24.34-.3-1.61-1.59-.88-2.39-.88-16.87,0-33.73,0-50.59-.11-2.72,0-3,1.07-3,3.29q.1,11.63-.08,23.23a16.7,16.7,0,0,1-6.23,12.7c-5.94,5.08-12.73,6.11-19.87,3-7.69-3.32-11.13-9.66-11.3-17.81-.15-7.12-.09-14.24,0-21.36,0-2.07-.21-3.14-2.76-3.06-6.61.21-13.24,0-19.85.16a18.13,18.13,0,0,0-17.41,16.81c-.62,9.21-1.13,18.44-1.68,27.66q-1.77,29.52-3.54,59.05-1.35,22.42-2.72,44.85c-.59,9.72-1.31,19.44-1.66,29.16-.32,8.94,6.1,18.69,18,18.43,26-.58,52-.17,77.94-.19q23.61,0,47.21-.11c10.09.78,17.31,7.07,18.63,16.25s-3.88,17.05-13.48,20.67c-.27.1-.44.46-.65.7ZM347.58,218.09c8.37,0,16.73-.08,25.1,0,2.3,0,3.23-.38,3.21-3-.14-15.23,0-30.47-.13-45.7-.17-14.44-12.52-26.48-27.28-26.9-14.3-.41-27.37,10.77-28.3,24.9-1.05,16.08-.17,32.2-.42,48.3,0,2.15,1,2.4,2.73,2.38C330.85,218.05,339.22,218.09,347.58,218.09Z" transform="translate(-194.99 -104.75)"/><path class="cls-2" d="M375.67,256.54a180,180,0,0,0-23.17,59.58,187.31,187.31,0,0,0-3.76,37.42,189.4,189.4,0,0,0,14.9,73.77c3.49,8.31,7.84,16.16,12.11,24.07q-23.61.06-47.21.11c-26,0-52-.39-77.94.19-11.89.26-18.31-9.49-18-18.43.35-9.72,1.07-19.44,1.66-29.16q1.35-22.43,2.72-44.85,1.78-29.52,3.54-59.05c.55-9.22,1.06-18.45,1.68-27.66a18.13,18.13,0,0,1,17.41-16.81c6.61-.18,13.24.05,19.85-.16,2.55-.08,2.79,1,2.76,3.06-.1,7.12-.16,14.24,0,21.36.17,8.15,3.61,14.49,11.3,17.81,7.14,3.09,13.93,2.06,19.87-3a16.7,16.7,0,0,0,6.23-12.7q.18-11.61.08-23.23c0-2.22.27-3.31,3-3.29,16.86.14,33.72.06,50.59.11C374.08,255.66,375.37,254.93,375.67,256.54Z" transform="translate(-194.99 -104.75)"/></svg>