<svg id="Layer_1" data-name="Layer 1" xmlns="http://www.w3.org/2000/svg" viewBox="0 0 295.62 268.69"><title>Product</title><path d="M868.9,668.06H707.6c0,3.9,0,7.61,0,11.32-.05,5.75.17,11.52-.29,17.23-.55,6.81-6.87,11.74-13.87,11.41A12.93,12.93,0,0,1,681,695.47c-.15-9,0-18,0-27.62-1.66,0-3.09,0-4.52,0-8.24-.11-16.51.1-24.72-.45-5.28-.36-8.83-3.83-10.5-8.88a12.63,12.63,0,0,1,3.11-13.46c3.06-3.23,7-4.16,11.25-4.16h11.84v-4.51c0-25,.08-50,0-75a45.63,45.63,0,0,1,3.34-17.5c5.3-13.2,10.51-26.42,15.77-39.63,3.35-8.4,7.24-11.1,16.14-11.12q18.55,0,37.12,0c8.65,0,12.39,2.59,15.64,10.64,5.41,13.42,11.08,26.74,16.08,40.32a50.16,50.16,0,0,1,3.14,16.37c.33,25.24.15,50.49.15,75.73v4.39h40.42V621.44c0-6.24,0-12.49,0-18.74,0-9.36,3.92-14,13.49-15.75v-4c0-12,0-24,0-36,0-7.62,5.5-13.48,13.12-13.56q27-.3,54,0c7.8.08,13.25,5.94,13.26,13.81q.08,44.41,0,88.85v5.11c5.34,0,10.35-.42,15.27.09A13,13,0,0,1,935.19,659c-1.93,5-5.69,8.34-11.22,8.58-7.86.34-15.73.24-23.6.32h-4.81c0,9.39.09,18.36,0,27.32a13.24,13.24,0,0,1-26.46.25c-.33-7.48-.14-15-.17-22.49C868.89,671.45,868.9,670,868.9,668.06Zm13.19-27.36V614.47H842.36V640.7Z" transform="translate(-640.45 -439.37)"/><path d="M720.92,439.41c7,0,14,0,21,0,3.61,0,5.65,1.71,5.81,5.34.22,5.35.23,10.72,0,16.08-.16,3.7-2.35,5.52-6.14,5.53-13.72.05-27.44,0-41.16,0-3.45,0-5.65-1.71-5.83-5a169.34,169.34,0,0,1,0-17.16c.16-3.3,2.26-5,5.81-4.89C707.2,439.52,714.06,439.41,720.92,439.41Z" transform="translate(-640.45 -439.37)"/></svg>