<svg id="Layer_1" data-name="Layer 1" xmlns="http://www.w3.org/2000/svg" viewBox="0 0 189.25 198.22"><title>Profile</title><path d="M891.64,287.34c.34,22.11-8.49,39.23-28.27,49.5-32,16.63-69.82-3.61-74.5-39.65-2.45-18.89-.08-36.69,14.24-50.84C819,230.66,838,226.56,858.65,234.42c19.72,7.52,30.48,22.78,32.43,44C891.36,281.36,891.46,284.35,891.64,287.34Z" transform="translate(-745.18 -230.53)"/><path d="M839.74,428.74c-24.5,0-49,.06-73.49-.07-3.77,0-7.81-.2-11.27-1.5-9.34-3.51-13.12-15.71-6.35-23.11a83,83,0,0,1,20.9-16.57c21.24-11.67,44.19-18.67,68.53-19.14,21.76-.42,42.47,5.16,62.24,14.18,10.79,4.92,21.18,10.39,29.49,19.22,4.51,4.79,5.72,10.26,3.69,16.1-2.09,6-6.48,10-13.29,10.41-2.66.16-5.31.45-8,.46Q876,428.77,839.74,428.74Z" transform="translate(-745.18 -230.53)"/></svg>