<svg id="Layer_1" data-name="Layer 1" xmlns="http://www.w3.org/2000/svg" viewBox="0 0 353.8 353.8"><defs><style>.cls-1{fill:#ecf2f2;}.cls-2{fill:#cfcde6;}</style></defs><title>Profile place holder</title><circle class="cls-1" cx="176.9" cy="176.9" r="176.9"/><path class="cls-2" d="M579.79,564c-37.12-.37-71.1-10.69-101.62-32.06-1.8-1.26-2.36-2.35-2-4.52,3.95-23.67,14.55-43.85,32.19-60.07,21.06-19.36,46.19-28.63,74.72-27.76a104,104,0,0,1,99.43,83.74c1.39,7,1.33,7-4.5,10.91-25.84,17.11-54.15,27-85.13,29.16C588.53,563.72,584.17,564,579.79,564Z" transform="translate(-402.77 -210.22)"/><path class="cls-2" d="M580,289.5c28.79.07,52.31,23.88,52.22,52.87-.1,28.76-24,52.24-53,52.12-28.72-.11-52.15-24-52-53.06C527.38,312.89,551.22,289.44,580,289.5Z" transform="translate(-402.77 -210.22)"/></svg>