<svg id="Layer_1" data-name="Layer 1" xmlns="http://www.w3.org/2000/svg" viewBox="0 0 167.4 192.74"><defs><style>.cls-1{fill:#e4f5fa;}.cls-2,.cls-3{fill:none;}.cls-2,.cls-3,.cls-5,.cls-6{stroke:#231f20;stroke-miterlimit:10;stroke-width:2px;}.cls-3{stroke-linecap:round;}.cls-4{fill:#d1d3d4;}.cls-5{fill:#e87c7c;}.cls-6{fill:#f1f3f4;}.cls-7{fill:#ebb1a6;}.cls-8{fill:#fccfbd;}.cls-9{fill:#8c94c9;}.cls-10{fill:#e5f4f9;}.cls-11{fill:#0a0808;}.cls-12{fill:#e17e86;}.cls-13{fill:#f6ccbb;}.cls-14{fill:#deeaf7;}.cls-15{fill:#c1d9f1;}.cls-16{fill:#497faa;}.cls-17{fill:#eabd69;}.cls-18{fill:#94d9f8;}.cls-19{fill:#99d4bf;}.cls-20{fill:#76bca4;}.cls-21{fill:#6f77b2;}.cls-22{fill:#72b1d7;}</style></defs><title>rack</title><path class="cls-1" d="M381.52,388.74c0,37.1-30.69,106.56-58.71,106.56-1,0,.4-69.15-1.52-71.2s-55.9-.5-63.79.2c-3.7.33-.27,31.62-1.62,31.66s.4,14.94-.7,15c0,0,.31,6.8.27,6.75-19.66-23.92-41.33-53.83-41.33-56.36,0-26.79,69.16-96.7,95.85-96.7C338,324.64,381.52,351.64,381.52,388.74Z" transform="translate(-214.12 -324.64)"/><rect class="cls-2" x="38.78" y="40.52" width="87.61" height="151.22" rx="4.17"/><line class="cls-3" x1="46.38" y1="170.66" x2="119.7" y2="170.66"/><line class="cls-3" x1="48.92" y1="59.6" x2="116.43" y2="59.6"/><line class="cls-3" x1="74.69" y1="49.44" x2="90.66" y2="49.44"/><path class="cls-4" d="M75.79,177.56H95a1.09,1.09,0,0,1,1.09,1.09v6.88a1.1,1.1,0,0,1-1.1,1.1H75.79a1.09,1.09,0,0,1-1.09-1.09v-6.88A1.09,1.09,0,0,1,75.79,177.56Z"/><path class="cls-5" d="M46,59H58.15a0,0,0,0,1,0,0v12.2a5.67,5.67,0,0,1-5.67,5.67H51.7A5.67,5.67,0,0,1,46,71.17V59A0,0,0,0,1,46,59Z"/><path class="cls-6" d="M106.62,59h12.12a0,0,0,0,1,0,0v12.2a5.67,5.67,0,0,1-5.67,5.67h-.77a5.67,5.67,0,0,1-5.67-5.67V59A0,0,0,0,1,106.62,59Z"/><path class="cls-6" d="M36.71,59H46a0,0,0,0,1,0,0v12.2a5.67,5.67,0,0,1-5.67,5.67h-.77a5.67,5.67,0,0,1-5.67-5.67v-9.4a2.8,2.8,0,0,1,2.8-2.8Z"/><path class="cls-6" d="M58.15,59H70.27a0,0,0,0,1,0,0v12.2a5.67,5.67,0,0,1-5.67,5.67h-.77a5.67,5.67,0,0,1-5.67-5.67V59A0,0,0,0,1,58.15,59Z"/><path class="cls-5" d="M70.27,59H82.38a0,0,0,0,1,0,0v12.2a5.67,5.67,0,0,1-5.67,5.67h-.77a5.67,5.67,0,0,1-5.67-5.67V59a0,0,0,0,1,0,0Z"/><path class="cls-6" d="M82.38,59H94.5a0,0,0,0,1,0,0v12.2a5.67,5.67,0,0,1-5.67,5.67h-.77a5.67,5.67,0,0,1-5.67-5.67V59a0,0,0,0,1,0,0Z"/><path class="cls-5" d="M94.5,59h12.12a0,0,0,0,1,0,0v12.2a5.67,5.67,0,0,1-5.67,5.67h-.77a5.67,5.67,0,0,1-5.67-5.67V59A0,0,0,0,1,94.5,59Z"/><path class="cls-5" d="M118.74,59h8.9a3.22,3.22,0,0,1,3.22,3.22V71.4a5.45,5.45,0,0,1-5.45,5.45h-1.22a5.45,5.45,0,0,1-5.45-5.45V59a0,0,0,0,1,0,0Z"/><path class="cls-7" d="M318.46,492.49c-.19-1-.46-1.2-1.53-1.2q-27.43,0-54.89,0c-.75,0-1-.17-.91-.92a12.3,12.3,0,0,0,0-1.49h72c0,.77.27,1.74-.09,2.24s-1.4.14-2.13.15h-8.07c-1,0-1.23.19-1.49,1.19Z" transform="translate(-214.12 -324.64)"/><path class="cls-8" d="M333.16,488.9h-72c0-1.39,0-2.79,0-4.18,0-.37.11-.5.46-.45h70.75c.67,0,.89.14.85.83C333.13,486.36,333.17,487.63,333.16,488.9Z" transform="translate(-214.12 -324.64)"/><path class="cls-9" d="M261.14,471.57c0-3.26,0-6.52,0-9.78,0-.58.09-.82.75-.8,1.5.05,1.5,0,1.5,1.53q0,9.33,0,18.66c0,.65-.11.9-.83.87-1.42-.07-1.43,0-1.43-1.45Z" transform="translate(-214.12 -324.64)"/><path class="cls-9" d="M330.94,471.48c0-3.26,0-6.52,0-9.78,0-.54.12-.72.69-.71,1.57,0,1.57,0,1.57,1.54,0,6.25,0,12.5,0,18.74,0,.62-.14.79-.77.77-1.48,0-1.49,0-1.49-1.52Z" transform="translate(-214.12 -324.64)"/><path class="cls-9" d="M263.38,444.66c0,1.42,0,2.84,0,4.25,0,.48-.15.57-.59.58-1.67,0-1.67,0-1.67-1.65,0-2.49,0-5,0-7.47,0-.49.15-.62.63-.62,1.62,0,1.62,0,1.62,1.63Z" transform="translate(-214.12 -324.64)"/><path class="cls-9" d="M333.19,444.66c0,1.4,0,2.79,0,4.18,0,.45-.05.65-.59.65-1.66,0-1.66,0-1.66-1.66,0-2.46,0-4.92,0-7.39,0-.47.06-.7.62-.69,1.63,0,1.63,0,1.63,1.63Z" transform="translate(-214.12 -324.64)"/><path class="cls-10" d="M260.3,418.2H334c2.57,0,4.65,1.79,4.65,4v63.64c0,2.21-2.08,4-4.65,4H260.3c-2.56,0-4.64-1.79-4.64-4V422.2C255.66,420,257.74,418.2,260.3,418.2Z" transform="translate(-214.12 -324.64)"/><path class="cls-11" d="M301.38,444.22a1.33,1.33,0,0,1-1.1-1.44,4.85,4.85,0,0,1,3.67-5.12c1.3-.39,1.29-.43,1.29-1.79,0-1.69,0-3.39,0-5.08a2,2,0,0,1,2.14-2.12H313a2,2,0,0,1,2.1,2.09c0,2,0,3.93,0,5.9a.68.68,0,0,0,.56.78c3.73,1.3,4.39,2.26,4.39,6.21,0,1.74,0,3.48,0,5.22,0,.51.15.61.62.61q3.74,0,7.47,0c.5,0,.6-.15.6-.62,0-3.06,0-6.13,0-9.19a1.93,1.93,0,0,1,2.15-2.17c.69,0,1.39,0,2.09,0a2.35,2.35,0,0,1,2.49,1.34v53.36a2.32,2.32,0,0,1-2.39,1.37c-3.38-.05-6.75,0-10.13,0a1.32,1.32,0,0,1-1.53-1.07c.26-1,.49-1.18,1.49-1.19h8.07c.73,0,1.77.33,2.13-.15s.09-1.47.09-2.24c0-1.27,0-2.54,0-3.81,0-.69-.18-.84-.85-.83H261.6c-.35,0-.47.08-.46.45,0,1.39,0,2.79,0,4.18a12.3,12.3,0,0,1,0,1.49c-.1.75.16.92.91.92q27.45,0,54.89,0c1.07,0,1.34.22,1.53,1.2a1.2,1.2,0,0,1-1.38,1.05H261a1.88,1.88,0,0,1-2.06-2.1V439.66a1.93,1.93,0,0,1,2.16-2.16c.85,0,1.7,0,2.54,0a1.89,1.89,0,0,1,2,2.06c0,3.07,0,6.13,0,9.2,0,.6.18.72.74.71,2.42,0,4.83,0,7.25,0,.62,0,.71-.2.71-.74,0-2.15,0-4.29,0-6.43a4.56,4.56,0,0,1,3.05-4.42,1.76,1.76,0,0,0,.2-.09c1.68-.59,1.68-.59,1.68-2.33,0-1.55,0-3.09,0-4.64a2,2,0,0,1,2.18-2.16H287a2,2,0,0,1,2.14,2.13c0,1.94,0,3.89,0,5.83,0,.42.07.64.53.8,3.78,1.32,4.42,2.25,4.42,6.27,0,1.69,0,3.38,0,5.08,0,.53.09.72.67.7,1.65,0,3.29,0,4.93,0,.56,0,.72-.13.7-.69-.05-1.17.12-1.39,1.05-1.66.92.2,1.23.49,1.16,1.41s.23,1,1,.94a6,6,0,0,1,1.34,0c.59.07.71-.18.69-.72,0-1,0-2.09,0-3.13a2.67,2.67,0,0,1,2.4-2.62,29.13,29.13,0,0,1,4.48,0,2.67,2.67,0,0,1,2.39,2.54c0,.52,0,1.05,0,1.57,0,.76-.33,1.81.16,2.21s1.47.09,2.24.14c.44,0,.6-.09.59-.57,0-2.17,0-4.34,0-6.5a2.39,2.39,0,0,0-1.73-2.43L315,439.6c-1.91-.64-2.11-.89-2.16-2.92,0-.43-.13-.55-.55-.55-1.42,0-2.84,0-4.26,0-.42,0-.55.11-.56.54-.05,2-.24,2.28-2.15,2.93l-.7.25a2.52,2.52,0,0,0-2.08,2.85C302.54,443.7,302.36,443.94,301.38,444.22Zm13,25v2.23c.17.29.44.13.66.14h4c1.9,0,1.88,0,1.88-1.89,0-.47-.11-.64-.62-.63-1.81,0-3.62,0-5.44,0C314.72,469,314.49,468.92,314.38,469.18Zm-20.48,0v2.23c.18.28.45.13.67.13,1.37,0,2.73,0,4.09,0,1.84,0,1.82,0,1.82-1.88,0-.48-.13-.63-.63-.62-1.81,0-3.62,0-5.43,0C294.25,469.05,294,468.92,293.9,469.18Zm-16,2.33c.55,0,1.1,0,1.64,0s.49-.13.5-.51c.08-2.08.09-2.08-2-2l-.15,0h-.27c-1.07,0-2.14-.05-3.2,0-.32,0-.68-.18-1,.13v2.23c0,.13.11.14.22.14l3.93,0Zm43.51,2.31-9.18,0c-.33,0-.42.12-.42.43,0,2.46,0,4.93,0,7.39,0,.33.1.43.42.42,3.06,0,6.12,0,9.19,0,.54,0,1.09,0,1.63,0s.48-.15.48-.52q0-3.6,0-7.22c0-.36-.06-.55-.48-.52S321.92,473.81,321.37,473.82ZM280.42,482c.52,0,1.05,0,1.57,0s.58-.12.57-.58c0-1.89,0-3.78,0-5.67,0-2.11,0-2.11-2.13-2-3,0-6.06,0-9.09,0-.42,0-.49.15-.49.52,0,2.41,0,4.82,0,7.23,0,.38.08.51.49.51C274.36,482,277.39,482,280.42,482Zm20.48-8.18c-3.06,0-6.12,0-9.18,0-.34,0-.41.13-.41.44,0,2.46,0,4.93,0,7.39,0,.32.08.43.41.42l9.18,0c.54,0,1.09,0,1.64,0s.48-.13.48-.5q0-3.61,0-7.23c0-.37-.07-.55-.49-.52S301.44,473.81,300.9,473.82Zm-39.73-17.5c0,.57,0,1.14,0,1.71s.17.73.74.72c3.95,0,7.9,0,11.85,0,1,0,1.31.27,1.5,1.17-.2.88-.51,1.13-1.46,1.13-2.42,0-4.83,0-7.25,0-.69,0-.91.11-.9.86,0,4.28,0,8.57,0,12.85,0,2.25,0,4.49,0,6.73,0,.47.12.6.58.57a11.88,11.88,0,0,1,1.79,0c.52,0,.6-.18.6-.64q0-3.69,0-7.4a2.3,2.3,0,0,1,2.11-2.45c.41-.06.46-.23.45-.57,0-.7,0-1.4,0-2.1a1.93,1.93,0,0,1,2-2.08q3.52,0,7,0a1.92,1.92,0,0,1,2,2c0,.75,0,1.5,0,2.24,0,.29.05.43.39.5a2.4,2.4,0,0,1,2.19,2.7c0,2.42,0,4.83,0,7.25,0,.41.08.56.52.55,1,0,2-.05,3,0,.57,0,.71-.14.7-.7,0-2.41,0-4.83,0-7.24a2.32,2.32,0,0,1,2.1-2.54c.39-.07.49-.21.48-.58,0-.72,0-1.44,0-2.16a1.91,1.91,0,0,1,2-2c2.39,0,4.78,0,7.17,0a1.92,1.92,0,0,1,2,2c0,.75,0,1.5,0,2.24,0,.28,0,.44.37.51a2.37,2.37,0,0,1,2.2,2.76c0,2.31,0,4.63,0,6.95,0,.69.2.83.83.79a24,24,0,0,1,2.68,0c.54,0,.72-.1.71-.68,0-2.39,0-4.78,0-7.17a2.38,2.38,0,0,1,2.17-2.64c.39-.07.41-.26.41-.56,0-.75,0-1.49,0-2.24a1.89,1.89,0,0,1,1.94-1.94c2.42,0,4.84,0,7.25,0a1.9,1.9,0,0,1,1.91,2c0,.74,0,1.49,0,2.24,0,.26,0,.44.36.51,1.64.34,2.2,1.07,2.21,2.74,0,2.39,0,4.78,0,7.18,0,.46.11.61.58.58a9.77,9.77,0,0,1,1.71,0c.59.06.69-.16.68-.7q0-9.75,0-19.5c0-.65-.14-.81-.8-.81q-21,0-42,0h-6.28c-.95,0-1.23-.23-1.48-1.13.26-1,.54-1.17,1.75-1.17h52.25a4.51,4.51,0,0,1,.52,0c.38.05.54-.08.51-.48,0-.65,0-1.3,0-1.94,0-1.22,0-2.45,0-3.66.05-.75-.15-.94-.92-.94q-35.11,0-70.23,0a3.38,3.38,0,0,1-.45,0c-.37,0-.47.11-.46.47C261.16,453.58,261.16,455,261.17,456.32Zm30.61-10.71c0-1.07,0-2.14,0-3.21a2.39,2.39,0,0,0-1.72-2.42L289,439.6c-1.9-.63-2.12-.9-2.16-2.92,0-.42-.12-.56-.55-.55-1.24,0-2.49,0-3.73,0-1.06,0-1.06,0-1.08,1a2.08,2.08,0,0,1-1.58,2.24c-.59.2-1.18.38-1.76.6a2.31,2.31,0,0,0-1.6,2.29c0,2.21,0,4.43,0,6.64,0,.36.06.55.48.53.67,0,1.35,0,2,0,.4,0,.5-.14.5-.52,0-1.09,0-2.19,0-3.28A2.65,2.65,0,0,1,282,443c1.42-.07,2.84-.07,4.25,0a2.68,2.68,0,0,1,2.53,2.65c0,.5,0,1,0,1.49,0,.76-.34,1.83.16,2.2s1.52.1,2.32.14c.39,0,.51-.12.5-.51C291.77,447.85,291.78,446.73,291.78,445.61Zm-30.64,26v9c0,1.43,0,1.38,1.43,1.45.72,0,.83-.22.83-.87q0-9.33,0-18.66c0-1.52,0-1.48-1.5-1.53-.66,0-.75.22-.75.8C261.16,465.05,261.14,468.31,261.14,471.57Zm69.8-.09v9c0,1.51,0,1.48,1.49,1.52.63,0,.77-.15.77-.77,0-6.24,0-12.49,0-18.74,0-1.54,0-1.51-1.57-1.54-.57,0-.69.17-.69.71C331,465,330.94,468.22,330.94,471.48Zm-67.56-26.82v-3.28c0-1.64,0-1.62-1.62-1.63-.48,0-.63.13-.63.62,0,2.49,0,5,0,7.47,0,1.67,0,1.66,1.67,1.65.44,0,.6-.1.59-.58C263.36,447.5,263.38,446.08,263.38,444.66Zm69.81,0v-3.28c0-1.64,0-1.61-1.63-1.63-.56,0-.63.22-.62.69,0,2.47,0,4.93,0,7.39,0,1.68,0,1.65,1.66,1.66.54,0,.6-.2.59-.65C333.17,447.45,333.19,446.06,333.19,444.66ZM284,449.48c.79,0,1.46,0,2.13,0,.36,0,.47-.1.46-.46,0-1,0-2,0-3,0-.55-.24-.76-.77-.75-.69,0-1.39,0-2.08,0-2.21,0-1.93-.24-1.94,1.95,0,.74-.25,1.73.12,2.15S283.34,449.41,284,449.48Zm26.14,0c.64,0,1.29,0,1.93,0,.44,0,.54-.14.53-.54q0-1.45,0-2.91c0-.56-.2-.82-.78-.81-1.09,0-2.18,0-3.28,0-.54,0-.75.23-.74.76,0,.92.05,1.85,0,2.76-.05.66.19.8.78.74S309.59,449.48,310.11,449.48Zm-26-15.59c.74,0,1.48,0,2.23,0,.37,0,.54-.08.52-.49q0-1,0-2c0-.41-.14-.5-.51-.5q-2.16,0-4.32,0c-.36,0-.55.08-.53.49q0,1,0,2c0,.4.15.51.52.5C282.7,433.88,283.39,433.89,284.09,433.89Zm26.06,0h.3c.77,0,1.82.27,2.23-.13s.09-1.54.17-2.35c0-.4-.12-.52-.51-.51-.82,0-1.64,0-2.46,0s-1.82-.27-2.23.13-.09,1.54-.16,2.35c0,.39.1.53.5.51C308.71,433.87,309.43,433.89,310.15,433.89Z" transform="translate(-214.12 -324.64)"/><path class="cls-12" d="M301.38,444.22c1-.28,1.16-.52,1.17-1.52a2.52,2.52,0,0,1,2.08-2.85l.7-.25c1.91-.65,2.1-.89,2.15-2.93,0-.43.14-.54.56-.54,1.42,0,2.84,0,4.26,0,.42,0,.54.12.55.55,0,2,.25,2.28,2.16,2.92l1.05.38a2.39,2.39,0,0,1,1.73,2.43c0,2.16,0,4.33,0,6.5,0,.48-.15.59-.59.57-.77-.05-1.78.24-2.24-.14s-.12-1.45-.16-2.21c0-.52,0-1.05,0-1.57a2.67,2.67,0,0,0-2.39-2.54,29.13,29.13,0,0,0-4.48,0,2.67,2.67,0,0,0-2.4,2.62c0,1,0,2.09,0,3.13,0,.54-.1.79-.69.72a6,6,0,0,0-1.34,0c-.75.09-1.05-.13-1-.94s-.24-1.21-1.16-1.41C301.37,446.16,301.38,445.19,301.38,444.22Z" transform="translate(-214.12 -324.64)"/><path class="cls-13" d="M261.17,456.32c0-1.37,0-2.74,0-4.11,0-.36.09-.51.46-.47a3.38,3.38,0,0,0,.45,0q35.11,0,70.23,0c.77,0,1,.19.92.94-.07,1.21,0,2.44,0,3.66Z" transform="translate(-214.12 -324.64)"/><path class="cls-7" d="M261.17,456.32h72c0,.64,0,1.29,0,1.94,0,.4-.13.53-.51.48a4.51,4.51,0,0,0-.52,0H279.91c-1.21,0-1.49.19-1.75,1.17h-2.94c-.19-.9-.52-1.17-1.5-1.17-4,0-7.9,0-11.85,0-.57,0-.8-.12-.74-.72S261.16,456.89,261.17,456.32Z" transform="translate(-214.12 -324.64)"/><path class="cls-12" d="M291.78,445.61c0,1.12,0,2.24,0,3.36,0,.39-.11.53-.5.51-.8,0-1.8.25-2.32-.14s-.12-1.44-.16-2.2c0-.49,0-1,0-1.49a2.68,2.68,0,0,0-2.53-2.65c-1.41-.06-2.83-.06-4.25,0a2.65,2.65,0,0,0-2.49,2.67c0,1.09,0,2.19,0,3.28,0,.38-.1.53-.5.52-.67,0-1.35,0-2,0-.42,0-.48-.17-.48-.53,0-2.21,0-4.43,0-6.64a2.31,2.31,0,0,1,1.6-2.29c.58-.22,1.17-.4,1.76-.6a2.08,2.08,0,0,0,1.58-2.24c0-1,0-1,1.08-1,1.24,0,2.49,0,3.73,0,.43,0,.54.13.55.55,0,2,.26,2.29,2.16,2.92l1.05.38a2.39,2.39,0,0,1,1.72,2.42C291.79,443.47,291.78,444.54,291.78,445.61Z" transform="translate(-214.12 -324.64)"/><path class="cls-14" d="M300.9,482l-9.18,0c-.33,0-.41-.1-.41-.42,0-2.46,0-4.93,0-7.39,0-.31.07-.44.41-.44,3.06,0,6.12,0,9.18,0Zm-3.77-3.1h0c.62,0,1.24,0,1.86,0a1.1,1.1,0,0,0,1.17-1.08,1.07,1.07,0,0,0-1-1.14c-1.31-.05-2.63-.05-3.94,0a1.06,1.06,0,0,0-1,1.15,1.08,1.08,0,0,0,1.1,1.07C295.89,478.92,296.51,478.9,297.13,478.9Z" transform="translate(-214.12 -324.64)"/><path class="cls-14" d="M280.42,482c-3,0-6.06,0-9.09,0-.41,0-.49-.13-.49-.51,0-2.41,0-4.82,0-7.23,0-.37.07-.52.49-.52,3,0,6.06,0,9.09,0Zm-3.78-3.1h1.94a1.12,1.12,0,0,0,0-2.23c-1.26,0-2.53,0-3.79,0a1.12,1.12,0,1,0,0,2.23C275.45,478.92,276.05,478.9,276.64,478.9Z" transform="translate(-214.12 -324.64)"/><path class="cls-14" d="M321.38,482c-3.07,0-6.13,0-9.19,0-.32,0-.42-.09-.42-.42,0-2.46,0-4.93,0-7.39,0-.31.09-.44.42-.43l9.18,0Q321.37,477.92,321.38,482Zm-3.76-3.1c.62,0,1.24,0,1.86,0a1.12,1.12,0,0,0,.1-2.23q-1.93-.06-3.87,0a1.12,1.12,0,0,0,.05,2.23C316.38,478.92,317,478.9,317.62,478.9Z" transform="translate(-214.12 -324.64)"/><path class="cls-14" d="M284,449.48c-.63-.07-1.65.34-2.08-.15s-.12-1.41-.12-2.15c0-2.19-.27-1.93,1.94-1.95.69,0,1.39,0,2.08,0,.53,0,.78.2.77.75,0,1,0,2,0,3,0,.36-.1.47-.46.46C285.43,449.46,284.76,449.48,284,449.48Z" transform="translate(-214.12 -324.64)"/><path class="cls-14" d="M310.11,449.48c-.52,0-1.05,0-1.57,0s-.83-.08-.78-.74c.06-.91,0-1.84,0-2.76,0-.53.2-.77.74-.76,1.1,0,2.19,0,3.28,0,.58,0,.79.25.78.81q0,1.45,0,2.91c0,.4-.09.57-.53.54C311.4,449.45,310.75,449.48,310.11,449.48Z" transform="translate(-214.12 -324.64)"/><path class="cls-15" d="M280.42,482v-8.18c2.13-.14,2.13-.14,2.13,2,0,1.89,0,3.78,0,5.67,0,.46-.11.62-.57.58S280.94,482,280.42,482Z" transform="translate(-214.12 -324.64)"/><path class="cls-15" d="M300.9,482v-8.18c.54,0,1.09,0,1.63,0s.49.15.49.52q0,3.61,0,7.23c0,.37-.07.54-.48.5S301.44,482,300.9,482Z" transform="translate(-214.12 -324.64)"/><path class="cls-15" d="M321.38,482q0-4.08,0-8.18c.55,0,1.09,0,1.64,0s.48.16.48.52q0,3.61,0,7.22c0,.37-.06.55-.48.52S321.92,482,321.38,482Z" transform="translate(-214.12 -324.64)"/><path class="cls-16" d="M284.09,433.89c-.7,0-1.39,0-2.09,0-.37,0-.53-.1-.52-.5q0-1,0-2c0-.41.17-.49.53-.49q2.16,0,4.32,0c.37,0,.53.09.51.5q0,1,0,2c0,.41-.15.5-.52.49C285.57,433.88,284.83,433.89,284.09,433.89Z" transform="translate(-214.12 -324.64)"/><path class="cls-17" d="M310.15,433.89c-.72,0-1.44,0-2.16,0-.4,0-.54-.12-.5-.51.07-.81-.35-1.86.16-2.35s1.47-.12,2.23-.13,1.64,0,2.46,0c.39,0,.54.11.51.51-.08.81.34,1.86-.17,2.35s-1.46.12-2.23.13Z" transform="translate(-214.12 -324.64)"/><path class="cls-18" d="M273.43,471.41v-2.23a34,34,0,0,0,4.16-.1h.27v2.43h-.28A33.83,33.83,0,0,0,273.43,471.41Z" transform="translate(-214.12 -324.64)"/><path class="cls-19" d="M293.9,471.41v-2.23h2.91c1.61,0,1.6,0,1.56,1.64,0,.44-.14.61-.6.6C296.48,471.39,295.19,471.41,293.9,471.41Z" transform="translate(-214.12 -324.64)"/><path class="cls-9" d="M314.38,471.41v-2.23h2.9c1.62,0,1.6,0,1.57,1.64,0,.44-.14.61-.6.6C317,471.4,315.67,471.41,314.38,471.41Z" transform="translate(-214.12 -324.64)"/><path class="cls-20" d="M293.9,471.41c1.29,0,2.58,0,3.87,0,.46,0,.59-.16.6-.6,0-1.64.05-1.64-1.56-1.64H293.9c.12-.26.35-.13.52-.14,1.81,0,3.62,0,5.43,0,.5,0,.62.14.63.62,0,1.87,0,1.87-1.82,1.88-1.36,0-2.72,0-4.09,0C294.35,471.54,294.08,471.69,293.9,471.41Z" transform="translate(-214.12 -324.64)"/><path class="cls-21" d="M314.38,471.41c1.29,0,2.58,0,3.87,0,.46,0,.59-.16.6-.6,0-1.64,0-1.64-1.57-1.64h-2.9c.11-.26.34-.14.51-.14,1.82,0,3.63,0,5.44,0,.51,0,.61.16.62.63,0,1.88,0,1.88-1.88,1.89h-4C314.82,471.54,314.55,471.7,314.38,471.41Z" transform="translate(-214.12 -324.64)"/><path class="cls-22" d="M277.86,471.51v-2.43l.15,0c2.08-.09,2.07-.09,2,2,0,.38-.1.54-.5.51S278.41,471.52,277.86,471.51Z" transform="translate(-214.12 -324.64)"/><path class="cls-22" d="M273.43,471.41a33.83,33.83,0,0,1,4.15.1l-3.93,0C273.54,471.55,273.45,471.54,273.43,471.41Z" transform="translate(-214.12 -324.64)"/><path class="cls-22" d="M277.59,469.08a34,34,0,0,1-4.16.1c.28-.31.64-.12,1-.13C275.45,469,276.52,469.06,277.59,469.08Z" transform="translate(-214.12 -324.64)"/><path class="cls-11" d="M297.13,478.9c-.62,0-1.24,0-1.86,0a1.08,1.08,0,0,1-1.1-1.07,1.06,1.06,0,0,1,1-1.15c1.31-.05,2.63-.05,3.94,0a1.07,1.07,0,0,1,1,1.14A1.1,1.1,0,0,1,299,478.9c-.62,0-1.24,0-1.86,0Z" transform="translate(-214.12 -324.64)"/><path class="cls-11" d="M276.64,478.9c-.59,0-1.19,0-1.78,0a1.12,1.12,0,1,1,0-2.23c1.26,0,2.53,0,3.79,0a1.12,1.12,0,0,1,0,2.23h-1.94Z" transform="translate(-214.12 -324.64)"/><path class="cls-11" d="M317.62,478.9c-.62,0-1.24,0-1.86,0a1.12,1.12,0,0,1-.05-2.23q1.94-.06,3.87,0a1.12,1.12,0,0,1-.1,2.23C318.86,478.92,318.24,478.9,317.62,478.9Z" transform="translate(-214.12 -324.64)"/></svg>