<svg id="Layer_1" data-name="Layer 1" xmlns="http://www.w3.org/2000/svg" viewBox="0 0 384.13 384.01"><defs><style>.cls-1{fill:#050504;}.cls-2{fill:#f8b4b6;}</style></defs><title>Reject</title><path class="cls-1" d="M337.5,307.5c1.77-3.88,1.49-8.15,2.11-12.23C351.51,217.12,411,154,488.57,137.2c103.3-22.31,203.62,41.1,228.12,144.25a193.86,193.86,0,0,1,3.91,64c-1.09,11.19-10.26,18.63-21.17,17.5-10.07-1-17.27-10.26-16.31-21,4.35-48.8-10.13-91-44.36-126.2a138.18,138.18,0,0,0-40.92-29.15,12.25,12.25,0,0,0-1.51-1c-28.65-13.45-58.58-18-89.94-13.24-29.45,4.5-55.9,16-77.92,35.94-43.35,39.26-61,88.15-50.34,146,8.17,44.41,32.41,78.63,70.79,102.3,33.28,20.52,69.59,27,108.09,20.29a134.3,134.3,0,0,0,41.47-14c4.63-1.89,8.8-4.6,13.06-7.14,9.92-5.93,21.11-3.64,26.77,5.51,5.81,9.38,2.82,20.44-7.2,26.65a195.63,195.63,0,0,1-81,28c-1.87.22-3.91-.49-5.62.86H513c-3.46-1.45-7.21-1.15-10.81-1.7-26.28-4-50.95-12.62-73.45-26.84C379,456.79,349.47,411.88,339.66,353.9c-.75-4.46-.5-9.09-2.16-13.4Z" transform="translate(-337.5 -132.74)"/><path class="cls-2" d="M598.48,462.84a134.3,134.3,0,0,1-41.47,14c-38.5,6.72-74.81.23-108.09-20.29-38.38-23.67-62.62-57.89-70.79-102.3-10.64-57.81,7-106.7,50.34-146,22-19.94,48.47-31.44,77.92-35.94,31.36-4.8,61.29-.21,89.94,13.24a12.25,12.25,0,0,1,1.51,1,201.34,201.34,0,0,0-22.77,21,172.89,172.89,0,0,0-38.84,69.07c-2.79,9.57-4.36,19.36-5.89,29.18l-73.07.15a22.23,22.23,0,0,0-4.83.36c-9.47,2.15-16.11,11.05-15,20,1.25,10.2,9,17.13,19.3,17.15l74.19.1c.82,16,5.26,31.1,11.1,45.84,9.77,24.64,24.78,45.71,44.27,63.58C590.12,456.53,593.93,460.18,598.48,462.84Z" transform="translate(-337.5 -132.74)"/><path class="cls-1" d="M530.92,343.6l-74.19-.1c-10.28,0-18.05-6.95-19.3-17.15-1.1-8.93,5.54-17.83,15-20a22.23,22.23,0,0,1,4.83-.36l73.07-.15q36.35.08,72.67.15a18.74,18.74,0,0,1,.21,37.47Q567.07,343.62,530.92,343.6Z" transform="translate(-337.5 -132.74)"/></svg>