<svg id="Layer_1" data-name="Layer 1" xmlns="http://www.w3.org/2000/svg" viewBox="0 0 499.16 384.01"><defs><style>.cls-1{fill:#f8b4b6;}.cls-2{fill:#ffe2b8;}.cls-3{fill:#050504;}</style></defs><title>Repeat </title><path class="cls-1" d="M181.82,419.59" transform="translate(-10.66 -245.96)"/><path class="cls-2" d="M260.31,456.82c.82,16,5.26,31.1,11.1,45.84,9.76,24.64,24.77,45.71,44.26,63.58,3.83,3.51,7.64,7.15,12.2,9.82a134.48,134.48,0,0,1-41.47,14c-38.51,6.72-74.81.23-108.09-20.29-38.39-23.67-62.63-57.89-70.8-102.3-10.64-57.81,7-106.7,50.34-146,22-19.94,48.48-31.44,77.92-35.94,31.36-4.8,61.29-.21,89.94,13.24a12.25,12.25,0,0,1,1.51,1,201.34,201.34,0,0,0-22.77,21,172.75,172.75,0,0,0-38.83,69.07c-2.79,9.57-4.37,19.36-5.89,29.18" transform="translate(-10.66 -245.96)"/><path class="cls-3" d="M367.7,574.43c-5.66-9.15-16.86-11.44-26.78-5.52-4.26,2.55-8.43,5.26-13.05,7.15a134.48,134.48,0,0,1-41.47,14c-38.51,6.72-74.81.23-108.09-20.29-38.39-23.67-62.63-57.89-70.8-102.3a172.85,172.85,0,0,1-2.87-38.36,27,27,0,0,1,4.73,6.9h0a26.88,26.88,0,0,1,2,6c4.5,9.44,9,18.89,13.65,28.26,4.93,9.9,15.68,13.77,25.22,9.29C160,475,163.77,464.15,159,453.9c-4.34-9.28-8.94-18.44-13.32-27.71-2.18-4.6-4.8-9-6.42-13.86-.43-.15-.54-.52-.56-.95-3.11-4.83-5.2-10.18-7.71-15.32-10.14-20.71-30.45-27.8-51.3-17.91-5.16,2.45-10.13,5.35-15.57,7.19a.88.88,0,0,1-1,.4c-3.14,2.28-6.8,3.57-10.24,5.26-10.55,5.17-21.23,10.08-31.69,15.42a18.79,18.79,0,0,0,16.07,34c2.53-1.07,5-2.36,7.45-3.54l22.23-10.62v27.5c1.66,4.31,1.41,8.94,2.17,13.4,9.81,58,39.34,102.89,89.07,134.31,22.5,14.22,47.17,22.8,73.45,26.84,3.61.55,7.35.25,10.81,1.7h31.5c1.71-1.35,3.75-.64,5.63-.86a195.59,195.59,0,0,0,81-28C370.52,594.87,373.5,583.81,367.7,574.43Z" transform="translate(-10.66 -245.96)"/><path class="cls-3" d="M456.63,497.35l-.12,0,0,0Z" transform="translate(-10.66 -245.96)"/><path class="cls-3" d="M381,468.87v0a.67.67,0,0,0-.15-.06Z" transform="translate(-10.66 -245.96)"/><path class="cls-3" d="M508.14,453.05a18.7,18.7,0,0,0-24.44-9.73c-2.55,1-5,2.23-7.53,3.36L450,458.39a193.63,193.63,0,0,0-3.92-63.72C421.57,291.52,321.25,228.11,218,250.42a191.67,191.67,0,0,0-93.5,50.29,19,19,0,0,0,26.75,27.1q3.21-3.18,6.64-6.29c22-19.94,48.48-31.44,77.92-35.94,31.36-4.8,61.29-.21,89.94,13.24a6.12,6.12,0,0,1,.56.31,17.76,17.76,0,0,0,2.36,1.35A138.34,138.34,0,0,1,368.15,329c32.72,33.63,47.38,73.71,44.8,119.82a29.15,29.15,0,0,1-1.5-2.88h0a27.1,27.1,0,0,1-1.9-6.05c-4.26-9.55-8.52-19.11-12.95-28.59-4.68-10-15.33-14.15-25-9.9-9.84,4.34-13.86,15.08-9.32,25.45,4.11,9.39,8.49,18.66,12.64,28,2.06,4.65,4.57,9.12,6.07,14,.43.16.53.53.54,1,3,4.91,4.95,10.31,7.33,15.5,9.63,21,29.75,28.54,50.84,19.17,5.22-2.32,10.25-5.1,15.74-6.8a.87.87,0,0,1,1.05-.37c3.19-2.21,6.88-3.4,10.36-5,10.67-4.91,21.47-9.56,32.06-14.63A18.56,18.56,0,0,0,508.14,453.05Z" transform="translate(-10.66 -245.96)"/></svg>