<svg id="Layer_1" data-name="Layer 1" xmlns="http://www.w3.org/2000/svg" viewBox="0 0 279.72 274.72"><defs><style>.cls-1{fill:#231f20;}</style></defs><title>set Location</title><circle class="cls-1" cx="141.78" cy="137.36" r="30"/><path class="cls-1" d="M663.44,408.5H639.23a102.2,102.2,0,0,0-88.73-88.73V296.14a12.5,12.5,0,0,0-25,0v23.63a102.2,102.2,0,0,0-88.73,88.73h-28a12.5,12.5,0,0,0,0,25h28a102.2,102.2,0,0,0,88.73,88.73v23.63a12.5,12.5,0,1,0,25,0V522.23a102.2,102.2,0,0,0,88.73-88.73h24.21a12.5,12.5,0,0,0,0-25ZM538,503a82,82,0,1,1,82-82A82.1,82.1,0,0,1,538,503Z" transform="translate(-396.22 -283.64)"/></svg>