<svg id="Layer_1" data-name="Layer 1" xmlns="http://www.w3.org/2000/svg" viewBox="0 0 416.44 416.44"><defs><style>.cls-1{fill:#e4f5fa;}.cls-2{fill:#0b0909;}.cls-3{fill:#120b0b;}.cls-4{fill:#f17c97;}.cls-5{fill:#fcf0a0;}.cls-6{fill:#ceebf4;}.cls-7{fill:#fbdbd4;}.cls-8{fill:#ceebf3;}.cls-9{fill:#090905;}.cls-10{fill:#fcf4be;}</style></defs><title>share</title><rect class="cls-1" width="416.44" height="416.44" rx="23.29"/><path class="cls-2" d="M475.58,588.38c-4.9-1.13-9.89-2-14.67-3.45-37.31-11.71-59.84-36.86-67.05-75.25a85.58,85.58,0,0,1,2.66-41.13c.7-2.28.27-3.1-1.75-4.1q-10.22-5.06-20.2-10.52c-2-1.09-2.8-.6-4,1.14-13.45,20.19-32.3,31.78-56.35,34.74-37.1,4.56-74.08-21.5-82.52-58-9.76-42.26,15.11-82.87,57.31-92.94,20.22-4.83,39.46-1.56,57.24,9.34,2.18,1.34,3.49,1.41,5.52-.29,6.88-5.77,13.93-11.34,21-16.86,1.48-1.15,1.63-1.9.73-3.53-20.08-36.14-.7-78.94,39.73-87.86,31.32-6.91,64.49,15.49,69.8,47.13,5.42,32.38-13.53,61.56-45.33,68.88-19.41,4.47-36.91-.35-52-13.33-2-1.69-3-1.7-4.93-.09-6,5-12.21,9.86-18.39,14.69-1.69,1.31-2.23,2.06-.43,4,20,22.16,25.64,47.65,17.14,76.21-.81,2.71-.22,3.7,2.11,4.83,6.42,3.13,12.74,6.45,19,9.82,1.75.94,2.56.88,3.62-1,14.83-26.53,37.2-43,67.14-47.92,43.73-7.22,84.6,16.63,101.31,56.23,1.93,4.58.76,7.43-3.9,10.1-5.14.61-7-.63-9.47-6.17a79.49,79.49,0,0,0-89.25-46C411,429.51,386.59,500,425,546.11a12.64,12.64,0,0,0,3.66,3.54c5-12.76,13.87-21,26.69-25.09-20.44-22.38-13-49.51.67-62.26,16.16-15.1,40.17-16.3,57-2.78a42.37,42.37,0,0,1,15.75,25.94c2.75,15-1.82,27.92-12.09,39,13.18,4.19,22,12.55,26.9,25.09a3.43,3.43,0,0,0,1-.49c.72-.72,1.41-1.49,2.07-2.26a82.82,82.82,0,0,0,14.14-23.92c1.8-4.62,4-5.83,8.94-5.34,4.6,2.62,5.84,5.44,4,10.08-12.62,31.27-35.2,51-68.14,58.77-3.35.79-6.86.65-10.1,2ZM369.12,413.66c.08-34.68-27.8-62.92-62.24-63.05-35-.13-63.45,27.81-63.58,62.53s28,63.14,62.55,63.22A62.7,62.7,0,0,0,369.12,413.66ZM470.32,298a45.5,45.5,0,0,0-45.2-45.7c-25.05-.09-45.79,20.31-45.87,45.1a45.54,45.54,0,1,0,91.07.6ZM486.14,523.1a29.57,29.57,0,1,0-.28-59.13,29.57,29.57,0,0,0,.28,59.13Zm-.08,14c-7.4,0-14.81-.24-22.19.06-10.85.43-20.89,9.31-23.1,19.91-.45,2.18-.1,3.59,2,5,25.88,17,61.07,16.91,86.84-.2,1.69-1.12,2.25-2.28,1.9-4.18-2-10.91-12.16-20.06-23.3-20.51C500.86,536.82,493.45,537.06,486.06,537.06Z" transform="translate(-196.31 -205.16)"/><path class="cls-3" d="M579.42,496.15c-1.94,2-3.72,4.27-6.92,4.21-4.42-.91-6.64-3.13-6.74-6.72s1.79-5.81,6.29-7.17c3.4-.25,5.36,2,7.37,4.22Z" transform="translate(-196.31 -205.16)"/><path class="cls-4" d="M572.05,486.47c-4.5,1.36-6.39,3.51-6.29,7.17s2.32,5.81,6.74,6.72a123.92,123.92,0,0,1-2.84,17.22c-5-.49-7.14.72-8.94,5.34a82.82,82.82,0,0,1-14.14,23.92c-.66.77-1.35,1.54-2.07,2.26a3.43,3.43,0,0,1-1,.49c-4.91-12.54-13.72-20.9-26.9-25.09,10.27-11.12,14.84-24.06,12.09-39A42.37,42.37,0,0,0,513,459.52c-16.82-13.52-40.83-12.32-57,2.78-13.65,12.75-21.11,39.88-.67,62.26-12.82,4.05-21.7,12.33-26.69,25.09a12.64,12.64,0,0,1-3.66-3.54C386.59,500,411,429.51,469.73,417A79.49,79.49,0,0,1,559,463c2.43,5.54,4.33,6.78,9.47,6.17A61,61,0,0,1,572.05,486.47Z" transform="translate(-196.31 -205.16)"/><path class="cls-5" d="M369.12,413.66a62.7,62.7,0,0,1-63.27,62.7c-34.54-.08-62.67-28.52-62.55-63.22s28.54-62.66,63.58-62.53C341.32,350.74,369.2,379,369.12,413.66ZM306.3,456.89c23.81-.06,43.46-19.69,43.44-43.42a43.38,43.38,0,1,0-43.44,43.42Z" transform="translate(-196.31 -205.16)"/><path class="cls-6" d="M470.32,298a45.54,45.54,0,1,1-91.07-.6c.08-24.79,20.82-45.19,45.87-45.1A45.5,45.5,0,0,1,470.32,298Z" transform="translate(-196.31 -205.16)"/><path class="cls-7" d="M486.14,523.1a29.57,29.57,0,1,1,29.65-29.75A29.67,29.67,0,0,1,486.14,523.1Z" transform="translate(-196.31 -205.16)"/><path class="cls-8" d="M486.06,537.06c7.39,0,14.8-.24,22.18.06,11.14.45,21.28,9.6,23.3,20.51.35,1.9-.21,3.06-1.9,4.18-25.77,17.11-61,17.16-86.84.2-2.13-1.39-2.48-2.8-2-5,2.21-10.6,12.25-19.48,23.1-19.91C471.25,536.82,478.66,537.06,486.06,537.06Z" transform="translate(-196.31 -205.16)"/><path class="cls-9" d="M306.3,456.89a43.41,43.41,0,1,1,43.44-43.42C349.76,437.2,330.11,456.83,306.3,456.89Zm0-13.82a29.58,29.58,0,1,0-29.56-29.69A29.68,29.68,0,0,0,306.27,443.07Z" transform="translate(-196.31 -205.16)"/><path class="cls-10" d="M306.27,443.07A29.58,29.58,0,1,1,336,413.42,29.41,29.41,0,0,1,306.27,443.07Z" transform="translate(-196.31 -205.16)"/></svg>