<svg id="Layer_1" data-name="Layer 1" xmlns="http://www.w3.org/2000/svg" viewBox="0 0 384.01 383.97"><defs><style>.cls-1{fill:#0b0b0c;}.cls-2{fill:#eff7fc;}.cls-3{fill:#cce2f5;}.cls-4{fill:#111416;}.cls-5{fill:#151413;}</style></defs><title>Share_1</title><path class="cls-1" d="M74.17,357.72c-3.3.42-5.26-1.9-7.49-3.67V345.8c.81-2.17,1.49-4.39,2.44-6.5,4-8.74,10.88-13.87,19.9-16.78Q217.65,281,346.23,239.38c21.52-7,43-14,64.55-20.91,21-6.73,40.62,8,39.89,30a32.1,32.1,0,0,1-1.87,8.73q-52,160.89-104,321.76c-3.66,11.32-10.9,18.79-22.8,21.28-.15,0-.24.38-.35.58h-12c-.12-.2-.2-.54-.36-.58-12.26-3-18.82-11.38-22.84-22.89-15.83-45.36-32-90.61-47.91-136A18.87,18.87,0,0,0,226.24,429Q166,407.73,105.73,386.33c-5.59-2-6.58-3.44-6.12-9,3.28-4.5,4.84-5,10.15-3.15Q143.5,386,177.21,397.9q22.31,7.83,44.64,15.57c2.65,1,5.27,2.09,8,3,10.73,3.5,17.57,10.68,21.28,21.32,10.88,31.19,22,62.31,33,93.46,5.3,15,10.52,30,15.88,45,3.32,9.3,12.05,13.84,21.18,11,6.58-2,9.78-7.07,11.81-13.37q45.6-141.3,91.33-282.56c4.5-13.95,9.25-27.83,13.14-41.95,3-10.81-8.34-22-19.21-19.32a276.24,276.24,0,0,0-29,9.34c-14.17,4.5-28.37,8.94-42.52,13.51Q219.19,294,91.74,335.26c-7.35,2.38-11.47,7.4-12.13,14.9C79.26,354.06,77.58,356.35,74.17,357.72Z" transform="translate(-66.68 -216.83)"/><path class="cls-2" d="M74.17,357.72c3.41-1.37,5.09-3.66,5.44-7.56.66-7.5,4.78-12.52,12.13-14.9q127.47-41.16,254.9-82.41c14.15-4.57,28.35-9,42.52-13.51a268.32,268.32,0,0,1-13.29,35.14c-2.1,4.57-5.68,8.52-6.12,13.82-1.71,1.8-3.37,3.66-5.12,5.41q-36.51,36.54-73.05,73c-2.29,2.29-4.24,4.62-3.39,8.16a15.9,15.9,0,0,0-2.77,1.07,234.44,234.44,0,0,1-53.35,23.85c-7.49,2.27-9.93,5.7-10.22,13.64q-22.32-7.79-44.64-15.57-33.74-11.83-67.45-23.74c-5.31-1.87-6.87-1.35-10.15,3.15-5.44-2.25-11.34-3.37-16.36-6.69C78.52,367.48,75.3,363.36,74.17,357.72Z" transform="translate(-66.68 -216.83)"/><path class="cls-3" d="M221.85,413.47c.29-7.94,2.73-11.37,10.22-13.64A234.44,234.44,0,0,0,285.42,376a15.9,15.9,0,0,1,2.77-1.07c3.35,5.59,7.36,6.13,12,1.46q51.58-51.53,103.12-103.11a13.42,13.42,0,0,0,1.92-2.28,5.86,5.86,0,0,0-.88-7.84,5.79,5.79,0,0,0-7.82-.95,22.34,22.34,0,0,0-3.36,3q-11.74,11.57-23.45,23.15c.44-5.3,4-9.25,6.12-13.82a268.32,268.32,0,0,0,13.29-35.14,276.24,276.24,0,0,1,29-9.34c10.87-2.69,22.18,8.51,19.21,19.32-3.89,14.12-8.64,28-13.14,41.95Q378.6,432.54,332.93,573.83c-2,6.3-5.23,11.33-11.81,13.37-9.13,2.83-17.86-1.71-21.18-11-5.36-15-10.58-30-15.88-45-11-31.15-22.09-62.27-33-93.46-3.71-10.64-10.55-17.82-21.28-21.32C227.12,415.56,224.5,414.46,221.85,413.47ZM269,392.24c-3.7,0-8.64,4.65-8.78,8.31a6.71,6.71,0,0,0,6.57,6.73c3.71-.09,8.43-4.9,8.47-8.64A6.11,6.11,0,0,0,269,392.24Z" transform="translate(-66.68 -216.83)"/><path class="cls-4" d="M369.75,288.3q11.72-11.58,23.45-23.15a22.34,22.34,0,0,1,3.36-3,5.79,5.79,0,0,1,7.82.95,5.86,5.86,0,0,1,.88,7.84,13.42,13.42,0,0,1-1.92,2.28q-51.55,51.57-103.12,103.11c-4.67,4.67-8.68,4.13-12-1.46-.85-3.54,1.1-5.87,3.39-8.16q36.56-36.5,73.05-73C366.38,292,368,290.1,369.75,288.3Z" transform="translate(-66.68 -216.83)"/><path class="cls-5" d="M269,392.24a6.11,6.11,0,0,1,6.26,6.4c0,3.74-4.76,8.55-8.47,8.64a6.71,6.71,0,0,1-6.57-6.73C260.34,396.89,265.28,392.21,269,392.24Z" transform="translate(-66.68 -216.83)"/></svg>