<svg id="Layer_1" data-name="Layer 1" xmlns="http://www.w3.org/2000/svg" viewBox="0 0 385.03 303.42"><defs><style>.cls-1{fill:#e4f5fa;}.cls-2{fill:#556271;}.cls-3{fill:#5a6775;}.cls-4{fill:#b2e2f5;}.cls-5{fill:#717884;}.cls-16,.cls-6{fill:#dddfe3;}.cls-7{fill:#757f8a;}.cls-8{fill:#fafbfb;}.cls-9{fill:#e67c7c;}.cls-10{fill:#b4def1;}.cls-11,.cls-12,.cls-18{fill:none;}.cls-11,.cls-12,.cls-16,.cls-17,.cls-18{stroke:#231f20;stroke-miterlimit:10;}.cls-11,.cls-12{stroke-width:2px;}.cls-12{stroke-linecap:round;}.cls-13{fill:#d1d3d4;}.cls-14{fill:#231f20;}.cls-15{fill:#99cc68;}.cls-16,.cls-17,.cls-18{stroke-width:3px;}.cls-17{fill:#c1dc89;}</style></defs><title>sHARE VECTOR</title><path class="cls-1" d="M624.18,488.15c-7.8,0-37.75,1.17-37.75,1.17s1.83-78.92-1.91-79.47c-8.94-1.33-81.52-.67-84.77.89s2.21,77.84-.93,77.11l-5.52.3c-.17,0-39,.11-78.88,0a12.33,12.33,0,0,1-8.47-3.53,11.93,11.93,0,0,1-3.53-8.47V281.32a12,12,0,0,1,12-12H624.18a12,12,0,0,1,12,12V476.15A12,12,0,0,1,624.18,488.15Z" transform="translate(-402.42 -269.32)"/><ellipse class="cls-2" cx="69.84" cy="164.31" rx="37.56" ry="2.22"/><path class="cls-3" d="M532,572.74H465.54v-1.83h66.57Z" transform="translate(-402.42 -269.32)"/><path class="cls-4" d="M489.59,269.56l-1,.19C488.84,269.28,489.17,269.17,489.59,269.56Z" transform="translate(-402.42 -269.32)"/><path class="cls-2" d="M622.88,528.62c-.7.43-1.18.7-1.63,1a10.32,10.32,0,0,0-1.74,1.41c-4.1,4.64-6.54-4.51-9.81-1.56-3.67,3.32-6.5,3.26-9.62-.33-.7-.81-2-1.55-1-2.81s2.12-.22,2.77.54c2.33,2.74,4.39,1.9,6.47-.27,4.06-4.24,5.78,2.54,8.82,2.13s4.86-6.29,8.73-1.87c2.29,2.62,4.33,2.11,6.41-.24,1.9-2.15,3.84-1.92,5.57.19,2.24,2.74,4.29,2.2,6.37-.17,1.9-2.15,3.82-1.9,5.59.14,2.2,2.53,4.05,2.19,6.41-.06s7.73-.11,8.75,3.08a1.84,1.84,0,0,1-.19,1.52c-.84.93-1.86.28-2.38-.35-2.65-3.2-5-2.12-7.32.39a3.75,3.75,0,0,1-.44.35c-3.9,2.91-5.05-4.08-8.41-2.69-2.68,1.11-4.62,5.78-8.28,1.67a4.74,4.74,0,0,0-2.72-1.78c-2.71-.13-3.94,4-6.47,3.43C626.6,531.91,624.76,529.89,622.88,528.62Z" transform="translate(-402.42 -269.32)"/><path class="cls-5" d="M655.56,502.21c7.32,0,14.64,0,22,0,1.07,0,2.7-.34,2.74,1.09s-1.61,1.15-2.67,1.15q-21.75,0-43.5,0c-1,0-2.64.35-2.52-1.25.1-1.2,1.49-1,2.44-1C641.2,502.21,648.38,502.22,655.56,502.21Z" transform="translate(-402.42 -269.32)"/><path class="cls-3" d="M607.12,317.42c-4.06,5-1.06,10.88-1.85,16.3-.28,1.87-.26,3.58-2.35,4.45s-3.52.16-4.73-1.46c-.11-.15.21-.61.33-.93,1.48-.63,3.79.15,4.1-2.44a3.94,3.94,0,0,0,0-4.88V296.6a15.66,15.66,0,0,0-.1-11c-1.43-2.54-2.76-.58-3.9.22a60.65,60.65,0,0,1-16.16,8.46c-5.34,1.7-13.18,0-15.67,4.38s-.43,11.54-1,17.4c-.47,5,1.44,6.85,6.25,7.18a45.39,45.39,0,0,1,23.34,8.21c1.47,1,4.15,1.5,3.22,4.41-.76.78-1.45.3-2.06-.19-8.64-6.82-18.79-9.26-29.47-10.28-4.93-.47-10.22,4.22-9.69,9,.56,5.05.66,10.34,2.36,15,1.92,5.27-.4,5.14-4.1,4.86-3.38-.26-6.77-.36-10.93-.56,2.67-2.3,2.31-4.51,1.4-7.36-2.36-7.32-5.48-14.13-10.35-20.11-1.36-1.68-4.57-1-5-3.9l-.37-1.9c-5.87.36-7.64-2.57-6.83-8.06a44.67,44.67,0,0,0,0-8.42c-.18-3.64,1.38-5.27,5-4.8l.12,2.38c-2.51,2.2-3.63,13.73-1.42,15.78a8,8,0,0,0,2.6,1.08,7.23,7.23,0,0,0,.78-2.16c0-4.88,0-9.76,0-14.64,0-1.65.1-3.3.16-4.94,1.45-3.22,4.36-2.34,6.9-2.44,11.76-.49,23.55.82,35.31-1A51,51,0,0,0,597.5,283c1.75-1.36,3.37-2.9,6-1.39,2.38,1.38,1.63,3.5,1.7,5.4.11,3.45,0,6.92.05,10.37,0,1.39,0,3.64.78,4,6.58,3.32,2.75,9.19,3.67,13.85-2,0-3-.56-2.28-2.91s1.21-4.93-2.16-7.68C605.3,309.73,603.89,313.84,607.12,317.42ZM562.69,300.2c.69-2.44-.38-3.34-2.76-3.33q-11.59.08-23.19,0c-2.33,0-3.47.83-3,3.28,0,5.89,0,11.77-.19,17.65-.08,2.92.6,4.53,4,4.44q10.65-.28,21.31,0c3.38.09,4.11-1.43,4-4.4C562.72,312,562.75,306.09,562.69,300.2Zm-13.94,30.87c-.88,1.1-5.52-2.5-4.38,2.29,1.35,5.67,3.89,11.07,6,16.55.88,2.29,3,1.82,4.71,1.65,2.64-.25,1.69-2.29,1.5-3.74-.51-4-1.46-8-1.67-12C554.69,331.92,553.36,330.05,548.75,331.07Zm-.26-6.27c-3,1.19-8.76-1.67-8.82,1.82,0,3,5.91,1.34,9.13,1.38,2.92,0,8.21,1.85,8.28-1.69C557.13,323.51,551.49,325.86,548.49,324.8Z" transform="translate(-402.42 -269.32)"/><path class="cls-6" d="M607.12,317.42c-3.23-3.58-1.82-7.69-1.89-12.8,3.37,2.75,2.85,5.32,2.16,7.68s.25,2.94,2.28,2.91C609.59,316.83,608.65,317.46,607.12,317.42Z" transform="translate(-402.42 -269.32)"/><path class="cls-7" d="M615.84,304.06c-1.21.19-2.12-.33-1.93-1.14.71-2.9,3.07-4.53,5.43-6a1.16,1.16,0,0,1,1.67,1.13C620.39,301.05,617.57,302.23,615.84,304.06Z" transform="translate(-402.42 -269.32)"/><path class="cls-3" d="M614.17,314.94c1.52.83,2.44,1,2.86,1.62,1.24,1.71,3.94,2.42,3.65,5.13,0,.25-1.23.73-1.45.55C617,320.53,614.29,319.09,614.17,314.94Z" transform="translate(-402.42 -269.32)"/><path class="cls-8" d="M598.6,335.86c.93-2.91-1.75-3.38-3.22-4.41A45.39,45.39,0,0,0,572,323.24c-4.81-.33-6.72-2.15-6.25-7.18.55-5.86-1.57-12.87,1-17.4s10.33-2.68,15.67-4.38a60.65,60.65,0,0,0,16.16-8.46c1.14-.8,2.47-2.76,3.9-.22,0,3.67.07,7.33.1,11v31.86a8.2,8.2,0,0,0,0,4.88c-.31,2.59-2.62,1.81-4.1,2.44Z" transform="translate(-402.42 -269.32)"/><path class="cls-9" d="M562.69,300.2c.06,5.89,0,11.77.23,17.65.1,3-.63,4.49-4,4.4q-10.65-.28-21.31,0c-3.41.09-4.09-1.52-4-4.44.17-5.88.14-11.76.19-17.65Z" transform="translate(-402.42 -269.32)"/><path class="cls-6" d="M548.75,331.07c4.61-1,5.94.85,6.14,4.71.21,4,1.16,8,1.67,12,.19,1.45,1.14,3.49-1.5,3.74-1.73.17-3.83.64-4.71-1.65-2.09-5.48-4.63-10.88-6-16.55C543.23,328.57,547.87,332.17,548.75,331.07Z" transform="translate(-402.42 -269.32)"/><path class="cls-6" d="M562.69,300.2l-28.91,0c-.51-2.45.63-3.29,3-3.28q11.6.06,23.19,0C562.31,296.86,563.38,297.76,562.69,300.2Z" transform="translate(-402.42 -269.32)"/><path class="cls-6" d="M548.49,324.8c3,1.06,8.64-1.29,8.59,1.51-.07,3.54-5.36,1.73-8.28,1.69-3.22,0-9.18,1.66-9.13-1.38C539.73,323.13,545.45,326,548.49,324.8Z" transform="translate(-402.42 -269.32)"/><path class="cls-7" d="M602.6,296.6c0-3.67-.06-7.33-.1-11A15.66,15.66,0,0,1,602.6,296.6Z" transform="translate(-402.42 -269.32)"/><path class="cls-7" d="M602.62,333.34a8.2,8.2,0,0,1,0-4.88A3.94,3.94,0,0,1,602.62,333.34Z" transform="translate(-402.42 -269.32)"/><path class="cls-2" d="M551.9,352.57c7.07,0,14.14,0,21.21,0,1.73,0,4-.18,3.81,2.56-.17,2-2.12,1.92-3.59,1.93-15.06,0-30.12,0-45.18,0-1.6,0-3.48-.26-3.43-2.14,0-2.47,2.32-2.39,4.12-2.4C536.53,352.54,544.21,352.56,551.9,352.57Z" transform="translate(-402.42 -269.32)"/><path class="cls-2" d="M605.77,498.82c.6.26,1.24.4,1.25.58,0,.45,0,1.14-.37,1.35-2.61,1.7-2.71,3.33-.11,5.11a1.89,1.89,0,0,1,.47,1.37,1.4,1.4,0,0,1-1,.4c-1.91-1.12-4.48-2.45-4.52-4.28S604.32,500.39,605.77,498.82Z" transform="translate(-402.42 -269.32)"/><path class="cls-5" d="M622.76,498.57c.7.38,1.18.49,1.36.76.42.66.06,1.24-.55,1.64-2.41,1.62-2.37,3.16,0,4.77.54.35,1,1,.45,1.64-.78.84-1.62.36-2.12-.25-1.19-1.43-4.2-2.15-3.29-4.32C619.33,501.16,621.35,500,622.76,498.57Z" transform="translate(-402.42 -269.32)"/><path class="cls-5" d="M614.26,498.68c.56.27,1,.36,1.24.63.51.64.14,1.25-.45,1.65-2.26,1.55-2.63,3-.09,4.68.66.43,1.33,1.17.39,1.91s-1.68,0-2.12-.57c-1.1-1.39-4-2.13-3.2-4.07C610.7,501.26,612.78,500.08,614.26,498.68Z" transform="translate(-402.42 -269.32)"/><rect class="cls-10" x="104" y="165.82" width="73.31" height="94.02" rx="4.76"/><rect class="cls-11" x="96.4" y="139.86" width="87.61" height="151.22" rx="4.17"/><line class="cls-12" x1="104" y1="270" x2="177.32" y2="270"/><line class="cls-12" x1="106.54" y1="158.94" x2="174.05" y2="158.94"/><line class="cls-12" x1="132.31" y1="148.78" x2="148.28" y2="148.78"/><path class="cls-13" d="M133.41,276.9h19.22a1.09,1.09,0,0,1,1.09,1.09v6.88a1.1,1.1,0,0,1-1.1,1.1H133.41a1.09,1.09,0,0,1-1.09-1.09V278A1.09,1.09,0,0,1,133.41,276.9Z"/><path class="cls-14" d="M495.31,377.29A31.14,31.14,0,0,1,464.54,409c-18,.16-32.18-13.56-32.24-31.22a31.51,31.51,0,1,1,63-.46Zm-43.06-8.37c-.44,1.42-1.62,2.81-.67,4.36a109.14,109.14,0,0,0,6.6,10.25c2.47,3.18,9.05,3.23,11.39,0,4.35-6.09,9-12.33,5.18-20.72-6.3,3.94-14.72-.64-20.64,5.14.7-4.08,3.54-5.5,7.26-5.71,2.19-.12,4.4-.05,6.6,0s4.21,0,4.74-2.68c.61-3.13-1.88-3.67-3.89-4.35C458.37,351.54,451.59,357.22,452.25,368.92Zm32.1,28.95c11.82-12.08,11.35-30.8-.55-41.74a29.48,29.48,0,0,0-41.49,1.62c-10.15,11-10.6,30.22,1.19,39.9,1.67-3.95,5.37-4.94,8.94-6.16,6.33-2.16,6.31-2.19,2.7-7.9-3.85-6.11-8.08-12.07-5.2-20,1-2.7,1.07-5.7,3.32-7.86,4.75-4.57,15.13-4.92,20.53-.68,4,3.11,6.85,16.55,3.88,20.42-2.41,3.14-3.76,6.87-6.27,9.88s-1.29,4.45,1.86,5.56C477.38,392.33,482.08,392.91,484.35,397.87Zm-20.57,8.89a31.36,31.36,0,0,0,15.33-4.4c2.12-1.28,3.89-2.82,1.78-5.17-1.87-2.08-4.83-4.54-7.32-2.32-6.71,6-12.63,5.75-19.41.09-2.73-2.28-5.89.17-7.66,2.71-1.92,2.74.76,3.77,2.6,4.92A30.08,30.08,0,0,0,463.78,406.76ZM455.94,393c3.1,3.49,6.29,4.53,10.08,3.69,2-.44,3.94-1.15,5-3.16-2.84-.82-2.62-4.62-6-5.47C459.87,386.7,460,392.57,455.94,393Z" transform="translate(-402.42 -269.32)"/><path class="cls-14" d="M448.14,339.7a36.83,36.83,0,0,1,24.3-2.53A40.32,40.32,0,0,1,497.73,354c.59.84,2,2,.46,3-1.11.73-1.7-.58-2.29-1.36-11.45-15.31-26.44-20-44.68-14.88a4.71,4.71,0,0,1-1.48.23C449.48,341,449.25,340.63,448.14,339.7Z" transform="translate(-402.42 -269.32)"/><path class="cls-14" d="M478.73,414.24c-6.28,5.67-20.86,5.86-32,.71-7.69-3.56-14.21-8.54-17.17-17.07,6.09,7.19,12.81,13.35,22,16.41S469.62,416.42,478.73,414.24Z" transform="translate(-402.42 -269.32)"/><path class="cls-8" d="M484.35,397.87c-2.27-5-7-5.54-11.09-7-3.15-1.11-4.27-2.65-1.86-5.56s3.86-6.74,6.27-9.88c3-3.87.08-17.31-3.88-20.42-5.4-4.24-15.78-3.89-20.53.68-2.25,2.16-2.35,5.16-3.32,7.86-2.88,8,1.35,13.93,5.2,20,3.61,5.71,3.63,5.74-2.7,7.9-3.57,1.22-7.27,2.21-8.94,6.16-11.79-9.68-11.34-28.91-1.19-39.9a29.48,29.48,0,0,1,41.49-1.62C495.7,367.07,496.17,385.79,484.35,397.87Z" transform="translate(-402.42 -269.32)"/><path class="cls-8" d="M454.11,367.9c5.92-5.78,14.34-1.2,20.64-5.14,3.8,8.39-.83,14.63-5.18,20.72-2.34,3.28-8.92,3.23-11.39,0a109.14,109.14,0,0,1-6.6-10.25c-.95-1.55.23-2.94.67-4.36A2,2,0,0,0,454.11,367.9Z" transform="translate(-402.42 -269.32)"/><path class="cls-8" d="M463.78,406.76a30.08,30.08,0,0,1-14.68-4.17c-1.84-1.15-4.52-2.18-2.6-4.92,1.77-2.54,4.93-5,7.66-2.71,6.78,5.66,12.7,5.89,19.41-.09,2.49-2.22,5.45.24,7.32,2.32,2.11,2.35.34,3.89-1.78,5.17A31.36,31.36,0,0,1,463.78,406.76Z" transform="translate(-402.42 -269.32)"/><path class="cls-6" d="M454.11,367.9a2,2,0,0,1-1.86,1c-.66-11.7,6.12-17.38,16.57-13.8,2,.68,4.5,1.22,3.89,4.35-.53,2.71-2.65,2.68-4.74,2.68s-4.41-.08-6.6,0C457.65,362.4,454.81,363.82,454.11,367.9Z" transform="translate(-402.42 -269.32)"/><path class="cls-6" d="M455.94,393c4.1-.38,3.93-6.25,9.09-4.94,3.36.85,3.14,4.65,6,5.47-1.05,2-3,2.72-5,3.16C462.23,397.48,459,396.44,455.94,393Z" transform="translate(-402.42 -269.32)"/><path class="cls-14" d="M479.07,515c-2.79,5.85-4.32,12.27-8.58,17.48-1.85,2.27-.91,4.39,2.3,5.26,2.88.79,5.63,2.06,8.44,3.09a7.79,7.79,0,0,1,4.92,5.64c.3,1.09.81,2.62-.62,3.13-1.68.59-1.58-1.13-2.09-2.13-3-5.8-6.76-6.57-12.1-2.54a14,14,0,0,1-17.75-.06c-5.24-4-9.15-3.12-11.92,2.77-.51,1.07-.55,2.6-2.2,1.94-1.48-.59-.86-2-.59-3.13,1-4.35,4.65-5.65,8.28-7,9.31-3.41,9.26-3.39,4.36-11.62a34.5,34.5,0,0,1-5-15.25c-.13-1.85-.24-3.73,2.49-3.77,8.54-.09,16-2.89,23.24-10.83-1.52,6.44.74,9.11,4.65,10.75,3.1,1.3.55,4.5,2.06,6.35Zm-16.6,17.55c3-.28,5.48-1.35,7.15-3.89A47.87,47.87,0,0,0,474.8,518c1.6-4.62-.47-6.92-3.59-10-3.47-3.42-5.19-.3-7.67.57-2.24.78-4.49,1.6-6.8,2.16-8.38,2-8.69,2.46-5.17,10.71a54.82,54.82,0,0,0,4.31,7.79C457.38,531.58,459.92,532.23,462.47,532.51Zm.17,12.62c3.09-.17,7.58-.86,7.51-3.9a7.54,7.54,0,0,0-7.73-6.31c-5,.12-7.64,4.38-7.7,6.35C454.63,544.19,459.13,545,462.64,545.13Z" transform="translate(-402.42 -269.32)"/><path class="cls-14" d="M479,515.06c3.22-5.64,1.81-13.55-3.34-18.79a18.23,18.23,0,0,0-22-3.19c-7.21,4.16-10,10.62-9.22,18.69.51,5,1.32,9.93.1,14.89-.81,3.27,1.08,4.27,3.67,4.89,1,.22,2.19.42,1.95,1.72-.32,1.8-1.77,1.14-2.86.92-4.23-.87-7.45-2.06-5.73-7.82,1.63-5.41.07-11.12,0-16.7-.2-10.15,5.88-18.38,15.37-21a21.2,21.2,0,0,1,26.5,24,46.47,46.47,0,0,0-.11,13.73c1,6.33-1,8.14-8.24,7.28-.38-1.78,1-1.94,2.13-2.16,3.23-.65,4.3-2.42,3.26-5.59-1.17-3.55.71-7.5-1.34-11Z" transform="translate(-402.42 -269.32)"/><path class="cls-8" d="M462.47,532.51c-2.55-.28-5.09-.93-6.59-3.32a54.82,54.82,0,0,1-4.31-7.79c-3.52-8.25-3.21-8.69,5.17-10.71,2.31-.56,4.56-1.38,6.8-2.16,2.48-.87,4.2-4,7.67-.57,3.12,3.07,5.19,5.37,3.59,10a47.87,47.87,0,0,1-5.18,10.67C468,531.16,465.48,532.23,462.47,532.51Z" transform="translate(-402.42 -269.32)"/><path class="cls-6" d="M462.64,545.13c-3.51-.09-8-.94-7.92-3.86.06-2,2.67-6.23,7.7-6.35a7.54,7.54,0,0,1,7.73,6.31C470.22,544.27,465.73,545,462.64,545.13Z" transform="translate(-402.42 -269.32)"/><path class="cls-3" d="M557.16,391.43c-9.42-1.74-18.73-5.62-28.16,1.79,1.8-5.7,4-7.73,9.52-8.58C545.67,383.54,552.39,384.28,557.16,391.43Z" transform="translate(-402.42 -269.32)"/><path class="cls-3" d="M550.39,396.39c-4.44-.26-8.73-2.12-13,.69a1.88,1.88,0,0,1-3-.94c-.51-1.6.86-2.09,2-2.62C541.64,391,546.53,390.75,550.39,396.39Z" transform="translate(-402.42 -269.32)"/><path class="cls-6" d="M429.77,462.26c.27.34.55.67.83,1C430.32,462.93,430,462.6,429.77,462.26Z" transform="translate(-402.42 -269.32)"/><path class="cls-15" d="M412.89,453.44l.06-5.86c7-2.14,14.22-.76,21.33-.9,13.26-.26,13.17-.07,13,13.43-.05,3.14-.93,4.32-4.18,4.24-7.82-.19-15.66-.37-23.47,0-4.84.26-6.48-1.5-5.86-6,0-1.31,0-2.62,0-3.93Zm4.4-4.53,0,1h26.61l0-1Zm26.56,7.2V455H426.06l0,1.12Zm-26.56,5.29c4.1.94,8.21,1.59,12.21-.19A18,18,0,0,0,417.29,461.4Z" transform="translate(-402.42 -269.32)"/><path class="cls-6" d="M413.72,458.38c-.62,4.52,1,6.28,5.86,6,7.81-.42,15.65-.24,23.47,0,3.25.08,4.13-1.1,4.18-4.24.22-13.5.31-13.69-13-13.43-7.11.14-14.31-1.24-21.33.9l-1.32,0c-.36-2.49.62-3.55,3.22-3.52q15.91.2,31.82.18c2.27,0,3.26.82,3.22,3.15-.09,5.38,0,10.77-.05,16.16,0,1.12.08,2.92-1.22,2.8-4.14-.39-4.88,2.21-5.26,5.92-3-6.34-8.26-5.59-13.33-5.48-4.24.09-8.52-.3-12.72.1-4.88.48-6.54-1.45-5.78-6,.13-.8.17-1.62.25-2.42Z" transform="translate(-402.42 -269.32)"/><path class="cls-3" d="M411.78,458.4c-.08.8-.12,1.62-.25,2.42-.76,4.59.9,6.52,5.78,6,4.2-.4,8.48,0,12.72-.1,5.07-.11,10.32-.86,13.33,5.48.38-3.71,1.12-6.31,5.26-5.92,1.3.12,1.21-1.68,1.22-2.8,0-5.39,0-10.78.05-16.16,0-2.33-.95-3.15-3.22-3.15q-15.9,0-31.82-.18c-2.6,0-3.58,1-3.22,3.52-3.39,1-2.26-1.66-2.43-3.14-.26-2.34,1.25-2.58,3.1-2.57,9,0,17.93,0,26.89.05,4,.05,9.24-1.73,11.82.73,2.82,2.69.73,8,1,12.17.15,2.6.07,5.22,0,7.82-.07,3,1.3,6.84-4.31,6.48-2.07-.14-1.21,2.21-1.43,3.52s.57,2.8-1.26,3.26c-1.55.38-2.32-.91-3.18-1.85-1.54-1.68-3-3.41-4.52-5.11-5.7-1.34-11.44-.67-17.17-.38h-4.86a10.15,10.15,0,0,0-4.93,0H410l-.21-.23.06-15.78C413.47,453.53,410.6,456.62,411.78,458.4Z" transform="translate(-402.42 -269.32)"/><path class="cls-3" d="M417.29,448.91h26.6l0,1H417.32Z" transform="translate(-402.42 -269.32)"/><path class="cls-3" d="M445.18,459.75H427.42l0-1.13h17.78Z" transform="translate(-402.42 -269.32)"/><path class="cls-3" d="M418.62,465a18,18,0,0,1,12.21-.19C426.83,466.63,422.72,466,418.62,465Z" transform="translate(-402.42 -269.32)"/><circle class="cls-16" cx="237.73" cy="126.58" r="34.97"/><circle class="cls-17" cx="344.7" cy="51.98" r="34.97"/><circle class="cls-17" cx="348.56" cy="202.91" r="34.97"/><line class="cls-18" x1="264.76" y1="148.78" x2="317.53" y2="186.79"/><line class="cls-18" x1="265.26" y1="105.02" x2="313.59" y2="67.94"/></svg>