<svg id="Layer_1" data-name="Layer 1" xmlns="http://www.w3.org/2000/svg" viewBox="0 0 384.13 359.6"><defs><style>.cls-1{fill:#090909;}.cls-2{fill:#f9e286;}.cls-3{fill:#dceaef;}.cls-4{fill:#ebf1f2;}.cls-5{fill:#7f8c93;}.cls-6{fill:#a8c9ea;}.cls-7{fill:#ef6b72;}.cls-8{fill:#fae287;}.cls-9{fill:#f26c73;}.cls-10{fill:#8db1dd;}.cls-11{fill:#f5d16d;}.cls-12{fill:#e55159;}.cls-13{fill:#465c6b;}.cls-14{fill:#0e0d05;}.cls-15{fill:#0a0d10;}.cls-16{fill:#0e0c09;}.cls-17{fill:#f6cd58;}.cls-18{fill:#fee27b;}.cls-19{fill:#0a0c04;}.cls-20{fill:#9bcc7a;}.cls-21{fill:#85c260;}</style></defs><title>Shop order accept</title><path class="cls-1" d="M397.39,700.43c4.3.93,5.61,3.76,5.59,7.93-.1,21.19,0,42.38-.11,63.57,0,3.16.54,4.31,4,4.19,6.21-.21,12.55-1,18.63.49C435.27,778.9,441.63,785,444,795c.06.27.44.47.68.7v15c-2.4,5.11-6.37,6.85-12,6.84q-180-.16-360,0c-7.48,0-12.89-3.86-12-12.31.37-3.58-.23-7.19.72-10.79a24.06,24.06,0,0,1,22.36-18.31c5.11-.21,10.25-.24,15.36-.06,2.63.09,3.38-.69,3.36-3.33-.12-15.13-.06-30.25-.06-45.38,0-25.37,0-50.74.06-76.12,0-2.64-.65-4.15-3-5.62C87.09,638,80.85,626.77,80.6,612.33c-.15-8.5,0-17,0-25.5a11,11,0,0,1,1.58-5.67q8.88-15.37,17.64-30.8c3.7-6.54,9.08-10.06,16.76-9.8,3.87.12,7.76-.13,11.62.07,2.45.13,3.15-.59,3.13-3.08-.12-15.62.2-31.26-.16-46.87-.2-8.64,5.78-15.94,15.22-15.35,7.47.47,15,.08,22.5.1,4.36,0,5.89,1.35,6.76,5.76-1.17,4.32-2.63,5.47-7.08,5.49-7.35,0-14.7.11-22.05-.05-3-.07-3.93,1.05-3.92,3.92.07,20.06,0,40.11.06,60.17,0,1.27-.45,2.84,1.35,3.45,1.16.71,2.44.4,3.66.4q105.12,0,210.24,0c4.75,0,4.82-.08,4.83-4.81,0-17.74.09-35.48,0-53.22-.07-11.06,2.13-9.95-10.27-9.7-1.5,0-3-.11-4.49-.11H196.17c-4.87,0-6.28-1.06-7.47-5.48.84-4.39,2.4-5.76,6.74-5.77q82.62,0,165.23,0c7.83,0,13.34,5.76,13.37,14,0,15.87.1,31.73-.06,47.59,0,3,.77,3.83,3.7,3.66,4.23-.25,8.49-.08,12.74,0a15.61,15.61,0,0,1,13.93,8c6.53,11,12.83,22.2,19.24,33.3a8.47,8.47,0,0,1,1.1,4.29c0,9.49.23,19-.21,28.47-.65,13.71-7.35,24.08-19,31.22a4.65,4.65,0,0,0-2.64,4.67c.14,9.86,0,19.73.09,29.59,0,4.08-1.46,6.71-5.58,7.57-4.9-1.58-5.89-2.91-5.89-8.05,0-8.71,0-17.43,0-26.15,0-1.28.49-2.88-1.92-2.49-5.51.91-10.85-.24-16.18-1.52-8.61-3.38-15.79-8.64-20.85-16.69C336,657.53,302.05,657.3,286,633c-16.11,24.36-50.46,24.45-66.74-.1-7.91,11.88-19,18.36-33.23,18.37s-25.19-6.71-33.18-18.43c-9.14,13-21.14,19.5-36.88,18.15-2.56-.22-2.17,1.17-2.17,2.65,0,24.62,0,49.25-.06,73.87,0,2.66,1,3,3.2,3,7.5-.12,15-.07,22.5,0,4.32,0,5.82,1.34,6.86,5.76-.55,3.85-2.77,5.58-6.65,5.54-7.62-.07-15.23.06-22.85-.06-2.21,0-3,.45-3,2.86q.21,14.23,0,28.47c0,2.56.86,3.07,3.21,3.06q40.46-.11,80.91,0c2.52,0,3.12-.76,3.09-3.17q-.19-14,0-28.09c0-2.42-.59-3.19-3.09-3.16-10.49.14-21,.08-31.47,0-4.61,0-5.87-1-7-5.5,1-4.48,2.62-5.77,7.25-5.78,10.37,0,20.75-.11,31.12.07,2.67,0,3.26-.7,3.25-3.3-.12-19.62-.07-39.24-.07-58.86,0-8.22,3.34-11.61,11.53-11.62q40.13,0,80.24,0c8.45,0,11.68,3.32,11.68,11.85q0,29.43,0,58.87c0,1.6-.41,3.07,2.29,3,22.25-.16,44.49-.15,66.73-.2,5.24,0,10.47,0,15.7.18,2,.07,2.48-.65,2.45-2.55-.11-6.48,0-13,0-19.45C391.51,703.38,392.47,702.08,397.39,700.43ZM358.48,591.65a180.17,180.17,0,0,0,0,24.59c1,12.23,12.92,23.27,24.61,23.38A26.75,26.75,0,0,0,412,620.48c2.57-9.14.77-18.61,1.15-27.93.07-1.71-1.32-1.5-2.41-1.49-4.73,0-9.47.11-14.21.16l-37.45,0C358.67,591,358.44,591.15,358.48,591.65ZM373.34,775.9c5.22.06,10.44,0,15.66.2,2,.06,2.5-.78,2.49-2.63q-.09-14.57,0-29.12c0-1.83-.41-2.7-2.47-2.63-5.22.16-10.44.12-15.67.17l-68.24,0c-.48-.15-.66,0-.59.51l0,33.08c-.06.46.11.64.57.47Zm-114.74-.51c.84,1.47,2.23.71,3.34.72,9.11,0,18.23-.13,27.33.07,3.12.07,3.91-.8,3.9-3.9-.12-31.71-.07-63.42-.07-95.12,0-9.55,0-9.55-9.74-8.95-7-.05-14,.06-21-.22-3.16-.13-4.18.54-4.16,4,.15,33.23.09,66.47.1,99.7C258.33,772.92,258.51,774.15,258.6,775.39ZM377.86,552.05c-1.42.27-3.28-1.41-4,1.61-2.16,9.22-6.28,12.25-15.89,12.25q-105.37,0-210.73,0a31.41,31.41,0,0,1-5.22-.41c-5.17-.89-9-4.06-9.89-9-.78-4.35-2.7-5.12-6.31-4.62a10.72,10.72,0,0,1-1.5,0c-14.5.19-11-1.87-18.4,10.6-3.26,5.52-6.36,11.13-9.82,17.22h293c1.25,0,2.49-.09,3.74-.13h16.26c-5-8.71-9.66-16.86-14.38-25a5.32,5.32,0,0,0-5-2.71Q383.83,552,377.86,552.05ZM411.51,787.6c-1.12-.07-2.24-.19-3.36-.19h-322c-8.82,0-14,5.43-14.37,14.21-.17,3.84.94,4.65,4.68,4.64q167.73-.16,335.47-.09c1.38,0,2.75-.06,4.12-.1,4.86,0,9.72.09,14.59.08,1,0,2.19.36,2.69-1.24,2.43-7.63-4.21-17-12.5-17.44C417.75,787.32,414.62,787.54,411.51,787.6ZM247,722.15c0-17,0-34,.05-51,0-2.32-.43-3.24-3-3.2-9.62.16-19.24.12-28.85,0-2.15,0-3,.34-3,2.81q.13,51.15,0,102.29c0,2.56.83,3.08,3.19,3,9.37-.12,18.74-.2,28.1,0,3.16.08,3.62-1.09,3.61-3.84C246.9,755.62,247,738.89,247,722.15ZM186.2,591c-8.23,0-16.47,0-24.71,0-1.76,0-3.15-.06-3.08,2.43.2,7.23-.13,14.49.39,21.7,1,13.63,12,24,25.87,24.77a27.1,27.1,0,0,0,28.26-21.64c1.7-8.5.42-17.17.7-25.76.07-2.09-1.63-1.45-2.72-1.46C202.68,591,194.44,591,186.2,591Zm66.71,0c-8.37,0-16.75.05-25.12,0-2,0-2.92.39-2.87,2.66.14,6.49-.16,13,.13,19.49.63,14.62,11.72,25.94,25.81,26.67,14.79.76,26.66-8.82,28.95-23.54,1.14-7.32.15-14.72.55-22.07.16-2.82-1-3.27-3.45-3.23C268.91,591.14,260.91,591.05,252.91,591.05ZM319,591c-8.24,0-16.47.07-24.71,0-2.14,0-2.75.64-2.71,2.74.13,6.36,0,12.73.06,19.1.12,13.26,10.43,25.24,23.07,26.86,14.55,1.86,27.31-6.22,31-19.87,2.26-8.45.76-17.14,1.21-25.7.13-2.46-.69-3.19-3.17-3.14C335.47,591.13,327.23,591,319,591Zm-199.56,0c-8,0-16,.09-24,0-2.5,0-3.54.45-3.44,3.23.21,6.24,0,12.5.1,18.75.2,13.44,10.51,25.24,23.25,26.71C130.15,641.39,143,633,146.17,619c2-8.6.49-17.43.85-26.14.1-2.23-1.53-1.84-2.85-1.84Z" transform="translate(-60.51 -475.3)"/><path class="cls-2" d="M144,554.17c-1.8-.61-1.35-2.18-1.35-3.45,0-20.06,0-40.11-.06-60.17,0-2.87.95-4,3.92-3.92,7.35.16,14.7.06,22.05.05,4.45,0,5.91-1.17,7.08-5.49h13.1c1.19,4.42,2.6,5.48,7.47,5.48H347.89c1.5,0,3,.07,4.49.11q0,30.92,0,61.83c0,6.11.7,5.49-5.31,5.49ZM306.07,521a27.87,27.87,0,1,0-28.14,27.92A28,28,0,0,0,306.07,521Zm-103.21,0c0,7,0,14,0,21,0,4.25,2.34,7,5.69,6.87s5.58-2.79,5.64-7.05.18-8.75,0-13.12c-.13-2.57.83-3.12,3.18-3,4.49.17,9,.16,13.49,0,2.25-.08,3.08.5,3,2.89-.19,4.61-.1,9.24,0,13.87.05,3.8,2.16,6.28,5.32,6.43s5.92-2.46,5.94-6.32q.12-21.74,0-43.48c0-3.63-2.6-6.21-5.72-6.2s-5.46,2.49-5.53,6.24c-.08,4-.17,8,0,12,.12,2.49-.39,3.58-3.2,3.42-4.48-.24-9-.18-13.48,0-2.24.08-3.1-.44-3-2.85.21-4,.12-8,0-12s-2.59-6.9-5.91-6.78-5.38,2.67-5.42,6.77C202.82,506.75,202.86,513.88,202.86,521ZM176.8,548.87c10.12.08,18-5.71,19.7-13.89,1.66-7.93-2.43-14.54-11.58-18.51-3.64-1.58-7.38-3-11-4.47-1.72-.71-3.69-1.31-3.26-3.82.4-2.33,2.08-3.21,4.2-3.62,4.21-.81,7.8.59,11.25,2.86,3.18,2.09,6.4,1.6,8.3-1s1.44-5.84-1.72-8.11c-6.23-4.48-13.11-6.52-20.8-4.76a16.08,16.08,0,0,0-12.72,14.39c-.52,6.05,3.15,11.41,9.89,14.28,4.23,1.8,8.55,3.4,12.75,5.26,2,.87,3.89,2.19,3.71,4.68-.2,2.69-2.18,4.14-4.6,4.81-5.6,1.55-10.22-.42-14.36-4.13-2.85-2.54-6-2.53-8.29-.11s-2.12,5.51.57,8.27A26.87,26.87,0,0,0,176.8,548.87Zm135.17-28v4.87c0,5.5-.06,11,0,16.49.06,4,2.36,6.59,5.65,6.64s5.54-2.56,5.65-6.52c0-1.49-.07-3,0-4.49.16-2.71-1.13-6.07.59-7.94,1.46-1.58,4.75-.36,7.22-.5,9.19-.53,16.91-8,17.49-16.93a18.26,18.26,0,0,0-14.88-19.16c-4.72-.94-9.46-.44-14.19-.49-5.42-.07-7.54,2.09-7.56,7.41C312,507.11,312,514,312,520.86Z" transform="translate(-60.51 -475.3)"/><path class="cls-3" d="M397.39,700.43c-4.92,1.65-5.88,3-5.9,8.07,0,6.49-.07,13,0,19.45,0,1.9-.41,2.62-2.45,2.55-5.23-.18-10.46-.13-15.7-.18V717.89c4.45-2.15,6.05-5.81,6-10.6-.09-13.07-.14-26.13,0-39.19.06-5-1.73-8.61-6.11-11l.07-7.62c5.33,1.28,10.67,2.43,16.18,1.52,2.41-.39,1.92,1.21,1.92,2.49,0,8.72,0,17.44,0,26.15,0,5.14,1,6.47,5.89,8.05Z" transform="translate(-60.51 -475.3)"/><path class="cls-4" d="M373.38,649.52q0,3.81-.07,7.62c-15.84-.82-31.7-.43-47.54-.21-4.94.07-8.22,4.05-8.28,9.75q-.23,20.79,0,41.58c.08,6.74,3.87,10.18,10.66,10.19q20.42,0,40.83,0a36.86,36.86,0,0,0,4.41-.54v12.43c-22.24,0-44.48,0-66.73.2-2.7,0-2.29-1.45-2.29-3q0-29.43,0-58.87c0-8.53-3.23-11.84-11.68-11.85q-40.11,0-80.24,0c-8.19,0-11.52,3.4-11.53,11.62,0,19.62,0,39.24.07,58.86,0,2.6-.58,3.34-3.25,3.3-10.37-.18-20.75-.09-31.12-.07-4.63,0-6.2,1.3-7.25,5.78H146.27c-1-4.42-2.54-5.74-6.86-5.76-7.5,0-15-.09-22.5,0-2.25,0-3.22-.29-3.2-3,.11-24.62.07-49.25.06-73.87,0-1.48-.39-2.87,2.17-2.65,15.74,1.35,27.74-5.18,36.88-18.15,8,11.72,19,18.43,33.18,18.43s25.32-6.49,33.23-18.37c16.28,24.55,50.63,24.46,66.74.1,16.08,24.26,50,24.49,66.56-.21C357.59,640.88,364.77,646.14,373.38,649.52Zm-216.31,7.22v0c-7.11,0-14.23-.1-21.35,0-6,.11-9.75,3.88-9.78,9.91q-.12,20.79,0,41.58c0,6.39,3.91,10.15,10.32,10.16q20.42,0,40.83,0c7,0,10.66-3.5,10.72-10.52q.18-20.41,0-40.83c-.07-6.88-3.64-10.26-10.5-10.34S163.82,656.74,157.07,656.74Z" transform="translate(-60.51 -475.3)"/><path class="cls-5" d="M416.07,806.07c-1.37,0-2.74.1-4.12.1q-167.73,0-335.47.09c-3.74,0-4.85-.8-4.68-4.64.37-8.78,5.55-14.21,14.37-14.21h322c1.12,0,2.24.12,3.36.19A25.38,25.38,0,0,1,416.07,806.07Z" transform="translate(-60.51 -475.3)"/><path class="cls-6" d="M392.87,579.59c-1.25,0-2.49.13-3.74.13h-293c3.46-6.09,6.56-11.7,9.82-17.22,7.37-12.47,3.9-10.41,18.4-10.6a10.72,10.72,0,0,0,1.5,0c3.61-.5,5.53.27,6.31,4.62.87,4.91,4.72,8.08,9.89,9a31.41,31.41,0,0,0,5.22.41q105.36,0,210.73,0c9.61,0,13.73-3,15.89-12.25.71-3,2.57-1.34,4-1.61a16.43,16.43,0,0,0,2.19,4.66Q386.48,568.14,392.87,579.59Z" transform="translate(-60.51 -475.3)"/><path class="cls-6" d="M247,722.15c0,16.74,0,33.47.06,50.21,0,2.75-.45,3.92-3.61,3.84-9.36-.24-18.73-.16-28.1,0-2.36,0-3.19-.49-3.19-3q.13-51.15,0-102.29c0-2.47.87-2.83,3-2.81,9.61.1,19.23.14,28.85,0,2.59,0,3,.88,3,3.2C246.91,688.18,247,705.17,247,722.15Z" transform="translate(-60.51 -475.3)"/><path class="cls-7" d="M146.27,736.23h13.09c1.17,4.46,2.43,5.49,7,5.5,10.49,0,21,.09,31.47,0,2.5,0,3.12.74,3.09,3.16q-.19,14,0,28.09c0,2.41-.57,3.18-3.09,3.17q-40.45-.12-80.91,0c-2.35,0-3.25-.5-3.21-3.06q.23-14.24,0-28.47c0-2.41.81-2.9,3-2.86,7.62.12,15.23,0,22.85.06C143.5,741.81,145.72,740.08,146.27,736.23Z" transform="translate(-60.51 -475.3)"/><path class="cls-6" d="M258.6,775.39c-.09-1.24-.27-2.47-.27-3.71,0-33.23.05-66.47-.1-99.7,0-3.45,1-4.12,4.16-4,7,.28,14,.17,21,.22q0,51.81.09,103.61c0,2.72-.65,3.74-3.53,3.66C272.82,775.28,265.71,775.4,258.6,775.39Z" transform="translate(-60.51 -475.3)"/><path class="cls-8" d="M186.2,591c8.24,0,16.48,0,24.71,0,1.09,0,2.79-.63,2.72,1.46-.28,8.59,1,17.26-.7,25.76a27.1,27.1,0,0,1-28.26,21.64c-13.87-.81-24.89-11.14-25.87-24.77-.52-7.21-.19-14.47-.39-21.7-.07-2.49,1.32-2.44,3.08-2.43C169.73,591.05,178,591,186.2,591Z" transform="translate(-60.51 -475.3)"/><path class="cls-7" d="M252.91,591.05c8,0,16,.09,24,0,2.46,0,3.61.41,3.45,3.23-.4,7.35.59,14.75-.55,22.07-2.29,14.72-14.16,24.3-28.95,23.54-14.09-.73-25.18-12.05-25.81-26.67-.29-6.49,0-13-.13-19.49,0-2.27.87-2.68,2.87-2.66C236.16,591.1,244.54,591.05,252.91,591.05Z" transform="translate(-60.51 -475.3)"/><path class="cls-8" d="M319,591c8.24,0,16.48.1,24.71-.06,2.48-.05,3.3.68,3.17,3.14-.45,8.56,1.05,17.25-1.21,25.7-3.65,13.65-16.41,21.73-31,19.87-12.64-1.62-22.95-13.6-23.07-26.86-.05-6.37.07-12.74-.06-19.1,0-2.1.57-2.77,2.71-2.74C302.52,591.1,310.75,591,319,591Z" transform="translate(-60.51 -475.3)"/><path class="cls-9" d="M304.55,775.46l0-33.07.59-.52,68.24,0q0,17,0,34l-68.22,0Z" transform="translate(-60.51 -475.3)"/><path class="cls-7" d="M119.43,591.05h24.74c1.32,0,3-.39,2.85,1.84-.36,8.71,1.13,17.54-.85,26.14-3.21,13.94-16,22.35-30.83,20.65-12.74-1.47-23-13.27-23.25-26.71-.1-6.25.11-12.51-.1-18.75-.1-2.78.94-3.28,3.44-3.23C103.43,591.14,111.43,591.05,119.43,591.05Z" transform="translate(-60.51 -475.3)"/><path class="cls-9" d="M383.11,639.62c-11.69-.11-23.64-11.15-24.61-23.38a180.17,180.17,0,0,1,0-24.59l.63-.46,37.45,0c0,5.61,0,11.21.09,16.81a50.86,50.86,0,0,1-1.81,15.07C392.86,630,387.73,634.62,383.11,639.62Z" transform="translate(-60.51 -475.3)"/><path class="cls-10" d="M258.6,775.39c7.11,0,14.22-.11,21.32.09,2.88.08,3.54-.94,3.53-3.66q-.13-51.8-.09-103.61c9.74-.6,9.74-.6,9.74,8.95,0,31.7-.05,63.41.07,95.12,0,3.1-.78,4-3.9,3.9-9.1-.2-18.22,0-27.33-.07C260.83,776.1,259.44,776.86,258.6,775.39Z" transform="translate(-60.51 -475.3)"/><path class="cls-11" d="M144,554.17l203.11,0c6,0,5.31.62,5.31-5.49q0-30.92,0-61.83c12.4-.25,10.2-1.36,10.27,9.7.13,17.74,0,35.48,0,53.22,0,4.73-.08,4.81-4.83,4.81q-105.12,0-210.24,0C146.4,554.57,145.12,554.88,144,554.17Z" transform="translate(-60.51 -475.3)"/><path class="cls-12" d="M383.11,639.62c4.62-5,9.75-9.58,11.73-16.52A50.86,50.86,0,0,0,396.65,608c-.1-5.6-.06-11.2-.09-16.81,4.74-.05,9.48-.12,14.21-.16,1.09,0,2.48-.22,2.41,1.49-.38,9.32,1.42,18.79-1.15,27.93A26.75,26.75,0,0,1,383.11,639.62Z" transform="translate(-60.51 -475.3)"/><path class="cls-12" d="M373.34,775.9q0-17,0-34c5.23,0,10.45,0,15.67-.17,2.06-.07,2.48.8,2.47,2.63q-.09,14.56,0,29.12c0,1.85-.45,2.69-2.49,2.63C383.78,775.94,378.56,776,373.34,775.9Z" transform="translate(-60.51 -475.3)"/><path class="cls-10" d="M392.87,579.59q-6.4-11.45-12.82-22.88a16.43,16.43,0,0,1-2.19-4.66q6-.06,11.92-.14a5.32,5.32,0,0,1,5,2.71c4.72,8.11,9.37,16.26,14.38,25Z" transform="translate(-60.51 -475.3)"/><path class="cls-13" d="M416.07,806.07a25.38,25.38,0,0,0-4.56-18.47c3.11-.06,6.24-.28,9.34-.13,8.29.39,14.93,9.81,12.5,17.44-.5,1.6-1.67,1.24-2.69,1.24C425.79,806.16,420.93,806.11,416.07,806.07Z" transform="translate(-60.51 -475.3)"/><path class="cls-12" d="M359.11,591.19l-.63.46C358.44,591.15,358.67,591,359.11,591.19Z" transform="translate(-60.51 -475.3)"/><path class="cls-12" d="M305.11,741.87l-.59.52C304.45,741.91,304.63,741.72,305.11,741.87Z" transform="translate(-60.51 -475.3)"/><path class="cls-12" d="M304.55,775.46l.57.47C304.66,776.1,304.49,775.92,304.55,775.46Z" transform="translate(-60.51 -475.3)"/><path class="cls-14" d="M306.07,521a27.87,27.87,0,1,1-27.94-28.13A28,28,0,0,1,306.07,521Zm-11.34-.14a16.55,16.55,0,1,0-33.1.08,16.55,16.55,0,1,0,33.1-.08Z" transform="translate(-60.51 -475.3)"/><path class="cls-14" d="M202.86,521c0-7.12,0-14.25,0-21.37,0-4.1,2.17-6.66,5.42-6.77s5.82,2.67,5.91,6.78.17,8,0,12c-.13,2.41.73,2.93,3,2.85,4.49-.17,9-.23,13.48,0,2.81.16,3.32-.93,3.2-3.42-.2-4-.11-8,0-12,.07-3.75,2.33-6.23,5.53-6.24s5.7,2.57,5.72,6.2q.12,21.73,0,43.48c0,3.86-2.66,6.48-5.94,6.32s-5.27-2.63-5.32-6.43c-.06-4.63-.15-9.26,0-13.87.1-2.39-.73-3-3-2.89-4.49.16-9,.17-13.49,0-2.35-.09-3.31.46-3.18,3,.22,4.37.11,8.75,0,13.12s-2.28,7-5.64,7.05-5.66-2.62-5.69-6.87C202.82,535,202.86,528,202.86,521Z" transform="translate(-60.51 -475.3)"/><path class="cls-14" d="M176.8,548.87a26.87,26.87,0,0,1-18-7.9c-2.69-2.76-2.86-5.85-.57-8.27s5.44-2.43,8.29.11c4.14,3.71,8.76,5.68,14.36,4.13,2.42-.67,4.4-2.12,4.6-4.81.18-2.49-1.76-3.81-3.71-4.68-4.2-1.86-8.52-3.46-12.75-5.26-6.74-2.87-10.41-8.23-9.89-14.28a16.08,16.08,0,0,1,12.72-14.39c7.69-1.76,14.57.28,20.8,4.76,3.16,2.27,3.68,5.39,1.72,8.11s-5.12,3.12-8.3,1c-3.45-2.27-7-3.67-11.25-2.86-2.12.41-3.8,1.29-4.2,3.62-.43,2.51,1.54,3.11,3.26,3.82,3.67,1.51,7.41,2.89,11,4.47,9.15,4,13.24,10.58,11.58,18.51C194.79,543.16,186.92,549,176.8,548.87Z" transform="translate(-60.51 -475.3)"/><path class="cls-14" d="M312,520.86c0-6.87,0-13.75,0-20.62,0-5.32,2.14-7.48,7.56-7.41,4.73.05,9.47-.45,14.19.49a18.26,18.26,0,0,1,14.88,19.16c-.58,9-8.3,16.4-17.49,16.93-2.47.14-5.76-1.08-7.22.5-1.72,1.87-.43,5.23-.59,7.94-.09,1.49,0,3,0,4.49-.11,4-2.39,6.58-5.65,6.52s-5.59-2.65-5.65-6.64c-.08-5.5,0-11,0-16.49Zm11.36-9.66c0,7.47,0,7.47,6.67,6.94,4.35-.35,7.6-3.63,7.32-7.39-.33-4.51-4.23-6.8-11.13-6.62-5.39.14-1.82,4.26-2.85,6.33A2,2,0,0,0,323.33,511.2Z" transform="translate(-60.51 -475.3)"/><path class="cls-15" d="M373.38,717.89a36.86,36.86,0,0,1-4.41.54q-20.42.06-40.83,0c-6.79,0-10.58-3.45-10.66-10.19q-.21-20.79,0-41.58c.06-5.7,3.34-9.68,8.28-9.75,15.84-.22,31.7-.61,47.54.21,4.38,2.35,6.17,6,6.11,11-.16,13.06-.11,26.12,0,39.19C379.43,712.08,377.83,715.74,373.38,717.89Zm-15-49.67c-9.1-.05-18.21-.06-27.32-.2-1.89,0-2.28.69-2.28,2.4q.09,17.24,0,34.45c0,1.76.45,2.38,2.3,2.35,9.11-.13,18.22-.12,27.33-.16,2.36,0,4.74,0,7.09.16s2.67-.73,2.65-2.76c-.1-9.1,0-18.2,0-27.31C368.09,667.62,368.09,667.62,358.36,668.22Z" transform="translate(-60.51 -475.3)"/><path class="cls-15" d="M157.07,656.74c6.75,0,13.49-.06,20.23,0s10.43,3.46,10.5,10.34q.19,20.42,0,40.83c-.06,7-3.75,10.51-10.72,10.52q-20.42,0-40.83,0c-6.41,0-10.29-3.77-10.32-10.16q-.09-20.79,0-41.58c0-6,3.75-9.8,9.78-9.91,7.12-.13,14.24,0,21.35,0Zm10,11.49c-9.23-.06-18.46-.07-27.69-.2-1.86,0-2.27.67-2.26,2.39q.09,17.22,0,34.45c0,1.76.46,2.37,2.29,2.35,9.23-.12,18.46-.12,27.7-.16,2.11,0,4.24-.08,6.34.16,2.58.3,3.05-.83,3-3.15-.12-9.09-.05-18.19-.05-27.28S176.44,667.62,167.1,668.23Z" transform="translate(-60.51 -475.3)"/><path class="cls-8" d="M294.73,520.82a16.55,16.55,0,1,1-16.57-16.62A16.68,16.68,0,0,1,294.73,520.82Z" transform="translate(-60.51 -475.3)"/><path class="cls-2" d="M323.33,511.2a2,2,0,0,1,0-.74c1-2.07-2.54-6.19,2.85-6.33,6.9-.18,10.8,2.11,11.13,6.62.28,3.76-3,7-7.32,7.39C323.36,518.67,323.36,518.67,323.33,511.2Z" transform="translate(-60.51 -475.3)"/><path class="cls-6" d="M358.39,707.06c-9.11,0-18.22,0-27.33.16-1.85,0-2.31-.59-2.3-2.35q.11-17.22,0-34.45c0-1.71.39-2.43,2.28-2.4,9.11.14,18.22.15,27.32.2Z" transform="translate(-60.51 -475.3)"/><path class="cls-10" d="M358.39,707.06l0-38.84c9.73-.6,9.73-.6,9.73,8.93,0,9.11-.06,18.21,0,27.31,0,2-.44,2.95-2.65,2.76S360.75,707.1,358.39,707.06Z" transform="translate(-60.51 -475.3)"/><path class="cls-6" d="M167.13,707.06c-9.24,0-18.47,0-27.7.16-1.83,0-2.3-.59-2.29-2.35q.11-17.22,0-34.45c0-1.72.4-2.42,2.26-2.39,9.23.13,18.46.14,27.69.2Z" transform="translate(-60.51 -475.3)"/><path class="cls-10" d="M167.13,707.06l0-38.83c9.34-.61,9.34-.61,9.34,8.56s-.07,18.19.05,27.28c0,2.32-.44,3.45-3,3.15C171.37,707,169.24,707.1,167.13,707.06Z" transform="translate(-60.51 -475.3)"/><path class="cls-16" d="M305.7,787.65c-5.13.16-6.66-.94-8-5.79-12.16-42.78,15.21-85.65,59.38-93,38.36-6.37,76.09,20.25,83.16,58.66,7.62,41.36-19.1,80-60.77,86.39-28,4.28-51.19-5.51-69.22-27.43-2.59-3.14-2.27-6.1.37-9,3.72-1.69,6.46-.71,9.06,2.52,17.89,22.21,47.18,29.65,73,18.46,14.59-6.33,25.51-16.59,31.83-31.42h0a4.43,4.43,0,0,0,1.38-3.09c4.55-10.49,5.46-21.43,3.65-32.58-4.08-25-23.58-45.44-47.94-50.54C355.86,695.46,329.89,706.1,316,728c-10.86,17.07-12.41,35.35-6.4,54.47A8.64,8.64,0,0,1,305.7,787.65Z" transform="translate(-60.51 -475.3)"/><path class="cls-17" d="M424.45,787c-6.32,14.83-17.24,25.09-31.83,31.42-25.8,11.19-55.09,3.75-73-18.46-2.6-3.23-5.34-4.21-9.06-2.52q-2.44-4.9-4.88-9.83a8.64,8.64,0,0,0,3.88-5.22c5.35,7.69,11.08,15,18.94,20.36,14.77,10,30.84,14.65,48.77,12,17.08-2.53,31.27-10.09,42.47-23.34C421.09,789.87,421.72,787.24,424.45,787Z" transform="translate(-60.51 -475.3)"/><path class="cls-18" d="M424.45,787c-2.73.2-3.36,2.83-4.69,4.41-11.2,13.25-25.39,20.81-42.47,23.34-17.93,2.65-34-2-48.77-12-7.86-5.33-13.59-12.67-18.94-20.36-6-19.12-4.46-37.4,6.4-54.47,13.91-21.86,39.88-32.5,65.54-27.13,24.36,5.1,43.86,25.55,47.94,50.54,1.81,11.15.9,22.09-3.65,32.58a2.66,2.66,0,0,0-1.38,3.09Zm-77.83-42.16c-7.33.31-12.92,3.54-15.94,10.34s-2,13.52,3.18,19,10.7,10.83,16.3,16c7.32,6.74,17.44,6.52,24.55-.58q14.82-14.82,29.29-30c6.95-7.26,6.79-18.16-.09-24.87-7-6.85-17.88-6.62-25.12.61-4.77,4.77-9.56,9.52-14.13,14.47-2,2.18-3.24,3-5.65.29A15.83,15.83,0,0,0,346.62,744.88Z" transform="translate(-60.51 -475.3)"/><path class="cls-17" d="M424.43,787a2.66,2.66,0,0,1,1.38-3.09A4.43,4.43,0,0,1,424.43,787Z" transform="translate(-60.51 -475.3)"/><path class="cls-19" d="M346.62,744.88A15.83,15.83,0,0,1,359,750.14c2.41,2.69,3.64,1.89,5.65-.29,4.57-5,9.36-9.7,14.13-14.47,7.24-7.23,18.08-7.46,25.12-.61,6.88,6.71,7,17.61.09,24.87q-14.49,15.17-29.29,30c-7.11,7.1-17.23,7.32-24.55.58-5.6-5.15-11.08-10.46-16.3-16s-6.27-12.11-3.18-19S339.29,745.19,346.62,744.88Zm50.06-.73c-3.29-4-6.53-4.2-10.29-.39-6.65,6.72-13.16,13.58-19.8,20.31-3.07,3.11-5.91,3.14-9.13.25-2.31-2.08-4.4-4.41-6.75-6.43-3.64-3.13-7.78-1.93-9.72,2.67-1.49,2.55-.24,4.62,1.45,6.31q7.5,7.56,15.27,14.84c2.75,2.58,6.12,2.69,8.69.1q14.88-15,29.51-30.21A5.65,5.65,0,0,0,396.68,744.15Z" transform="translate(-60.51 -475.3)"/><path class="cls-20" d="M341,760.56c1.94-4.6,6.08-5.8,9.72-2.67,2.35,2,4.44,4.35,6.75,6.43,3.22,2.89,6.06,2.86,9.13-.25,6.64-6.73,13.15-13.59,19.8-20.31,3.76-3.81,7-3.62,10.29.39a4.79,4.79,0,0,1-.66,1.7c-8.72,9-17.28,18.24-26.32,26.95-4.85,4.69-11.43,3.94-16.33-.95C349.41,767.9,345.52,763.88,341,760.56Z" transform="translate(-60.51 -475.3)"/><path class="cls-21" d="M341,760.56c4.53,3.32,8.42,7.34,12.38,11.29,4.9,4.89,11.48,5.64,16.33.95,9-8.71,17.6-17.91,26.32-26.95a4.79,4.79,0,0,0,.66-1.7,5.65,5.65,0,0,1-.77,7.45q-14.66,15.2-29.51,30.21c-2.57,2.59-5.94,2.48-8.69-.1q-7.77-7.28-15.27-14.84C340.75,765.18,339.5,763.11,341,760.56Z" transform="translate(-60.51 -475.3)"/></svg>