<svg id="Layer_1" data-name="Layer 1" xmlns="http://www.w3.org/2000/svg" viewBox="0 0 416.44 416.44"><defs><style>.cls-1{fill:#e4f5fa;}.cls-2{fill:#090605;}.cls-3{fill:#545151;}.cls-4{fill:#e8e9ea;}.cls-5{fill:#8c8997;}.cls-6{fill:#fdc751;}.cls-7{fill:#11aebe;}.cls-8{fill:#b9bbc0;}.cls-9{fill:#fdfdfc;}.cls-10{fill:#ef5331;}.cls-11{fill:#f1f0f0;}.cls-12{fill:#e31f2b;}.cls-13{fill:#e0992c;}.cls-14{fill:#717080;}.cls-15{fill:#2ebec2;}.cls-16{fill:#070e0e;}</style></defs><title>SHOP</title><rect class="cls-1" width="416.44" height="416.44" rx="23.29"/><path class="cls-2" d="M137,508.16V488.09c2.18-5.07,5.2-9.29,11-10.64a29,29,0,0,1,8.16-.35c2.12.11,2.71-.52,2.71-2.67q-.1-60.75,0-121.5c0-1.69-.42-2.43-2.14-2.92q-14.57-4.15-18.67-18.83c-.27-1,.17-2.29-1-3V327c1-.49.6-1.38.6-2.12q0-9.6,0-19.18,5.72-11.49,11.41-23c2.88-5.78,6.88-11.27,8.34-17.38s.37-12.87.4-19.33c0-.31,0-.61,0-.91.12-6.45,3.84-10.55,10.21-10.75,6.77-.2,13.54-.08,20.32,0,3,0,5,1.38,5.36,4.57-.94,3.69-2.21,4.63-6.23,4.72-6.67.16-13.34-.36-20,.27-1.15,4.67-.09,9.43-.55,14.11-.3,3,.57,3.9,3.75,3.89q108.5-.15,217-.08c9.32,0,18.64-.07,28,0,2,0,2.91-.39,2.82-2.65-.17-4.45-.08-8.92,0-13.37,0-1.48-.37-2.24-2-2.22-8.81.09-17.62.11-26.43.15-1.21,0-2.42-.1-3.64-.1H214c-.91,0-1.82,0-2.73,0-3.11-.09-5.24-1.38-5.64-4.71.94-3.77,2.14-4.59,6.89-4.59H415c9.1,0,12.58,3.53,12.58,12.73,0,5.37,0,10.74,0,16.11a8.42,8.42,0,0,0,1,4.05c4.12,8.09,7.74,16.49,12.38,24.27,6,10,8.71,20.47,7.34,32,0,.2,0,.4,0,.6-.28,12.84-7.5,22.45-19.73,25.93-2.11.59-2,1.81-2,3.35q0,60.35,0,120.67c0,2.27.38,3.37,2.93,3.06a33.21,33.21,0,0,1,5.46,0A14.17,14.17,0,0,1,448.26,491c.09,4.87.08,9.73,0,14.59-.07,4.35-2.46,7-6.71,7.53a27.52,27.52,0,0,1-3.63.21q-145.29,0-290.58.06C142.84,513.36,139.23,512.35,137,508.16Zm273.55-4.29c8.81,0,17.61,0,26.42.1,1.45,0,2.25-.27,2.19-2-.11-3.34.08-6.69-.07-10-.15-3.61-2.23-5.66-5.77-5.68-7.59-.05-15.19,0-22.78,0-1,0-2-.08-3-.08H154.06c-.61,0-1.22,0-1.83,0-3.89.11-5.93,2.09-6.06,6-.08,2.64.19,5.29-.07,7.9-.3,3,.54,3.85,3.71,3.85q128.71-.15,257.44-.09C408.36,504,409.47,503.9,410.58,503.87ZM245.93,476.53c-.08.45.1.62.54.49.61,0,1.21.07,1.82.07q69.29,0,138.56,0c.81,0,1.61-.08,2.42-.13,8.2.05,16.39,0,24.59.19,2.66.06,3.52-.51,3.52-3.39q-.17-60-.08-120c0-.5,0-1,0-1.52a1.75,1.75,0,0,0-1.51-2.18c-6.39-1.43-11.33-5.05-15.39-10.51A29.56,29.56,0,0,1,389.29,349c-12.71,4.3-23.4,1.52-31.91-9-11.93,15.66-33.26,13.7-43.19-.17-5.39,7.11-12.44,11.1-21.44,11.14s-16.18-4-21.68-11.17c-5.57,7.35-12.7,11.21-21.72,11.17s-16-4.14-21.37-11.19c-10.71,14.79-31.75,14.62-42,1.27-1.3-1.71-1.81-.61-2.56.34a22.85,22.85,0,0,1-12.64,8.34c-2.36.58-2.87,1.65-2.87,3.95q.12,60.17.06,120.32a11,11,0,0,1,0,1.52c-.17,1.39.5,1.77,1.77,1.66a10.39,10.39,0,0,1,2.73,0c3,.55,3.56-.76,3.55-3.6q-.17-48-.07-96c0-6.95,3.32-10.32,10.16-10.33q24.77,0,49.53,0c6.85,0,10.15,3.37,10.15,10.31q0,27.5,0,55Q245.85,454.52,245.93,476.53Zm-60.81-49.84c0,15.81,0,31.62-.05,47.42,0,2.32.49,3.09,3,3.07q22.78-.19,45.59,0c2.28,0,3.1-.43,3.09-2.95q-.15-47.42,0-94.84c0-2.35-.55-3.07-3-3.05q-22.8.15-45.6,0c-2.36,0-3.08.55-3.06,3C185.18,395.08,185.12,410.89,185.12,426.69Zm107.61-124c4.65,0,9.31-.09,14,0,1.92.06,2.6-.36,2.44-2.45-.73-9.17-1.34-18.35-1.89-27.54-.09-1.5-.69-1.84-2.05-1.83q-12.6.06-25.2,0c-1.21,0-1.81.29-1.9,1.66q-.87,14.08-1.9,28.15c-.12,1.65.4,2,2,2C283,302.63,287.87,302.69,292.73,302.69Zm-59,0c10.69,0,21.19,0,31.69,0,1.47,0,1.56-.92,1.63-2,.63-9.08,1.23-18.16,1.93-27.23.15-2-.46-2.59-2.47-2.56q-11.85.16-23.68,0c-1.75,0-2.45.5-2.8,2.21C238,282.9,235.88,292.64,233.73,302.68Zm117.87,0c-2.18-10.09-4.35-19.91-6.38-29.76-.35-1.7-1.12-2-2.65-2q-12,.09-24,0c-1.63,0-2.38.32-2.24,2.16.7,9.27,1.31,18.55,1.93,27.83.08,1.24.55,1.78,1.85,1.77C330.54,302.67,341,302.68,351.6,302.68ZM231.19,270.93c-9.22,0-18,0-26.83,0-1.51,0-1.85.85-2.23,1.91-3.3,9.29-6.57,18.6-10,27.85-.61,1.66-.45,2.08,1.35,2.07q14.43-.09,28.87,0c1.38,0,2-.23,2.35-1.86C226.74,291,229,281.14,231.19,270.93Zm122.94,0c2.22,10.22,4.43,20.12,6.48,30.06.3,1.46.84,1.73,2.14,1.72q14.55-.06,29.11,0c1.41,0,2-.12,1.41-1.82-3.45-9.43-6.78-18.9-10.18-28.35-.29-.8-.53-1.65-1.8-1.64C372.31,271,363.33,270.93,354.13,270.93Zm-161,0c-9.12,0-17.82,0-26.52,0-1.49,0-1.79,1-2.29,2q-5.85,11.64-11.72,23.28c-1,2.05-2,4.12-3.19,6.47,10.56,0,20.68,0,30.8,0a2,2,0,0,0,2.12-1.62C185.79,291.21,189.35,281.35,193.08,271ZM436,302.69c-5.28-10.5-10.36-20.59-15.42-30.68a1.64,1.64,0,0,0-1.65-1H392.23c3.1,8.6,6.07,16.84,9,25.08,2.39,6.63,2.38,6.64,9.48,6.64Zm-229.38,9.14c-5,0-10.11,0-15.17,0-1.24,0-2.15.05-2.07,1.72.24,4.54-.27,9.09.38,13.63,1.29,8.95,8.61,14.94,17.84,14.49a16.72,16.72,0,0,0,15.72-16.17c.1-3.84-.06-7.69.08-11.53.06-1.75-.52-2.2-2.21-2.16C216.36,311.89,211.5,311.83,206.64,311.83Zm86.15,0c-5.06,0-10.13,0-15.19,0-1.32,0-2,.17-2,1.77.12,3.95-.12,7.91.11,11.85.51,9.08,7.32,15.88,16,16.25,9.1.38,16.46-5.58,17.61-14.8.56-4.49.17-9.09.3-13.64.05-1.68-1-1.4-2-1.4Zm86.25,0c-5.05,0-10.11,0-15.17,0-1.34,0-2,.2-2,1.78.12,4.24-.1,8.5.13,12.74.44,8.33,7.68,15.1,16.2,15.37a16.73,16.73,0,0,0,17.27-14.16c.64-4.34.16-8.69.43-13,.13-2.07-.4-2.82-2.62-2.74C388.56,312,383.8,311.83,379,311.83Zm-129.55,0c-5,0-9.91.05-14.86,0-1.55,0-2.16.43-2.12,2.05.1,3.54-.1,7.09.06,10.62.48,10.42,7.7,17.39,17.65,17.16,9.34-.2,16.24-7.78,16.3-17.88,0-3.13-.11-6.27,0-9.4.09-1.95-.46-2.63-2.51-2.57C259.2,311.93,254.35,311.83,249.49,311.83Zm86.51,0c-5,0-9.92.09-14.87,0-1.89-.05-2.44.55-2.37,2.4.13,3.53,0,7.08.06,10.61.2,8.73,6.9,16.24,14.89,16.79,9.92.68,17.16-5,18.7-14.54.72-4.53.17-9.08.37-13.62.08-1.74-1.09-1.6-2.22-1.6Zm-155.77,8.35c0-2-.08-4.05,0-6.07.09-1.63-.33-2.33-2.15-2.31q-14.73.12-29.46,0c-1.7,0-2.37.51-2.3,2.24.18,4.24-.16,8.49.33,12.73a16.52,16.52,0,0,0,12.18,14.3,16.94,16.94,0,0,0,17.49-5.43C180.17,331.07,180.57,325.74,180.23,320.18Zm241.61-8.35c-4.76,0-9.52.1-14.28,0-2-.06-2.59.61-2.52,2.57.15,3.74,0,7.49.08,11.24.2,8.41,7.33,15.71,15.59,16,9.51.36,17-5.86,17.93-14.79.46-4.25.12-8.5.33-12.74.1-2-.83-2.32-2.56-2.29C431.56,311.89,426.7,311.83,421.84,311.83Z" transform="translate(-84.57 -165.58)"/><path class="cls-3" d="M137,305.72l.59,0q0,9.58,0,19.18c0,.74.37,1.63-.6,2.12Z" transform="translate(-84.57 -165.58)"/><path class="cls-4" d="M389.27,477c-.81.05-1.61.13-2.42.13q-69.28,0-138.56,0c-.61,0-1.21,0-1.82-.07l-.54-.49q-.06-22-.1-44,0-27.5,0-55c0-6.94-3.3-10.3-10.15-10.31q-24.76,0-49.53,0c-6.84,0-10.16,3.38-10.16,10.33q0,48,.07,96c0,2.84-.53,4.15-3.55,3.6a10.39,10.39,0,0,0-2.73,0c-1.27.11-1.94-.27-1.77-1.66a11,11,0,0,0,0-1.52q0-60.17-.06-120.32c0-2.3.51-3.37,2.87-3.95a22.85,22.85,0,0,0,12.64-8.34c.75-.95,1.26-2.05,2.56-.34,10.21,13.35,31.25,13.52,42-1.27,5.4,7.05,12.4,11.15,21.37,11.19s16.15-3.82,21.72-11.17c5.5,7.16,12.6,11.21,21.68,11.17s16.05-4,21.44-11.14c9.93,13.87,31.26,15.83,43.19.17,8.51,10.55,19.2,13.33,31.91,9q0,9,0,18.08c-1.11,0-2.22.12-3.33.12q-21.8,0-43.61,0c-4,0-5.27,1-6.26,4.64l-12.27-.06c-.89-3.59-2.21-4.58-6.3-4.58q-25.81,0-51.62,0c-7.54,0-10.69,3.13-10.7,10.67,0,22.88.09,45.75-.06,68.63,0,6.8,3.2,10.87,10.87,10.83,39.88-.19,79.76-.09,119.64-.08,1.21,0,2.42.11,3.63.17Q389.28,467.17,389.27,477Z" transform="translate(-84.57 -165.58)"/><path class="cls-5" d="M410.58,503.87c-1.11,0-2.22.09-3.33.09q-128.72,0-257.44.09c-3.17,0-4-.87-3.71-3.85.26-2.61,0-5.26.07-7.9.13-3.95,2.17-5.93,6.06-6,.61,0,1.22,0,1.83,0H407.54c1,0,2,.05,3,.08Q410.59,495.1,410.58,503.87Z" transform="translate(-84.57 -165.58)"/><path class="cls-6" d="M193.67,238.9h12c.4,3.33,2.53,4.62,5.64,4.71.91,0,1.82,0,2.73,0H386.26c1.22,0,2.43.07,3.64.1q0,6.84.05,13.67c0,3.9,0,3.9-4,3.9H240.52c-23.29,0-46.57,0-69.86,0-2.47,0-3.36-.58-3.25-3.17.19-4.75,0-9.52,0-14.28,6.66-.63,13.33-.11,20-.27C191.46,243.53,192.73,242.59,193.67,238.9Z" transform="translate(-84.57 -165.58)"/><path class="cls-7" d="M185.12,426.69c0-15.8.06-31.61-.06-47.41,0-2.46.7-3,3.06-3q22.8.17,45.6,0c2.45,0,3,.7,3,3.05q-.12,47.43,0,94.84c0,2.52-.81,3-3.09,2.95q-22.8-.12-45.59,0c-2.49,0-3-.75-3-3.07C185.17,458.31,185.12,442.5,185.12,426.69Zm.55-.15c0,15.7,0,31.41,0,47.11,0,2.26.64,3,2.92,2.94,5.67-.15,11.35-.11,17,0,2,0,2.63-.62,2.62-2.61q-.08-47.27,0-94.53c0-2-.62-2.65-2.61-2.62-5.57.11-11.15.16-16.71,0-2.53-.08-3.27.7-3.25,3.24C185.73,395.54,185.67,411,185.67,426.54Zm43.15-1.2c0-1.41.07-2.83,0-4.23a4.68,4.68,0,0,0-4.61-4.66,4.61,4.61,0,0,0-4.45,4.49c-.13,2.81-.13,5.64,0,8.45a4.57,4.57,0,0,0,4.43,4.5,4.67,4.67,0,0,0,4.63-4.63C228.89,428,228.82,426.65,228.82,425.34Z" transform="translate(-84.57 -165.58)"/><path class="cls-8" d="M389.27,477q0-9.78,0-19.57c1.92-.05,3.83-.13,5.75-.15,6.79-.07,10-3.27,10-10.07q0-14.88,0-29.75V378.25c0-8.08-3.06-11.08-11.23-11.09-1.52,0-3-.08-4.54-.12q0-9,0-18.08a29.56,29.56,0,0,0,11.12-9.37c4.06,5.46,9,9.08,15.39,10.51a1.75,1.75,0,0,1,1.51,2.18c-.05.51,0,1,0,1.52q0,60,.08,120c0,2.88-.86,3.45-3.52,3.39C405.66,476.94,397.47,477,389.27,477Z" transform="translate(-84.57 -165.58)"/><path class="cls-9" d="M292.73,302.69c-4.86,0-9.72-.06-14.58,0-1.56,0-2.08-.35-2-2q1.05-14.07,1.9-28.15c.09-1.37.69-1.66,1.9-1.66q12.6,0,25.2,0c1.36,0,2,.33,2.05,1.83.55,9.19,1.16,18.37,1.89,27.54.16,2.09-.52,2.51-2.44,2.45C302,302.6,297.38,302.69,292.73,302.69Z" transform="translate(-84.57 -165.58)"/><path class="cls-10" d="M233.73,302.68c2.15-10,4.28-19.78,6.3-29.55.35-1.71,1.05-2.23,2.8-2.21q11.83.15,23.68,0c2,0,2.62.57,2.47,2.56-.7,9.07-1.3,18.15-1.93,27.23-.07,1.06-.16,2-1.63,2C254.92,302.67,244.42,302.68,233.73,302.68Z" transform="translate(-84.57 -165.58)"/><path class="cls-10" d="M351.6,302.68c-10.65,0-21.06,0-31.48,0-1.3,0-1.77-.53-1.85-1.77-.62-9.28-1.23-18.56-1.93-27.83-.14-1.84.61-2.18,2.24-2.16q12,.09,24,0c1.53,0,2.3.28,2.65,2C347.25,282.77,349.42,292.59,351.6,302.68Z" transform="translate(-84.57 -165.58)"/><path class="cls-9" d="M231.19,270.93c-2.23,10.21-4.45,20.05-6.46,29.92-.34,1.63-1,1.86-2.35,1.86q-14.43-.06-28.87,0c-1.8,0-2-.41-1.35-2.07,3.4-9.25,6.67-18.56,10-27.85.38-1.06.72-1.92,2.23-1.91C213.17,271,222,270.93,231.19,270.93Z" transform="translate(-84.57 -165.58)"/><path class="cls-9" d="M354.13,270.93c9.2,0,18.18,0,27.16,0,1.27,0,1.51.84,1.8,1.64,3.4,9.45,6.73,18.92,10.18,28.35.62,1.7,0,1.82-1.41,1.82q-14.55-.06-29.11,0c-1.3,0-1.84-.26-2.14-1.72C358.56,291.05,356.35,281.15,354.13,270.93Z" transform="translate(-84.57 -165.58)"/><path class="cls-10" d="M193.08,271c-3.73,10.38-7.29,20.24-10.8,30.12a2,2,0,0,1-2.12,1.62c-10.12,0-20.24,0-30.8,0,1.16-2.35,2.16-4.42,3.19-6.47q5.85-11.64,11.72-23.28c.5-1,.8-2,2.29-2C175.26,271,184,271,193.08,271Z" transform="translate(-84.57 -165.58)"/><path class="cls-10" d="M436,302.69H410.74c-7.1,0-7.09,0-9.48-6.64-3-8.24-5.93-16.48-9-25.08H419a1.64,1.64,0,0,1,1.65,1C425.66,282.1,430.74,292.19,436,302.69Z" transform="translate(-84.57 -165.58)"/><path class="cls-11" d="M206.64,311.83c4.86,0,9.72.06,14.57,0,1.69,0,2.27.41,2.21,2.16-.14,3.84,0,7.69-.08,11.53a16.72,16.72,0,0,1-15.72,16.17c-9.23.45-16.55-5.54-17.84-14.49-.65-4.54-.14-9.09-.38-13.63-.08-1.67.83-1.73,2.07-1.72C196.53,311.85,201.59,311.83,206.64,311.83Z" transform="translate(-84.57 -165.58)"/><path class="cls-11" d="M292.79,311.83h14.88c1,0,2.06-.28,2,1.4-.13,4.55.26,9.15-.3,13.64-1.15,9.22-8.51,15.18-17.61,14.8-8.72-.37-15.53-7.17-16-16.25-.23-3.94,0-7.9-.11-11.85-.05-1.6.66-1.78,2-1.77C282.66,311.86,287.73,311.83,292.79,311.83Z" transform="translate(-84.57 -165.58)"/><path class="cls-11" d="M379,311.83c4.76,0,9.52.12,14.27-.06,2.22-.08,2.75.67,2.62,2.74-.27,4.33.21,8.68-.43,13a16.73,16.73,0,0,1-17.27,14.16c-8.52-.27-15.76-7-16.2-15.37-.23-4.24,0-8.5-.13-12.74,0-1.58.63-1.8,2-1.78C368.93,311.86,374,311.83,379,311.83Z" transform="translate(-84.57 -165.58)"/><path class="cls-12" d="M249.49,311.83c4.86,0,9.71.1,14.56,0,2.05-.06,2.6.62,2.51,2.57-.15,3.13,0,6.27,0,9.4-.06,10.1-7,17.68-16.3,17.88-9.95.23-17.17-6.74-17.65-17.16-.16-3.53,0-7.08-.06-10.62,0-1.62.57-2.08,2.12-2.05C239.58,311.88,244.54,311.83,249.49,311.83Z" transform="translate(-84.57 -165.58)"/><path class="cls-12" d="M336,311.83h14.56c1.13,0,2.3-.14,2.22,1.6-.2,4.54.35,9.09-.37,13.62-1.54,9.56-8.78,15.22-18.7,14.54-8-.55-14.69-8.06-14.89-16.79-.09-3.53.07-7.08-.06-10.61-.07-1.85.48-2.45,2.37-2.4C326.08,311.92,331,311.83,336,311.83Z" transform="translate(-84.57 -165.58)"/><path class="cls-12" d="M180.23,320.18c.34,5.56-.06,10.89-3.88,15.46a16.94,16.94,0,0,1-17.49,5.43,16.52,16.52,0,0,1-12.18-14.3c-.49-4.24-.15-8.49-.33-12.73-.07-1.73.6-2.25,2.3-2.24q14.73.1,29.46,0c1.82,0,2.24.68,2.15,2.31C180.15,316.13,180.23,318.16,180.23,320.18Z" transform="translate(-84.57 -165.58)"/><path class="cls-12" d="M421.84,311.83c4.86,0,9.72.06,14.57,0,1.73,0,2.66.28,2.56,2.29-.21,4.24.13,8.49-.33,12.74-1,8.93-8.42,15.15-17.93,14.79-8.26-.31-15.39-7.61-15.59-16-.09-3.75.07-7.5-.08-11.24-.07-2,.49-2.63,2.52-2.57C412.32,311.93,417.08,311.83,421.84,311.83Z" transform="translate(-84.57 -165.58)"/><path class="cls-13" d="M167.44,243.89c0,4.76.16,9.53,0,14.28-.11,2.59.78,3.18,3.25,3.17,23.29-.09,46.57,0,69.86,0H386c4,0,4,0,4-3.9q0-6.84-.05-13.67c8.81,0,17.62-.06,26.43-.15,1.67,0,2.06.74,2,2.22-.05,4.45-.14,8.92,0,13.37.09,2.26-.81,2.67-2.82,2.65-9.32-.07-18.64,0-28,0q-108.49,0-217,.08c-3.18,0-4-.88-3.75-3.89C167.35,253.32,166.29,248.56,167.44,243.89Z" transform="translate(-84.57 -165.58)"/><path class="cls-14" d="M410.58,503.87q0-8.78,0-17.53c7.59,0,15.19-.1,22.78,0,3.54,0,5.62,2.07,5.77,5.68.15,3.33,0,6.68.07,10,.06,1.71-.74,2-2.19,2C428.19,503.9,419.39,503.89,410.58,503.87Z" transform="translate(-84.57 -165.58)"/><path class="cls-8" d="M245.93,476.53l.54.49C246,477.15,245.85,477,245.93,476.53Z" transform="translate(-84.57 -165.58)"/><path class="cls-15" d="M323.83,371.76l12.27.07c.41,2.33,1.51,4,4,4.53,1,.82,2.13.48,3.21.48,7,0,13.94.12,20.91,0,2.48-.06,3.28.63,3.27,3.2-.1,22.63-.06,45.26-.07,67.9a1.57,1.57,0,0,1-.3,0q-50.25,0-100.51.12c-2.6,0-2.11-1.47-2.11-2.92,0-21.86.05-43.73-.07-65.59,0-2.78.82-3.3,3.41-3.28,16.7.11,33.4.07,50.1,0C321.92,376.33,323,375.43,323.83,371.76Z" transform="translate(-84.57 -165.58)"/><path class="cls-16" d="M340.1,376.36c-2.49-.49-3.59-2.2-4-4.53,1-3.67,2.26-4.65,6.26-4.65q21.81,0,43.61,0c1.11,0,2.22-.08,3.33-.12,1.51,0,3,.11,4.54.12,8.17,0,11.23,3,11.23,11.09v39.17q0,14.86,0,29.75c0,6.8-3.23,10-10,10.07-1.92,0-3.83.1-5.75.15-1.21-.06-2.42-.17-3.63-.17-39.88,0-79.76-.11-119.64.08-7.67,0-10.91-4-10.87-10.83.15-22.88,0-45.75.06-68.63,0-7.54,3.16-10.67,10.7-10.67q25.82,0,51.62,0c4.09,0,5.41,1,6.3,4.58-.82,3.67-1.91,4.57-5.89,4.58-16.7,0-33.4.06-50.1,0-2.59,0-3.43.5-3.41,3.28.12,21.86.06,43.73.07,65.59,0,1.45-.49,2.93,2.11,2.92q50.25-.16,100.51-.12a1.57,1.57,0,0,0,.3,0c8.6,0,17.21,0,25.81.16,2.17,0,2.67-.65,2.67-2.73q-.11-33.1,0-66.21c0-2-.4-2.83-2.64-2.82C375.53,376.4,357.82,376.36,340.1,376.36Z" transform="translate(-84.57 -165.58)"/><path class="cls-15" d="M185.67,426.54c0-15.5.06-31,0-46.5,0-2.54.72-3.32,3.25-3.24,5.56.18,11.14.13,16.71,0,2,0,2.62.64,2.61,2.62q-.08,47.26,0,94.53c0,2-.64,2.64-2.62,2.61-5.67-.1-11.35-.14-17,0-2.28.06-2.93-.68-2.92-2.94C185.71,458,185.67,442.24,185.67,426.54Z" transform="translate(-84.57 -165.58)"/><path class="cls-16" d="M228.82,425.34c0,1.31.07,2.62,0,3.92a4.67,4.67,0,0,1-4.63,4.63,4.57,4.57,0,0,1-4.43-4.5c-.13-2.81-.13-5.64,0-8.45a4.61,4.61,0,0,1,4.45-4.49,4.68,4.68,0,0,1,4.61,4.66C228.89,422.51,228.82,423.93,228.82,425.34Z" transform="translate(-84.57 -165.58)"/><path class="cls-7" d="M340.1,376.36c17.72,0,35.43,0,53.15-.05,2.24,0,2.65.81,2.64,2.82q-.09,33.11,0,66.21c0,2.08-.5,2.77-2.67,2.73-8.6-.16-17.21-.12-25.81-.16,0-22.64,0-45.27.07-67.9,0-2.57-.79-3.26-3.27-3.2-7,.15-13.94.06-20.91,0C342.23,376.84,341.07,377.18,340.1,376.36Z" transform="translate(-84.57 -165.58)"/></svg>