<svg id="Layer_1" data-name="Layer 1" xmlns="http://www.w3.org/2000/svg" viewBox="0 0 280.72 281.14"><defs><style>.cls-1{fill:#3e2417;}.cls-2{fill:#f7cf6f;}.cls-3{fill:#ef5b5b;}.cls-4{fill:#41281b;}.cls-5{fill:#fcf5e2;}.cls-6{fill:#e34849;}.cls-7{fill:#eee5cf;}.cls-8{fill:#3d2316;}</style></defs><title>store</title><path class="cls-1" d="M191.28,410.31c-4-.95-5.22-3.66-5.18-7.51.1-9.62,0-19.24.07-28.86,0-2.11-.25-3.12-2.82-3.68a32.11,32.11,0,0,1-25-28.35,14.42,14.42,0,0,1,.87-6.59Q176,290,192.65,244.67c1.42-3.89,3.62-5.43,7.73-5.43q98.21.12,196.41,0c4.08,0,6.48,1.36,7.82,5.33,2.51,7.42,5.33,14.73,8.08,22.07,1.32,3.53.75,6.35-2.73,8.25-3.72.76-5.91-1-7.15-4.35-2.18-6-4.55-11.87-6.56-17.89-.77-2.28-1.81-3.09-4.23-3-6,.17-12,.24-18,0-3.4-.15-3.89,1-3.38,4.07q6.39,38.34,12.46,76.71c.45,2.86,1.55,3.36,4.08,3.33,11.61-.11,23.22-.15,34.83,0,3.18.05,3.52-.74,2.47-3.55-4.39-11.65-8.54-23.39-12.89-35.06-1.35-3.63-1.12-6.56,2.52-8.63,3.94-.41,6.18,1.33,7.53,5.11,5.24,14.64,10.65,29.21,16.11,43.77,1.52,4,.86,7.91-.23,11.75-3.35,11.86-11.09,19.6-22.86,23-2.39.69-2.82,1.6-2.82,3.77q.08,66.17,0,132.33c0,2.52.72,3.15,3.15,3.08,5.74-.17,11.49-.08,17.24-.05,4.24,0,6.58,2,6.62,5.43s-2.29,5.49-6.48,5.63H165.46a16.67,16.67,0,0,1-1.87,0c-3.51-.37-5.61-2.66-5.44-5.89.17-3.05,2.3-5.07,5.76-5.13,5.87-.09,11.75-.2,17.61.05,3.14.13,4.2-.5,4.15-4-.22-15.87-.12-31.74-.08-47.61,0-4.94,1.17-6.34,5.66-7.27,3.87.68,5.31,3.06,5.29,6.89-.09,15.13,0,30.25,0,45.37,0,6.39,0,6.17,6.51,6.47,3.53.16,4.28-1,4.27-4.35-.12-36.24-.08-72.49-.07-108.73,0-6.4,1.53-7.91,8-7.91H274.8c6.82,0,8,1.23,8,8.08q0,54.75,0,109.49c0,2.29.09,3.57,3.07,3.56q56.61-.17,113.23,0c2.27,0,2.94-.54,2.94-2.89q-.1-66.37,0-132.73c0-2-.63-2.82-2.59-3.23a28.58,28.58,0,0,1-17.09-10.7c-1.92-2.45-2.63-2.21-4.44,0a32,32,0,0,1-49.66,0c-2-2.54-2.67-2-4.39.09a32,32,0,0,1-49.44.14c-1.9-2.32-2.62-2.56-4.64-.11a32.28,32.28,0,0,1-48.57,1.12c-1.08-1.18-2.07-2.44-3.22-3.82-4.94,6.74-11.16,11.34-19.16,13.14-2.12.49-1.64,1.86-1.64,3.11,0,9.75,0,19.5,0,29.25C197.16,407.77,196.11,409.09,191.28,410.31Zm26.9,43.7c0,17.36.06,34.73-.07,52.1,0,2.63.66,3.3,3.29,3.28q24-.19,48,0c2.41,0,3.48-.32,3.47-3.16q-.15-52.11,0-104.2c0-2.54-.78-3.07-3.17-3.06q-24.17.15-48.35,0c-2.73,0-3.21.84-3.19,3.36C218.23,419.53,218.18,436.77,218.18,454Zm80.63-120.19h13.86c7.48,0,7.47,0,7.05-7.31-.06-1-.06-2-.1-3-.79-23.58-1.62-47.16-2.33-70.75-.07-2.23-.65-3-3-3-10.49.11-21,.09-31.47,0-2.14,0-3,.43-3.12,2.85q-1.29,39.11-2.83,78.21c-.09,2.26.44,3.07,2.82,3C286.07,333.72,292.44,333.82,298.81,333.82ZM268,291.63c.44-13,.82-26,1.35-38.93.1-2.3-.5-3-2.85-2.93q-13.11.22-26.23,0c-2.36,0-3.11.63-3.42,3.05-.88,6.79-2.19,13.52-3.28,20.29-3.08,19.06-6.11,38.12-9.23,57.18-.41,2.53-.22,3.67,3,3.61,12-.22,24-.18,36,0,2.68,0,3.3-.85,3.37-3.33C267,317.58,267.49,304.61,268,291.63Zm61.14-.06h0c.51,13.1,1.11,26.2,1.48,39.31.08,2.53.91,3,3.23,3,11.74-.11,23.48-.21,35.22.05,3.61.07,4.27-1,3.72-4.3q-6.43-38.52-12.56-77.09c-.38-2.38-1.24-2.76-3.32-2.74-8.74.09-17.48.16-26.22,0-2.72-.06-3,1-2.9,3.25C328.23,265.86,328.65,278.72,329.1,291.57ZM192.19,333.82c6.12,0,12.24-.08,18.35,0,2.21,0,3-.73,3.28-2.92,1.71-11.58,3.59-23.13,5.45-34.69q3.53-21.75,7.12-43.49c.31-1.89.16-3-2.3-3q-9.92.21-19.84,0c-1.89,0-2.62.77-3.19,2.34q-14.31,39.5-28.74,78.95c-.83,2.26-.42,2.82,1.9,2.78C180.21,333.75,186.2,333.82,192.19,333.82Zm234.87,10.52c-13.22,0-26.41,0-39.59,0-2.27,0-2,1-1.42,2.58A20.8,20.8,0,0,0,399,359.51C411.34,363.92,425.24,356.53,427.06,344.34Zm-203.21.1c1.85,10.16,11,16.81,22.25,16.31,9.43-.41,18.17-8,18.86-16.31Zm74.75-.1c-6.1,0-12.21.09-18.31,0-2.32-.05-2.73.57-2,2.72,2.81,8.25,11.12,13.84,20.66,13.75,9-.09,17.23-5.95,19.81-13.9.63-2,.34-2.61-1.84-2.56C310.81,344.42,304.71,344.34,298.6,344.34Zm74.66.22H331.75c2.5,9.92,10.39,16.13,20.36,16.21C362.61,360.85,370.6,354.81,373.26,344.56ZM170,344.5c1.3,9.09,10,16.08,20.08,16.22,10.36.14,19.41-6.78,21-16.22Z" transform="translate(-158.14 -239.24)"/><path class="cls-2" d="M191.28,410.31c4.83-1.22,5.88-2.54,5.89-7.56,0-9.75,0-19.5,0-29.25,0-1.25-.48-2.62,1.64-3.11,8-1.8,14.22-6.4,19.16-13.14,1.15,1.38,2.14,2.64,3.22,3.82A32.28,32.28,0,0,0,269.79,360c2-2.45,2.74-2.21,4.64.11a32,32,0,0,0,49.44-.14c1.72-2.1,2.35-2.63,4.39-.09a32,32,0,0,0,49.66,0c1.81-2.24,2.52-2.48,4.44,0a28.58,28.58,0,0,0,17.09,10.7c2,.41,2.59,1.21,2.59,3.23q-.09,66.36,0,132.73c0,2.35-.67,2.89-2.94,2.89q-56.61-.11-113.23,0c-3,0-3.08-1.27-3.07-3.56q.07-54.75,0-109.49c0-6.85-1.22-8.08-8-8.08H215.18c-6.44,0-8,1.51-8,7.91,0,36.24-.05,72.49.07,108.73,0,3.36-.74,4.51-4.27,4.35-6.5-.3-6.51-.08-6.51-6.47,0-15.12-.05-30.24,0-45.37,0-3.83-1.42-6.21-5.29-6.89l.06-10.9c4.73-1,5.88-2.49,5.88-7.8s-1.13-6.74-6-7.71Zm151.1-22.05q-20.25,0-40.48,0c-5.56,0-7.23,1.65-7.23,7.06q0,29.42,0,58.85c0,5.15,1.82,7,7,7q40.49,0,81,0c5.27,0,7.17-1.92,7.18-7.3q0-29.24,0-58.48c0-5.35-1.84-7.11-7.29-7.13Q362.44,388.23,342.38,388.26Z" transform="translate(-158.14 -239.24)"/><path class="cls-3" d="M414.14,286.5c-3.64,2.07-3.87,5-2.52,8.63,4.35,11.67,8.5,23.41,12.89,35.06,1.05,2.81.71,3.6-2.47,3.55-11.61-.17-23.22-.13-34.83,0-2.53,0-3.63-.47-4.08-3.33q-6-38.38-12.46-76.71c-.51-3.05,0-4.22,3.38-4.07,6,.26,12,.19,18,0,2.42-.07,3.46.74,4.23,3,2,6,4.38,11.92,6.56,17.89,1.24,3.39,3.43,5.11,7.15,4.35Q412.06,280.7,414.14,286.5Z" transform="translate(-158.14 -239.24)"/><path class="cls-4" d="M191.22,424.11c4.84,1,6,2.43,6,7.71s-1.15,6.83-5.88,7.8c-4.33-1.55-5.13-2.94-5.21-8.12C186,427.73,187.17,425,191.22,424.11Z" transform="translate(-158.14 -239.24)"/><path class="cls-5" d="M218.18,454c0-17.24,0-34.48-.06-51.72,0-2.52.46-3.38,3.19-3.36q24.18.21,48.35,0c2.39,0,3.18.52,3.17,3.06q-.13,52.1,0,104.2c0,2.84-1.06,3.17-3.47,3.16q-24-.14-48,0c-2.63,0-3.31-.65-3.29-3.28C218.24,488.74,218.18,471.37,218.18,454Z" transform="translate(-158.14 -239.24)"/><path class="cls-3" d="M298.81,333.82c-6.37,0-12.74-.1-19.11.05-2.38.05-2.91-.76-2.82-3q1.51-39.11,2.83-78.21c.08-2.42,1-2.87,3.12-2.85,10.49.08,21,.1,31.47,0,2.34,0,2.92.76,3,3,.71,23.59,1.54,47.17,2.33,70.75,0,1,0,2,.1,3,.42,7.31.43,7.31-7.05,7.31Z" transform="translate(-158.14 -239.24)"/><path class="cls-5" d="M268,291.63c-.47,13-1,25.95-1.35,38.93-.07,2.48-.69,3.37-3.37,3.33-12-.16-24-.2-36,0-3.2.06-3.39-1.08-3-3.61,3.12-19.06,6.15-38.12,9.23-57.18,1.09-6.77,2.4-13.5,3.28-20.29.31-2.42,1.06-3.09,3.42-3.05q13.11.19,26.23,0c2.35,0,3,.63,2.85,2.93C268.78,265.67,268.4,278.65,268,291.63Z" transform="translate(-158.14 -239.24)"/><path class="cls-5" d="M329.1,291.57c-.45-12.85-.87-25.71-1.39-38.56-.09-2.24.18-3.31,2.9-3.25,8.74.19,17.48.12,26.22,0,2.08,0,2.94.36,3.32,2.74q6.09,38.57,12.56,77.09c.55,3.33-.11,4.37-3.72,4.3-11.74-.26-23.48-.16-35.22-.05-2.32,0-3.15-.46-3.23-3-.37-13.11-1-26.21-1.48-39.31Z" transform="translate(-158.14 -239.24)"/><path class="cls-3" d="M192.19,333.82c-6,0-12-.07-18,0-2.32,0-2.73-.52-1.9-2.78q14.46-39.43,28.74-78.95c.57-1.57,1.3-2.38,3.19-2.34q9.92.19,19.84,0c2.46-.05,2.61,1.09,2.3,3q-3.58,21.75-7.12,43.49c-1.86,11.56-3.74,23.11-5.45,34.69-.33,2.19-1.07,3-3.28,2.92C204.43,333.74,198.31,333.82,192.19,333.82Z" transform="translate(-158.14 -239.24)"/><path class="cls-6" d="M427.06,344.34c-1.82,12.19-15.72,19.58-28.09,15.17a20.8,20.8,0,0,1-12.92-12.61c-.6-1.56-.85-2.58,1.42-2.58C400.65,344.36,413.84,344.34,427.06,344.34Z" transform="translate(-158.14 -239.24)"/><path class="cls-7" d="M223.85,344.44H265c-.69,8.34-9.43,15.9-18.86,16.31C234.82,361.25,225.7,354.6,223.85,344.44Z" transform="translate(-158.14 -239.24)"/><path class="cls-6" d="M298.6,344.34c6.11,0,12.21.08,18.32,0,2.18-.05,2.47.6,1.84,2.56-2.58,7.95-10.84,13.81-19.81,13.9-9.54.09-17.85-5.5-20.66-13.75-.73-2.15-.32-2.77,2-2.72C286.39,344.43,292.5,344.34,298.6,344.34Z" transform="translate(-158.14 -239.24)"/><path class="cls-7" d="M373.26,344.56c-2.66,10.25-10.65,16.29-21.15,16.21-10-.08-17.86-6.29-20.36-16.21Z" transform="translate(-158.14 -239.24)"/><path class="cls-6" d="M170,344.5h41.09c-1.6,9.44-10.65,16.36-21,16.22C180,360.58,171.27,353.59,170,344.5Z" transform="translate(-158.14 -239.24)"/><path class="cls-8" d="M342.38,388.26q20.06,0,40.11,0c5.45,0,7.28,1.78,7.29,7.13q0,29.25,0,58.48c0,5.38-1.91,7.29-7.18,7.3q-40.49,0-81,0c-5.14,0-7-1.85-7-7q0-29.43,0-58.85c0-5.41,1.67-7.05,7.23-7.06Q322.14,388.23,342.38,388.26ZM342.5,399c-11.37,0-22.74.07-34.1-.05-2.41,0-3.15.56-3.13,3.06q.18,22.86,0,45.72c0,2.39.54,3.16,3.06,3.15q33.92-.15,67.83,0c2.42,0,3.18-.58,3.16-3.09q-.18-22.86,0-45.72c0-2.43-.6-3.16-3.1-3.13C365,399.08,353.74,399,342.5,399Z" transform="translate(-158.14 -239.24)"/><path class="cls-5" d="M342.5,399c11.24,0,22.48.08,33.73-.06,2.5,0,3.11.7,3.1,3.13q-.16,22.86,0,45.72c0,2.51-.74,3.1-3.16,3.09q-33.92-.13-67.83,0c-2.52,0-3.08-.76-3.06-3.15q.15-22.86,0-45.72c0-2.5.72-3.09,3.13-3.06C319.76,399.07,331.13,399,342.5,399Z" transform="translate(-158.14 -239.24)"/></svg>