<svg id="Layer_1" data-name="Layer 1" xmlns="http://www.w3.org/2000/svg" viewBox="0 0 468.78 429.73"><defs><style>.cls-1{fill:#1b2049;}.cls-2{fill:#a8deee;}.cls-3{fill:#969bcd;}.cls-4{fill:#f7df6d;}.cls-5{fill:#f5f6f7;}.cls-6{fill:#f8b95e;}.cls-7{fill:#a4c096;}.cls-8{fill:#bfdea8;}.cls-9{fill:none;stroke:#1b2049;stroke-miterlimit:10;stroke-width:7.86px;}</style></defs><title>Subscription vector</title><path class="cls-1" d="M536.64,419.89V324.4c0-24.16,16.42-41,40.53-41.18,4,0,5.7-.83,5.26-5.15a102,102,0,0,1-.07-12c.3-14.4,10.71-24.81,25.08-25,7.5-.1,15-.16,22.5.05,3.14.09,4-1,3.88-4a111.71,111.71,0,0,1,0-12,14,14,0,0,1,13.57-13.36c7.85-.24,14,4.8,14.78,12.5a106.51,106.51,0,0,1,.2,13.49c-.08,2.67.91,3.36,3.45,3.33,9.67-.12,19.34-.14,29,0,2.73,0,3.41-1,3.29-3.49-.18-3.65-.14-7.33,0-11,.32-8.94,6.38-15,14.8-14.85,8.12.11,13.85,6.18,14.05,15,.09,3.67.19,7.35,0,11-.16,2.72.86,3.37,3.41,3.33q14.5-.18,29,0c2.61,0,3.53-.73,3.4-3.35-.18-3.82-.15-7.67,0-11.5.28-8.38,6.18-14.39,14.07-14.48,8.38-.1,14.22,5.58,14.61,14.36a89.54,89.54,0,0,1,0,10.49c-.25,3.4.78,4.66,4.38,4.51,7.16-.28,14.33-.12,21.5-.06,14.92.11,25.39,10.59,25.55,25.54.05,4.34.17,8.68,0,13-.16,2.94,1,3.65,3.72,3.58,6.67-.18,13.35-.29,20,0,3.7.17,4.78-.84,4.74-4.65-.19-20.83-.09-41.66-.08-62.5,0-15.59,7-22.69,22.47-22.69h90c14.59,0,21.75,7.17,21.75,21.79q0,45.49,0,91c0,14.22-7.24,21.42-21.59,21.46-4.83,0-9.67.09-14.5,0-2.41-.06-3,.86-3.17,3.21-.52,10.17-.6,10.07,9.63,10.21,5.14.07,10.31-.7,15.41.73,8.34,2.35,14.06,8.71,14.11,17.26q.29,49.25,0,98.5c-.07,9.81-7.84,17.17-17.64,17.62-6,.27-12,.19-18,.07-2.58-.05-3.4.79-3.51,3.41-.45,10.32-.54,10.32,9.95,10.31,3.33,0,6.67,0,10,0,11.54.1,19.25,7.79,19.29,19.61.09,26.33,0,52.66,0,79,0,5.67.12,11.34-.06,17-.34,10.62-8.3,18.49-19,18.52q-48,.12-96,0c-11.23,0-19.07-8.21-19.17-19.92-.13-13.83-.18-27.66.06-41.49.06-3.8-1-4.73-4.74-4.69q-30.5.26-61,0c-3.63,0-4.56,1.16-4.36,4.56a96.4,96.4,0,0,1,0,13.49c-.33,4,1.31,4.71,4.86,4.59,7.66-.24,15.33-.13,23-.07,9.67.07,14,4.45,14.08,14,0,5.5.06,11,0,16.5-.1,8.12-4.95,13-13.17,13q-81.75,0-163.5,0c-7.66,0-12.49-4.82-12.61-12.4q-.15-9.51,0-19c.13-7.3,4.45-11.84,11.84-12,8.49-.25,17-.24,25.49,0,3.38.09,4.32-1.09,4.16-4.29a101.05,101.05,0,0,1,0-13.48c.36-4.18-1.34-4.87-5.09-4.86-37.5.13-75,.08-112.5.08-24.41,0-41.11-16.73-41.09-41.11Q536.67,467.89,536.64,419.89ZM870.9,292.12c-.86-2-2.61-1-3.91-1q-9.72-.17-19.45,0c-1.49,0-3.34-.94-4.47,1,0,2.28,0,4.56,0,6.84-.07,1.49-.2,3-.2,4.48q0,93.74,0,187.48c0,18-9.81,27.79-27.76,27.8l-205.48,0c-17.16,0-27.25-10.08-27.26-27.35q0-93,0-186c0-1.82-.17-3.65-.25-5.47.09-1.82.12-3.65.29-5.46.21-2.34-.72-3.09-3.11-3.25-18.7-1.27-34.27,12.39-34.32,30.88q-.21,98.12,0,196.24a27.58,27.58,0,0,0,7.79,19.89C559.06,546,567.54,549,577.33,549q59.74,0,119.5-.07c4.67,0,6.67,1.41,6.52,6.3q-.39,13,0,26c.14,4.85-1.89,6.52-6.52,6.45-9.83-.16-19.67.05-29.5-.07-4.05-.05-5.76,1.58-5.61,5.66.18,5,0,10,0,15,0,5.84.91,6.69,6.63,6.69l89.49-.05c23.5,0,47-.07,70.5.05,4.71,0,6.74-1.72,6.49-6.49-.23-4.49,0-9,0-13.5,0-6.7-.5-7.21-7-7.23-9.5,0-19-.06-28.5,0-4.36,0-6.38-1.84-6.31-6.34.15-8.49,0-17,0-25.49,0-6.11.88-7,6.91-7,22,0,44-.14,66,.08,4.26,0,5.3-1.23,5.21-5.31-.24-11.49-.07-23,0-34.5.08-12.58,7.73-20.26,20.22-20.29q29-.06,58-.08c8.63,0,8.35,0,8.71-8.58.18-4.41-1.43-5.09-5.37-5.06-20,.17-40,.05-60,0-14.3,0-21.56-7.25-21.57-21.48q0-45.25,0-90.5c0-15,7.3-22.23,22.48-22.24,20,0,40-.13,60,0,3.5,0,4.91-1,4.36-4.46a8.83,8.83,0,0,1,0-3c.91-4.94-1.23-6-6-5.92-20.33.23-40.66.08-61,0-11.92-.07-19.61-7.8-19.91-19.71-.07-3-.16-6-.24-9C870.92,296.63,870.91,294.37,870.9,292.12Zm35.88,317.63c-.91,2.63-2.1,5.26,2.6,5.25q28.89-.09,57.78,0c2.36,0,3.32-.66,2.94-3.16-.81-5.41-1-10.94-2.26-16.24-1-4.19-3.31-7.9-8.25-8.73-.92-1.83-2.72-1.81-4.33-1.82-11.29-.06-22.6-.23-33.89.05-6.6.17-12,5.49-13.1,12.3C907.59,601.48,907.26,605.63,906.78,609.75ZM906.46,316c-1.22,3.21.58,3.74,3.2,3.74,19,0,38-.07,57,0,2.94,0,3.83-1.06,3.4-3.87-.74-4.93-1.13-9.92-2-14.84a12.29,12.29,0,0,0-9-10.27,10.53,10.53,0,0,0-2.71-.94,221.5,221.5,0,0,0-35.69,0c-6.91.6-11.5,6-12.48,12.87C907.52,307.11,907,311.55,906.46,316Zm82.28,33.64c-1.55-.88-3.25-.49-4.88-.49q-45.66,0-91.33,0c-9.22,0-13.28,4.07-13.31,13.43q0,22.46,0,44.91c0,16.13.16,32.25.24,48.38-.34,5.26,1.65,8.3,6.56,10,1.77,1.82,4.06,1.2,6.14,1.2q46.17.06,92.33,0c8.94,0,12.62-3.74,12.63-12.82q0-39.42,0-78.85c0-5.48-.18-11-.29-16.44C996.66,353.65,993.6,350.86,988.74,349.62Zm-90.67-33.74a4.06,4.06,0,0,0,.65-3.73c.46-3.46.91-6.93,1.39-10.39,1.69-12,10.57-20.14,22.72-20.45q15.49-.4,31,0c11.46.25,20.2,7.73,22.39,19.05,1,5.05,1.34,10.22,2,15.33.21,1.56-.09,3.55,2.33,3.76,8.64.75,16.73-1,16.63-12.92-.26-30.82-.07-61.65-.1-92.47,0-8.7-3.78-12.61-12.43-12.63q-46.49-.09-93,0c-8.13,0-12.43,4.27-12.45,12.32q-.11,46.74,0,93.48c0,4.63,1.45,8.48,5.77,10.79l1.11.73,1.85.3c3.39.58,6.9,2.51,9.91-.93C897.92,317.36,898,316.62,898.07,315.88Zm-63.49,63.77V268.18c0-12.69-6.29-19-19.09-19-4.49,0-9,0-13.49,0-10.51,0-10.5,0-10.53,10.27a34,34,0,0,1-.15,3.49c-.8,8-6.81,13.37-14.76,13.14a14.26,14.26,0,0,1-13.8-13.76,85.83,85.83,0,0,1,0-9.49c.17-2.82-.81-3.79-3.68-3.71-6.66.18-13.33,0-20,.08-3.8,0-8.63-1.16-11.13.7-2.75,2.05-.59,7.15-1,10.89a4.17,4.17,0,0,0,0,.5c-.29,8.74-6.08,14.74-14.28,14.79s-14.17-5.93-14.58-14.57a84.43,84.43,0,0,1,0-9c.16-2.68-.92-3.41-3.48-3.38q-14.49.18-29,0c-2.38,0-3.26.83-3.22,3.19a89.65,89.65,0,0,1-.28,11.48c-.84,7.39-7,12.47-14.52,12.29a14.15,14.15,0,0,1-13.8-13.19,87.62,87.62,0,0,1,0-10c.15-2.73-.64-3.87-3.59-3.8-7.66.18-15.34-.09-23,.11-8,.21-14.15,4.89-16.06,11.92-.89,3.24-.73,6.6-.73,9.93q0,110,0,219.94c0,13.37,6.1,19.46,19.6,19.46q102.72,0,205.44,0c13,0,19.08-6.19,19.08-19.36Q834.58,435.38,834.58,379.65ZM938.34,497h-45c-10.49,0-14.15,3.66-14.15,14q0,44.75,0,89.49c0,11.07,4.64,15.22,15.85,14.48,2.1-.14,2.86-.75,3.07-2.84.51-5,1.27-9.9,2-14.85,1.71-12.31,10.77-20.34,23.13-20.42q15.25-.09,30.5,0c11.45.08,20.36,7.43,22.49,18.79,1,5.22,1.36,10.56,2.07,15.83.19,1.38-.16,3.19,2.05,3.39,8.47.77,17-1,16.86-12.77-.27-31-.08-62-.11-93,0-8.4-3.78-12.12-12.26-12.14C969.33,497,953.84,497,938.34,497ZM718.93,243.81c0-5.48,0-10.95,0-16.43,0-4.22-1.69-7.13-6.17-7.5-3.64-.29-6.48,2.77-6.53,7.21q-.18,16.92,0,33.85c0,3.91,2.06,6.7,6.23,7,3.63.3,6.37-2.84,6.44-7.25C719,255.09,718.93,249.45,718.93,243.81Zm52,.15c0,5.66,0,11.31,0,17,0,4.05,1.85,6.94,6.1,7s6.25-2.81,6.28-6.84q.11-17.22,0-34.44c0-4.05-2.08-6.86-6.34-6.74s-6,3-6,7.08C770.9,232.65,770.92,238.3,770.91,244ZM654.27,244c0-5.65.07-11.31,0-17-.08-4.56-2.69-7.54-6.39-7.2-4.23.39-6,3.2-6,7.19q-.08,17,0,33.94c0,4.05,2.06,6.91,6.24,6.9s6.2-2.72,6.19-6.89Z" transform="translate(-536.64 -193.35)"/><path class="cls-2" d="M582.05,299.9c.08,1.82.25,3.65.25,5.47q0,93,0,186c0,17.27,10.1,27.36,27.26,27.35l205.48,0c17.95,0,27.76-9.81,27.76-27.8q0-93.75,0-187.48c0-1.5.13-3,.2-4.48l27.89,0c.08,3,.17,6,.24,9,.3,11.91,8,19.64,19.91,19.71,20.33.12,40.66.27,61,0,4.72-.06,6.86,1,6,5.92a8.83,8.83,0,0,0,0,3c.55,3.51-.86,4.48-4.36,4.46-20-.14-40,0-60,0-15.18,0-22.48,7.2-22.48,22.24q0,45.26,0,90.5c0,14.23,7.27,21.45,21.57,21.48,20,.05,40,.17,60,0,3.94,0,5.55.65,5.37,5.06-.36,8.56-.08,8.57-8.71,8.58q-29,0-58,.08c-12.49,0-20.14,7.71-20.22,20.29-.07,11.5-.24,23,0,34.5.09,4.08-.95,5.36-5.21,5.31-22-.22-44-.1-66-.08-6,0-6.89.86-6.91,7,0,8.5.1,17,0,25.49-.07,4.5,2,6.37,6.31,6.34,9.5-.06,19,0,28.5,0,6.52,0,7,.53,7,7.23,0,4.5-.19,9,0,13.5.25,4.77-1.78,6.52-6.49,6.49-23.5-.12-47-.06-70.5-.05L668.4,615c-5.72,0-6.59-.85-6.63-6.69,0-5,.13-10,0-15-.15-4.08,1.56-5.71,5.61-5.66,9.83.12,19.67-.09,29.5.07,4.63.07,6.66-1.6,6.52-6.45q-.37-13,0-26c.15-4.89-1.85-6.32-6.52-6.3q-59.74.18-119.5.07c-9.79,0-18.27-3-24.68-10.79,2.67-2.54.19-5.32.2-7.93.16-66.27.08-132.55.16-198.82C553,315.7,566.33,301.49,582.05,299.9Z" transform="translate(-536.64 -193.35)"/><path class="cls-3" d="M959,290.76a12.29,12.29,0,0,1,9,10.27c.86,4.92,1.25,9.91,2,14.84.43,2.81-.46,3.88-3.4,3.87-19-.09-38-.05-57,0-2.62,0-4.42-.53-3.2-3.74,1.65,1.36,2.36-.27,3.19-1.1,3.31-3.28,6.79-6.44,9.77-10,4.67-5.6,10.67-7.65,17.65-7.69,3.16,0,6.35-.22,9.49,0C952.15,297.67,956.26,295.59,959,290.76Z" transform="translate(-536.64 -193.35)"/><path class="cls-3" d="M959.59,586.87c4.94.83,7.28,4.54,8.25,8.73,1.23,5.3,1.45,10.83,2.26,16.24.38,2.5-.58,3.17-2.94,3.16q-28.89-.09-57.78,0c-4.7,0-3.51-2.62-2.6-5.25.37,1.52.34,3.76,2.65,1.2,3-3.32,6.17-6.47,9.1-9.84,4.31-5,9.23-8.53,16.22-8.16,2.48.13,5-.21,7.46.08C949.06,593.83,954.89,592,959.59,586.87Z" transform="translate(-536.64 -193.35)"/><path class="cls-4" d="M718.93,243.81c0,5.64.08,11.28,0,16.92-.07,4.41-2.81,7.55-6.44,7.25-4.17-.34-6.19-3.13-6.23-7q-.21-16.94,0-33.85c0-4.44,2.89-7.5,6.53-7.21,4.48.37,6.19,3.28,6.17,7.5C718.91,232.86,718.93,238.33,718.93,243.81Z" transform="translate(-536.64 -193.35)"/><path class="cls-4" d="M770.91,244c0-5.66,0-11.31,0-17,0-4,1.76-7,6-7.08s6.31,2.69,6.34,6.74q.15,17.22,0,34.44c0,4-2,6.89-6.28,6.84s-6.07-2.95-6.1-7C770.88,255.27,770.91,249.62,770.91,244Z" transform="translate(-536.64 -193.35)"/><path class="cls-4" d="M654.27,244v17c0,4.17-2,6.88-6.19,6.89s-6.22-2.85-6.24-6.9q-.11-17,0-33.94c0-4,1.79-6.8,6-7.19,3.7-.34,6.31,2.64,6.39,7.2C654.34,232.73,654.27,238.39,654.27,244Z" transform="translate(-536.64 -193.35)"/><path class="cls-5" d="M870.92,298.88l-27.89,0c0-2.28,0-4.56,0-6.84l27.83,0C870.91,294.37,870.92,296.63,870.92,298.88Z" transform="translate(-536.64 -193.35)"/><path class="cls-3" d="M887.94,319c3.19-1.52,6.65-.2,9.91-.93C894.84,321.54,891.33,319.61,887.94,319Z" transform="translate(-536.64 -193.35)"/><path class="cls-3" d="M898.07,315.88c-1.35-1.52-.7-2.69.65-3.73A4.06,4.06,0,0,1,898.07,315.88Z" transform="translate(-536.64 -193.35)"/><path class="cls-3" d="M885,318l1.11.73Z" transform="translate(-536.64 -193.35)"/><path class="cls-1" d="M800.06,486l-2.14.33H627.1c-9-2.83-12.34-7.12-12.36-16.31q-.07-48.71,0-97.4c0-10.86,5.86-16.52,16.79-16.53q81.16,0,162.33,0c10.5,0,16.51,5.85,16.53,16.29.07,32.63,0,65.27.06,97.9a17.14,17.14,0,0,1-6.57,13.85l-1.72.95-.17.05A1.88,1.88,0,0,0,800.06,486ZM749,459.1c-.08,5.14-.05,10.29-.27,15.43-.13,2.89,1.06,3.68,3.8,3.66,14.13-.09,28.26,0,42.4-.06,4.59,0,7.31-2.41,7.35-7,.14-14.14,0-28.27.1-42.4,0-2.31-.72-3.33-3.11-3.28-5.64.12-11.28.11-16.92.14-10.08-.07-20.17-.13-30.26-.24-2.1,0-3.46.42-3.42,3C748.79,438.6,748.85,448.85,749,459.1ZM633,477.85c8.92.11,17.85.48,26.77.21,5.43-.17,12.8,2.79,15.82-1.5,2.74-3.91.94-10.86.44-16.46.12-10.47.19-21,.4-31.42,0-2.72-1.19-3.38-3.63-3.35-14,.16-28,.23-41.92.33-1.65-.12-3.3-.2-4.93-.39-2.4-.29-3.18.71-3.15,3.09.16,14.46.2,28.92.27,43.38C624.22,477.37,626.06,478.5,633,477.85Zm-2-61q21.16.1,42.34.25c2,0,3.09-.5,3.06-2.77-.16-13.94-.25-27.88-.36-41.82,1.49-8.32,1.46-8.36-6.75-8.36-12.44,0-24.89,0-37.34,0-6.94,0-9.11,2.21-9.12,9.25q0,18.18,0,36.35C622.86,417.61,622.86,417.61,631,416.83ZM685,426c-.86,16.46,0,32.93-.3,49.39,0,2.26.9,2.79,3,2.78q24.72-.09,49.44,0c2.62,0,3.51-.83,3.43-3.43-.14-5,0-10,0-15-.16-11.28.59-22.58-.44-33.84-.6-1.13-1.69-.87-2.63-.87q-25,0-49.9,0C686.66,425.1,685.53,424.77,685,426Zm0-53.85c-.08,13.95-.12,27.91-.28,41.86,0,2.46.92,3.08,3.22,3.06q24.68-.1,49.37,0c2.34,0,3.24-.79,3.21-3.17-.16-13.95-.23-27.91-.33-41.86,1-7.93,1-7.93-6.88-7.92H690.86c-6.4,0-6.41,0-6.15,6.58A9.39,9.39,0,0,0,685,372.17Zm90.13,44.94h0c7.82,0,15.65-.09,23.47,0,2.62.05,3.87-.43,3.83-3.47-.14-13.81,0-27.63-.1-41.45,0-5.59-2.72-8.05-8.45-8.07-13.82,0-27.64.07-41.46-.09-3.1,0-4,1-4,4q.18,22.71,0,45.44c0,2.83.83,3.76,3.68,3.7C759.8,417,767.46,417.11,775.12,417.11Z" transform="translate(-536.64 -193.35)"/><path class="cls-1" d="M712,333.07q-33.75,0-67.48,0c-7.67,0-10.66-2.89-10.73-10.43-.07-7.17-.11-14.33,0-21.49.11-6.63,3.26-9.73,9.91-9.74q69,0,137.95,0c6.38,0,9.55,3,9.72,9.43.2,7.66.21,15.33,0,23-.19,6.35-3.4,9.21-9.9,9.22Q746.72,333.1,712,333.07Zm.52-8.13c22,0,44-.11,66,.09,4,0,5.21-1.18,5-5a111.77,111.77,0,0,1,0-15c.32-4.3-.86-5.79-5.43-5.68-12.82.32-25.65.1-38.48.1-31,0-62,.09-93-.08-4.09,0-5.13,1.27-4.91,5.09a115.89,115.89,0,0,1,0,15.48c-.33,4.37,1.38,5.15,5.36,5.12C668.87,324.84,690.69,324.94,712.51,324.94Z" transform="translate(-536.64 -193.35)"/><path class="cls-2" d="M627.1,486.28H797.92c-1.44,1.24-3.19.74-4.8.74q-80.36,0-160.73,0C630.62,487,628.71,487.59,627.1,486.28Z" transform="translate(-536.64 -193.35)"/><path class="cls-2" d="M802.17,485.05l1.72-.95A1.55,1.55,0,0,1,802.17,485.05Z" transform="translate(-536.64 -193.35)"/><path class="cls-2" d="M800.06,486a1.88,1.88,0,0,1,1.94-.86A1.81,1.81,0,0,1,800.06,486Z" transform="translate(-536.64 -193.35)"/><path class="cls-1" d="M966.14,248a27.85,27.85,0,1,1-27.69-28.12A27.82,27.82,0,0,1,966.14,248Zm-8.14-.19A19.71,19.71,0,0,0,938.5,228a20,20,0,0,0-20.08,19.92c-.07,10.53,9.12,19.81,19.7,19.89A19.84,19.84,0,0,0,958,247.82Z" transform="translate(-536.64 -193.35)"/><path class="cls-1" d="M938.45,571.12a27.64,27.64,0,0,1-28-27.69,27.87,27.87,0,1,1,55.74-.27A27.57,27.57,0,0,1,938.45,571.12Zm19.56-28c0-10.86-8.92-19.84-19.55-19.81a20.18,20.18,0,0,0-20,20,19.93,19.93,0,0,0,19.73,19.69A19.53,19.53,0,0,0,958,543.17Z" transform="translate(-536.64 -193.35)"/><path class="cls-4" d="M740.18,372.06c.1,13.95.17,27.91.33,41.86,0,2.38-.87,3.18-3.21,3.17q-24.69-.1-49.37,0c-2.3,0-3.25-.6-3.22-3.06.16-13.95.2-27.91.28-41.86Z" transform="translate(-536.64 -193.35)"/><path class="cls-4" d="M676.08,372.49c.11,13.94.2,27.88.36,41.82,0,2.27-1,2.79-3.06,2.77q-21.17-.18-42.34-.25c-.06-11.64-.2-23.29-.12-34.93,0-5.66,3.61-9.58,9.25-9.66C652.14,372.09,664.11,372.38,676.08,372.49Z" transform="translate(-536.64 -193.35)"/><path class="cls-4" d="M630.92,425.66c14-.1,28-.17,41.92-.33,2.44,0,3.68.63,3.63,3.35-.21,10.47-.28,20.95-.4,31.42-3.22-.66-6.28.47-9.37.94A60,60,0,0,0,633,477.85c-7,.65-8.82-.48-9.93-6.11,3.84-4.1,5.76-9.15,6.83-14.51C632,446.78,630.38,436.18,630.92,425.66Z" transform="translate(-536.64 -193.35)"/><path class="cls-6" d="M782.3,425.6c5.64,0,11.28,0,16.92-.14,2.39,0,3.13,1,3.11,3.28-.07,14.13,0,28.26-.1,42.4,0,4.58-2.76,7-7.35,7-14.14,0-28.27,0-42.4.06-2.74,0-3.93-.77-3.8-3.66.22-5.14.19-10.29.27-15.44,8.54,1.58,17,1.1,25.61,0,6.25-.81,9.37-3.94,9.41-10.3,0-6.13,0-12.27,0-18.4C784,428.6,784.41,426.65,782.3,425.6Z" transform="translate(-536.64 -193.35)"/><path class="cls-4" d="M782.3,425.6c2.11,1,1.67,3,1.68,4.78,0,6.13,0,12.27,0,18.4,0,6.36-3.16,9.49-9.41,10.3-8.56,1.11-17.07,1.59-25.61,0-.1-10.24-.16-20.49-.33-30.74,0-2.57,1.32-3,3.42-3C762.13,425.47,772.22,425.53,782.3,425.6Z" transform="translate(-536.64 -193.35)"/><path class="cls-6" d="M633,477.85A60,60,0,0,1,666.7,461c3.09-.47,6.15-1.6,9.37-.94.5,5.6,2.3,12.55-.44,16.46-3,4.29-10.39,1.33-15.82,1.5C650.89,478.33,642,478,633,477.85Z" transform="translate(-536.64 -193.35)"/><path class="cls-3" d="M740.11,426,685,426c.5-1.25,1.63-.92,2.55-.92q24.95,0,49.9,0C738.42,425.09,739.51,424.83,740.11,426Z" transform="translate(-536.64 -193.35)"/><path class="cls-7" d="M982.41,379.18c3.66-5.33,5.3-11.76,9.3-16.93,1.24-1.61,2.1-3.44,4.56-3.14.1,5.48.29,11,.29,16.43q0,39.43,0,78.86c0,9.07-3.69,12.81-12.63,12.82q-46.16,0-92.33,0c-2.09,0-4.38.61-6.14-1.21,2.09-4.44,6.49-6.13,10.32-8.38a105.06,105.06,0,0,1,9.62-4.46,23.28,23.28,0,0,0,10-3.05c14.46-1.93,29-.54,43.49-1,3.69,2.25,7.32,4.47,12,3.63,8.81-1.57,16.14-12.27,7.44-23.22.26-15-.72-30,2-44.82C981.06,382.85,981.74,381,982.41,379.18Z" transform="translate(-536.64 -193.35)"/><path class="cls-8" d="M988.91,349.15c-6.22,5.31-13.57,7.43-21.59,7.44-21,0-41.93,0-62.89,0-12,0-17.08,5.1-17.09,16.89,0,20.63.12,41.26-.1,61.89a28.93,28.93,0,0,1-7.61,20c-.34,5.26,1.65,8.3,6.56,10,2.09-4.44,6.49-6.14,10.33-8.38a49.9,49.9,0,0,1,5.65-2.74h81.65V395.36a8.21,8.21,0,0,1-1.76,2.55c-2.6,2.71-5.29,5.34-7.95,8q-15.18,15.21-30.35,30.44l-9.37,9.25c-4.06,4-9.09,4-13.16-.06-7-7-14.09-14-21.08-21.1A8.63,8.63,0,0,1,904,409.86a8.53,8.53,0,0,1,8.69,2.51c4.69,4.71,9.41,9.39,14.08,14.13.81.82,1.27,1,2.15.05,4-4.17,8.08-8.25,12.14-12.36,2.34-2.31,4.71-4.59,7-6.91,7.16-7.15,14.27-14.34,21.47-21.45a8.66,8.66,0,0,1,14.28,2.77V377.46c3.18-5.1,4.87-11,8.61-15.84,1.24-1.61,2.1-3.45,4.56-3.15C996.83,353.18,993.77,350.38,988.91,349.15Z" transform="translate(-536.64 -193.35)"/><path class="cls-9" d="M943.76,436.35l-9.37,9.25c-4.06,4-9.09,4-13.16-.06-7-7-14.09-14-21.08-21.1A8.63,8.63,0,0,1,904,409.86a8.53,8.53,0,0,1,8.69,2.51c4.69,4.71,9.41,9.39,14.08,14.13.81.82,1.27,1,2.15.05,4-4.17,8.08-8.25,12.14-12.36,2.34-2.31,4.71-4.59,7-6.91,7.16-7.15,14.27-14.34,21.47-21.45a8.66,8.66,0,0,1,14.58,3.6,8.2,8.2,0,0,1-2.06,8.48c-2.6,2.71-5.29,5.34-7.95,8Q958.93,421.12,943.76,436.35Z" transform="translate(-536.64 -193.35)"/><path class="cls-1" d="M713.81,462.73l-4.49,4.43a4.14,4.14,0,0,1-6.3,0q-5.07-5-10.11-10.11a4.17,4.17,0,1,1,6-5.79c2.25,2.26,4.51,4.5,6.75,6.77.39.4.61.47,1,0,1.92-2,3.88-3.95,5.82-5.92,1.12-1.11,2.25-2.2,3.37-3.32,3.43-3.42,6.84-6.87,10.29-10.28a4.15,4.15,0,0,1,7,1.73,3.93,3.93,0,0,1-1,4.06c-1.25,1.3-2.53,2.56-3.81,3.83Z" transform="translate(-536.64 -193.35)"/><path class="cls-1" d="M779.33,400.42l-4.49,4.44a4.16,4.16,0,0,1-6.31,0c-3.37-3.37-6.75-6.73-10.1-10.12a4.17,4.17,0,1,1,6-5.78c2.25,2.25,4.51,4.5,6.74,6.77.39.39.62.46,1,0,1.92-2,3.87-4,5.81-5.92,1.13-1.11,2.26-2.2,3.38-3.31,3.43-3.43,6.84-6.87,10.29-10.28a4.15,4.15,0,0,1,7,1.72,4,4,0,0,1-1,4.07c-1.25,1.3-2.54,2.56-3.81,3.83Z" transform="translate(-536.64 -193.35)"/></svg>