<svg xmlns="http://www.w3.org/2000/svg" width="51.93" height="50" viewBox="0 0 51.93 50">
  <g id="Subscription_web_gray" data-name="Subscription web gray" transform="translate(0.235 -0.006)">
    <path id="Path_2722" data-name="Path 2722" d="M147.686,238.911c-.081.014-.089.077-.114.135a3.5,3.5,0,0,1-3.635,2.554H127.415a40.729,40.729,0,0,1-4.2-.058,3.408,3.408,0,0,1-2.991-3.295c-.019-1.4-.015-2.8-.022-4.206,0-.185.016-.37.016-.555v-15.7a3.919,3.919,0,0,1,.169-1.238,3.5,3.5,0,0,1,3.565-2.433q8.129,0,16.261.011c.481,0,.574-.143.57-.591-.022-2.348-.026-4.7,0-7.041.007-.493-.091-.639-.619-.638q-18.287.026-36.577.015c-.168,0-.337.009-.5.015a.914.914,0,0,1-.93-.837c.108-.727.308-.866,1.327-.924,1.231.007,2.464.018,3.695.018q16.534,0,33.069.009c.405,0,.541-.093.532-.523-.03-1.146,0-2.3-.011-3.442a5.115,5.115,0,0,0-.062-1.457,2.433,2.433,0,0,0-2.38-2.3c-2.381-.034-4.763-.011-7.143-.022-.258,0-.361.069-.351.341.018.541.012,1.081,0,1.622-.011.664-.361,1.06-.908,1.047-.518-.012-.845-.405-.858-1.046-.011-.523-.012-1.047,0-1.57.007-.264-.041-.395-.353-.393q-4.18.016-8.36,0c-.307,0-.361.116-.354.385.018.557.012,1.115,0,1.672a.863.863,0,0,1-.884.953.848.848,0,0,1-.843-.931c-.008-.565-.014-1.149,0-1.723,0-.258-.068-.354-.339-.353q-4.2.012-8.41,0c-.312,0-.358.135-.351.4.014.541.009,1.081,0,1.622-.009.618-.323.977-.841.988-.541.011-.888-.368-.9-1,0-.541-.012-1.081,0-1.622.008-.261-.034-.392-.349-.391-2.364.015-4.73-.009-7.093.022a2.492,2.492,0,0,0-2.484,2.492c-.034,2.042,0,4.086,0,6.128,0,.119-.016.237-.016.354v25.274a2.591,2.591,0,0,0,2.38,2.453c.792.024,1.585,0,2.379-.008.185,0,.369.018.554.018h12.8c.792,0,1,.158,1.216.905-.257.737-.405.843-1.216.843H100.3a4.31,4.31,0,0,1-4.491-3.627,4.521,4.521,0,0,1-.049-.857V199.136a4.33,4.33,0,0,1,4.446-4.492q3.369-.028,6.74.007c.416,0,.505-.126.482-.505-.031-.5-.012-1.012,0-1.519a.882.882,0,1,1,1.747,0c.011.557.015,1.115,0,1.672-.008.27.077.347.343.347q4.207-.012,8.413,0c.281,0,.335-.1.328-.355-.015-.574-.012-1.149,0-1.723a.859.859,0,0,1,.847-.938.886.886,0,0,1,.884.954c.007.576.015,1.15,0,1.723-.008.27.068.341.337.339q4.18-.014,8.362,0c.288,0,.377-.081.365-.366-.022-.523-.011-1.047,0-1.57.008-.664.35-1.081.881-1.081s.888.405.895,1.064c.007.524.024,1.049-.007,1.572-.019.328.1.384.405.382q3.4-.019,6.791,0a4.347,4.347,0,0,1,4.325,3.222,4.925,4.925,0,0,1,.164,1.351q0,7.2-.009,14.393c0,.376.062.527.482.507a8.121,8.121,0,0,1,1.718.045,3.4,3.4,0,0,1,2.888,2.662c.009.038.061.065.093.1Zm-10.635-19.564c.009-.236.026-.472.028-.707.009-.768.165-.984.88-1.2.714.219.872.438.881,1.2,0,.235.016.469.026.7-.009.555-.012,1.11-.028,1.665a2.615,2.615,0,0,1-2.53,2.683c-1.531.032-3.065.03-4.6,0a2.549,2.549,0,0,1-2.488-2.331c-.039-.405-.046-.8-.068-1.207.011-1.281.009-2.568.042-3.845.009-.366-.116-.447-.46-.443-1.6.016-3.207,0-4.811.008a1.756,1.756,0,0,0-1.976,2v6.684c0,4.423.018,8.847-.012,13.27a1.832,1.832,0,0,0,2.027,2.01c.235-.02.472-.016.707-.024.151.008.3.02.455.02,6.265,0,12.531-.022,18.8.019a1.908,1.908,0,0,0,2.046-2.065c-.031-5.556-.014-11.113-.015-16.669,0-.861-.011-1.722-.018-2.583,0-.32.027-.642.014-.962a1.651,1.651,0,0,0-1.564-1.68c-2.143-.027-4.288,0-6.433,0-2.252-.011-4.5-.019-6.757-.036-.249,0-.27.12-.261.309.011,1.093.016,2.185.024,3.277-.007.541-.027,1.081-.018,1.622a.834.834,0,0,0,.884.893q2.177.028,4.353,0a.829.829,0,0,0,.885-.9C137.083,220.505,137.059,219.923,137.051,219.347Z" transform="translate(-95.99 -191.62)"/>
    <path id="Path_2723" data-name="Path 2723" d="M158.587,325.118c-.218-.747-.428-.905-1.216-.905H144.564c-.185,0-.369-.012-.554-.018a3.362,3.362,0,0,0,.905-2.541q.014-12.054,0-24.106a.947.947,0,0,0-.1-.588c.168,0,.337-.015.5-.015q18.29,0,36.577-.015c.528,0,.626.145.619.638-.027,2.346-.023,4.694,0,7.041,0,.447-.089.592-.57.591q-8.132-.028-16.261-.011a3.482,3.482,0,0,0-3.565,2.433,3.92,3.92,0,0,0-.174,1.245v15.7c0,.185-.011.37-.016.555Zm-8.525-24.124h-2.783c-.676,0-1.006.308-1.011.981q-.02,2.81,0,5.618a.862.862,0,0,0,.935.962q2.86.028,5.718,0a.847.847,0,0,0,.919-.966q.008-2.807,0-5.617c0-.666-.318-.974-1-.978C151.918,300.983,150.99,300.994,150.062,300.994Zm3.784,15.685V313.9a.9.9,0,0,0-1.018-1.027q-2.758-.008-5.518,0a.911.911,0,0,0-1.038,1.022q-.016,2.784,0,5.568a.894.894,0,0,0,1.007,1q2.783.009,5.567,0a.885.885,0,0,0,1-.993c0-.935,0-1.864,0-2.792Z" transform="translate(-137.723 -282.692)" fill="#f4f4f4"/>
    <path id="Path_2724" data-name="Path 2724" d="M331.006,390.75c.007.861.018,1.722.018,2.583,0,5.556-.016,11.113.015,16.669a1.909,1.909,0,0,1-2.046,2.065c-6.265-.041-12.531-.018-18.8-.019-.151,0-.3-.012-.455-.02a2.594,2.594,0,0,0,.722-2.018c-.023-3.729-.008-7.458-.011-11.188a6.913,6.913,0,0,1,1.429-4.519,5.489,5.489,0,0,1,2.339-1.935c.022.405.028.811.068,1.207a2.549,2.549,0,0,0,2.488,2.331c1.533.03,3.067.032,4.6,0a2.615,2.615,0,0,0,2.53-2.683c.016-.555.019-1.11.028-1.665,1.63,0,3.261-.014,4.892.008A2.747,2.747,0,0,0,331.006,390.75Z" transform="translate(-281.055 -363.832)" fill="#b1b1b1"/>
    <path id="Path_2725" data-name="Path 2725" d="M114.752,234.718c-1.019.058-1.216.2-1.327.924h-4.633c0-2.042-.038-4.086,0-6.128a2.492,2.492,0,0,1,2.484-2.492c2.365-.031,4.73,0,7.093-.022.315,0,.357.135.349.391-.015.541-.009,1.081,0,1.622.009.628.355,1.007.9,1,.518-.011.831-.37.841-.988.008-.541.012-1.081,0-1.622,0-.261.039-.4.351-.4q4.2.015,8.41,0c.27,0,.346.095.339.353-.016.574-.011,1.149,0,1.723a.845.845,0,0,0,.843.931.866.866,0,0,0,.884-.953c.008-.557.014-1.115,0-1.672,0-.27.047-.385.354-.385q4.18.018,8.36,0c.312,0,.359.135.353.393-.015.523-.014,1.047,0,1.57.014.645.341,1.034.858,1.046.547.012.9-.384.908-1.047.008-.541.014-1.081,0-1.622-.009-.27.093-.342.351-.341,2.38.011,4.761-.012,7.143.022a2.433,2.433,0,0,1,2.38,2.3c-.007.878-.015,1.757-.019,2.633,0,.653,0,.653-.658.653H118a3.364,3.364,0,0,0-1.284.223A2.869,2.869,0,0,0,114.752,234.718Z" transform="translate(-107.25 -222.213)" fill="#888"/>
    <path id="Path_2726" data-name="Path 2726" d="M108.829,290.94h4.626a.915.915,0,0,0,.93.837.944.944,0,0,1,.1.588v24.106a3.35,3.35,0,0,1-.905,2.541c-.793,0-1.587.032-2.379.008a2.591,2.591,0,0,1-2.38-2.453V291.293A3.087,3.087,0,0,1,108.829,290.94Z" transform="translate(-107.288 -277.512)" fill="#f9f9f9"/>
    <path id="Path_2727" data-name="Path 2727" d="M296.721,375.278a5.489,5.489,0,0,0-2.339,1.935,6.906,6.906,0,0,0-1.429,4.519c0,3.73-.012,7.459.011,11.188a2.613,2.613,0,0,1-.722,2.018c-.235.008-.472,0-.707.024a1.827,1.827,0,0,1-2.027-2.01c.03-4.423.012-8.847.012-13.27V373a1.759,1.759,0,0,1,1.976-2c1.6,0,3.207.008,4.811-.008.343,0,.469.077.46.443C296.738,372.715,296.738,374,296.721,375.278Z" transform="translate(-263.558 -346.743)" fill="#c2c2c2"/>
    <path id="Path_2728" data-name="Path 2728" d="M153,249.551a2.894,2.894,0,0,1,1.945-1.892,3.364,3.364,0,0,1,1.284-.223q16.657.009,33.318,0c.657,0,.655,0,.658-.653,0-.877.012-1.757.019-2.633a5.483,5.483,0,0,1,.062,1.457c.012,1.147-.019,2.3.011,3.442.011.43-.12.523-.532.523q-16.534-.016-33.069-.009C155.457,249.568,154.224,249.557,153,249.551Z" transform="translate(-145.498 -237.045)" fill="#727272"/>
    <path id="Path_2729" data-name="Path 2729" d="M416.012,373.74a2.722,2.722,0,0,1-2.183.811c-1.631-.022-3.262-.007-4.892-.008-.009-.235-.023-.469-.026-.7-.009-.761-.168-.98-.881-1.2V371.1c2.145,0,4.29-.03,6.433,0a1.651,1.651,0,0,1,1.564,1.68C416.039,373.1,416.017,373.42,416.012,373.74Z" transform="translate(-366.061 -346.823)" fill="#c2c2c2"/>
    <path id="Path_2730" data-name="Path 2730" d="M363.1,370.96v1.545c-.715.214-.87.43-.88,1.2,0,.235-.019.47-.028.707-.622,0-1.243-.015-1.865,0a35.166,35.166,0,0,0-4.219.1c-.008-1.092-.014-2.184-.024-3.277,0-.189.012-.312.261-.309C358.6,370.941,360.848,370.949,363.1,370.96Z" transform="translate(-321.132 -346.682)" fill="#f9f9f9"/>
    <path id="Path_2731" data-name="Path 2731" d="M356.162,396.762a35.172,35.172,0,0,1,4.219-.1c.622-.019,1.243,0,1.865,0,.008.572.036,1.145.02,1.716a.823.823,0,0,1-.885.9q-2.176.028-4.353,0a.834.834,0,0,1-.884-.893C356.135,397.843,356.155,397.3,356.162,396.762Z" transform="translate(-321.185 -368.933)" fill="#f2f2f2"/>
    <path id="Path_2732" data-name="Path 2732" d="M164.453,326.969h2.784c.676,0,.995.312,1,.978v5.617a.849.849,0,0,1-.919.966q-2.858.03-5.718,0a.862.862,0,0,1-.935-.962q-.022-2.81,0-5.618c0-.676.339-.978,1.011-.981C162.6,326.958,163.526,326.969,164.453,326.969Zm0,1.729c-.574,0-1.147.007-1.722,0-.211,0-.345.014-.342.288.014,1.165.011,2.33,0,3.495,0,.245.087.32.324.319,1.165-.009,2.33-.012,3.495,0,.259,0,.3-.1.3-.324q-.014-1.747,0-3.495c0-.219-.058-.291-.282-.285-.585.007-1.177,0-1.768,0Z" transform="translate(-152.114 -308.667)"/>
    <path id="Path_2733" data-name="Path 2733" d="M168.248,418.585v2.784a.884.884,0,0,1-1,.993q-2.784.009-5.567,0a.894.894,0,0,1-1.007-1q-.02-2.784,0-5.568a.91.91,0,0,1,1.038-1.022q2.758-.008,5.518,0a.9.9,0,0,1,1.018,1.027C168.25,416.731,168.248,417.658,168.248,418.585Zm-1.726,0c0-.591-.009-1.183,0-1.773.007-.243-.072-.316-.315-.314-1.149.011-2.3.015-3.445,0-.307,0-.364.118-.361.387.009,1.131.012,2.262,0,3.394,0,.3.1.366.381.364,1.131-.014,2.264-.018,3.395,0,.315,0,.354-.12.346-.384C166.511,419.7,166.522,419.145,166.522,418.585Z" transform="translate(-152.127 -384.606)"/>
    <path id="Path_2734" data-name="Path 2734" d="M175.622,339.74c.591,0,1.183.011,1.773,0,.224,0,.285.066.282.285q-.014,1.747,0,3.495c0,.226-.039.327-.3.324-1.165-.013-2.33-.011-3.495,0-.238,0-.326-.074-.324-.319.009-1.165.012-2.33,0-3.495,0-.27.135-.291.342-.288C174.475,339.747,175.048,339.74,175.622,339.74Z" transform="translate(-163.279 -319.716)" fill="#fcfcfc"/>
    <path id="Path_2735" data-name="Path 2735" d="M177.621,429.637c0,.557-.011,1.115,0,1.672.008.264-.031.391-.346.384-1.131-.019-2.264-.015-3.395,0-.278,0-.385-.066-.381-.364.014-1.131.011-2.262,0-3.394,0-.27.054-.391.361-.387,1.147.018,2.3.014,3.445,0,.243,0,.322.07.315.314C177.612,428.458,177.621,429.049,177.621,429.637Z" transform="translate(-163.227 -395.658)" fill="#fafafa"/>
  </g>
</svg>
