<svg id="Layer_1" data-name="Layer 1" xmlns="http://www.w3.org/2000/svg" viewBox="0 0 306.01 327.22"><title>Subscription icon</title><path d="M269.79,184.52h52.66a20.27,20.27,0,0,0,2.15-.26V165.08c0-5.88,0-11.75,0-17.62.07-7.22,4.05-11.68,10.3-11.69s10.42,4.45,10.51,11.59c.12,11.13,0,22.25,0,33.37v3.56h54.61c.06-1.25.17-2.56.18-3.87,0-11.5,0-23,.09-34.5a9.7,9.7,0,0,1,6-9.21,9.94,9.94,0,0,1,10.61,1.13c3.36,2.45,4.18,6,4.18,9.94q0,16.13,0,32.24v4.5c5.56,0,10.76,0,16,0,8,0,12.93,4.82,13,12.73.06,13.74,0,27.47,0,41.48h-306V230c0-10.75,0-21.49,0-32.24,0-8.33,5-13.22,13.31-13.24,5.11,0,10.22,0,15.86,0v-4.17c0-11.12,0-22.25,0-33.37,0-6.57,4.1-11.07,10-11.21,6.11-.14,10.69,4.29,10.78,10.93.16,11.13,0,22.25,0,33.37v4.24h54.83v-3.88c0-11,0-22,0-33,0-7.17,4.06-11.66,10.31-11.67s10.45,4.55,10.51,11.61c.1,10.87,0,21.74,0,32.62ZM249,186.09c0,1.68,0,3,0,4.38,0,3.62-.18,7.26.09,10.86a10.4,10.4,0,0,0,9.61,9.39c4.52.34,9.84-3,10.33-7.49.6-5.61.14-11.34.14-17.14Zm75.73,0v3.27c0,4-.15,8,.09,12a10.36,10.36,0,0,0,9.59,9.38c4.66.34,10-3.19,10.43-7.86.55-5.5.13-11.1.13-16.77Zm-151.43.06c0,5.12-.18,9.87.05,14.6a10.44,10.44,0,0,0,9.84,10c4.91.27,10-3.51,10.35-8.41.4-5.3.09-10.65.09-16.17Zm227.19,0c0,5.27-.14,10.14,0,15a10.25,10.25,0,0,0,9.34,9.59c4.63.47,10-2.86,10.58-7.62.66-5.58.16-11.31.16-17Z" transform="translate(-144.05 -135.67)"/><path d="M448.78,259.74H145.14a1.08,1.08,0,0,0-1.08,1.08v180.3a21.78,21.78,0,0,0,21.78,21.77H428.3a21.55,21.55,0,0,0,21.56-21.55V260.82A1.08,1.08,0,0,0,448.78,259.74ZM244.21,376c-4.14-1.7-6.55-5.39-6.45-10.43.66-36,29.74-62.67,61.85-61,1.35.07,2.71,0,4.34,0,.09-8.69,4.07-13.3,10.81-12.9a9.63,9.63,0,0,1,8.6,5.69c3.42,7.07,6.85,14.13,10,21.32,2.4,5.5,0,11.22-5.5,13.71s-11,4.6-16.55,6.91c-4.29,1.81-8.38,1.54-11.86-1.65a9.55,9.55,0,0,1-2.74-10.9,8.79,8.79,0,0,0,.2-1.71A37.9,37.9,0,0,0,267,340.59a41,41,0,0,0-8.52,24.28C258.21,373.83,251.48,379,244.21,376ZM356,378.5c-3.64,22.83-22.29,43.06-44.7,48.42a56.88,56.88,0,0,1-32.43-1.47c-2-.68-3.23-1-4.57,1.25-2.24,3.7-5.94,4.77-10.09,4.08a9.41,9.41,0,0,1-7.84-6.7c-2.18-7-4.23-14.08-5.95-21.22A10,10,0,0,1,258,390.91c6.69-1.45,13.46-2.62,20.23-3.63a9.68,9.68,0,0,1,10.38,5.16c2.21,3.85,1.82,7.64-.76,11.23-.5.69-1.05,1.36-1.74,2.26,18,6.41,38.46-3.24,46.54-21.76a59,59,0,0,0,3-9.6c1.59-6.55,6.58-10.26,12.45-9C353.81,366.75,357,372,356,378.5Z" transform="translate(-144.05 -135.67)"/></svg>