<svg id="Layer_1" data-name="Layer 1" xmlns="http://www.w3.org/2000/svg" viewBox="0 0 409.6 408.1"><defs><style>.cls-1{fill:#080605;}.cls-2{fill:#100e0c;}.cls-3{fill:#eee6e3;}.cls-4{fill:#e73434;}.cls-5{fill:#b12626;}.cls-6{fill:#d9d1d0;}.cls-7{fill:#facd3b;}.cls-8{fill:#fed03c;}.cls-9{fill:#eaaa1f;}.cls-10{fill:#f0af1e;}.cls-11{fill:#f8ac48;}.cls-12{fill:#465a64;}.cls-13{fill:#0b0b0b;}.cls-14{fill:#f8b4b6;}.cls-15{fill:#ffe2b9;}.cls-16{fill:#070707;}</style></defs><title>subscription vector </title><path class="cls-1" d="M48.8,228c2-3.06,4.8-4.08,8.46-4,10.79.18,21.59,0,32.38.12,2.42,0,3.21-.55,3.12-3.08-.2-5.85.08-11.73-.09-17.58a24.11,24.11,0,0,1,24-25c13.48.06,23.81,10.73,24.06,25.05.1,5.73.19,11.47-.06,17.19-.12,2.87.76,3.46,3.52,3.45,29.59-.1,59.17-.06,88.75-.06,34.92,0,69.83-.06,104.75.08,3.35,0,4.24-.8,4.08-4.11-.29-6-.24-12,0-18,.44-12.49,9.85-22.53,21.82-23.52a23.75,23.75,0,0,1,25.61,19.21c1.37,7.2.54,14.63.36,21.94-.08,3.68,1,4.56,4.54,4.48,10.39-.26,20.79-.11,31.19-.09,5.95,0,8.27,2.24,8.25,8.17-.07,33.84-.21,67.69-.25,101.53,0,4.39-1.35,7.52-6,8.51-5.26-1.7-6.31-3.18-6.36-8.86-.05-6.06-.12-12.12-.17-18.18a82.57,82.57,0,0,1,.22-8.77c.49-3.94-.73-5-4.84-5q-171.26.19-342.49.14c-4.19,0-10.12-1.91-12.13.83s-.49,8.41-.5,12.79c0,1.46-.15,2.92-.15,4.38,0,24.07-.07,48.15.05,72.22,0,4.34-1.37,7.19-5.69,8.28-3-.06-4.78-1.92-6.39-4.1Zm65.58,32.78a4.82,4.82,0,0,0,3.1.48c6.93-.71,11-5.59,11-13.71.07-14.4,0-28.8,0-43.2a23.72,23.72,0,0,0-.47-4.76,11.33,11.33,0,0,0-14.33-8.39c-5.38,1.51-8.78,5.38-8.82,10.78q-.16,23.93,0,47.84C104.89,255.54,108.73,259.7,114.38,260.78ZM363.91,191c-6.16,1-10,5-10.06,11.82q-.28,23.14,0,46.31c.09,6.44,3.56,10.32,9.36,11.62a11.46,11.46,0,0,0,14.25-11c.24-15.95.28-31.92,0-47.87A11.17,11.17,0,0,0,363.91,191ZM61.51,236.67l0,0c-1.12,1.27-.6,2.81-.6,4.21,0,14.27.05,28.53.08,42.79,0,5.75,0,5.75,5.92,5.75H415.24a19.2,19.2,0,0,1,2.4,0c2.37.28,3.38-.58,3.24-3.11-.2-3.72-.11-7.46-.15-11.19q.06-18.19.15-36.38c0-1.77-.37-2.69-2.42-2.67q-13.18.13-26.39,0c-1.94,0-2.55.7-2.5,2.57.11,3.73.08,7.47,0,11.2-.22,12.55-9.58,22.26-22.66,23.54-11.17,1.1-22.37-7.81-24.71-19.52a49.6,49.6,0,0,1-.5-12.75c.24-3.85-.64-5.13-4.9-5.12q-95.58.25-191.15.12a16.66,16.66,0,0,1-2,0c-2.22-.27-3.12.58-3,2.9.16,3.19.13,6.4,0,9.6-.73,19.74-20.28,31.15-36.49,21.22-8.71-5.33-11.93-13.54-11.53-23.44.06-2.51,0-5,.21-7.53.17-2.3-.81-3-3-2.93-7.67.1-15.35,0-23,.08C65.07,236.07,63.15,235.35,61.51,236.67Z" transform="translate(-48.8 -178.41)"/><path class="cls-2" d="M458.4,489.6c-2.2,5.38-2.27,11.24-3.88,16.79q-13,45.09-54.2,67.36a102.11,102.11,0,0,1-57.71,12.41c-38.15-3.08-67.3-21.38-87.09-54.18-2-3.33-3.93-4.42-7.7-4.41q-94.8.18-189.59.12c-3.72,0-7-.55-9.43-3.69V416c1.56-2.26,3.34-4.17,6.39-4.13,4.22.93,5.69,3.64,5.68,7.84-.08,30.63,0,61.27-.11,91.91,0,2.88.54,3.77,3.64,3.77q89.91-.17,179.83-.1c1,0,2.08.38,3.06-.62-.24-.66-.46-1.27-.66-1.88q-15.15-46.89,8.93-89.89c2.66-4.73,4.64-5.4,9.83-3.7,3.81,3.73,2,7.28,0,11.14-18.41,35.16-17.1,69.72,5.26,102.44,18.68,27.31,45.71,40.62,78.67,41.41,8.44.2,17-.42,25.08-3.72a23.82,23.82,0,0,0,3.5-.53c40.82-12.14,69.79-52,68.38-94.57-.95-28.6-12.32-52.51-34-71.27-10.77-9.33-23-16.22-37-19.38l0,0c-.64-.92-1.57-.78-2.48-.71-18.13-5.17-36.08-3.83-53.78,1.87a92.07,92.07,0,0,0-36.18,21.91c-3,2.9-6.15,4.8-10.21,1.87-2.8-4.61-2.5-6.58,1.38-10.39,7.51-7.38,16.23-13.1,25.19-18.5a4.66,4.66,0,0,0,2.73-1.27c5.75-2.38,11.42-5,17.48-6.47,2.49-.6,3.08-1.68,3.05-4.07-.13-10.26-.06-20.51-.05-30.77,0-6.26,2-8.35,8.37-8.38q17-.07,34,0c6.64,0,8.72,2.17,8.73,8.93,0,9.59.1,19.18,0,28.77,0,2.79.52,4.14,3.6,4.86a99.52,99.52,0,0,1,27.12,11,133.21,133.21,0,0,1,16.76,11.83v-4.44c0-9.46,0-18.91,0-28.37,0-5.51,1.2-7.09,6.27-8.61,5,1.61,6,2.91,6,8.38q.07,21.18,0,42.36a8.28,8.28,0,0,0,1.69,5.51c12.84,16.35,20.71,34.77,22.83,55.54,0,.27.46.51.71.77Zm-123.95-134c0,3.46.08,6.92,0,10.37-.06,2,.54,2.88,2.7,2.85q10.56-.13,21.14,0c2.19,0,2.68-1,2.66-2.91q-.09-10.37,0-20.74c0-2-.59-2.9-2.73-2.87-7,.08-14.1.09-21.14,0-2.23,0-2.68,1-2.64,2.94C334.51,348.68,334.45,352.14,334.45,355.6Z" transform="translate(-48.8 -178.41)"/><path class="cls-3" d="M55.19,411.87V400.1c4.32-1.09,5.71-3.94,5.69-8.28-.12-24.07-.06-48.15-.05-72.22,0-1.46.1-2.92.15-4.38H420.72c0,6.06.12,12.12.17,18.18.05,5.68,1.1,7.16,6.36,8.86l-.09,11.59c-5.07,1.52-6.25,3.1-6.27,8.61,0,9.46,0,18.91,0,28.37v4.44a133.21,133.21,0,0,0-16.76-11.83,99.52,99.52,0,0,0-27.12-11c-3.08-.72-3.64-2.07-3.6-4.86.15-9.59.07-19.18,0-28.77,0-6.76-2.09-8.91-8.73-8.93q-17,0-34,0c-6.33,0-8.36,2.12-8.37,8.38,0,10.26-.08,20.51.05,30.77,0,2.39-.56,3.47-3.05,4.07-6.06,1.44-11.73,4.09-17.48,6.47l-.95-.95a13.15,13.15,0,0,0,1.36-5.35c0-11.85,0-23.71,0-35.57,0-5.42-2.33-7.76-7.82-7.81q-17.79-.14-35.57,0c-5.5.05-7.66,2.38-7.68,7.89q0,17.38,0,34.77c0,6.32,2,8.28,8.38,8.29l39.65,0-.06-.05c-9,5.4-17.68,11.12-25.19,18.5-3.88,3.81-4.18,5.78-1.38,10.39l-7.23,9.51c-5.19-1.7-7.17-1-9.83,3.7q-24.15,43-8.93,89.89c.2.61.42,1.22.66,1.88-1,1-2.09.62-3.06.62q-89.91,0-179.83.1c-3.1,0-3.65-.89-3.64-3.77.11-30.64,0-61.28.11-91.91C60.88,415.51,59.41,412.8,55.19,411.87ZM180,355.2c0,5.86,0,11.72,0,17.58s2.15,8,7.87,8q17.78,0,35.56,0c5.33,0,7.61-2.15,7.65-7.44q.1-18,0-36c0-5-2.27-7.47-7.27-7.53q-18.18-.21-36.36,0c-5.22.05-7.39,2.47-7.44,7.74C180,343.47,180,349.34,180,355.2Zm-45.67,25.61c6.13,0,12.26,0,18.39,0,4.81-.05,7.14-2.24,7.18-7.08q.13-18.39,0-36.77c0-4.41-2.17-6.95-6.49-7q-19-.3-38,0c-4.32.06-6.55,2.57-6.59,6.93-.1,12.39-.12,24.77,0,37.16,0,4.58,2.47,6.73,7.08,6.78C122.11,380.86,128.24,380.81,134.36,380.81Zm71,83.32c6.12,0,12.25.05,18.37,0,5.1-.05,7.37-2.2,7.41-7.25q.12-18.18,0-36.36c0-4.86-2.27-7.1-7.12-7.14q-18.39-.14-36.76,0c-4.87,0-7.14,2.27-7.17,7.07q-.13,18.38,0,36.75c0,4.64,2.32,6.85,6.9,6.92C193.08,464.19,199.21,464.13,205.34,464.13Zm-71,0c6,0,12,0,18,0,5.38,0,7.59-2.14,7.62-7.43q.09-18,0-35.95c0-5.11-2.21-7.33-7.29-7.37q-18.17-.12-36.35,0c-5.14,0-7.38,2.19-7.41,7.24q-.14,18.18,0,36.35c0,5,2.31,7.11,7.48,7.16C122.36,464.17,128.35,464.13,134.34,464.13Z" transform="translate(-48.8 -178.41)"/><path class="cls-4" d="M92.67,246.43c-.4,9.9,2.82,18.11,11.53,23.44,16.21,9.93,35.76-1.48,36.49-21.22.11-3.2.14-6.41,0-9.6-.12-2.32.78-3.17,3-2.9a16.66,16.66,0,0,0,2,0q95.58,0,191.15-.12c4.26,0,5.14,1.27,4.9,5.12a49.6,49.6,0,0,0,.5,12.75c2.34,11.71,13.54,20.62,24.71,19.52,13.08-1.28,22.44-11,22.66-23.54.06-3.73.09-7.47,0-11.2-.05-1.87.56-2.58,2.5-2.57q13.2.12,26.39,0c2.05,0,2.43.9,2.42,2.67q-.12,18.18-.15,36.38-177.66,0-355.32.1c-3,0-3.89-.79-3.86-3.81.12-11.58,0-23.17-.08-34.76l0,0c9.06,0,18.12.17,27.18.08,2.62,0,3.53.81,3.44,3.43C92.06,242.25,91.47,244.44,92.67,246.43Z" transform="translate(-48.8 -178.41)"/><path class="cls-5" d="M61.47,236.71c.05,11.59.2,23.18.08,34.76,0,3,.89,3.81,3.86,3.81q177.66-.12,355.32-.1c0,3.73-.05,7.47.15,11.19.14,2.53-.87,3.39-3.24,3.11a19.2,19.2,0,0,0-2.4,0H66.87c-5.91,0-5.9,0-5.92-5.75,0-14.26-.09-28.52-.08-42.79C60.87,239.52,60.35,238,61.47,236.71Z" transform="translate(-48.8 -178.41)"/><path class="cls-6" d="M420.72,315.21H61c0-4.38-1.6-9.94.5-12.79s7.94-.83,12.13-.83q171.24-.08,342.49-.14c4.11,0,5.33,1,4.84,5A82.57,82.57,0,0,0,420.72,315.21Z" transform="translate(-48.8 -178.41)"/><path class="cls-7" d="M363.21,260.76c-5.8-1.3-9.27-5.18-9.36-11.62q-.28-23.16,0-46.31c.09-6.78,3.9-10.87,10.06-11.82,3.36,5.6,3.44,11.76,3.36,18.05-.17,13.05-.22,26.1,0,39.14A19.39,19.39,0,0,1,363.21,260.76Z" transform="translate(-48.8 -178.41)"/><path class="cls-8" d="M114.38,260.78c-5.65-1.08-9.49-5.24-9.53-11q-.18-23.92,0-47.84c0-5.4,3.44-9.27,8.82-10.78,4.23,3.18,4.62,7.94,4.67,12.55.17,14.78.11,29.57,0,44.35A20.56,20.56,0,0,1,114.38,260.78Z" transform="translate(-48.8 -178.41)"/><path class="cls-9" d="M114.38,260.78a20.56,20.56,0,0,0,4-12.68c.07-14.78.13-29.57,0-44.35,0-4.61-.44-9.37-4.67-12.55A11.33,11.33,0,0,1,128,199.59a23.72,23.72,0,0,1,.47,4.76c0,14.4.07,28.8,0,43.2,0,8.12-4.06,13-11,13.71A4.82,4.82,0,0,1,114.38,260.78Z" transform="translate(-48.8 -178.41)"/><path class="cls-10" d="M363.21,260.76a19.39,19.39,0,0,0,4.09-12.56c-.25-13-.2-26.09,0-39.14.08-6.29,0-12.45-3.36-18.05a11.17,11.17,0,0,1,13.52,10.87c.31,16,.27,31.92,0,47.87A11.46,11.46,0,0,1,363.21,260.76Z" transform="translate(-48.8 -178.41)"/><path class="cls-5" d="M92.67,246.43c-1.2-2-.61-4.18-.54-6.25.09-2.62-.82-3.46-3.44-3.43-9.06.09-18.12,0-27.18-.08,1.64-1.32,3.56-.6,5.34-.62,7.68-.1,15.36,0,23-.08,2.19,0,3.17.63,3,2.93C92.7,241.4,92.73,243.92,92.67,246.43Z" transform="translate(-48.8 -178.41)"/><path class="cls-11" d="M374.38,570.47c5.92-4,12.27-7.28,17.94-11.72,20.4-16,33.21-36.63,38-62.07a100.54,100.54,0,0,0-9.51-66.13c-9.73-19-24.2-33.42-42.94-43.6-1-.56-2.28-.88-2.66-2.23,14.07,3.16,26.27,10,37,19.38,21.67,18.76,33,42.67,34,71.27,1.41,42.56-27.56,82.43-68.38,94.57A23.82,23.82,0,0,1,374.38,570.47Z" transform="translate(-48.8 -178.41)"/><path class="cls-12" d="M334.45,355.6c0-3.46.06-6.92,0-10.37,0-1.92.41-3,2.64-2.94,7,.1,14.1.09,21.14,0,2.14,0,2.74.88,2.73,2.87q-.1,10.36,0,20.74c0,1.94-.47,2.94-2.66,2.91q-10.57-.13-21.14,0c-2.16,0-2.76-.86-2.7-2.85C334.53,362.52,334.45,359.06,334.45,355.6Z" transform="translate(-48.8 -178.41)"/><path class="cls-3" d="M301.92,379.53a4.66,4.66,0,0,1-2.73,1.27l.06.05c-.53-1.59,1.32-1.38,1.72-2.27Z" transform="translate(-48.8 -178.41)"/><path class="cls-11" d="M375.27,384.75c-.93.1-1.84.19-2.48-.71C373.7,384,374.63,383.83,375.27,384.75Z" transform="translate(-48.8 -178.41)"/><path class="cls-13" d="M301,378.58c-.4.89-2.25.68-1.72,2.27l-39.65,0c-6.38,0-8.38-2-8.38-8.29q0-17.38,0-34.77c0-5.51,2.18-7.84,7.68-7.89q17.78-.15,35.57,0c5.49,0,7.79,2.39,7.82,7.81.07,11.86,0,23.72,0,35.57A13.15,13.15,0,0,1,301,378.58Zm-11.23-23c0-3.46-.1-6.92,0-10.37.09-2.3-.86-3-3-3-6.79.09-13.57.12-20.36,0-2.5,0-3.18.9-3.14,3.27.12,6.78.08,13.57,0,20.35,0,1.9.38,3,2.62,2.93q10.58-.13,21.15,0c2.1,0,2.81-.79,2.75-2.82C289.67,362.54,289.74,359.08,289.74,355.62Z" transform="translate(-48.8 -178.41)"/><path class="cls-13" d="M180,355.2c0-5.86-.05-11.73,0-17.59.05-5.27,2.22-7.69,7.44-7.74q18.18-.19,36.36,0c5,.06,7.24,2.5,7.27,7.53q.1,18,0,36c0,5.29-2.32,7.43-7.65,7.44q-17.78,0-35.56,0c-5.72,0-7.83-2.18-7.87-8S180,361.06,180,355.2Zm25.42-12.88c-3.46,0-6.92.1-10.37,0-2.23-.08-3.07.7-3,3,.1,6.91.08,13.83,0,20.74,0,2,.61,2.85,2.73,2.82q10.36-.13,20.74,0c2.19,0,3.1-.64,3.06-2.94q-.17-10.17,0-20.35c0-2.37-.68-3.38-3.17-3.26C212.1,342.44,208.77,342.32,205.45,342.32Z" transform="translate(-48.8 -178.41)"/><path class="cls-13" d="M134.36,380.81c-6.12,0-12.25.05-18.38,0-4.61-.05-7-2.2-7.08-6.78-.13-12.39-.11-24.77,0-37.16,0-4.36,2.27-6.87,6.59-6.93q19-.29,38,0c4.32.07,6.46,2.61,6.49,7q.13,18.39,0,36.77c0,4.84-2.37,7-7.18,7.08C146.62,380.85,140.49,380.81,134.36,380.81Zm-.14-12c3.59,0,7.18-.1,10.76,0,2.29.09,3-.79,3-3-.1-6.91-.09-13.81,0-20.72,0-2.05-.7-2.83-2.77-2.81q-10.77.12-21.52,0c-2.1,0-2.78.81-2.76,2.83.08,7,.07,14.09,0,21.13,0,1.87.68,2.61,2.57,2.56C127.05,368.73,130.63,368.79,134.22,368.79Z" transform="translate(-48.8 -178.41)"/><path class="cls-1" d="M205.34,464.13c-6.13,0-12.26.06-18.38,0-4.58-.07-6.86-2.28-6.9-6.92q-.13-18.37,0-36.75c0-4.8,2.3-7,7.17-7.07q18.38-.12,36.76,0c4.85,0,7.08,2.28,7.12,7.14q.15,18.18,0,36.36c0,5.05-2.31,7.2-7.41,7.25C217.59,464.18,211.46,464.13,205.34,464.13Zm.25-12.11c3.59,0,7.18-.08,10.76,0,2.1.06,2.78-.77,2.76-2.81-.08-7-.06-14.08,0-21.12,0-1.88-.7-2.59-2.58-2.57q-11,.09-21.92,0c-1.91,0-2.55.76-2.54,2.6.06,7,.08,14.08,0,21.12,0,2.08.73,2.84,2.79,2.78C198.42,451.94,202,452,205.59,452Z" transform="translate(-48.8 -178.41)"/><path class="cls-1" d="M134.34,464.13c-6,0-12,0-18,0-5.17-.05-7.44-2.12-7.48-7.16q-.14-18.18,0-36.35c0-5.05,2.27-7.21,7.41-7.24q18.18-.12,36.35,0c5.08,0,7.26,2.26,7.29,7.37q.1,18,0,35.95c0,5.29-2.24,7.39-7.62,7.43C146.33,464.17,140.34,464.13,134.34,464.13ZM134.4,452c3.59,0,7.17-.08,10.76,0,2.06.06,2.8-.72,2.78-2.79-.09-7-.07-14.08,0-21.12,0-1.85-.65-2.61-2.55-2.59q-11,.09-21.92,0c-1.89,0-2.59.71-2.57,2.58,0,7,.07,14.08,0,21.12,0,2.05.68,2.86,2.76,2.8C127.22,451.94,130.81,452,134.4,452Z" transform="translate(-48.8 -178.41)"/><path class="cls-12" d="M289.74,355.62c0,3.46-.07,6.92,0,10.38.06,2-.65,2.85-2.75,2.82q-10.58-.12-21.15,0c-2.24,0-2.64-1-2.62-2.93.06-6.78.1-13.57,0-20.35,0-2.37.64-3.32,3.14-3.27,6.79.14,13.57.11,20.36,0,2.19,0,3.14.66,3,3C289.64,348.7,289.74,352.16,289.74,355.62Z" transform="translate(-48.8 -178.41)"/><path class="cls-12" d="M205.45,342.32c3.32,0,6.65.12,10,0,2.49-.12,3.21.89,3.17,3.26q-.17,10.17,0,20.35c0,2.3-.87,3-3.06,2.94q-10.36-.15-20.74,0c-2.12,0-2.76-.8-2.73-2.82.07-6.91.09-13.83,0-20.74,0-2.28.8-3.06,3-3C198.53,342.42,202,342.32,205.45,342.32Z" transform="translate(-48.8 -178.41)"/><path class="cls-12" d="M134.22,368.79c-3.59,0-7.17-.06-10.76,0-1.89.05-2.59-.69-2.57-2.56.06-7,.07-14.09,0-21.13,0-2,.66-2.85,2.76-2.83q10.76.12,21.52,0c2.07,0,2.8.76,2.77,2.81-.08,6.91-.09,13.81,0,20.72,0,2.22-.67,3.1-3,3C141.4,368.69,137.81,368.79,134.22,368.79Z" transform="translate(-48.8 -178.41)"/><path class="cls-12" d="M205.59,452c-3.58,0-7.17-.08-10.75,0-2.06.06-2.82-.7-2.79-2.78.09-7,.07-14.08,0-21.12,0-1.84.63-2.62,2.54-2.6q11,.09,21.92,0c1.88,0,2.6.69,2.58,2.57,0,7-.07,14.08,0,21.12,0,2-.66,2.87-2.76,2.81C212.77,451.94,209.18,452,205.59,452Z" transform="translate(-48.8 -178.41)"/><path class="cls-12" d="M134.4,452c-3.59,0-7.18-.08-10.76,0-2.08.06-2.79-.75-2.76-2.8.08-7,.06-14.08,0-21.12,0-1.87.68-2.6,2.57-2.58q11,.09,21.92,0c1.9,0,2.56.74,2.55,2.59-.06,7-.08,14.08,0,21.12,0,2.07-.72,2.85-2.78,2.79C141.57,451.94,138,452,134.4,452Z" transform="translate(-48.8 -178.41)"/><path class="cls-8" d="M375.23,384.72v0h0Z" transform="translate(-48.8 -178.41)"/><path class="cls-8" d="M420.83,430.55c-9.73-19-24.2-33.42-42.94-43.6-1-.55-2.26-.88-2.65-2.2-.91.1-1.82.18-2.45-.71-18.13-5.17-36.08-3.83-53.78,1.87a92.07,92.07,0,0,0-36.18,21.91c-3,2.9-6.15,4.8-10.21,1.87l-7.23,9.51c3.81,3.73,2,7.28,0,11.14-18.41,35.16-17.1,69.72,5.26,102.44,18.68,27.31,45.71,40.62,78.67,41.41,8.44.2,17-.42,25.08-3.72,5.92-4,12.27-7.28,17.94-11.72,20.4-16,33.21-36.63,38-62.07A100.54,100.54,0,0,0,420.83,430.55Z" transform="translate(-48.8 -178.41)"/><path class="cls-14" d="M325.23,471.23" transform="translate(-48.8 -178.41)"/><path class="cls-15" d="M352.06,484a49.47,49.47,0,0,0,3.79,15.67A58.54,58.54,0,0,0,371,521.35a25.05,25.05,0,0,0,4.17,3.36A45.9,45.9,0,0,1,361,529.49a51.48,51.48,0,0,1-37-6.93c-13.12-8.09-21.4-19.79-24.2-35-3.63-19.76,2.4-36.47,17.21-49.9a50.1,50.1,0,0,1,26.63-12.28,52.27,52.27,0,0,1,30.74,4.52,3.64,3.64,0,0,1,.52.35,67.67,67.67,0,0,0-7.78,7.17,59,59,0,0,0-13.27,23.61,77.23,77.23,0,0,0-2,10" transform="translate(-48.8 -178.41)"/><path class="cls-16" d="M388.77,524.15c-1.94-3.13-5.77-3.91-9.16-1.88a33.78,33.78,0,0,1-4.46,2.44A45.9,45.9,0,0,1,361,529.49a51.48,51.48,0,0,1-37-6.93c-13.12-8.09-21.4-19.79-24.2-35a59.38,59.38,0,0,1-1-13.11,9.26,9.26,0,0,1,1.62,2.36h0a8.81,8.81,0,0,1,.68,2.05c1.54,3.23,3.08,6.46,4.67,9.66A6.44,6.44,0,1,0,317.43,483c-1.48-3.18-3.05-6.31-4.55-9.48a43.12,43.12,0,0,1-2.19-4.73.3.3,0,0,1-.19-.33,49.24,49.24,0,0,1-2.64-5.23c-3.47-7.08-10.41-9.51-17.53-6.13a50.34,50.34,0,0,1-5.33,2.46.3.3,0,0,1-.34.14,22.67,22.67,0,0,1-3.5,1.8c-3.6,1.76-7.25,3.44-10.83,5.27a6.43,6.43,0,0,0,5.49,11.62h0c.87-.37,1.71-.81,2.55-1.21l7.6-3.63v9.4a22.79,22.79,0,0,1,.74,4.58c3.35,19.82,13.45,35.16,30.44,45.9a64.89,64.89,0,0,0,25.11,9.18,14.87,14.87,0,0,1,3.69.58h10.77c.58-.46,1.28-.22,1.92-.3a66.75,66.75,0,0,0,27.69-9.57C389.73,531.14,390.75,527.36,388.77,524.15Z" transform="translate(-48.8 -178.41)"/><path class="cls-16" d="M436.77,482.67a6.39,6.39,0,0,0-8.36-3.33c-.87.34-1.7.76-2.57,1.15l-8.94,4a66.47,66.47,0,0,0-1.34-21.78A65.73,65.73,0,0,0,305.64,430.6a6.51,6.51,0,1,0,9.14,9.26h0c.74-.73,1.49-1.44,2.27-2.15a50,50,0,0,1,26.64-12.28A52.11,52.11,0,0,1,374.43,430l.19.11a8,8,0,0,0,.81.46,47.18,47.18,0,0,1,13.49,9.75c11.18,11.49,16.19,25.19,15.31,41a10.15,10.15,0,0,1-.51-1h0a9,9,0,0,1-.65-2.07c-1.46-3.27-2.91-6.53-4.43-9.77a6.44,6.44,0,1,0-11.73,5.31c1.41,3.21,2.91,6.38,4.32,9.57a42.26,42.26,0,0,1,2.08,4.79c.15.05.18.18.18.34a49.33,49.33,0,0,1,2.51,5.3c3.29,7.17,10.17,9.75,17.38,6.55a48.11,48.11,0,0,1,5.37-2.33.3.3,0,0,1,.36-.12,21.76,21.76,0,0,1,3.54-1.71c3.65-1.68,7.34-3.27,11-5a6.34,6.34,0,0,0,3.18-8.39Z" transform="translate(-48.8 -178.41)"/></svg>