<svg id="Layer_1" data-name="Layer 1" xmlns="http://www.w3.org/2000/svg" viewBox="0 0 416.44 416.44"><defs><style>.cls-1{fill:#e4f5fa;}.cls-2{fill:#0a0806;}.cls-3{fill:#0d0c09;}.cls-4{fill:#a8b9c8;}.cls-5{fill:#222;}.cls-6{fill:#141515;}.cls-7{fill:#f38f5d;}.cls-8{fill:#f7aa42;}.cls-9{fill:#f9ac43;}.cls-10{fill:#fced8a;}.cls-11{fill:#a6b8c7;}.cls-12{fill:#fac372;}.cls-13{fill:#f28d5d;}.cls-14{fill:#f9f8f8;}.cls-15{fill:#e08553;}.cls-16{fill:#0d0d05;}.cls-17{fill:#fdfdfd;}</style></defs><title>Terms &amp;amp; conditions</title><rect class="cls-1" width="416.44" height="416.44" rx="23.29"/><path class="cls-2" d="M736.36,588.46c2.75-4.22,2.75-4.21,7.08-1.66,6.35,3.74,12.73,7.44,19.07,11.22,9.5,5.67,14.12,15.53,12.1,25.69s-10.22,17.64-21.33,19.07c-5.39.69-10.31-.86-14.93-3.59Q705.79,620,673.23,600.83c-1.9-1.12-3.08-1.52-5.09.41-5.42,5.19-12,6.29-18.88,3.22s-10.52-8.64-10.36-16.17c.06-3.13-.62-4-3.75-3.86-6.94.25-13.89.08-20.83.08-1.26,0-2.76-.23-2.17,1.83,1.31,4.62.23,9-1.69,13.76H629c7,0,7,0,7,7,0,4.55.11,9.11,0,13.66-.07,2.12.38,3,2.74,2.87,3.86-.21,7.74.07,11.61-.1,2.24-.1,2.86.61,2.84,2.87-.12,10.58,0,21.17,0,31.76H495.93c-.06-10.81-.09-21.62-.23-32.43,0-2,.88-2.21,2.49-2.18,4.1.08,8.2-.07,12.3.07,1.93.06,2.53-.53,2.5-2.49-.12-6,.07-12.08-.11-18.11-.07-2.39.57-3,3-3,17,.11,33.94.06,50.91.06h2l.2-.55c-5.49-3.23-11.21-6.14-16.4-9.79-6.07-4.26-12.48-5.46-19.8-5.38-29.26.31-58.53.09-87.8.19-2.92,0-4-.46-4-3.76q.26-36.55,0-73.12c0-3.39,1.16-3.93,4.06-3.74,6.42.4,6.42.31,6.42,6.88,0,19.93.05,39.86-.06,59.79,0,2.68.38,3.63,3.4,3.61,25.16-.14,50.33-.08,75.8-.08-1.69-4.56-3.12-8.93-2-13.82,2.52-11.1,12.75-17.89,23.84-15.28,1.86.44,2.66.05,3.52-1.42q17.28-29.5,34.66-58.94c.89-1.5.52-2.22-.51-3.36a19.63,19.63,0,0,1,24-30.48c10.08,5.67,20,11.66,30,17.5,1.16.68,2.38,1.28,3.57,1.92l8.82,5.36V326.84c0-8.62,0-8.62-8.81-8.25q-27.17,0-54.32-.09c-28.92,0-57.84.07-86.77-.09-3.43,0-4,1-3.94,4.11.18,14.57,0,29.15.17,43.72,0,3.17-.92,3.65-3.78,3.63-14.57-.15-29.15,0-43.72-.14-3,0-4,.54-3.94,3.79.13,38.72,0,77.43.16,116.15,0,3.07-.7,4-3.85,3.89-6.61-.24-6.62-.06-6.62-6.8q0-60.3-.06-120.59a8,8,0,0,1,2.61-6.23q24.82-24.69,49.47-49.57a6.85,6.85,0,0,1,5.37-2.17q82.16.09,164.32,0c3.15,0,4.11.54,4.1,3.95q-.2,83-.09,166c0,3.62,0,7.14,1.52,10.64a15.6,15.6,0,0,1-.24,12.3,19,19,0,0,0-1.3,7.6c0,9.44,0,18.88,0,28.66,2.82-1.32,5.2-3,8.11-3.56,13-2.34,23.73,8.93,20.38,21.79-.59,2.25.07,2.95,1.7,3.89q14.43,8.37,28.79,16.85c4.5,2.65,4.5,2.66,2.07,7.23a4.56,4.56,0,0,0-.79,1.1c-1.14,3.23-2.72,3.09-5.46,1.39-8.47-5.26-17.15-10.2-25.75-15.26-6.86-4-6.86-4-10.5,3.3-2.8,4.66-5.51,9.39-8.45,14-1.16,1.8-.88,2.53.9,3.54,6.62,3.75,13.14,7.67,19.7,11.52q23,13.56,46.08,27.09c6.14,3.59,12,3,16.85-1.55,6.5-6.56,5.51-16.25-2.33-21.11-6.43-4-13-7.74-19.54-11.59C733.9,593.22,733.89,593.23,736.36,588.46ZM634,634.26l0,0c-11.25-.07-22.5-.16-33.75-.21-7.08,0-7,0-7.05-7,0-2.51.63-3.35,3.23-3.3,8,.16,15.92.06,23.88.06,5.44,0,5.44,0,5.44-5.36,0-8.52,0-8.52-8.82-7.93q-41.85,0-83.7-.09c-3.17,0-7.37-1.08-9.24.52-2.17,1.86-.36,6.2-.74,9.44-.31,2.64.57,3.44,3.31,3.42,16.52-.13,33-.06,49.54-.06,6.84,0,6.67,0,6.89,6.69.1,3-.73,3.79-3.76,3.78-23.34-.14-46.69-.05-70-.13-2.28,0-3.31.43-3.09,3a36.86,36.86,0,0,1,0,7.5c-.33,3,.85,3.48,3.59,3.47q60.65-.13,121.28-.07c1,0,2-.06,3.07-.1s2,.1,3.07.1c5.71,0,5.71,0,5.71-5.68C642.79,633.65,642.79,633.65,634,634.26Zm13.64-96.43,8.8,5.31c0-9.07-.09-17.44,0-25.81,0-2.9.08-4.91-3.81-3.48-1.52.56-3.37.2-5.08.26-4.17-1.93-6.19.24-7.9,3.8-1.61,3.36-3.71,6.48-5.65,9.67-.74,1.23-1,2,.65,2.87C639.1,532.78,643.35,535.35,647.66,537.83Zm22.64,13c-6.71,11.33-13.48,22.62-20.08,34a6.87,6.87,0,0,0,2.45,9.74,7,7,0,0,0,9.59-2.22c6.86-11.49,13.53-23.1,20.26-34.66a24,24,0,0,0,2.41-4,7.08,7.08,0,0,0-9.41-9.21C672.66,545.64,671.55,548.33,670.3,550.85Zm-15.85-48.62c6.06-4.3,6-12.09-.39-15.94Q631.79,472.92,609.28,460c-5-2.88-9.52-1.49-12.81,3.41-2.54,4.95-1.63,9.68,3,12.42q22.61,13.56,45.42,26.78A8.32,8.32,0,0,0,654.45,502.23Zm-25.22,12.94c.91-1.42,1.72-2.92,2.75-4.25,1.6-2.06,1.38-3.22-1.07-4.59-8.21-4.59-16.25-9.46-24.36-14.23-6.69-3.93-6.69-3.92-10.16,3.37Q580.5,522.26,564.6,549c-1,1.68,0,2.09,1.11,2.75,9.79,5.74,19.6,11.44,29.33,17.3,1.81,1.09,2.45.54,3.32-1,2.75-4.83,5.62-9.6,8.42-14.41Q618,534.44,629.23,515.17Zm-81,39.7a9.19,9.19,0,0,0-9.38,6.74c-1.27,4.21.24,8.3,4.4,10.78q22.25,13.22,44.6,26.25a9.37,9.37,0,0,0,14.31-7c.44-4.29-1.64-7.36-5.31-9.51Q575,569.28,553.16,556.38A8.53,8.53,0,0,0,548.27,554.87ZM459.63,359.52c10.3,0,20.73,0,31.17,0,1.14,0,1.61-.43,1.6-1.6,0-10.42,0-20.84,0-31ZM628.22,538.63c-.86.14-1.07.86-1.41,1.42-1.69,2.82-3.27,5.72-5.06,8.47-1,1.59-.51,2.26.94,3.1q12.07,7,24,14.15c1.47.89,2.26.92,3.13-.76a83.11,83.11,0,0,1,4.83-8.2c1.15-1.71.66-2.39-.94-3.31-8-4.58-15.86-9.27-23.77-13.92C629.38,539.24,628.78,538.93,628.22,538.63ZM640.42,574c-8.31-4.9-15.95-9.4-23.58-13.92-1-.56-1.56-.54-2.18.54-2.51,4.39-5.1,8.73-7.84,13.38Z" transform="translate(-399.79 -274.95)"/><path class="cls-3" d="M553.78,334.74a41.1,41.1,0,0,1,41.16,40.81c.06,22.37-18.48,41-41,41.1a41,41,0,0,1-.18-81.91Zm7,11.2a22.07,22.07,0,0,0-2.62-.71c-23.35-3.23-41.49,19.93-32.79,41.86,5.54,14,22.35,22.58,35.43,18.15,12.84-2,23.41-15,23.75-29.3C584.93,361.88,574.42,348.61,560.82,345.94Z" transform="translate(-399.79 -274.95)"/><path class="cls-4" d="M647.65,318.59c8.81-.37,8.81-.37,8.81,8.25V475.63l-8.82-5.36q0-32.28.07-64.57Q647.71,362.16,647.65,318.59Z" transform="translate(-399.79 -274.95)"/><path class="cls-5" d="M523.23,483.48c14.33,0,28.67.06,43-.05,2.34,0,3.07.54,3,3-.08,7.46,0,7.46-7.37,7.46-27.07,0-54.14,0-81.21.06-2.86,0-4-.45-3.86-3.67.28-6.77.08-6.78,6.82-6.78Z" transform="translate(-399.79 -274.95)"/><path class="cls-6" d="M523.08,442.66c-14.23,0-28.46-.05-42.69,0-2.49,0-3.62-.35-3.53-3.29.2-7.08,0-7.09,7.15-7.09,27.09,0,54.18,0,81.27-.06,2.92,0,4.16.44,4,3.78-.3,6.61-.08,6.62-6.59,6.62Z" transform="translate(-399.79 -274.95)"/><path class="cls-6" d="M523.08,468.64c-14.23,0-28.46-.05-42.69.05-2.5,0-3.61-.36-3.53-3.29.2-7.09,0-7.09,7.15-7.09,27.09,0,54.18,0,81.27-.06,2.92,0,4.16.44,4,3.78-.3,6.6-.08,6.61-6.59,6.61Z" transform="translate(-399.79 -274.95)"/><path class="cls-7" d="M736.36,588.46c-2.47,4.77-2.46,4.76,2.16,7.48,6.52,3.85,13.11,7.59,19.54,11.59,7.84,4.86,8.83,14.55,2.33,21.11-.6-9.69-6.89-14.95-14.69-19.21-6.26-3.42-12.34-7.17-18.49-10.78l-41.9-24.57c3.64-7.34,3.64-7.34,10.5-3.3,8.6,5.06,17.28,10,25.75,15.26,2.74,1.7,4.32,1.84,5.46-1.39a4.56,4.56,0,0,1,.79-1.1Z" transform="translate(-399.79 -274.95)"/><path class="cls-6" d="M502.71,508.94c7.62,0,15.25.08,22.87-.05,2.14,0,2.65.58,2.65,2.67,0,7.71.1,7.71-7.5,7.71-13.55,0-27.09-.07-40.63.06-2.59,0-3.26-.71-3.22-3.25.11-7.14,0-7.14,7.05-7.14Z" transform="translate(-399.79 -274.95)"/><path class="cls-8" d="M634,647.81c-1,0-2,.1-3.07.1q-60.65,0-121.28.07c-2.74,0-3.92-.49-3.59-3.47a36.86,36.86,0,0,0,0-7.5c-.22-2.52.81-3,3.09-3,23.35.08,46.7,0,70,.13,3,0,3.86-.77,3.76-3.78-.22-6.69-.05-6.69-6.89-6.69-16.51,0-33-.07-49.54.06-2.74,0-3.62-.78-3.31-3.42.38-3.24-1.43-7.58.74-9.44,1.87-1.6,6.07-.53,9.24-.52q41.85,0,83.7.09c0,3.18-.13,6.37.06,9.53.15,2.49-.58,3.46-3.21,3.33-4.31-.2-8.63-.05-12.94-.05-8.16,0-8.09,0-7.94,8.12,0,2.23.75,2.94,3,2.92,12.72-.1,25.43-.08,38.15-.11l0,0Q634,641,634,647.81Z" transform="translate(-399.79 -274.95)"/><path class="cls-9" d="M629.23,515.17Q618,534.43,606.78,553.68c-2.8,4.81-5.67,9.58-8.42,14.41-.87,1.53-1.51,2.08-3.32,1-9.73-5.86-19.54-11.56-29.33-17.3-1.12-.66-2.12-1.07-1.11-2.75q16-26.74,31.79-53.56c4.19,2.45,8.44,4.84,12.58,7.38C615.71,507,622.85,510.45,629.23,515.17Z" transform="translate(-399.79 -274.95)"/><path class="cls-9" d="M685.31,574.08l41.9,24.57c6.15,3.61,12.23,7.36,18.49,10.78,7.8,4.26,14.09,9.52,14.69,19.21-4.9,4.54-10.71,5.14-16.85,1.55q-23.07-13.5-46.08-27.09c-6.56-3.85-13.08-7.77-19.7-11.52-1.78-1-2.06-1.74-.9-3.54C679.8,583.47,682.51,578.74,685.31,574.08Z" transform="translate(-399.79 -274.95)"/><path class="cls-10" d="M548.27,554.87a8.53,8.53,0,0,1,4.89,1.51q21.86,12.87,43.73,25.73c3.67,2.15,5.75,5.22,5.31,9.51a9.37,9.37,0,0,1-14.31,7q-22.32-13.08-44.6-26.25c-4.16-2.48-5.67-6.57-4.4-10.78A9.19,9.19,0,0,1,548.27,554.87Z" transform="translate(-399.79 -274.95)"/><path class="cls-10" d="M654.45,502.23a8.32,8.32,0,0,1-9.6.33q-22.79-13.28-45.42-26.78c-4.59-2.74-5.5-7.47-3-12.42a12.25,12.25,0,0,1,6.37,2c13.84,8.16,27.65,16.38,41.59,24.37C649.51,492.67,653.3,496.31,654.45,502.23Z" transform="translate(-399.79 -274.95)"/><path class="cls-10" d="M682.52,557.72c-6.73,11.56-13.4,23.17-20.26,34.66a7,7,0,0,1-9.59,2.22,6.87,6.87,0,0,1-2.45-9.74c6.6-11.39,13.37-22.68,20.08-34C676,550.28,679.43,553.68,682.52,557.72Z" transform="translate(-399.79 -274.95)"/><path class="cls-11" d="M459.63,359.52l32.76-32.62c0,10.19,0,20.61,0,31,0,1.17-.46,1.6-1.6,1.6C480.36,359.51,469.93,359.52,459.63,359.52Z" transform="translate(-399.79 -274.95)"/><path class="cls-12" d="M654.45,502.23c-1.15-5.92-4.94-9.56-10-12.47-13.94-8-27.75-16.21-41.59-24.37a12.25,12.25,0,0,0-6.37-2c3.29-4.9,7.84-6.29,12.81-3.41q22.47,13,44.78,26.34C660.47,490.14,660.51,497.93,654.45,502.23Z" transform="translate(-399.79 -274.95)"/><path class="cls-13" d="M628.22,538.63c.56.3,1.16.61,1.75,1,7.91,4.65,15.81,9.34,23.77,13.92,1.6.92,2.09,1.6.94,3.31a83.11,83.11,0,0,0-4.83,8.2c-.87,1.68-1.66,1.65-3.13.76q-12-7.17-24-14.15c-1.45-.84-2-1.51-.94-3.1,1.79-2.75,3.37-5.65,5.06-8.47C627.15,539.49,627.36,538.77,628.22,538.63Z" transform="translate(-399.79 -274.95)"/><path class="cls-7" d="M629.23,515.17c-6.38-4.72-13.52-8.18-20.26-12.32-4.14-2.54-8.39-4.93-12.58-7.38,3.47-7.29,3.47-7.3,10.16-3.37,8.11,4.77,16.15,9.64,24.36,14.23,2.45,1.37,2.67,2.53,1.07,4.59C631,512.25,630.14,513.75,629.23,515.17Z" transform="translate(-399.79 -274.95)"/><path class="cls-14" d="M640.42,574h-33.6c2.74-4.65,5.33-9,7.84-13.38.62-1.08,1.23-1.1,2.18-.54C624.47,564.59,632.11,569.09,640.42,574Z" transform="translate(-399.79 -274.95)"/><path class="cls-11" d="M647.62,514.11c1.71-.06,3.56.3,5.08-.26,3.89-1.43,3.86.58,3.81,3.48-.14,8.37,0,16.74,0,25.81l-8.8-5.31Q647.65,526,647.62,514.11Z" transform="translate(-399.79 -274.95)"/><path class="cls-14" d="M647.62,514.11q0,11.86,0,23.72c-4.31-2.48-8.56-5.05-12.94-7.38-1.63-.87-1.39-1.64-.65-2.87,1.94-3.19,4-6.31,5.65-9.67C641.43,514.35,643.45,512.18,647.62,514.11Z" transform="translate(-399.79 -274.95)"/><path class="cls-15" d="M634,634.23c-12.72,0-25.43,0-38.15.11-2.2,0-2.91-.69-3-2.92-.15-8.12-.22-8.12,7.94-8.12,4.31,0,8.63-.15,12.94.05,2.63.13,3.36-.84,3.21-3.33-.19-3.16-.05-6.35-.06-9.53,8.82-.59,8.82-.59,8.82,7.93,0,5.36,0,5.36-5.44,5.36-8,0-15.92.1-23.88-.06-2.6-.05-3.26.79-3.23,3.3.09,7,0,7,7.05,7C611.48,634.07,622.73,634.16,634,634.23Z" transform="translate(-399.79 -274.95)"/><path class="cls-13" d="M634,647.81q0-6.78,0-13.55c8.77-.61,8.77-.61,8.77,8,0,5.7,0,5.7-5.71,5.68C636.05,647.91,635,647.85,634,647.81Z" transform="translate(-399.79 -274.95)"/><path class="cls-12" d="M682.52,557.72c-3.09-4-6.54-7.44-12.22-6.87,1.25-2.52,2.36-5.21,5.22-6.36a7.08,7.08,0,0,1,9.41,9.21A24,24,0,0,1,682.52,557.72Z" transform="translate(-399.79 -274.95)"/><path class="cls-10" d="M560.84,405.24c-13.08,4.43-29.89-4.18-35.43-18.15-8.7-21.93,9.44-45.09,32.79-41.86a22.07,22.07,0,0,1,2.62.71,12.31,12.31,0,0,0,1.39,1.49,35.7,35.7,0,0,1,10.22,43.79C569.68,396.91,565.51,401.24,560.84,405.24Zm-26.51-29.68c4.32,6,8.6,11.84,12.78,17.76,1.21,1.72,1.81.82,2.7-.25q9.41-11.22,18.87-22.4c4.49-5.35,4.4-5.26-.64-9.85-2-1.83-3.1-2-4.93.32-4.52,5.75-9.37,11.24-14.17,16.92-2.19-2.92-3.79-7.18-6.23-7.73C539.93,369.69,537.25,373.61,534.33,375.56Z" transform="translate(-399.79 -274.95)"/><path class="cls-12" d="M560.84,405.24c4.67-4,8.84-8.33,11.59-14a35.7,35.7,0,0,0-10.22-43.79,12.31,12.31,0,0,1-1.39-1.49c13.6,2.67,24.11,15.94,23.77,30C584.25,390.2,573.68,403.24,560.84,405.24Z" transform="translate(-399.79 -274.95)"/><path class="cls-16" d="M534.33,375.56c2.92-1.95,5.6-5.87,8.38-5.23,2.44.55,4,4.81,6.23,7.73,4.8-5.68,9.65-11.17,14.17-16.92,1.83-2.33,2.92-2.15,4.93-.32,5,4.59,5.13,4.5.64,9.85q-9.43,11.2-18.87,22.4c-.89,1.07-1.49,2-2.7.25C542.93,387.4,538.65,381.55,534.33,375.56Z" transform="translate(-399.79 -274.95)"/><path class="cls-17" d="M614.11,450.85c10.08,5.67,20,11.66,30,17.5,1.16.68,2.38,1.28,3.57,1.92q0-32.28.07-64.57,0-43.54-.06-87.11-27.17,0-54.32-.09c-28.92,0-57.84.07-86.77-.09-3.43,0-4,1-3.94,4.11.18,14.57,0,29.15.17,43.72,0,3.17-.92,3.65-3.78,3.63-14.57-.15-29.15,0-43.72-.14-3,0-4,.54-3.94,3.79.13,38.72,0,77.43.16,116.15,0,2.54-.48,3.62-2.44,3.85v10.82c2.35.51,2.36,1.8,2.36,6.49,0,19.93.05,39.86-.06,59.79,0,2.68.38,3.63,3.4,3.61,25.16-.14,50.33-.08,75.8-.08-1.69-4.56-3.12-8.93-2-13.82,2.52-11.1,12.75-17.89,23.84-15.28,1.86.44,2.66.05,3.52-1.42q17.28-29.5,34.66-58.94c.89-1.5.52-2.22-.51-3.36a19.63,19.63,0,0,1,24-30.48ZM476.86,439.41c.2-7.08,0-7.09,7.15-7.09,27.09,0,54.18,0,81.27-.06,2.92,0,4.16.44,4,3.78-.3,6.61-.08,6.62-6.59,6.62H523.08c-14.23,0-28.46-.05-42.69,0C477.9,442.72,476.77,442.35,476.86,439.41Zm43.87,79.86c-13.55,0-27.09-.07-40.63.06-2.59,0-3.26-.71-3.22-3.25.11-7.14,0-7.14,7.05-7.14h18.78c7.62,0,15.25.08,22.87-.05,2.14,0,2.65.58,2.65,2.67C528.25,519.27,528.33,519.27,520.73,519.27Zm41.17-25.4c-27.07,0-54.14,0-81.21.06-2.86,0-4-.45-3.86-3.67.28-6.77.08-6.78,6.82-6.78h39.58c14.33,0,28.67.06,43-.05,2.34,0,3.07.54,3,3C569.19,493.87,569.3,493.87,561.9,493.87ZM569.28,462c-.3,6.6-.08,6.61-6.59,6.61H523.08c-14.23,0-28.46-.05-42.69.05-2.5,0-3.61-.36-3.53-3.29.2-7.09,0-7.09,7.15-7.09,27.09,0,54.18,0,81.27-.06C568.2,458.24,569.44,458.69,569.28,462ZM554,416.65a41,41,0,1,1,41-41.1C595,397.92,576.46,416.52,554,416.65Z" transform="translate(-399.79 -274.95)"/></svg>