<svg id="Layer_1" data-name="Layer 1" xmlns="http://www.w3.org/2000/svg" viewBox="0 0 384.04 307.07"><defs><style>.cls-1{fill:#0f0908;}.cls-2{fill:#0f0808;}</style></defs><title>Unselected like</title><path class="cls-1" d="M668.39,574.15c2.17,3.78,1.14,6.69-2,9.49-14.72,13-29.28,26.1-44,39.07-9.64,8.51-20.27,8.42-29.9-.14Q520.23,558.31,448.06,494c-17.95-16-28.68-36.11-31.81-60.1-.07-.51-.17-1-.75-1.11v-22.5c1.83-4.2,1.8-8.81,3-13.17,7.06-26.27,21.76-46.88,45-61.22,3.94-2.43,5.94-2.13,9.19,1.08,1.32,4.57.75,6.1-3.33,8.68-24.94,15.74-39,38.3-41.93,67.6-2.8,28.37,6.67,52.48,27.6,71.51,33.06,30.08,66.65,59.58,100,89.3q20.55,18.29,41.22,36.45c1.09,1,2.15,2.06,3.25,3,6,5.38,9.9,5.4,15.94,0q21.54-19.1,43.07-38.2C662.78,571.59,663.51,571.57,668.39,574.15Z" transform="translate(-415.5 -321.97)"/><path class="cls-2" d="M704.23,333.81c-27.87-1.24-50.82,9.21-69.39,29.63-10.09,11.1-16.3,24.3-19.78,38.87-1.49,6.26-7.62,8.6-12.3,5-2.17-1.67-2.76-4.1-3.34-6.51-5.69-23.45-18.86-41.56-39.28-54.26-20.24-12.59-42.22-15.66-65.42-11-4.62.93-6.22.2-8.3-4.09-.3-4.06,1.67-6.08,5.61-7a99.16,99.16,0,0,1,113.85,59c.43,1,.82,2.06,1.27,3.21,1.54-.51,1.41-2,1.85-3,15.49-35.15,42.26-56,80.25-60.92,50.69-6.6,98,27.72,108,77.6,7.4,36.9-2.82,68.45-30.53,93.8-25.79,23.61-52.2,46.54-78.3,69.82-3,2.64-5.8,3.15-9,.71-2.3-4.19-2-5.9,1.42-9.17,1-.94,2-1.86,3.05-2.77,25.66-22.85,51.56-45.44,76.92-68.63,18.1-16.55,27.35-37.61,27.39-62.19,0-23.25-7.81-43.86-23.6-61C748.39,343.42,728.21,334.26,704.23,333.81Z" transform="translate(-415.5 -321.97)"/></svg>