<svg id="Layer_1" data-name="Layer 1" xmlns="http://www.w3.org/2000/svg" viewBox="0 0 631.17 332.87"><defs><style>.cls-1{fill:#7c7c7c;}.cls-2{fill:#d5d5d5;}.cls-3{fill:#6c6c6c;}.cls-4{fill:#fefefe;}.cls-5{fill:#717171;}.cls-6{fill:#6b6b6b;}.cls-7{fill:#6a6a6a;}.cls-8{fill:#6f6f6f;}.cls-9{fill:#757575;}.cls-10{fill:#727272;}.cls-11{fill:#6e6e6e;}.cls-12{fill:#707070;}.cls-13{fill:#d3d3d3;}.cls-14{fill:#d4d4d4;}.cls-15{fill:#6d6d6d;}.cls-16{fill:#626262;}.cls-17{fill:#dadada;}.cls-18{fill:#7a7a7a;}.cls-19{fill:#d2d2d2;}.cls-20{fill:#656565;}.cls-21{fill:#7e7e7e;}.cls-22{fill:#555;}.cls-23{fill:#fdfdfd;}.cls-24{fill:#fbfbfb;}.cls-25{fill:#ebebeb;}.cls-26{fill:#ededed;}.cls-27{fill:#e7e7e7;}.cls-28{fill:#f0f0f0;}.cls-29{fill:#e0e0e0;}.cls-30{fill:#e8e8e8;}.cls-31{fill:#f1f1f1;}.cls-32{fill:#d9d9d9;}.cls-33{fill:#e2e2e2;}.cls-34{fill:#efefef;}.cls-35{fill:#f6f6f6;}.cls-36{fill:#d7d7d7;}.cls-37{fill:#f2f2f2;}.cls-38{fill:#f8f8f8;}.cls-39{fill:#f9f9f9;}.cls-40{fill:#d1d1d1;}.cls-41{fill:#fafafa;}.cls-42{fill:#d0d0d0;}.cls-43{fill:gray;}.cls-44{fill:#f5f5f5;}.cls-45{fill:#f4f4f4;}.cls-46{fill:#cfcfcf;}.cls-47{fill:#818181;}.cls-48{fill:#f3f3f3;}.cls-49{fill:#d6d6d6;}.cls-50{fill:#767676;}.cls-51{fill:#7d7d7d;}.cls-52{fill:#7b7b7b;}</style></defs><title>unserviceable shop</title><path class="cls-1" d="M787,950c-19.07-10.91-38.16-21.76-57.19-32.73-12.68-7.31-25.27-14.78-37.9-22.18-.25-.95-1-1.71-1-2.74.13-2.1,1.52-3.14,3.19-4.11q48.54-28.16,97.2-56.14c9.36-5.4,18.55-11.12,28.16-16.08,7.63-3.94,6.2-10.46,5.72-16.89a9.56,9.56,0,0,1,.55-1.37l.17.23c2.1-1.58,4-1.4,5.74.61a88.4,88.4,0,0,1,.89,9.89c.06,2.24.64,4.56,3.14,5.12,2.71.61,3.09-1.93,3.89-3.67.94-2,1.92-4,4.7-3.58A2.93,2.93,0,0,1,846,808c-.57,6.67-3.78,12.54-6.19,18.55-13.19,32.9-25.5,66.15-38.64,99.08-3.22,8.06-5.65,16.44-9.85,24.09C790,951.35,788.44,949.89,787,950Z" transform="translate(-485.74 -714.1)"/><path class="cls-1" d="M603.06,832.3c6,1.68,10.91,5.51,16.11,8.66,3.79,2.3-.37,3.09-1.46,3.73-14.74,8.66-29.88,16.67-44.24,25.92-7.83,5-14.32,6.21-21.59-.06-1.72-1.49-4-2.36-6-3.51a3.74,3.74,0,0,1,1.24-4.43c.88-.77,1.71-1.83.89-3-1-1.39-2.39-1-3.59-.42-2.69,1.23-5.37,2.38-8.43,1.91-4.76-2.68-9.49-5.43-14.3-8-2.36-1.27-2.53-2.26-.11-3.65q27.17-15.63,54.29-31.35c1.73-1,3.08-.51,4.6.37,4.44,2.59,8.93,5.1,13.4,7.64,1.27,2.41-.28,3.66-2,4.9-2.14,1.57-4.62,2.62-6.66,4.34-.94.79-1.66,1.71-.91,3s1.91,1.18,3.06.67a65.63,65.63,0,0,0,8.17-4.72A11.09,11.09,0,0,1,603.06,832.3Z" transform="translate(-485.74 -714.1)"/><path class="cls-1" d="M884.26,942.19q-26.32,15.31-52.63,30.65a4.84,4.84,0,0,1-5.55,0c-5.39-3.3-10.85-6.46-16.29-9.68a15.35,15.35,0,0,1-.21-2.14,19,19,0,0,1,2.31-7.6,6.3,6.3,0,0,1,1.55-1.54c2.14-1,3.81.19,5.56,1.15,4.21,2.33,8.39,4.72,12.48,7.25a15.41,15.41,0,0,0,5.43,2.41c1.51.26,3.24.3,3.94-1.31.84-1.92-1-2.53-2.23-3.27-6.77-4.17-14.08-7.43-20.29-12.53-.7-1.57-1.52-3.11-1.39-4.91,1.42-5,3.36-9.74,4.87-14.66,3.93-4.48,3.44-11,7-15.58a6.65,6.65,0,0,1,1.66-1.6c2.54-1.06,4.53.45,6.47,1.57,14.61,8.49,29.29,16.84,43.89,25.32a21.25,21.25,0,0,1,4.28,3.38C886.11,940.49,884.8,941.23,884.26,942.19Z" transform="translate(-485.74 -714.1)"/><path class="cls-1" d="M942,943.12q26.82,15.36,53.65,30.69a4.56,4.56,0,0,1,2.37,4.52q-.08,13,0,25.94c0,2.53-.33,4-3.29,2.25q-26.86-15.76-53.8-31.43a4.1,4.1,0,0,1-1.4-3.53q.06-12.46,0-24.93C939.47,944.78,939.71,943.3,942,943.12Z" transform="translate(-485.74 -714.1)"/><path class="cls-1" d="M564.81,877.86q27.39-16,54.76-32c2.91-1.71,3.36-.5,3.34,2.16-.06,8.66-.08,17.32,0,26a4.94,4.94,0,0,1-2.79,4.82q-27.12,15.46-54.2,31c-1.26-.57-1.44-1.66-1.42-2.87C564.68,897.25,564.12,887.55,564.81,877.86Z" transform="translate(-485.74 -714.1)"/><path class="cls-2" d="M996.45,1010c-13.34,0-26.49,3.44-39.05-4.94-15-10-31.25-18.32-47-27.35-4.59-2.64-4.64-3.26,0-6q10.74-6.36,21.55-12.57c4-2.31,5.55-1.71,4.84,2.74-1.74,10.72,3.4,16,12.42,20.64,15.08,7.72,29.48,16.76,44.15,25.27A33.09,33.09,0,0,1,996.45,1010Z" transform="translate(-485.74 -714.1)"/><path class="cls-1" d="M1026.06,960c4.74-2.75,9.54-5.42,14.22-8.27,2.93-1.79,3.68-.86,3.65,2.23q-.15,12.71,0,25.42a5.27,5.27,0,0,1-2.93,5.23q-18.62,10.62-37.12,21.44c-2.93,1.72-4,1.4-4-2.23.15-8.47.12-17,0-25.42a5.15,5.15,0,0,1,3.08-5.13c4.39-2.37,8.67-4.92,13-7.39,3.89,0,3,3.07,3.4,5.3.24,1.33-.48,3.49,1.74,3.43,1.73,0,2.08-1.93,2.23-3.42C1023.76,967.36,1023,963.24,1026.06,960Z" transform="translate(-485.74 -714.1)"/><path class="cls-1" d="M684.24,963.17a5.49,5.49,0,0,1-4.14,1.74c-7.52-1.29-13.78-5.37-20.21-9.12-12.35-7.19-24.81-14.21-37.07-21.55-7.05-4.22-7.77-7-4-14.27,0-2.31.19-4.63.14-6.94s1.14-3.31,3-4a11,11,0,0,1,2,.64c18.37,9.78,36.08,20.74,54.25,30.89a16.58,16.58,0,0,1,4.82,3.51,5.55,5.55,0,0,1,1.17,1.95c.57,4.94-.15,9.87-.21,14.8A6.2,6.2,0,0,1,684.24,963.17Z" transform="translate(-485.74 -714.1)"/><path class="cls-1" d="M521,855.1a79.91,79.91,0,0,1,13.72,8,13.28,13.28,0,0,1,1.8,7.62,14.52,14.52,0,0,0,.53,5.41c.48,1.28,1.13,2.58,2.8,2.25,1.38-.27,1.53-1.59,1.67-2.75s.12-2.32.24-3.47c.22-2,.93-3.54,3.28-3.58l15.24,9.18c1.58,9.91.52,19.88.63,29.82a2.22,2.22,0,0,1-1.77,2.14c-13.82-7.67-27.66-15.3-41-23.84.86-8.76.14-17.55.38-26.32C518.55,857.7,518,855.42,521,855.1Z" transform="translate(-485.74 -714.1)"/><path class="cls-1" d="M967.23,923.1c4.49-2.53,9-5,13.43-7.64a5.11,5.11,0,0,1,5.94.07q26.05,15.19,52.25,30.17c3.25,1.86,3.44,2.95.05,4.76-4.39,2.36-8.61,5-12.9,7.57-3.45.92-6.46-.33-9.31-2-15.11-8.93-30.31-17.7-45.37-26.7C969.15,928,965.68,927.06,967.23,923.1Z" transform="translate(-485.74 -714.1)"/><path class="cls-1" d="M1015.22,964c-5.36,3-10.56,7.94-16.14,8.43s-10.79-5.15-16.12-8.17c-13.16-7.47-26.22-15.14-39.38-22.63-3-1.68-3.86-2.8-.15-4.71,4.29-2.2,8.38-4.79,12.56-7.2,3.6-1,6.72-.16,9.93,1.75,14.75,8.76,29.64,17.28,44.43,26C1012.79,958.89,1016.15,960,1015.22,964Z" transform="translate(-485.74 -714.1)"/><path class="cls-1" d="M758.82,754c.06-4.78.14-9.57.18-14.35,0-2-.12-4.09,2.49-4.73.46-.12.94-.23,1.41-.31,8.38,4.19,16.33,9.11,24.4,13.83,2.13,1.24,4.25,2.54,5.1,5.1.5,1.77,1.05,3.63.57,5.4-2.33,8.44-1,16.78.37,25.14a3.44,3.44,0,0,0,.61,2.06,3.62,3.62,0,0,1,.29,2c-1.52,1.25-3.07,2.39-5.22,1.83-11.09-2.41-20-9.19-29.6-14.63-1.18-.68-2.28-1.55-2.39-3C756.57,766.13,755.29,759.81,758.82,754Z" transform="translate(-485.74 -714.1)"/><path class="cls-2" d="M559.37,913.88c-9.1,0-18.21,0-27.31-.07a8.23,8.23,0,0,1-3.71-1.34q-19.67-11.33-39.29-22.78c-4.47-2.63-4.39-3.21,0-5.73q11-6.35,22.06-12.71c1.12-.64,2.2-2,3.57-1.29,1.61.77.75,2.4.52,3.58-1.8,9.37,1.32,15.27,10.42,19.56,11.81,5.56,22.81,12.85,34.16,19.4Z" transform="translate(-485.74 -714.1)"/><path class="cls-2" d="M758.82,754c.06,4.65.3,9.3.12,13.93-.12,3.24,1.1,5.19,3.89,6.77,8.8,5,17.47,10.2,26.19,15.32-4,0-8-.38-12,.15-12.93,1.74-24.14-2.19-34.56-9.47-3.13-2.18-6.57-3.91-9.87-5.84-4-2.32-4.11-3.4-.19-5.72C741.16,763.93,750,759,758.82,754Z" transform="translate(-485.74 -714.1)"/><path class="cls-1" d="M969.14,893.08q-22.15,13.67-45.07,26c-1.06-.13-2.18-.1-3-1-1.44-1.9-.61-3.85.11-5.64,4.45-11.2,8.61-22.5,13.24-33.62.8-1.91,1.41-4.17,3.9-4.79a3.3,3.3,0,0,1,2.2.55c9.18,5.73,18.69,10.92,28,16.38A3.82,3.82,0,0,1,969.14,893.08Z" transform="translate(-485.74 -714.1)"/><path class="cls-3" d="M695,832c-3.54,2-7.12,4-10.6,6.17-1.75,1.07-3.41,2-5.48,1-5.29-.43-9.31-3.83-13.58-6.31-9.58-5.56-19.1-11.24-28.73-16.72-2.7-1.54-5.69-3.28-2.52-7.05,9.51-7.34,20.26-12.69,30.32-19.16,2-1.31,3.65,0,5,1.08,6.2,5.19,12.25,5.59,18.48.08,4.35-3.85,8.43-3.21,13.33-.18,12.15,7.54,24.71,14.45,37.09,21.63,2.36,1.37,4.06,2.78-.34,3.57a135.4,135.4,0,0,1-28.44-16.23c-4.07-3.09-9.21-4.45-13.91-6.45-2.39-1-4.48.57-6.4,1.91s-1.79,2.68-.07,4c2.1,1.62,4,3.7,6.49,4.53,5.58,1.86,9.5,6.56,15.07,8.36,4.24,1.37,3.52,5,3.65,8.26-.14,1.33-1.23,2-2,3s-2.1,1.59-2.25,3.41c3.12.31,5.36-1.31,7.7-2.64,4-2.29,8.1-4.47,12-7.06,2.18-1.47,4.79-3.59,7.36-.3l0,.15c-.38,2.76-3,3.18-4.75,4.29-4.29,2.66-8.78,5-11.92,6.89,5.06-3,11.38-6.49,17.6-10.22.79.13,1.8,0,2.33.46s-.13,1.18-.67,1.49c-10.12,5.71-19.74,12.32-30.44,17-.27.12-.66,0-1-.06C703.36,836.41,699.87,832.24,695,832Z" transform="translate(-485.74 -714.1)"/><path class="cls-4" d="M737.1,816.83c-4.25.12-7.21,3.08-10.65,4.91-4.66,2.49-9.18,5.24-13.77,7.87-1.41.82-2.78,1.9-4.53.68-1.48-1-4-1.76-4.28-3-.46-2,2.38-2.2,3.72-3.27a24.56,24.56,0,0,1,3.42-2c3-.62,6-1.29,7.86-3.06-1.65.45-3.25,3.37-6.11,1.21-.91-7.07-7.39-8.22-12.08-11.14-6.31-3.94-12.86-7.49-20.14-11.7,4.71-2.72,8.67-5,12.66-7.3,1.59-.9,2.86.15,4.14.89l37.95,21.89c1.28.74,2.75,1.36,2.61,3.25Z" transform="translate(-485.74 -714.1)"/><path class="cls-2" d="M1015.22,964c-4.15-4.22-9.63-6.36-14.59-9.3-12.71-7.54-25.5-14.93-38.28-22.35-2-1.16-3.88-2.63-6.36-2.63l11.24-6.65c.5,1.61,2,2.17,3.24,2.91q26.82,15.72,53.66,31.39a9.12,9.12,0,0,0,1.87.62Z" transform="translate(-485.74 -714.1)"/><path class="cls-2" d="M618.86,920c-1.42,7.5,2.73,11.1,8.81,14.49,17.66,9.83,35,20.26,52.43,30.45-11.21,2.11-20.24-2.89-29.35-8.48-13.91-8.54-28.15-16.54-42.21-24.82-1.37-.81-3.47-1.34-3.45-3.25s2.13-2.36,3.55-3.12C612,923.43,615.45,921.72,618.86,920Z" transform="translate(-485.74 -714.1)"/><path class="cls-2" d="M1011,854c-8.69,1.86-17.47,1.25-26.17.48-4.91-.43-8.1-5.31-7.76-10s4.18-8.2,9.47-8.36c6.12-.19,12.26-.08,18.38-.1.14.09.41.16.41.26C1005.72,842.64,1010.1,847.76,1011,854Z" transform="translate(-485.74 -714.1)"/><path class="cls-2" d="M1074.08,883.93c-5.47,0-10.94.21-16.4.1a15.84,15.84,0,0,1-15.56-14.46c-.62-7.75,5.37-15.14,13.39-16.57,1.46-.26,2.88-.7,4.32-1.06,2.75,1.7,1.92,4.6,1.65,6.77-1.32,10.46,2.72,18,11.71,23.11A1.79,1.79,0,0,1,1074.08,883.93Z" transform="translate(-485.74 -714.1)"/><path class="cls-2" d="M662.11,1023.91c-8.31.05-16.63.21-24.93.1-5.62-.07-9-3.38-9.13-8.43a9,9,0,0,1,8.89-9.47c6.31-.28,12.63-.13,18.95-.16,2.11,1,1.5,3,1.61,4.75.13,2.14.3,4.23,2,5.85C660.58,1018.91,662.21,1021.1,662.11,1023.91Z" transform="translate(-485.74 -714.1)"/><path class="cls-1" d="M717.65,1007a8.89,8.89,0,0,1,4.25,1.45c5.06,2.9,10.15,5.76,15.15,8.76,4.44,2.67,4.38,4.16-.16,6.93-1.85,1.12-3.81,2.07-5.61,3.27-3.59,2.39-7,2.39-10.73.1-4.53-2.81-9.25-5.31-13.84-8-5-3-5-4.47.22-7.44C710.36,1010,713.49,1007.38,717.65,1007Z" transform="translate(-485.74 -714.1)"/><path class="cls-1" d="M859.82,997.93c.09-.67.19-1.33.29-2a5.39,5.39,0,0,0,.31-3.34c-.52-5.91,1-7.22,6.88-6.09,4.74,3.15,9.22,6.72,14.48,9.08.92,2.48.44,5.08.6,7.64,0,4.67-1,9.2-1.87,13.76-.07.72-.2,1.44-.3,2.16a5.27,5.27,0,0,1-4.11,1.77c-3.1-1-6.35-1.51-9.36-2.85C858.94,1014.61,855.91,1005.84,859.82,997.93Z" transform="translate(-485.74 -714.1)"/><path class="cls-5" d="M739.88,995c-1.39-8.49,3.09-12.86,10.34-16.14,6.33-2.86,12.21-6.74,18.19-10.34,2.25-1.35,4.25-1.73,6.43-.14a3.83,3.83,0,0,0,.44.25c13.7,7.39,13.65,7.39,12.77,23a5.16,5.16,0,0,1-2.88,4.75c-8.7,4.88-17.35,9.84-26,14.77-.92.51-1.3,0-1.53-.8.57-2.81,2.36-4.47,4.81-5.89,5.73-3.33,11.46-6.65,17.16-10,3.13-1.84,4.13-4.57,3.86-8-.17-2.21-1.37-3.13-3.32-2-6,3.52-12.17,6.75-18,10.59-2.5,1.65-2.62,4.4-2.73,7.11-.13,3.05.07,6.28-3.11,8.21a3.1,3.1,0,0,1-2.49-3.3c0-5-1-9.84-1.53-14.76.86-1.95,2.86-1.53,4.39-2.1.61-.22,1.22-.47,1.82-.7,1-.38,1.93-.81,2.88-1.27s1.84-1,2.73-1.53c1.1-.64,2.06-1.49,3.18-2.09l1.16-.56a18.66,18.66,0,0,0,2.21-1.35c.35-.26.71-.52,1.06-.8.94-.87,2.34-1.7,1.56-3.19s-2.27-.94-3.54-.74a5,5,0,0,0-2.7,1c-.88.59-1.89,1-2.8,1.48-.53.29-1,.6-1.59.88a12.89,12.89,0,0,0-2.07,1.11c-1,.6-2,1.29-3,1.86l-1.09.49a18,18,0,0,0-2.61,1.62,11.12,11.12,0,0,1-1.68,1,7.08,7.08,0,0,1-2.61.92,4.44,4.44,0,0,1-2.13-.38,2.43,2.43,0,0,1-1.1-1.81c1.72-3.2,5.09-4.27,8-5.82,3.64-1.95,7-4.29,9.71-5.59-5.34,4.07-13.24,6.2-19,11.83-1.47,4.56-.28,9.25-.68,13.86-.2,2.31-.34,4.48-3.53,4.21C737.18,1001.84,737,999.87,739.88,995Z" transform="translate(-485.74 -714.1)"/><path class="cls-6" d="M897.17,745.3c-2.4,6.37-4.56,12.84-7.29,19.06-1.69,3.86-1.38,5.87,2.63,8.11,15.66,8.73,31.08,17.89,46.59,26.9,1.18.16,2.44.18,2.55,1.83a2.26,2.26,0,0,1-.61,1.27,3.68,3.68,0,0,1-2.78.24c-8.9-3.39-16.69-8.85-24.92-13.49-11.31-6.36-22.43-13-33.72-19.42a9,9,0,0,0-3.23-1.28,2.44,2.44,0,0,0-2.61,1,2.37,2.37,0,0,0,.3,2.79c1,1.41,2.53,2.1,4,2.93q26.37,15.21,52.72,30.4a16.52,16.52,0,0,1,5.64,4.83,7.05,7.05,0,0,1,1.39,3.62c-1.51,5.36-3.86,10.39-5.87,15.56-.57,1.46-1,3.11-2.73,3.77a2.46,2.46,0,0,1-2.64-1.36c-1.85-2.75,0-5,1-7.4,4.47-10.17,4.5-10.2-4.78-15.81-10.62-6.43-21.77-12-32.13-18.83-4.22-2.79-7.29-.89-10.78.76a2.82,2.82,0,0,1-1.92-1c-.49-6.25-3.4-10.7-9.52-12.78-3.3-4.72-3.51-8.53-.67-12.27,3-3.92,6.5-4.71,11.91-2.66,4.72,1.78,5.89,1.3,7.93-3.5,1.62-3.81,3.11-7.67,4.64-11.52.74-1.87,1.48-3.79,4.08-3.59C897.14,743.84,897.64,744.34,897.17,745.3Z" transform="translate(-485.74 -714.1)"/><path class="cls-7" d="M825.76,797.72l.27,1.37c1.13,3-1.47,3.69-3.18,4.73-16.35,9.9-33,19.24-49.56,28.8q-42.3,24.43-84.61,48.84c-4.73,2.73-4.81,3.68-.37,6.75,1.67,1.15,3.37,2.17,3.63,4.43,0,.8,0,1.61,0,2.41-4.35-2.44-8.74-4.83-13-7.35-4.52-2.64-4.52-2.92.07-5.57q28.53-16.53,57.11-33,42.84-24.74,85.68-49.45C823,799,824.42,798.38,825.76,797.72Z" transform="translate(-485.74 -714.1)"/><path class="cls-8" d="M763.41,735.25l-1.92-.37c8.85-5.3,17.73-10.57,26.55-15.94a4.39,4.39,0,0,1,5.07.14Q806,726.7,819,734.19a5.38,5.38,0,0,1,3,5.22q-.13,14.76,0,29.5A5.28,5.28,0,0,1,819,774.1c-8.28,4.63-16.51,9.36-24.76,14l-1.22-1c-.44-3.25,2.16-4.26,4.23-5.48,5-3,10.09-5.83,15.15-8.73,3.51-2,5.29-4.8,5.16-9-.13-4.49,0-9,0-13.48,0-7-.14-7.07-6.52-4.71-3.68,2-6.69,5.12-10.85,6.3-5.26,2.94-7.09,7.47-6.76,13.36.28,5,.12,10,0,15-.06,2.34-.07,4.72-2.28,6.29-.27-.18-.77-.36-.78-.54-.24-11.05-1.37-22.12.65-33.13-.55-2.88,1.39-4,3.52-5,1.58-.71,3.5-.75,4.54-2.45,2.6-2.5,6.44-2.93,9.08-5.38,5.37-3.85,5.35-4.44-.2-7.55-3.76-2.11-7.55-4.22-11.1-6.63-5.31-3.6-9.9-2.58-14.4,1.25-3.1,2.13-6.91,3-9.79,5.52C769.62,733.84,767.39,738,763.41,735.25Z" transform="translate(-485.74 -714.1)"/><path class="cls-1" d="M1075.73,840.86c7.59-1.88,14.81-.69,21.75,2.67,1.49.72,2.9,1.61,4.33,2.44,12.66,7.39,12.58,7.39,12.07,21.9-.14,3.73-1.19,4.51-4.34,2.43a38.14,38.14,0,0,0-4-2c-.5,2-.9,3.54-1.3,5.13a4.28,4.28,0,0,1-3.38-4c0-3.07-1-4.77-4.42-3.14a3,3,0,0,1-2.83-.28,3.19,3.19,0,0,1-1.28-1.79c-.07-3.69,3.88-3.37,5.43-5.44,4.25-4.87,4-7.09-1.41-11.67-5.61-3.37-12-1.87-18-3.09A4.15,4.15,0,0,1,1075.73,840.86Z" transform="translate(-485.74 -714.1)"/><path class="cls-9" d="M1011,854c-4.94-2.55-6.39-6.78-5.95-12a51.66,51.66,0,0,0-.13-6c.06-5.8.1-11.61.18-17.42.14-9.64,3.22-12.84,12.91-12.88,2.34,0,3.27-.61,3.59-2.86.49-3.36,2.65-3.89,5.49-2.79,2.32.91,4.63,1.84,6.92,2.82,1.18.5,2.89,1,2,2.72s-2.31.62-3.5.23-2.13-1-3.24-1.27c-1.35-.38-2.9-2-4.06-.64s-.8,3.44.67,5a6.71,6.71,0,0,1,.77,1.27c-.59,1.92-1.29,3.75-3.51,4.37a4.24,4.24,0,0,1-3.68.1c-1-.83-1.26-2.14-1.85-3.23-.41-1.4-.63-3.28-2.76-2.4-1.55.65-3.88.74-4.13,3-.21,1.93,1.8,2.09,3.05,2.68,3.69,1.72,7.23.61,10.73-.77a2,2,0,0,1,1.25,1.79c-.28,2.94-2.53,3.91-4.82,4.84a20.69,20.69,0,0,1-7.51-.58c-.65-.13.17-.08-.47,0-1.19.14.06.2.08.32,1.1.36,2.34.26,3.2,1.18,1.57,2.23.07,3.54-1.46,4.87-2.84,2.48-5.24,5.28-6.08,9.1-.21,2.09.05,4.19-.07,6.3-.41,7.54,4.18,11,11.65,9a6.12,6.12,0,0,1,3.41-.39,2.32,2.32,0,0,1,1.35,1.79C1020.7,854.74,1016.08,855.88,1011,854Z" transform="translate(-485.74 -714.1)"/><path class="cls-2" d="M859.82,997.93c-.64,11.49,5,18.62,15.52,22.37a2.87,2.87,0,0,1,.76.61c-12.21,2.75-21.16-4.26-30.44-10.23-2.79-1.8-2.66-3.52.25-5.1C850.56,1003.05,855.18,1000.48,859.82,997.93Z" transform="translate(-485.74 -714.1)"/><path class="cls-1" d="M754.07,992c2,3.72,2.08,7.74,1.95,11.81-.07,2.12-.25,4.3,1.24,6.12l.39-.23.34.29,1.17,1.15c-1.48,1.65-3.22,1.7-5.11.82a19.77,19.77,0,0,1-9.58-3.17c-1.56-1.07-3.54-2.13-2.64-4.69q.09-6.87.19-13.74c0-2.32.12-4.64,2.34-6.13.54,1.14,2.57.44,2.67,2.14l1.28.82C750.05,989,754.29,987.81,754.07,992Z" transform="translate(-485.74 -714.1)"/><path class="cls-6" d="M684.24,963.17,683,962.09c.13-2.59,1.66-4,3.81-5.3,5-2.92,10.16-5.45,15.06-8.5,7.07-4.4,8.18-7.55,5.5-15.67-.33-.62-.67-1.22-1-1.85-3.41-4.35-8.63-6-13.13-8.69-12.12-7.19-24.37-14.17-36.57-21.24-5.8-3.37-8.81-3.09-14.37,1.44-3.15,2.47-7.65,2.46-10.38,5.69-2.74,1.65-5.37,3.71-8.88,2.07l-1.07-1c8.46-4.94,17-9.82,25.36-14.87a5.55,5.55,0,0,1,6.4,0q27.57,16,55.26,31.88a6.65,6.65,0,0,1,3.75,6.35c.29,14.16.39,14.18-12.08,21.38C695.26,957,689.74,960.07,684.24,963.17Z" transform="translate(-485.74 -714.1)"/><path class="cls-10" d="M1048.52,909c-6.29.21-10.54-3-16.07-3.33l5.26,8.6c-3.86-1.24-5.63-4.46-7.63-7.25-3.78-5.27-9.88-6.53-15-9.44a1.68,1.68,0,0,0-2.52.74,7.76,7.76,0,0,1-1.51,2c-2.8,2.32-5.8,2.44-8.69.27-1.92-1.44-2.71-3.52-1.3-5.72,2-3.15,5-3.73,8.32-2.38,3.81,1.57,7.5,3.44,12,5.56-.8-3-2.56-4.32-3.81-5.89-2.36-2.94-2.8-5.7.55-8.13,2.74-2,7.31-1.24,8.92,1.52,2.19,3.77,0,5.88-3.22,7.39-.44.2-.86.44-1.42.73C1027.77,903.6,1039.16,903.39,1048.52,909Z" transform="translate(-485.74 -714.1)"/><path class="cls-11" d="M1094.23,902a28.69,28.69,0,0,1,3.82,1.49c5.37,3,10.74,6,16,9.25,3.73,2.27,3.82,4,.14,6.09-5.82,3.3-11.42,6.8-16,11.8-2,2.13-4.56,2.58-7.37,1.75-5.92-1.73-11.88-3.32-17.76-5.16-4.4-1.38-4.54-2.71-1.46-6.23s6.79-6.49,9.16-11.21C1082.91,905.51,1089,903.49,1094.23,902Z" transform="translate(-485.74 -714.1)"/><path class="cls-12" d="M880,1003c-2.15-2.71-.49-4.85,1-7-.22-.25-.59-.57-.53-.79,1.44-4.88,0-9.27-2.28-13.52a2.58,2.58,0,0,1,1.3-1.64c4.09-1.11,6.09,2.43,9,4a3.81,3.81,0,0,1-.71-.4c-2.77-1.79-4.94-5.1-9-3.46-2.21.63-4.5,1.55-5.6-1.63.1-4.12,3.56-4.6,6.34-5.49,1.74-.55,3.41-.89,4.44-2.55a1.7,1.7,0,0,1,2-.46c1.34,7.19,5.19,12.33,12.15,15,2.28.86,2.7,2.44,2.08,4.77-1.57,5.94-2.94,11.94-4.34,17.92a6.52,6.52,0,0,1-3.39,4.64c-4.09,2.2-8.11,4.53-12.16,6.81l-1.21-1.09a9.29,9.29,0,0,1,4.89-5.68c5.56-2.38,8.45-6.58,9.31-12.44a38,38,0,0,1,1.65-6.07C889.72,996.48,885.07,1000.1,880,1003Z" transform="translate(-485.74 -714.1)"/><path class="cls-5" d="M1092.68,863.8l1.3,1c-.07,2.56-1.88,3.12-3.94,3.66-6.84,1.82-13.46,1.07-20-1.24-1.49-.52-3.27-1.7-4.65-.22-1.52,1.64-.86,3.78-.24,5.68.84,2.55,2.85,4,5.19,5.06a28.23,28.23,0,0,0,25-.74,10,10,0,0,0,5-5.33c.61-1.49.76-3.36,2.9-3.62.35,1.79.69,3.58,1,5.37-1.67,5.67-6.4,7.8-11.33,9.49-6.12,2.09-12.46,1.63-18.78,1.06-2.12-.89-4.31-1.64-6.36-2.69-5-2.59-8.18-6.34-7.88-12.51.26-5.58,0-11.19,0-16.79,2.67-7.47,8.81-10,15.9-11.08l3.25,1c-1,3.25-4,3.11-6.41,3.71s-5.22,1-7,3.25c-2.33,3.49-2.12,6.64,1.25,9.38,6.07,4.63,13.09,4.57,20.17,4.09C1089.11,862.14,1091.32,861.31,1092.68,863.8Z" transform="translate(-485.74 -714.1)"/><path class="cls-2" d="M741.83,1004.07l12.22,7.86c-7.75,2.62-14.58.47-21.25-3.68-8.49-5.29-8.59-5.19.3-10.19,2.16-1.21,4.51-2.08,6.78-3.11C740.85,997.92,738.79,1001.54,741.83,1004.07Z" transform="translate(-485.74 -714.1)"/><path class="cls-2" d="M603.06,832.3c-6.33,4.88-13.67,8.07-21.29,13.1,1.21-3.25,1.18-5.29-1.34-6.57-2.91-1.47-1.9-2.71.27-4.12,4.41-2.86,9.65-4.45,13.17-8.66C596.93,828.13,600.56,829.39,603.06,832.3Z" transform="translate(-485.74 -714.1)"/><path class="cls-12" d="M876.26,1036.09c.26-2.69,2.53-3.24,4.08-5.48l-6.87,1.4c.47-.9.6-1.54.86-1.59,12-2.51,20.11-11.19,29.25-18.27,1.39-1.08,3.23-4,4.68-2.21,2,2.52-1.76,3.24-3.16,4.44-3.25,2.81-6.78,5.3-9.86,8.78l10.73-3.65a54.54,54.54,0,0,1,5.2-1.72c1.6-.38,3.94-2.62,4.73-.25.9,2.7-2.55,2.13-4.06,3a23.84,23.84,0,0,1-4.26,1.38C896.6,1025.35,885,1027.4,876.26,1036.09Z" transform="translate(-485.74 -714.1)"/><path class="cls-13" d="M634.06,809c.14,3.15,1.92,4.92,4.59,6.47,13.47,7.77,26.84,15.72,40.24,23.61-2.72,1.32-5.15.43-7.54-1-12.73-7.47-25.5-14.89-38.19-22.45-1.55-.92-4.48-1.19-3.95-3.74C629.65,809.9,632.1,809.47,634.06,809Z" transform="translate(-485.74 -714.1)"/><path class="cls-14" d="M545,868.63c-2,2.69-.75,5.81-1.19,8.7-.33,2.12,1.12,5-2,6-2.17.7-7.28-3.54-7.45-6.25-.28-4.64-.53-9.31.31-13.94C538.45,864.34,541.56,866.79,545,868.63Z" transform="translate(-485.74 -714.1)"/><path class="cls-12" d="M897.16,745.3l-.95-1.29c-2.3-1.46-1.34-3.46-.74-5.27.73-2.19,1.71-4.3,2.36-6.51,2-6.68.07-10.28-6.52-12.6a15.91,15.91,0,0,0-5.79-1.13c-3.52.88-5.14,3.61-6.37,6.64-4.51,11.07-8.73,22.24-13.11,33.35-.66,1.67-.65,4-3.35,4-1.24-.55-1.48-1.38-.71-2.49,4.42-11.41,8.9-22.79,13.23-34.23a25.25,25.25,0,0,1,5.61-8.66c2.45-2.58,4.94-3.67,8.36-2.47,2,.72,4.2,1.06,6.16,1.92,7.24,3.14,9.59,8.26,7,15.89C900.92,736.79,898.92,741,897.16,745.3Z" transform="translate(-485.74 -714.1)"/><path class="cls-2" d="M1026.06,960q-.06,6.16-.13,12.34c0,1.85-.2,3.72-2,4.8s-3.82,3.41-6.15,2.35-1.34-3.76-1.29-5.83c.05-2.61.62-5.25-.54-7.78Z" transform="translate(-485.74 -714.1)"/><path class="cls-15" d="M798.23,1022.83a19.43,19.43,0,0,1-3.23-1.16q-8.47-4.77-16.87-9.7c-2.94-1.73-3.15-3.75-.1-5.62s6-3.57,9.07-5.23a6.62,6.62,0,0,1,6.69.22c5.49,3.13,11,6.22,16.4,9.51,3.71,2.26,3.76,3.91.11,6.06C806.47,1019.16,802.94,1022.1,798.23,1022.83Z" transform="translate(-485.74 -714.1)"/><path class="cls-15" d="M757.55,1047a10.22,10.22,0,0,1-5.94-1.68c-4.76-2.74-9.54-5.44-14.26-8.23-4.88-2.88-4.64-4-.28-7.24,7.29-5.49,14.15-6.34,21.58-.28,2.93,2.39,6.58,3.88,9.87,5.83,3,1.75,3.25,3.8.15,5.59C764.68,1043.26,761,1046.2,757.55,1047Z" transform="translate(-485.74 -714.1)"/><path class="cls-1" d="M657,1019.12c-1.81-4.28-.41-8.81-1.06-13.17.76-7.66-.89-15.39.93-23,.86-3.61,2.66-5.88,6.26-6.72.67.25,1.32.53,1.42,1.38.11,2.2-4.25,2.85-2.29,5.33a6.32,6.32,0,0,0,7.72,2,2.72,2.72,0,0,1,2.82.46,2.88,2.88,0,0,1,.89,2.15,3.84,3.84,0,0,1-2.54,2.88c-2.74.74-5.39-.27-8.54-.73,1.07,1.28,2.08.71,2.89.93a3,3,0,0,1,2,.94c1.3,2.21-.29,3.16-1.69,4.48-2.93,2.75-5.43,5.87-6.08,10.07.42,3.59-.16,7.17-.26,10.75A3.81,3.81,0,0,1,657,1019.12Z" transform="translate(-485.74 -714.1)"/><path class="cls-11" d="M946,784.93c3.31-7.68,4.91-16.09,10.42-22.83,3.08-3.76,6.44-4.29,11-3.28,10.91,2.45,14.86,9.27,10.87,19.67-1.72,4.5-3.57,9-5.36,13.43a1.8,1.8,0,0,1-2-.6c-1.33-1.67-.8-3.38-.15-5.14,1.15-3.1,2.5-6.12,3.56-9.26,2.35-6.92.2-11.28-6.66-13.38-1.72-.53-3.39-1.37-5.27-1.29-3.26.56-4.83,3-6,5.68-2.16,4.77-3.92,9.7-5.83,14.57-.74,1.89-1.17,4.29-3.78,4.85A1.43,1.43,0,0,1,946,784.93Z" transform="translate(-485.74 -714.1)"/><path class="cls-12" d="M969.14,893.08l-1.13-1c-.52-2.17.63-3.42,2.36-4.44,2.72-1.6,3.13-3.44.18-5.19-6.86-4.08-13.71-8.19-20.72-12-2.55-1.39-4.45-.41-5.74,2.06-.92,1.73-1.53,3.85-4.2,3.51l-1-1.19c-2.17-4.51.62-12.12,5.22-14.3.93.28,1.6.72,1.09,1.84,9.75,6.65,20.33,11.91,30.41,18,1.28.77,2.55,1.56,3.87,2.25,3,1.54,3.31,3,.09,4.7C976.06,889.14,972.62,891.14,969.14,893.08Z" transform="translate(-485.74 -714.1)"/><path class="cls-2" d="M536,861.07c3-1.78,6-3.5,8.86-5.36,1.8-1.15,3.16-1,4.82.43,5,4.2,5,4.56-.5,8.07-1.22.78-2.7,1.3-3.29,2.83Z" transform="translate(-485.74 -714.1)"/><path class="cls-12" d="M885.87,970l-1,1.29c-5,0-9,2.68-13.12,5.07-1.42.84-2.63,1.71-.8,3.34A3.38,3.38,0,0,1,872,981.6c-.1,3.18-2.59,4.5-4.77,6-6.16-.49-6.09,4.36-7.1,8.28-.51-4.33-3.2-9.18,2.91-11.95a1.59,1.59,0,0,0,.53-2.2c-2.14-4.5.92-6.21,4.11-8,3.9-2.16,7.86-4.26,11.57-6.72C883.3,964.37,885.2,965.6,885.87,970Z" transform="translate(-485.74 -714.1)"/><path class="cls-11" d="M922,918l2.06,1.11c-13,8.11-26.35,15.72-39.81,23.08-.43-1,.28-1.53.74-2.18-2.3-4.24.35-7,2.93-9.77a2.14,2.14,0,0,1,2.74-.21c1.17,1,1.29,3.67,3.87,2.32,7-5.26,14.68-9.46,22.37-13.61C918.55,917.85,920.13,917,922,918Z" transform="translate(-485.74 -714.1)"/><path class="cls-15" d="M755.43,1019.84c3.11-2.83,7-4.45,10.58-6.5,2.38-1.36,4.8-1,7.12.38,5.32,3.08,10.7,6.06,16,9.25,3.76,2.28,3.8,3.82.21,6.08-2.94,1.86-6.1,3.37-9.16,5-.85.51-1.32,0-1.71-.66-.66-2.82,1.74-3.65,3.33-4.89,2.3-1.8,2.47-3.34-.13-4.93-1.92-1.17-3.6-2.72-5.44-4-3.61-2.46-7.55-3-11.7-.68-2.47,1.38-4.93,3.63-8.22,2A4.22,4.22,0,0,1,755.43,1019.84Z" transform="translate(-485.74 -714.1)"/><path class="cls-12" d="M657,1019.12l.89-2.1c2.82.29,4.65,2.55,7.1,3.59,2.64,1.13,5.19,1.82,6.71-1.53-2.34-1.39-4.29,2.44-6.6.47-1.25-1.47-1-2.73.51-3.82,4-2.23,8.73-3.59,10.94-8.23a2.81,2.81,0,0,1,1.25-1.79,1.16,1.16,0,0,1,1.35.33c.09,1.64.27,3.29.28,4.93,0,11.17-4,14.61-15.31,13.21-.66-.08-1.31-.18-2-.27C660.24,1022.47,657.93,1021.51,657,1019.12Z" transform="translate(-485.74 -714.1)"/><path class="cls-7" d="M844.81,808l-1-1.15c-5.54.26-11.18-3.31-12.77-8.09-1.54-1.31-3.32-1.06-5.1-.77,1.51-2.39,3.36-2.15,5.5-.85,3,1.8,6.12,3.32,9,5.26s4.44,1.75,5.68-1.84c2-5.93,4.55-11.7,6.87-17.53,1-.36,1.61.23,2.11,1-.17,6.68-4.16,12.09-6.13,18.17C848.25,804.35,848.06,807.39,844.81,808Z" transform="translate(-485.74 -714.1)"/><path class="cls-7" d="M559.09,909.77c2-9,.44-18,.89-27.07.09-1.63.17-3.26.25-4.89,1.39.79,1.41,2.15,1.42,3.48,0,8.79,0,17.58,0,26.37C561.62,909.11,562.07,911.67,559.09,909.77Z" transform="translate(-485.74 -714.1)"/><path class="cls-16" d="M1023.89,814.13a10.12,10.12,0,0,1,2.84-4c3.28,12.28,1.06,24.81,1.56,37.21a5.13,5.13,0,0,1-3.18,4.74l-1-.92-.06-.67c-.45-2,1.33-3.79.71-5.84a6,6,0,0,1-.21-2.7,5.56,5.56,0,0,0-.67-3.37,4.2,4.2,0,0,1-.08-1.46,3.67,3.67,0,0,1,.69-1.33c1.73-2,.59-4.33.4-6.25-.44-4.7.06-9.3.28-13.94l-1.27-1.49Z" transform="translate(-485.74 -714.1)"/><path class="cls-17" d="M738,817.94c-3.07,3.94-7.86,5.31-11.87,7.84a104.82,104.82,0,0,1-14.31,7.54c7.7-6.58,17.31-10.17,25.25-16.34Z" transform="translate(-485.74 -714.1)"/><path class="cls-12" d="M755.43,1019.84l1.78.25c6.45,2.94,12.32,7,18.72,10,1.32.63,2.87,1.1,3.07,2.94l1.14,1c-2.26,1.42-4.46.76-6.52-.4q-8.14-4.61-16.2-9.39C755.82,1023.35,753.61,1022.43,755.43,1019.84Z" transform="translate(-485.74 -714.1)"/><path class="cls-12" d="M810.9,961.62l-1.11,1.54L787,950a3,3,0,0,1,3,0,3.23,3.23,0,0,1,3.41-.44c3.31.81,5.69,3.23,8.49,4.93C805.7,955.89,809.6,957.13,810.9,961.62Z" transform="translate(-485.74 -714.1)"/><path class="cls-18" d="M963.86,815l-9.64,24.39a2.8,2.8,0,0,1-2.12-1.09c-1-1.58-.52-3.23.07-4.73,2.14-5.5,4.09-11.08,6.39-16.51.72-1.71,1.47-3.34,3.64-3.54A1.82,1.82,0,0,1,963.86,815Z" transform="translate(-485.74 -714.1)"/><path class="cls-18" d="M963.86,815l-1.06-1.37c-1.67-1.15-1.61-2.72-1-4.39,1.9-5.26,3.74-10.55,6-15.67.77-1.73,1.71-3.27,4-2.87l1,1.26Q968.36,803.44,963.86,815Z" transform="translate(-485.74 -714.1)"/><path class="cls-9" d="M854.06,784.12,853,783l9-23,.84,2c.23.24.61.53.56.77a55.23,55.23,0,0,1-8.37,21.3C854.89,784.25,854.39,784.15,854.06,784.12Z" transform="translate(-485.74 -714.1)"/><path class="cls-18" d="M953.15,838l1.07,1.35-9,23c-.35-.43-.69-.87-1-1.31-1.74-1.2-1.51-3-.93-4.51,2-5.3,3.77-10.68,6.17-15.82C950.17,839.08,951.13,837.82,953.15,838Z" transform="translate(-485.74 -714.1)"/><path class="cls-3" d="M942,943.12a5.1,5.1,0,0,0-1.8,3.42c.11,9.52-1,19.07.73,28.55-1.7-.55-2.12-1.85-2.12-3.47,0-9.06,0-18.11,0-27.16C938.73,941.26,940.08,941.64,942,943.12Z" transform="translate(-485.74 -714.1)"/><path class="cls-5" d="M664.33,977.19l-1.25-1a17,17,0,0,1,7.86-.42c5.36.82,7.54,4.26,8,9.25-.33.33-.65.65-1,1-1.4,1-2.55,3.1-4.68,1.15l-1.25-1c1-4.19-.31-6.4-4.35-7.51C666.48,978.33,665,978.66,664.33,977.19Z" transform="translate(-485.74 -714.1)"/><path class="cls-19" d="M695,832a3,3,0,0,1,4.4-.67c2.94,1.85,5.9,3.68,8.85,5.52C702.84,837.81,698.81,835.14,695,832Z" transform="translate(-485.74 -714.1)"/><path class="cls-6" d="M521,855.1c-2.23,2-1.82,4.73-2,7.34-.43,7.83,1.07,15.72-.86,23.49-.89-9.85-.17-19.71-.38-29.56C517.67,853.1,519.14,853.65,521,855.1Z" transform="translate(-485.74 -714.1)"/><path class="cls-20" d="M564.81,877.86q.09,12.33.19,24.67c0,2.46-.15,5,.92,7.29-1,.62-2.09.77-2.09-.71,0-10.18-.64-20.37.33-30.55C564.18,878.31,564.59,878.09,564.81,877.86Z" transform="translate(-485.74 -714.1)"/><path class="cls-21" d="M946,784.93c.3.68.59,1.36.88,2,1.07,4.34-2,11.91-5.74,14.19l-2-1.79C943.12,795.38,943.15,789.49,946,784.93Z" transform="translate(-485.74 -714.1)"/><path class="cls-22" d="M677.79,985.06l1.15,0a171.42,171.42,0,0,1,.16,21c-.32-.08-.64-.14-1-.2a3.14,3.14,0,0,1-1.38-1.32C675.57,998,674.12,991.37,677.79,985.06Z" transform="translate(-485.74 -714.1)"/><path class="cls-4" d="M691.94,892.64c-4.81-1.82-9-4.66-13.9-7.83,9.73-5.64,18.88-10.95,28-16.24l117.47-67.82c.86-.5,1.66-1.11,2.48-1.66,3.11.64,1.59,3.15,1.92,4.87,1.34,7.13-1.73,11.11-8.13,14.74-41.7,23.62-83.11,47.74-124.6,71.71C694.08,891.07,693,891.89,691.94,892.64Z" transform="translate(-485.74 -714.1)"/><path class="cls-13" d="M854.06,784.12,862.82,762c4.75-12,9.57-24.06,14.23-36.14a18.78,18.78,0,0,1,8-9.73c2.23,1.13,2.79,2.83,1.42,4.91-7.68,11.71-11.11,25.25-16.25,38-12.58,31.31-24.08,63-36.57,94.39-3.75,9.43-6.88,19.13-10.91,28.44-8.18,18.88-13.78,38.76-22.46,57.43-1.05,2.26-1.37,4.68-2.34,6.92s-2,4.66-5.06,4.85l-2.87-1.1c1.65-7.52,5.1-14.4,7.86-21.51q22.59-58.17,45.44-116.26c.55-1.4,1-2.83,1.46-4.25Q849.43,796,854.06,784.12Z" transform="translate(-485.74 -714.1)"/><path class="cls-2" d="M831,798.72c4.11,2.94,9,4.66,12.78,8.09-1,2.26-1.86,4.58-3,6.78-.83,1.63-.77,4.88-3.13,4.3-3-.74-7-1.95-7.44-5.61C829.71,807.83,828.9,803.12,831,798.72Z" transform="translate(-485.74 -714.1)"/><path class="cls-23" d="M581.17,852.92c-6.6,4.48-14.45,5.45-21.84,7.68-1.54.46-10.73-6.92-11.25-8.57-.59-1.82.93-1.83,1.92-2.18,3.45-1.23,6.92-2.39,10.37-3.58,5.54-5,10.25-5,14.82.3C577.1,848.78,580.12,849.92,581.17,852.92Z" transform="translate(-485.74 -714.1)"/><path class="cls-24" d="M559.05,845.17l-8.1,2.35c-1,.28-2.13.61-2.68-.43-.65-1.21.59-1.71,1.39-2.18,5.3-3.07,10.61-6.14,16-9.13,4.28-2.4,7.2,1,10.38,2.74,1.61.89,4.61,1.34,4.23,3.45s-3,2.75-5.18,3.17c-4-3-8-2.68-12.25-.3A3.84,3.84,0,0,1,559.05,845.17Z" transform="translate(-485.74 -714.1)"/><path class="cls-9" d="M559.05,845.17c1.28-1.35,5,.09,4.14-3.92-.18-.81,1.56,0,2.39.35,1,.41,2.29,1.22,3-.13.46-.89-1.65-1.08-1.21-2.68,4,.43,6.11,3,7.68,6.35,2.33,2.37,6.14,3.57,6.13,7.78-2.2-1-3.67-2.85-5.13-4.61-3.44-4.11-7.38-5.28-12.31-2.88a16.53,16.53,0,0,1-3.36.84Z" transform="translate(-485.74 -714.1)"/><path class="cls-4" d="M792.92,951.08c8.25-18.2,14.79-37.08,22-55.68,15.46-39.69,30.65-79.48,46-119.23,6-15.52,12.05-31,18-46.57,1.25-3.31,2.61-6.48,5.13-9,1.26-1.28,2-2.65,1.07-4.45a18.26,18.26,0,0,1,7.82,1.29c7.73,2.63,10.14,7.59,7.48,15.39-1.28,3.78-2.78,7.48-4.18,11.21-2.71,6.81-5.55,13.56-8.07,20.44-1.2,3.27-2.65,4.39-5.68,2.1-.66-.5-1.44-.85-2.14-1.29-3.52-2.21-7.15-3.28-10.45.14s-2.3,7,.31,10.35c4.91,5.92,5.11,13.29,6.27,20.36,0,5.72-3.08,10.44-5.18,15.47-.69,1.63-2.15,2-3.77,1.32-.93-.37-1.74-1-2.68-1.34-5.71-2.08-8.73.1-8.55,6.12,0,1,.22,2,.3,3,2.39,5.94,1.53,12.65,4.37,18.47-.73,5-3.13,9.42-5,14-1.22,3-3.33,4.06-6.35,2.22A19.59,19.59,0,0,0,846.9,854c-5.62-2.28-9.13.33-8.57,6.37q.13,1.49.39,3c1.61,4.72,3.51,9.37,3.15,14.51-.15,2.25,2.15,3.69,1.92,6-2.08,5.31-2.68,11.36-7.53,15.31-1.76.63-3.35-.11-4.7-1-3.14-2.09-6.35-3.07-9.72-.82s-1.08,5.43-1.09,8.24c2.51,7,5.31,14,3.43,21.64-1.87,4.78-2.91,9.92-6.09,14.14-1.53,1.1-2.84,0-4.2-.44-3-1-6.19-2-9,.33-3,2.47-.78,5.53-.55,8.35-.46,1.46.13,2.95-.08,4.38-.26,1.79-1,3.25-3.23,2Z" transform="translate(-485.74 -714.1)"/><path class="cls-4" d="M888.76,931.31,885,940c-2.21.24-3.75-1.24-5.45-2.2Q855.25,924,831,910.07a14.44,14.44,0,0,1-11.37-5.92c-2-2.55-2.49-5.36-.17-8.11s4.8-3,7.92-1.4c2.2,1.12,4.17,2.62,6.41,3.66,7.1,1.24,12.6,5.74,18.66,9.1,10.89,6.06,21.63,12.4,32.38,18.69C886.89,927.31,888.81,928.54,888.76,931.31Z" transform="translate(-485.74 -714.1)"/><path class="cls-4" d="M819.89,944.08c8.15,4.82,16.25,9.72,24.47,14.42,2.94,1.67,3.73,2.41.25,4.74-4.59,3.07-8.27,3.33-13,.1-5.59-3.86-11.78-6.84-17.7-10.2-5.18.05-8.8-2.47-11.22-6.87a5.85,5.85,0,0,1,1.16-7.34,5.37,5.37,0,0,1,6.9-.89C813.9,939.94,817.36,941.32,819.89,944.08Z" transform="translate(-485.74 -714.1)"/><path class="cls-2" d="M824.18,927.19,819,905a20.42,20.42,0,0,1,10.85,6.11C829.22,916.89,826.26,921.88,824.18,927.19Z" transform="translate(-485.74 -714.1)"/><path class="cls-2" d="M801,956c2.31-1.81.28-4.83,1.9-6.83,4.25-.22,7.1,2.31,9.87,5,.66,2.83-1.16,5-1.9,7.48Z" transform="translate(-485.74 -714.1)"/><path class="cls-10" d="M812.8,954.14l-9.87-5c-2.23-3.62-3.29-7.32.22-10.7s7.22-1.88,10.74.34c1.38.87,2.8,1.7,4.2,2.54.78.8,2.38,1,1.8,2.75l-9-4.9c-2.9-1.58-5.57-1.22-7.29,1.62s-.81,5.44,1.92,7.22,5.62,3.42,8.44,5.12Z" transform="translate(-485.74 -714.1)"/><path class="cls-10" d="M829.87,911.08,819,905c-2.33-3.32-3.09-6.72,0-10,3.31-3.45,6.88-2.39,10.41-.24,1.84,1.13,3.69,2.24,5.54,3.35.13,1-.08,1.53-1.2,1-2.5-1.33-5-2.75-7.5-4s-5-.61-6.54,1.84a4.75,4.75,0,0,0,1.5,7c3.16,2.14,6.5,4,9.76,6Z" transform="translate(-485.74 -714.1)"/><path class="cls-25" d="M950,964a14.88,14.88,0,0,0-1.87-1.61,5.3,5.3,0,0,1-1.85-7.42c1.55-2.53,3.62.57,5.28,1.41,3.23,1.62,2.81,4.71,1.86,7.37-.62,1.71-2.32,0-3.52.17Z" transform="translate(-485.74 -714.1)"/><path class="cls-26" d="M954,970.9c2.76-2.88,5.05-.57,7.34.76,2.52,1.47,2,4,1.74,6.26s-1.59,1.39-2.92,1c-3.55-1.14-4.68-4.29-6.21-7.13a.51.51,0,0,1-.16-.58Q953.94,970.9,954,970.9Z" transform="translate(-485.74 -714.1)"/><path class="cls-27" d="M958.44,960.15c3,1.07,4.19,3.92,5.16,6.6.55,1.5-1.33,2.29-2.62,2.27-3.78-.06-4.71-3.31-5.64-6C954.7,961.19,956.88,960.86,958.44,960.15Z" transform="translate(-485.74 -714.1)"/><path class="cls-28" d="M954,970.9c0,.28,0,.56,0,.85-1.43,1.13-3,2.52-4.75,1s-3.65-3.8-3.57-6.2c.06-1.77,2.58-2.14,4.36-2.48l-.1-.08C951.41,966.2,953.34,968.19,954,970.9Z" transform="translate(-485.74 -714.1)"/><path class="cls-29" d="M613.82,865c3,1.26,3.54,3.71,2.92,6.47-.68,3-3.5,3.85-5.88,4.8-2.1.83-1.57-1.29-2.09-2.35-1.61-3.31,3.18-4.8,2.1-7.88A2,2,0,0,1,613.82,865Z" transform="translate(-485.74 -714.1)"/><path class="cls-26" d="M603.08,872c-1.21-.13-2.72,1.55-3.55-.16a5.89,5.89,0,0,1,.19-5.74c1.28-2,3.49-3,5.74-3.68,1-.31,1.45.6,1.53,1.46.23,2.48.62,5-2.15,6.58A11.74,11.74,0,0,0,603,872Z" transform="translate(-485.74 -714.1)"/><path class="cls-26" d="M603,872c1.79.54,4.57.46,4.27,3a9.29,9.29,0,0,1-3.9,6.14c-1.24.89-2.54-.14-3.63-.83-1.34-.84-.86-2-.2-3,1.17-1.81,2.37-3.59,3.56-5.38Z" transform="translate(-485.74 -714.1)"/><path class="cls-30" d="M613.82,865l-3,1c-2.13-.57-3.53-1.66-1.76-3.82,1.51-1.86,1.61-5.6,5.41-4.72,2.41.56,3.48,1.93,1.67,4.3C615.38,862.87,614.61,864,613.82,865Z" transform="translate(-485.74 -714.1)"/><path class="cls-4" d="M623.1,910,631,906c2.64-1.08,5-.44,7.42.9,16.44,9.3,32.73,18.87,49.11,28.27,1.87,1.07,3.69,2.35,3.68,4.91-2,3.68-5.27,4.88-9.17,5-6.69-2.58-12.52-6.75-18.71-10.25-12.27-6.94-24.46-14-36.64-21.15C625.21,912.81,623,912.5,623.1,910Z" transform="translate(-485.74 -714.1)"/><path class="cls-23" d="M709.05,931c3.55,4.08,2.31,14.45-2.06,17q-12,7.05-24,14.05a27.9,27.9,0,0,1,.15-16c1.91-2.78,5-3.63,7.86-5a3.9,3.9,0,0,1,1.84.49c1.48.73,1.41,3.9,3.93,2.78,1.89-.84,1.54-3.07,2.13-4.71.5-1.39.4-2.92,1.05-4.27C702.47,932.88,705.23,930.87,709.05,931Z" transform="translate(-485.74 -714.1)"/><path class="cls-10" d="M691,942l-7.82,4.13-1.14-1,8-5a5.59,5.59,0,0,1,3.77-4.64c1.93-.85,3.93-1.59,5.37-3.24,3-.67,5-5,8.83-2.06l1,.93-8,5.12C698.9,940.15,696.08,943,691,942Z" transform="translate(-485.74 -714.1)"/><path class="cls-4" d="M791.14,786.75c.07-7.48.76-15,.05-22.41S793,752.29,800,750a2,2,0,0,1,2.27.41c4.14,3.26,4.78,3.08,6.31-2a34.69,34.69,0,0,1,1.56-4.2c2.4-1.46,4.8-2.94,7.21-4.38.55-.32,1.18-.52,2.2-1,1.2,4.73.58,9.31.56,13.8,0,6.11,2,13.06-.81,18.09s-10,6.58-15.21,9.81c-3.65,2.27-7.39,4.41-11.09,6.61Z" transform="translate(-485.74 -714.1)"/><path class="cls-23" d="M763.41,735.25l8.47-4.4a13.6,13.6,0,0,1,8.37,2.24c5.53,3.28,11.17,6.36,16.68,9.65,1.69,1,3.65,1.81,3.36,4.35l-9.28,6q-13.07-7.46-26.12-14.92C763.82,737.55,762.23,737.06,763.41,735.25Z" transform="translate(-485.74 -714.1)"/><path class="cls-4" d="M953.15,838l-9,23-5.27,13.77q-9,21.38-16.89,43.21c-8.65,5.94-18,10.74-27,16-2.83-.61-3-.65-1.84-3.74,2.7-7.59,5.85-15,8.72-22.52,12-31.56,24.37-63,36.56-94.52,5.59-14.43,11.38-28.78,16.69-43.32,1.46-4,5-6.28,6.94-9.82a62.59,62.59,0,0,1,6.87,1.09c8,2.17,10.8,7.62,8.09,15.53-1.62,4.71-3.45,9.33-5.19,14a233.27,233.27,0,0,0-9,22.92Q958,825.8,953.15,838Z" transform="translate(-485.74 -714.1)"/><path class="cls-2" d="M939.89,876c.6-1.37,1.22-2.73,1.79-4.11,3.13-7.48,1.58-8.18,9.68-3.51s16.4,9.54,24.66,14.2c2.87,1.62,3.39,2.92.15,4.67-2.78,1.5-5.44,3.21-8.16,4.83-.81,0-1.79.34-2.4,0q-12.42-7.11-24.74-14.42C940.39,877.36,940.21,876.55,939.89,876Z" transform="translate(-485.74 -714.1)"/><path class="cls-4" d="M637.75,808.19c9.22-5.62,18.12-11.05,27-16.47,1.63-1,2.85.26,4.1,1,12.56,7.21,25.08,14.51,37.68,21.65,2.79,1.58,2.95,2.54.1,4.22-7.6,4.48-15.11,9.12-22.62,13.75-1.64,1-3,1.62-5,.45-13.06-7.68-26.2-15.22-39.31-22.83A17.76,17.76,0,0,1,637.75,808.19Z" transform="translate(-485.74 -714.1)"/><path class="cls-31" d="M637,810.47l43.39,25.08L679.5,837,636.1,812Z" transform="translate(-485.74 -714.1)"/><path class="cls-13" d="M712.76,820.16c3-1.61,6-3.32,9.14-4.79,1.18-.55,2.87-.54,3.47.87s-1,2-1.93,2.36c-4,1.62-7.18,6.36-12.43,3.41Z" transform="translate(-485.74 -714.1)"/><path class="cls-32" d="M682.41,835.33l26-15.84.85,1.39-26,15.86Z" transform="translate(-485.74 -714.1)"/><path class="cls-33" d="M700.49,829.05c3.28.46,6,2,9.2,5C705.14,833.4,702.76,831.31,700.49,829.05Z" transform="translate(-485.74 -714.1)"/><path class="cls-14" d="M694.09,803.06a14.5,14.5,0,0,1,11.07-3.82c4.23.3,2.59,5.55,5.65,7.26.81.45-1.1,2.07-2.26,2.62-1,.48-2.68,1.1-2.75-.64-.22-6.25-4.61-5.3-8.55-5.28C696.5,803.2,695.75,803.14,694.09,803.06Z" transform="translate(-485.74 -714.1)"/><path class="cls-34" d="M723.77,1014.62a11.78,11.78,0,0,1-7.47,4.48C718.27,1016.24,720.24,1015.17,723.77,1014.62Z" transform="translate(-485.74 -714.1)"/><path class="cls-23" d="M880,1003a6.83,6.83,0,0,1,4.09-5.74c4.48-2.34,8.81-5,14.32-8.11-1.76,7.21-3.17,13.13-4.67,19-.51,2-2.45,2.61-4,3.54-3.55,2.15-7.16,4.22-10.74,6.32C878.11,1013,880.26,1008.05,880,1003Z" transform="translate(-485.74 -714.1)"/><path class="cls-23" d="M867.21,987.65c-1.24-3.53,1.42-4.54,3.73-5.77,2.71-2.32,5.41-1.45,8.12,0,6.79,4.07,7.06,6,1.93,14.1C876.69,996.92,869.71,992.71,867.21,987.65Z" transform="translate(-485.74 -714.1)"/><path class="cls-23" d="M758,1010l-.36-.08-.37,0c-2.16-11.14,1.68-18.66,12.72-22.64,4.47-1.61,8.48-4.59,12.56-7.16,3-1.91,3.3-.77,3.67,2.17,1,7.94-1,13.44-9.15,16.79C770.35,1001.83,764.32,1006.26,758,1010Z" transform="translate(-485.74 -714.1)"/><path class="cls-35" d="M747,986.34c-1.53.08-3.23.37-2.67-2.14l25.78-14,.85,1.3C763.69,977.48,754.78,981.06,747,986.34Z" transform="translate(-485.74 -714.1)"/><path class="cls-26" d="M766,977.89c2.26-1.72,4.22-4.57,7.57-3,2.18,1,6.07,2.18,5.68,4-.63,2.93-4.6,3.61-7.25,5.1C769.15,982.7,765.29,982.55,766,977.89Z" transform="translate(-485.74 -714.1)"/><path class="cls-36" d="M773.48,970.87c3.74.3,6.48,2.7,9.57,4.33.57.29,1.24.75.9,1.5a1.35,1.35,0,0,1-2.07.58C778.91,975.44,775.33,974.43,773.48,970.87Z" transform="translate(-485.74 -714.1)"/><path class="cls-37" d="M754.07,992c-1.57-2-5-1.79-5.76-4.81l1.54-.31c3.81,0,7.36.41,8.16,5.16C756.68,993.47,755.38,992.39,754.07,992Z" transform="translate(-485.74 -714.1)"/><path class="cls-38" d="M751.78,985.8,753,985c5.33-.66,7.37.46,8.88,4.87L759,991.16C756.67,989.3,753.24,988.89,751.78,985.8Z" transform="translate(-485.74 -714.1)"/><path class="cls-39" d="M759.86,980.86,762,980a12.8,12.8,0,0,1,5.91,2.27c1.33.91,2.39,1.88,1,3.55a2.12,2.12,0,0,1-.72.32C762.75,986.59,760.71,985.29,759.86,980.86Z" transform="translate(-485.74 -714.1)"/><path class="cls-40" d="M761.86,989.85A21.3,21.3,0,0,0,753,985l3.12-1.84c3.38.46,6.06,2.34,8.73,4.27.08.22.16.44.25.66Z" transform="translate(-485.74 -714.1)"/><path class="cls-2" d="M759.86,980.86a16.51,16.51,0,0,0,8.32,5.29l-3.1,1.92-.33-.28c-2.67-1.65-5.71-2.69-8-5Z" transform="translate(-485.74 -714.1)"/><path class="cls-39" d="M766,977.89c1.17,2.83,4.89,3.11,6,6l0,.08a9.16,9.16,0,0,1-8.87-4.86Z" transform="translate(-485.74 -714.1)"/><path class="cls-41" d="M756.77,982.81c3,1.09,6.14,2,8,5-3.69,0-6.28-2.15-8.65-4.65A2.1,2.1,0,0,1,756.77,982.81Z" transform="translate(-485.74 -714.1)"/><path class="cls-42" d="M763.11,979.12A21.07,21.07,0,0,0,772,984l-3.08,1.85c-1.27-3.16-5.3-3.05-6.9-5.82Z" transform="translate(-485.74 -714.1)"/><path class="cls-2" d="M751.78,985.8c2.37,1.85,5.57,2.58,7.26,5.36l-1,.85c-2.34-2.32-5.32-3.63-8.16-5.16Z" transform="translate(-485.74 -714.1)"/><path class="cls-4" d="M879.79,789.92c3.12-6.88,3.13-6.9,9.68-3.14,13.81,8,27.56,16,41.44,23.83,3,1.69,4.05,3.19,2.44,6.59-2.1,4.45-3.6,9.17-5.36,13.78-.4,3.39-.35,6.85-2.11,10-1.46,2.58-3.06,3.64-6,2-15.89-8.67-31.51-17.83-47-27.15-1.66-1-3.15-2.19-2.27-4.38a159.17,159.17,0,0,0,6.83-19.19A3.62,3.62,0,0,1,879.79,789.92Z" transform="translate(-485.74 -714.1)"/><path class="cls-4" d="M935,811.1l-58.34-33.78-3-1.74c-3.21-1.86-5.48-4.31-3.17-8.08,2.12-3.46,5.23-2.85,8.29-1.06q8.21,4.77,16.43,9.49L938.94,801C940.61,805.52,939.12,809.34,935,811.1Z" transform="translate(-485.74 -714.1)"/><path class="cls-13" d="M962,760.05c.4,1.13.84,2.39-.15,3.3-7,6.47-8.47,15.74-11.7,24q-26.94,68.89-53.26,138c-1,2.7-3.44,5.26-2,8.59a17.91,17.91,0,0,1-6.43,3.38l1.7-6.14c-.66-3.18.07-6.09,1.15-9.15,4-11.16,9.31-21.72,13.47-32.78,1.8-4.79,3-9.8,5.07-14.54,1.74-4.11,3.08-8.41,5.58-12.17a173.41,173.41,0,0,1,13.28-29.68l7.32-18.73c.82-4.38,2.08-8.58,4.82-12.21a3,3,0,0,0,.17-.79L946.84,787q3.66-9.24,7.34-18.47A15.06,15.06,0,0,1,962,760.05Z" transform="translate(-485.74 -714.1)"/><path class="cls-15" d="M928.79,832.89q-5.89,15-11.81,30.1a1.57,1.57,0,0,1-1.93-.53c-.78-5.14-4.32-7.67-8.58-10.12-11.11-6.39-22.4-12.5-33.28-19.28-3.76-2.34-6.77-2.28-9.64,1.12a2.23,2.23,0,0,1-3-1.26c.2-5.18-2.58-9.08-5.54-12.9-2.56-3.32-3.74-6.82-.55-10.31,3.4-3.73,7.25-2.65,10.72-.14s5.06,1.61,6.17-2.24c1-3.48,2.48-6.83,3.75-10.24.86-1.62-.08-3.4.55-5.11s.87-3.45,3.25-3.26l.91,1.2c-2.49,6.51-4.87,13.07-7.52,19.52-1,2.45-.69,3.83,1.69,5.19q23.17,13.2,46.19,26.64c2.41,1.41,3.47,1,4.33-1.55,1-3,2.33-5.83,3.51-8.74C928.26,831.62,928.53,832.25,928.79,832.89Z" transform="translate(-485.74 -714.1)"/><path class="cls-2" d="M878.88,788.72q-1.89,4.18-3.8,8.37c-1.66-7.11-4.09-14-4.9-21.34,1.43.78,2.87,1.54,4.29,2.35C881,781.81,881,781.82,878.88,788.72Z" transform="translate(-485.74 -714.1)"/><path class="cls-43" d="M940.93,802q-2.41,6.1-4.82,12.21L935,811.1A24.1,24.1,0,0,0,938.94,801Z" transform="translate(-485.74 -714.1)"/><path class="cls-23" d="M781.16,725.19c6-5.49,11.82-5.37,18.47-.41,5.8,4.34,12.46,7.52,19.11,11.42a39.4,39.4,0,0,1-9.66,5.9c-2.72.36-5.06-.55-7.43-1.87-5.59-3.13-11.15-6.35-16.7-9.57C782.92,729.48,780.27,728.5,781.16,725.19Z" transform="translate(-485.74 -714.1)"/><path class="cls-14" d="M781.16,725.19l27.92,16.91a30.75,30.75,0,0,1-8.79,5c-9.76-4.91-19.17-10.42-28.41-16.24Z" transform="translate(-485.74 -714.1)"/><path class="cls-14" d="M810.16,744.21c1.27,4.7,1.67,9.11-3.53,11.94-3.88,2.11-4.91,1.61-5.67-2.88A27.82,27.82,0,0,0,800,750Z" transform="translate(-485.74 -714.1)"/><path class="cls-4" d="M1103.15,868c.47,7.06-3.74,10.6-9.67,12.73a33.12,33.12,0,0,1-19.6.93c-10.87-2.72-13.66-7.66-11.59-21.14,10,6.56,20.5,8.13,31.69,4.23,3.25-.62,5.59-3,8.8-4.86C1102.92,862.94,1103,865.48,1103.15,868Z" transform="translate(-485.74 -714.1)"/><path class="cls-32" d="M1092.68,863.8c-5.84,1.2-11.71,1.76-17.64.58a20.73,20.73,0,0,1-10.08-4.84,9.93,9.93,0,0,1-.88-11.49c3.94-4.53,9.46-5.28,14.9-6.2,6.59.17,13.26,0,19,4.2,6.19,6.59,4.66,9.3,1.1,14C1097.33,862,1094.74,862.45,1092.68,863.8Z" transform="translate(-485.74 -714.1)"/><path class="cls-44" d="M1099,860c2.84-4.91,2.14-9.55-1.1-14C1104.36,850.89,1104.66,854.75,1099,860Z" transform="translate(-485.74 -714.1)"/><path class="cls-2" d="M1025,838c3,.68,1.67,2.39,1,4-2.67,2.91-5.56,5.5-9.56,6.42-2.16-.7-4.82.76-6.58-1.15a5.59,5.59,0,0,1-1.38-5.93c.87-2.32.82-4.49-1.23-6.25.44-4.79,2-8.86,6.92-10.78a2.2,2.2,0,0,0,1.7-2.09c3.33-1.54,8.49,1.78,8.9,6.19.26,2.87.88,5.78.36,8.7,0,.34,0,.67,0,1a9.68,9.68,0,0,1-3.56,1.23C1022.68,838.91,1024,838.93,1025,838Z" transform="translate(-485.74 -714.1)"/><path class="cls-41" d="M1025.07,837c-1-.81-1.89-2.28-2.88-2.33-3.63-.16-2.47-1.59-1.1-3.22,2.21-2.63,1.73-4.92-1.59-5.34-2.84-.37-.32-4.77-3.69-4l-2.67.42c-1.5-2.45-.24-3.59,2.05-4,1.57-.3,3.23.22,4.81-.36,1.89-.51,3.8-1,5.13-2.61.32.06.9.1.91.19C1026.78,822.91,1028.48,830.09,1025.07,837Z" transform="translate(-485.74 -714.1)"/><path class="cls-39" d="M1007.19,835c3.56-1.88,4.31,3.4,7.6,2.32-1.15,3-5.57,2.6-4.89,6.2.65,3.42,4.14,2,6,3.33a1.87,1.87,0,0,0,1.47,1.17,19.88,19.88,0,0,0,3.93.35c1.61,0,3,.39,2.58,2.54l.15.21a38.41,38.41,0,0,1-6.21,1.63c-7.2.71-10.83-2.66-10.84-9.82C1007,840.31,1007.13,837.67,1007.19,835Z" transform="translate(-485.74 -714.1)"/><path class="cls-45" d="M1020.33,813.8l3.56.33,0,0c-4,3.23-9.77,3.63-13.62.94-2.65-1.86-3-3.93-.23-5.89a11.24,11.24,0,0,1,8.49-1.82c1.49.23,3.16.69,1.74,2.86C1018.06,811.44,1018.83,812.63,1020.33,813.8Z" transform="translate(-485.74 -714.1)"/><path class="cls-2" d="M1020,818.19c-2.36,1.34-6.35.14-6.86,4.38-1.6.84-3.33,2.27-5.06.92s-.93-3.71-1-5.65c-.05-1.59.79-2.21,2.2-1.32C1012.64,818.63,1016.37,818,1020,818.19Z" transform="translate(-485.74 -714.1)"/><path class="cls-46" d="M1020.33,813.8c-1.62.05-3.24.15-4.85.13-1.33,0-2.84-.16-2.89-1.87s1.48-2,2.79-2c1.62-.06,3.24.07,4.86.12Z" transform="translate(-485.74 -714.1)"/><path class="cls-4" d="M708,930.1l-7.86,4.09a11.42,11.42,0,0,1-7.65-1.25c-16-9.5-32.28-18.45-48.21-28-1.76-1.06-4.19-1.83-3.18-4.79,6-5.36,11.5-5.15,18.52-.66,14.86,9.48,30.47,17.8,45.67,26.76C706.5,926.92,710.08,926.8,708,930.1Z" transform="translate(-485.74 -714.1)"/><path class="cls-14" d="M641.11,900.12l59,34.07L690,940c-10.14-7-21-12.7-31.7-18.77-9.08-5.16-17.71-11.15-27.36-15.29Z" transform="translate(-485.74 -714.1)"/><path class="cls-39" d="M1010.88,897c-.56,2.37-2.29,3.16-4.43,3.1s-4.22-.84-4.12-3.3,2.18-3.18,4.31-3.13S1010.48,894.6,1010.88,897Z" transform="translate(-485.74 -714.1)"/><path class="cls-24" d="M1026,888.12c-.46,2.51-2.29,3.14-4.43,3.07s-4.23-1-3.92-3.49,2.44-3,4.6-2.82C1024.25,885,1025.77,885.85,1026,888.12Z" transform="translate(-485.74 -714.1)"/><path class="cls-23" d="M1070.76,924.64c3.38-3.38,5.94-5.95,8.52-8.49,1.88-1.86,4.09-1.88,6.47-1.16,5.69,1.71,11.39,3.41,17.1,5,2.37.68,1.85,1.62.66,3.11-6.42,8-8.3,8.65-18.2,5.78C1080.72,927.58,1076.15,926.22,1070.76,924.64Z" transform="translate(-485.74 -714.1)"/><path class="cls-24" d="M1095.52,904.05c5.79,3.37,12.09,7,18.37,10.7.89.52,1,1.56.13,2-2.87,1.3-4.73,4.41-9.2,2.28-5.91-2.82-12.62-4-19-5.84-1.39-.42-3.53-.33-3.79-1.86-.34-2,2-2.32,3.38-3C1088.44,906.65,1091,904,1095.52,904.05Z" transform="translate(-485.74 -714.1)"/><path class="cls-41" d="M869.64,980.71c-1.52.08-3.16,2.71-4.55-.17-1.23-2.56.64-3.52,2.4-4.53,3.84-2.21,7.85-4.2,11.48-6.73,3.3-2.32,4.89-1.4,5.88,2.05l1.73,7.38c-4.83-4.35-8.8-3.91-12.5-.56C873.49,980.55,871.52,980.56,869.64,980.71Z" transform="translate(-485.74 -714.1)"/><path class="cls-45" d="M879,979c.79-.79,1.39-2.06,2.86-1.21,4.53,2.62,9,5.25,13.36,8.33-3.57.23-7.68,4.14-10-2.13-.54-1.48-3.2-2.19-4.88-3.26C879.21,980.68,878.58,980.23,879,979Z" transform="translate(-485.74 -714.1)"/><path class="cls-30" d="M885,994.72c1.11-5.75,1.3-5.87,9.74-5.6Z" transform="translate(-485.74 -714.1)"/><path class="cls-47" d="M879,979l1.37,1.73-1.27,1.16h-8.12l-1.3-1.17,4.44-2.56C875.44,980,877.3,978.94,879,979Z" transform="translate(-485.74 -714.1)"/><path class="cls-48" d="M1064.08,848.05c-.35,3.88-.85,7.77.88,11.49C1060.62,855.13,1060.46,853,1064.08,848.05Z" transform="translate(-485.74 -714.1)"/><path class="cls-23" d="M790.09,1002a20.92,20.92,0,0,1,3,1.07c5.34,3,10.64,6.11,16,9.14,2.08,1.19,2.16,2.27,0,3.47-2.6,1.47-5.18,3-7.77,4.46a5.25,5.25,0,0,1-5.65-.07c-5.31-3.08-10.61-6.17-15.95-9.19-2.07-1.18-2.29-2.27-.06-3.42C783.14,1005.62,786.27,1003.05,790.09,1002Z" transform="translate(-485.74 -714.1)"/><path class="cls-23" d="M747.67,1026.47c3,.21,4.82,1.74,6.82,2.86,4,2.26,8,4.68,12.07,6.92,2.65,1.46,2.29,2.31,0,4-6.35,4.73-12.41,6.26-19.17.63-2.89-2.41-6.56-3.86-9.82-5.82-.88-.52-2.71-1.37-1.13-2.45C740.07,1030.13,743.75,1027.53,747.67,1026.47Z" transform="translate(-485.74 -714.1)"/><path class="cls-2" d="M677.92,1008.19c-1.85,5.22-6.86,6.41-11,8.69-7.33.89-7.28.89-6.94-7.6.06-1.57-.2-3.27-1.81-4.26.56-4.93,2-9.27,7.35-11a2,2,0,0,0,1.33-1.87c3.14-.61,8.2,2.76,8.67,6.37.37,2.86,1.35,5.82.31,8.77a3.06,3.06,0,0,1-3.07,1.73C674.58,1010,675.74,1005.9,677.92,1008.19Z" transform="translate(-485.74 -714.1)"/><path class="cls-39" d="M675.23,1007.22c-.84-1.82-1.73-3.59-5.2-2.64,3.47-4.35,4.56-7.6-1.43-9.09-1.21-.3.72-3.18-1.77-3.37l-1.73,0c-3.1-1.23-1.6-2.47.12-3.39,1.44-.76,3.21,0,4.77-.53l3.28-1.11,4.52-2.08q0,9.88.08,19.76C677.26,1005.91,677.64,1008.11,675.23,1007.22Z" transform="translate(-485.74 -714.1)"/><path class="cls-41" d="M658.15,1005c3.28-2.07,4.08,3.27,7.56,1.58-6.4,8.42-6.4,8.42,1.19,10.28-.75.49-2.18.69-.9,2.07,1.6.38,3.12-.19,4.67-.4,2-.28,3.9-.55,4.17,2.27-7.92,3.52-13.65,2.23-17-3.8Q658,1011,658.15,1005Z" transform="translate(-485.74 -714.1)"/><path class="cls-35" d="M664.33,977.19a44.08,44.08,0,0,1,6.41.21c2.45.43,5.19,1.31,5.63,4.12s-2.35,3.59-4.35,4.65a32.24,32.24,0,0,1-5.94.33c-2.81-.32-6.12-.83-6.8-4.08C658.56,978.92,662.25,978.59,664.33,977.19Z" transform="translate(-485.74 -714.1)"/><path class="cls-49" d="M670,988.25c-1.42,1.57-5.93-.71-4.89,3.92-2.52.39-6,4.64-7-1.42-.5-2.86-.78-6.25,4-3.43C664.54,988.72,667.38,987.83,670,988.25Z" transform="translate(-485.74 -714.1)"/><path class="cls-1" d="M861.93,831.87c.18.59.44,1.07,1.18,1a6.38,6.38,0,0,1,5.66.65c14.19,7.93,28.14,16.27,42.28,24.28,1.93,1.09,3.07,3,4.91,4.15l1,1.06q-12.78,34.34-26.74,68.22l-1.48.1Q864,917,839.23,902.58c-1.86-1.08-3.65-2.28-5.47-3.42l1.2-1c3.22-4.16,4.19-9.31,6.13-14,1-3.77.39-7.76,1.72-11.51.75-2.11-.53-3.71-2-5.18a16,16,0,0,1-3.58-4.71c-2.5-3.41-3.42-6.91-.14-10.31s7-2.64,10.32-.15c4.22,3.2,6.16,1.91,7.4-2.74.84-3.18,2.2-6.22,3.33-9.33a25,25,0,0,0,.58-4.88C858.94,833.41,859.34,831.58,861.93,831.87Z" transform="translate(-485.74 -714.1)"/><path class="cls-23" d="M779,1033.06c-8.5-1.66-15-7.21-22-11.6-.15-.09.14-.9.23-1.37.31-.1.63-.2.94-.32,4.08-1.63,7.61-6.7,11.94-5.09,6.6,2.44,12.57,6.64,18.69,10.28,2.12,1.26.27,2.18-.76,2.81C785.05,1029.59,782,1031.31,779,1033.06Z" transform="translate(-485.74 -714.1)"/><path class="cls-14" d="M674.84,1020.82c-2.73-1.65-6.17,0-8.84-1.87,2.36-1.16,4.7-2.34,7.08-3.45,1.4-.65,3-2.24,4.33-.36,1.09,1.53,0,3.16-1,4.47A9.08,9.08,0,0,1,674.84,1020.82Z" transform="translate(-485.74 -714.1)"/><path class="cls-50" d="M675.23,1007.22l2.64-2.4c.09.34.18.68.26,1l-.21,2.35-12.72,5.47C667.75,1008.75,671.45,1007.92,675.23,1007.22Z" transform="translate(-485.74 -714.1)"/><path class="cls-49" d="M1023.92,850.93c-2.73-1.79-6.2-.1-8.93-1.9,2.29-2.21,5.44-3,8-4.92,1.13-.85,2.69-1.45,4,.07C1027.17,847,1026.73,849.48,1023.92,850.93Z" transform="translate(-485.74 -714.1)"/><path class="cls-51" d="M1026.93,844.18c-4.53.28-7.68,3.94-11.94,4.85-.66-1.15.34-1.57,1-2.16,3.84-.63,6-4.61,10-4.94Z" transform="translate(-485.74 -714.1)"/><path class="cls-50" d="M563.85,849.43c2.5.6,4.3,2,6,5.26C566.42,853.4,565.13,851.39,563.85,849.43Z" transform="translate(-485.74 -714.1)"/><path class="cls-2" d="M837.25,862.7c10.2,5.47,10.21,5.47,6.1,15.93-.72,1.83-1.51,3.65-2.26,5.47Z" transform="translate(-485.74 -714.1)"/><path class="cls-2" d="M861.93,831.87l-3.77,8.3c-.66-6.78-3.22-13.26-3.17-20.15.89.44,1.8.85,2.68,1.33C864.15,824.94,864.15,825,861.93,831.87Z" transform="translate(-485.74 -714.1)"/><path class="cls-14" d="M691,942l10.1-5.82c0,2-.15,4-.08,6,.12,3.29-1.61,5.21-4.41,6.57s-4.51,1.12-4.64-2.42A8.07,8.07,0,0,0,691,942Z" transform="translate(-485.74 -714.1)"/><path class="cls-51" d="M934.5,860.59c-2.64-.21-4.32-1.6-4.33-4.31a3.81,3.81,0,0,1,4-4.12,4,4,0,0,1,4.41,4.23C938.58,858.81,937,860.22,934.5,860.59Z" transform="translate(-485.74 -714.1)"/><path class="cls-51" d="M951.47,808.45c2.5.19,4.16,1.44,4.35,4a3.83,3.83,0,0,1-3.74,4.44,3.93,3.93,0,0,1-4.62-4.1C947.37,810.26,949,808.85,951.47,808.45Z" transform="translate(-485.74 -714.1)"/><path class="cls-1" d="M921.56,898.91c-.18,2.46-1.33,4.23-3.87,4.4-2.75.19-4.49-1.36-4.54-4.12a3.82,3.82,0,0,1,4-4.14C919.76,894.94,921.08,896.5,921.56,898.91Z" transform="translate(-485.74 -714.1)"/><path class="cls-14" d="M665.1,806a13.24,13.24,0,0,1,12-3.78c3.73.58,2.17,5.34,4.95,7.18.75.49-1.44,2.21-2.78,2.8-.87.39-2.52.73-2.34-.6,1-7.45-4.57-5-8.13-5.58A30.45,30.45,0,0,0,665.1,806Z" transform="translate(-485.74 -714.1)"/><path class="cls-19" d="M672.33,814.94c-3.89,4.51-7.8,3.23-11.72,1.27-1.17-.58-2.15-1.52-3.32-2.08s-2.63-1.12-2.21-2.77,2.06-2.1,3.46-2.47c2.27-.61,1.68,1.17,1.88,2.4.45,2.94,2.84,3.41,5.18,3.62C667.65,815.09,669.74,814.94,672.33,814.94Z" transform="translate(-485.74 -714.1)"/><path class="cls-13" d="M686.2,825.67c-.61-.3-1.56-.48-2-1-.83-1.12.24-1.83,1-2.38q3.69-2.55,7.47-5c1.35-.87,2.93-1.29,4,.3s-.67,2.32-1.67,3C692.27,822.45,689.64,824.52,686.2,825.67Z" transform="translate(-485.74 -714.1)"/><path class="cls-4" d="M921.84,846.4c-.76,1.82-1.6,4.17-2.69,6.4-.94,1.89-2.28.67-3.35.05q-29.16-16.8-58.28-33.68c-2.95-1.72-4.41-4.28-2.36-7.51s4.8-3.1,7.82-1.35q28.29,16.34,56.58,32.66C920.67,843.61,922.05,844.14,921.84,846.4Z" transform="translate(-485.74 -714.1)"/><path class="cls-2" d="M916,861.93c-1.37.89-2.53.19-3.69-.49l-49.16-28.59c.5-1.24,1-2.45,1.48-3.71.76-2.26,1.89-2.75,4.08-1.47q23.3,13.56,46.69,27C919.44,856.94,916.11,859.47,916,861.93Z" transform="translate(-485.74 -714.1)"/><path class="cls-52" d="M1088.14,857.23a18.5,18.5,0,0,1-12.58-.26c-3.92-2.94-3.84-4.59.35-7.11,4.86-1.59,9.62-1.89,14.11,1.11C1093.89,854.41,1091,855.8,1088.14,857.23Z" transform="translate(-485.74 -714.1)"/><path class="cls-35" d="M1094.8,860c4-7.35,3.78-8.3-2.35-13.73,3.32.73,6.39,3.33,7,6.07C1100.06,855.53,1098.24,857.54,1094.8,860Z" transform="translate(-485.74 -714.1)"/><path class="cls-48" d="M1069.66,847c-2.59,4.11-3.18,7.36-1.28,11.28C1063.93,854.61,1064.17,851.53,1069.66,847Z" transform="translate(-485.74 -714.1)"/><path class="cls-45" d="M1092.07,848.88c4.93,3.56,5,5.38-.26,10.13C1093.92,855,1095.07,851.9,1092.07,848.88Z" transform="translate(-485.74 -714.1)"/><path class="cls-44" d="M1088.14,857.23c2.31-1.58,3.62-3.46,1.88-6.26a2.14,2.14,0,0,1,2.51,2.75C1092.07,855.85,1090.94,857.74,1088.14,857.23Z" transform="translate(-485.74 -714.1)"/><path class="cls-31" d="M1075.91,849.86c-2.85,2.23-2.79,4.61-.35,7.11-2.19-.38-3.65-1.53-3.35-3.9C1072.47,851.06,1073.19,849.21,1075.91,849.86Z" transform="translate(-485.74 -714.1)"/><path class="cls-44" d="M1071,849.07c-.38,2.83-.64,4.73-1,7.2C1067.48,853.45,1068.47,851.64,1071,849.07Z" transform="translate(-485.74 -714.1)"/><path class="cls-50" d="M1025,838c-2.43,3.43-6.4,3.71-9.89,5,2.19-4,5.48-5.67,9.95-4.89Z" transform="translate(-485.74 -714.1)"/><path class="cls-21" d="M1088.77,919.91c-.92,2.13-2.69,3.45-5.48,3.94l4.43-4.88Z" transform="translate(-485.74 -714.1)"/><path class="cls-52" d="M747.59,1036.19a8.9,8.9,0,0,1,6.56-3.92A8.22,8.22,0,0,1,747.59,1036.19Z" transform="translate(-485.74 -714.1)"/><path class="cls-13" d="M669.43,979.16c2.13.07,4,.24,3.94,2.13,0,2.86-2.5,2.66-4.44,2.59s-5-.3-4.78-2.4C664.48,978.59,668.16,980.46,669.43,979.16Z" transform="translate(-485.74 -714.1)"/><path class="cls-4" d="M905,889.55c-.9,2-1.51,4.85-3.22,6.66s-3.6-.68-5.17-1.58c-18.47-10.58-36.87-21.26-55.3-31.89-2.4-1.38-4.59-2.87-4.23-6.09.45-4.07,4.49-5.6,8.83-3.13,11.85,6.74,23.64,13.59,35.44,20.4q10.37,6,20.72,12C903.28,886.64,904.81,887.17,905,889.55Z" transform="translate(-485.74 -714.1)"/><path class="cls-1" d="M768.61,1023.94a8.26,8.26,0,0,1,6.53-3.61C773.11,1022.87,771.16,1024,768.61,1023.94Z" transform="translate(-485.74 -714.1)"/></svg>