<svg id="Layer_1" data-name="Layer 1" xmlns="http://www.w3.org/2000/svg" viewBox="0 0 337.64 383.99"><title>user</title><path d="M127.5,696.75c-6.19-2.79-8.54-7.5-8.3-14.33,1.62-45.72,20.07-83.23,55.26-112.22,26.58-21.91,57.48-32.52,92-32.44,14.75,0,29.51-.3,44.25.06,58.51,1.44,101.3,28.9,129.43,79.6,11.07,20,15.94,41.8,16.69,64.62.22,6.91-1.87,11.88-8.31,14.71Z" transform="translate(-119.18 -312.76)"/><path d="M288.05,312.76A101.24,101.24,0,1,1,186.77,413.57C186.85,357.93,232.24,312.75,288.05,312.76Z" transform="translate(-119.18 -312.76)"/></svg>