<svg id="Layer_1" data-name="Layer 1" xmlns="http://www.w3.org/2000/svg" viewBox="0 0 349.87 349.87"><defs><style>.cls-1{fill:#e4f5fa;}.cls-2{fill:#040505;}.cls-3{fill:#b2e2f1;}.cls-4{fill:#6ecbd1;}.cls-5{fill:#2883a5;}.cls-6{fill:#c3e6ea;}.cls-7{fill:#c4e7ea;}.cls-8{fill:#dff1fb;}.cls-9{fill:#0b0f10;}.cls-10{fill:#c8e2ad;}.cls-11{fill:#84d2e9;}</style></defs><title>Water</title><rect class="cls-1" width="349.87" height="349.87" rx="23.29"/><path class="cls-2" d="M279.49,628.27c-.92,4.1-2.35,5.24-6.5,5.21-18.85-.14-35.34-16.7-35.49-35.54,0-2.23.38-4.23,2.22-5.48,7.34-5,9.16-11.92,8.42-20.5-.7-8.21-.18-16.54-.12-24.81a5,5,0,0,0-1.79-4.19,25.71,25.71,0,0,1-.12-38.6A5,5,0,0,0,248,499.9c-.14-2.28-.05-4.58,0-6.86,0-3.89,1.23-5.29,5.22-6.17,7,1.07,4.76,6.82,5.34,10.87,2-.11,3.73-.28,5.47-.28,7.63,0,15.26,0,22.89,0l65.72-.1,24.79.11c4.21,0,6.51,1.78,6.61,5.06.11,3.43-2.28,5.38-6.61,5.4l-24.79.11c-.65,0-1.3-.1-2-.1q-43.16,0-86.33,0c-9.18,0-16.27,6.79-16.34,15.52-.08,8.9,7,15.82,16.34,15.86,8,0,15.92,0,23.87,0l64.42-.1H405c1.84,0,3.68.14,5.52.09a15.66,15.66,0,0,0,.62-31.3,6.8,6.8,0,0,1-6.05-3.51,7.83,7.83,0,0,1,.47-4.36c2.49-3.77,6.19-2.62,9.89-2.26,0-7.42.06-14.7,0-22,0-3.22,1.45-7.77-.62-9.3s-6.45-.39-9.8-.41H352.63q-26.89-.06-53.78-.1c-15.22,0-30.43.06-45.64.1a6.71,6.71,0,0,1-4.5-2.34,92.94,92.94,0,0,0-7.67-7.58c-3.33-2.69-3.88-6-3.43-9.9A36.86,36.86,0,0,1,274,413.71c5.65,0,11.35.55,16.92-.85a26.12,26.12,0,0,0,19.79-24.6c.2-4.79,0-9.59.1-14.39,0-1.51-.32-2.21-2-2a21,21,0,0,1-3.27,0c-3.27-.15-5.23-2.06-5.24-5.38q-.09-15.53,0-31.06c0-3.46,2-5.39,5.54-5.4q31.06,0,62.12,0c3.66,0,5.55,2,5.57,5.72q.06,15,0,30.07c0,4.26-1.86,6-6.23,6.06-4.22,0-4.29,0-4.21,4.28.11,6-.64,12,.9,17.89,3.06,11.72,13.25,19.46,25.71,19.69,6.73.13,13.48-.53,20.12,1.33,15,4.19,26.38,18.79,26.53,34.21,0,2.23-.37,4.26-2.2,5.49-7.56,5.08-9.11,12.22-8.43,20.84.66,8.23.18,16.55.11,24.83a4.38,4.38,0,0,0,1.59,3.64c12,11,12,28.05,0,39.07a4.37,4.37,0,0,0-1.62,3.61q.09,17.65,0,35.31a4.41,4.41,0,0,0,1.59,3.67c1.23,1.07,2.18,2.5,3.51,3.4,6,4.06,6.05,9.69,4.59,15.9a36.74,36.74,0,0,1-35.66,28.45q-46.59.07-93.18,0c-4.2,0-5.6-1.14-6.5-5.22,1-4.14,2.38-5.24,6.53-5.24q46.22,0,92.43,0a26.32,26.32,0,0,0,24.69-16.09c2.72-6.53,2.6-7.38-2.47-12.3-1.32-1.28-2.21-3.18-4.67-3-3.9.22-7.83.12-11.74.16H352.63c-1.2,0-2.39-.1-3.59-.1-28.52,0-57,.19-85.56-.17-6-.08-10.4,1.36-14,6a4.11,4.11,0,0,0-1.11,3.72A26.25,26.25,0,0,0,273.28,623C277.22,623.19,278.47,624.24,279.49,628.27ZM405,581.06c2.93,0,5.86,0,8.8.12,1.26.05,1.68-.37,1.67-1.65,0-9.57,0-19.14,0-28.71,0-.87.13-1.57-1.35-1.4-3,.35-6.06.33-9.09.46H352.63c-1.2,0-2.39-.1-3.59-.1h-84a15.63,15.63,0,0,1-4.23-.15c-2.27-.67-2.41.32-2.39,2.16.07,8.93.11,17.87,0,26.8,0,2.21.67,2.64,2.73,2.63,16.56-.08,33.12,0,49.67-.05q20.93,0,41.83-.1Zm0-125.58a32.77,32.77,0,0,1,5.53.15c6.24,1.21,10.54-1.61,14.17-6.24a3.31,3.31,0,0,0,.93-2.87,26.15,26.15,0,0,0-21-21.77c-5.52-1.06-11.07-.42-16.61-.54-17-.39-32.15-13.66-34.83-30.51-1-6.52-.35-13-.54-19.56,0-1.5-.11-2.34-2-2.32-9.15.11-18.3.09-27.45,0-1.62,0-2,.52-2,2.05q.14,7.35,0,14.7c-.22,15.83-11.74,30.28-27.1,34.35-6.66,1.76-13.39,1.14-20.11,1.25a26.54,26.54,0,0,0-24.38,17.05c-1.7,4.34-1.77,7.77,2.31,11.07,2.56,2.07,4.74,3.45,8.21,3.38,11.76-.24,23.53-.08,35.29-.1q28.59,0,57.18-.1Zm-68.2-94.08c7.84,0,15.69-.09,23.52.06,2.35,0,2.92-.69,2.85-2.93-.16-5.22-.12-10.46,0-15.68,0-1.82-.46-2.42-2.36-2.41q-23.83.1-47.69,0c-1.9,0-2.38.61-2.34,2.42.1,5.22.15,10.46,0,15.68-.07,2.26.52,3,2.86,2.92C321.32,361.31,329.05,361.4,336.78,361.4Z" transform="translate(-164.75 -283.63)"/><path class="cls-3" d="M405,591.74c3.91,0,7.84.06,11.74-.16,2.46-.13,3.35,1.77,4.67,3,5.07,4.92,5.19,5.77,2.47,12.3A26.32,26.32,0,0,1,399.17,623q-46.21,0-92.43,0c-4.15,0-5.49,1.1-6.53,5.24H279.49c-1-4-2.27-5.08-6.21-5.26a26.25,26.25,0,0,1-24.89-21.8,4.11,4.11,0,0,1,1.11-3.72c3.58-4.66,8-6.1,14-6,28.52.36,57,.16,85.56.17,1.2,0,2.39.06,3.59.1,0,5.87.14,11.75-.05,17.61-.09,2.65.81,3.28,3.33,3.26,14.46-.11,28.93-.09,43.39,0,5.56,0,9.74-2.45,13.17-6.61,1.89-2.29,2-4.1-.41-6.35S406.41,595.18,405,591.74Z" transform="translate(-164.75 -283.63)"/><path class="cls-3" d="M352.63,497.34l-65.72.1c-7.63,0-15.26,0-22.89,0-1.74,0-3.47.17-5.47.28-.58-4.05,1.63-9.8-5.34-10.87V466.16c15.21,0,30.42-.1,45.64-.1q26.88,0,53.78.1Z" transform="translate(-164.75 -283.63)"/><path class="cls-3" d="M352.63,455.48q-28.59,0-57.18.1c-11.76,0-23.53-.14-35.29.1-3.47.07-5.65-1.31-8.21-3.38-4.08-3.3-4-6.73-2.31-11.07A26.54,26.54,0,0,1,274,424.18c6.72-.11,13.45.51,20.11-1.25,15.36-4.07,26.88-18.52,27.1-34.35q.11-7.35,0-14.7c0-1.53.36-2.06,2-2.05,9.15.08,18.3.1,27.45,0,1.92,0,2,.82,2,2.32.19,6.52-.49,13,.54,19.56,2.68,16.85,17.81,30.12,34.83,30.51,5.54.12,11.09-.52,16.61.54a26.15,26.15,0,0,1,21,21.77,3.31,3.31,0,0,1-.93,2.87c-3.63,4.63-7.93,7.45-14.17,6.24a32.77,32.77,0,0,0-5.53-.15c0-1.27,1-1.89,1.7-2.64q3.09-3.15,6.23-6.23c1-1,1.71-2.05.78-3.43-2.14-3.18-4.48-6-8.32-7.45-4.79-1.79-9.69-1.05-14.52-1-14,.09-25.86-4.68-35.62-14.73-.67-.7-1.12-1.91-2.6-1.73Z" transform="translate(-164.75 -283.63)"/><path class="cls-4" d="M352.63,497.34V466.16H405q0,15.43,0,30.87c0,1.05-.34,2.19.56,3.09a7.83,7.83,0,0,0-.47,4.36,21.21,21.21,0,0,1-.13,3.57c-1,5.11,1.22,8.2,5.86,10A9.17,9.17,0,0,1,413,519.4c3.16,2.45,3.17,6,0,8.42a17.11,17.11,0,0,1-4.13,2.56c-3.31,1.25-4.37,3.55-3.87,6.87a14.06,14.06,0,0,1,0,2H352.63V508l24.79-.11c4.33,0,6.72-2,6.61-5.4-.1-3.28-2.4-5.05-6.61-5.06Z" transform="translate(-164.75 -283.63)"/><path class="cls-3" d="M352.63,508V539.2l-64.42.1c-7.95,0-15.91,0-23.87,0-9.31,0-16.42-7-16.34-15.86.07-8.73,7.16-15.51,16.34-15.52q43.17,0,86.33,0C351.33,507.92,352,508,352.63,508Z" transform="translate(-164.75 -283.63)"/><path class="cls-3" d="M352.63,581.06q-20.91,0-41.83.1c-16.55,0-33.11,0-49.67.05-2.06,0-2.76-.42-2.73-2.63.14-8.93.1-17.87,0-26.8,0-1.84.12-2.83,2.39-2.16a15.63,15.63,0,0,0,4.23.15h84c1.2,0,2.39.06,3.59.1Z" transform="translate(-164.75 -283.63)"/><ellipse class="cls-4" cx="214.05" cy="281.84" rx="37.02" ry="22.05"/><path class="cls-4" d="M352.63,455.48V418.26c1.48-.18,1.93,1,2.6,1.73,9.76,10.05,21.63,14.82,35.62,14.73,4.83,0,9.73-.78,14.52,1,3.84,1.44,6.18,4.27,8.32,7.45.93,1.38.24,2.43-.78,3.43q-3.15,3.08-6.23,6.23c-.74.75-1.74,1.37-1.7,2.64Z" transform="translate(-164.75 -283.63)"/><path class="cls-4" d="M405,591.74c1.43,3.44,4.52,5.48,7.08,7.88s2.3,4.06.41,6.35c-3.43,4.16-7.61,6.63-13.17,6.61-14.46-.06-28.93-.08-43.39,0-2.52,0-3.42-.61-3.33-3.26.19-5.86.05-11.74.05-17.61Z" transform="translate(-164.75 -283.63)"/><path class="cls-5" d="M336.78,361.4c-7.73,0-15.46-.09-23.19.06-2.34,0-2.93-.66-2.86-2.92.17-5.22.12-10.46,0-15.68,0-1.81.44-2.43,2.34-2.42q23.85.1,47.69,0c1.9,0,2.4.59,2.36,2.41-.11,5.22-.15,10.46,0,15.68.07,2.24-.5,3-2.85,2.93C352.47,361.31,344.62,361.4,336.78,361.4Z" transform="translate(-164.75 -283.63)"/><path class="cls-6" d="M405,539.2a14.06,14.06,0,0,0,0-2c-.5-3.32.56-5.62,3.87-6.87a17.11,17.11,0,0,0,4.13-2.56c3.21-2.41,3.2-6,0-8.42A9.17,9.17,0,0,0,410.8,518c-4.64-1.77-6.88-4.86-5.86-10a21.21,21.21,0,0,0,.13-3.57,6.8,6.8,0,0,0,6.05,3.51,15.66,15.66,0,0,1-.62,31.3C408.66,539.34,406.82,539.23,405,539.2Z" transform="translate(-164.75 -283.63)"/><path class="cls-7" d="M405.54,500.12c-.9-.9-.56-2-.56-3.09q0-15.43,0-30.87c3.35,0,7.63-1.2,9.8.41s.58,6.08.62,9.3c.09,7.29,0,14.57,0,22C411.73,497.5,408,496.35,405.54,500.12Z" transform="translate(-164.75 -283.63)"/><path class="cls-7" d="M405,581.06V549.88c3-.13,6.08-.11,9.09-.46,1.48-.17,1.35.53,1.35,1.4,0,9.57,0,19.14,0,28.71,0,1.28-.41,1.7-1.67,1.65C410.84,581.08,407.91,581.09,405,581.06Z" transform="translate(-164.75 -283.63)"/><path class="cls-8" d="M387.11,598.5l1.77-9.55a3.16,3.16,0,0,0,3.88-2.85c.46-2.26,1-4.49,1.5-6.74.44-2-.1-3.58-2.15-4.39.09-3.08.75-6.13.48-9.23,2.6-.48,3.29-1.32,3.35-3.94a54.8,54.8,0,0,0-3-19.42c-1.3-3.75-3.37-7.21-4.19-11.17-.37-1.74-.17-2.23,1.75-2.22q29,.1,58,0c2,0,2.09.65,1.73,2.33-.8,3.74-2.7,7-4,10.57-4.55,12.45-4,25.19-1.36,37.79,2.93,13.89,5.64,27.74,5.78,42,0,4-1.61,5.9-5.57,5.9H393.81c-3.81,0-5.49-1.73-5.47-5.54a151.15,151.15,0,0,1,1.22-18.29C390,600.45,389.64,599.72,387.11,598.5Z" transform="translate(-164.75 -283.63)"/><path class="cls-9" d="M387.11,598.5c2.53,1.22,2.87,2,2.45,5.25A151.15,151.15,0,0,0,388.34,622c0,3.81,1.66,5.54,5.47,5.54h51.26c4,0,5.61-2,5.57-5.9-.14-14.26-2.85-28.11-5.78-42-2.65-12.6-3.19-25.34,1.36-37.79,1.29-3.54,3.19-6.83,4-10.57.36-1.68.28-2.34-1.73-2.33q-29,.1-58,0c-1.92,0-2.12.48-1.75,2.22.82,4,2.89,7.42,4.19,11.17a54.8,54.8,0,0,1,3,19.42c-.06,2.62-.75,3.46-3.35,3.94-2-.45-2.72-1.75-2.65-3.7a48.92,48.92,0,0,0-5-23.2,30.72,30.72,0,0,1-2.77-13.28q-.06-18,0-36.08a20.13,20.13,0,0,1,8.58-17c3.95-2.93,7.84-5.94,11.76-8.91,1.19-.9,2.12-5,1.44-6.27-.32-.61-.85-.32-1.29-.38a3.21,3.21,0,0,1-3.17-3.5c0-5-.06-10,0-15,0-2.31,1.16-3.33,3.43-3.34q16.56,0,33.13,0,3.31,0,3.34,3.4,0,7.38,0,14.77c0,2.31-.86,3.36-3.21,3.59-1.17.11-1.24.56-1.36,1.53a5.84,5.84,0,0,0,2.92,6.27c3.53,2.28,6.73,5.06,10.13,7.56A20.44,20.44,0,0,1,456.74,490c-.05,2.95-.06,5.91,0,8.86.05,2.15-.8,3.5-3,3.9a3.26,3.26,0,0,1-3-3.82c.09-1.82-.06-3.66,0-5.48.08-1.33-.41-1.65-1.68-1.65q-29.62.06-59.26,0c-1.28,0-1.68.36-1.68,1.66q.07,14,0,28.05c0,1.34.42,1.62,1.68,1.62q29.63-.06,59.26,0c1.24,0,1.77-.27,1.69-1.63-.12-1.82.07-3.66-.06-5.48a3.42,3.42,0,0,1,3-4.05c2.22.5,3,1.92,2.95,4.15-.23,5.67.49,11.38-.84,17a33.57,33.57,0,0,1-2.51,7.11c-4.51,9.23-4.83,19-4.09,29,.67,9.21,3.53,18,5.08,27a178.88,178.88,0,0,1,2.24,26.64,10.41,10.41,0,0,1-10.71,10.62q-26.48,0-52.94,0A10.34,10.34,0,0,1,382.36,623a166.76,166.76,0,0,1,1.41-21.65C384,599.46,385.31,598.67,387.11,598.5Zm32.43-112.65c9.63,0,19.27-.06,28.9,0,2,0,2-.6,1.33-2.08a13.85,13.85,0,0,0-4.18-5.71c-3.67-2.83-7.39-5.59-11-8.44-6.82-5.32-5.54-2.92-5.6-11.15,0-1.47-.51-1.7-1.8-1.68-3.65.08-7.31,0-11,.05-2,0-4.61-.88-5.89.38s-.37,3.75-.31,5.7a4.44,4.44,0,0,1-2.05,4.06c-4.58,3.37-9.08,6.86-13.62,10.28a15.49,15.49,0,0,0-5.23,6.7c-.63,1.59-.22,1.88,1.34,1.87C400.12,485.82,409.83,485.85,419.54,485.85Zm0-44.81c-4.15,0-8.3,0-12.44,0-1.16,0-1.6.27-1.55,1.5.09,2.31.08,4.64,0,7,0,1.11.31,1.45,1.43,1.44q12.54-.06,25.09,0c1.07,0,1.49-.3,1.45-1.43-.07-2.32-.09-4.64,0-7,.05-1.23-.39-1.52-1.55-1.5C427.81,441.08,423.66,441,419.52,441Z" transform="translate(-164.75 -283.63)"/><path class="cls-10" d="M453.8,511.93a3.42,3.42,0,0,0-3,4.05c.13,1.82-.06,3.66.06,5.48.08,1.36-.45,1.63-1.69,1.63q-29.64-.06-59.26,0c-1.26,0-1.69-.28-1.68-1.62q.09-14,0-28.05c0-1.3.4-1.66,1.68-1.66q29.63.06,59.26,0c1.27,0,1.76.32,1.68,1.65-.1,1.82.05,3.66,0,5.48a3.26,3.26,0,0,0,3,3.82C453.79,505.79,453.79,508.86,453.8,511.93Z" transform="translate(-164.75 -283.63)"/><path class="cls-9" d="M392.11,575c2.05.81,2.59,2.37,2.15,4.39-.48,2.25-1,4.48-1.5,6.74a3.16,3.16,0,0,1-3.88,2.85c-1.87-.84-2.47-2.18-1.92-4.21.59-2.2,1-4.45,1.43-6.69C388.79,576,389.92,574.85,392.11,575Z" transform="translate(-164.75 -283.63)"/><path class="cls-8" d="M419.54,485.85c-9.71,0-19.42,0-29.12,0-1.56,0-2-.28-1.34-1.87a15.49,15.49,0,0,1,5.23-6.7c4.54-3.42,9-6.91,13.62-10.28A4.44,4.44,0,0,0,410,463c-.06-1.95-.87-4.53.31-5.7s3.87-.35,5.89-.38c3.66-.07,7.32,0,11-.05,1.29,0,1.79.21,1.8,1.68.06,8.23-1.22,5.83,5.6,11.15,3.65,2.85,7.37,5.61,11,8.44a13.85,13.85,0,0,1,4.18,5.71c.63,1.48.67,2.1-1.33,2.08C438.81,485.79,429.17,485.85,419.54,485.85Z" transform="translate(-164.75 -283.63)"/><path class="cls-11" d="M419.52,441c4.14,0,8.29,0,12.44,0,1.16,0,1.6.27,1.55,1.5-.1,2.32-.08,4.64,0,7,0,1.13-.38,1.43-1.45,1.43q-12.56,0-25.09,0c-1.12,0-1.46-.33-1.43-1.44.08-2.31.09-4.64,0-7,0-1.23.39-1.52,1.55-1.5C411.22,441.08,415.37,441,419.52,441Z" transform="translate(-164.75 -283.63)"/></svg>