<svg xmlns="http://www.w3.org/2000/svg" width="39.909" height="50" viewBox="0 0 39.909 50">
  <g id="WEb_customer_profile_gray" data-name="WEb customer profile gray" transform="translate(0.027 0.01)">
    <path id="Path_2736" data-name="Path 2736" d="M212.07,373.958v-.008Z" transform="translate(-205.321 -356.394)"/>
    <path id="Path_2737" data-name="Path 2737" d="M182.4,447.288a4.147,4.147,0,0,1-3.388,3.906c-.742.14-1.491.082-2.238.183a10.207,10.207,0,0,0-8.68,9.736c-.031,1.982-.009,3.964-.008,5.946,0,.684.308,1.115.838,1.2.585.088.976-.22,1.167-.924-.008-2.247-.116-4.5.057-6.739a8.18,8.18,0,0,1,6.25-7.126c.946-.211,1.911-.143,2.857-.288a5.872,5.872,0,0,0,3.194-1.58.422.422,0,0,1,.636-.062,11.074,11.074,0,0,0,1.848.924,9.508,9.508,0,0,0,4.8.351c.889-.185,1.078-.41,1.1-1.3a1.121,1.121,0,0,0-1.423-.661,7.563,7.563,0,0,1-5.011-.81c-.477-.254-.605-.508-.35-.97a2.123,2.123,0,0,0,.116-.323c.072-.334.038-.792.246-.97a.3.3,0,0,1,.177-.066,6.326,6.326,0,0,0-2.205-.61A.777.777,0,0,1,182.4,447.288Z" transform="translate(-168.1 -418.279)"/>
    <path id="Path_2738" data-name="Path 2738" d="M211.89,357.6l-.02-.011a.433.433,0,0,0,.022.094Z" transform="translate(-205.152 -342.554)"/>
    <path id="Path_2739" data-name="Path 2739" d="M203.091,474.782a9.507,9.507,0,0,0,4.8.351c.889-.185,1.078-.41,1.1-1.3l.916-.343c.012.217-.165.34-.254.505a2.5,2.5,0,0,0,1.482,3.624,12.846,12.846,0,0,0,2.335.243,9.091,9.091,0,0,1,6.622,3.889,8.721,8.721,0,0,1,1.6,5.757,1.949,1.949,0,0,0,.8,1.81.293.293,0,0,1,.117.248c-.209.018-.419.052-.627.052H190.174c-.193,0-.383-.022-.574-.032a2.25,2.25,0,0,0,1.1-1.522,8.642,8.642,0,0,0,.032-1.264,8.578,8.578,0,0,1,2.569-6.206,9.384,9.384,0,0,1,6.887-2.812A2.706,2.706,0,0,0,203.091,474.782ZM214.706,487.5h0c.5,0,1,.018,1.5,0a.98.98,0,0,0,.106-1.956c-1.052-.048-2.11-.045-3.162,0a.99.99,0,0,0-.907,1.015.975.975,0,0,0,.973.939C213.71,487.514,214.209,487.5,214.706,487.5Z" transform="translate(-186.312 -440.604)" fill="#f4f4f4"/>
    <path id="Path_2740" data-name="Path 2740" d="M331.047,485.893a.292.292,0,0,0-.117-.248,1.957,1.957,0,0,1-.8-1.81,8.712,8.712,0,0,0-1.6-5.757,9.1,9.1,0,0,0-6.622-3.889,12.931,12.931,0,0,1-2.335-.243,2.5,2.5,0,0,1-1.482-3.624c.089-.165.266-.288.254-.505h0l.116-.082a4.54,4.54,0,0,0,.85-.587,6.214,6.214,0,0,0,3.667,2.6,17.139,17.139,0,0,0,2.633.246,8.214,8.214,0,0,1,6.949,7.183c.154,2.264.062,4.531.059,6.8l-.039.014-.037-.02c-.026-.065-.063-.071-.108-.017A5.594,5.594,0,0,1,331.047,485.893Z" transform="translate(-294.74 -436.933)" fill="#e9e9e9"/>
    <path id="Path_2741" data-name="Path 2741" d="M195.455,476.195a2.7,2.7,0,0,1-2.9,3,9.384,9.384,0,0,0-6.887,2.812,8.578,8.578,0,0,0-2.569,6.206,8.644,8.644,0,0,1-.032,1.264,2.25,2.25,0,0,1-1.1,1.522,7,7,0,0,1-1.355.074c0-2.247-.116-4.5.057-6.739a8.18,8.18,0,0,1,6.25-7.126c.946-.211,1.911-.143,2.857-.288a5.872,5.872,0,0,0,3.194-1.58.422.422,0,0,1,.636-.062A10.555,10.555,0,0,0,195.455,476.195Z" transform="translate(-178.676 -442.017)" fill="#f9f9f9"/>
    <path id="Path_2742" data-name="Path 2742" d="M339.766,476.855c0-2.265.1-4.532-.059-6.8a8.215,8.215,0,0,0-6.949-7.183,17.945,17.945,0,0,1-2.633-.246,6.214,6.214,0,0,1-3.667-2.6c-.376-.782-.33-1.009.319-1.6a1.185,1.185,0,0,1,1.421.571,4.023,4.023,0,0,0,3.471,1.814,10.128,10.128,0,0,1,9.8,7.746,9.147,9.147,0,0,1,.3,2.218q.014,2.914,0,5.826c0,.679-.317,1.112-.849,1.186C340.337,477.868,339.955,477.56,339.766,476.855Z" transform="translate(-301.893 -427.81)"/>
    <path id="Path_2743" data-name="Path 2743" d="M279.765,455.974c-.648.6-.695.822-.319,1.6a4.489,4.489,0,0,1-.85.587l-.116.082h0l-.916.343a1.121,1.121,0,0,0-1.423-.661,7.563,7.563,0,0,1-5.011-.81c-.477-.254-.605-.508-.35-.97a2.122,2.122,0,0,0,.115-.323,16.582,16.582,0,0,0,3.092.576,13.386,13.386,0,0,0,5.627-.932Z" transform="translate(-254.881 -425.36)" fill="#e2e2e2"/>
    <path id="Path_2744" data-name="Path 2744" d="M281.228,448.79a13.866,13.866,0,0,1-7.408.571,4.291,4.291,0,0,0-.787-.225c.1.048.2.1.308.154-.1-.051-.2-.1-.308-.154a.3.3,0,0,0-.177.066c-.208.179-.174.636-.246.97a16.584,16.584,0,0,0,3.092.576,13.386,13.386,0,0,0,5.627-.932Z" transform="translate(-256.538 -419.708)" fill="#d8d8d8"/>
    <path id="Path_2745" data-name="Path 2745" d="M413,578.07c.045-.054.082-.048.108.017h-.057Z" transform="translate(-375.307 -529.048)" fill="#898989"/>
    <path id="Path_2746" data-name="Path 2746" d="M238.15,269.657a4.006,4.006,0,0,1,2.618-1.266c3.507-2.926,8.316-3.9,13.221-.3,2.325,1.708,5.082,2.9,5.718,5.456,0,2.618.839,5.39.836,8.008-.008,5.634-6.074,11.372-11.655,12.14a12.59,12.59,0,0,1-4.6-.379,6.779,6.779,0,0,0,.758-1.018,1.873,1.873,0,0,0-.37-2.7,14.151,14.151,0,0,1-2.829-2.427,11.225,11.225,0,0,1-2.207-3.542,15.234,15.234,0,0,1-.892-5.687c-.014-1.937,0-3.85,0-5.766,0-.847.171-1.74-.57-2.415C238.148,269.746,238.156,269.692,238.15,269.657Z" transform="translate(-227.385 -264.876)" fill="#efefef"/>
    <path id="Path_2747" data-name="Path 2747" d="M210.621,291c0,.039,0,.092.022.112.741.675.568,1.568.57,2.415,0,1.922-.009,3.85,0,5.766a15.208,15.208,0,0,0,.892,5.687,11.225,11.225,0,0,0,2.207,3.542,14.324,14.324,0,0,0,2.829,2.427,1.873,1.873,0,0,1,.37,2.7,6.78,6.78,0,0,1-.758,1.018c-3.317-.781-5.946-2-7.546-4.971-.873-1.614-3.6-4.819-3.6-6.655,0-2.674,1.694-5.861,1.729-8.535C207.364,292.873,209.255,291.941,210.621,291Z" transform="translate(-199.856 -286.219)" fill="#f6f6f6"/>
    <path id="Path_2748" data-name="Path 2748" d="M339.065,553.523c-.5,0-1,.018-1.494,0a.975.975,0,0,1-.973-.939.99.99,0,0,1,.907-1.015c1.052-.04,2.11-.043,3.162,0a.98.98,0,0,1-.106,1.956c-.5.023-1,0-1.5,0Z" transform="translate(-310.671 -506.632)"/>
    <path id="Path_2749" data-name="Path 2749" d="M321.49,473.052l.116-.082Z" transform="translate(-297.89 -440.165)" fill="#737373"/>
    <path id="Path_2750" data-name="Path 2750" d="M214.158,289.983A15.046,15.046,0,1,1,229.2,274.937,15.047,15.047,0,0,1,214.158,289.983Zm0-28.089A13.044,13.044,0,1,0,227.2,274.937,13.045,13.045,0,0,0,214.158,261.894Z" transform="translate(-194.357 -259.9)"/>
  </g>
</svg>
