<svg xmlns="http://www.w3.org/2000/svg" data-name="Layer 3" viewBox="0 0 64 64"><path d="M32,1A31,31,0,1,0,63,32,31.035,31.035,0,0,0,32,1Zm0,60A29,29,0,1,1,61,32,29.034,29.034,0,0,1,32,61Z"/><path d="M28,30a8,8,0,1,0,8-8A8.009,8.009,0,0,0,28,30Zm8-6a6,6,0,1,1-6,6A6.006,6.006,0,0,1,36,24Z"/><path d="M47.49,16.592a3.542,3.542,0,0,1-2.422-2.115A5.506,5.506,0,0,0,39.932,11a10.423,10.423,0,0,0-5.157,1.36l-.654-.653-3-3a5.828,5.828,0,0,0-8.242,0l-7.172,7.172a5.813,5.813,0,0,0-.882,7.1.617.617,0,0,1-.082.021A2.746,2.746,0,0,0,12,25.744v.639a3.747,3.747,0,0,0-2,3.327,6.486,6.486,0,0,0,.683,2.891A3.015,3.015,0,0,1,11,33.946a3.016,3.016,0,0,0,.161.93l-.52.39A4.131,4.131,0,0,0,9,38.582a4.392,4.392,0,0,0,.826,2.577A10.541,10.541,0,0,0,9,45.236V46a4.007,4.007,0,0,0,3.256,3.931l.2.6A3.6,3.6,0,0,0,15.882,53a3.753,3.753,0,0,1,1.671.4,5.772,5.772,0,0,0,2.565.6,9.013,9.013,0,0,0,4.013-.947,3.964,3.964,0,0,1,.52-.216l.46-.153a5.679,5.679,0,0,0,3.573-3.573A.162.162,0,0,1,28.838,49a2.157,2.157,0,0,0,1.433-.549A4.917,4.917,0,0,0,30,50a5.006,5.006,0,0,0,5,5A23.025,23.025,0,0,0,58,32a5,5,0,0,0-4.082-4.907c.048-.721.082-1.444.082-2.164A8.582,8.582,0,0,0,47.49,16.592ZM43.211,15.22a5.543,5.543,0,0,0,3.8,3.312A6.585,6.585,0,0,1,52,24.929c0,.732-.036,1.467-.09,2.2A5,5,0,0,0,48,32,13.015,13.015,0,0,1,35,45a4.937,4.937,0,0,0-2.466.677A9.569,9.569,0,0,1,30.085,46,4.089,4.089,0,0,1,26,41.915a14.607,14.607,0,0,0-3.379-9.332A7.005,7.005,0,0,1,21,28.105a8.494,8.494,0,0,1,6.093-8.188,14.292,14.292,0,0,0,5.972-3.568l.862-.862A8.435,8.435,0,0,1,39.932,13,3.515,3.515,0,0,1,43.211,15.22Zm-10.1-1.692c-.2.175-.409.352-.6.545l-.862.862A12.267,12.267,0,0,1,26.519,18,10.476,10.476,0,0,0,19.5,24.867a3.782,3.782,0,0,1,.617-4.574l7.172-7.172a3.829,3.829,0,0,1,5.414,0ZM17.121,17.293l7.172-7.172a3.805,3.805,0,0,1,5.291-.1,5.866,5.866,0,0,0-3.7,1.686l-7.172,7.172a5.786,5.786,0,0,0-1.687,3.7,3.807,3.807,0,0,1,.1-5.291ZM12.978,28.129A1.84,1.84,0,0,0,14,26.474v-.73A.744.744,0,0,1,14.743,25a2.722,2.722,0,0,0,1.428-.414l2.536,2.535.32.32c-.014.22-.027.441-.027.664a9,9,0,0,0,.456,2.8l-2.941-1.765-1.03,1.714,6.1,3.658a12.588,12.588,0,0,1,2.181,5.011c-.068.031-.143.046-.209.079a3.678,3.678,0,0,1-4.177-.643A3.308,3.308,0,0,0,17.054,38,1.055,1.055,0,0,1,16,36.946,1.948,1.948,0,0,0,14.054,35,1.055,1.055,0,0,1,13,33.946a5.042,5.042,0,0,0-.528-2.24,4.473,4.473,0,0,1-.472-2A1.76,1.76,0,0,1,12.978,28.129Zm13.809,20.35a3.67,3.67,0,0,1-2.308,2.307l-.461.153a6.285,6.285,0,0,0-.782.325A7.014,7.014,0,0,1,20.118,52a3.753,3.753,0,0,1-1.671-.4,5.772,5.772,0,0,0-2.565-.6,1.607,1.607,0,0,1-1.528-1.1l-.406-1.214A1,1,0,0,0,13,48a2,2,0,0,1-2-2v-.764a8.525,8.525,0,0,1,.895-3.789,1,1,0,0,0-.188-1.154A2.427,2.427,0,0,1,11,38.545a2.1,2.1,0,0,1,.84-1.678l.524-.392A2.8,2.8,0,0,0,14,36.946,3.057,3.057,0,0,0,17.054,40a1.293,1.293,0,0,1,.908.376,5.533,5.533,0,0,0,1.57,1.083l-3.68.552.3,1.978,2.744-.411-.821,2.051,1.858.742,1.255-3.137,2.888-.433a5.99,5.99,0,0,0,.332,1.275l-1.341,3.572,1.874.7.814-2.172a6.121,6.121,0,0,0,1.793,1.257A2.146,2.146,0,0,0,26.787,48.479ZM56,32A21.024,21.024,0,0,1,35,53a3,3,0,0,1,0-6c.08,0,.158-.011.238-.012a7.831,7.831,0,0,0,2.055,3.719l1.414-1.414a5.858,5.858,0,0,1-1.469-2.479,14.845,14.845,0,0,0,4.143-1.259,7.856,7.856,0,0,0,1.912,3.152l1.414-1.414a5.846,5.846,0,0,1-1.522-2.739,15.077,15.077,0,0,0,3.185-2.8,7.69,7.69,0,0,0,2.075,2.076l1.11-1.664a5.7,5.7,0,0,1-1.9-2.147,14.9,14.9,0,0,0,1.792-4.038,12.593,12.593,0,0,0,3,2.849l1.11-1.664a10.6,10.6,0,0,1-3.608-4.117c.024-.349.053-.7.053-1.051a3,3,0,0,1,6,0Z"/></svg>