<svg xmlns="http://www.w3.org/2000/svg" viewBox="0 0 32 32"><path d="M16 30.001c-.271 0-.541-.009-.807-.027-3.503-.242-6.591-2.157-8.471-5.255a11.855 11.855 0 0 1-.738-10.876l.236-.542a.491.491 0 0 1 .563-.289l8.482 1.82c.48.103.988.103 1.469 0l8.482-1.82a.493.493 0 0 1 .563.289l.236.542a11.855 11.855 0 0 1-.738 10.876c-1.88 3.098-4.968 5.013-8.471 5.255a11.92 11.92 0 0 1-.806.027zM6.974 14.076l-.074.167a10.856 10.856 0 0 0 .678 9.957c1.709 2.816 4.51 4.557 7.684 4.776.488.034.988.034 1.477 0 3.174-.219 5.975-1.959 7.684-4.776a10.858 10.858 0 0 0 .678-9.958l-.073-.167-8.083 1.734a4.447 4.447 0 0 1-1.887 0l-8.084-1.733z"/><path d="M25.321 14.001a.495.495 0 0 1-.361-.155l-3.674-3.845H10.714L7.04 13.847a.5.5 0 0 1-.723-.691l3.821-4a.499.499 0 0 1 .361-.155h11c.137 0 .268.056.361.155l3.821 4a.5.5 0 0 1-.36.845z"/><path d="M18.5 10.001a.5.5 0 0 1-.464-.686l2-5a.499.499 0 0 1 .464-.314H23a.5.5 0 0 1 0 1h-2.161l-1.875 4.686a.499.499 0 0 1-.464.314zm-5.92.001a.502.502 0 0 1-.477-.347l-1.33-4.146a.501.501 0 0 1 .953-.306l1.33 4.146a.501.501 0 0 1-.476.653z"/><path d="M6.488 7.382a.5.5 0 0 1-.376-.83l3.846-4.383a.497.497 0 0 1 .49-.157l5.678 1.33a.5.5 0 0 1 .038.963L6.641 7.358a.504.504 0 0 1-.153.024zm4.024-4.328-2.457 2.8 6.085-1.951-3.628-.849z"/></svg>