<svg xmlns="http://www.w3.org/2000/svg" viewBox="0 0 395.066 395.066"><path d="M330.195 164.506h-.201v-53.867c0-.297-.036-.592-.089-.885-.014-.075-.027-.15-.044-.224a4.994 4.994 0 0 0-.252-.813c-.015-.036-.035-.068-.051-.103a5.017 5.017 0 0 0-.235-.477L284.71 31.03V16.556C284.71 7.427 277.283 0 268.154 0H126.702c-9.128 0-16.555 7.427-16.555 16.556v14.491l-44.603 77.092a4.891 4.891 0 0 0-.232.471c-.017.038-.038.072-.054.11a5.002 5.002 0 0 0-.296 1.036 4.973 4.973 0 0 0-.089.885V390.067a5 5 0 0 0 5 5h255.123a5 5 0 0 0 5-5v-54.155h.201V164.506zm-90.77 10h80.569v151.405h-80.569V174.506zm0-10v-48.864h80.57v48.864h-80.57zm40.288-122.143 36.573 63.213c-15.634-.687-29.934-9.393-37.657-23.106l-10.915-19.379 11.999-20.728zm-17.815 30.779 8.018 14.235a55.42 55.42 0 0 0 16.611 18.266h-43.433l18.804-32.501zM120.146 16.556A6.563 6.563 0 0 1 126.701 10h141.453a6.563 6.563 0 0 1 6.556 6.556v10.833H120.146V16.556zm-2.116 20.832h153l-39.49 68.254h-153l39.49-68.254zm-43.159 78.255h154.554v48.864H74.871v-48.864zm154.554 210.268H74.871V174.506h154.554v151.405zm-154.554 10h154.554v49.155H74.871v-49.155zm245.123 49.155h-80.569v-49.155h80.569v49.155z"/><path d="m83.889 247.04 4.222 2.959a18.317 18.317 0 0 0 23.356-1.942l1.064-1.047 10.92 59.261a4.976 4.976 0 0 0 2.122 3.218l.047.033c.242.16.496.298.764.415.032.014.061.031.094.044.268.11.546.197.834.259.031.007.06.019.092.025.313.062.634.1.964.1H175.9c.324 0 .64-.036.948-.096.109-.021.21-.058.316-.086.195-.051.388-.104.573-.178.117-.046.226-.104.338-.159.164-.08.325-.163.479-.26a5.09 5.09 0 0 0 .311-.217 5.049 5.049 0 0 0 .682-.605 5.19 5.19 0 0 0 .347-.42c.075-.1.149-.198.216-.303.098-.155.181-.318.263-.484.055-.113.115-.221.162-.339.071-.179.122-.367.173-.556.031-.115.073-.226.096-.345.003-.016.01-.031.013-.047l10.924-59.283 1.086 1.069a18.313 18.313 0 0 0 23.354 1.942l4.222-2.958a7.484 7.484 0 0 0 3.212-5.909 7.485 7.485 0 0 0-2.78-6.123l-11.453-9.315-5.6-4.774a88.231 88.231 0 0 1-14.166-15.328l-5.629-7.767a18.432 18.432 0 0 0-15.023-7.772h-33.662c-5.962 0-11.579 2.906-14.991 7.727l-5.688 7.848a88.14 88.14 0 0 1-14.104 15.275l-5.612 4.793-11.451 9.313a7.48 7.48 0 0 0-2.779 6.123 7.495 7.495 0 0 0 3.212 5.909zm49.506 53.325v-7.837a4.748 4.748 0 0 1 4.742-4.743h28.021a4.748 4.748 0 0 1 4.743 4.743v7.837h-37.506zm-32.129-66.949.093-.077 5.658-4.833a98.162 98.162 0 0 0 15.706-17.01l5.721-7.893a8.417 8.417 0 0 1 6.861-3.55h33.662c2.723 0 5.288 1.327 6.894 3.595l5.662 7.812a98.213 98.213 0 0 0 15.774 17.069l5.645 4.812.09.074 8.976 7.3-1.562 1.094a8.315 8.315 0 0 1-10.603-.882l-7.803-7.675a5.001 5.001 0 0 0-8.423 2.658l-8.307 45.079a14.66 14.66 0 0 0-9.15-3.205h-28.021a14.66 14.66 0 0 0-9.173 3.222l-8.306-45.075a5 5 0 0 0-8.423-2.658l-7.78 7.654a8.314 8.314 0 0 1-10.604.881l-1.561-1.094 8.974-7.298zm68.463-187.948c-12.459 0-22.595 10.136-22.595 22.595s10.136 22.595 22.595 22.595 22.595-10.136 22.595-22.595-10.136-22.595-22.595-22.595zm0 35.189c-6.945 0-12.595-5.65-12.595-12.595s5.65-12.595 12.595-12.595 12.595 5.65 12.595 12.595-5.65 12.595-12.595 12.595z"/></svg>