<svg xmlns="http://www.w3.org/2000/svg" viewBox="0 0 64 64"><path d="M32 64c-8.88 0-17.76-2-26.57-6.01a.955.955 0 0 1-.56-.97c.82-9.04 6.31-15.3 15.86-18.09 2.82-.82 3.91-3.12 4.32-4.91.12-.52.64-.85 1.16-.73.52.12.85.64.73 1.16-.75 3.24-2.77 5.49-5.67 6.33-8.48 2.48-13.44 7.9-14.4 15.72 16.68 7.39 33.58 7.39 50.27 0-.97-7.82-5.94-13.25-14.41-15.72-3.7-1.08-5.13-4.03-5.67-6.32a.98.98 0 0 1 .72-1.17c.51-.12 1.04.2 1.17.72.62 2.6 2.07 4.25 4.32 4.9C52.82 41.7 58.31 47.95 59.14 57c.04.41-.19.8-.56.97C49.76 62 40.87 64 32 64z"/><path d="M31.99 36.97C26 36.97 20.02 32 17.86 25.3c-1.98-.54-2.87-2.71-3.48-4.82-.62-2.11-.06-3.26.51-3.86.43-.45.99-.7 1.53-.8.03-4.69 1.4-8.45 4.09-11.2C25.08-.03 31.73 0 32 0c.27 0 6.91-.03 11.48 4.63 2.69 2.75 4.06 6.51 4.09 11.2.54.1 1.09.35 1.52.79.58.59 1.14 1.75.52 3.86-.65 2.21-1.53 4.3-3.49 4.82C43.97 32 38 36.97 31.99 36.97zM17 17.72c-.21 0-.53.06-.72.26-.3.31-.32 1.03-.04 1.97.87 3.02 1.69 3.49 2.45 3.54.41.03.75.31.86.7 1.76 6.18 7.11 10.84 12.44 10.84 5.34 0 10.69-4.66 12.44-10.84.11-.39.45-.67.86-.7.75-.06 1.58-.53 2.46-3.54.27-.94.26-1.66-.05-1.97-.25-.26-.73-.28-.87-.24a.962.962 0 0 1-1.21-.97c.15-4.6-1.03-8.23-3.53-10.77-3.99-4.08-10-4.06-10.09-4.06-.1.01-6.14 0-10.11 4.06-2.48 2.54-3.67 6.16-3.51 10.76.01.31-.13.6-.36.79-.24.19-.56.26-.85.18-.04 0-.1-.01-.17-.01zm31.69 2.5z"/><path d="M42.3 17.02c-8.93 0-13.94-4.07-15.85-6.05-3.27 4.57-7.06 5.02-8.94 5.24a.982.982 0 0 1-1.08-.85.982.982 0 0 1 .85-1.08c1.99-.24 5.32-.63 8.24-5.42a.96.96 0 0 1 .79-.46c.34-.01.64.14.82.4.23.32 5.87 7.84 19.32 5.98.53-.08 1.02.3 1.09.83a.97.97 0 0 1-.83 1.09c-1.55.22-3.03.32-4.41.32zM32 44.4c-4.83 0-9.34-1.37-12.07-3.67a.979.979 0 0 1-.12-1.37c.35-.41.96-.46 1.37-.12 2.39 2.01 6.44 3.22 10.82 3.22s8.43-1.2 10.82-3.22a.979.979 0 0 1 1.37.12c.34.41.29 1.02-.12 1.37-2.74 2.3-7.25 3.67-12.07 3.67z"/></svg>