<svg xmlns="http://www.w3.org/2000/svg" viewBox="0 0 48 48"><path fill-rule="evenodd" d="M21 38c-1.66 0-3 1.34-3 3s1.34 3 3 3 3-1.34 3-3-1.34-3-3-3Zm15 0c-1.66 0-3 1.34-3 3s1.34 3 3 3 3-1.34 3-3-1.34-3-3-3Zm-15 2c.55 0 1 .45 1 1s-.45 1-1 1-1-.45-1-1 .45-1 1-1Zm15 0c.55 0 1 .45 1 1s-.45 1-1 1-1-.45-1-1 .45-1 1-1Zm8-6c0-.8-.32-1.56-.88-2.12S41.79 31 41 31H21.85c-.53 0-1.05-.11-1.52-.3 4.4-.59 14.26-1.91 18.98-2.55 1.53-.21 2.69-1.44 2.69-2.98V15c0-1.66-1.34-3-3-3h-1V7c0-.55-.45-1-1-1h-7V5c0-.55-.45-1-1-1H17c-.55 0-1 .45-1 1v7s-2.1 0-2.15.01l-1.31-5.06a3.948 3.948 0 0 0-3.82-2.96H7c-1.66 0-3 1.34-3 3 0 0 0 .55 0 0 0 .8.32 1.56.88 2.12s1.33.88 2.12.88h.23l5.05 19.49c1.15 4.42 5.14 7.51 9.7 7.51H41c.8 0 1.56-.32 2.12-.88s.88-1.33.88-2.12ZM8.97 8.77C8.87 8.33 8.47 8 8 8H7c-.55 0-1-.45-1-1 0-.27.11-.52.29-.71A.99.99 0 0 1 7 6h1.72c.89 0 1.66.6 1.88 1.46l5.46 21.07A5.97 5.97 0 0 0 21.84 33h19.15c.27 0 .52.11.71.29.19.19.29.44.29.71s-.11.52-.29.71a.99.99 0 0 1-.71.29H21.98c-3.66 0-6.85-2.47-7.77-6.01L8.97 8.77ZM39 14H14.37l3.64 14.02c.08.33.21.63.36.92 2.65-.35 15.17-2.02 20.67-2.77.53-.07.96-.47.96-1V15c0-.55-.45-1-1-1Zm-4 11c1.66 0 3-1.34 3-3v-3c0-.8-.32-1.56-.88-2.12S35.8 16 35 16s-1.56.32-2.12.88S32 18.21 32 19v3c0 1.66 1.34 3 3 3Zm-7 0c1.66 0 3-1.34 3-3v-3c0-.8-.32-1.56-.88-2.12S28.8 16 28 16s-1.56.32-2.12.88S25 18.21 25 19v3c0 1.66 1.34 3 3 3Zm-7 0c1.66 0 3-1.34 3-3v-3c0-.8-.32-1.56-.88-2.12S21.8 16 21 16s-1.56.32-2.12.88S18 18.21 18 19v3c0 1.66 1.34 3 3 3Zm14-2c-.55 0-1-.45-1-1v-3c0-.55.45-1 1-1s1 .45 1 1v3c0 .55-.45 1-1 1Zm-7 0c-.55 0-1-.45-1-1v-3c0-.55.45-1 1-1s1 .45 1 1v3c0 .55-.45 1-1 1Zm-7 0c-.55 0-1-.45-1-1v-3c0-.55.45-1 1-1s1 .45 1 1v3c0 .55-.45 1-1 1Zm5-17v3c0 .55-.45 1-1 1h-4c-.55 0-1-.45-1-1V6h-2v6h10V6h-2Zm4 6h6V8h-2v1c0 .55-.45 1-1 1s-1-.45-1-1V8h-2v4Zm-6-6v2h-2V6h2Z"/></svg>